G04 Layer_Color=8421504*
%FSLAX44Y44*%
%MOMM*%
G71*
G01*
G75*
%ADD10R,0.6000X0.6000*%
%ADD11R,0.6000X0.6000*%
%ADD12R,3.2000X4.0000*%
%ADD13R,1.2000X1.6000*%
%ADD14R,1.4000X1.4000*%
%ADD15R,1.5000X3.0000*%
%ADD16R,1.1000X0.8000*%
%ADD17R,1.6002X1.8034*%
%ADD18R,1.8034X1.6002*%
%ADD19R,2.7000X0.5000*%
G04:AMPARAMS|DCode=20|XSize=1.1176mm|YSize=1.4224mm|CornerRadius=0.0838mm|HoleSize=0mm|Usage=FLASHONLY|Rotation=0.000|XOffset=0mm|YOffset=0mm|HoleType=Round|Shape=RoundedRectangle|*
%AMROUNDEDRECTD20*
21,1,1.1176,1.2548,0,0,0.0*
21,1,0.9500,1.4224,0,0,0.0*
1,1,0.1676,0.4750,-0.6274*
1,1,0.1676,-0.4750,-0.6274*
1,1,0.1676,-0.4750,0.6274*
1,1,0.1676,0.4750,0.6274*
%
%ADD20ROUNDEDRECTD20*%
%ADD21R,0.6350X2.6162*%
%ADD22R,0.8000X1.0000*%
%ADD23R,1.0000X0.8000*%
%ADD24R,1.9000X0.3000*%
%ADD25R,0.3000X1.8000*%
%ADD26R,1.2192X0.5588*%
%ADD27R,0.5588X1.2192*%
%ADD28R,1.9000X1.3000*%
%ADD29R,1.3000X1.9000*%
%ADD30R,1.0000X1.5000*%
%ADD31R,1.5000X1.0000*%
%ADD32R,1.0000X1.0000*%
%ADD33R,1.0000X1.0000*%
%ADD34R,0.4064X0.4000*%
%ADD35R,3.1000X2.4000*%
%ADD36R,0.6096X2.2098*%
%ADD37R,2.2098X0.6096*%
%ADD38R,1.4224X1.0160*%
%ADD39R,1.0160X1.4224*%
%ADD40R,1.0000X0.4000*%
%ADD41R,2.0000X0.8128*%
%ADD42R,1.1176X1.0160*%
%ADD43R,1.0160X1.1176*%
%ADD44O,1.8000X0.3000*%
%ADD45O,0.3000X1.8000*%
%ADD47C,0.5000*%
%ADD53C,0.2000*%
%ADD55C,0.4000*%
%ADD56R,1.4224X3.0734*%
%ADD57R,3.0734X1.4224*%
%ADD58R,6.2000X5.7000*%
%ADD59R,2.9000X1.1000*%
%ADD60R,0.6604X1.1176*%
%ADD61R,0.4400X1.5500*%
%ADD62R,3.0000X4.2000*%
%ADD63R,1.9000X0.4200*%
%ADD64R,1.1176X0.6604*%
%ADD65R,3.0000X6.0000*%
%ADD66R,13.0000X4.5000*%
%ADD67R,2.8000X2.2000*%
%ADD68R,2.2000X2.8000*%
%ADD69R,0.8128X1.6002*%
%ADD70R,6.0000X3.0000*%
%ADD71O,1.6000X3.6000*%
%ADD72O,3.6000X1.6000*%
%ADD73R,0.8128X0.8128*%
%ADD74R,1.0160X1.1176*%
%ADD128R,1.1000X1.4112*%
%ADD129R,1.0922X1.4112*%
%ADD130R,0.6048X1.0000*%
%ADD131R,0.6048X1.0160*%
D10*
X1693613Y1682065D02*
D03*
Y1694315D02*
D03*
X1693599Y1618120D02*
D03*
Y1605870D02*
D03*
X1505500Y1649500D02*
D03*
Y1637250D02*
D03*
D11*
X1642000Y1650250D02*
D03*
X1654250D02*
D03*
X1562000Y1594250D02*
D03*
X1549750D02*
D03*
X1693500Y1724500D02*
D03*
X1681250D02*
D03*
X1693500Y1577000D02*
D03*
X1681250D02*
D03*
D12*
X447500Y2224500D02*
D03*
X382500D02*
D03*
D13*
X1071250Y2197750D02*
D03*
X1048250D02*
D03*
Y2173750D02*
D03*
X1071250D02*
D03*
D14*
X1466500Y1923250D02*
D03*
X1490500D02*
D03*
Y1947250D02*
D03*
X1466500D02*
D03*
D15*
X1697900Y1931000D02*
D03*
X1672500D02*
D03*
X1647100D02*
D03*
X1621700D02*
D03*
Y2055000D02*
D03*
X1647100D02*
D03*
X1672500D02*
D03*
X1697900D02*
D03*
X1697100Y2121000D02*
D03*
X1671700D02*
D03*
X1646300D02*
D03*
X1620900D02*
D03*
Y2245000D02*
D03*
X1646300D02*
D03*
X1671700D02*
D03*
X1697100D02*
D03*
D16*
X1461000Y1649500D02*
D03*
X1444000D02*
D03*
Y1635500D02*
D03*
X1461000D02*
D03*
D17*
X929030Y2241250D02*
D03*
X957474D02*
D03*
D18*
X703500Y2091220D02*
D03*
Y2062776D02*
D03*
D19*
X505000Y1804000D02*
D03*
X555000D02*
D03*
X505000Y1812000D02*
D03*
X555000D02*
D03*
X505000Y1820000D02*
D03*
X555000D02*
D03*
X505000Y1828000D02*
D03*
X555000D02*
D03*
X505000Y1836000D02*
D03*
X555000D02*
D03*
X505000Y1844000D02*
D03*
X555000D02*
D03*
X505000Y1852000D02*
D03*
X555000D02*
D03*
X505000Y1860000D02*
D03*
X555000D02*
D03*
X505000Y1868000D02*
D03*
X555000D02*
D03*
X505000Y1876000D02*
D03*
X555000D02*
D03*
X505000Y1884000D02*
D03*
X555000D02*
D03*
X505000Y1892000D02*
D03*
X555000D02*
D03*
X505000Y1900000D02*
D03*
X555000D02*
D03*
X505000Y1908000D02*
D03*
X555000D02*
D03*
X505000Y1916000D02*
D03*
X555000D02*
D03*
X505000Y1924000D02*
D03*
X555000D02*
D03*
X505000Y1932000D02*
D03*
X555000D02*
D03*
X505000Y1940000D02*
D03*
X555000D02*
D03*
X505000Y1948000D02*
D03*
X555000D02*
D03*
Y1956000D02*
D03*
X505000D02*
D03*
D20*
X1183000Y1517423D02*
D03*
X1215002D02*
D03*
D21*
X1199000D02*
D03*
D22*
X505500Y2219000D02*
D03*
X512000Y2203000D02*
D03*
X499000D02*
D03*
X437000Y932500D02*
D03*
X443500Y916500D02*
D03*
X430500D02*
D03*
D23*
X857000Y2326750D02*
D03*
X873000Y2333250D02*
D03*
Y2320250D02*
D03*
X857750Y2284750D02*
D03*
X873750Y2291250D02*
D03*
Y2278250D02*
D03*
X491750Y1493500D02*
D03*
X475750Y1487000D02*
D03*
Y1500000D02*
D03*
X777500Y1435750D02*
D03*
X793500Y1442250D02*
D03*
Y1429250D02*
D03*
D24*
X765250Y1887000D02*
D03*
Y1893500D02*
D03*
Y1900000D02*
D03*
Y1906500D02*
D03*
Y1913000D02*
D03*
Y1919500D02*
D03*
Y1926000D02*
D03*
Y1932500D02*
D03*
Y1939000D02*
D03*
Y1945500D02*
D03*
Y1952000D02*
D03*
Y1958500D02*
D03*
X705250Y1887000D02*
D03*
Y1893500D02*
D03*
Y1900000D02*
D03*
Y1906500D02*
D03*
Y1913000D02*
D03*
Y1919500D02*
D03*
Y1926000D02*
D03*
Y1932500D02*
D03*
Y1939000D02*
D03*
Y1945500D02*
D03*
Y1952000D02*
D03*
Y1958500D02*
D03*
D25*
X749250Y2219000D02*
D03*
X742750D02*
D03*
X736250D02*
D03*
X729750D02*
D03*
X723250D02*
D03*
X716750D02*
D03*
X710250D02*
D03*
X703750D02*
D03*
X749250Y2156000D02*
D03*
X742750D02*
D03*
X736250D02*
D03*
X729750D02*
D03*
X723250D02*
D03*
X716750D02*
D03*
X710250D02*
D03*
X703750D02*
D03*
X607750Y2214000D02*
D03*
X601250D02*
D03*
X594750D02*
D03*
X588250D02*
D03*
X581750D02*
D03*
X575250D02*
D03*
X568750D02*
D03*
X562250D02*
D03*
X607750Y2151000D02*
D03*
X601250D02*
D03*
X594750D02*
D03*
X588250D02*
D03*
X581750D02*
D03*
X575250D02*
D03*
X568750D02*
D03*
X562250D02*
D03*
D26*
X643000Y1847250D02*
D03*
Y1837750D02*
D03*
Y1828098D02*
D03*
X669208D02*
D03*
Y1837750D02*
D03*
Y1847250D02*
D03*
X643000Y1900000D02*
D03*
Y1890500D02*
D03*
Y1880848D02*
D03*
X669208D02*
D03*
Y1890500D02*
D03*
Y1900000D02*
D03*
X643750Y1953250D02*
D03*
Y1943750D02*
D03*
Y1934098D02*
D03*
X669958D02*
D03*
Y1943750D02*
D03*
Y1953250D02*
D03*
D27*
X1064500Y1778000D02*
D03*
X1074000D02*
D03*
X1083652D02*
D03*
Y1804208D02*
D03*
X1074000D02*
D03*
X1064500D02*
D03*
D28*
X1290000Y1733750D02*
D03*
Y1768750D02*
D03*
X1314250Y2091000D02*
D03*
Y2056000D02*
D03*
X935250Y1965750D02*
D03*
Y1930750D02*
D03*
X1392000Y1010500D02*
D03*
Y975500D02*
D03*
X1246000Y867500D02*
D03*
Y902500D02*
D03*
X1392000Y868500D02*
D03*
Y903500D02*
D03*
X437750Y640250D02*
D03*
Y675250D02*
D03*
X1175000Y866500D02*
D03*
Y901500D02*
D03*
X1144000Y866500D02*
D03*
Y901500D02*
D03*
D29*
X325000Y2094000D02*
D03*
X360000D02*
D03*
X325500Y2064000D02*
D03*
X360500D02*
D03*
X435750Y2083500D02*
D03*
X400750D02*
D03*
X436000Y2112750D02*
D03*
X401000D02*
D03*
X436250Y2142000D02*
D03*
X401250D02*
D03*
X436500Y2169500D02*
D03*
X401500D02*
D03*
X1104500Y1917000D02*
D03*
X1139500D02*
D03*
X979500Y1796500D02*
D03*
X1014500D02*
D03*
X329500Y1112000D02*
D03*
X294500D02*
D03*
X1376500Y691000D02*
D03*
X1341500D02*
D03*
X1400250Y651500D02*
D03*
X1365250D02*
D03*
X532500Y860000D02*
D03*
X497500D02*
D03*
D30*
X911250Y1464000D02*
D03*
X932250D02*
D03*
X1146250Y1845750D02*
D03*
X1125250D02*
D03*
X1012250Y2209000D02*
D03*
X991250D02*
D03*
X346750Y2123750D02*
D03*
X325750D02*
D03*
X412750Y2057000D02*
D03*
X433750D02*
D03*
X1123500Y2209000D02*
D03*
X1102500D02*
D03*
X302750Y1047750D02*
D03*
X323750D02*
D03*
D31*
X877250Y2114750D02*
D03*
Y2093750D02*
D03*
X309250Y2261750D02*
D03*
Y2240750D02*
D03*
X1194250Y2129750D02*
D03*
Y2108750D02*
D03*
X864250Y1927750D02*
D03*
Y1948750D02*
D03*
X735750Y2067000D02*
D03*
Y2088000D02*
D03*
X765750Y2067000D02*
D03*
Y2088000D02*
D03*
X1231750Y1496250D02*
D03*
Y1517250D02*
D03*
X1350000Y617500D02*
D03*
Y596500D02*
D03*
X1220000Y894500D02*
D03*
Y873500D02*
D03*
X925000Y398000D02*
D03*
Y377000D02*
D03*
X1265000Y430500D02*
D03*
Y409500D02*
D03*
X858500Y555000D02*
D03*
Y534000D02*
D03*
X1187250Y556250D02*
D03*
Y535250D02*
D03*
X1023250Y555750D02*
D03*
Y534750D02*
D03*
X362000Y664750D02*
D03*
Y643750D02*
D03*
D32*
X932250Y1441500D02*
D03*
X915250D02*
D03*
X722000Y1977000D02*
D03*
X705000D02*
D03*
X765250D02*
D03*
X748250D02*
D03*
X692000Y2128500D02*
D03*
X709000D02*
D03*
X743000D02*
D03*
X726000D02*
D03*
X777250Y1744000D02*
D03*
X794250D02*
D03*
X875500Y1832500D02*
D03*
X892500D02*
D03*
X416500Y2034000D02*
D03*
X433500D02*
D03*
X287000Y2240250D02*
D03*
X270000D02*
D03*
X345750Y2241000D02*
D03*
X328750D02*
D03*
X935500Y2196750D02*
D03*
X952500D02*
D03*
Y2218000D02*
D03*
X935500D02*
D03*
X1125250Y1889750D02*
D03*
X1142250D02*
D03*
Y1868750D02*
D03*
X1125250D02*
D03*
X991250Y2169750D02*
D03*
X1008250D02*
D03*
Y2184750D02*
D03*
X991250D02*
D03*
X1102500Y2165000D02*
D03*
X1119500D02*
D03*
Y2186000D02*
D03*
X1102500D02*
D03*
X1580500Y2283750D02*
D03*
X1563500D02*
D03*
X1051500Y2222000D02*
D03*
X1068500D02*
D03*
X584000Y2127500D02*
D03*
X601000D02*
D03*
X563500D02*
D03*
X546500D02*
D03*
X1005250Y1765500D02*
D03*
X988250D02*
D03*
X1676500Y2084500D02*
D03*
X1693500D02*
D03*
X1692250Y2277250D02*
D03*
X1675250D02*
D03*
X894500Y842000D02*
D03*
X911500D02*
D03*
X1508500Y1137000D02*
D03*
X1491500D02*
D03*
X498000Y920500D02*
D03*
X515000D02*
D03*
X1650500Y1194000D02*
D03*
X1633500D02*
D03*
X838250Y1176250D02*
D03*
X855250D02*
D03*
X570000Y2787250D02*
D03*
X553000D02*
D03*
Y2773000D02*
D03*
X570000D02*
D03*
X1050000Y2787250D02*
D03*
X1033000D02*
D03*
Y2773000D02*
D03*
X1050000D02*
D03*
X1530000Y2787250D02*
D03*
X1513000D02*
D03*
Y2773000D02*
D03*
X1530000D02*
D03*
D33*
X1442500Y1942500D02*
D03*
Y1925500D02*
D03*
X1255750Y1741000D02*
D03*
Y1758000D02*
D03*
X765000Y2196000D02*
D03*
Y2179000D02*
D03*
X688500D02*
D03*
Y2196000D02*
D03*
X627500Y2189750D02*
D03*
Y2172750D02*
D03*
X545500Y2171000D02*
D03*
Y2188000D02*
D03*
X688500Y2235750D02*
D03*
Y2218750D02*
D03*
X1281250Y2081250D02*
D03*
Y2064250D02*
D03*
X1171250Y2108750D02*
D03*
Y2125750D02*
D03*
X1150250D02*
D03*
Y2108750D02*
D03*
X911250Y1948750D02*
D03*
Y1931750D02*
D03*
X889250D02*
D03*
Y1948750D02*
D03*
X918250Y2093750D02*
D03*
Y2110750D02*
D03*
X898250D02*
D03*
Y2093750D02*
D03*
X547500Y2214000D02*
D03*
Y2231000D02*
D03*
X1505250Y1594250D02*
D03*
Y1577250D02*
D03*
X1659503Y1561380D02*
D03*
Y1578380D02*
D03*
X1657865Y1721965D02*
D03*
Y1738965D02*
D03*
X1251000Y1500000D02*
D03*
Y1517000D02*
D03*
X482000Y1113000D02*
D03*
Y1130000D02*
D03*
X627250Y765750D02*
D03*
Y782750D02*
D03*
X906250Y759500D02*
D03*
Y742500D02*
D03*
X1523000Y1138000D02*
D03*
Y1155000D02*
D03*
X1515000Y1202500D02*
D03*
Y1185500D02*
D03*
X1530000D02*
D03*
Y1202500D02*
D03*
X842250Y1275250D02*
D03*
Y1258250D02*
D03*
X1694000Y1141500D02*
D03*
Y1158500D02*
D03*
X1420000Y978500D02*
D03*
Y995500D02*
D03*
X1198000Y872500D02*
D03*
Y889500D02*
D03*
X369000Y622500D02*
D03*
Y605500D02*
D03*
D34*
X1483000Y1650000D02*
D03*
Y1660000D02*
D03*
D35*
X321000Y2183000D02*
D03*
D36*
X327350Y2213000D02*
D03*
Y2153000D02*
D03*
X340050Y2213000D02*
D03*
X314650D02*
D03*
X301950D02*
D03*
X340050Y2153000D02*
D03*
X314650D02*
D03*
X301950D02*
D03*
D37*
X823500Y1801850D02*
D03*
X875662D02*
D03*
X823500Y1814550D02*
D03*
Y1789150D02*
D03*
Y1776450D02*
D03*
X875662Y1814550D02*
D03*
Y1789150D02*
D03*
Y1776450D02*
D03*
D38*
X1359250Y1945000D02*
D03*
Y1925848D02*
D03*
X1381426Y1935500D02*
D03*
X1389886Y2054636D02*
D03*
Y2035484D02*
D03*
X1412062Y2045136D02*
D03*
X1389886Y2088636D02*
D03*
Y2069484D02*
D03*
X1412062Y2079136D02*
D03*
X1389886Y2122636D02*
D03*
Y2103484D02*
D03*
X1412062Y2113136D02*
D03*
X1389886Y2156636D02*
D03*
Y2137484D02*
D03*
X1412062Y2147136D02*
D03*
X1389886Y2189636D02*
D03*
Y2170484D02*
D03*
X1412062Y2180136D02*
D03*
X1389886Y2222636D02*
D03*
Y2203484D02*
D03*
X1412062Y2213136D02*
D03*
X1568000Y2155000D02*
D03*
Y2135848D02*
D03*
X1590176Y2145500D02*
D03*
X852500Y1517000D02*
D03*
Y1497848D02*
D03*
X874676Y1507500D02*
D03*
X555250Y1128750D02*
D03*
Y1147902D02*
D03*
X533074Y1138250D02*
D03*
D39*
X1069500Y2373750D02*
D03*
X1050348D02*
D03*
X1060000Y2351574D02*
D03*
X1116000Y2369500D02*
D03*
X1096848D02*
D03*
X1106500Y2347324D02*
D03*
X1161000Y2364500D02*
D03*
X1141848D02*
D03*
X1151500Y2342324D02*
D03*
X1208250Y2358500D02*
D03*
X1189098D02*
D03*
X1198750Y2336324D02*
D03*
X1162500Y1558750D02*
D03*
X1143348D02*
D03*
X1153000Y1536574D02*
D03*
X615500Y641750D02*
D03*
X596348D02*
D03*
X606000Y619574D02*
D03*
X472750Y1049750D02*
D03*
X491902D02*
D03*
X482250Y1071926D02*
D03*
X748750Y749500D02*
D03*
X767902D02*
D03*
X758250Y771676D02*
D03*
X544500Y967750D02*
D03*
X563652D02*
D03*
X554000Y989926D02*
D03*
X360000Y562500D02*
D03*
X379152D02*
D03*
X369500Y584676D02*
D03*
D40*
X1671500Y1650250D02*
D03*
X1693500D02*
D03*
X1671500Y1643750D02*
D03*
Y1656750D02*
D03*
X1693500D02*
D03*
Y1643750D02*
D03*
D41*
X1404198Y1506500D02*
D03*
Y1517500D02*
D03*
Y1528500D02*
D03*
Y1539500D02*
D03*
Y1550500D02*
D03*
Y1561500D02*
D03*
Y1572500D02*
D03*
Y1602662D02*
D03*
Y1613584D02*
D03*
Y1624506D02*
D03*
Y1635682D02*
D03*
Y1646604D02*
D03*
X1284000D02*
D03*
Y1635682D02*
D03*
Y1624506D02*
D03*
Y1613584D02*
D03*
Y1602662D02*
D03*
Y1572500D02*
D03*
Y1561500D02*
D03*
Y1550500D02*
D03*
Y1506500D02*
D03*
Y1517500D02*
D03*
Y1528500D02*
D03*
Y1539500D02*
D03*
D42*
X499250Y2243250D02*
D03*
Y2260386D02*
D03*
X1541750Y2154000D02*
D03*
Y2136864D02*
D03*
X1341250Y1945000D02*
D03*
Y1927864D02*
D03*
X1336750Y2318000D02*
D03*
Y2300864D02*
D03*
X1059500Y2313750D02*
D03*
Y2330886D02*
D03*
X1106500Y2311750D02*
D03*
Y2328886D02*
D03*
X281750Y2202000D02*
D03*
Y2219136D02*
D03*
X1210500Y1621000D02*
D03*
Y1603864D02*
D03*
X1231750Y1621000D02*
D03*
Y1603864D02*
D03*
X927000Y2311000D02*
D03*
Y2293864D02*
D03*
X964250Y2294000D02*
D03*
Y2311136D02*
D03*
X1469250Y1498500D02*
D03*
Y1481364D02*
D03*
X1243500Y1988750D02*
D03*
Y2005886D02*
D03*
X1244000Y1952500D02*
D03*
Y1935364D02*
D03*
X894000Y2334136D02*
D03*
Y2317000D02*
D03*
X893250Y2294000D02*
D03*
Y2276864D02*
D03*
X1494500Y1498000D02*
D03*
Y1480864D02*
D03*
X1520000Y1497750D02*
D03*
Y1480614D02*
D03*
X1415500Y2319000D02*
D03*
Y2301864D02*
D03*
X455250Y1501250D02*
D03*
Y1484114D02*
D03*
X922500Y1377000D02*
D03*
Y1394136D02*
D03*
X798500Y1511500D02*
D03*
Y1494364D02*
D03*
X632000Y1507500D02*
D03*
Y1490364D02*
D03*
X654250Y1507500D02*
D03*
Y1490364D02*
D03*
X754750Y1445000D02*
D03*
Y1427864D02*
D03*
X812500Y1423750D02*
D03*
Y1440886D02*
D03*
X448750Y1149750D02*
D03*
Y1166886D02*
D03*
Y1052250D02*
D03*
Y1069386D02*
D03*
X448750Y1091750D02*
D03*
Y1108886D02*
D03*
X722750Y750250D02*
D03*
Y767386D02*
D03*
Y789000D02*
D03*
Y806136D02*
D03*
X621500Y1286500D02*
D03*
Y1269364D02*
D03*
X576250Y1130000D02*
D03*
Y1147136D02*
D03*
X586250Y969000D02*
D03*
Y986136D02*
D03*
X1466000Y1201500D02*
D03*
Y1184364D02*
D03*
X1546000Y1202500D02*
D03*
Y1185364D02*
D03*
X586500Y1010000D02*
D03*
Y1027136D02*
D03*
X1466000Y1164500D02*
D03*
Y1147364D02*
D03*
X1437000Y1177500D02*
D03*
Y1160364D02*
D03*
X401250Y556250D02*
D03*
Y573386D02*
D03*
X401000Y597000D02*
D03*
Y614136D02*
D03*
D43*
X777000Y1723500D02*
D03*
X794136D02*
D03*
X1268000Y2244000D02*
D03*
X1285136D02*
D03*
X1310500D02*
D03*
X1327636D02*
D03*
X1445250Y2032636D02*
D03*
X1462386D02*
D03*
X1445250Y2065364D02*
D03*
X1462386D02*
D03*
X1445250Y2098091D02*
D03*
X1462386D02*
D03*
X1445250Y2130818D02*
D03*
X1462386D02*
D03*
X1445250Y2163545D02*
D03*
X1462386D02*
D03*
X1445250Y2196273D02*
D03*
X1462386D02*
D03*
Y2049000D02*
D03*
X1445250D02*
D03*
X1462386Y2081727D02*
D03*
X1445250D02*
D03*
X1462386Y2114454D02*
D03*
X1445250D02*
D03*
X1462386Y2147182D02*
D03*
X1445250D02*
D03*
X1462386Y2179636D02*
D03*
X1445250D02*
D03*
X1462386Y2212636D02*
D03*
X1445250D02*
D03*
X1134750Y2317750D02*
D03*
X1151886D02*
D03*
X1182000Y2314750D02*
D03*
X1199136D02*
D03*
X269750Y2257500D02*
D03*
X286886D02*
D03*
X1506500Y2262750D02*
D03*
X1523636D02*
D03*
X1563250Y2263750D02*
D03*
X1580386D02*
D03*
X1230500Y1540000D02*
D03*
X1247636D02*
D03*
X1230500Y1555000D02*
D03*
X1247636D02*
D03*
X712250Y2004500D02*
D03*
X729386D02*
D03*
X918750Y1507500D02*
D03*
X901614D02*
D03*
X836500Y2346750D02*
D03*
X819364D02*
D03*
X837000Y2327500D02*
D03*
X819864D02*
D03*
X836250Y2294750D02*
D03*
X819114D02*
D03*
X836000Y2275750D02*
D03*
X818864D02*
D03*
X309500Y2314500D02*
D03*
X326636D02*
D03*
X515000Y2181000D02*
D03*
X497864D02*
D03*
X697250Y2004250D02*
D03*
X680114D02*
D03*
X514500Y1493500D02*
D03*
X531636D02*
D03*
X868500Y1537750D02*
D03*
X885636D02*
D03*
X1162000Y1578750D02*
D03*
X1144864D02*
D03*
X1451000Y1594250D02*
D03*
X1468136D02*
D03*
X1267750Y2271500D02*
D03*
X1284886D02*
D03*
X1310500D02*
D03*
X1327636D02*
D03*
X444000Y893250D02*
D03*
X426864D02*
D03*
X616500Y337750D02*
D03*
X599364D02*
D03*
X614500Y665750D02*
D03*
X597364D02*
D03*
X1491500Y1154000D02*
D03*
X1508636D02*
D03*
X362000Y302500D02*
D03*
X379136D02*
D03*
D44*
X1117750Y2086250D02*
D03*
Y2081250D02*
D03*
Y2076250D02*
D03*
Y2071250D02*
D03*
Y2066250D02*
D03*
Y2061250D02*
D03*
Y2056250D02*
D03*
Y2051250D02*
D03*
Y2046250D02*
D03*
Y2041250D02*
D03*
Y2036250D02*
D03*
Y2031250D02*
D03*
Y2026250D02*
D03*
Y2021250D02*
D03*
Y2016250D02*
D03*
Y2011250D02*
D03*
Y2006250D02*
D03*
Y2001250D02*
D03*
Y1996250D02*
D03*
Y1991250D02*
D03*
Y1986250D02*
D03*
Y1981250D02*
D03*
Y1976250D02*
D03*
Y1971250D02*
D03*
Y1966250D02*
D03*
X966750D02*
D03*
Y1971250D02*
D03*
Y1976250D02*
D03*
Y1981250D02*
D03*
Y1986250D02*
D03*
Y1991250D02*
D03*
Y1996250D02*
D03*
Y2001250D02*
D03*
Y2006250D02*
D03*
Y2011250D02*
D03*
Y2016250D02*
D03*
Y2021250D02*
D03*
Y2026250D02*
D03*
Y2031250D02*
D03*
Y2036250D02*
D03*
Y2041250D02*
D03*
Y2046250D02*
D03*
Y2051250D02*
D03*
Y2056250D02*
D03*
Y2061250D02*
D03*
Y2066250D02*
D03*
Y2071250D02*
D03*
Y2076250D02*
D03*
Y2081250D02*
D03*
Y2086250D02*
D03*
D45*
X1102250Y1950750D02*
D03*
X1097250D02*
D03*
X1092250D02*
D03*
X1087250D02*
D03*
X1082250D02*
D03*
X1077250D02*
D03*
X1072250D02*
D03*
X1067250D02*
D03*
X1062250D02*
D03*
X1057250D02*
D03*
X1052250D02*
D03*
X1047250D02*
D03*
X1042250D02*
D03*
X1037250D02*
D03*
X1032250D02*
D03*
X1027250D02*
D03*
X1022250D02*
D03*
X1017250D02*
D03*
X1012250D02*
D03*
X1007250D02*
D03*
X1002250D02*
D03*
X997250D02*
D03*
X992250D02*
D03*
X987250D02*
D03*
X982250D02*
D03*
Y2101750D02*
D03*
X987250D02*
D03*
X992250D02*
D03*
X997250D02*
D03*
X1002250D02*
D03*
X1007250D02*
D03*
X1012250D02*
D03*
X1017250D02*
D03*
X1022250D02*
D03*
X1027250D02*
D03*
X1032250D02*
D03*
X1037250D02*
D03*
X1042250D02*
D03*
X1047250D02*
D03*
X1052250D02*
D03*
X1057250D02*
D03*
X1062250D02*
D03*
X1067250D02*
D03*
X1072250D02*
D03*
X1077250D02*
D03*
X1082250D02*
D03*
X1087250D02*
D03*
X1092250D02*
D03*
X1097250D02*
D03*
X1102250D02*
D03*
D47*
X240000Y2825000D02*
Y2440000D01*
X655000D01*
X700000Y2485000D02*
X655000Y2440000D01*
X700000Y2780000D02*
Y2485000D01*
X655000Y2825000D02*
X700000Y2780000D01*
X240000Y2825000D02*
X655000D01*
X720000D02*
Y2440000D01*
X1135000D01*
X1180000Y2485000D02*
X1135000Y2440000D01*
X1180000Y2780000D02*
Y2485000D01*
X1135000Y2825000D02*
X1180000Y2780000D01*
X720000Y2825000D02*
X1135000D01*
X1200000D02*
Y2440000D01*
X1615000D01*
X1660000Y2485000D02*
X1615000Y2440000D01*
X1660000Y2780000D02*
Y2485000D01*
X1615000Y2825000D02*
X1660000Y2780000D01*
X1200000Y2825000D02*
X1615000D01*
D53*
X130000Y220000D02*
Y2845000D01*
X1930000D01*
Y220000D02*
Y2845000D01*
X130000Y220000D02*
X1930000D01*
D55*
X240000Y1340000D02*
Y2420000D01*
X830000D01*
X1820000Y2320000D01*
X240000Y1340000D02*
X830000D01*
X1820000Y1440000D02*
Y2320000D01*
X830000Y1340000D02*
X1820000Y1440000D01*
X240000Y240000D02*
Y1320000D01*
Y240000D02*
X830000D01*
X1820000Y340000D01*
X240000Y1320000D02*
X830000D01*
X1820000Y1220000D01*
Y340000D02*
Y1220000D01*
D56*
X649250Y406500D02*
D03*
X602128D02*
D03*
X1399500Y937000D02*
D03*
X1446622D02*
D03*
X650500Y464500D02*
D03*
X603378D02*
D03*
X650250Y511250D02*
D03*
X603128D02*
D03*
X1360250Y560250D02*
D03*
X1407372D02*
D03*
X1360250Y505000D02*
D03*
X1407372D02*
D03*
D57*
X1439250Y446500D02*
D03*
Y493622D02*
D03*
D58*
X1510000Y1039860D02*
D03*
X1563000Y955500D02*
D03*
D59*
X1581000Y1062720D02*
D03*
Y1017000D02*
D03*
X1492000Y932640D02*
D03*
Y978360D02*
D03*
D60*
X302848Y1069324D02*
D03*
Y1091500D02*
D03*
X312500D02*
D03*
X322000Y1069324D02*
D03*
Y1091500D02*
D03*
D61*
X929250Y822000D02*
D03*
X922750D02*
D03*
X916250D02*
D03*
X909750D02*
D03*
X903250D02*
D03*
X896750D02*
D03*
X929250Y775500D02*
D03*
X922750D02*
D03*
X916250D02*
D03*
X909750D02*
D03*
X903250D02*
D03*
X896750D02*
D03*
X819500Y1193750D02*
D03*
X826000D02*
D03*
X832500D02*
D03*
X839000D02*
D03*
X845500D02*
D03*
X852000D02*
D03*
X819500Y1240250D02*
D03*
X826000D02*
D03*
X832500D02*
D03*
X839000D02*
D03*
X845500D02*
D03*
X852000D02*
D03*
D62*
X1596000Y1151650D02*
D03*
D63*
X1626000Y1181000D02*
D03*
Y1174396D02*
D03*
Y1167792D02*
D03*
Y1161442D02*
D03*
Y1154838D02*
D03*
Y1148488D02*
D03*
Y1141884D02*
D03*
Y1135280D02*
D03*
Y1128930D02*
D03*
Y1122326D02*
D03*
X1566000Y1122326D02*
D03*
Y1128930D02*
D03*
Y1135280D02*
D03*
Y1141884D02*
D03*
Y1148488D02*
D03*
Y1154838D02*
D03*
Y1161442D02*
D03*
Y1167792D02*
D03*
Y1174396D02*
D03*
Y1181000D02*
D03*
D64*
X383824Y665902D02*
D03*
X406000D02*
D03*
Y656250D02*
D03*
X383824Y646750D02*
D03*
X406000D02*
D03*
D65*
X335000Y995000D02*
D03*
Y879000D02*
D03*
X1317000Y1096000D02*
D03*
Y1008000D02*
D03*
X1316000Y838000D02*
D03*
Y926000D02*
D03*
X856500Y321000D02*
D03*
Y409000D02*
D03*
X1185000Y321000D02*
D03*
Y409000D02*
D03*
D66*
X1695000Y859000D02*
D03*
Y1029000D02*
D03*
D67*
X353250Y1086500D02*
D03*
X403250D02*
D03*
X486000Y575000D02*
D03*
X436000D02*
D03*
D68*
X833000Y912000D02*
D03*
Y962000D02*
D03*
Y1100000D02*
D03*
Y1050000D02*
D03*
D69*
X1676000Y1193000D02*
D03*
Y1158982D02*
D03*
D70*
X821750Y660750D02*
D03*
X733750D02*
D03*
X985500D02*
D03*
X897500D02*
D03*
X1148500D02*
D03*
X1060500D02*
D03*
X1308000D02*
D03*
X1220000D02*
D03*
D71*
X620000Y2524000D02*
D03*
X600000D02*
D03*
X580000D02*
D03*
X560000D02*
D03*
X540000D02*
D03*
X520000D02*
D03*
X500000D02*
D03*
X480000D02*
D03*
X460000D02*
D03*
X440000D02*
D03*
X420000D02*
D03*
X400000D02*
D03*
X380000D02*
D03*
X360000Y2524000D02*
D03*
X340000D02*
D03*
X320000D02*
D03*
X320000Y2746000D02*
D03*
X340000D02*
D03*
X360000D02*
D03*
X380000D02*
D03*
X400000D02*
D03*
X420000D02*
D03*
X440000D02*
D03*
X460000D02*
D03*
X480000D02*
D03*
X500000D02*
D03*
X520000D02*
D03*
X540000D02*
D03*
X560000D02*
D03*
X1100000Y2524000D02*
D03*
X1080000D02*
D03*
X1060000D02*
D03*
X1040000D02*
D03*
X1020000D02*
D03*
X1000000D02*
D03*
X980000D02*
D03*
X960000D02*
D03*
X940000D02*
D03*
X920000D02*
D03*
X900000D02*
D03*
X880000D02*
D03*
X860000D02*
D03*
X840000Y2524000D02*
D03*
X820000D02*
D03*
X800000D02*
D03*
X800000Y2746000D02*
D03*
X820000D02*
D03*
X840000D02*
D03*
X860000D02*
D03*
X880000D02*
D03*
X900000D02*
D03*
X920000D02*
D03*
X940000D02*
D03*
X960000D02*
D03*
X980000D02*
D03*
X1000000D02*
D03*
X1020000D02*
D03*
X1040000D02*
D03*
X1580000Y2524000D02*
D03*
X1560000D02*
D03*
X1540000D02*
D03*
X1520000D02*
D03*
X1500000D02*
D03*
X1480000D02*
D03*
X1460000D02*
D03*
X1440000D02*
D03*
X1420000D02*
D03*
X1400000D02*
D03*
X1380000D02*
D03*
X1360000D02*
D03*
X1340000D02*
D03*
X1320000Y2524000D02*
D03*
X1300000D02*
D03*
X1280000D02*
D03*
X1280000Y2746000D02*
D03*
X1300000D02*
D03*
X1320000D02*
D03*
X1340000D02*
D03*
X1360000D02*
D03*
X1380000D02*
D03*
X1400000D02*
D03*
X1420000D02*
D03*
X1440000D02*
D03*
X1460000D02*
D03*
X1480000D02*
D03*
X1500000D02*
D03*
X1520000D02*
D03*
D72*
X300000Y2565000D02*
D03*
Y2585000D02*
D03*
Y2605000D02*
D03*
Y2625000D02*
D03*
Y2645000D02*
D03*
X300000Y2665000D02*
D03*
Y2685000D02*
D03*
Y2705000D02*
D03*
X780000Y2565000D02*
D03*
Y2585000D02*
D03*
Y2605000D02*
D03*
Y2625000D02*
D03*
Y2645000D02*
D03*
X780000Y2665000D02*
D03*
Y2685000D02*
D03*
Y2705000D02*
D03*
X1260000Y2565000D02*
D03*
Y2585000D02*
D03*
Y2605000D02*
D03*
Y2625000D02*
D03*
Y2645000D02*
D03*
X1260000Y2665000D02*
D03*
Y2685000D02*
D03*
Y2705000D02*
D03*
D73*
X387000Y2795000D02*
D03*
X403128D02*
D03*
X397000Y2470000D02*
D03*
X413128D02*
D03*
X317000D02*
D03*
X333128D02*
D03*
X867000Y2795000D02*
D03*
X883128D02*
D03*
X877000Y2470000D02*
D03*
X893128D02*
D03*
X797000D02*
D03*
X813128D02*
D03*
X1347000Y2795000D02*
D03*
X1363128D02*
D03*
X1357000Y2470000D02*
D03*
X1373128D02*
D03*
X1277000D02*
D03*
X1293128D02*
D03*
D74*
X421500Y2795000D02*
D03*
X438636D02*
D03*
X431500Y2470000D02*
D03*
X448636D02*
D03*
X351500D02*
D03*
X368636D02*
D03*
X901500Y2795000D02*
D03*
X918636D02*
D03*
X911500Y2470000D02*
D03*
X928636D02*
D03*
X831500D02*
D03*
X848636D02*
D03*
X1381500Y2795000D02*
D03*
X1398636D02*
D03*
X1391500Y2470000D02*
D03*
X1408636D02*
D03*
X1311500D02*
D03*
X1328636D02*
D03*
D128*
X1183000Y1517479D02*
D03*
D129*
X1215129D02*
D03*
D130*
X1199024Y1509423D02*
D03*
D131*
Y1525551D02*
D03*
M02*
