G04 Layer_Color=32896*
%FSLAX44Y44*%
%MOMM*%
G71*
G01*
G75*
%ADD47C,0.5000*%
%ADD48C,0.3000*%
%ADD49C,0.2540*%
%ADD53C,0.2000*%
%ADD55C,0.4000*%
%ADD112C,0.1270*%
%ADD113C,0.1524*%
%ADD120R,1.0000X0.2500*%
%ADD121R,0.8636X0.2250*%
%ADD122R,0.2250X0.8636*%
%ADD127C,0.4064*%
%ADD228C,0.1900*%
D47*
X921532Y1664500D02*
G03*
X921532Y1664500I-2032J0D01*
G01*
X240000Y2825000D02*
Y2440000D01*
X655000D01*
X700000Y2485000D02*
X655000Y2440000D01*
X700000Y2780000D02*
Y2485000D01*
X655000Y2825000D02*
X700000Y2780000D01*
X240000Y2825000D02*
X655000D01*
X720000D02*
Y2440000D01*
X1135000D01*
X1180000Y2485000D02*
X1135000Y2440000D01*
X1180000Y2780000D02*
Y2485000D01*
X1135000Y2825000D02*
X1180000Y2780000D01*
X720000Y2825000D02*
X1135000D01*
X1200000D02*
Y2440000D01*
X1615000D01*
X1660000Y2485000D02*
X1615000Y2440000D01*
X1660000Y2780000D02*
Y2485000D01*
X1615000Y2825000D02*
X1660000Y2780000D01*
X1200000Y2825000D02*
X1615000D01*
D48*
X496000Y865000D02*
G03*
X496000Y865000I-1000J0D01*
G01*
D49*
X818000Y2131000D02*
G03*
X818000Y2131000I-17000J0D01*
G01*
X858000Y2220000D02*
G03*
X858000Y2220000I-17000J0D01*
G01*
X489500Y2105000D02*
G03*
X489500Y2105000I-17000J0D01*
G01*
X470500Y1981250D02*
G03*
X470500Y1981250I-17000J0D01*
G01*
X941500Y2265500D02*
G03*
X941500Y2265500I-17000J0D01*
G01*
X389250Y1944250D02*
G03*
X389250Y1944250I-17000J0D01*
G01*
X988500Y2265500D02*
G03*
X988500Y2265500I-17000J0D01*
G01*
X1323250Y1881000D02*
G03*
X1323250Y1881000I-17000J0D01*
G01*
X1281500Y1884000D02*
G03*
X1281500Y1884000I-17000J0D01*
G01*
X818000Y2220000D02*
G03*
X818000Y2220000I-17000J0D01*
G01*
X856000Y2156000D02*
G03*
X856000Y2156000I-17000J0D01*
G01*
X932500Y2163500D02*
G03*
X932500Y2163500I-17000J0D01*
G01*
X841000Y1860000D02*
G03*
X841000Y1860000I-17000J0D01*
G01*
X939000Y1860500D02*
G03*
X939000Y1860500I-17000J0D01*
G01*
X880750Y1859750D02*
G03*
X880750Y1859750I-17000J0D01*
G01*
X939500Y1811000D02*
G03*
X939500Y1811000I-17000J0D01*
G01*
X985750Y1853250D02*
G03*
X985750Y1853250I-17000J0D01*
G01*
X795750Y1771750D02*
G03*
X795750Y1771750I-17000J0D01*
G01*
Y1811500D02*
G03*
X795750Y1811500I-17000J0D01*
G01*
X794250Y1851750D02*
G03*
X794250Y1851750I-17000J0D01*
G01*
X1431000Y1926250D02*
G03*
X1431000Y1926250I-17000J0D01*
G01*
X1613250Y2088250D02*
G03*
X1613250Y2088250I-17000J0D01*
G01*
X973000Y1394500D02*
G03*
X973000Y1394500I-17000J0D01*
G01*
X1089250Y1695750D02*
G03*
X1089250Y1695750I-17000J0D01*
G01*
X1130250Y1696000D02*
G03*
X1130250Y1696000I-17000J0D01*
G01*
X1172750Y1696250D02*
G03*
X1172750Y1696250I-17000J0D01*
G01*
X894000Y1587000D02*
G03*
X894000Y1587000I-17000J0D01*
G01*
X1769059Y1934227D02*
X1779216Y1934266D01*
X1784275Y1939364D01*
X1779177Y1944423D01*
X1769020Y1944384D01*
X1776638Y1944413D01*
X1776677Y1934256D01*
X1779157Y1949501D02*
X1768981Y1954540D01*
X1779118Y1959658D01*
X1768942Y1964697D02*
X1768922Y1969775D01*
X1768932Y1967236D01*
X1779089Y1967275D01*
X1779098Y1964736D01*
X1768883Y1979932D02*
X1768863Y1985010D01*
X1771393Y1987559D01*
X1776471Y1987579D01*
X1779020Y1985049D01*
X1779040Y1979971D01*
X1776510Y1977422D01*
X1771432Y1977402D01*
X1768883Y1979932D01*
X1768834Y1992628D02*
X1778991Y1992667D01*
X1778961Y2000284D01*
X1776412Y2002814D01*
X1768795Y2002784D01*
X1768775Y2007863D02*
X1768756Y2012941D01*
X1768766Y2010402D01*
X1778922Y2010441D01*
X1778932Y2007902D01*
X1778844Y2030754D02*
X1778873Y2023137D01*
X1776344Y2020588D01*
X1771266Y2020568D01*
X1768716Y2023098D01*
X1768687Y2030715D01*
X1768668Y2035793D02*
X1768638Y2043411D01*
X1771168Y2045960D01*
X1773716Y2043430D01*
X1773736Y2038352D01*
X1776285Y2035823D01*
X1778814Y2038372D01*
X1778785Y2045989D01*
X1768540Y2068802D02*
X1768521Y2073881D01*
X1771050Y2076430D01*
X1776128Y2076449D01*
X1778677Y2073920D01*
X1778697Y2068842D01*
X1776167Y2066293D01*
X1771089Y2066273D01*
X1768540Y2068802D01*
X1768481Y2084037D02*
X1781177Y2084086D01*
X1776099Y2084067D01*
X1776109Y2081528D01*
X1776089Y2086606D01*
X1776099Y2084067D01*
X1781177Y2084086D01*
X1783707Y2086635D01*
X1768383Y2109429D02*
X1783618Y2109488D01*
X1783589Y2117105D01*
X1781040Y2119635D01*
X1775962Y2119615D01*
X1773432Y2117066D01*
X1773462Y2109449D01*
X1773442Y2114527D02*
X1768344Y2119586D01*
X1783530Y2132340D02*
X1783550Y2127262D01*
X1781021Y2124713D01*
X1770864Y2124674D01*
X1768315Y2127203D01*
X1768295Y2132281D01*
X1770825Y2134830D01*
X1780981Y2134869D01*
X1783530Y2132340D01*
X1768266Y2139899D02*
X1783501Y2139957D01*
X1783472Y2147575D01*
X1780923Y2150104D01*
X1775844Y2150085D01*
X1773315Y2147536D01*
X1773344Y2139918D01*
X1773325Y2144997D02*
X1768227Y2150055D01*
X1783413Y2162810D02*
X1783432Y2157732D01*
X1780903Y2155183D01*
X1770746Y2155143D01*
X1768197Y2157673D01*
X1768178Y2162751D01*
X1770707Y2165300D01*
X1780864Y2165339D01*
X1783413Y2162810D01*
X1759916Y1934192D02*
X1759897Y1939270D01*
X1759907Y1936731D01*
X1744672Y1936672D01*
X1744681Y1934133D01*
X1744662Y1939211D01*
X1744633Y1946829D02*
X1754789Y1946868D01*
X1754760Y1954485D01*
X1752211Y1957015D01*
X1744593Y1956985D01*
X1757260Y1964652D02*
X1754720Y1964642D01*
X1754730Y1962103D01*
X1754711Y1967181D01*
X1754720Y1964642D01*
X1747103Y1964612D01*
X1744554Y1967142D01*
X1744495Y1982377D02*
X1744515Y1977298D01*
X1747064Y1974769D01*
X1752142Y1974789D01*
X1754672Y1977338D01*
X1754652Y1982416D01*
X1752103Y1984945D01*
X1749564Y1984936D01*
X1749603Y1974779D01*
X1754623Y1990034D02*
X1744466Y1989994D01*
X1749544Y1990014D01*
X1752074Y1992563D01*
X1754603Y1995112D01*
X1754593Y1997651D01*
X1744397Y2007768D02*
X1757093Y2007817D01*
X1752015Y2007798D01*
X1752025Y2005259D01*
X1752005Y2010337D01*
X1752015Y2007798D01*
X1757093Y2007817D01*
X1759622Y2010366D01*
X1754505Y2020503D02*
X1754485Y2025582D01*
X1751936Y2028111D01*
X1744319Y2028082D01*
X1744348Y2020464D01*
X1746897Y2017935D01*
X1749427Y2020484D01*
X1749397Y2028101D01*
X1754417Y2043356D02*
X1754446Y2035738D01*
X1751917Y2033189D01*
X1746839Y2033170D01*
X1744290Y2035699D01*
X1744260Y2043317D01*
X1744211Y2056012D02*
X1744231Y2050934D01*
X1746780Y2048405D01*
X1751858Y2048424D01*
X1754388Y2050973D01*
X1754368Y2056052D01*
X1751819Y2058581D01*
X1749280Y2058571D01*
X1749319Y2048415D01*
X1759358Y2078924D02*
X1744123Y2078865D01*
X1744094Y2086482D01*
X1746623Y2089031D01*
X1749162Y2089041D01*
X1751701Y2089051D01*
X1754250Y2086522D01*
X1754280Y2078904D01*
X1744055Y2096639D02*
X1744035Y2101717D01*
X1746564Y2104266D01*
X1751643Y2104286D01*
X1754192Y2101756D01*
X1754211Y2096678D01*
X1751682Y2094129D01*
X1746604Y2094110D01*
X1744055Y2096639D01*
X1754153Y2111913D02*
X1754133Y2116991D01*
X1751584Y2119521D01*
X1743966Y2119491D01*
X1743996Y2111874D01*
X1746545Y2109345D01*
X1749074Y2111894D01*
X1749045Y2119511D01*
X1754104Y2124609D02*
X1743947Y2124570D01*
X1749025Y2124589D01*
X1751555Y2127138D01*
X1754084Y2129687D01*
X1754074Y2132226D01*
X1759084Y2150020D02*
X1743849Y2149961D01*
X1743878Y2142344D01*
X1746427Y2139814D01*
X1751506Y2139834D01*
X1754035Y2142383D01*
X1754005Y2150001D01*
X1753927Y2170314D02*
X1743751Y2175353D01*
X1753888Y2180470D01*
X1743712Y2185510D02*
X1743692Y2190588D01*
X1743702Y2188049D01*
X1758937Y2188107D01*
X1756408Y2185559D01*
X1743663Y2198205D02*
X1746202Y2198215D01*
X1746192Y2200754D01*
X1743653Y2200745D01*
X1743663Y2198205D01*
X1756310Y2210950D02*
X1758839Y2213499D01*
X1758819Y2218577D01*
X1756270Y2221107D01*
X1746114Y2221068D01*
X1743584Y2218519D01*
X1743604Y2213440D01*
X1746153Y2210911D01*
X1756310Y2210950D01*
X1735538Y1934098D02*
X1720303Y1934039D01*
X1720274Y1941656D01*
X1722803Y1944205D01*
X1732960Y1944244D01*
X1735509Y1941715D01*
X1735538Y1934098D01*
X1720215Y1956891D02*
X1720235Y1951813D01*
X1722784Y1949283D01*
X1727862Y1949303D01*
X1730392Y1951852D01*
X1730372Y1956930D01*
X1727823Y1959460D01*
X1725284Y1959450D01*
X1725323Y1949293D01*
X1720186Y1964509D02*
X1720157Y1972126D01*
X1722686Y1974675D01*
X1725235Y1972146D01*
X1725255Y1967068D01*
X1727803Y1964538D01*
X1730333Y1967087D01*
X1730303Y1974704D01*
X1720127Y1979744D02*
X1720108Y1984822D01*
X1720117Y1982283D01*
X1730274Y1982322D01*
X1730284Y1979783D01*
X1714980Y1997498D02*
X1714971Y2000037D01*
X1717500Y2002586D01*
X1730196Y2002635D01*
X1730225Y1995018D01*
X1727696Y1992469D01*
X1722617Y1992449D01*
X1720068Y1994979D01*
X1720039Y2002596D01*
X1720020Y2007674D02*
X1730176Y2007714D01*
X1730147Y2015331D01*
X1727598Y2017860D01*
X1719980Y2017831D01*
X1719931Y2030527D02*
X1719951Y2025448D01*
X1722500Y2022919D01*
X1727578Y2022939D01*
X1730108Y2025488D01*
X1730088Y2030566D01*
X1727539Y2033095D01*
X1725000Y2033086D01*
X1725039Y2022929D01*
X1735098Y2048360D02*
X1719863Y2048301D01*
X1719892Y2040683D01*
X1722441Y2038154D01*
X1727519Y2038174D01*
X1730049Y2040723D01*
X1730019Y2048340D01*
X1735019Y2068673D02*
X1719784Y2068614D01*
X1719755Y2076232D01*
X1722284Y2078781D01*
X1724824Y2078790D01*
X1727363Y2078800D01*
X1729912Y2076271D01*
X1729941Y2068653D01*
X1729882Y2083888D02*
X1722265Y2083859D01*
X1719716Y2086388D01*
X1719686Y2094006D01*
X1717147Y2093996D01*
X1714618Y2091447D01*
X1714628Y2088908D01*
X1719686Y2094006D02*
X1729843Y2094045D01*
X1719608Y2114319D02*
X1734843Y2114378D01*
X1729745Y2119437D01*
X1734804Y2124534D01*
X1719569Y2124476D01*
X1719549Y2129554D02*
X1719530Y2134632D01*
X1719540Y2132093D01*
X1729696Y2132132D01*
X1729706Y2129593D01*
X1729618Y2152446D02*
X1729647Y2144828D01*
X1727118Y2142279D01*
X1722040Y2142260D01*
X1719491Y2144789D01*
X1719461Y2152406D01*
X1734677Y2157544D02*
X1719442Y2157485D01*
X1727059Y2157514D01*
X1729588Y2160063D01*
X1729569Y2165141D01*
X1727020Y2167671D01*
X1719402Y2167641D01*
X1729530Y2175298D02*
X1729510Y2180376D01*
X1726961Y2182906D01*
X1719344Y2182876D01*
X1719373Y2175259D01*
X1721922Y2172730D01*
X1724451Y2175279D01*
X1724422Y2182896D01*
X1719295Y2195572D02*
X1719314Y2190494D01*
X1721863Y2187964D01*
X1726942Y2187984D01*
X1729471Y2190533D01*
X1729451Y2195611D01*
X1726902Y2198141D01*
X1724363Y2198131D01*
X1724402Y2187974D01*
X1719265Y2203190D02*
X1719246Y2208268D01*
X1719256Y2205729D01*
X1734491Y2205788D01*
X1734500Y2203248D01*
X1719158Y2231120D02*
X1734393Y2231179D01*
X1734363Y2238797D01*
X1731814Y2241326D01*
X1726736Y2241306D01*
X1724207Y2238757D01*
X1724236Y2231140D01*
X1719069Y2253973D02*
X1719089Y2248895D01*
X1721638Y2246365D01*
X1726716Y2246385D01*
X1729246Y2248934D01*
X1729226Y2254012D01*
X1726677Y2256541D01*
X1724138Y2256532D01*
X1724177Y2246375D01*
X1719040Y2261590D02*
X1719021Y2266669D01*
X1719030Y2264129D01*
X1734265Y2264188D01*
X1734275Y2261649D01*
X1718991Y2274286D02*
X1718972Y2279364D01*
X1718981Y2276825D01*
X1734216Y2276884D01*
X1734226Y2274345D01*
X1718913Y2294599D02*
X1718932Y2289521D01*
X1721481Y2286992D01*
X1726560Y2287011D01*
X1729089Y2289560D01*
X1729069Y2294639D01*
X1726520Y2297168D01*
X1723981Y2297158D01*
X1724020Y2287001D01*
X1731569Y2304805D02*
X1729030Y2304795D01*
X1729040Y2302256D01*
X1729020Y2307334D01*
X1729030Y2304795D01*
X1721413Y2304766D01*
X1718864Y2307295D01*
X1690808Y1944082D02*
X1693357Y1941552D01*
X1690828Y1939003D01*
X1690838Y1936464D01*
X1693387Y1933935D01*
X1695926Y1933945D01*
X1698455Y1936494D01*
X1701004Y1933964D01*
X1703543Y1933974D01*
X1706073Y1936523D01*
X1706063Y1939062D01*
X1703514Y1941592D01*
X1700975Y1941582D01*
X1698445Y1939033D01*
X1695896Y1941562D01*
X1693357Y1941552D01*
X1698426Y1944111D02*
X1695896Y1941562D01*
X1698455Y1936494D02*
X1698445Y1939033D01*
X1703416Y1966983D02*
X1700877Y1966973D01*
X1700886Y1964434D01*
X1700867Y1969513D01*
X1700877Y1966973D01*
X1693259Y1966944D01*
X1690710Y1969473D01*
X1690651Y1984708D02*
X1690671Y1979630D01*
X1693220Y1977101D01*
X1698298Y1977120D01*
X1700828Y1979669D01*
X1700808Y1984747D01*
X1698259Y1987277D01*
X1695720Y1987267D01*
X1695759Y1977110D01*
X1700769Y1994904D02*
X1700749Y1999982D01*
X1698200Y2002512D01*
X1690583Y2002482D01*
X1690612Y1994865D01*
X1693161Y1992336D01*
X1695691Y1994885D01*
X1695661Y2002502D01*
X1690563Y2007561D02*
X1700720Y2007600D01*
X1700710Y2010139D01*
X1698161Y2012668D01*
X1690544Y2012639D01*
X1698161Y2012668D01*
X1700691Y2015217D01*
X1698142Y2017747D01*
X1690524Y2017717D01*
X1705681Y2038089D02*
X1690446Y2038031D01*
X1690416Y2045648D01*
X1692946Y2048197D01*
X1703102Y2048236D01*
X1705651Y2045707D01*
X1705681Y2038089D01*
X1705622Y2053324D02*
X1692926Y2053275D01*
X1690377Y2055805D01*
X1690358Y2060883D01*
X1692887Y2063432D01*
X1705583Y2063481D01*
X1702985Y2078706D02*
X1705534Y2076177D01*
X1705553Y2071099D01*
X1703024Y2068550D01*
X1700485Y2068540D01*
X1697936Y2071069D01*
X1697916Y2076147D01*
X1695367Y2078677D01*
X1692828Y2078667D01*
X1690299Y2076118D01*
X1690318Y2071040D01*
X1692867Y2068510D01*
X1705504Y2083794D02*
X1705465Y2093951D01*
X1705485Y2088873D01*
X1690250Y2088814D01*
X1705406Y2109186D02*
X1705446Y2099029D01*
X1690211Y2098971D01*
X1690172Y2109127D01*
X1697828Y2099000D02*
X1697809Y2104078D01*
X1690152Y2114205D02*
X1705387Y2114264D01*
X1705358Y2121882D01*
X1702809Y2124411D01*
X1697730Y2124391D01*
X1695201Y2121843D01*
X1695230Y2114225D01*
X1695211Y2119303D02*
X1690113Y2124362D01*
X1681665Y1944047D02*
X1681704Y1933890D01*
X1666469Y1933831D01*
X1666430Y1943988D01*
X1674087Y1933860D02*
X1674067Y1938939D01*
X1666411Y1949066D02*
X1681646Y1949125D01*
X1681616Y1956742D01*
X1679067Y1959272D01*
X1673989Y1959252D01*
X1671460Y1956703D01*
X1671489Y1949086D01*
X1681548Y1974516D02*
X1681587Y1964360D01*
X1673969Y1964330D01*
X1673950Y1969409D01*
X1673969Y1964330D01*
X1666352Y1964301D01*
X1681528Y1979595D02*
X1666293Y1979536D01*
X1666254Y1989693D01*
X1663685Y1997300D02*
X1666215Y1999849D01*
X1668754Y1999859D01*
X1668764Y1997320D01*
X1666225Y1997310D01*
X1666215Y1999849D01*
X1663685Y1997300D01*
X1661156Y1994751D01*
X1666117Y2025241D02*
X1666087Y2032858D01*
X1668617Y2035407D01*
X1671166Y2032878D01*
X1671185Y2027800D01*
X1673734Y2025270D01*
X1676264Y2027819D01*
X1676234Y2035437D01*
X1660980Y2040456D02*
X1676215Y2040515D01*
X1676185Y2048132D01*
X1673636Y2050662D01*
X1668558Y2050642D01*
X1666029Y2048093D01*
X1666058Y2040476D01*
X1676156Y2055750D02*
X1665999Y2055711D01*
X1671078Y2055730D01*
X1673607Y2058279D01*
X1676136Y2060828D01*
X1676127Y2063367D01*
X1665941Y2070946D02*
X1665921Y2076024D01*
X1665931Y2073485D01*
X1676087Y2073524D01*
X1676097Y2070985D01*
X1665892Y2083642D02*
X1676048Y2083681D01*
X1676019Y2091298D01*
X1673470Y2093828D01*
X1665852Y2093798D01*
X1660735Y2103935D02*
X1660725Y2106474D01*
X1663254Y2109023D01*
X1675950Y2109072D01*
X1675980Y2101455D01*
X1673450Y2098906D01*
X1668372Y2098886D01*
X1665823Y2101416D01*
X1665794Y2109033D01*
X1665676Y2139503D02*
X1665715Y2129346D01*
X1675833Y2139542D01*
X1678372Y2139552D01*
X1680921Y2137023D01*
X1680940Y2131944D01*
X1678411Y2129395D01*
X1678352Y2144630D02*
X1680882Y2147179D01*
X1680862Y2152258D01*
X1678313Y2154787D01*
X1668156Y2154748D01*
X1665627Y2152199D01*
X1665647Y2147121D01*
X1668196Y2144591D01*
X1678352Y2144630D01*
X1665598Y2159816D02*
X1665578Y2164895D01*
X1665588Y2162355D01*
X1680823Y2162414D01*
X1678293Y2159865D01*
X1680784Y2172571D02*
X1680744Y2182728D01*
X1678205Y2182718D01*
X1668088Y2172522D01*
X1665549Y2172512D01*
X1637013Y1933717D02*
X1652248Y1933776D01*
X1647150Y1938835D01*
X1652209Y1943933D01*
X1636974Y1943874D01*
X1647101Y1951531D02*
X1647082Y1956609D01*
X1644533Y1959138D01*
X1636915Y1959109D01*
X1636945Y1951492D01*
X1639494Y1948962D01*
X1642023Y1951511D01*
X1641994Y1959129D01*
X1636896Y1964187D02*
X1647052Y1964227D01*
X1647023Y1971844D01*
X1644474Y1974373D01*
X1636857Y1974344D01*
X1646994Y1979462D02*
X1639376Y1979432D01*
X1636827Y1981962D01*
X1636798Y1989579D01*
X1646954Y1989618D01*
X1636768Y1997197D02*
X1649464Y1997245D01*
X1644386Y1997226D01*
X1644396Y1994687D01*
X1644376Y1999765D01*
X1644386Y1997226D01*
X1649464Y1997245D01*
X1651994Y1999794D01*
X1646876Y2009931D02*
X1646856Y2015010D01*
X1644308Y2017539D01*
X1636690Y2017510D01*
X1636719Y2009892D01*
X1639268Y2007363D01*
X1641798Y2009912D01*
X1641768Y2017529D01*
X1646788Y2032784D02*
X1646817Y2025166D01*
X1644288Y2022617D01*
X1639210Y2022598D01*
X1636661Y2025127D01*
X1636631Y2032745D01*
X1649298Y2040411D02*
X1646759Y2040401D01*
X1646768Y2037862D01*
X1646749Y2042941D01*
X1646759Y2040401D01*
X1639141Y2040372D01*
X1636592Y2042901D01*
X1646719Y2050558D02*
X1639102Y2050529D01*
X1636553Y2053058D01*
X1636523Y2060676D01*
X1646680Y2060715D01*
X1646660Y2065793D02*
X1636504Y2065754D01*
X1641582Y2065773D01*
X1644112Y2068322D01*
X1646641Y2070871D01*
X1646631Y2073410D01*
X1636416Y2088606D02*
X1636435Y2083528D01*
X1638984Y2080999D01*
X1644063Y2081018D01*
X1646592Y2083567D01*
X1646572Y2088645D01*
X1644023Y2091175D01*
X1641484Y2091165D01*
X1641523Y2081008D01*
X1651582Y2106439D02*
X1636347Y2106380D01*
X1636377Y2098763D01*
X1638925Y2096234D01*
X1644004Y2096253D01*
X1646533Y2098802D01*
X1646504Y2106420D01*
X1651504Y2126752D02*
X1636269Y2126694D01*
X1636239Y2134311D01*
X1638769Y2136860D01*
X1641308Y2136870D01*
X1643847Y2136880D01*
X1646396Y2134350D01*
X1646425Y2126733D01*
X1646367Y2141968D02*
X1638749Y2141938D01*
X1636200Y2144468D01*
X1636171Y2152085D01*
X1633632Y2152075D01*
X1631102Y2149527D01*
X1631112Y2146987D01*
X1636171Y2152085D02*
X1646328Y2152124D01*
X1651328Y2172457D02*
X1636093Y2172399D01*
X1641151Y2177496D01*
X1636053Y2182555D01*
X1651288Y2182614D01*
X1646190Y2187673D02*
X1638573Y2187643D01*
X1636024Y2190173D01*
X1635995Y2197790D01*
X1646151Y2197829D01*
X1646132Y2202908D02*
X1635975Y2202868D01*
X1641053Y2202888D01*
X1643583Y2205437D01*
X1646112Y2207986D01*
X1646102Y2210525D01*
X1648602Y2220692D02*
X1646063Y2220682D01*
X1646073Y2218143D01*
X1646053Y2223221D01*
X1646063Y2220682D01*
X1638446Y2220652D01*
X1635897Y2223182D01*
X1651102Y2230858D02*
X1635867Y2230799D01*
X1643485Y2230829D01*
X1646014Y2233378D01*
X1645995Y2238456D01*
X1643446Y2240985D01*
X1635828Y2240956D01*
X1607528Y1941221D02*
X1607547Y1936143D01*
X1610096Y1933614D01*
X1615175Y1933633D01*
X1617704Y1936182D01*
X1617684Y1941261D01*
X1615135Y1943790D01*
X1612596Y1943780D01*
X1612635Y1933624D01*
X1607498Y1948839D02*
X1607479Y1953917D01*
X1607488Y1951378D01*
X1622723Y1951437D01*
X1622733Y1948898D01*
X1607420Y1969152D02*
X1607440Y1964074D01*
X1609988Y1961544D01*
X1615067Y1961564D01*
X1617596Y1964113D01*
X1617576Y1969191D01*
X1615028Y1971721D01*
X1612488Y1971711D01*
X1612528Y1961554D01*
X1607390Y1976770D02*
X1622625Y1976828D01*
X1612469Y1976789D02*
X1617518Y1984426D01*
X1612469Y1976789D02*
X1607361Y1984387D01*
X1620018Y1994593D02*
X1617479Y1994583D01*
X1617488Y1992044D01*
X1617469Y1997122D01*
X1617479Y1994583D01*
X1609861Y1994554D01*
X1607312Y1997083D01*
X1617439Y2004740D02*
X1607283Y2004700D01*
X1612361Y2004720D01*
X1614890Y2007269D01*
X1617420Y2009818D01*
X1617410Y2012357D01*
X1607214Y2022475D02*
X1607195Y2027553D01*
X1609724Y2030102D01*
X1614802Y2030121D01*
X1617351Y2027592D01*
X1617371Y2022514D01*
X1614841Y2019965D01*
X1609763Y2019945D01*
X1607214Y2022475D01*
X1607165Y2035170D02*
X1617322Y2035209D01*
X1617292Y2042827D01*
X1614743Y2045356D01*
X1607126Y2045327D01*
X1607106Y2050405D02*
X1607087Y2055484D01*
X1607097Y2052944D01*
X1617253Y2052984D01*
X1617263Y2050444D01*
X1607057Y2063101D02*
X1622292Y2063160D01*
X1612136Y2063121D02*
X1617185Y2070758D01*
X1612136Y2063121D02*
X1607028Y2070719D01*
X708250Y376250D02*
G03*
X708250Y376250I-17000J0D01*
G01*
X394500Y1128250D02*
G03*
X394500Y1128250I-17000J0D01*
G01*
X832000Y835000D02*
G03*
X832000Y835000I-17000J0D01*
G01*
X711000Y1247000D02*
G03*
X711000Y1247000I-17000J0D01*
G01*
X1257000Y798000D02*
G03*
X1257000Y798000I-17000J0D01*
G01*
X819500Y1162500D02*
G03*
X819500Y1162500I-17000J0D01*
G01*
X1216000Y1215000D02*
G03*
X1216000Y1215000I-17000J0D01*
G01*
X695500Y465750D02*
G03*
X695500Y465750I-17000J0D01*
G01*
X598000Y544000D02*
G03*
X598000Y544000I-17000J0D01*
G01*
X528000Y971000D02*
G03*
X528000Y971000I-17000J0D01*
G01*
X692000Y799000D02*
G03*
X692000Y799000I-17000J0D01*
G01*
X695500Y736250D02*
G03*
X695500Y736250I-17000J0D01*
G01*
D53*
X310000Y1450000D02*
X717500D01*
X765000Y1497500D01*
Y1785000D01*
X717500Y1832500D02*
X765000Y1785000D01*
X310000Y1832500D02*
X717500D01*
X310000Y1450000D02*
Y1832500D01*
X1099500Y1419750D02*
X1134500D01*
Y1648750D01*
X904500Y1419500D02*
X938750D01*
X1099000Y1648750D02*
X1134500D01*
X904500Y1649500D02*
X939250D01*
X940250Y1629500D02*
Y1639500D01*
Y1629500D02*
X959500D01*
X914500Y1639500D02*
X940250D01*
X904500Y1419500D02*
Y1649500D01*
X914500Y1594500D02*
Y1639500D01*
Y1594500D02*
X959500D01*
Y1629500D01*
X1211200Y2255500D02*
Y2319500D01*
X1185800D02*
X1211200D01*
X1185800Y2312500D02*
Y2319500D01*
X1058800Y2312500D02*
X1185800D01*
X1058800D02*
Y2319500D01*
X1033400D02*
X1058800D01*
X1033400Y2255500D02*
Y2319500D01*
Y2255500D02*
X1211200D01*
X520870Y2304500D02*
X645330D01*
Y2240500D02*
Y2304500D01*
X613580Y2240500D02*
X645330D01*
X613580D02*
Y2247500D01*
X552620D02*
X613580D01*
X552620Y2240500D02*
Y2247500D01*
X520870Y2240500D02*
X552620D01*
X520870D02*
Y2304500D01*
X654420Y2304750D02*
X778880D01*
Y2240750D02*
Y2304750D01*
X747130Y2240750D02*
X778880D01*
X747130D02*
Y2247750D01*
X686170D02*
X747130D01*
X686170Y2240750D02*
Y2247750D01*
X654420Y2240750D02*
X686170D01*
X654420D02*
Y2304750D01*
X1615407Y1636989D02*
Y1662239D01*
X1564907Y1611489D02*
X1590157D01*
X1539407Y1636989D02*
Y1662239D01*
X1564907Y1687989D02*
X1590157D01*
X1731350Y1501650D02*
Y1526900D01*
X1680850Y1476150D02*
X1706100D01*
X1655350Y1501650D02*
Y1526900D01*
X1680850Y1552650D02*
X1706100D01*
X1731350Y1772650D02*
Y1797900D01*
X1680850Y1747150D02*
X1706100D01*
X1655350Y1772650D02*
Y1797900D01*
X1680850Y1823650D02*
X1706100D01*
X451000Y1668750D02*
X454500D01*
X432500D02*
X436000D01*
X432500D02*
Y1674250D01*
X454500Y1668750D02*
Y1674250D01*
X504250Y1669250D02*
X507750D01*
X485750D02*
X489250D01*
X485750D02*
Y1674750D01*
X507750Y1669250D02*
Y1674750D01*
X1484186Y2023536D02*
Y2226736D01*
X1509586D01*
Y2023536D02*
Y2226736D01*
X1484186Y2023536D02*
X1509586D01*
X893346Y1622381D02*
X886682D01*
X890014D01*
Y1612384D01*
X883349D02*
Y1622381D01*
X878351D01*
X876685Y1620715D01*
Y1617382D01*
X878351Y1615716D01*
X883349D01*
X873352Y1620715D02*
X871686Y1622381D01*
X868354D01*
X866688Y1620715D01*
Y1619048D01*
X868354Y1617382D01*
X870020D01*
X868354D01*
X866688Y1615716D01*
Y1614050D01*
X868354Y1612384D01*
X871686D01*
X873352Y1614050D01*
X863356Y1620715D02*
X861690Y1622381D01*
X858357D01*
X856691Y1620715D01*
Y1619048D01*
X858357Y1617382D01*
X856691Y1615716D01*
Y1614050D01*
X858357Y1612384D01*
X861690D01*
X863356Y1614050D01*
Y1615716D01*
X861690Y1617382D01*
X863356Y1619048D01*
Y1620715D01*
X861690Y1617382D02*
X858357D01*
X1172000Y1736997D02*
X1165335D01*
X1168668D01*
Y1727000D01*
X1162003D02*
Y1736997D01*
X1157005D01*
X1155339Y1735331D01*
Y1731998D01*
X1157005Y1730332D01*
X1162003D01*
X1152006Y1735331D02*
X1150340Y1736997D01*
X1147008D01*
X1145342Y1735331D01*
Y1733665D01*
X1147008Y1731998D01*
X1148674D01*
X1147008D01*
X1145342Y1730332D01*
Y1728666D01*
X1147008Y1727000D01*
X1150340D01*
X1152006Y1728666D01*
X1142010Y1736997D02*
X1135345D01*
Y1735331D01*
X1142010Y1728666D01*
Y1727000D01*
X1129566Y1731347D02*
X1122902D01*
X1126234D01*
Y1721350D01*
X1119569D02*
Y1731347D01*
X1114571D01*
X1112905Y1729681D01*
Y1726348D01*
X1114571Y1724682D01*
X1119569D01*
X1109572Y1729681D02*
X1107906Y1731347D01*
X1104574D01*
X1102908Y1729681D01*
Y1728015D01*
X1104574Y1726348D01*
X1106240D01*
X1104574D01*
X1102908Y1724682D01*
Y1723016D01*
X1104574Y1721350D01*
X1107906D01*
X1109572Y1723016D01*
X1092911Y1731347D02*
X1096243Y1729681D01*
X1099576Y1726348D01*
Y1723016D01*
X1097909Y1721350D01*
X1094577D01*
X1092911Y1723016D01*
Y1724682D01*
X1094577Y1726348D01*
X1099576D01*
X1088418Y1731093D02*
X1081753D01*
X1085086D01*
Y1721096D01*
X1078421D02*
Y1731093D01*
X1073423D01*
X1071757Y1729427D01*
Y1726094D01*
X1073423Y1724428D01*
X1078421D01*
X1068424Y1729427D02*
X1066758Y1731093D01*
X1063426D01*
X1061760Y1729427D01*
Y1727760D01*
X1063426Y1726094D01*
X1065092D01*
X1063426D01*
X1061760Y1724428D01*
Y1722762D01*
X1063426Y1721096D01*
X1066758D01*
X1068424Y1722762D01*
X1051763Y1731093D02*
X1058428D01*
Y1726094D01*
X1055095Y1727760D01*
X1053429D01*
X1051763Y1726094D01*
Y1722762D01*
X1053429Y1721096D01*
X1056761D01*
X1058428Y1722762D01*
X1007000Y1391497D02*
X1000335D01*
X1003668D01*
Y1381500D01*
X997003D02*
Y1391497D01*
X992005D01*
X990339Y1389831D01*
Y1386498D01*
X992005Y1384832D01*
X997003D01*
X987006Y1389831D02*
X985340Y1391497D01*
X982008D01*
X980342Y1389831D01*
Y1388165D01*
X982008Y1386498D01*
X983674D01*
X982008D01*
X980342Y1384832D01*
Y1383166D01*
X982008Y1381500D01*
X985340D01*
X987006Y1383166D01*
X972011Y1381500D02*
Y1391497D01*
X977010Y1386498D01*
X970345D01*
X1612420Y2123523D02*
X1605755D01*
X1609088D01*
Y2113526D01*
X1602423D02*
Y2123523D01*
X1597425D01*
X1595759Y2121857D01*
Y2118524D01*
X1597425Y2116858D01*
X1602423D01*
X1592426Y2121857D02*
X1590760Y2123523D01*
X1587428D01*
X1585762Y2121857D01*
Y2120190D01*
X1587428Y2118524D01*
X1589094D01*
X1587428D01*
X1585762Y2116858D01*
Y2115192D01*
X1587428Y2113526D01*
X1590760D01*
X1592426Y2115192D01*
X1582430Y2121857D02*
X1580764Y2123523D01*
X1577431D01*
X1575765Y2121857D01*
Y2120190D01*
X1577431Y2118524D01*
X1579097D01*
X1577431D01*
X1575765Y2116858D01*
Y2115192D01*
X1577431Y2113526D01*
X1580764D01*
X1582430Y2115192D01*
X1423250Y1965997D02*
X1416586D01*
X1419918D01*
Y1956000D01*
X1413253D02*
Y1965997D01*
X1408255D01*
X1406589Y1964331D01*
Y1960998D01*
X1408255Y1959332D01*
X1413253D01*
X1403256Y1964331D02*
X1401590Y1965997D01*
X1398258D01*
X1396592Y1964331D01*
Y1962664D01*
X1398258Y1960998D01*
X1399924D01*
X1398258D01*
X1396592Y1959332D01*
Y1957666D01*
X1398258Y1956000D01*
X1401590D01*
X1403256Y1957666D01*
X1386595Y1956000D02*
X1393260D01*
X1386595Y1962664D01*
Y1964331D01*
X1388261Y1965997D01*
X1391593D01*
X1393260Y1964331D01*
X774500Y1883997D02*
X767835D01*
X771168D01*
Y1874000D01*
X764503D02*
Y1883997D01*
X759505D01*
X757839Y1882331D01*
Y1878998D01*
X759505Y1877332D01*
X764503D01*
X754506Y1874000D02*
X751174D01*
X752840D01*
Y1883997D01*
X754506Y1882331D01*
X746176Y1883997D02*
X739511D01*
Y1882331D01*
X746176Y1875666D01*
Y1874000D01*
X828500Y1818497D02*
X821835D01*
X825168D01*
Y1808500D01*
X818503D02*
Y1818497D01*
X813505D01*
X811839Y1816831D01*
Y1813498D01*
X813505Y1811832D01*
X818503D01*
X808506Y1808500D02*
X805174D01*
X806840D01*
Y1818497D01*
X808506Y1816831D01*
X793511Y1818497D02*
X796843Y1816831D01*
X800176Y1813498D01*
Y1810166D01*
X798510Y1808500D01*
X795177D01*
X793511Y1810166D01*
Y1811832D01*
X795177Y1813498D01*
X800176D01*
X828000Y1769747D02*
X821336D01*
X824668D01*
Y1759750D01*
X818003D02*
Y1769747D01*
X813005D01*
X811339Y1768081D01*
Y1764748D01*
X813005Y1763082D01*
X818003D01*
X808006Y1759750D02*
X804674D01*
X806340D01*
Y1769747D01*
X808006Y1768081D01*
X793011Y1769747D02*
X799676D01*
Y1764748D01*
X796344Y1766414D01*
X794677D01*
X793011Y1764748D01*
Y1761416D01*
X794677Y1759750D01*
X798010D01*
X799676Y1761416D01*
X985040Y1888573D02*
X978375D01*
X981708D01*
Y1878576D01*
X975043D02*
Y1888573D01*
X970045D01*
X968379Y1886907D01*
Y1883574D01*
X970045Y1881908D01*
X975043D01*
X965046Y1878576D02*
X961714D01*
X963380D01*
Y1888573D01*
X965046Y1886907D01*
X951717Y1878576D02*
Y1888573D01*
X956716Y1883574D01*
X950051D01*
X934750Y1791247D02*
X928085D01*
X931418D01*
Y1781250D01*
X924753D02*
Y1791247D01*
X919755D01*
X918089Y1789581D01*
Y1786248D01*
X919755Y1784582D01*
X924753D01*
X914756Y1781250D02*
X911424D01*
X913090D01*
Y1791247D01*
X914756Y1789581D01*
X906426D02*
X904760Y1791247D01*
X901427D01*
X899761Y1789581D01*
Y1787914D01*
X901427Y1786248D01*
X903093D01*
X901427D01*
X899761Y1784582D01*
Y1782916D01*
X901427Y1781250D01*
X904760D01*
X906426Y1782916D01*
X874500Y1893497D02*
X867835D01*
X871168D01*
Y1883500D01*
X864503D02*
Y1893497D01*
X859505D01*
X857839Y1891831D01*
Y1888498D01*
X859505Y1886832D01*
X864503D01*
X854506Y1883500D02*
X851174D01*
X852840D01*
Y1893497D01*
X854506Y1891831D01*
X839511Y1883500D02*
X846176D01*
X839511Y1890164D01*
Y1891831D01*
X841177Y1893497D01*
X844510D01*
X846176Y1891831D01*
X938304Y1895939D02*
X931639D01*
X934972D01*
Y1885942D01*
X928307D02*
Y1895939D01*
X923309D01*
X921643Y1894273D01*
Y1890940D01*
X923309Y1889274D01*
X928307D01*
X918310Y1885942D02*
X914978D01*
X916644D01*
Y1895939D01*
X918310Y1894273D01*
X909980Y1885942D02*
X906647D01*
X908314D01*
Y1895939D01*
X909980Y1894273D01*
X819750Y1889747D02*
X813085D01*
X816418D01*
Y1879750D01*
X809753D02*
Y1889747D01*
X804755D01*
X803089Y1888081D01*
Y1884748D01*
X804755Y1883082D01*
X809753D01*
X799756Y1879750D02*
X796424D01*
X798090D01*
Y1889747D01*
X799756Y1888081D01*
X791426D02*
X789760Y1889747D01*
X786427D01*
X784761Y1888081D01*
Y1881416D01*
X786427Y1879750D01*
X789760D01*
X791426Y1881416D01*
Y1888081D01*
X931700Y2198961D02*
X925035D01*
X928368D01*
Y2188964D01*
X921703D02*
Y2198961D01*
X916705D01*
X915039Y2197295D01*
Y2193962D01*
X916705Y2192296D01*
X921703D01*
X911706Y2188964D02*
X908374D01*
X910040D01*
Y2198961D01*
X911706Y2197295D01*
X1333081Y2316664D02*
X1334747Y2314998D01*
Y2311666D01*
X1333081Y2310000D01*
X1331414D01*
X1329748Y2311666D01*
Y2314998D01*
X1328082Y2316664D01*
X1326416D01*
X1324750Y2314998D01*
Y2311666D01*
X1326416Y2310000D01*
X1324750Y2326661D02*
Y2319997D01*
X1331414Y2326661D01*
X1333081D01*
X1334747Y2324995D01*
Y2321663D01*
X1333081Y2319997D01*
X1498581Y2306915D02*
X1500247Y2305248D01*
Y2301916D01*
X1498581Y2300250D01*
X1496915D01*
X1495248Y2301916D01*
Y2305248D01*
X1493582Y2306915D01*
X1491916D01*
X1490250Y2305248D01*
Y2301916D01*
X1491916Y2300250D01*
X1490250Y2310247D02*
Y2313579D01*
Y2311913D01*
X1500247D01*
X1498581Y2310247D01*
X729250Y1379500D02*
X739247D01*
Y1384498D01*
X737581Y1386165D01*
X734248D01*
X732582Y1384498D01*
Y1379500D01*
Y1382832D02*
X729250Y1386165D01*
X737581Y1389497D02*
X739247Y1391163D01*
Y1394495D01*
X737581Y1396161D01*
X735915D01*
X734248Y1394495D01*
X732582Y1396161D01*
X730916D01*
X729250Y1394495D01*
Y1391163D01*
X730916Y1389497D01*
X732582D01*
X734248Y1391163D01*
X735915Y1389497D01*
X737581D01*
X734248Y1391163D02*
Y1394495D01*
X737581Y1399494D02*
X739247Y1401160D01*
Y1404492D01*
X737581Y1406158D01*
X735915D01*
X734248Y1404492D01*
X732582Y1406158D01*
X730916D01*
X729250Y1404492D01*
Y1401160D01*
X730916Y1399494D01*
X732582D01*
X734248Y1401160D01*
X735915Y1399494D01*
X737581D01*
X734248Y1401160D02*
Y1404492D01*
X538500Y1700750D02*
Y1710747D01*
X533502D01*
X531836Y1709081D01*
Y1705748D01*
X533502Y1704082D01*
X538500D01*
X535168D02*
X531836Y1700750D01*
X528503Y1709081D02*
X526837Y1710747D01*
X523505D01*
X521839Y1709081D01*
Y1707415D01*
X523505Y1705748D01*
X525171D01*
X523505D01*
X521839Y1704082D01*
Y1702416D01*
X523505Y1700750D01*
X526837D01*
X528503Y1702416D01*
X511842Y1710747D02*
X518506D01*
Y1705748D01*
X515174Y1707415D01*
X513508D01*
X511842Y1705748D01*
Y1702416D01*
X513508Y1700750D01*
X516840D01*
X518506Y1702416D01*
X419250Y1700500D02*
Y1710497D01*
X414252D01*
X412585Y1708831D01*
Y1705498D01*
X414252Y1703832D01*
X419250D01*
X415918D02*
X412585Y1700500D01*
X409253Y1708831D02*
X407587Y1710497D01*
X404255D01*
X402589Y1708831D01*
Y1707164D01*
X404255Y1705498D01*
X405921D01*
X404255D01*
X402589Y1703832D01*
Y1702166D01*
X404255Y1700500D01*
X407587D01*
X409253Y1702166D01*
X394258Y1700500D02*
Y1710497D01*
X399256Y1705498D01*
X392592D01*
X516000Y1626750D02*
X525997D01*
Y1631748D01*
X524331Y1633414D01*
X520998D01*
X519332Y1631748D01*
Y1626750D01*
Y1630082D02*
X516000Y1633414D01*
X524331Y1636747D02*
X525997Y1638413D01*
Y1641745D01*
X524331Y1643411D01*
X522664D01*
X520998Y1641745D01*
Y1640079D01*
Y1641745D01*
X519332Y1643411D01*
X517666D01*
X516000Y1641745D01*
Y1638413D01*
X517666Y1636747D01*
X516000Y1653408D02*
Y1646744D01*
X522664Y1653408D01*
X524331D01*
X525997Y1651742D01*
Y1648410D01*
X524331Y1646744D01*
X523334Y1674836D02*
X516669D01*
X515003Y1676502D01*
Y1679834D01*
X516669Y1681500D01*
X523334D01*
X525000Y1679834D01*
Y1676502D01*
X521668Y1678168D02*
X525000Y1674836D01*
Y1676502D02*
X523334Y1674836D01*
X516669Y1671503D02*
X515003Y1669837D01*
Y1666505D01*
X516669Y1664839D01*
X518335D01*
X520002Y1666505D01*
Y1668171D01*
Y1666505D01*
X521668Y1664839D01*
X523334D01*
X525000Y1666505D01*
Y1669837D01*
X523334Y1671503D01*
X417416Y1674915D02*
X424081D01*
X425747Y1673248D01*
Y1669916D01*
X424081Y1668250D01*
X417416D01*
X415750Y1669916D01*
Y1673248D01*
X419082Y1671582D02*
X415750Y1674915D01*
Y1673248D02*
X417416Y1674915D01*
X415750Y1684911D02*
Y1678247D01*
X422415Y1684911D01*
X424081D01*
X425747Y1683245D01*
Y1679913D01*
X424081Y1678247D01*
X712500Y1351000D02*
Y1360997D01*
X707502D01*
X705835Y1359331D01*
Y1355998D01*
X707502Y1354332D01*
X712500D01*
X702503Y1359331D02*
X700837Y1360997D01*
X697505D01*
X695839Y1359331D01*
Y1357664D01*
X697505Y1355998D01*
X699171D01*
X697505D01*
X695839Y1354332D01*
Y1352666D01*
X697505Y1351000D01*
X700837D01*
X702503Y1352666D01*
X685842Y1360997D02*
X689174Y1359331D01*
X692506Y1355998D01*
Y1352666D01*
X690840Y1351000D01*
X687508D01*
X685842Y1352666D01*
Y1354332D01*
X687508Y1355998D01*
X692506D01*
X629250Y1349500D02*
Y1359497D01*
X624252D01*
X622585Y1357831D01*
Y1354498D01*
X624252Y1352832D01*
X629250D01*
X619253Y1357831D02*
X617587Y1359497D01*
X614255D01*
X612589Y1357831D01*
Y1356165D01*
X614255Y1354498D01*
X615921D01*
X614255D01*
X612589Y1352832D01*
Y1351166D01*
X614255Y1349500D01*
X617587D01*
X619253Y1351166D01*
X602592Y1359497D02*
X609256D01*
Y1354498D01*
X605924Y1356165D01*
X604258D01*
X602592Y1354498D01*
Y1351166D01*
X604258Y1349500D01*
X607590D01*
X609256Y1351166D01*
X1731800Y1832856D02*
Y1842853D01*
X1726802D01*
X1725135Y1841187D01*
Y1837854D01*
X1726802Y1836188D01*
X1731800D01*
X1721803Y1841187D02*
X1720137Y1842853D01*
X1716805D01*
X1715139Y1841187D01*
Y1839521D01*
X1716805Y1837854D01*
X1718471D01*
X1716805D01*
X1715139Y1836188D01*
Y1834522D01*
X1716805Y1832856D01*
X1720137D01*
X1721803Y1834522D01*
X1706808Y1832856D02*
Y1842853D01*
X1711806Y1837854D01*
X1705142D01*
X1731800Y1561838D02*
Y1571835D01*
X1726802D01*
X1725135Y1570169D01*
Y1566836D01*
X1726802Y1565170D01*
X1731800D01*
X1721803Y1570169D02*
X1720137Y1571835D01*
X1716805D01*
X1715139Y1570169D01*
Y1568503D01*
X1716805Y1566836D01*
X1718471D01*
X1716805D01*
X1715139Y1565170D01*
Y1563504D01*
X1716805Y1561838D01*
X1720137D01*
X1721803Y1563504D01*
X1711806Y1570169D02*
X1710140Y1571835D01*
X1706808D01*
X1705142Y1570169D01*
Y1568503D01*
X1706808Y1566836D01*
X1708474D01*
X1706808D01*
X1705142Y1565170D01*
Y1563504D01*
X1706808Y1561838D01*
X1710140D01*
X1711806Y1563504D01*
X1615722Y1697220D02*
Y1707217D01*
X1610724D01*
X1609057Y1705551D01*
Y1702218D01*
X1610724Y1700552D01*
X1615722D01*
X1605725Y1705551D02*
X1604059Y1707217D01*
X1600727D01*
X1599061Y1705551D01*
Y1703884D01*
X1600727Y1702218D01*
X1602393D01*
X1600727D01*
X1599061Y1700552D01*
Y1698886D01*
X1600727Y1697220D01*
X1604059D01*
X1605725Y1698886D01*
X1589064Y1697220D02*
X1595728D01*
X1589064Y1703884D01*
Y1705551D01*
X1590730Y1707217D01*
X1594062D01*
X1595728Y1705551D01*
X876000Y1355250D02*
Y1365247D01*
X871002D01*
X869335Y1363581D01*
Y1360248D01*
X871002Y1358582D01*
X876000D01*
X866003Y1355250D02*
X862671D01*
X864337D01*
Y1365247D01*
X866003Y1363581D01*
X857673Y1356916D02*
X856006Y1355250D01*
X852674D01*
X851008Y1356916D01*
Y1363581D01*
X852674Y1365247D01*
X856006D01*
X857673Y1363581D01*
Y1361915D01*
X856006Y1360248D01*
X851008D01*
X671750Y1412747D02*
Y1402750D01*
X666752D01*
X665086Y1404416D01*
Y1411081D01*
X666752Y1412747D01*
X671750D01*
X655089Y1402750D02*
X661753D01*
X655089Y1409415D01*
Y1411081D01*
X656755Y1412747D01*
X660087D01*
X661753Y1411081D01*
X651756Y1404416D02*
X650090Y1402750D01*
X646758D01*
X645092Y1404416D01*
Y1411081D01*
X646758Y1412747D01*
X650090D01*
X651756Y1411081D01*
Y1409415D01*
X650090Y1407748D01*
X645092D01*
X590250Y1413747D02*
Y1403750D01*
X585252D01*
X583586Y1405416D01*
Y1412081D01*
X585252Y1413747D01*
X590250D01*
X573589Y1403750D02*
X580253D01*
X573589Y1410414D01*
Y1412081D01*
X575255Y1413747D01*
X578587D01*
X580253Y1412081D01*
X570256D02*
X568590Y1413747D01*
X565258D01*
X563592Y1412081D01*
Y1410414D01*
X565258Y1408748D01*
X563592Y1407082D01*
Y1405416D01*
X565258Y1403750D01*
X568590D01*
X570256Y1405416D01*
Y1407082D01*
X568590Y1408748D01*
X570256Y1410414D01*
Y1412081D01*
X568590Y1408748D02*
X565258D01*
X881662Y1446359D02*
Y1436362D01*
X876664D01*
X874997Y1438028D01*
Y1444693D01*
X876664Y1446359D01*
X881662D01*
X865001Y1436362D02*
X871665D01*
X865001Y1443026D01*
Y1444693D01*
X866667Y1446359D01*
X869999D01*
X871665Y1444693D01*
X861668D02*
X860002Y1446359D01*
X856670D01*
X855004Y1444693D01*
Y1438028D01*
X856670Y1436362D01*
X860002D01*
X861668Y1438028D01*
Y1444693D01*
X1642169Y1672086D02*
X1640503Y1673752D01*
Y1677084D01*
X1642169Y1678750D01*
X1648834D01*
X1650500Y1677084D01*
Y1673752D01*
X1648834Y1672086D01*
X1650500Y1668753D02*
Y1665421D01*
Y1667087D01*
X1640503D01*
X1642169Y1668753D01*
X1650500Y1660423D02*
Y1657090D01*
Y1658756D01*
X1640503D01*
X1642169Y1660423D01*
X1650500Y1645427D02*
Y1652092D01*
X1643835Y1645427D01*
X1642169D01*
X1640503Y1647094D01*
Y1650426D01*
X1642169Y1652092D01*
X777776Y2312916D02*
Y2322913D01*
X772778D01*
X771112Y2321247D01*
Y2317914D01*
X772778Y2316248D01*
X777776D01*
X767779Y2314582D02*
X766113Y2312916D01*
X762781D01*
X761115Y2314582D01*
Y2321247D01*
X762781Y2322913D01*
X766113D01*
X767779Y2321247D01*
Y2319581D01*
X766113Y2317914D01*
X761115D01*
X529500Y2310750D02*
Y2320747D01*
X524502D01*
X522836Y2319081D01*
Y2315748D01*
X524502Y2314082D01*
X529500D01*
X519503Y2319081D02*
X517837Y2320747D01*
X514505D01*
X512839Y2319081D01*
Y2317415D01*
X514505Y2315748D01*
X512839Y2314082D01*
Y2312416D01*
X514505Y2310750D01*
X517837D01*
X519503Y2312416D01*
Y2314082D01*
X517837Y2315748D01*
X519503Y2317415D01*
Y2319081D01*
X517837Y2315748D02*
X514505D01*
X837500Y2191497D02*
X830835D01*
X834168D01*
Y2181500D01*
X827503D02*
Y2191497D01*
X822505D01*
X820839Y2189831D01*
Y2186498D01*
X822505Y2184832D01*
X827503D01*
X810842Y2181500D02*
X817506D01*
X810842Y2188165D01*
Y2189831D01*
X812508Y2191497D01*
X815840D01*
X817506Y2189831D01*
X807510D02*
X805844Y2191497D01*
X802511D01*
X800845Y2189831D01*
Y2183166D01*
X802511Y2181500D01*
X805844D01*
X807510Y2183166D01*
Y2189831D01*
X817146Y2255349D02*
X810481D01*
X813814D01*
Y2245352D01*
X807149D02*
Y2255349D01*
X802151D01*
X800485Y2253683D01*
Y2250350D01*
X802151Y2248684D01*
X807149D01*
X790488Y2245352D02*
X797152D01*
X790488Y2252016D01*
Y2253683D01*
X792154Y2255349D01*
X795486D01*
X797152Y2253683D01*
X787156D02*
X785490Y2255349D01*
X782157D01*
X780491Y2253683D01*
Y2252016D01*
X782157Y2250350D01*
X783823D01*
X782157D01*
X780491Y2248684D01*
Y2247018D01*
X782157Y2245352D01*
X785490D01*
X787156Y2247018D01*
X1271750Y1919497D02*
X1265086D01*
X1268418D01*
Y1909500D01*
X1261753D02*
Y1919497D01*
X1256755D01*
X1255089Y1917831D01*
Y1914498D01*
X1256755Y1912832D01*
X1261753D01*
X1251756Y1917831D02*
X1250090Y1919497D01*
X1246758D01*
X1245092Y1917831D01*
Y1916165D01*
X1246758Y1914498D01*
X1248424D01*
X1246758D01*
X1245092Y1912832D01*
Y1911166D01*
X1246758Y1909500D01*
X1250090D01*
X1251756Y1911166D01*
X1322606Y1916259D02*
X1315941D01*
X1319274D01*
Y1906262D01*
X1312609D02*
Y1916259D01*
X1307611D01*
X1305945Y1914593D01*
Y1911260D01*
X1307611Y1909594D01*
X1312609D01*
X1295948Y1906262D02*
X1302612D01*
X1295948Y1912926D01*
Y1914593D01*
X1297614Y1916259D01*
X1300946D01*
X1302612Y1914593D01*
X416500Y1627250D02*
X426497D01*
Y1632248D01*
X424831Y1633914D01*
X421498D01*
X419832Y1632248D01*
Y1627250D01*
Y1630582D02*
X416500Y1633914D01*
X424831Y1637247D02*
X426497Y1638913D01*
Y1642245D01*
X424831Y1643911D01*
X423164D01*
X421498Y1642245D01*
Y1640579D01*
Y1642245D01*
X419832Y1643911D01*
X418166D01*
X416500Y1642245D01*
Y1638913D01*
X418166Y1637247D01*
X416500Y1647244D02*
Y1650576D01*
Y1648910D01*
X426497D01*
X424831Y1647244D01*
X411750Y2367250D02*
X421747D01*
Y2372248D01*
X420081Y2373914D01*
X416748D01*
X415082Y2372248D01*
Y2367250D01*
Y2370582D02*
X411750Y2373914D01*
X421747Y2383911D02*
Y2377247D01*
X416748D01*
X418414Y2380579D01*
Y2382245D01*
X416748Y2383911D01*
X413416D01*
X411750Y2382245D01*
Y2378913D01*
X413416Y2377247D01*
Y2387244D02*
X411750Y2388910D01*
Y2392242D01*
X413416Y2393908D01*
X420081D01*
X421747Y2392242D01*
Y2388910D01*
X420081Y2387244D01*
X418414D01*
X416748Y2388910D01*
Y2393908D01*
X498500Y2369250D02*
X508497D01*
Y2374248D01*
X506831Y2375914D01*
X503498D01*
X501832Y2374248D01*
Y2369250D01*
Y2372582D02*
X498500Y2375914D01*
X508497Y2385911D02*
Y2379247D01*
X503498D01*
X505164Y2382579D01*
Y2384245D01*
X503498Y2385911D01*
X500166D01*
X498500Y2384245D01*
Y2380913D01*
X500166Y2379247D01*
X506831Y2389244D02*
X508497Y2390910D01*
Y2394242D01*
X506831Y2395908D01*
X505164D01*
X503498Y2394242D01*
Y2392576D01*
Y2394242D01*
X501832Y2395908D01*
X500166D01*
X498500Y2394242D01*
Y2390910D01*
X500166Y2389244D01*
X363750Y1349750D02*
Y1359747D01*
X358752D01*
X357085Y1358081D01*
Y1354748D01*
X358752Y1353082D01*
X363750D01*
X353753Y1359747D02*
X347089D01*
Y1358081D01*
X353753Y1351416D01*
Y1349750D01*
X443500D02*
Y1359747D01*
X438502D01*
X436836Y1358081D01*
Y1354748D01*
X438502Y1353082D01*
X443500D01*
X426839Y1359747D02*
X430171Y1358081D01*
X433503Y1354748D01*
Y1351416D01*
X431837Y1349750D01*
X428505D01*
X426839Y1351416D01*
Y1353082D01*
X428505Y1354748D01*
X433503D01*
X526500Y1350750D02*
Y1360747D01*
X521502D01*
X519836Y1359081D01*
Y1355748D01*
X521502Y1354082D01*
X526500D01*
X509839Y1360747D02*
X516503D01*
Y1355748D01*
X513171Y1357415D01*
X511505D01*
X509839Y1355748D01*
Y1352416D01*
X511505Y1350750D01*
X514837D01*
X516503Y1352416D01*
X1227250Y2324750D02*
Y2334747D01*
X1222252D01*
X1220585Y2333081D01*
Y2329748D01*
X1222252Y2328082D01*
X1227250D01*
X1210589Y2324750D02*
X1217253D01*
X1210589Y2331414D01*
Y2333081D01*
X1212255Y2334747D01*
X1215587D01*
X1217253Y2333081D01*
X460000Y2408750D02*
Y2398753D01*
X464998D01*
X466665Y2400419D01*
Y2403752D01*
X464998Y2405418D01*
X460000D01*
X469997Y2408750D02*
X473329D01*
X471663D01*
Y2398753D01*
X469997Y2400419D01*
X484992Y2398753D02*
X478327D01*
Y2403752D01*
X481660Y2402086D01*
X483326D01*
X484992Y2403752D01*
Y2407084D01*
X483326Y2408750D01*
X479994D01*
X478327Y2407084D01*
X649500Y2410250D02*
Y2400253D01*
X654498D01*
X656164Y2401919D01*
Y2405252D01*
X654498Y2406918D01*
X649500D01*
X659497Y2410250D02*
X662829D01*
X661163D01*
Y2400253D01*
X659497Y2401919D01*
X674492Y2400253D02*
X671160Y2401919D01*
X667827Y2405252D01*
Y2408584D01*
X669494Y2410250D01*
X672826D01*
X674492Y2408584D01*
Y2406918D01*
X672826Y2405252D01*
X667827D01*
X549250Y2408750D02*
Y2398753D01*
X554248D01*
X555914Y2400419D01*
Y2403752D01*
X554248Y2405418D01*
X549250D01*
X559247Y2408750D02*
X562579D01*
X560913D01*
Y2398753D01*
X559247Y2400419D01*
X567577Y2398753D02*
X574242D01*
Y2400419D01*
X567577Y2407084D01*
Y2408750D01*
X368500Y2407500D02*
Y2397503D01*
X373498D01*
X375164Y2399169D01*
Y2402502D01*
X373498Y2404168D01*
X368500D01*
X378497Y2407500D02*
X381829D01*
X380163D01*
Y2397503D01*
X378497Y2399169D01*
X386827D02*
X388494Y2397503D01*
X391826D01*
X393492Y2399169D01*
Y2400836D01*
X391826Y2402502D01*
X393492Y2404168D01*
Y2405834D01*
X391826Y2407500D01*
X388494D01*
X386827Y2405834D01*
Y2404168D01*
X388494Y2402502D01*
X386827Y2400836D01*
Y2399169D01*
X388494Y2402502D02*
X391826D01*
X357750Y2369747D02*
Y2359750D01*
X352752D01*
X351086Y2361416D01*
Y2368081D01*
X352752Y2369747D01*
X357750D01*
X347753Y2359750D02*
X344421D01*
X346087D01*
Y2369747D01*
X347753Y2368081D01*
X339423Y2361416D02*
X337756Y2359750D01*
X334424D01*
X332758Y2361416D01*
Y2368081D01*
X334424Y2369747D01*
X337756D01*
X339423Y2368081D01*
Y2366414D01*
X337756Y2364748D01*
X332758D01*
X541750Y2372747D02*
Y2362750D01*
X536752D01*
X535085Y2364416D01*
Y2371081D01*
X536752Y2372747D01*
X541750D01*
X531753Y2362750D02*
X528421D01*
X530087D01*
Y2372747D01*
X531753Y2371081D01*
X523423D02*
X521756Y2372747D01*
X518424D01*
X516758Y2371081D01*
Y2369415D01*
X518424Y2367748D01*
X516758Y2366082D01*
Y2364416D01*
X518424Y2362750D01*
X521756D01*
X523423Y2364416D01*
Y2366082D01*
X521756Y2367748D01*
X523423Y2369415D01*
Y2371081D01*
X521756Y2367748D02*
X518424D01*
X627000Y2373497D02*
Y2363500D01*
X622002D01*
X620336Y2365166D01*
Y2371831D01*
X622002Y2373497D01*
X627000D01*
X617003Y2363500D02*
X613671D01*
X615337D01*
Y2373497D01*
X617003Y2371831D01*
X608673Y2373497D02*
X602008D01*
Y2371831D01*
X608673Y2365166D01*
Y2363500D01*
X1629997Y2298250D02*
X1620000D01*
Y2303248D01*
X1621666Y2304915D01*
X1623332D01*
X1624998Y2303248D01*
Y2298250D01*
Y2303248D01*
X1626664Y2304915D01*
X1628331D01*
X1629997Y2303248D01*
Y2298250D01*
X1620000Y2308247D02*
Y2311579D01*
Y2309913D01*
X1629997D01*
X1628331Y2308247D01*
X452500Y2371497D02*
Y2361500D01*
X447502D01*
X445835Y2363166D01*
Y2369831D01*
X447502Y2371497D01*
X452500D01*
X442503Y2361500D02*
X439171D01*
X440837D01*
Y2371497D01*
X442503Y2369831D01*
X427508Y2371497D02*
X430840Y2369831D01*
X434173Y2366498D01*
Y2363166D01*
X432506Y2361500D01*
X429174D01*
X427508Y2363166D01*
Y2364832D01*
X429174Y2366498D01*
X434173D01*
X1622253Y1558835D02*
Y1565500D01*
X1627252D01*
Y1562168D01*
Y1565500D01*
X1632250D01*
X1622253Y1555503D02*
X1632250D01*
Y1550505D01*
X1630584Y1548839D01*
X1628918D01*
X1627252Y1550505D01*
Y1555503D01*
Y1550505D01*
X1625585Y1548839D01*
X1623919D01*
X1622253Y1550505D01*
Y1555503D01*
Y1538842D02*
X1623919Y1542174D01*
X1627252Y1545506D01*
X1630584D01*
X1632250Y1543840D01*
Y1540508D01*
X1630584Y1538842D01*
X1628918D01*
X1627252Y1540508D01*
Y1545506D01*
X1510836Y1783247D02*
X1517500D01*
Y1778248D01*
X1514168D01*
X1517500D01*
Y1773250D01*
X1507503Y1783247D02*
Y1773250D01*
X1502505D01*
X1500839Y1774916D01*
Y1776582D01*
X1502505Y1778248D01*
X1507503D01*
X1502505D01*
X1500839Y1779915D01*
Y1781581D01*
X1502505Y1783247D01*
X1507503D01*
X1497506Y1774916D02*
X1495840Y1773250D01*
X1492508D01*
X1490842Y1774916D01*
Y1781581D01*
X1492508Y1783247D01*
X1495840D01*
X1497506Y1781581D01*
Y1779915D01*
X1495840Y1778248D01*
X1490842D01*
X1492750Y2245500D02*
X1502747D01*
Y2250498D01*
X1501081Y2252164D01*
X1497748D01*
X1496082Y2250498D01*
Y2245500D01*
X1501081Y2255497D02*
X1502747Y2257163D01*
Y2260495D01*
X1501081Y2262161D01*
X1499415D01*
X1497748Y2260495D01*
Y2258829D01*
Y2260495D01*
X1496082Y2262161D01*
X1494416D01*
X1492750Y2260495D01*
Y2257163D01*
X1494416Y2255497D01*
X324250Y1837000D02*
Y1846997D01*
X319252D01*
X317586Y1845331D01*
Y1841998D01*
X319252Y1840332D01*
X324250D01*
X309255Y1837000D02*
Y1846997D01*
X314253Y1841998D01*
X307589D01*
X987834Y2300815D02*
X981170D01*
X984502D01*
Y2290818D01*
X977837D02*
Y2300815D01*
X972839D01*
X971173Y2299149D01*
Y2295816D01*
X972839Y2294150D01*
X977837D01*
X961176Y2300815D02*
X967840D01*
Y2295816D01*
X964508Y2297482D01*
X962842D01*
X961176Y2295816D01*
Y2292484D01*
X962842Y2290818D01*
X966174D01*
X967840Y2292484D01*
X388394Y1979505D02*
X381730D01*
X385062D01*
Y1969508D01*
X378397D02*
Y1979505D01*
X373399D01*
X371733Y1977839D01*
Y1974506D01*
X373399Y1972840D01*
X378397D01*
X361736Y1979505D02*
X365068Y1977839D01*
X368400Y1974506D01*
Y1971174D01*
X366734Y1969508D01*
X363402D01*
X361736Y1971174D01*
Y1972840D01*
X363402Y1974506D01*
X368400D01*
X927250Y2300497D02*
X920585D01*
X923918D01*
Y2290500D01*
X917253D02*
Y2300497D01*
X912255D01*
X910589Y2298831D01*
Y2295498D01*
X912255Y2293832D01*
X917253D01*
X907256Y2300497D02*
X900592D01*
Y2298831D01*
X907256Y2292166D01*
Y2290500D01*
X469674Y2016589D02*
X463009D01*
X466342D01*
Y2006592D01*
X459677D02*
Y2016589D01*
X454679D01*
X453013Y2014923D01*
Y2011590D01*
X454679Y2009924D01*
X459677D01*
X449680Y2014923D02*
X448014Y2016589D01*
X444682D01*
X443016Y2014923D01*
Y2013257D01*
X444682Y2011590D01*
X443016Y2009924D01*
Y2008258D01*
X444682Y2006592D01*
X448014D01*
X449680Y2008258D01*
Y2009924D01*
X448014Y2011590D01*
X449680Y2013257D01*
Y2014923D01*
X448014Y2011590D02*
X444682D01*
X520500Y2112247D02*
X513835D01*
X517168D01*
Y2102250D01*
X510503D02*
Y2112247D01*
X505505D01*
X503839Y2110581D01*
Y2107248D01*
X505505Y2105582D01*
X510503D01*
X500506Y2103916D02*
X498840Y2102250D01*
X495508D01*
X493842Y2103916D01*
Y2110581D01*
X495508Y2112247D01*
X498840D01*
X500506Y2110581D01*
Y2108914D01*
X498840Y2107248D01*
X493842D01*
X857278Y2255349D02*
X850613D01*
X853946D01*
Y2245352D01*
X847281D02*
Y2255349D01*
X842283D01*
X840617Y2253683D01*
Y2250350D01*
X842283Y2248684D01*
X847281D01*
X830620Y2245352D02*
X837284D01*
X830620Y2252016D01*
Y2253683D01*
X832286Y2255349D01*
X835618D01*
X837284Y2253683D01*
X827288Y2245352D02*
X823955D01*
X825621D01*
Y2255349D01*
X827288Y2253683D01*
X817194Y2166341D02*
X810529D01*
X813862D01*
Y2156344D01*
X807197D02*
Y2166341D01*
X802199D01*
X800533Y2164675D01*
Y2161342D01*
X802199Y2159676D01*
X807197D01*
X790536Y2156344D02*
X797200D01*
X790536Y2163009D01*
Y2164675D01*
X792202Y2166341D01*
X795534D01*
X797200Y2164675D01*
X780539Y2156344D02*
X787204D01*
X780539Y2163009D01*
Y2164675D01*
X782205Y2166341D01*
X785537D01*
X787204Y2164675D01*
X1124750Y1667497D02*
Y1659166D01*
X1123084Y1657500D01*
X1119752D01*
X1118085Y1659166D01*
Y1667497D01*
X1114753Y1657500D02*
X1111421D01*
X1113087D01*
Y1667497D01*
X1114753Y1665831D01*
X1106423Y1659166D02*
X1104756Y1657500D01*
X1101424D01*
X1099758Y1659166D01*
Y1665831D01*
X1101424Y1667497D01*
X1104756D01*
X1106423Y1665831D01*
Y1664164D01*
X1104756Y1662498D01*
X1099758D01*
X565432Y897702D02*
Y907699D01*
X560434D01*
X558768Y906033D01*
Y902700D01*
X560434Y901034D01*
X565432D01*
X548771Y897702D02*
X555435D01*
X548771Y904367D01*
Y906033D01*
X550437Y907699D01*
X553769D01*
X555435Y906033D01*
X538774Y907699D02*
X545438D01*
Y902700D01*
X542106Y904367D01*
X540440D01*
X538774Y902700D01*
Y899368D01*
X540440Y897702D01*
X543772D01*
X545438Y899368D01*
X590000Y2745000D02*
X599997D01*
Y2740002D01*
X598331Y2738336D01*
X594998D01*
X593332Y2740002D01*
Y2745000D01*
X590000Y2728339D02*
Y2735003D01*
X596665Y2728339D01*
X598331D01*
X599997Y2730005D01*
Y2733337D01*
X598331Y2735003D01*
X590000Y2725006D02*
Y2721674D01*
Y2723340D01*
X599997D01*
X598331Y2725006D01*
X568335Y2813331D02*
X570002Y2814997D01*
X573334D01*
X575000Y2813331D01*
Y2806666D01*
X573334Y2805000D01*
X570002D01*
X568335Y2806666D01*
X565003Y2805000D02*
X561671D01*
X563337D01*
Y2814997D01*
X565003Y2813331D01*
X556673D02*
X555006Y2814997D01*
X551674D01*
X550008Y2813331D01*
Y2806666D01*
X551674Y2805000D01*
X555006D01*
X556673Y2806666D01*
Y2813331D01*
X546676Y2805000D02*
X543344D01*
X545010D01*
Y2814997D01*
X546676Y2813331D01*
X1070000Y2745000D02*
X1079997D01*
Y2740002D01*
X1078331Y2738336D01*
X1074998D01*
X1073332Y2740002D01*
Y2745000D01*
X1070000Y2728339D02*
Y2735003D01*
X1076665Y2728339D01*
X1078331D01*
X1079997Y2730005D01*
Y2733337D01*
X1078331Y2735003D01*
X1070000Y2725006D02*
Y2721674D01*
Y2723340D01*
X1079997D01*
X1078331Y2725006D01*
X1048335Y2813331D02*
X1050002Y2814997D01*
X1053334D01*
X1055000Y2813331D01*
Y2806666D01*
X1053334Y2805000D01*
X1050002D01*
X1048335Y2806666D01*
X1045003Y2805000D02*
X1041671D01*
X1043337D01*
Y2814997D01*
X1045003Y2813331D01*
X1036673D02*
X1035006Y2814997D01*
X1031674D01*
X1030008Y2813331D01*
Y2806666D01*
X1031674Y2805000D01*
X1035006D01*
X1036673Y2806666D01*
Y2813331D01*
X1026676Y2805000D02*
X1023344D01*
X1025010D01*
Y2814997D01*
X1026676Y2813331D01*
X1550000Y2745000D02*
X1559997D01*
Y2740002D01*
X1558331Y2738336D01*
X1554998D01*
X1553332Y2740002D01*
Y2745000D01*
X1550000Y2728339D02*
Y2735003D01*
X1556664Y2728339D01*
X1558331D01*
X1559997Y2730005D01*
Y2733337D01*
X1558331Y2735003D01*
X1550000Y2725006D02*
Y2721674D01*
Y2723340D01*
X1559997D01*
X1558331Y2725006D01*
X1528336Y2813331D02*
X1530002Y2814997D01*
X1533334D01*
X1535000Y2813331D01*
Y2806666D01*
X1533334Y2805000D01*
X1530002D01*
X1528336Y2806666D01*
X1525003Y2805000D02*
X1521671D01*
X1523337D01*
Y2814997D01*
X1525003Y2813331D01*
X1516673D02*
X1515006Y2814997D01*
X1511674D01*
X1510008Y2813331D01*
Y2806666D01*
X1511674Y2805000D01*
X1515006D01*
X1516673Y2806666D01*
Y2813331D01*
X1506676Y2805000D02*
X1503344D01*
X1505010D01*
Y2814997D01*
X1506676Y2813331D01*
X130000Y220000D02*
Y2845000D01*
X1930000D01*
Y220000D02*
Y2845000D01*
X130000Y220000D02*
X1930000D01*
D55*
X1186800Y2325600D02*
G03*
X1186800Y2325600I-1000J0D01*
G01*
X539650Y2234400D02*
G03*
X539650Y2234400I-1000J0D01*
G01*
X673200Y2234650D02*
G03*
X673200Y2234650I-1000J0D01*
G01*
X240000Y1340000D02*
Y2420000D01*
X830000D01*
X1820000Y2320000D01*
X240000Y1340000D02*
X830000D01*
X1820000Y1440000D02*
Y2320000D01*
X830000Y1340000D02*
X1820000Y1440000D01*
X240000Y240000D02*
Y1320000D01*
Y240000D02*
X830000D01*
X1820000Y340000D01*
X240000Y1320000D02*
X830000D01*
X1820000Y1220000D01*
Y340000D02*
Y1220000D01*
D112*
X467750Y2353958D02*
X470000D01*
X467750Y2344151D02*
Y2353958D01*
X468750Y2344151D02*
Y2353527D01*
X467750Y2344151D02*
X470000D01*
Y2353958D01*
X644250Y2353708D02*
X646500D01*
X644250Y2343901D02*
Y2353708D01*
X645250Y2343901D02*
Y2353277D01*
X644250Y2343901D02*
X646500D01*
Y2353708D01*
X554500D02*
X556750D01*
X554500Y2343901D02*
Y2353708D01*
X555500Y2343901D02*
Y2353277D01*
X554500Y2343901D02*
X556750D01*
Y2353708D01*
X375750Y2353458D02*
X378000D01*
X375750Y2343651D02*
Y2353458D01*
X376750Y2343651D02*
Y2353027D01*
X375750Y2343651D02*
X378000D01*
Y2353458D01*
X864250Y1419958D02*
X866500D01*
X864250Y1410151D02*
Y1419958D01*
X865250Y1410151D02*
Y1419527D01*
X864250Y1410151D02*
X866500D01*
Y1419958D01*
X618000Y1411458D02*
X620250D01*
X618000Y1401651D02*
Y1411458D01*
X619000Y1401651D02*
Y1411027D01*
X618000Y1401651D02*
X620250D01*
Y1411458D01*
X701750Y1410958D02*
X704000D01*
X701750Y1401151D02*
Y1410958D01*
X702750Y1401151D02*
Y1410527D01*
X701750Y1401151D02*
X704000D01*
Y1410958D01*
X560000Y860000D02*
Y890000D01*
X500000D02*
X560000D01*
X500000Y860000D02*
Y890000D01*
X560000Y670000D02*
Y700000D01*
X500000Y670000D02*
X560000D01*
X500000D02*
Y700000D01*
D113*
X1596250Y2237588D02*
Y2289250D01*
X1555000Y2237500D02*
X1578000D01*
X1537000D02*
Y2289250D01*
X1555000D02*
X1578250D01*
D120*
X1646250Y1604250D02*
D03*
D121*
X1628682Y1591625D02*
D03*
X503068Y2340875D02*
D03*
X416568Y2339875D02*
D03*
X443432Y1634625D02*
D03*
X497182Y1634375D02*
D03*
X739182Y1426125D02*
D03*
D122*
X1510625Y1755432D02*
D03*
X443375Y1703818D02*
D03*
X496875Y1705568D02*
D03*
D127*
X485032Y2359160D02*
G03*
X485032Y2359160I-2032J0D01*
G01*
X661532Y2358910D02*
G03*
X661532Y2358910I-2032J0D01*
G01*
X571782D02*
G03*
X571782Y2358910I-2032J0D01*
G01*
X393032Y2358660D02*
G03*
X393032Y2358660I-2032J0D01*
G01*
X881532Y1425160D02*
G03*
X881532Y1425160I-2032J0D01*
G01*
X635282Y1416660D02*
G03*
X635282Y1416660I-2032J0D01*
G01*
X719032Y1416160D02*
G03*
X719032Y1416160I-2032J0D01*
G01*
D228*
X685398Y2332400D02*
Y2339064D01*
X688731Y2335732D02*
X682066D01*
X690397Y2349061D02*
Y2342397D01*
X685398D01*
X687065Y2345729D01*
Y2347395D01*
X685398Y2349061D01*
X682066D01*
X680400Y2347395D01*
Y2344063D01*
X682066Y2342397D01*
X690397Y2352393D02*
X683732D01*
X680400Y2355726D01*
X683732Y2359058D01*
X690397D01*
X699400Y2314150D02*
X709397D01*
Y2319148D01*
X707731Y2320815D01*
X704398D01*
X702732Y2319148D01*
Y2314150D01*
Y2317482D02*
X699400Y2320815D01*
X707731Y2330811D02*
X709397Y2329145D01*
Y2325813D01*
X707731Y2324147D01*
X706065D01*
X704398Y2325813D01*
Y2329145D01*
X702732Y2330811D01*
X701066D01*
X699400Y2329145D01*
Y2325813D01*
X701066Y2324147D01*
X699400Y2340808D02*
Y2334144D01*
X706065Y2340808D01*
X707731D01*
X709397Y2339142D01*
Y2335810D01*
X707731Y2334144D01*
Y2344140D02*
X709397Y2345806D01*
Y2349139D01*
X707731Y2350805D01*
X706065D01*
X704398Y2349139D01*
Y2347473D01*
Y2349139D01*
X702732Y2350805D01*
X701066D01*
X699400Y2349139D01*
Y2345806D01*
X701066Y2344140D01*
X699400Y2360802D02*
Y2354137D01*
X706065Y2360802D01*
X707731D01*
X709397Y2359135D01*
Y2355803D01*
X707731Y2354137D01*
X709397Y2379129D02*
Y2375797D01*
X707731Y2374131D01*
X701066D01*
X699400Y2375797D01*
Y2379129D01*
X701066Y2380795D01*
X707731D01*
X709397Y2379129D01*
Y2384127D02*
X701066D01*
X699400Y2385794D01*
Y2389126D01*
X701066Y2390792D01*
X709397D01*
Y2394124D02*
Y2400789D01*
Y2397457D01*
X699400D01*
X724150Y2313900D02*
X734147D01*
Y2318898D01*
X732481Y2320565D01*
X729148D01*
X727482Y2318898D01*
Y2313900D01*
Y2317232D02*
X724150Y2320565D01*
X732481Y2330561D02*
X734147Y2328895D01*
Y2325563D01*
X732481Y2323897D01*
X730815D01*
X729148Y2325563D01*
Y2328895D01*
X727482Y2330561D01*
X725816D01*
X724150Y2328895D01*
Y2325563D01*
X725816Y2323897D01*
X724150Y2340558D02*
Y2333893D01*
X730815Y2340558D01*
X732481D01*
X734147Y2338892D01*
Y2335560D01*
X732481Y2333893D01*
Y2343890D02*
X734147Y2345556D01*
Y2348889D01*
X732481Y2350555D01*
X730815D01*
X729148Y2348889D01*
Y2347223D01*
Y2348889D01*
X727482Y2350555D01*
X725816D01*
X724150Y2348889D01*
Y2345556D01*
X725816Y2343890D01*
X724150Y2360552D02*
Y2353887D01*
X730815Y2360552D01*
X732481D01*
X734147Y2358885D01*
Y2355553D01*
X732481Y2353887D01*
X734147Y2373881D02*
Y2377213D01*
Y2375547D01*
X724150D01*
Y2373881D01*
Y2377213D01*
Y2382211D02*
X734147D01*
X724150Y2388876D01*
X734147D01*
X749748Y2333650D02*
Y2340314D01*
X1563150Y2176650D02*
X1573147D01*
Y2181648D01*
X1571481Y2183315D01*
X1568148D01*
X1566482Y2181648D01*
Y2176650D01*
Y2179982D02*
X1563150Y2183315D01*
X1573147Y2193311D02*
Y2186647D01*
X1563150D01*
Y2193311D01*
X1568148Y2186647D02*
Y2189979D01*
X1571481Y2203308D02*
X1573147Y2201642D01*
Y2198310D01*
X1571481Y2196644D01*
X1569814D01*
X1568148Y2198310D01*
Y2201642D01*
X1566482Y2203308D01*
X1564816D01*
X1563150Y2201642D01*
Y2198310D01*
X1564816Y2196644D01*
X1573147Y2213305D02*
Y2206640D01*
X1563150D01*
Y2213305D01*
X1568148Y2206640D02*
Y2209973D01*
X1573147Y2216637D02*
Y2223302D01*
Y2219969D01*
X1563150D01*
X1185232Y2332650D02*
Y2339315D01*
X1188565Y2335982D02*
X1181900D01*
X1163481Y2337565D02*
X1165147Y2335898D01*
Y2332566D01*
X1163481Y2330900D01*
X1161814D01*
X1160148Y2332566D01*
Y2335898D01*
X1158482Y2337565D01*
X1156816D01*
X1155150Y2335898D01*
Y2332566D01*
X1156816Y2330900D01*
X1165147Y2340897D02*
X1155150D01*
X1158482Y2344229D01*
X1155150Y2347561D01*
X1165147D01*
Y2350894D02*
X1155150D01*
Y2355892D01*
X1156816Y2357558D01*
X1163481D01*
X1165147Y2355892D01*
Y2350894D01*
Y2360890D02*
Y2364223D01*
Y2362556D01*
X1155150D01*
Y2360890D01*
Y2364223D01*
X1165147Y2374219D02*
Y2370887D01*
X1163481Y2369221D01*
X1156816D01*
X1155150Y2370887D01*
Y2374219D01*
X1156816Y2375885D01*
X1163481D01*
X1165147Y2374219D01*
X1137481Y2336315D02*
X1139147Y2334648D01*
Y2331316D01*
X1137481Y2329650D01*
X1135815D01*
X1134148Y2331316D01*
Y2334648D01*
X1132482Y2336315D01*
X1130816D01*
X1129150Y2334648D01*
Y2331316D01*
X1130816Y2329650D01*
X1139147Y2339647D02*
X1129150D01*
X1132482Y2342979D01*
X1129150Y2346311D01*
X1139147D01*
X1137481Y2356308D02*
X1139147Y2354642D01*
Y2351310D01*
X1137481Y2349644D01*
X1130816D01*
X1129150Y2351310D01*
Y2354642D01*
X1130816Y2356308D01*
X1139147Y2359640D02*
X1129150D01*
Y2366305D01*
X1139147Y2369637D02*
X1129150D01*
X1132482D01*
X1139147Y2376302D01*
X1134148Y2371303D01*
X1129150Y2376302D01*
X1111981Y2337314D02*
X1113647Y2335648D01*
Y2332316D01*
X1111981Y2330650D01*
X1110314D01*
X1108648Y2332316D01*
Y2335648D01*
X1106982Y2337314D01*
X1105316D01*
X1103650Y2335648D01*
Y2332316D01*
X1105316Y2330650D01*
X1113647Y2340647D02*
X1103650D01*
X1106982Y2343979D01*
X1103650Y2347311D01*
X1113647D01*
Y2355642D02*
Y2352310D01*
X1111981Y2350643D01*
X1105316D01*
X1103650Y2352310D01*
Y2355642D01*
X1105316Y2357308D01*
X1111981D01*
X1113647Y2355642D01*
X1057748Y2334150D02*
Y2340815D01*
X1078650Y2329650D02*
X1088647D01*
X1078650Y2336315D01*
X1088647D01*
X1078650Y2339647D02*
X1088647D01*
Y2344645D01*
X1086981Y2346311D01*
X1083648D01*
X1081982Y2344645D01*
Y2339647D01*
Y2342979D02*
X1078650Y2346311D01*
X1086981Y2356308D02*
X1088647Y2354642D01*
Y2351310D01*
X1086981Y2349644D01*
X1085314D01*
X1083648Y2351310D01*
Y2354642D01*
X1081982Y2356308D01*
X1080316D01*
X1078650Y2354642D01*
Y2351310D01*
X1080316Y2349644D01*
X1088647Y2359640D02*
Y2366305D01*
Y2362973D01*
X1078650D01*
M02*
