G04 Layer_Color=8421504*
%FSLAX44Y44*%
%MOMM*%
G71*
G01*
G75*
%ADD10R,1.0160X1.1176*%
%ADD11O,0.3000X1.8000*%
%ADD12O,1.8000X0.3000*%
%ADD13R,1.1176X1.0160*%
%ADD14R,2.0000X0.8128*%
%ADD15R,1.0000X0.4000*%
%ADD16R,1.0160X1.4224*%
%ADD17R,1.4224X1.0160*%
%ADD18R,2.2098X0.6096*%
%ADD19R,0.6096X2.2098*%
%ADD20R,3.1000X2.4000*%
%ADD21R,0.4064X0.4000*%
%ADD22R,1.0000X1.0000*%
%ADD23R,1.0000X1.0000*%
%ADD24R,1.5000X1.0000*%
%ADD25R,1.0000X1.5000*%
%ADD26R,1.3000X1.9000*%
%ADD27R,1.9000X1.3000*%
%ADD28R,0.5588X1.2192*%
%ADD29R,1.2192X0.5588*%
%ADD30R,0.3000X1.8000*%
%ADD31R,1.9000X0.3000*%
%ADD32R,1.0000X0.8000*%
%ADD33R,0.8000X1.0000*%
%ADD34R,0.6350X2.6162*%
G04:AMPARAMS|DCode=35|XSize=1.1176mm|YSize=1.4224mm|CornerRadius=0.0838mm|HoleSize=0mm|Usage=FLASHONLY|Rotation=0.000|XOffset=0mm|YOffset=0mm|HoleType=Round|Shape=RoundedRectangle|*
%AMROUNDEDRECTD35*
21,1,1.1176,1.2548,0,0,0.0*
21,1,0.9500,1.4224,0,0,0.0*
1,1,0.1676,0.4750,-0.6274*
1,1,0.1676,-0.4750,-0.6274*
1,1,0.1676,-0.4750,0.6274*
1,1,0.1676,0.4750,0.6274*
%
%ADD35ROUNDEDRECTD35*%
%ADD36R,2.7000X0.5000*%
%ADD37R,1.8034X1.6002*%
%ADD38R,1.6002X1.8034*%
%ADD39R,1.1000X0.8000*%
%ADD40R,1.5000X3.0000*%
%ADD41R,1.4000X1.4000*%
%ADD42R,1.2000X1.6000*%
%ADD43R,3.2000X4.0000*%
%ADD44R,0.6000X0.6000*%
%ADD45R,0.6000X0.6000*%
%ADD48C,0.4000*%
%ADD95R,0.6048X1.0160*%
%ADD96R,0.6048X1.0000*%
%ADD97R,1.0922X1.4112*%
%ADD98R,1.1000X1.4112*%
D10*
X1297636Y1191500D02*
D03*
X1280500D02*
D03*
X1254886D02*
D03*
X1237750D02*
D03*
X1438136Y514250D02*
D03*
X1421000D02*
D03*
X1114864Y498750D02*
D03*
X1132000D02*
D03*
X855636Y457750D02*
D03*
X838500D02*
D03*
X501636Y413500D02*
D03*
X484500D02*
D03*
X650114Y924250D02*
D03*
X667250D02*
D03*
X467864Y1101000D02*
D03*
X485000D02*
D03*
X296636Y1234500D02*
D03*
X279500D02*
D03*
X788864Y1195750D02*
D03*
X806000D02*
D03*
X789114Y1214750D02*
D03*
X806250D02*
D03*
X789864Y1247500D02*
D03*
X807000D02*
D03*
X789364Y1266750D02*
D03*
X806500D02*
D03*
X871614Y427500D02*
D03*
X888750D02*
D03*
X699386Y924500D02*
D03*
X682250D02*
D03*
X1217636Y475000D02*
D03*
X1200500D02*
D03*
X1217636Y460000D02*
D03*
X1200500D02*
D03*
X1550386Y1183750D02*
D03*
X1533250D02*
D03*
X1493636Y1182750D02*
D03*
X1476500D02*
D03*
X256886Y1177500D02*
D03*
X239750D02*
D03*
X1169136Y1234750D02*
D03*
X1152000D02*
D03*
X1121886Y1237750D02*
D03*
X1104750D02*
D03*
X1415250Y1132636D02*
D03*
X1432386D02*
D03*
X1415250Y1099636D02*
D03*
X1432386D02*
D03*
X1415250Y1067182D02*
D03*
X1432386D02*
D03*
X1415250Y1034454D02*
D03*
X1432386D02*
D03*
X1415250Y1001727D02*
D03*
X1432386D02*
D03*
X1415250Y969000D02*
D03*
X1432386D02*
D03*
Y1116273D02*
D03*
X1415250D02*
D03*
X1432386Y1083545D02*
D03*
X1415250D02*
D03*
X1432386Y1050818D02*
D03*
X1415250D02*
D03*
X1432386Y1018091D02*
D03*
X1415250D02*
D03*
X1432386Y985364D02*
D03*
X1415250D02*
D03*
X1432386Y952636D02*
D03*
X1415250D02*
D03*
X1297636Y1164000D02*
D03*
X1280500D02*
D03*
X1255136D02*
D03*
X1238000D02*
D03*
X764136Y643500D02*
D03*
X747000D02*
D03*
D11*
X1072250Y1021750D02*
D03*
X1067250D02*
D03*
X1062250D02*
D03*
X1057250D02*
D03*
X1052250D02*
D03*
X1047250D02*
D03*
X1042250D02*
D03*
X1037250D02*
D03*
X1032250D02*
D03*
X1027250D02*
D03*
X1022250D02*
D03*
X1017250D02*
D03*
X1012250D02*
D03*
X1007250D02*
D03*
X1002250D02*
D03*
X997250D02*
D03*
X992250D02*
D03*
X987250D02*
D03*
X982250D02*
D03*
X977250D02*
D03*
X972250D02*
D03*
X967250D02*
D03*
X962250D02*
D03*
X957250D02*
D03*
X952250D02*
D03*
Y870750D02*
D03*
X957250D02*
D03*
X962250D02*
D03*
X967250D02*
D03*
X972250D02*
D03*
X977250D02*
D03*
X982250D02*
D03*
X987250D02*
D03*
X992250D02*
D03*
X997250D02*
D03*
X1002250D02*
D03*
X1007250D02*
D03*
X1012250D02*
D03*
X1017250D02*
D03*
X1022250D02*
D03*
X1027250D02*
D03*
X1032250D02*
D03*
X1037250D02*
D03*
X1042250D02*
D03*
X1047250D02*
D03*
X1052250D02*
D03*
X1057250D02*
D03*
X1062250D02*
D03*
X1067250D02*
D03*
X1072250D02*
D03*
D12*
X936750Y1006250D02*
D03*
Y1001250D02*
D03*
Y996250D02*
D03*
Y991250D02*
D03*
Y986250D02*
D03*
Y981250D02*
D03*
Y976250D02*
D03*
Y971250D02*
D03*
Y966250D02*
D03*
Y961250D02*
D03*
Y956250D02*
D03*
Y951250D02*
D03*
Y946250D02*
D03*
Y941250D02*
D03*
Y936250D02*
D03*
Y931250D02*
D03*
Y926250D02*
D03*
Y921250D02*
D03*
Y916250D02*
D03*
Y911250D02*
D03*
Y906250D02*
D03*
Y901250D02*
D03*
Y896250D02*
D03*
Y891250D02*
D03*
Y886250D02*
D03*
X1087750D02*
D03*
Y891250D02*
D03*
Y896250D02*
D03*
Y901250D02*
D03*
Y906250D02*
D03*
Y911250D02*
D03*
Y916250D02*
D03*
Y921250D02*
D03*
Y926250D02*
D03*
Y931250D02*
D03*
Y936250D02*
D03*
Y941250D02*
D03*
Y946250D02*
D03*
Y951250D02*
D03*
Y956250D02*
D03*
Y961250D02*
D03*
Y966250D02*
D03*
Y971250D02*
D03*
Y976250D02*
D03*
Y981250D02*
D03*
Y986250D02*
D03*
Y991250D02*
D03*
Y996250D02*
D03*
Y1001250D02*
D03*
Y1006250D02*
D03*
D13*
X782500Y360886D02*
D03*
Y343750D02*
D03*
X724750Y347864D02*
D03*
Y365000D02*
D03*
X624250Y410364D02*
D03*
Y427500D02*
D03*
X602000Y410364D02*
D03*
Y427500D02*
D03*
X768500Y414364D02*
D03*
Y431500D02*
D03*
X892500Y314136D02*
D03*
Y297000D02*
D03*
X425250Y404114D02*
D03*
Y421250D02*
D03*
X1385500Y1221864D02*
D03*
Y1239000D02*
D03*
X1490000Y400614D02*
D03*
Y417750D02*
D03*
X1464500Y400864D02*
D03*
Y418000D02*
D03*
X863250Y1196864D02*
D03*
Y1214000D02*
D03*
X864000Y1237000D02*
D03*
Y1254136D02*
D03*
X1214000Y855364D02*
D03*
Y872500D02*
D03*
X1213500Y925886D02*
D03*
Y908750D02*
D03*
X1439250Y401364D02*
D03*
Y418500D02*
D03*
X934250Y1231136D02*
D03*
Y1214000D02*
D03*
X897000Y1213864D02*
D03*
Y1231000D02*
D03*
X1201750Y523864D02*
D03*
Y541000D02*
D03*
X1180500Y523864D02*
D03*
Y541000D02*
D03*
X251750Y1139136D02*
D03*
Y1122000D02*
D03*
X1076500Y1248886D02*
D03*
Y1231750D02*
D03*
X1029500Y1250886D02*
D03*
Y1233750D02*
D03*
X1306750Y1220864D02*
D03*
Y1238000D02*
D03*
X1311250Y847864D02*
D03*
Y865000D02*
D03*
X1511750Y1056864D02*
D03*
Y1074000D02*
D03*
X469250Y1180386D02*
D03*
Y1163250D02*
D03*
D14*
X1254000Y459500D02*
D03*
Y448500D02*
D03*
Y437500D02*
D03*
Y426500D02*
D03*
Y470500D02*
D03*
Y481500D02*
D03*
Y492500D02*
D03*
Y522662D02*
D03*
Y533584D02*
D03*
Y544506D02*
D03*
Y555682D02*
D03*
Y566604D02*
D03*
X1374198D02*
D03*
Y555682D02*
D03*
Y544506D02*
D03*
Y533584D02*
D03*
Y522662D02*
D03*
Y492500D02*
D03*
Y481500D02*
D03*
Y470500D02*
D03*
Y459500D02*
D03*
Y448500D02*
D03*
Y437500D02*
D03*
Y426500D02*
D03*
D15*
X1663500Y563750D02*
D03*
Y576750D02*
D03*
X1641500D02*
D03*
Y563750D02*
D03*
X1663500Y570250D02*
D03*
X1641500D02*
D03*
D16*
X1123000Y456574D02*
D03*
X1113348Y478750D02*
D03*
X1132500D02*
D03*
X1168750Y1256324D02*
D03*
X1159098Y1278500D02*
D03*
X1178250D02*
D03*
X1121500Y1262324D02*
D03*
X1111848Y1284500D02*
D03*
X1131000D02*
D03*
X1076500Y1267324D02*
D03*
X1066848Y1289500D02*
D03*
X1086000D02*
D03*
X1030000Y1271574D02*
D03*
X1020348Y1293750D02*
D03*
X1039500D02*
D03*
D17*
X844676Y427500D02*
D03*
X822500Y417848D02*
D03*
Y437000D02*
D03*
X1560176Y1065500D02*
D03*
X1538000Y1055848D02*
D03*
Y1075000D02*
D03*
X1382062Y1133136D02*
D03*
X1359886Y1123484D02*
D03*
Y1142636D02*
D03*
X1382062Y1100136D02*
D03*
X1359886Y1090484D02*
D03*
Y1109636D02*
D03*
X1382062Y1067136D02*
D03*
X1359886Y1057484D02*
D03*
Y1076636D02*
D03*
X1382062Y1033136D02*
D03*
X1359886Y1023484D02*
D03*
Y1042636D02*
D03*
X1382062Y999136D02*
D03*
X1359886Y989484D02*
D03*
Y1008636D02*
D03*
X1382062Y965136D02*
D03*
X1359886Y955484D02*
D03*
Y974636D02*
D03*
X1351426Y855500D02*
D03*
X1329250Y845848D02*
D03*
Y865000D02*
D03*
D18*
X845662Y696450D02*
D03*
Y709150D02*
D03*
Y734550D02*
D03*
X793500Y696450D02*
D03*
Y709150D02*
D03*
Y734550D02*
D03*
X845662Y721850D02*
D03*
X793500D02*
D03*
D19*
X271950Y1073000D02*
D03*
X284650D02*
D03*
X310050D02*
D03*
X271950Y1133000D02*
D03*
X284650D02*
D03*
X310050D02*
D03*
X297350Y1073000D02*
D03*
Y1133000D02*
D03*
D20*
X291000Y1103000D02*
D03*
D21*
X1453000Y580000D02*
D03*
Y570000D02*
D03*
D22*
X1221000Y437000D02*
D03*
Y420000D02*
D03*
X1627865Y658965D02*
D03*
Y641965D02*
D03*
X1629503Y498380D02*
D03*
Y481380D02*
D03*
X1475250Y497250D02*
D03*
Y514250D02*
D03*
X517500Y1151000D02*
D03*
Y1134000D02*
D03*
X868250Y1013750D02*
D03*
Y1030750D02*
D03*
X888250D02*
D03*
Y1013750D02*
D03*
X859250Y868750D02*
D03*
Y851750D02*
D03*
X881250D02*
D03*
Y868750D02*
D03*
X1120250Y1028750D02*
D03*
Y1045750D02*
D03*
X1141250D02*
D03*
Y1028750D02*
D03*
X1251250Y984250D02*
D03*
Y1001250D02*
D03*
X658500Y1138750D02*
D03*
Y1155750D02*
D03*
X515500Y1108000D02*
D03*
Y1091000D02*
D03*
X597500Y1092750D02*
D03*
Y1109750D02*
D03*
X658500Y1116000D02*
D03*
Y1099000D02*
D03*
X735000D02*
D03*
Y1116000D02*
D03*
X1225750Y678000D02*
D03*
Y661000D02*
D03*
X1412500Y845500D02*
D03*
Y862500D02*
D03*
D23*
X1645250Y1197250D02*
D03*
X1662250D02*
D03*
X1663500Y1004500D02*
D03*
X1646500D02*
D03*
X958250Y685500D02*
D03*
X975250D02*
D03*
X516500Y1047500D02*
D03*
X533500D02*
D03*
X571000D02*
D03*
X554000D02*
D03*
X1038500Y1142000D02*
D03*
X1021500D02*
D03*
X1533500Y1203750D02*
D03*
X1550500D02*
D03*
X1072500Y1106000D02*
D03*
X1089500D02*
D03*
Y1085000D02*
D03*
X1072500D02*
D03*
X961250Y1104750D02*
D03*
X978250D02*
D03*
Y1089750D02*
D03*
X961250D02*
D03*
X1095250Y788750D02*
D03*
X1112250D02*
D03*
Y809750D02*
D03*
X1095250D02*
D03*
X905500Y1138000D02*
D03*
X922500D02*
D03*
Y1116750D02*
D03*
X905500D02*
D03*
X298750Y1161000D02*
D03*
X315750D02*
D03*
X240000Y1160250D02*
D03*
X257000D02*
D03*
X403500Y954000D02*
D03*
X386500D02*
D03*
X862500Y752500D02*
D03*
X845500D02*
D03*
X764250Y664000D02*
D03*
X747250D02*
D03*
X696000Y1048500D02*
D03*
X713000D02*
D03*
X679000D02*
D03*
X662000D02*
D03*
X718250Y897000D02*
D03*
X735250D02*
D03*
X675000D02*
D03*
X692000D02*
D03*
X885250Y361500D02*
D03*
X902250D02*
D03*
D24*
X1201750Y437250D02*
D03*
Y416250D02*
D03*
X735750Y1008000D02*
D03*
Y987000D02*
D03*
X705750Y1008000D02*
D03*
Y987000D02*
D03*
X834250Y868750D02*
D03*
Y847750D02*
D03*
X1164250Y1028750D02*
D03*
Y1049750D02*
D03*
X279250Y1160750D02*
D03*
Y1181750D02*
D03*
X847250Y1013750D02*
D03*
Y1034750D02*
D03*
D25*
X1072500Y1129000D02*
D03*
X1093500D02*
D03*
X403750Y977000D02*
D03*
X382750D02*
D03*
X295750Y1043750D02*
D03*
X316750D02*
D03*
X961250Y1129000D02*
D03*
X982250D02*
D03*
X1095250Y765750D02*
D03*
X1116250D02*
D03*
X902250Y384000D02*
D03*
X881250D02*
D03*
D26*
X984500Y716500D02*
D03*
X949500D02*
D03*
X1109500Y837000D02*
D03*
X1074500D02*
D03*
X371500Y1089500D02*
D03*
X406500D02*
D03*
X371250Y1062000D02*
D03*
X406250D02*
D03*
X371000Y1032750D02*
D03*
X406000D02*
D03*
X370750Y1003500D02*
D03*
X405750D02*
D03*
X330500Y984000D02*
D03*
X295500D02*
D03*
X330000Y1014000D02*
D03*
X295000D02*
D03*
D27*
X905250Y850750D02*
D03*
Y885750D02*
D03*
X1284250Y976000D02*
D03*
Y1011000D02*
D03*
X1260000Y688750D02*
D03*
Y653750D02*
D03*
D28*
X1034500Y724208D02*
D03*
X1044000D02*
D03*
X1053652D02*
D03*
Y698000D02*
D03*
X1044000D02*
D03*
X1034500D02*
D03*
D29*
X639958Y873250D02*
D03*
Y863750D02*
D03*
Y854098D02*
D03*
X613750D02*
D03*
Y863750D02*
D03*
Y873250D02*
D03*
X639208Y820000D02*
D03*
Y810500D02*
D03*
Y800848D02*
D03*
X613000D02*
D03*
Y810500D02*
D03*
Y820000D02*
D03*
X639208Y767250D02*
D03*
Y757750D02*
D03*
Y748098D02*
D03*
X613000D02*
D03*
Y757750D02*
D03*
Y767250D02*
D03*
D30*
X532250Y1071000D02*
D03*
X538750D02*
D03*
X545250D02*
D03*
X551750D02*
D03*
X558250D02*
D03*
X564750D02*
D03*
X571250D02*
D03*
X577750D02*
D03*
X532250Y1134000D02*
D03*
X538750D02*
D03*
X545250D02*
D03*
X551750D02*
D03*
X558250D02*
D03*
X564750D02*
D03*
X571250D02*
D03*
X577750D02*
D03*
X673750Y1076000D02*
D03*
X680250D02*
D03*
X686750D02*
D03*
X693250D02*
D03*
X699750D02*
D03*
X706250D02*
D03*
X712750D02*
D03*
X719250D02*
D03*
X673750Y1139000D02*
D03*
X680250D02*
D03*
X686750D02*
D03*
X693250D02*
D03*
X699750D02*
D03*
X706250D02*
D03*
X712750D02*
D03*
X719250D02*
D03*
D31*
X675250Y878500D02*
D03*
Y872000D02*
D03*
Y865500D02*
D03*
Y859000D02*
D03*
Y852500D02*
D03*
Y846000D02*
D03*
Y839500D02*
D03*
Y833000D02*
D03*
Y826500D02*
D03*
Y820000D02*
D03*
Y813500D02*
D03*
Y807000D02*
D03*
X735250Y878500D02*
D03*
Y872000D02*
D03*
Y865500D02*
D03*
Y859000D02*
D03*
Y852500D02*
D03*
Y846000D02*
D03*
Y839500D02*
D03*
Y833000D02*
D03*
Y826500D02*
D03*
Y820000D02*
D03*
Y813500D02*
D03*
Y807000D02*
D03*
D32*
X763500Y349250D02*
D03*
Y362250D02*
D03*
X747500Y355750D02*
D03*
X445750Y420000D02*
D03*
Y407000D02*
D03*
X461750Y413500D02*
D03*
X843750Y1198250D02*
D03*
Y1211250D02*
D03*
X827750Y1204750D02*
D03*
X843000Y1240250D02*
D03*
Y1253250D02*
D03*
X827000Y1246750D02*
D03*
D33*
X469000Y1123000D02*
D03*
X482000D02*
D03*
X475500Y1139000D02*
D03*
D34*
X1169000Y437423D02*
D03*
D35*
X1185002D02*
D03*
X1153000D02*
D03*
D36*
X475000Y876000D02*
D03*
X525000D02*
D03*
Y868000D02*
D03*
X475000D02*
D03*
X525000Y860000D02*
D03*
X475000D02*
D03*
X525000Y852000D02*
D03*
X475000D02*
D03*
X525000Y844000D02*
D03*
X475000D02*
D03*
X525000Y836000D02*
D03*
X475000D02*
D03*
X525000Y828000D02*
D03*
X475000D02*
D03*
X525000Y820000D02*
D03*
X475000D02*
D03*
X525000Y812000D02*
D03*
X475000D02*
D03*
X525000Y804000D02*
D03*
X475000D02*
D03*
X525000Y796000D02*
D03*
X475000D02*
D03*
X525000Y788000D02*
D03*
X475000D02*
D03*
X525000Y780000D02*
D03*
X475000D02*
D03*
X525000Y772000D02*
D03*
X475000D02*
D03*
X525000Y764000D02*
D03*
X475000D02*
D03*
X525000Y756000D02*
D03*
X475000D02*
D03*
X525000Y748000D02*
D03*
X475000D02*
D03*
X525000Y740000D02*
D03*
X475000D02*
D03*
X525000Y732000D02*
D03*
X475000D02*
D03*
X525000Y724000D02*
D03*
X475000D02*
D03*
D37*
X673500Y982776D02*
D03*
Y1011220D02*
D03*
D38*
X927474Y1161250D02*
D03*
X899030D02*
D03*
D39*
X1431000Y555500D02*
D03*
X1414000D02*
D03*
Y569500D02*
D03*
X1431000D02*
D03*
D40*
X1667100Y1165000D02*
D03*
X1641700D02*
D03*
X1616300D02*
D03*
X1590900D02*
D03*
Y1041000D02*
D03*
X1616300D02*
D03*
X1641700D02*
D03*
X1667100D02*
D03*
X1667900Y975000D02*
D03*
X1642500D02*
D03*
X1617100D02*
D03*
X1591700D02*
D03*
Y851000D02*
D03*
X1617100D02*
D03*
X1642500D02*
D03*
X1667900D02*
D03*
D41*
X1436500Y867250D02*
D03*
X1460500D02*
D03*
Y843250D02*
D03*
X1436500D02*
D03*
D42*
X1041250Y1093750D02*
D03*
X1018250D02*
D03*
Y1117750D02*
D03*
X1041250D02*
D03*
D43*
X352500Y1144500D02*
D03*
X417500D02*
D03*
D44*
X1651250Y497000D02*
D03*
X1663500D02*
D03*
X1651250Y644500D02*
D03*
X1663500D02*
D03*
X1519750Y514250D02*
D03*
X1532000D02*
D03*
X1624250Y570250D02*
D03*
X1612000D02*
D03*
D45*
X1475500Y557250D02*
D03*
Y569500D02*
D03*
X1663599Y525870D02*
D03*
Y538120D02*
D03*
X1663613Y614315D02*
D03*
Y602065D02*
D03*
D48*
X800000Y260000D02*
X1790000Y360000D01*
Y1240000D01*
X210000Y260000D02*
X800000D01*
Y1340000D02*
X1790000Y1240000D01*
X210000Y1340000D02*
X800000D01*
X210000Y260000D02*
Y1340000D01*
D95*
X1169024Y445551D02*
D03*
D96*
Y429423D02*
D03*
D97*
X1185129Y437479D02*
D03*
D98*
X1153000D02*
D03*
M02*
