G04 Layer_Physical_Order=1*
G04 Layer_Color=255*
%FSLAX44Y44*%
%MOMM*%
G71*
G01*
G75*
%ADD10R,1.0160X1.1176*%
%ADD11O,0.3000X1.8000*%
%ADD12O,1.8000X0.3000*%
%ADD13R,1.1176X1.0160*%
%ADD14R,2.0000X0.8128*%
%ADD15R,1.0000X0.4000*%
%ADD16R,1.0160X1.4224*%
%ADD17R,1.4224X1.0160*%
%ADD18R,2.2098X0.6096*%
%ADD19R,0.6096X2.2098*%
%ADD20R,3.1000X2.4000*%
%ADD21R,0.4064X0.4000*%
%ADD22R,1.0000X1.0000*%
%ADD23R,1.0000X1.0000*%
%ADD24R,1.5000X1.0000*%
%ADD25R,1.0000X1.5000*%
%ADD26R,1.3000X1.9000*%
%ADD27R,1.9000X1.3000*%
%ADD28R,0.5588X1.2192*%
%ADD29R,1.2192X0.5588*%
%ADD30R,0.3000X1.8000*%
%ADD31R,1.9000X0.3000*%
%ADD32R,1.0000X0.8000*%
%ADD33R,0.8000X1.0000*%
%ADD34R,0.6350X2.6162*%
G04:AMPARAMS|DCode=35|XSize=1.1176mm|YSize=1.4224mm|CornerRadius=0.0838mm|HoleSize=0mm|Usage=FLASHONLY|Rotation=0.000|XOffset=0mm|YOffset=0mm|HoleType=Round|Shape=RoundedRectangle|*
%AMROUNDEDRECTD35*
21,1,1.1176,1.2548,0,0,0.0*
21,1,0.9500,1.4224,0,0,0.0*
1,1,0.1676,0.4750,-0.6274*
1,1,0.1676,-0.4750,-0.6274*
1,1,0.1676,-0.4750,0.6274*
1,1,0.1676,0.4750,0.6274*
%
%ADD35ROUNDEDRECTD35*%
%ADD36R,2.7000X0.5000*%
%ADD37R,1.8034X1.6002*%
%ADD38R,1.6002X1.8034*%
%ADD39R,1.1000X0.8000*%
%ADD40R,1.5000X3.0000*%
%ADD41R,1.4000X1.4000*%
%ADD42R,1.2000X1.6000*%
%ADD43R,3.2000X4.0000*%
%ADD44R,0.6000X0.6000*%
%ADD45R,0.6000X0.6000*%
%ADD46C,0.5000*%
%ADD47C,1.0000*%
%ADD48C,0.4000*%
%ADD49C,0.3000*%
%ADD50C,2.0000*%
%ADD51C,0.2540*%
%ADD52C,0.2500*%
%ADD53C,0.2800*%
%ADD54C,0.2000*%
%ADD55C,0.8000*%
%ADD56C,7.0000*%
%ADD57C,4.0000*%
%ADD58R,1.5000X1.5000*%
%ADD59C,1.5000*%
%ADD60C,2.0000*%
%ADD61C,0.8000*%
%ADD62C,0.8130*%
%ADD63C,2.8000*%
%ADD64O,1.5000X2.5000*%
%ADD65C,3.5000*%
%ADD66C,1.7000*%
%ADD67O,1.7000X1.5000*%
%ADD68C,0.9000*%
%ADD69R,1.5000X2.5000*%
%ADD70O,1.5000X2.5000*%
%ADD71C,4.5000*%
%ADD72C,0.6000*%
%ADD73C,1.0000*%
%ADD74C,1.2700*%
G36*
X1099414Y799500D02*
Y742414D01*
X1098000Y741000D01*
X1097000Y740000D01*
X1081000Y740000D01*
X1076000Y745000D01*
X1076000Y755000D01*
Y768000D01*
X1090000Y782000D01*
Y797245D01*
X1090794Y799162D01*
X1091069Y801250D01*
X1090794Y803338D01*
X1090000Y805256D01*
Y814000D01*
X1099414D01*
Y799500D01*
D02*
G37*
G36*
X270500Y1086058D02*
Y1086000D01*
X274998D01*
X276602Y1085979D01*
Y1056951D01*
X292698D01*
Y1084866D01*
X293602Y1085758D01*
X302000Y1085649D01*
X302000Y959250D01*
X302286Y958964D01*
X302388Y958451D01*
X303493Y956797D01*
X320145Y940145D01*
X321799Y939040D01*
X323750Y938652D01*
X381000Y938652D01*
X382951Y939040D01*
X384605Y940145D01*
X387835Y943375D01*
X499125Y943375D01*
X545875Y896625D01*
Y842500D01*
X538875Y835500D01*
X506500D01*
X506500Y835500D01*
Y835500D01*
X505504Y836121D01*
X499125Y842500D01*
Y878375D01*
X475000Y902500D01*
X305750D01*
X267125Y941125D01*
Y942000D01*
X267000D01*
X267000Y1085200D01*
X267904Y1086092D01*
X270500Y1086058D01*
D02*
G37*
G36*
X854000Y874000D02*
X886000D01*
Y864000D01*
X815000D01*
X813000Y866000D01*
X812000Y867000D01*
X812000Y883000D01*
X817000Y888000D01*
X827000Y888000D01*
X840000D01*
X854000Y874000D01*
D02*
G37*
G36*
X1666470Y647469D02*
X1660531D01*
X1660641Y647570D01*
X1660740Y647869D01*
X1660828Y648370D01*
X1660904Y649070D01*
X1661061Y652370D01*
X1661113Y657469D01*
X1666113D01*
X1666470Y647469D01*
D02*
G37*
G36*
X1671964Y694114D02*
X1670736Y692631D01*
X1669653Y691141D01*
X1668714Y689641D01*
X1667919Y688134D01*
X1667269Y686619D01*
X1666764Y685095D01*
X1666402Y683564D01*
X1666186Y682024D01*
X1666113Y680475D01*
X1661113Y680380D01*
X1661040Y681946D01*
X1660819Y683495D01*
X1660450Y685025D01*
X1659934Y686536D01*
X1659270Y688029D01*
X1658459Y689504D01*
X1657500Y690960D01*
X1656394Y692398D01*
X1655141Y693818D01*
X1653740Y695219D01*
X1673336Y695588D01*
X1671964Y694114D01*
D02*
G37*
G36*
X1384267Y559424D02*
X1384568Y559163D01*
X1385067Y558933D01*
X1385768Y558734D01*
X1386667Y558565D01*
X1387767Y558427D01*
X1390567Y558243D01*
X1394167Y558182D01*
Y553182D01*
X1392267Y553167D01*
X1386667Y552799D01*
X1385768Y552630D01*
X1385067Y552430D01*
X1384568Y552201D01*
X1384267Y551940D01*
X1384167Y551648D01*
Y559715D01*
X1384267Y559424D01*
D02*
G37*
G36*
X452500Y1160000D02*
Y950000D01*
X450973Y948473D01*
X399027Y948473D01*
X397500Y950000D01*
X397500Y1165000D01*
X402500Y1170000D01*
X442500D01*
X452500Y1160000D01*
D02*
G37*
G36*
X1666006Y549189D02*
X1666460Y541189D01*
X1666568Y541089D01*
X1660629D01*
X1660700Y541189D01*
X1660763Y541489D01*
X1660818Y541989D01*
X1660907Y543589D01*
X1661000Y551089D01*
X1666000D01*
X1666006Y549189D01*
D02*
G37*
G36*
X894000Y1009000D02*
X855000Y1009000D01*
X843000Y997000D01*
X825000Y997000D01*
X820000Y1002000D01*
X820000Y1015000D01*
X825000Y1019000D01*
X894000D01*
Y1009000D01*
D02*
G37*
G36*
X819151Y934922D02*
X771864Y887636D01*
X770822Y886278D01*
X770167Y884697D01*
X769944Y883000D01*
Y870186D01*
X766944Y869590D01*
X766861Y869789D01*
X765419Y871669D01*
X763539Y873111D01*
X761349Y874018D01*
X759000Y874328D01*
X756650Y874018D01*
X754461Y873111D01*
X752750Y871798D01*
X752201Y871835D01*
X749750Y872907D01*
Y885000D01*
X748001D01*
X745910Y887374D01*
X746428Y889520D01*
X747838Y889706D01*
X749784Y890512D01*
X751456Y891794D01*
X752738Y893465D01*
X753544Y895412D01*
X753819Y897500D01*
X753544Y899588D01*
X752738Y901535D01*
X751456Y903206D01*
X749784Y904488D01*
X747838Y905294D01*
X747559Y905331D01*
X745250Y907000D01*
X745250Y907000D01*
X743319Y909500D01*
X743044Y911588D01*
X742238Y913534D01*
X740956Y915206D01*
X739285Y916488D01*
X737338Y917294D01*
X735250Y917569D01*
X733162Y917294D01*
X731216Y916488D01*
X729544Y915206D01*
X728262Y913534D01*
X727456Y911588D01*
X727181Y909500D01*
X725250Y907000D01*
X725250D01*
Y887000D01*
X723079Y885000D01*
X720750D01*
Y872000D01*
Y868500D01*
X720750Y865500D01*
X720750D01*
Y865500D01*
X720750D01*
Y852500D01*
Y846000D01*
Y839500D01*
Y833000D01*
Y826500D01*
Y820000D01*
X734824D01*
X735250Y819944D01*
X770500D01*
X772197Y820167D01*
X773778Y820822D01*
X775136Y821864D01*
X795886Y842614D01*
X796928Y843972D01*
X797583Y845553D01*
X797806Y847250D01*
Y873034D01*
X804130Y879359D01*
X806902Y878211D01*
X806902Y867000D01*
X807290Y865049D01*
X808395Y863395D01*
X811395Y860395D01*
X813049Y859290D01*
X815000Y858902D01*
X821750D01*
Y858750D01*
X846250D01*
X846750Y858750D01*
X846750Y858750D01*
X849250D01*
Y858750D01*
X849750Y858750D01*
X868250D01*
X869250Y858750D01*
X869250Y858750D01*
X871250D01*
Y858750D01*
X872250Y858750D01*
X891250D01*
Y862357D01*
X910250D01*
X912696Y862844D01*
X914770Y864230D01*
X930235Y879694D01*
X942858D01*
X944737Y878737D01*
X945694Y876858D01*
Y870750D01*
Y862216D01*
X892784Y809306D01*
X807895D01*
X805319Y812000D01*
X805044Y814088D01*
X804238Y816034D01*
X802956Y817706D01*
X802924Y817730D01*
X803488Y818465D01*
X804294Y820412D01*
X804569Y822500D01*
X804294Y824588D01*
X803488Y826535D01*
X802206Y828206D01*
X800535Y829488D01*
X798588Y830294D01*
X796500Y830569D01*
X794412Y830294D01*
X792466Y829488D01*
X790794Y828206D01*
X789512Y826535D01*
X788706Y824588D01*
X788689Y824461D01*
X764034Y799806D01*
X706000D01*
X704303Y799583D01*
X702722Y798928D01*
X701364Y797886D01*
X671328Y767849D01*
X668556Y768997D01*
Y813500D01*
X689750D01*
Y820000D01*
Y826500D01*
Y833000D01*
Y839500D01*
Y846000D01*
Y852500D01*
Y859000D01*
Y869000D01*
X689750Y872000D01*
X689750D01*
Y872000D01*
X689750D01*
Y885000D01*
X687171D01*
X685000Y887000D01*
Y907000D01*
X682315D01*
Y913912D01*
X709466D01*
Y915116D01*
X711250Y916681D01*
X713338Y916956D01*
X713892Y917185D01*
X716608D01*
X717162Y916956D01*
X719250Y916681D01*
X721338Y916956D01*
X723285Y917762D01*
X724956Y919044D01*
X726238Y920715D01*
X727044Y922662D01*
X727319Y924750D01*
X727044Y926838D01*
X726238Y928784D01*
X724956Y930456D01*
X723285Y931738D01*
X721338Y932544D01*
X719250Y932819D01*
X717162Y932544D01*
X716608Y932315D01*
X713892D01*
X713338Y932544D01*
X711250Y932819D01*
X711244Y932824D01*
X709466Y935088D01*
X710487Y937694D01*
X818003D01*
X819151Y934922D01*
D02*
G37*
G36*
X1408530Y551530D02*
X1408430Y551844D01*
X1408130Y552125D01*
X1407630Y552373D01*
X1406931Y552587D01*
X1406030Y552769D01*
X1404931Y552918D01*
X1402130Y553116D01*
X1398530Y553182D01*
Y558182D01*
X1400430Y558195D01*
X1406931Y558646D01*
X1407630Y558813D01*
X1408130Y559006D01*
X1408430Y559225D01*
X1408530Y559469D01*
Y551530D01*
D02*
G37*
G36*
X1599000Y557250D02*
X1623603D01*
X1623822Y557000D01*
X1630533D01*
X1630694Y556900D01*
X1631476Y555730D01*
X1631133Y554000D01*
X1631598Y551659D01*
X1632924Y549674D01*
X1634909Y548348D01*
X1637250Y547882D01*
X1639591Y548348D01*
X1641576Y549674D01*
X1642902Y551659D01*
X1643367Y554000D01*
X1643023Y555730D01*
X1643806Y556900D01*
X1643967Y557000D01*
X1648599D01*
Y547435D01*
X1648605Y547444D01*
X1649329Y549190D01*
X1650599Y548937D01*
Y525120D01*
Y512870D01*
X1650991D01*
Y510000D01*
X1648599D01*
Y503000D01*
X1645250D01*
Y501301D01*
X1637503D01*
Y506380D01*
X1633989D01*
Y510661D01*
X1634876Y511988D01*
X1635341Y514329D01*
X1634876Y516670D01*
X1633550Y518655D01*
X1631565Y519981D01*
X1629224Y520447D01*
X1626883Y519981D01*
X1625020Y518736D01*
X1538000D01*
Y520250D01*
X1526000D01*
Y520250D01*
X1525750D01*
Y520250D01*
X1513750D01*
Y518736D01*
X1483250D01*
Y522250D01*
X1479986D01*
Y542500D01*
X1486998D01*
Y544250D01*
X1488500D01*
Y556892D01*
X1527061D01*
X1527355Y556341D01*
X1530354Y552687D01*
X1534009Y549688D01*
X1538178Y547459D01*
X1542702Y546087D01*
X1547407Y545623D01*
X1552112Y546087D01*
X1556636Y547459D01*
X1560805Y549688D01*
X1564460Y552687D01*
X1567459Y556341D01*
X1568149Y557631D01*
X1599000D01*
Y557250D01*
D02*
G37*
G36*
X1436570Y573190D02*
X1436870Y572940D01*
X1437370Y572720D01*
X1438069Y572529D01*
X1438970Y572367D01*
X1440069Y572235D01*
X1442870Y572059D01*
X1446470Y572000D01*
Y567000D01*
X1444570Y566985D01*
X1438970Y566633D01*
X1438069Y566471D01*
X1437370Y566280D01*
X1436870Y566059D01*
X1436570Y565810D01*
X1436470Y565531D01*
Y573470D01*
X1436570Y573190D01*
D02*
G37*
G36*
X1472531Y566530D02*
X1472431Y566620D01*
X1472130Y566699D01*
X1471631Y566770D01*
X1470930Y566831D01*
X1466131Y566981D01*
X1462531Y567000D01*
Y572000D01*
X1472531Y572469D01*
Y566530D01*
D02*
G37*
G36*
X1478569Y572380D02*
X1478869Y572300D01*
X1479370Y572230D01*
X1480069Y572169D01*
X1484870Y572019D01*
X1488470Y572000D01*
Y567000D01*
X1478470Y566530D01*
Y572469D01*
X1478569Y572380D01*
D02*
G37*
G36*
X1668000Y561680D02*
X1667581Y561381D01*
X1667210Y560881D01*
X1666889Y560181D01*
X1666617Y559281D01*
X1666395Y558181D01*
X1666222Y556880D01*
X1666025Y553680D01*
X1666000Y551781D01*
X1661000D01*
X1660975Y553680D01*
X1660605Y558181D01*
X1660383Y559281D01*
X1660111Y560181D01*
X1659790Y560881D01*
X1659420Y561381D01*
X1659000Y561680D01*
X1658530Y561781D01*
X1668470D01*
X1668000Y561680D01*
D02*
G37*
G36*
X1537578Y559770D02*
X1536107Y561144D01*
X1534627Y562373D01*
X1533139Y563457D01*
X1531642Y564397D01*
X1530136Y565192D01*
X1528622Y565843D01*
X1527099Y566349D01*
X1525567Y566711D01*
X1524027Y566928D01*
X1522478Y567000D01*
X1522391Y572000D01*
X1523957Y572074D01*
X1525504Y572295D01*
X1527035Y572663D01*
X1528547Y573179D01*
X1530041Y573842D01*
X1531517Y574652D01*
X1532975Y575610D01*
X1534416Y576715D01*
X1535838Y577967D01*
X1537243Y579367D01*
X1537578Y559770D01*
D02*
G37*
G36*
X1558556Y578531D02*
X1560067Y577316D01*
X1561582Y576243D01*
X1563100Y575314D01*
X1564621Y574527D01*
X1566146Y573884D01*
X1567675Y573383D01*
X1569207Y573025D01*
X1570743Y572811D01*
X1572282Y572739D01*
X1572464Y567739D01*
X1570889Y567665D01*
X1569338Y567442D01*
X1567809Y567070D01*
X1566303Y566549D01*
X1564820Y565880D01*
X1563360Y565062D01*
X1561923Y564095D01*
X1560509Y562980D01*
X1559117Y561716D01*
X1557749Y560303D01*
X1557049Y579890D01*
X1558556Y578531D01*
D02*
G37*
G36*
X1666494Y598996D02*
X1666414Y598696D01*
X1666344Y598196D01*
X1666283Y597496D01*
X1666132Y592696D01*
X1666113Y589096D01*
X1661113D01*
X1660644Y599096D01*
X1666583D01*
X1666494Y598996D01*
D02*
G37*
G36*
X1666583Y617285D02*
X1660644D01*
X1660733Y617385D01*
X1660813Y617685D01*
X1660883Y618185D01*
X1660945Y618885D01*
X1661095Y623685D01*
X1661113Y627285D01*
X1666113D01*
X1666583Y617285D01*
D02*
G37*
G36*
X1666402Y641431D02*
X1666341Y641131D01*
X1666288Y640630D01*
X1666203Y639030D01*
X1666113Y631530D01*
X1661113D01*
X1661108Y633430D01*
X1660641Y641431D01*
X1660531Y641531D01*
X1666470D01*
X1666402Y641431D01*
D02*
G37*
G36*
X1609030Y567281D02*
X1608931Y567368D01*
X1608631Y567446D01*
X1608130Y567514D01*
X1606530Y567625D01*
X1599030Y567739D01*
Y572739D01*
X1609030Y573219D01*
Y567281D01*
D02*
G37*
G36*
X1627299Y573035D02*
X1627540Y572870D01*
X1627939Y572725D01*
X1628499Y572599D01*
X1629220Y572492D01*
X1631140Y572337D01*
X1635220Y572250D01*
Y568250D01*
X1633699Y568240D01*
X1628499Y567901D01*
X1627939Y567775D01*
X1627540Y567630D01*
X1627299Y567465D01*
X1627220Y567281D01*
Y573219D01*
X1627299Y573035D01*
D02*
G37*
G36*
X1666137Y586819D02*
X1666490Y582319D01*
X1666703Y581219D01*
X1666962Y580320D01*
X1667268Y579619D01*
X1667621Y579119D01*
X1668022Y578820D01*
X1668470Y578719D01*
X1658613Y578689D01*
X1659089Y578791D01*
X1659514Y579093D01*
X1659889Y579595D01*
X1660213Y580298D01*
X1660489Y581200D01*
X1660714Y582304D01*
X1660889Y583607D01*
X1661089Y586815D01*
X1661113Y588719D01*
X1666113D01*
X1666137Y586819D01*
D02*
G37*
G36*
X1189000Y1032000D02*
X1190000Y1031000D01*
X1190000Y1015000D01*
X1185000Y1010000D01*
X1175000Y1010000D01*
X1162000D01*
X1148000Y1024000D01*
X1116000D01*
Y1034000D01*
X1187000D01*
X1189000Y1032000D01*
D02*
G37*
G36*
X752651Y1243151D02*
X752651Y1243151D01*
X754218Y1241949D01*
X756042Y1241193D01*
X758000Y1240935D01*
X779784D01*
Y1236912D01*
X817080D01*
Y1237750D01*
X833000D01*
Y1231250D01*
X848978D01*
X849114Y1231114D01*
X850472Y1230072D01*
X852053Y1229417D01*
X853412Y1229238D01*
Y1226920D01*
X874588D01*
Y1226920D01*
X877588Y1227758D01*
X877651Y1227732D01*
X880000Y1227422D01*
X882349Y1227732D01*
X883412Y1228172D01*
X886412Y1226592D01*
Y1220920D01*
Y1203784D01*
X886694D01*
Y1198336D01*
X886126Y1198032D01*
X883842Y1196158D01*
X881968Y1193874D01*
X880575Y1191268D01*
X879717Y1188440D01*
X879427Y1185500D01*
X879717Y1182560D01*
X880575Y1179732D01*
X881968Y1177126D01*
X883842Y1174842D01*
X886029Y1173047D01*
Y1147233D01*
X886694D01*
Y1125470D01*
X887037Y1122859D01*
X888045Y1120427D01*
X889648Y1118338D01*
X895500Y1112486D01*
Y1106750D01*
X900184D01*
X900864Y1105864D01*
X914651Y1092078D01*
X913503Y1089306D01*
X899405D01*
X898032Y1091874D01*
X896158Y1094158D01*
X893874Y1096032D01*
X891268Y1097425D01*
X888440Y1098283D01*
X885500Y1098573D01*
X882560Y1098283D01*
X879732Y1097425D01*
X877126Y1096032D01*
X874842Y1094158D01*
X872968Y1091874D01*
X871575Y1089268D01*
X870717Y1086441D01*
X870427Y1083500D01*
X870717Y1080559D01*
X871575Y1077732D01*
X872968Y1075126D01*
X874842Y1072842D01*
X877126Y1070968D01*
X879732Y1069575D01*
X882560Y1068717D01*
X885500Y1068427D01*
X888440Y1068717D01*
X891268Y1069575D01*
X893874Y1070968D01*
X896158Y1072842D01*
X898032Y1075126D01*
X898603Y1076194D01*
X922784D01*
X938349Y1060629D01*
X937201Y1057857D01*
X929035D01*
X927334Y1059163D01*
X925145Y1060070D01*
X922795Y1060379D01*
X920446Y1060070D01*
X918256Y1059163D01*
X916376Y1057720D01*
X914934Y1055840D01*
X914027Y1053651D01*
X913717Y1051301D01*
X914027Y1048952D01*
X914934Y1046762D01*
X916376Y1044882D01*
X917554Y1043978D01*
X918888Y1040789D01*
X917982Y1038599D01*
X917672Y1036250D01*
X917982Y1033901D01*
X918888Y1031711D01*
X920331Y1029831D01*
X920639Y1026539D01*
X919732Y1024350D01*
X919422Y1022000D01*
X919732Y1019650D01*
X920639Y1017461D01*
X922081Y1015581D01*
X923961Y1014138D01*
X924580Y1011056D01*
X924460Y1010685D01*
X923572Y1009528D01*
X922917Y1007947D01*
X922694Y1006250D01*
X922774Y1005643D01*
X921188Y1003208D01*
X920461Y1002643D01*
X918398D01*
X902770Y1018270D01*
X900696Y1019656D01*
X898896Y1020014D01*
X898710Y1020951D01*
X898250Y1021639D01*
Y1023750D01*
X895749D01*
X894000Y1024098D01*
X825000D01*
X824296Y1023958D01*
X823581Y1023896D01*
X823328Y1023765D01*
X823049Y1023710D01*
X822452Y1023311D01*
X821815Y1022981D01*
X816815Y1018981D01*
X816632Y1018763D01*
X816395Y1018605D01*
X815997Y1018008D01*
X815534Y1017459D01*
X815448Y1017188D01*
X815290Y1016951D01*
X815150Y1016247D01*
X814933Y1015563D01*
X814958Y1015279D01*
X814902Y1015000D01*
X814902Y1002000D01*
X815290Y1000049D01*
X815906Y999127D01*
X816395Y998395D01*
X821395Y993395D01*
X821395Y993395D01*
X821395Y993395D01*
X822218Y992845D01*
X823049Y992290D01*
X823049Y992290D01*
X823049Y992290D01*
X825000Y991902D01*
X833961Y991902D01*
X835109Y989130D01*
X821077Y975099D01*
X819792Y975204D01*
X817745Y976009D01*
X817111Y977539D01*
X815669Y979419D01*
X813789Y980862D01*
X811600Y981768D01*
X810461Y981918D01*
X808975Y982476D01*
X807334Y984851D01*
X807268Y985350D01*
X806361Y987539D01*
X804919Y989419D01*
X803039Y990861D01*
X800850Y991768D01*
X798500Y992078D01*
X798482Y992075D01*
X795828Y992920D01*
X795375Y994540D01*
X795268Y995350D01*
X794361Y997539D01*
X792919Y999419D01*
X791039Y1000861D01*
X788849Y1001768D01*
X786500Y1002078D01*
X784150Y1001768D01*
X781961Y1000861D01*
X780081Y999419D01*
X778639Y997539D01*
X777732Y995350D01*
X777452Y993223D01*
X753784Y969556D01*
X597000D01*
X595303Y969333D01*
X593722Y968678D01*
X592364Y967636D01*
X550364Y925636D01*
X549664Y924724D01*
X548139Y924183D01*
X547863Y924147D01*
X547034Y924072D01*
X546064Y924252D01*
X531323Y938993D01*
Y944757D01*
X639158Y1052592D01*
X641032Y1054876D01*
X642425Y1057482D01*
X643283Y1060310D01*
X643573Y1063250D01*
Y1127115D01*
X646500Y1129672D01*
X647325Y1129781D01*
X648500Y1128750D01*
Y1128750D01*
X667250D01*
Y1125000D01*
X680250D01*
Y1125000D01*
X680250D01*
Y1125000D01*
X725750D01*
Y1153000D01*
X728084Y1154607D01*
X747352D01*
X756869Y1145090D01*
X756217Y1142941D01*
X755927Y1140000D01*
X756217Y1137059D01*
X757075Y1134232D01*
X758468Y1131626D01*
X760342Y1129342D01*
X762626Y1127468D01*
X765232Y1126075D01*
X768059Y1125217D01*
X771000Y1124927D01*
X773941Y1125217D01*
X776768Y1126075D01*
X779374Y1127468D01*
X781658Y1129342D01*
X783532Y1131626D01*
X784925Y1134232D01*
X785783Y1137059D01*
X786073Y1140000D01*
X785783Y1142941D01*
X784925Y1145768D01*
X783532Y1148374D01*
X781658Y1150658D01*
X779374Y1152532D01*
X776768Y1153925D01*
X773941Y1154783D01*
X771000Y1155073D01*
X768059Y1154783D01*
X765910Y1154131D01*
X762205Y1157835D01*
X763353Y1160607D01*
X779352D01*
X796404Y1143556D01*
X796217Y1142941D01*
X795927Y1140000D01*
X796217Y1137059D01*
X797075Y1134232D01*
X798468Y1131626D01*
X800342Y1129342D01*
X802626Y1127468D01*
X805232Y1126075D01*
X808059Y1125217D01*
X811000Y1124927D01*
X813941Y1125217D01*
X816768Y1126075D01*
X819374Y1127468D01*
X821658Y1129342D01*
X823532Y1131626D01*
X824925Y1134232D01*
X825783Y1137059D01*
X826073Y1140000D01*
X825783Y1142941D01*
X824925Y1145768D01*
X823532Y1148374D01*
X821658Y1150658D01*
X819374Y1152532D01*
X816768Y1153925D01*
X813941Y1154783D01*
X811000Y1155073D01*
X808059Y1154783D01*
X805232Y1153925D01*
X804504Y1153536D01*
X786520Y1171520D01*
X784446Y1172906D01*
X782000Y1173393D01*
X711000D01*
X708553Y1172906D01*
X706480Y1171520D01*
X702414Y1167455D01*
X699643Y1168603D01*
Y1175181D01*
X702613Y1175572D01*
X705654Y1176831D01*
X708265Y1178835D01*
X710269Y1181446D01*
X711528Y1184487D01*
X711958Y1187750D01*
Y1197750D01*
X711703Y1199685D01*
X713763Y1202685D01*
X732617D01*
X744901Y1190401D01*
X744901Y1190401D01*
X746468Y1189199D01*
X748292Y1188443D01*
X750250Y1188185D01*
X778784D01*
Y1185162D01*
X816080D01*
Y1189194D01*
X818250D01*
X819947Y1189417D01*
X821528Y1190072D01*
X822886Y1191114D01*
X827522Y1195750D01*
X833750D01*
Y1189250D01*
X833862D01*
X834429Y1188762D01*
X835708Y1186250D01*
X835232Y1185099D01*
X834922Y1182750D01*
X835232Y1180400D01*
X836139Y1178211D01*
X837581Y1176331D01*
X839461Y1174889D01*
X841650Y1173982D01*
X844000Y1173672D01*
X846349Y1173982D01*
X848539Y1174889D01*
X850419Y1176331D01*
X851861Y1178211D01*
X852768Y1180400D01*
X853078Y1182750D01*
X852942Y1183784D01*
X854730Y1186396D01*
X855318Y1186784D01*
X873838D01*
Y1206944D01*
X853750D01*
Y1207250D01*
X837750D01*
Y1213750D01*
X827522D01*
X821136Y1220136D01*
X819778Y1221178D01*
X818197Y1221833D01*
X816500Y1222056D01*
X816330D01*
Y1225338D01*
X779034D01*
Y1222315D01*
X746260D01*
X744976Y1223599D01*
X743409Y1224801D01*
X741585Y1225557D01*
X739627Y1225815D01*
X645046D01*
X642652Y1228815D01*
X642808Y1230000D01*
Y1240000D01*
X642454Y1242685D01*
X644048Y1245685D01*
X750117D01*
X752651Y1243151D01*
D02*
G37*
G36*
X1027277Y616763D02*
X1027177Y615750D01*
X1027467Y612809D01*
X1028325Y609982D01*
X1029718Y607376D01*
X1031592Y605092D01*
X1033876Y603218D01*
X1036482Y601825D01*
X1039309Y600967D01*
X1042250Y600677D01*
X1045191Y600967D01*
X1048018Y601825D01*
X1048921Y602307D01*
X1067364Y583864D01*
X1068722Y582822D01*
X1070303Y582167D01*
X1072000Y581944D01*
X1129511D01*
X1130094Y581461D01*
X1131439Y579102D01*
X1131167Y578447D01*
X1130944Y576750D01*
Y516716D01*
X1127364Y513136D01*
X1126322Y511778D01*
X1125667Y510197D01*
X1125554Y509338D01*
X1104784D01*
Y508836D01*
X1104000D01*
X1101389Y508493D01*
X1098957Y507485D01*
X1096868Y505882D01*
X1095368Y504382D01*
X1093765Y502293D01*
X1092757Y499860D01*
X1092414Y497250D01*
Y487855D01*
Y478250D01*
X1092757Y475639D01*
X1093765Y473207D01*
X1095368Y471118D01*
X1097457Y469515D01*
X1099890Y468507D01*
X1102500Y468164D01*
X1103268D01*
Y466638D01*
X1112920D01*
Y456622D01*
X1112914Y456574D01*
Y444250D01*
X1113257Y441640D01*
X1114265Y439207D01*
X1115868Y437118D01*
X1116357Y436629D01*
X1113689Y433960D01*
X1112614Y433136D01*
X1111572Y431778D01*
X1110917Y430197D01*
X1110694Y428500D01*
Y362002D01*
X1091748Y343056D01*
X833466D01*
X828249Y348273D01*
X828953Y351811D01*
X829604Y352081D01*
X832215Y354085D01*
X834219Y356696D01*
X834376Y357077D01*
X837624D01*
X837781Y356696D01*
X839785Y354085D01*
X842396Y352081D01*
X845437Y350822D01*
X848700Y350392D01*
X851963Y350822D01*
X855004Y352081D01*
X857615Y354085D01*
X859619Y356696D01*
X860878Y359737D01*
X861308Y363000D01*
Y373000D01*
X860878Y376263D01*
X859619Y379304D01*
X857615Y381915D01*
X855004Y383919D01*
X851963Y385178D01*
X848700Y385608D01*
X845437Y385178D01*
X842396Y383919D01*
X839785Y381915D01*
X837781Y379304D01*
X837624Y378923D01*
X834376D01*
X834219Y379304D01*
X832215Y381915D01*
X832044Y384523D01*
X849386Y401864D01*
X850428Y403222D01*
X851083Y404803D01*
X851306Y406500D01*
Y417414D01*
X861534D01*
Y416912D01*
X891574D01*
X892164Y416322D01*
Y384000D01*
Y369000D01*
Y361500D01*
X892250Y360845D01*
Y351500D01*
X899554D01*
X900139Y351257D01*
X902750Y350914D01*
X914000D01*
X916610Y351257D01*
X919043Y352265D01*
X921132Y353868D01*
X922735Y355957D01*
X923743Y358390D01*
X924086Y361000D01*
Y372250D01*
Y384000D01*
X923743Y386610D01*
X922735Y389043D01*
X921132Y391132D01*
X919043Y392735D01*
X916610Y393743D01*
X914000Y394086D01*
X912336D01*
Y420500D01*
X911993Y423111D01*
X910985Y425543D01*
X909382Y427632D01*
X902382Y434632D01*
X900293Y436235D01*
X898830Y436841D01*
Y438088D01*
X861534D01*
Y437586D01*
X844676D01*
X844628Y437580D01*
X836398D01*
X835352Y440580D01*
X841934Y447162D01*
X865716D01*
Y447162D01*
X868073Y448715D01*
X870099Y448982D01*
X872289Y449889D01*
X874169Y451331D01*
X875611Y453211D01*
X876518Y455401D01*
X876828Y457750D01*
X876518Y460099D01*
X875611Y462289D01*
X874169Y464169D01*
X872289Y465611D01*
X870099Y466518D01*
X868073Y466785D01*
X865716Y468338D01*
X865716Y468338D01*
X865716Y468338D01*
X845056D01*
Y490165D01*
X847000Y491927D01*
X849940Y492217D01*
X852768Y493075D01*
X855374Y494468D01*
X857658Y496342D01*
X859532Y498626D01*
X860925Y501232D01*
X861783Y504059D01*
X862073Y507000D01*
X861783Y509940D01*
X860925Y512768D01*
X859532Y515374D01*
X857658Y517658D01*
X855374Y519532D01*
X852768Y520925D01*
X849940Y521783D01*
X847000Y522073D01*
X845056Y523834D01*
Y529534D01*
X925716Y610194D01*
X1013750D01*
X1015447Y610417D01*
X1017028Y611072D01*
X1018386Y612114D01*
X1024397Y618125D01*
X1027277Y616763D01*
D02*
G37*
G36*
X1188370Y509506D02*
X1189858Y508511D01*
X1191614Y508162D01*
X1200850D01*
X1224250Y484761D01*
X1223764Y483588D01*
X1209556D01*
Y483588D01*
X1208580D01*
Y483588D01*
X1192420D01*
Y479588D01*
X1182900D01*
X1170338Y492150D01*
Y508648D01*
X1170616Y508703D01*
X1171773Y509477D01*
X1175523Y513227D01*
X1176297Y514384D01*
X1176569Y515750D01*
X1176597Y515784D01*
X1182091D01*
X1188370Y509506D01*
D02*
G37*
G36*
X1665922Y457817D02*
X1666141Y456273D01*
X1666506Y454742D01*
X1667017Y453224D01*
X1667674Y451720D01*
X1668477Y450229D01*
X1669426Y448752D01*
X1670521Y447287D01*
X1671762Y445836D01*
X1673149Y444399D01*
X1653549Y444397D01*
X1654936Y445835D01*
X1656177Y447286D01*
X1657272Y448751D01*
X1658221Y450229D01*
X1659024Y451720D01*
X1659681Y453224D01*
X1660192Y454742D01*
X1660557Y456273D01*
X1660776Y457817D01*
X1660849Y459375D01*
X1665849Y459375D01*
X1665922Y457817D01*
D02*
G37*
G36*
X1749931Y734022D02*
Y448978D01*
X1743772Y442819D01*
X1732000D01*
X1730634Y442547D01*
X1729477Y441773D01*
X1707977Y420273D01*
X1707203Y419116D01*
X1706931Y417750D01*
Y372228D01*
X1703272Y368569D01*
X1292978D01*
X1272558Y388988D01*
X1273044Y390162D01*
X1432636D01*
X1434392Y390511D01*
X1435880Y391506D01*
X1437659Y393284D01*
X1447838D01*
Y409150D01*
X1447838Y409444D01*
Y410420D01*
X1447838Y410714D01*
Y426580D01*
X1443338D01*
Y429000D01*
X1442989Y430756D01*
X1441994Y432244D01*
X1428494Y445744D01*
X1427006Y446739D01*
X1425250Y447088D01*
X1394901D01*
X1390597Y451392D01*
X1391095Y452662D01*
X1443349D01*
X1460162Y435849D01*
Y426080D01*
X1455912D01*
Y410214D01*
X1455912Y409920D01*
Y408944D01*
X1455912Y408650D01*
Y392784D01*
X1459662D01*
Y384433D01*
X1458598Y382841D01*
X1458132Y380500D01*
X1458598Y378159D01*
X1459924Y376174D01*
X1461909Y374848D01*
X1464250Y374383D01*
X1466591Y374848D01*
X1468576Y376174D01*
X1469902Y378159D01*
X1470367Y380500D01*
X1469902Y382841D01*
X1468838Y384433D01*
Y392784D01*
X1473088D01*
Y408650D01*
X1473088Y408944D01*
Y409920D01*
X1473088Y410214D01*
Y426080D01*
X1469338D01*
Y437627D01*
X1469624Y437862D01*
X1470539Y438222D01*
X1481857Y426904D01*
X1481412Y425830D01*
X1481412D01*
Y409964D01*
X1481412Y409670D01*
Y408694D01*
X1481412Y408400D01*
Y392534D01*
X1485412D01*
Y383984D01*
X1485174Y383826D01*
X1483848Y381841D01*
X1483383Y379500D01*
X1483848Y377159D01*
X1485174Y375174D01*
X1487159Y373848D01*
X1489500Y373382D01*
X1491841Y373848D01*
X1493826Y375174D01*
X1495152Y377159D01*
X1495618Y379500D01*
X1495152Y381841D01*
X1494588Y382685D01*
Y392534D01*
X1498588D01*
Y408400D01*
X1498588Y408694D01*
Y409670D01*
X1498588Y409964D01*
Y425830D01*
X1494473D01*
X1494239Y427006D01*
X1493244Y428494D01*
X1417250Y504489D01*
X1417736Y505662D01*
X1428786D01*
X1429080Y505662D01*
X1430056D01*
X1430350Y505662D01*
X1446216D01*
Y509764D01*
X1467250D01*
Y506250D01*
X1483250D01*
Y509764D01*
X1513750D01*
Y508250D01*
X1525750D01*
Y508250D01*
X1526000D01*
Y508250D01*
X1538000D01*
Y509764D01*
X1588211D01*
X1588248Y509672D01*
X1588422Y508494D01*
X1586674Y507326D01*
X1585348Y505341D01*
X1584883Y503000D01*
X1585348Y500659D01*
X1586674Y498674D01*
X1588659Y497348D01*
X1591000Y496883D01*
X1591813Y497044D01*
X1592711Y496146D01*
X1592632Y495750D01*
X1593098Y493409D01*
X1594424Y491424D01*
X1596409Y490098D01*
X1598750Y489632D01*
X1601091Y490098D01*
X1603076Y491424D01*
X1604402Y493409D01*
X1604868Y495750D01*
X1604737Y496407D01*
X1605635Y497304D01*
X1606500Y497132D01*
X1608841Y497598D01*
X1610826Y498924D01*
X1612152Y500909D01*
X1612617Y503250D01*
X1612152Y505591D01*
X1610826Y507576D01*
X1609452Y508494D01*
X1609837Y509764D01*
X1625017D01*
Y506380D01*
X1621503D01*
Y490380D01*
X1637503D01*
Y492329D01*
X1645250D01*
Y491000D01*
X1648599D01*
Y484000D01*
X1650741D01*
Y454874D01*
X1649952Y454452D01*
X1646297Y451453D01*
X1643298Y447798D01*
X1641070Y443629D01*
X1639697Y439105D01*
X1639234Y434400D01*
X1639697Y429695D01*
X1641070Y425171D01*
X1643298Y421002D01*
X1646297Y417347D01*
X1649952Y414348D01*
X1654121Y412120D01*
X1658645Y410747D01*
X1663350Y410284D01*
X1668055Y410747D01*
X1672579Y412120D01*
X1676748Y414348D01*
X1680403Y417347D01*
X1683402Y421002D01*
X1685630Y425171D01*
X1687003Y429695D01*
X1687466Y434400D01*
X1687003Y439105D01*
X1685630Y443629D01*
X1683402Y447798D01*
X1680403Y451453D01*
X1676748Y454452D01*
X1675957Y454875D01*
Y484000D01*
X1676500D01*
Y510000D01*
X1676207D01*
Y512870D01*
X1676599D01*
Y525120D01*
Y551120D01*
X1677608Y551750D01*
X1678500D01*
Y564750D01*
Y588750D01*
X1677753D01*
X1676613Y589065D01*
Y601315D01*
Y627315D01*
X1676221D01*
Y631500D01*
X1676500D01*
Y657500D01*
X1676221D01*
Y685067D01*
X1676748Y685348D01*
X1680403Y688347D01*
X1683402Y692002D01*
X1685630Y696171D01*
X1687003Y700695D01*
X1687466Y705400D01*
X1687003Y710105D01*
X1685630Y714629D01*
X1683402Y718798D01*
X1680403Y722453D01*
X1677908Y724500D01*
X1648792D01*
X1646297Y722453D01*
X1643298Y718798D01*
X1641070Y714629D01*
X1639697Y710105D01*
X1639234Y705400D01*
X1639686Y700815D01*
X1648599Y691901D01*
Y686459D01*
X1649952Y685348D01*
X1651006Y684785D01*
Y657500D01*
X1648599D01*
Y650500D01*
X1645250D01*
Y649108D01*
X1635865D01*
Y649965D01*
X1619865D01*
Y633965D01*
X1620941D01*
X1621770Y632695D01*
X1621418Y630924D01*
X1621884Y628583D01*
X1623210Y626598D01*
X1625195Y625272D01*
X1627536Y624806D01*
X1629877Y625272D01*
X1631861Y626598D01*
X1633188Y628583D01*
X1633653Y630924D01*
X1633301Y632695D01*
X1634131Y633965D01*
X1635865D01*
Y640135D01*
X1645250D01*
Y638500D01*
X1648599D01*
Y631500D01*
X1651006D01*
Y627315D01*
X1650614D01*
Y601315D01*
Y589065D01*
X1649474Y588750D01*
X1648599D01*
Y587000D01*
X1625018D01*
X1623835Y584144D01*
X1623717Y583250D01*
X1599000D01*
Y582847D01*
X1567614D01*
X1567459Y583138D01*
X1564460Y586792D01*
X1560805Y589791D01*
X1556636Y592020D01*
X1552112Y593392D01*
X1547407Y593856D01*
X1542702Y593392D01*
X1538178Y592020D01*
X1534009Y589791D01*
X1530354Y586792D01*
X1527355Y583138D01*
X1526805Y582108D01*
X1488500D01*
Y582500D01*
X1462500D01*
Y582108D01*
X1446500D01*
Y583500D01*
X1415500D01*
Y569500D01*
X1398500D01*
Y568290D01*
X1394198D01*
Y569746D01*
X1357500D01*
Y542500D01*
X1429500D01*
Y555500D01*
X1446500D01*
Y556892D01*
X1462500D01*
Y544250D01*
X1464002D01*
Y542500D01*
X1471014D01*
Y522250D01*
X1467250D01*
Y518736D01*
X1446216D01*
Y522838D01*
X1430350D01*
X1430056Y522838D01*
X1429080D01*
X1428786Y522838D01*
X1412920D01*
Y520220D01*
X1411650Y519695D01*
X1394588Y536756D01*
X1393133Y537729D01*
X1391416Y538070D01*
X1391416Y538070D01*
X1387198D01*
Y540648D01*
X1361198D01*
Y526520D01*
Y515598D01*
X1387198D01*
Y518074D01*
X1390688D01*
X1445722Y463039D01*
X1445362Y462123D01*
X1445127Y461838D01*
X1392401D01*
X1391494Y462744D01*
X1390006Y463739D01*
X1388250Y464088D01*
X1387198D01*
Y474436D01*
Y485436D01*
Y499564D01*
X1361198D01*
Y485436D01*
Y474436D01*
Y463436D01*
Y452436D01*
Y441436D01*
Y430436D01*
Y419436D01*
X1387198D01*
Y430436D01*
Y440017D01*
X1388468Y440543D01*
X1389756Y439256D01*
X1391244Y438261D01*
X1393000Y437912D01*
X1423349D01*
X1433411Y427850D01*
X1432885Y426580D01*
X1430662D01*
Y410714D01*
X1430662Y410420D01*
Y409444D01*
X1430662Y409150D01*
Y399338D01*
X1175301D01*
X1175047Y400616D01*
X1174273Y401773D01*
X1159773Y416273D01*
X1158616Y417047D01*
X1157250Y417319D01*
X1136125D01*
X1134759Y417047D01*
X1134020Y416553D01*
X1132758Y417107D01*
X1132750Y417116D01*
Y429354D01*
X1144834D01*
X1145483Y428382D01*
X1146753Y427533D01*
X1148250Y427235D01*
X1157750D01*
X1159247Y427533D01*
X1160517Y428382D01*
X1161365Y429651D01*
X1161663Y431149D01*
Y443696D01*
X1161365Y445194D01*
X1160517Y446464D01*
X1159247Y447312D01*
X1157750Y447610D01*
X1148250D01*
X1146753Y447312D01*
X1145483Y446464D01*
X1144834Y445492D01*
X1133170D01*
X1132750Y445911D01*
Y459750D01*
X1134460D01*
X1134977Y458977D01*
X1136134Y458203D01*
X1137500Y457931D01*
X1152000D01*
X1153366Y458203D01*
X1154523Y458977D01*
X1155297Y460134D01*
X1155569Y461500D01*
Y479772D01*
X1157756Y481959D01*
X1159394Y482117D01*
X1184756Y456756D01*
X1186244Y455761D01*
X1188000Y455412D01*
X1192420D01*
Y451412D01*
X1208580D01*
Y451412D01*
X1209556D01*
Y451412D01*
X1225716D01*
Y454514D01*
X1241000D01*
Y444060D01*
X1229000D01*
Y445000D01*
X1213000D01*
X1213000Y445000D01*
X1212250Y445250D01*
Y445250D01*
X1211834Y445250D01*
X1193330D01*
X1192519Y446464D01*
X1191249Y447312D01*
X1189752Y447610D01*
X1180252D01*
X1178755Y447312D01*
X1177485Y446464D01*
X1176637Y445194D01*
X1176339Y443696D01*
Y431149D01*
X1176637Y429651D01*
X1177485Y428382D01*
X1178755Y427533D01*
X1180252Y427235D01*
X1189752D01*
X1191249Y427533D01*
X1192519Y428382D01*
X1193099Y429250D01*
X1212250D01*
X1212250Y429250D01*
X1213000Y429000D01*
Y429000D01*
X1213416Y429000D01*
X1229000D01*
Y429940D01*
X1253630D01*
X1255457Y430180D01*
X1256075Y430436D01*
X1267000D01*
Y441436D01*
Y452436D01*
Y463436D01*
Y474436D01*
Y485436D01*
Y499564D01*
X1241000D01*
Y497088D01*
X1234787D01*
X1210338Y521537D01*
Y531944D01*
X1210338D01*
Y532920D01*
X1210338D01*
Y549080D01*
X1209335D01*
X1209259Y549165D01*
X1208773Y550350D01*
X1209297Y551134D01*
X1209569Y552500D01*
Y616022D01*
X1227728Y634181D01*
X1281500D01*
X1282866Y634453D01*
X1284023Y635227D01*
X1297728Y648931D01*
X1455000D01*
X1456366Y649203D01*
X1457523Y649977D01*
X1593978Y786431D01*
X1697522D01*
X1749931Y734022D01*
D02*
G37*
G36*
X1775260Y1227444D02*
Y379000D01*
X1730500D01*
X1718525Y407025D01*
X1743440Y433642D01*
X1745250D01*
X1747396Y434069D01*
X1749215Y435285D01*
X1757465Y443535D01*
X1758681Y445354D01*
X1759108Y447500D01*
Y735500D01*
X1758681Y737646D01*
X1757465Y739465D01*
X1702965Y793965D01*
X1701146Y795181D01*
X1699000Y795608D01*
X1592500D01*
X1590354Y795181D01*
X1588535Y793965D01*
X1452677Y658108D01*
X1296250D01*
X1294104Y657681D01*
X1292285Y656465D01*
X1290836Y655017D01*
X1287836Y656259D01*
Y661250D01*
X1287493Y663860D01*
X1286485Y666293D01*
X1284882Y668382D01*
X1282793Y669985D01*
X1280361Y670993D01*
X1277750Y671336D01*
X1275851Y671086D01*
X1241500D01*
X1241500Y671086D01*
X1241500Y671086D01*
X1225750D01*
X1225095Y671000D01*
X1215750D01*
Y661655D01*
X1215664Y661000D01*
X1215680Y660875D01*
X1215664Y660750D01*
Y648750D01*
X1216007Y646140D01*
X1217015Y643707D01*
X1218618Y641618D01*
X1218833Y641453D01*
X1219029Y638460D01*
X1210578Y630008D01*
X1207806Y631156D01*
Y735865D01*
X1240236Y768295D01*
X1241278Y769652D01*
X1241933Y771234D01*
X1242156Y772930D01*
Y791084D01*
X1242874Y791468D01*
X1245158Y793342D01*
X1247032Y795626D01*
X1248425Y798232D01*
X1249283Y801059D01*
X1249573Y804000D01*
X1249283Y806941D01*
X1248976Y807954D01*
X1255466Y814444D01*
X1264258D01*
X1265272Y812327D01*
X1265416Y811444D01*
X1263718Y809374D01*
X1262325Y806768D01*
X1261467Y803941D01*
X1261177Y801000D01*
X1261467Y798059D01*
X1262325Y795232D01*
X1263718Y792626D01*
X1265592Y790342D01*
X1267876Y788468D01*
X1270482Y787075D01*
X1273309Y786217D01*
X1276250Y785927D01*
X1279191Y786217D01*
X1282018Y787075D01*
X1284624Y788468D01*
X1286908Y790342D01*
X1288782Y792626D01*
X1290175Y795232D01*
X1291033Y798059D01*
X1291095Y798694D01*
X1464250D01*
X1465947Y798917D01*
X1467528Y799572D01*
X1468886Y800614D01*
X1493136Y824864D01*
X1494178Y826222D01*
X1494833Y827803D01*
X1495056Y829500D01*
Y856750D01*
X1494833Y858447D01*
X1494178Y860028D01*
X1493136Y861386D01*
X1486798Y867723D01*
X1486518Y869849D01*
X1485612Y872039D01*
X1484169Y873919D01*
X1482289Y875361D01*
X1480099Y876268D01*
X1477750Y876578D01*
X1475500Y876281D01*
X1475389Y876277D01*
X1472500Y878314D01*
Y879250D01*
X1448500D01*
Y858250D01*
X1448500Y855250D01*
X1445500Y855250D01*
X1424500D01*
Y855250D01*
X1422500Y855500D01*
Y855500D01*
X1421604Y855500D01*
X1402500D01*
Y853336D01*
X1397221D01*
X1396532Y854624D01*
X1394658Y856908D01*
X1392374Y858782D01*
X1389768Y860175D01*
X1386940Y861033D01*
X1384000Y861323D01*
X1381060Y861033D01*
X1378232Y860175D01*
X1375626Y858782D01*
X1373342Y856908D01*
X1371468Y854624D01*
X1370779Y853336D01*
X1367854D01*
X1363538Y857652D01*
Y865580D01*
X1351474D01*
X1351426Y865586D01*
X1351378Y865580D01*
X1341362D01*
Y875080D01*
X1300662D01*
Y874225D01*
X1298500Y872393D01*
X1297662Y872100D01*
X1296000Y872319D01*
X1293912Y872044D01*
X1291965Y871238D01*
X1290294Y869956D01*
X1289012Y868285D01*
X1288206Y866338D01*
X1287931Y864250D01*
X1288206Y862162D01*
X1289012Y860216D01*
X1290294Y858544D01*
X1291965Y857262D01*
X1293627Y856574D01*
X1293905Y855646D01*
X1293885Y853434D01*
X1293711Y853361D01*
X1291831Y851919D01*
X1290388Y850039D01*
X1289482Y847850D01*
X1289172Y845500D01*
X1289482Y843150D01*
X1290388Y840961D01*
X1291831Y839081D01*
X1293711Y837638D01*
X1295901Y836732D01*
X1298250Y836422D01*
X1300600Y836732D01*
X1302789Y837638D01*
X1302978Y837784D01*
X1317138D01*
Y835768D01*
X1318196D01*
X1320174Y833512D01*
X1320172Y833500D01*
X1320482Y831151D01*
X1320728Y830556D01*
X1318874Y827556D01*
X1252750D01*
X1251053Y827333D01*
X1250127Y826949D01*
X1249472Y826678D01*
X1248114Y825636D01*
X1240356Y817878D01*
X1240268Y817925D01*
X1237440Y818783D01*
X1235945Y818930D01*
X1234827Y822055D01*
X1308966Y896194D01*
X1471000D01*
X1472697Y896417D01*
X1474278Y897072D01*
X1475636Y898114D01*
X1500636Y923114D01*
X1501678Y924472D01*
X1502333Y926053D01*
X1502556Y927750D01*
Y1003322D01*
X1502333Y1005019D01*
X1501678Y1006600D01*
X1500636Y1007958D01*
X1479106Y1029488D01*
X1479494Y1032436D01*
X1479064Y1035700D01*
X1477805Y1038740D01*
X1475801Y1041351D01*
X1473190Y1043355D01*
X1472809Y1043513D01*
Y1046760D01*
X1473190Y1046918D01*
X1475801Y1048921D01*
X1477805Y1051533D01*
X1479064Y1054573D01*
X1479494Y1057836D01*
X1479064Y1061100D01*
X1477805Y1064140D01*
X1475801Y1066751D01*
X1473190Y1068755D01*
X1472809Y1068913D01*
Y1072160D01*
X1473190Y1072318D01*
X1475801Y1074321D01*
X1477805Y1076933D01*
X1479064Y1079973D01*
X1479494Y1083236D01*
X1479064Y1086500D01*
X1477805Y1089540D01*
X1475801Y1092151D01*
X1473190Y1094155D01*
X1472809Y1094313D01*
Y1097560D01*
X1473190Y1097718D01*
X1475801Y1099721D01*
X1477805Y1102333D01*
X1479064Y1105373D01*
X1479494Y1108636D01*
X1479064Y1111900D01*
X1477805Y1114940D01*
X1475801Y1117551D01*
X1474518Y1118536D01*
X1475536Y1121536D01*
X1479386D01*
Y1146536D01*
X1454386D01*
Y1122665D01*
X1442466D01*
Y1143224D01*
X1405170D01*
Y1142534D01*
X1403500Y1141069D01*
X1401412Y1140794D01*
X1399465Y1139988D01*
X1399000Y1139631D01*
X1398535Y1139988D01*
X1396588Y1140794D01*
X1394500Y1141069D01*
X1394174Y1141355D01*
Y1143216D01*
X1369950D01*
Y1133564D01*
X1347774D01*
Y1113404D01*
X1371998D01*
Y1123056D01*
X1394174D01*
Y1124645D01*
X1394500Y1124931D01*
X1396588Y1125206D01*
X1398535Y1126012D01*
X1399000Y1126369D01*
X1399465Y1126012D01*
X1401412Y1125206D01*
X1403500Y1124931D01*
X1405170Y1123466D01*
Y1122048D01*
X1422306D01*
Y1110224D01*
X1405170D01*
Y1109253D01*
X1403250Y1107569D01*
X1401162Y1107294D01*
X1399782Y1106723D01*
X1398784Y1107488D01*
X1396838Y1108294D01*
X1394750Y1108569D01*
X1394174Y1109074D01*
Y1110216D01*
X1369950D01*
Y1100564D01*
X1347774D01*
Y1080404D01*
X1371998D01*
Y1090056D01*
X1394174D01*
Y1091926D01*
X1394750Y1092431D01*
X1396838Y1092706D01*
X1398218Y1093277D01*
X1399216Y1092512D01*
X1401162Y1091706D01*
X1403250Y1091431D01*
X1405170Y1089747D01*
Y1089048D01*
X1422306D01*
Y1077770D01*
X1405170D01*
Y1077253D01*
X1403250Y1075569D01*
X1401162Y1075294D01*
X1399216Y1074488D01*
X1398549Y1073977D01*
X1398535Y1073988D01*
X1396588Y1074794D01*
X1394500Y1075069D01*
X1394174Y1075355D01*
Y1077216D01*
X1369950D01*
Y1067564D01*
X1347774D01*
Y1047404D01*
X1371998D01*
Y1057056D01*
X1394174D01*
Y1058645D01*
X1394500Y1058931D01*
X1396588Y1059206D01*
X1398535Y1060012D01*
X1399201Y1060523D01*
X1399216Y1060512D01*
X1401162Y1059706D01*
X1403250Y1059431D01*
X1405170Y1057747D01*
Y1056594D01*
X1422306D01*
Y1045042D01*
X1405170D01*
Y1043814D01*
X1403750Y1042569D01*
X1401662Y1042294D01*
X1399716Y1041488D01*
X1398044Y1040206D01*
X1397975Y1040116D01*
X1396338Y1040794D01*
X1394250Y1041069D01*
X1394174Y1041136D01*
Y1043216D01*
X1369950D01*
Y1033564D01*
X1347774D01*
Y1013404D01*
X1371998D01*
Y1023056D01*
X1394174D01*
Y1024864D01*
X1394250Y1024931D01*
X1396338Y1025206D01*
X1398284Y1026012D01*
X1399956Y1027294D01*
X1400025Y1027384D01*
X1401662Y1026706D01*
X1403750Y1026431D01*
X1405170Y1025186D01*
Y1023867D01*
X1422306D01*
Y1012315D01*
X1405170D01*
Y1011095D01*
X1404000Y1010069D01*
X1401912Y1009794D01*
X1399966Y1008988D01*
X1398294Y1007706D01*
X1397279Y1006382D01*
X1396789Y1006461D01*
X1396588Y1006544D01*
X1394899Y1006767D01*
X1394483Y1006834D01*
X1394174Y1007105D01*
Y1009216D01*
X1369950D01*
Y999564D01*
X1347774D01*
Y979404D01*
X1371998D01*
Y989056D01*
X1394174D01*
Y990395D01*
X1394500Y990681D01*
X1396588Y990956D01*
X1398535Y991762D01*
X1400206Y993044D01*
X1401221Y994368D01*
X1401711Y994289D01*
X1401912Y994206D01*
X1403602Y993984D01*
X1404017Y993916D01*
X1405170Y992905D01*
Y991139D01*
X1422306D01*
Y979588D01*
X1405170D01*
X1405170Y979588D01*
X1402662Y979044D01*
X1402434Y978950D01*
X1402434Y978950D01*
X1402346Y978913D01*
X1400715Y978238D01*
X1399044Y976956D01*
X1397762Y975285D01*
X1396956Y973338D01*
X1394174Y974063D01*
Y975216D01*
X1369950D01*
Y965564D01*
X1347774D01*
Y945404D01*
X1371998D01*
Y955056D01*
X1394174D01*
Y957237D01*
X1395838Y957456D01*
X1397784Y958262D01*
X1399456Y959544D01*
X1400162Y960465D01*
X1403653Y961385D01*
X1405170Y960194D01*
Y958412D01*
X1422306D01*
Y942048D01*
X1442466D01*
Y958412D01*
Y962607D01*
X1454250D01*
X1456696Y963094D01*
X1458770Y964480D01*
X1463734Y969444D01*
X1466886Y969028D01*
X1469834Y969417D01*
X1478694Y960557D01*
Y937466D01*
X1463284Y922056D01*
X1303500D01*
X1301803Y921833D01*
X1300222Y921178D01*
X1298864Y920136D01*
X1227360Y848631D01*
X1224588Y849779D01*
Y862420D01*
Y882580D01*
X1222626D01*
X1221819Y883500D01*
X1221544Y885588D01*
X1220738Y887534D01*
X1219456Y889206D01*
X1218956Y891544D01*
X1220238Y893215D01*
X1221044Y895162D01*
X1221319Y897250D01*
X1222564Y898670D01*
X1224088D01*
Y915806D01*
Y935966D01*
X1224088D01*
X1222566Y938336D01*
X1222268Y940600D01*
X1221361Y942789D01*
X1219919Y944669D01*
X1218039Y946111D01*
X1215850Y947018D01*
X1213500Y947328D01*
X1211151Y947018D01*
X1208961Y946111D01*
X1207081Y944669D01*
X1205639Y942789D01*
X1204732Y940600D01*
X1204434Y938336D01*
X1202912Y935966D01*
X1202912Y935966D01*
X1202912Y935966D01*
Y915806D01*
Y898670D01*
X1203936D01*
X1205181Y897250D01*
X1205456Y895162D01*
X1206262Y893215D01*
X1207544Y891544D01*
X1208044Y889206D01*
X1206762Y887534D01*
X1205956Y885588D01*
X1205681Y883500D01*
X1204874Y882580D01*
X1203412D01*
Y862420D01*
Y845284D01*
X1203412D01*
X1204922Y842750D01*
X1205232Y840400D01*
X1206139Y838211D01*
X1207581Y836331D01*
X1209412Y834926D01*
X1209462Y834884D01*
X1210104Y831375D01*
X1200556Y821828D01*
X1197556Y823070D01*
Y979284D01*
X1212486Y994214D01*
X1213528Y995572D01*
X1214183Y997153D01*
X1214406Y998850D01*
Y1108948D01*
X1214183Y1110645D01*
X1213528Y1112226D01*
X1212486Y1113584D01*
X1175692Y1150378D01*
Y1159628D01*
X1176315Y1160282D01*
X1179567Y1160911D01*
X1204364Y1136114D01*
X1205722Y1135072D01*
X1207303Y1134417D01*
X1209000Y1134194D01*
X1305750D01*
X1307447Y1134417D01*
X1309028Y1135072D01*
X1310386Y1136114D01*
X1350466Y1176194D01*
X1466420D01*
Y1172162D01*
X1503716D01*
Y1177194D01*
X1510510D01*
X1512211Y1175889D01*
X1514400Y1174982D01*
X1516750Y1174672D01*
X1519099Y1174982D01*
X1520170Y1175425D01*
X1522753Y1174069D01*
X1523170Y1173551D01*
Y1173162D01*
X1550694D01*
X1553435Y1171000D01*
Y1075580D01*
X1550112D01*
Y1085080D01*
X1525888D01*
Y1081556D01*
X1522338D01*
Y1084080D01*
X1501162D01*
Y1080556D01*
X1497272D01*
X1497034Y1080738D01*
X1495088Y1081544D01*
X1493000Y1081819D01*
X1490912Y1081544D01*
X1488965Y1080738D01*
X1487294Y1079456D01*
X1486012Y1077785D01*
X1485206Y1075838D01*
X1484931Y1073750D01*
X1485206Y1071662D01*
X1486012Y1069715D01*
X1487294Y1068044D01*
X1488965Y1066762D01*
X1490912Y1065956D01*
X1493000Y1065681D01*
X1495088Y1065956D01*
X1497034Y1066762D01*
X1497923Y1067444D01*
X1501162D01*
Y1063920D01*
Y1046784D01*
X1522338D01*
Y1046784D01*
X1523306Y1046777D01*
X1525888Y1045768D01*
D01*
X1528331Y1044424D01*
X1528922Y1043750D01*
X1529232Y1041401D01*
X1530139Y1039211D01*
X1531581Y1037331D01*
X1533461Y1035889D01*
X1535650Y1034982D01*
X1538000Y1034672D01*
X1540349Y1034982D01*
X1542539Y1035889D01*
X1544419Y1037331D01*
X1545861Y1039211D01*
X1546768Y1041401D01*
X1547078Y1043750D01*
X1548847Y1045768D01*
X1550112D01*
X1552611Y1044559D01*
Y1014554D01*
X1552325Y1014018D01*
X1551467Y1011190D01*
X1551177Y1008250D01*
X1551467Y1005310D01*
X1552325Y1002482D01*
X1553718Y999876D01*
X1555592Y997592D01*
X1557876Y995718D01*
X1560482Y994325D01*
X1563309Y993467D01*
X1566250Y993177D01*
X1569191Y993467D01*
X1572018Y994325D01*
X1574624Y995718D01*
X1576108Y996935D01*
X1577002D01*
X1579200Y995000D01*
X1579200Y993935D01*
Y955000D01*
X1583714D01*
X1583956Y953162D01*
X1584762Y951216D01*
X1586044Y949544D01*
X1587715Y948262D01*
X1589662Y947456D01*
X1591750Y947181D01*
X1593838Y947456D01*
X1595784Y948262D01*
X1597456Y949544D01*
X1598738Y951216D01*
X1599544Y953162D01*
X1599786Y955000D01*
X1604200Y955000D01*
X1608712Y955000D01*
X1608931Y954750D01*
X1609206Y952662D01*
X1610012Y950715D01*
X1611294Y949044D01*
X1612966Y947762D01*
X1614912Y946956D01*
X1617000Y946681D01*
X1619088Y946956D01*
X1621035Y947762D01*
X1622706Y949044D01*
X1623988Y950715D01*
X1624794Y952662D01*
X1625069Y954750D01*
X1625288Y955000D01*
X1629600Y955000D01*
X1632600Y955000D01*
X1655000D01*
Y994500D01*
X1656500D01*
Y1014500D01*
X1636500D01*
Y1012065D01*
X1580768D01*
X1580175Y1014018D01*
X1578782Y1016624D01*
X1577268Y1018469D01*
X1578761Y1020823D01*
X1578932Y1021000D01*
X1581166Y1021000D01*
X1600800D01*
X1603400Y1021000D01*
X1606400Y1021000D01*
X1626200D01*
X1628800Y1021000D01*
X1631800Y1021000D01*
X1651600D01*
X1654200Y1021000D01*
X1657200Y1021000D01*
X1679600D01*
Y1061000D01*
X1657200D01*
X1654600Y1061000D01*
X1651600Y1061000D01*
X1631800D01*
X1629200Y1061000D01*
X1626200Y1061000D01*
X1606400D01*
X1603800Y1061000D01*
X1600800Y1061000D01*
X1578400D01*
Y1023790D01*
X1578400Y1021564D01*
X1575936Y1019705D01*
X1574624Y1020782D01*
X1572018Y1022175D01*
X1569191Y1023033D01*
X1567741Y1023176D01*
Y1055420D01*
X1572288D01*
Y1075580D01*
X1568565D01*
Y1167867D01*
X1575628Y1174930D01*
X1578400Y1173782D01*
Y1145000D01*
X1580320D01*
X1582497Y1142000D01*
X1582431Y1141500D01*
X1582706Y1139412D01*
X1583512Y1137466D01*
X1584794Y1135794D01*
X1586465Y1134512D01*
X1588412Y1133706D01*
X1590500Y1133431D01*
X1592588Y1133706D01*
X1594534Y1134512D01*
X1596206Y1135794D01*
X1597488Y1137466D01*
X1598294Y1139412D01*
X1598569Y1141500D01*
X1598503Y1142000D01*
X1600679Y1145000D01*
X1603400Y1145000D01*
X1606359Y1145000D01*
X1608313Y1142000D01*
X1608181Y1141000D01*
X1608456Y1138912D01*
X1609262Y1136965D01*
X1610544Y1135294D01*
X1612216Y1134012D01*
X1614162Y1133206D01*
X1616250Y1132931D01*
X1618338Y1133206D01*
X1620284Y1134012D01*
X1621956Y1135294D01*
X1623238Y1136965D01*
X1624044Y1138912D01*
X1624319Y1141000D01*
X1624187Y1142000D01*
X1626141Y1145000D01*
X1628800Y1145000D01*
X1631800Y1145000D01*
X1654200D01*
Y1185000D01*
X1655250Y1187250D01*
X1655250D01*
Y1207250D01*
X1635250D01*
Y1204815D01*
X1591146D01*
X1589958Y1205307D01*
X1588000Y1205565D01*
X1586042Y1205307D01*
X1584218Y1204551D01*
X1582651Y1203349D01*
X1582651Y1203349D01*
X1573504Y1194202D01*
X1570063Y1195004D01*
X1569169Y1196169D01*
X1567289Y1197611D01*
X1565099Y1198518D01*
X1562750Y1198828D01*
X1560401Y1198518D01*
X1558211Y1197611D01*
X1556331Y1196169D01*
X1554926Y1194338D01*
X1543500D01*
Y1213750D01*
X1523500D01*
Y1194338D01*
X1523170D01*
Y1193949D01*
X1522753Y1193431D01*
X1520170Y1192075D01*
X1519099Y1192518D01*
X1516750Y1192828D01*
X1514400Y1192518D01*
X1512211Y1191611D01*
X1510510Y1190306D01*
X1503716D01*
Y1193338D01*
X1466420D01*
Y1189306D01*
X1347750D01*
X1346053Y1189083D01*
X1344472Y1188428D01*
X1343114Y1187386D01*
X1320828Y1165099D01*
X1318056Y1166247D01*
Y1183534D01*
X1349830Y1215308D01*
X1374912D01*
Y1211784D01*
X1396088D01*
Y1211932D01*
X1397688Y1213012D01*
X1399088Y1213545D01*
X1401020Y1212745D01*
X1403500Y1212418D01*
X1405980Y1212745D01*
X1408291Y1213702D01*
X1410275Y1215225D01*
X1411798Y1217209D01*
X1412755Y1219520D01*
X1413082Y1222000D01*
X1412755Y1224480D01*
X1411798Y1226791D01*
X1410275Y1228775D01*
X1408291Y1230298D01*
X1405980Y1231255D01*
X1403500Y1231582D01*
X1401020Y1231255D01*
X1399088Y1230455D01*
X1397688Y1230988D01*
X1396088Y1232068D01*
Y1235944D01*
X1404995D01*
X1405081Y1235831D01*
X1406961Y1234389D01*
X1409151Y1233482D01*
X1411500Y1233172D01*
X1413849Y1233482D01*
X1416039Y1234389D01*
X1417919Y1235831D01*
X1419361Y1237711D01*
X1420268Y1239901D01*
X1420578Y1242250D01*
X1420268Y1244600D01*
X1419361Y1246789D01*
X1417919Y1248669D01*
X1416039Y1250111D01*
X1413849Y1251018D01*
X1411500Y1251328D01*
X1409151Y1251018D01*
X1406961Y1250111D01*
X1405586Y1249056D01*
X1396088D01*
Y1249080D01*
X1390150D01*
X1389833Y1249676D01*
X1389364Y1252080D01*
X1390669Y1253081D01*
X1392111Y1254961D01*
X1393018Y1257150D01*
X1393328Y1259500D01*
X1393018Y1261850D01*
X1392556Y1262966D01*
X1394039Y1265439D01*
X1394513Y1265784D01*
X1775260Y1227444D01*
D02*
G37*
G36*
X1375421Y1267706D02*
X1376784Y1264554D01*
X1376389Y1264039D01*
X1375482Y1261850D01*
X1375172Y1259500D01*
X1375482Y1257150D01*
X1376389Y1254961D01*
X1377831Y1253081D01*
X1379136Y1252080D01*
X1378667Y1249676D01*
X1378350Y1249080D01*
X1374912D01*
Y1228420D01*
X1365268D01*
X1362582Y1231000D01*
X1362255Y1233480D01*
X1361298Y1235791D01*
X1359775Y1237775D01*
X1357791Y1239298D01*
X1355480Y1240256D01*
X1353000Y1240582D01*
X1350520Y1240256D01*
X1348209Y1239298D01*
X1346225Y1237775D01*
X1344702Y1235791D01*
X1343745Y1233480D01*
X1343418Y1231000D01*
X1343745Y1228520D01*
X1343993Y1227921D01*
X1343836Y1227542D01*
X1342478Y1226500D01*
X1310488Y1194509D01*
X1307716Y1195657D01*
Y1202088D01*
X1309055Y1204533D01*
X1311386Y1206864D01*
X1312428Y1208222D01*
X1313083Y1209803D01*
X1313212Y1210784D01*
X1317338D01*
Y1219815D01*
X1320338Y1221820D01*
X1320520Y1221745D01*
X1323000Y1221418D01*
X1325480Y1221745D01*
X1327791Y1222702D01*
X1329775Y1224225D01*
X1331298Y1226209D01*
X1332256Y1228520D01*
X1332582Y1231000D01*
X1332326Y1232946D01*
X1332599Y1232982D01*
X1334789Y1233888D01*
X1336669Y1235331D01*
X1338111Y1237211D01*
X1339018Y1239400D01*
X1339328Y1241750D01*
X1339018Y1244100D01*
X1338111Y1246289D01*
X1336669Y1248169D01*
X1334789Y1249611D01*
X1332599Y1250518D01*
X1330250Y1250828D01*
X1327901Y1250518D01*
X1325711Y1249611D01*
X1323831Y1248169D01*
X1323745Y1248056D01*
X1317338D01*
Y1248080D01*
X1296162D01*
Y1227920D01*
Y1213806D01*
X1273000D01*
X1271303Y1213583D01*
X1269722Y1212928D01*
X1268364Y1211886D01*
X1263114Y1206636D01*
X1262072Y1205278D01*
X1261417Y1203697D01*
X1261206Y1202088D01*
X1244806D01*
Y1180912D01*
X1255464D01*
X1258172Y1178500D01*
X1258292Y1177588D01*
X1256183Y1174588D01*
X1245056D01*
Y1153412D01*
X1258467D01*
X1258732Y1151401D01*
X1259185Y1150306D01*
X1257852Y1147744D01*
X1257319Y1147306D01*
X1211716D01*
X1187887Y1171135D01*
X1187794Y1171838D01*
X1186988Y1173784D01*
X1185706Y1175456D01*
X1184035Y1176738D01*
X1182088Y1177544D01*
X1180000Y1177819D01*
X1178692Y1177647D01*
X1176614Y1178905D01*
X1175692Y1179872D01*
Y1224162D01*
X1179216D01*
Y1245338D01*
X1178830D01*
Y1268436D01*
X1169178D01*
Y1286238D01*
X1171403Y1288250D01*
X1375421Y1267706D01*
D02*
G37*
G36*
X1666352Y493931D02*
X1666246Y493630D01*
X1666153Y493130D01*
X1666072Y492430D01*
X1665948Y490430D01*
X1665849Y484030D01*
X1660849D01*
X1660531Y494030D01*
X1666470D01*
X1666352Y493931D01*
D02*
G37*
G36*
X1666470Y499969D02*
X1660531D01*
X1660638Y500070D01*
X1660735Y500369D01*
X1660820Y500869D01*
X1660894Y501570D01*
X1661048Y504869D01*
X1661099Y509969D01*
X1666099D01*
X1666470Y499969D01*
D02*
G37*
G36*
X1018912Y1240806D02*
Y1223670D01*
X1028758D01*
X1041592Y1210836D01*
Y1202500D01*
X1042022Y1199237D01*
X1043281Y1196196D01*
X1045285Y1193585D01*
X1047896Y1191581D01*
X1050937Y1190322D01*
X1054200Y1189892D01*
X1057463Y1190322D01*
X1060504Y1191581D01*
X1063115Y1193585D01*
X1065119Y1196196D01*
X1065276Y1196577D01*
X1068524D01*
X1068681Y1196196D01*
X1070685Y1193585D01*
X1073296Y1191581D01*
X1076337Y1190322D01*
X1079600Y1189892D01*
X1082694Y1190299D01*
X1083490Y1190267D01*
X1085694Y1188794D01*
Y1184000D01*
X1085917Y1182303D01*
X1086572Y1180722D01*
X1087614Y1179364D01*
X1116444Y1150534D01*
Y1076847D01*
X1116012Y1076284D01*
X1115206Y1074338D01*
X1114931Y1072250D01*
X1115206Y1070162D01*
X1116012Y1068215D01*
X1117294Y1066544D01*
X1118966Y1065262D01*
X1120912Y1064456D01*
X1123000Y1064181D01*
X1125088Y1064456D01*
X1127035Y1065262D01*
X1128706Y1066544D01*
X1129988Y1068215D01*
X1130794Y1070162D01*
X1131069Y1072250D01*
X1130794Y1074338D01*
X1129988Y1076284D01*
X1129556Y1076847D01*
Y1153250D01*
X1129333Y1154947D01*
X1128678Y1156528D01*
X1127636Y1157886D01*
X1099395Y1186127D01*
X1099530Y1188090D01*
X1100731Y1189263D01*
X1102129Y1190270D01*
X1105000Y1189892D01*
X1108263Y1190322D01*
X1108444Y1190397D01*
X1109201Y1190234D01*
X1111613Y1188462D01*
X1111667Y1188053D01*
X1112322Y1186472D01*
X1113364Y1185114D01*
X1194944Y1103534D01*
Y1037508D01*
X1194331Y1037009D01*
X1191944Y1036266D01*
X1190605Y1037605D01*
X1188951Y1038710D01*
X1187000Y1039098D01*
X1116000D01*
X1114251Y1038750D01*
X1110250D01*
Y1027791D01*
X1095264Y1012804D01*
X1095250Y1012806D01*
X1081642D01*
X1079763Y1013763D01*
X1078806Y1015642D01*
Y1029250D01*
X1078583Y1030947D01*
X1077928Y1032528D01*
X1076886Y1033886D01*
X1075528Y1034928D01*
X1073947Y1035583D01*
X1072250Y1035806D01*
X1070553Y1035583D01*
X1069750Y1035250D01*
X1068947Y1035583D01*
X1067250Y1035806D01*
X1065553Y1035583D01*
X1064750Y1035250D01*
X1063947Y1035583D01*
X1062250Y1035806D01*
X1060553Y1035583D01*
X1059750Y1035250D01*
X1058947Y1035583D01*
X1057566Y1035764D01*
X1057134Y1035943D01*
X1054998Y1038463D01*
X1055069Y1039000D01*
X1054794Y1041088D01*
X1053988Y1043035D01*
X1052706Y1044706D01*
X1051034Y1045988D01*
X1049088Y1046794D01*
X1047000Y1047069D01*
X1044912Y1046794D01*
X1042965Y1045988D01*
X1041294Y1044706D01*
X1040012Y1043035D01*
X1039206Y1041088D01*
X1038931Y1039000D01*
X1038983Y1038604D01*
X1038164Y1037281D01*
X1036802Y1035853D01*
X1036460Y1035702D01*
X1035553Y1035583D01*
X1034750Y1035250D01*
X1033947Y1035583D01*
X1032250Y1035806D01*
X1031643Y1035726D01*
X1029889Y1036868D01*
X1029389Y1040098D01*
X1064291Y1075000D01*
X1082500D01*
Y1095000D01*
X1082500D01*
Y1096000D01*
X1082500D01*
Y1116000D01*
X1082500D01*
Y1116500D01*
X1082500D01*
Y1141500D01*
X1082098D01*
Y1144833D01*
X1082743Y1146389D01*
X1083086Y1149000D01*
X1082743Y1151610D01*
X1081735Y1154043D01*
X1080132Y1156132D01*
X1078043Y1157735D01*
X1075834Y1158650D01*
X1075459Y1158966D01*
X1075188Y1159052D01*
X1074951Y1159210D01*
X1074247Y1159350D01*
X1073563Y1159567D01*
X1073279Y1159542D01*
X1073000Y1159598D01*
X1060000Y1159598D01*
X1058049Y1159210D01*
X1057285Y1158699D01*
X1054957Y1157735D01*
X1052868Y1156132D01*
X1051265Y1154043D01*
X1051024Y1153461D01*
X1048069Y1154000D01*
X1047794Y1156088D01*
X1046988Y1158035D01*
X1045706Y1159706D01*
X1044035Y1160988D01*
X1042088Y1161794D01*
X1040000Y1162069D01*
X1037912Y1161794D01*
X1035965Y1160988D01*
X1034294Y1159706D01*
X1033012Y1158035D01*
X1032206Y1156088D01*
X1031931Y1154000D01*
X1030177Y1152000D01*
X1028500D01*
Y1132000D01*
X1028500D01*
X1030250Y1130750D01*
Y1109336D01*
X1029250Y1106750D01*
X1007250D01*
X1006306Y1109359D01*
Y1167500D01*
X1006214Y1168201D01*
X1006319Y1169000D01*
X1006044Y1171088D01*
X1005238Y1173035D01*
X1004806Y1173597D01*
Y1233670D01*
X1015466Y1244330D01*
X1018912D01*
Y1240806D01*
D02*
G37*
G36*
X1666479Y522800D02*
X1666399Y522500D01*
X1666329Y522000D01*
X1666268Y521300D01*
X1666117Y516500D01*
X1666099Y512900D01*
X1661099D01*
X1660629Y522900D01*
X1666568D01*
X1666479Y522800D01*
D02*
G37*
G36*
X966000Y1154000D02*
Y1134000D01*
Y1085000D01*
X956000D01*
X956000Y1124000D01*
X944000Y1136000D01*
X944000Y1154000D01*
X949000Y1159000D01*
X962000Y1159000D01*
X966000Y1154000D01*
D02*
G37*
G36*
X1077000Y1149500D02*
Y1129500D01*
Y1080500D01*
X1067000D01*
X1067000Y1119500D01*
X1055000Y1131500D01*
X1055000Y1149500D01*
X1060000Y1154500D01*
X1073000Y1154500D01*
X1077000Y1149500D01*
D02*
G37*
G36*
X1010268Y1304476D02*
Y1281638D01*
X1019920D01*
Y1260966D01*
X1018912D01*
Y1257442D01*
X1012750D01*
X1011053Y1257219D01*
X1009472Y1256564D01*
X1008114Y1255522D01*
X993614Y1241022D01*
X992572Y1239664D01*
X991917Y1238083D01*
X991694Y1236386D01*
Y1173597D01*
X991262Y1173035D01*
X990456Y1171088D01*
X990181Y1169000D01*
X990456Y1166912D01*
X991262Y1164966D01*
X992544Y1163294D01*
X993194Y1162796D01*
Y1068739D01*
X992490Y1068044D01*
X990194Y1066961D01*
X988849Y1067518D01*
X986500Y1067828D01*
X984150Y1067518D01*
X981961Y1066611D01*
X980081Y1065169D01*
X979987Y1065046D01*
X976135Y1064656D01*
X967143Y1073648D01*
Y1079750D01*
X971250D01*
Y1094750D01*
Y1113500D01*
X971250Y1114750D01*
X971250Y1114750D01*
Y1116500D01*
X971250D01*
X971250Y1117750D01*
Y1141500D01*
X971098D01*
Y1154000D01*
X970958Y1154704D01*
X970897Y1155419D01*
X970766Y1155672D01*
X970710Y1155951D01*
X970311Y1156547D01*
X969981Y1157185D01*
X965981Y1162185D01*
X965763Y1162368D01*
X965605Y1162605D01*
X965008Y1163003D01*
X964459Y1163466D01*
X964188Y1163552D01*
X963951Y1163710D01*
X963247Y1163850D01*
X962563Y1164067D01*
X962279Y1164042D01*
X962000Y1164098D01*
X949000Y1164098D01*
X947336Y1163767D01*
X946815Y1163856D01*
X944478Y1165314D01*
X944336Y1165505D01*
Y1170707D01*
X944441Y1170717D01*
X947268Y1171575D01*
X949874Y1172968D01*
X952158Y1174842D01*
X954032Y1177126D01*
X955425Y1179732D01*
X956283Y1182560D01*
X956573Y1185500D01*
X956283Y1188440D01*
X955425Y1191268D01*
X954032Y1193874D01*
X952158Y1196158D01*
X949874Y1198032D01*
X947268Y1199425D01*
X944441Y1200283D01*
X944336Y1200293D01*
Y1203920D01*
X944838D01*
Y1224080D01*
X934298D01*
X934250Y1224086D01*
X934202Y1224080D01*
X923662D01*
X923662Y1224080D01*
X921053Y1225025D01*
X920735Y1225793D01*
X919132Y1227882D01*
X918586Y1228428D01*
Y1232000D01*
Y1245000D01*
X918243Y1247610D01*
X917235Y1250043D01*
X915632Y1252132D01*
X913543Y1253735D01*
X911111Y1254743D01*
X908500Y1255086D01*
X906601Y1254836D01*
X896750D01*
X894139Y1254493D01*
X891707Y1253485D01*
X889618Y1251882D01*
X888015Y1249793D01*
X887007Y1247361D01*
X886874Y1246351D01*
X886049Y1245648D01*
X883864Y1244680D01*
X883775Y1244678D01*
X882349Y1245268D01*
X880000Y1245578D01*
X877651Y1245268D01*
X877588Y1245242D01*
X874588Y1247080D01*
Y1247080D01*
X853412D01*
X853000Y1249250D01*
X837000D01*
Y1255750D01*
X817080D01*
Y1258088D01*
X816580D01*
Y1277338D01*
X779284D01*
Y1274286D01*
X777542Y1274057D01*
X775718Y1273301D01*
X774151Y1272099D01*
X774151Y1272099D01*
X771634Y1269582D01*
X771151Y1269518D01*
X768961Y1268612D01*
X767081Y1267169D01*
X765639Y1265289D01*
X764732Y1263100D01*
X764422Y1260750D01*
X764581Y1259546D01*
X762525Y1257192D01*
X759943Y1257255D01*
X758599Y1258599D01*
X757032Y1259801D01*
X755208Y1260557D01*
X753250Y1260815D01*
X618250D01*
X616292Y1260557D01*
X614468Y1259801D01*
X612901Y1258599D01*
X612901Y1258599D01*
X606664Y1252362D01*
X604800Y1252608D01*
X601537Y1252178D01*
X598496Y1250919D01*
X595885Y1248915D01*
X593881Y1246304D01*
X592622Y1243263D01*
X592192Y1240000D01*
Y1230000D01*
X592348Y1228815D01*
X589954Y1225815D01*
X582633D01*
X563815Y1244633D01*
Y1263324D01*
X564111Y1263711D01*
X565018Y1265900D01*
X565328Y1268250D01*
X565018Y1270600D01*
X564111Y1272789D01*
X562669Y1274669D01*
X560789Y1276111D01*
X558600Y1277018D01*
X556250Y1277328D01*
X553900Y1277018D01*
X551711Y1276111D01*
X549831Y1274669D01*
X548388Y1272789D01*
X547482Y1270600D01*
X547172Y1268250D01*
X547482Y1265900D01*
X548388Y1263711D01*
X548685Y1263324D01*
Y1252857D01*
X545685Y1251341D01*
X543663Y1252178D01*
X540400Y1252608D01*
X537137Y1252178D01*
X534096Y1250919D01*
X531485Y1248915D01*
X529481Y1246304D01*
X529324Y1245923D01*
X526076D01*
X525919Y1246304D01*
X523915Y1248915D01*
X521304Y1250919D01*
X518263Y1252178D01*
X515000Y1252608D01*
X511737Y1252178D01*
X508696Y1250919D01*
X506085Y1248915D01*
X504081Y1246304D01*
X502822Y1243263D01*
X502392Y1240000D01*
Y1230000D01*
X502822Y1226737D01*
X504081Y1223696D01*
X506085Y1221085D01*
X508416Y1219296D01*
X508449Y1219218D01*
X509651Y1217651D01*
X514265Y1213037D01*
X513190Y1209870D01*
X511737Y1209678D01*
X508696Y1208419D01*
X506085Y1206415D01*
X504081Y1203804D01*
X502822Y1200763D01*
X502392Y1197500D01*
Y1187500D01*
X502822Y1184237D01*
X504081Y1181196D01*
X506085Y1178585D01*
X508696Y1176581D01*
X511737Y1175322D01*
X515000Y1174892D01*
X518263Y1175322D01*
X521304Y1176581D01*
X523915Y1178585D01*
X525919Y1181196D01*
X526076Y1181577D01*
X529324D01*
X529481Y1181196D01*
X531485Y1178585D01*
X534007Y1176649D01*
Y1165600D01*
X534494Y1163154D01*
X535880Y1161080D01*
X538857Y1158102D01*
Y1150956D01*
X538750Y1148000D01*
X525750D01*
Y1144000D01*
X510272D01*
X507500Y1144000D01*
X507499Y1144000D01*
X505328Y1143191D01*
X502901Y1142768D01*
X502477Y1142593D01*
X500711Y1141861D01*
X498831Y1140419D01*
X497388Y1138539D01*
X496482Y1136349D01*
X496172Y1134000D01*
X496482Y1131650D01*
X497388Y1129461D01*
X498831Y1127581D01*
X500711Y1126139D01*
X502477Y1125407D01*
X502901Y1125232D01*
X505328Y1124809D01*
X507500Y1124000D01*
X510272Y1124000D01*
X525750D01*
Y1120000D01*
X538750D01*
Y1120000D01*
X538750D01*
Y1120000D01*
X548165D01*
X550200Y1117097D01*
X550194Y1117000D01*
X549931Y1115000D01*
X550206Y1112912D01*
X551012Y1110965D01*
X552294Y1109294D01*
X553965Y1108012D01*
X555912Y1107206D01*
X558000Y1106931D01*
X560088Y1107206D01*
X562034Y1108012D01*
X563706Y1109294D01*
X564988Y1110965D01*
X565794Y1112912D01*
X565922Y1113881D01*
X567057Y1115016D01*
X567446Y1115094D01*
X569520Y1116480D01*
X570906Y1118554D01*
X571194Y1120000D01*
X584250D01*
Y1148000D01*
X568946D01*
X568069Y1149000D01*
X567794Y1151088D01*
X566988Y1153035D01*
X565706Y1154706D01*
X564035Y1155988D01*
X563495Y1156211D01*
X562607Y1159566D01*
X570520Y1167480D01*
X571906Y1169554D01*
X572393Y1172000D01*
Y1176803D01*
X574715Y1178585D01*
X576719Y1181196D01*
X577978Y1184237D01*
X578408Y1187500D01*
Y1197500D01*
X578120Y1199685D01*
X580069Y1202685D01*
X633427D01*
X634669Y1199685D01*
X617842Y1182858D01*
X615968Y1180574D01*
X614575Y1177968D01*
X613717Y1175141D01*
X613427Y1172200D01*
Y1069493D01*
X584000Y1040066D01*
X581000Y1041309D01*
Y1057000D01*
X584250D01*
Y1081729D01*
X587250Y1083383D01*
X587500Y1083225D01*
Y1082750D01*
X607500D01*
Y1102750D01*
X587500D01*
Y1099306D01*
X574000D01*
X572303Y1099083D01*
X570722Y1098428D01*
X569364Y1097386D01*
X560114Y1088136D01*
X559072Y1086778D01*
X558417Y1085197D01*
X558391Y1085000D01*
X545273D01*
X545083Y1086447D01*
X544428Y1088028D01*
X543386Y1089386D01*
X537136Y1095636D01*
X535778Y1096678D01*
X534197Y1097333D01*
X532500Y1097556D01*
X525500D01*
Y1101000D01*
X505500D01*
Y1081000D01*
X525500D01*
X525750Y1078104D01*
Y1071426D01*
X525694Y1071000D01*
Y1066216D01*
X516978Y1057500D01*
X506500D01*
Y1037500D01*
X541000D01*
X543500Y1037500D01*
Y1037500D01*
X544000D01*
Y1037500D01*
X577192D01*
X578434Y1034500D01*
X505592Y961658D01*
X492407Y948473D01*
X458851D01*
X457598Y950000D01*
Y1079510D01*
X460557Y1079928D01*
X461313Y1078104D01*
X462515Y1076537D01*
X476401Y1062651D01*
X476401Y1062651D01*
X477968Y1061449D01*
X479792Y1060693D01*
X481750Y1060435D01*
X482074D01*
X482461Y1060138D01*
X484650Y1059232D01*
X487000Y1058922D01*
X489350Y1059232D01*
X491539Y1060138D01*
X493419Y1061581D01*
X494861Y1063461D01*
X495768Y1065650D01*
X496078Y1068000D01*
X495768Y1070350D01*
X494861Y1072539D01*
X493419Y1074419D01*
X491539Y1075862D01*
X489350Y1076768D01*
X487000Y1077078D01*
X484650Y1076768D01*
X483964Y1076484D01*
X475429Y1085019D01*
Y1090412D01*
X477944D01*
Y1111588D01*
X477944D01*
X478000Y1113000D01*
X478000D01*
X478000Y1114565D01*
Y1129000D01*
X484500D01*
Y1149000D01*
X484500D01*
X482983Y1151372D01*
X482807Y1152708D01*
X482051Y1154532D01*
X481543Y1156655D01*
X483099Y1157901D01*
X484616Y1159418D01*
X485099Y1159482D01*
X487289Y1160388D01*
X489169Y1161831D01*
X490611Y1163711D01*
X491518Y1165900D01*
X491828Y1168250D01*
X491518Y1170600D01*
X490611Y1172789D01*
X489169Y1174669D01*
X487289Y1176111D01*
X485099Y1177018D01*
X482750Y1177328D01*
X479838Y1179894D01*
Y1190466D01*
X476753D01*
X476557Y1191958D01*
X475801Y1193782D01*
X474599Y1195349D01*
X464849Y1205099D01*
X463282Y1206301D01*
X461458Y1207057D01*
X459500Y1207315D01*
X442883D01*
X433995Y1216203D01*
X433843Y1216694D01*
X434328Y1220020D01*
X435715Y1221085D01*
X437719Y1223696D01*
X437876Y1224077D01*
X441124D01*
X441281Y1223696D01*
X443285Y1221085D01*
X445896Y1219081D01*
X448937Y1217822D01*
X452200Y1217392D01*
X455463Y1217822D01*
X458504Y1219081D01*
X461115Y1221085D01*
X463119Y1223696D01*
X464378Y1226737D01*
X464808Y1230000D01*
Y1240000D01*
X464378Y1243263D01*
X463119Y1246304D01*
X461115Y1248915D01*
X458504Y1250919D01*
X455463Y1252178D01*
X452200Y1252608D01*
X448937Y1252178D01*
X445896Y1250919D01*
X443285Y1248915D01*
X441281Y1246304D01*
X441124Y1245923D01*
X437876D01*
X437719Y1246304D01*
X435715Y1248915D01*
X433104Y1250919D01*
X430063Y1252178D01*
X426800Y1252608D01*
X423537Y1252178D01*
X420496Y1250919D01*
X417885Y1248915D01*
X415881Y1246304D01*
X414622Y1243263D01*
X414192Y1240000D01*
Y1230000D01*
X414622Y1226737D01*
X415881Y1223696D01*
X417235Y1221932D01*
Y1214700D01*
X417493Y1212742D01*
X418249Y1210918D01*
X419451Y1209351D01*
X434401Y1194401D01*
X434401Y1194401D01*
X435968Y1193199D01*
X437792Y1192443D01*
X439750Y1192185D01*
X456367D01*
X458662Y1189890D01*
Y1170306D01*
Y1165178D01*
X457422Y1164415D01*
X455662Y1164048D01*
X446105Y1173605D01*
X444451Y1174710D01*
X442500Y1175098D01*
X402500D01*
X400549Y1174710D01*
X398895Y1173605D01*
X393895Y1168605D01*
X392790Y1166951D01*
X392402Y1165000D01*
X392402Y951473D01*
X390034Y948473D01*
X387835D01*
X385884Y948085D01*
X384230Y946980D01*
X381355Y944105D01*
D01*
X381000Y943750D01*
X354593Y943750D01*
X324252Y943750D01*
D01*
X323750D01*
X323395Y944105D01*
D01*
X307453Y960047D01*
D01*
X307098Y960402D01*
Y960578D01*
X307098Y993395D01*
D01*
Y993467D01*
Y1002000D01*
D01*
Y1002000D01*
Y1009528D01*
D01*
Y1009794D01*
Y1023176D01*
D01*
Y1023243D01*
Y1026539D01*
D01*
Y1026706D01*
X307098Y1067626D01*
D01*
Y1067828D01*
Y1085649D01*
X306910Y1086593D01*
X306735Y1087539D01*
X306716Y1087567D01*
X306710Y1087600D01*
X306176Y1088400D01*
X305651Y1089207D01*
X305623Y1089226D01*
X305605Y1089254D01*
X304805Y1089788D01*
X304012Y1090333D01*
X303979Y1090340D01*
X303951Y1090359D01*
X303007Y1090547D01*
X302066Y1090747D01*
X293668Y1090856D01*
X293652Y1090853D01*
X293635Y1090856D01*
X292674Y1090672D01*
X291712Y1090493D01*
X291698Y1090484D01*
X291682Y1090481D01*
X290864Y1089942D01*
X290044Y1089410D01*
X290035Y1089396D01*
X290021Y1089387D01*
X289679Y1089049D01*
X289302D01*
Y1088677D01*
X289122Y1088500D01*
X289117Y1088494D01*
X289107Y1088480D01*
X289093Y1088471D01*
X288550Y1087658D01*
X288001Y1086848D01*
X287997Y1086831D01*
X287988Y1086817D01*
X287797Y1085856D01*
X287600Y1084899D01*
X287603Y1084883D01*
X287600Y1084866D01*
Y1062049D01*
X281700D01*
Y1085979D01*
X281512Y1086923D01*
X281337Y1087869D01*
X281318Y1087897D01*
X281312Y1087930D01*
X280777Y1088730D01*
X280253Y1089537D01*
X280226Y1089556D01*
X280207Y1089584D01*
X279407Y1090118D01*
X278614Y1090663D01*
X278581Y1090670D01*
X278553Y1090689D01*
X277609Y1090877D01*
X276668Y1091077D01*
X275065Y1091097D01*
X275032Y1091091D01*
X274998Y1091098D01*
X270839D01*
X270566Y1091156D01*
X267970Y1091190D01*
X267953Y1091187D01*
X267937Y1091190D01*
X266979Y1091006D01*
X266014Y1090827D01*
X266000Y1090818D01*
X265984Y1090815D01*
X265168Y1090277D01*
X264346Y1089743D01*
X264337Y1089730D01*
X264322Y1089720D01*
X263419Y1088828D01*
X263409Y1088814D01*
X263395Y1088805D01*
X262852Y1087992D01*
X262303Y1087181D01*
X262299Y1087165D01*
X262290Y1087151D01*
X262099Y1086189D01*
X261902Y1085233D01*
X261905Y1085217D01*
X261902Y1085200D01*
X261902Y942000D01*
X262027Y941371D01*
Y941125D01*
X262415Y939174D01*
X263520Y937520D01*
X302145Y898895D01*
X303799Y897790D01*
X305750Y897402D01*
X408992D01*
X409575Y895482D01*
X410968Y892876D01*
X412842Y890592D01*
X415126Y888718D01*
X417732Y887325D01*
X420560Y886467D01*
X423500Y886177D01*
X426441Y886467D01*
X429268Y887325D01*
X431874Y888718D01*
X434158Y890592D01*
X436032Y892876D01*
X437425Y895482D01*
X438008Y897402D01*
X472888D01*
X494027Y876263D01*
Y842500D01*
X494415Y840549D01*
X495520Y838895D01*
X501899Y832516D01*
X502383Y832193D01*
X502808Y831794D01*
X503803Y831174D01*
X504198Y831025D01*
X504549Y830790D01*
X505120Y830676D01*
X505664Y830471D01*
X506500Y828500D01*
Y827500D01*
X506500D01*
Y812500D01*
Y804500D01*
Y796500D01*
Y788500D01*
Y780500D01*
X506500D01*
Y779500D01*
X506500D01*
Y764500D01*
Y756500D01*
Y748500D01*
Y740500D01*
Y732500D01*
Y724500D01*
X543500D01*
Y725444D01*
X572000D01*
X573697Y725667D01*
X575278Y726322D01*
X576636Y727364D01*
X590814Y741542D01*
X601904D01*
Y740304D01*
X624096D01*
Y741542D01*
X628112D01*
Y740304D01*
X639863D01*
X641011Y737532D01*
X599534Y696056D01*
X418000D01*
X416303Y695833D01*
X414722Y695178D01*
X413364Y694136D01*
X403614Y684386D01*
X402572Y683028D01*
X401917Y681447D01*
X401885Y681204D01*
X401196Y680919D01*
X398585Y678915D01*
X396581Y676304D01*
X395322Y673263D01*
X394892Y670000D01*
Y660000D01*
X395322Y656737D01*
X396581Y653696D01*
X398585Y651085D01*
X401196Y649081D01*
X404237Y647822D01*
X407500Y647392D01*
X410763Y647822D01*
X413804Y649081D01*
X415401Y650306D01*
X417500Y650820D01*
X419599Y650306D01*
X421196Y649081D01*
X424237Y647822D01*
X427500Y647392D01*
X430763Y647822D01*
X433804Y649081D01*
X436415Y651085D01*
X438419Y653696D01*
X439678Y656737D01*
X440108Y660000D01*
Y670000D01*
X439678Y673263D01*
X438419Y676304D01*
X436415Y678915D01*
X435074Y679944D01*
X436093Y682944D01*
X458907D01*
X459926Y679944D01*
X458585Y678915D01*
X456581Y676304D01*
X455322Y673263D01*
X454892Y670000D01*
Y660000D01*
X455322Y656737D01*
X456581Y653696D01*
X458585Y651085D01*
X461196Y649081D01*
X464237Y647822D01*
X467500Y647392D01*
X470763Y647822D01*
X473804Y649081D01*
X476415Y651085D01*
X478585D01*
X481196Y649081D01*
X484237Y647822D01*
X487500Y647392D01*
X490763Y647822D01*
X493804Y649081D01*
X496415Y651085D01*
X498585D01*
X501196Y649081D01*
X504237Y647822D01*
X507500Y647392D01*
X510763Y647822D01*
X513804Y649081D01*
X516415Y651085D01*
X518585D01*
X521196Y649081D01*
X524237Y647822D01*
X527500Y647392D01*
X530763Y647822D01*
X533804Y649081D01*
X536415Y651085D01*
X538585D01*
X541196Y649081D01*
X544237Y647822D01*
X547500Y647392D01*
X550763Y647822D01*
X553804Y649081D01*
X555401Y650306D01*
X557500Y650820D01*
X559599Y650306D01*
X561196Y649081D01*
X564237Y647822D01*
X567500Y647392D01*
X570763Y647822D01*
X573804Y649081D01*
X576415Y651085D01*
X578419Y653696D01*
X579678Y656737D01*
X580108Y660000D01*
Y670000D01*
X579678Y673263D01*
X579603Y673444D01*
X581608Y676444D01*
X603500D01*
X605197Y676667D01*
X606778Y677322D01*
X608136Y678364D01*
X710566Y780794D01*
X731674D01*
X733472Y777794D01*
X733325Y777518D01*
X732467Y774690D01*
X732177Y771750D01*
X732467Y768810D01*
X733325Y765982D01*
X734718Y763376D01*
X736592Y761092D01*
X738876Y759218D01*
X741482Y757825D01*
X744309Y756967D01*
X747250Y756677D01*
X750191Y756967D01*
X753018Y757825D01*
X755624Y759218D01*
X757908Y761092D01*
X759782Y763376D01*
X761175Y765982D01*
X762033Y768810D01*
X762323Y771750D01*
X762033Y774690D01*
X761175Y777518D01*
X761028Y777794D01*
X762826Y780794D01*
X772600D01*
X774297Y781017D01*
X775878Y781672D01*
X776094Y781838D01*
X778952Y780250D01*
X778927Y780000D01*
X779217Y777059D01*
X780075Y774232D01*
X781468Y771626D01*
X783342Y769342D01*
X785626Y767468D01*
X786944Y766763D01*
Y742598D01*
X777451D01*
Y726502D01*
Y719770D01*
X776928Y719075D01*
X774451Y717444D01*
X773500Y717569D01*
X771412Y717294D01*
X769465Y716488D01*
X767794Y715206D01*
X766512Y713534D01*
X765706Y711588D01*
X765431Y709500D01*
X765706Y707412D01*
X766512Y705465D01*
X767794Y703794D01*
X769465Y702512D01*
X771412Y701706D01*
X773500Y701431D01*
X774451Y701556D01*
X777451Y701102D01*
Y701102D01*
X809549D01*
Y715294D01*
X812600D01*
X814297Y715517D01*
X815878Y716172D01*
X817236Y717214D01*
X822886Y722864D01*
X823928Y724222D01*
X824583Y725803D01*
X824806Y727500D01*
Y742895D01*
X826501Y744008D01*
X827324Y744316D01*
X829613Y742469D01*
X829613Y742013D01*
Y726502D01*
Y713802D01*
Y701102D01*
Y688556D01*
X766523D01*
X763803Y691556D01*
X763823Y691750D01*
X763533Y694690D01*
X762675Y697518D01*
X761282Y700124D01*
X759408Y702408D01*
X757124Y704282D01*
X754518Y705675D01*
X751691Y706533D01*
X748750Y706823D01*
X745809Y706533D01*
X742982Y705675D01*
X740376Y704282D01*
X738092Y702408D01*
X736218Y700124D01*
X734825Y697518D01*
X733967Y694690D01*
X733677Y691750D01*
X733697Y691556D01*
X730977Y688556D01*
X711500D01*
X709803Y688333D01*
X708222Y687678D01*
X706864Y686636D01*
X522864Y502636D01*
X521822Y501278D01*
X521167Y499697D01*
X520944Y498000D01*
Y460725D01*
X518585Y458915D01*
X516415D01*
X513804Y460919D01*
X510763Y462178D01*
X507500Y462608D01*
X504237Y462178D01*
X501196Y460919D01*
X498585Y458915D01*
X496415D01*
X494056Y460725D01*
Y498284D01*
X643445Y647673D01*
X646118Y649118D01*
X648207Y647515D01*
X650639Y646507D01*
X653250Y646164D01*
X655861Y646507D01*
X658293Y647515D01*
X660382Y649118D01*
X661985Y651207D01*
X662993Y653640D01*
X663336Y656250D01*
X662993Y658860D01*
X661985Y661293D01*
X660382Y663382D01*
X658293Y664985D01*
X655861Y665993D01*
X653336Y668250D01*
X653209Y669217D01*
X652993Y670861D01*
X651985Y673293D01*
X650382Y675382D01*
X648293Y676985D01*
X645861Y677993D01*
X643250Y678336D01*
X640639Y677993D01*
X638207Y676985D01*
X636118Y675382D01*
X634515Y673293D01*
X633507Y670861D01*
X633164Y668250D01*
X633259Y667530D01*
X462864Y497136D01*
X461822Y495778D01*
X461167Y494197D01*
X460944Y492500D01*
Y460725D01*
X458585Y458915D01*
X456415D01*
X453804Y460919D01*
X450763Y462178D01*
X447500Y462608D01*
X444237Y462178D01*
X441196Y460919D01*
X438585Y458915D01*
X436415D01*
X433804Y460919D01*
X430763Y462178D01*
X427500Y462608D01*
X424237Y462178D01*
X421196Y460919D01*
X418585Y458915D01*
X416415D01*
X413804Y460919D01*
X410763Y462178D01*
X407500Y462608D01*
X405119Y462294D01*
X403076Y463875D01*
X402506Y464709D01*
X402578Y465250D01*
X402268Y467599D01*
X401362Y469789D01*
X399919Y471669D01*
X398039Y473111D01*
X395849Y474018D01*
X393500Y474328D01*
X391151Y474018D01*
X388961Y473111D01*
X387260Y471806D01*
X373500D01*
X371803Y471583D01*
X370222Y470928D01*
X368864Y469886D01*
X349114Y450136D01*
X348072Y448778D01*
X347417Y447197D01*
X347194Y445500D01*
Y389250D01*
X347417Y387553D01*
X347444Y387489D01*
Y379212D01*
X346743Y378383D01*
X345023Y377118D01*
X342463Y378178D01*
X339200Y378608D01*
X335937Y378178D01*
X332896Y376919D01*
X330285Y374915D01*
X328281Y372304D01*
X328124Y371923D01*
X324876D01*
X324719Y372304D01*
X322715Y374915D01*
X320104Y376919D01*
X317063Y378178D01*
X313800Y378608D01*
X310537Y378178D01*
X307496Y376919D01*
X304885Y374915D01*
X302881Y372304D01*
X301622Y369263D01*
X301192Y366000D01*
Y356000D01*
X301622Y352737D01*
X302881Y349696D01*
X304885Y347085D01*
X307496Y345081D01*
X310537Y343822D01*
X313800Y343392D01*
X317063Y343822D01*
X320104Y345081D01*
X322715Y347085D01*
X324719Y349696D01*
X324876Y350077D01*
X328124D01*
X328281Y349696D01*
X330285Y347085D01*
X332896Y345081D01*
X335937Y343822D01*
X339200Y343392D01*
X342463Y343822D01*
X345504Y345081D01*
X348115Y347085D01*
X350119Y349696D01*
X351378Y352737D01*
X351808Y356000D01*
Y364336D01*
X358636Y371164D01*
X359678Y372522D01*
X360333Y374103D01*
X360556Y375800D01*
Y389000D01*
X360333Y390697D01*
X360306Y390761D01*
Y442784D01*
X376216Y458694D01*
X387260D01*
X388961Y457388D01*
X391151Y456482D01*
X393291Y456200D01*
X393550Y456099D01*
X395376Y453393D01*
X395322Y453263D01*
X394892Y450000D01*
Y440000D01*
X395322Y436737D01*
X396581Y433696D01*
X398585Y431085D01*
X401196Y429081D01*
X404237Y427822D01*
X407500Y427392D01*
X410763Y427822D01*
X411662Y428194D01*
X414662Y426189D01*
Y411170D01*
X435750D01*
Y411000D01*
X451750D01*
Y404500D01*
X471750D01*
Y404500D01*
X474420Y403703D01*
Y402912D01*
X495080D01*
Y375926D01*
X492785Y374165D01*
X490781Y371554D01*
X490624Y371173D01*
X487376D01*
X487219Y371554D01*
X485215Y374165D01*
X482604Y376169D01*
X479563Y377428D01*
X476300Y377858D01*
X473037Y377428D01*
X469996Y376169D01*
X467385Y374165D01*
X465381Y371554D01*
X464122Y368513D01*
X463692Y365250D01*
Y355250D01*
X464122Y351987D01*
X465381Y348946D01*
X467385Y346335D01*
X469996Y344331D01*
X473037Y343072D01*
X476300Y342642D01*
X479563Y343072D01*
X482604Y344331D01*
X485215Y346335D01*
X487219Y348946D01*
X487376Y349327D01*
X490624D01*
X490781Y348946D01*
X492785Y346335D01*
X495396Y344331D01*
X498437Y343072D01*
X501700Y342642D01*
X504963Y343072D01*
X508004Y344331D01*
X510615Y346335D01*
X512619Y348946D01*
X513878Y351987D01*
X514308Y355250D01*
Y365250D01*
X513878Y368513D01*
X512619Y371554D01*
X510615Y374165D01*
X508192Y376024D01*
Y402912D01*
X511716D01*
Y424088D01*
X474420D01*
Y423297D01*
X471750Y422500D01*
Y422500D01*
X461941D01*
X460793Y425272D01*
X463605Y428083D01*
X464237Y427822D01*
X467500Y427392D01*
X470763Y427822D01*
X473804Y429081D01*
X476415Y431085D01*
X478585D01*
X481196Y429081D01*
X484237Y427822D01*
X487500Y427392D01*
X490763Y427822D01*
X493804Y429081D01*
X496415Y431085D01*
X498585D01*
X501196Y429081D01*
X504237Y427822D01*
X507500Y427392D01*
X510763Y427822D01*
X513804Y429081D01*
X516415Y431085D01*
X518585D01*
X521196Y429081D01*
X524237Y427822D01*
X527500Y427392D01*
X530763Y427822D01*
X533804Y429081D01*
X536415Y431085D01*
X538585D01*
X541196Y429081D01*
X544237Y427822D01*
X547500Y427392D01*
X550763Y427822D01*
X552000Y428334D01*
X555000Y427500D01*
Y427500D01*
X580000D01*
Y462500D01*
X555000D01*
X554056Y465109D01*
Y501034D01*
X721716Y668694D01*
X754250D01*
Y664655D01*
X754164Y664000D01*
Y654088D01*
X754056D01*
Y632912D01*
X754056Y632912D01*
X754056D01*
X754056Y632912D01*
X753213Y630261D01*
X752513Y629687D01*
X749701Y626261D01*
X747612Y622352D01*
X746326Y618111D01*
X745891Y613700D01*
X746326Y609289D01*
X747612Y605048D01*
X749701Y601139D01*
X752513Y597713D01*
X755939Y594901D01*
X758414Y593579D01*
Y502421D01*
X755939Y501099D01*
X752513Y498287D01*
X749701Y494861D01*
X747612Y490952D01*
X746326Y486711D01*
X745891Y482300D01*
X746326Y477889D01*
X747612Y473648D01*
X749701Y469739D01*
X752513Y466313D01*
X755939Y463501D01*
X759848Y461412D01*
X764089Y460126D01*
X768500Y459691D01*
X772911Y460126D01*
X777152Y461412D01*
X781061Y463501D01*
X784487Y466313D01*
X787299Y469739D01*
X789388Y473648D01*
X790674Y477889D01*
X791109Y482300D01*
X790674Y486711D01*
X789388Y490952D01*
X787299Y494861D01*
X784487Y498287D01*
X781061Y501099D01*
X778586Y502421D01*
Y593579D01*
X781061Y594901D01*
X784487Y597713D01*
X787299Y601139D01*
X789388Y605048D01*
X790674Y609289D01*
X791109Y613700D01*
X790674Y618111D01*
X789388Y622352D01*
X787299Y626261D01*
X784487Y629687D01*
X781061Y632499D01*
X777152Y634588D01*
X774336Y635442D01*
Y664000D01*
X774250Y664655D01*
Y668694D01*
X880250D01*
X881947Y668917D01*
X883528Y669572D01*
X884886Y670614D01*
X933164Y718892D01*
X935872Y717970D01*
X936164Y717729D01*
Y698250D01*
Y688149D01*
X935914Y686250D01*
X936257Y683640D01*
X937265Y681207D01*
X938868Y679118D01*
X940957Y677515D01*
X943390Y676507D01*
X946000Y676164D01*
X948250D01*
Y675500D01*
X957595D01*
X958250Y675414D01*
X958905Y675500D01*
X968250D01*
Y684845D01*
X968336Y685500D01*
Y698000D01*
Y734000D01*
X967993Y736610D01*
X966985Y739043D01*
X965382Y741132D01*
X963293Y742735D01*
X960861Y743743D01*
X958250Y744086D01*
X948149D01*
X946250Y744336D01*
X943640Y743993D01*
X941207Y742985D01*
X939118Y741382D01*
X938806Y740976D01*
X935806Y741994D01*
Y755453D01*
X938750Y758177D01*
X941691Y758467D01*
X944518Y759325D01*
X947124Y760718D01*
X949408Y762592D01*
X951282Y764876D01*
X952675Y767482D01*
X953533Y770310D01*
X953823Y773250D01*
X953533Y776190D01*
X952675Y779018D01*
X951282Y781624D01*
X949408Y783908D01*
X947124Y785782D01*
X944518Y787175D01*
X942348Y787833D01*
X941507Y789688D01*
X941352Y791081D01*
X981886Y831614D01*
X982928Y832972D01*
X983583Y834553D01*
X983806Y836250D01*
Y854394D01*
X984238Y855017D01*
X986806Y856752D01*
X987250Y856694D01*
X988947Y856917D01*
X989750Y857250D01*
X990553Y856917D01*
X992250Y856694D01*
X993408Y856846D01*
X995528Y854732D01*
X995519Y853896D01*
X994982Y852599D01*
X994672Y850250D01*
X994982Y847900D01*
X995889Y845711D01*
X997331Y843831D01*
X999211Y842389D01*
X1001401Y841482D01*
X1003750Y841172D01*
X1006099Y841482D01*
X1008289Y842389D01*
X1010169Y843831D01*
X1013016Y842614D01*
X1013961Y841889D01*
X1016151Y840982D01*
X1018500Y840672D01*
X1020850Y840982D01*
X1023039Y841889D01*
X1024250Y842818D01*
X1025461Y841889D01*
X1027651Y840982D01*
X1030000Y840672D01*
X1032349Y840982D01*
X1034539Y841889D01*
X1036419Y843331D01*
X1037861Y845211D01*
X1037878Y845250D01*
X1040878Y844653D01*
Y747140D01*
X1029994Y736256D01*
X1029358Y735304D01*
X1026706D01*
Y713112D01*
X1028128D01*
Y709096D01*
X1026706D01*
Y686904D01*
X1028128D01*
Y681140D01*
X1001610Y654622D01*
X908500D01*
X906061Y654137D01*
X903994Y652756D01*
X815611Y564372D01*
X807366D01*
X805415Y566915D01*
X803441Y568430D01*
X803204Y569011D01*
X803080Y570640D01*
X803293Y571963D01*
X805128Y573372D01*
X807292Y576192D01*
X808652Y579476D01*
X809117Y583000D01*
X808652Y586524D01*
X807292Y589808D01*
X805128Y592628D01*
X802308Y594792D01*
X799024Y596152D01*
X795500Y596617D01*
X791976Y596152D01*
X788692Y594792D01*
X785872Y592628D01*
X783708Y589808D01*
X782347Y586524D01*
X781884Y583000D01*
X782347Y579476D01*
X783708Y576192D01*
X785872Y573372D01*
X787707Y571963D01*
X787920Y570640D01*
X787796Y569011D01*
X787559Y568430D01*
X785585Y566915D01*
X783581Y564304D01*
X782322Y561263D01*
X781892Y558000D01*
X782322Y554737D01*
X783581Y551696D01*
X784807Y550099D01*
X785320Y548000D01*
X784807Y545901D01*
X783581Y544304D01*
X782322Y541263D01*
X781892Y538000D01*
X782322Y534737D01*
X783581Y531696D01*
X785585Y529085D01*
X788196Y527081D01*
X791237Y525822D01*
X794500Y525392D01*
X796500D01*
X799763Y525822D01*
X802804Y527081D01*
X805415Y529085D01*
X807419Y531696D01*
X807582Y532091D01*
X807689Y532113D01*
X809756Y533494D01*
X913390Y637128D01*
X1007000D01*
X1009439Y637613D01*
X1011506Y638994D01*
X1056256Y683744D01*
X1057637Y685811D01*
X1057855Y686904D01*
X1061446D01*
Y709096D01*
X1060024D01*
Y713112D01*
X1061446D01*
Y735304D01*
X1058622D01*
Y841912D01*
X1061622Y843332D01*
X1063000Y842251D01*
Y822500D01*
X1084647D01*
X1085250Y819750D01*
X1085250D01*
Y815749D01*
X1084902Y814000D01*
Y805256D01*
X1085250Y803506D01*
Y799750D01*
X1085250Y799750D01*
X1084902Y797244D01*
X1084902Y796894D01*
Y784112D01*
X1072395Y771605D01*
X1071290Y769951D01*
X1070902Y768000D01*
Y755000D01*
X1070902Y745000D01*
X1071290Y743049D01*
X1072395Y741395D01*
X1073688Y740102D01*
X1073868Y739868D01*
X1074102Y739688D01*
X1077395Y736395D01*
X1079049Y735290D01*
X1081000Y734902D01*
X1097000Y734902D01*
X1098951Y735290D01*
X1100605Y736395D01*
X1103018Y738809D01*
X1104124Y740463D01*
X1104512Y742414D01*
Y743832D01*
X1104743Y744389D01*
X1105086Y747000D01*
X1104743Y749611D01*
X1104512Y750168D01*
Y753250D01*
X1105250D01*
Y778250D01*
X1105250D01*
Y778750D01*
X1105250D01*
Y798750D01*
X1105250D01*
Y799750D01*
X1105250D01*
Y819750D01*
X1101643D01*
Y842250D01*
X1101643Y842250D01*
X1101156Y844697D01*
X1099770Y846770D01*
X1080754Y865786D01*
X1080868Y869881D01*
X1081500Y870444D01*
X1114162D01*
X1115211Y869639D01*
X1117401Y868732D01*
X1119750Y868422D01*
X1122100Y868732D01*
X1124289Y869639D01*
X1126169Y871081D01*
X1127611Y872961D01*
X1128518Y875151D01*
X1128527Y875219D01*
X1129194Y875618D01*
X1132056Y873996D01*
X1132194Y873734D01*
Y744466D01*
X1011034Y623306D01*
X923000D01*
X921303Y623083D01*
X919722Y622428D01*
X918364Y621386D01*
X833864Y536886D01*
X832822Y535528D01*
X832167Y533947D01*
X831944Y532250D01*
Y507167D01*
X831927Y507000D01*
X831944Y506833D01*
Y468338D01*
X828420D01*
Y452192D01*
X823308Y447080D01*
X810388D01*
Y428086D01*
X800250D01*
X797639Y427743D01*
X795207Y426735D01*
X793118Y425132D01*
X791515Y423043D01*
X790507Y420611D01*
X790164Y418000D01*
X790507Y415390D01*
X791515Y412957D01*
X793118Y410868D01*
X795207Y409265D01*
X797639Y408257D01*
X800250Y407914D01*
X808247D01*
X809402Y407762D01*
X811664D01*
Y406250D01*
X812007Y403639D01*
X813015Y401207D01*
X814618Y399118D01*
X816707Y397515D01*
X819139Y396507D01*
X820998Y396263D01*
X822007Y394351D01*
X822172Y393193D01*
X818664Y389686D01*
X817622Y388328D01*
X816967Y386747D01*
X816744Y385050D01*
Y383725D01*
X814385Y381915D01*
X812381Y379304D01*
X811122Y376263D01*
X810692Y373000D01*
Y369749D01*
X807921Y368601D01*
X792636Y383886D01*
X791278Y384928D01*
X789697Y385583D01*
X788000Y385806D01*
X627325D01*
X626850Y388732D01*
X629039Y389638D01*
X630919Y391081D01*
X632361Y392961D01*
X633268Y395150D01*
X633578Y397500D01*
X634838Y400284D01*
X634838D01*
Y420444D01*
X615588D01*
X613662Y420444D01*
X610662Y420444D01*
X591412D01*
Y400284D01*
X591412D01*
X592922Y397750D01*
X593232Y395401D01*
X594138Y393211D01*
X595581Y391331D01*
X597461Y389889D01*
X599650Y388982D01*
X600985Y388806D01*
X600788Y385806D01*
X584750D01*
X583053Y385583D01*
X581472Y384928D01*
X580114Y383886D01*
X571107Y374879D01*
X569996Y374419D01*
X567385Y372415D01*
X565381Y369804D01*
X564122Y366763D01*
X563692Y363500D01*
Y353500D01*
X564122Y350237D01*
X565381Y347196D01*
X567385Y344585D01*
X569996Y342581D01*
X573037Y341322D01*
X576300Y340892D01*
X579563Y341322D01*
X582604Y342581D01*
X585215Y344585D01*
X587219Y347196D01*
X587376Y347577D01*
X590624D01*
X590781Y347196D01*
X592785Y344585D01*
X595396Y342581D01*
X598437Y341322D01*
X601700Y340892D01*
X604963Y341322D01*
X608004Y342581D01*
X610615Y344585D01*
X612619Y347196D01*
X613878Y350237D01*
X614308Y353500D01*
Y363500D01*
X613878Y366763D01*
X612619Y369804D01*
X614183Y372694D01*
X647852D01*
X649129Y369694D01*
X648122Y367263D01*
X647692Y364000D01*
Y354000D01*
X648122Y350737D01*
X649381Y347696D01*
X651385Y345085D01*
X653996Y343081D01*
X657037Y341822D01*
X660300Y341392D01*
X663563Y341822D01*
X666604Y343081D01*
X669215Y345085D01*
X671219Y347696D01*
X671376Y348077D01*
X674624D01*
X674781Y347696D01*
X676785Y345085D01*
X679396Y343081D01*
X682437Y341822D01*
X685700Y341392D01*
X688963Y341822D01*
X692004Y343081D01*
X692198Y343230D01*
X705814Y329614D01*
X707172Y328572D01*
X708753Y327917D01*
X710450Y327694D01*
X719500D01*
X721197Y327917D01*
X722778Y328572D01*
X724136Y329614D01*
X729386Y334864D01*
X730428Y336222D01*
X731075Y337784D01*
X735338D01*
Y344727D01*
X737500Y346750D01*
X753500D01*
Y340250D01*
X764478D01*
X765614Y339114D01*
X766972Y338072D01*
X768553Y337417D01*
X770250Y337194D01*
X771912D01*
Y333670D01*
X783308D01*
X792114Y324864D01*
X793472Y323822D01*
X795053Y323167D01*
X796750Y322944D01*
X868011D01*
X869044Y319956D01*
X867762Y318284D01*
X866956Y316338D01*
X866681Y314250D01*
X866956Y312162D01*
X867762Y310215D01*
X869044Y308544D01*
X870715Y307262D01*
X872662Y306456D01*
X874750Y306181D01*
X876838Y306456D01*
X878784Y307262D01*
X878912Y307360D01*
X881912Y306736D01*
Y304056D01*
X903088D01*
Y322944D01*
X910103D01*
X911693Y320786D01*
X911976Y319944D01*
X911217Y317440D01*
X910927Y314500D01*
X911217Y311560D01*
X912075Y308732D01*
X913468Y306126D01*
X915342Y303842D01*
X917626Y301968D01*
X920232Y300575D01*
X923059Y299717D01*
X926000Y299427D01*
X928941Y299717D01*
X931768Y300575D01*
X934374Y301968D01*
X936658Y303842D01*
X938532Y306126D01*
X939925Y308732D01*
X940783Y311560D01*
X941073Y314500D01*
X940783Y317440D01*
X940024Y319944D01*
X940307Y320786D01*
X941897Y322944D01*
X1099750D01*
X1101447Y323167D01*
X1103028Y323822D01*
X1104386Y324864D01*
X1159386Y379864D01*
X1160428Y381222D01*
X1161083Y382803D01*
X1161306Y384500D01*
Y387844D01*
X1161763Y388194D01*
X1261852D01*
X1262069Y387104D01*
X1263285Y385285D01*
X1287535Y361035D01*
X1289354Y359819D01*
X1291500Y359392D01*
X1633416D01*
X1633561Y356392D01*
X799889Y275661D01*
X595516D01*
X595368Y278661D01*
X595941Y278717D01*
X598768Y279575D01*
X601374Y280968D01*
X603658Y282842D01*
X605532Y285126D01*
X606925Y287732D01*
X607783Y290560D01*
X608073Y293500D01*
X607783Y296441D01*
X606925Y299268D01*
X605532Y301874D01*
X603658Y304158D01*
X601374Y306032D01*
X598768Y307425D01*
X595941Y308283D01*
X593000Y308573D01*
X585000D01*
X582060Y308283D01*
X579232Y307425D01*
X576626Y306032D01*
X574342Y304158D01*
X572468Y301874D01*
X571075Y299268D01*
X570217Y296441D01*
X569927Y293500D01*
X570217Y290560D01*
X571075Y287732D01*
X572468Y285126D01*
X574342Y282842D01*
X576626Y280968D01*
X579232Y279575D01*
X582060Y278717D01*
X582632Y278661D01*
X582484Y275661D01*
X245260D01*
X225260Y295661D01*
Y1300661D01*
X250260Y1325661D01*
X799889D01*
X1010268Y1304476D01*
D02*
G37*
%LPC*%
G36*
X500000Y912095D02*
X497128Y911717D01*
X494453Y910609D01*
X492155Y908845D01*
X490392Y906547D01*
X489283Y903872D01*
X488905Y901000D01*
X489283Y898128D01*
X490392Y895453D01*
X492155Y893155D01*
X494453Y891392D01*
X497128Y890283D01*
X500000Y889905D01*
X502872Y890283D01*
X505547Y891392D01*
X507845Y893155D01*
X509608Y895453D01*
X510717Y898128D01*
X511095Y901000D01*
X510717Y903872D01*
X509608Y906547D01*
X507845Y908845D01*
X505547Y910609D01*
X502872Y911717D01*
X500000Y912095D01*
D02*
G37*
G36*
X706250Y1031336D02*
X703640Y1030993D01*
X703262Y1030836D01*
X656500D01*
X653889Y1030493D01*
X651457Y1029485D01*
X649368Y1027882D01*
X648868Y1027382D01*
X647265Y1025293D01*
X646257Y1022860D01*
X645914Y1020250D01*
Y1007500D01*
X646257Y1004890D01*
X647265Y1002457D01*
X648868Y1000368D01*
X650957Y998765D01*
X653390Y997757D01*
X656000Y997414D01*
X658611Y997757D01*
X658988Y997914D01*
X721500D01*
X721500Y997914D01*
X735750D01*
X736405Y998000D01*
X748250D01*
Y1018000D01*
X745836D01*
Y1021000D01*
X745493Y1023611D01*
X744485Y1026043D01*
X742882Y1028132D01*
X740793Y1029735D01*
X738361Y1030743D01*
X735750Y1031086D01*
X733851Y1030836D01*
X709238D01*
X708860Y1030993D01*
X706250Y1031336D01*
D02*
G37*
G36*
X745000Y1109000D02*
X725000D01*
Y1105893D01*
X714500D01*
X712054Y1105406D01*
X709980Y1104020D01*
X701730Y1095770D01*
X700344Y1093696D01*
X699857Y1091250D01*
Y1090000D01*
X686643D01*
Y1091000D01*
X686156Y1093446D01*
X684771Y1095520D01*
X676770Y1103520D01*
X674697Y1104906D01*
X672250Y1105393D01*
X668500D01*
Y1109000D01*
X648500D01*
Y1089000D01*
X667250D01*
Y1062791D01*
X662959Y1058500D01*
X652000D01*
Y1038500D01*
X723000D01*
Y1058500D01*
X714258D01*
X713924Y1059000D01*
X715527Y1062000D01*
X725750D01*
Y1089000D01*
X745000D01*
Y1109000D01*
D02*
G37*
G36*
X771000Y1066073D02*
X768059Y1065783D01*
X765232Y1064925D01*
X762626Y1063532D01*
X760342Y1061658D01*
X758468Y1059374D01*
X757075Y1056768D01*
X756217Y1053941D01*
X755927Y1051000D01*
X756217Y1048059D01*
X757075Y1045232D01*
X758468Y1042626D01*
X760342Y1040342D01*
X762626Y1038468D01*
X765232Y1037075D01*
X768059Y1036217D01*
X771000Y1035927D01*
X773941Y1036217D01*
X776768Y1037075D01*
X779374Y1038468D01*
X781658Y1040342D01*
X783532Y1042626D01*
X784925Y1045232D01*
X785783Y1048059D01*
X786073Y1051000D01*
X785783Y1053941D01*
X784925Y1056768D01*
X783532Y1059374D01*
X781658Y1061658D01*
X779374Y1063532D01*
X776768Y1064925D01*
X773941Y1065783D01*
X771000Y1066073D01*
D02*
G37*
G36*
X809000Y1091073D02*
X806059Y1090783D01*
X803232Y1089925D01*
X800626Y1088532D01*
X798342Y1086658D01*
X796468Y1084374D01*
X795075Y1081768D01*
X794217Y1078941D01*
X793927Y1076000D01*
X794217Y1073059D01*
X795075Y1070232D01*
X796468Y1067626D01*
X798342Y1065342D01*
X800626Y1063468D01*
X803232Y1062075D01*
X806059Y1061217D01*
X809000Y1060927D01*
X811941Y1061217D01*
X814768Y1062075D01*
X817374Y1063468D01*
X819658Y1065342D01*
X821532Y1067626D01*
X822925Y1070232D01*
X823783Y1073059D01*
X824073Y1076000D01*
X823783Y1078941D01*
X822925Y1081768D01*
X821532Y1084374D01*
X819658Y1086658D01*
X817374Y1088532D01*
X814768Y1089925D01*
X811941Y1090783D01*
X809000Y1091073D01*
D02*
G37*
G36*
X1687500Y410500D02*
X1686000Y409000D01*
X1687500D01*
Y410500D01*
D02*
G37*
G36*
X1267000Y562746D02*
X1241000D01*
Y548618D01*
Y537442D01*
Y526520D01*
Y515598D01*
X1267000D01*
Y526520D01*
Y537442D01*
Y548618D01*
Y562746D01*
D02*
G37*
G36*
X1635250Y415500D02*
Y409000D01*
X1641750D01*
X1635250Y415500D01*
D02*
G37*
G36*
X1433500Y1231582D02*
X1431020Y1231255D01*
X1428709Y1230298D01*
X1426725Y1228775D01*
X1425202Y1226791D01*
X1424245Y1224480D01*
X1423918Y1222000D01*
X1424245Y1219520D01*
X1425202Y1217209D01*
X1426725Y1215225D01*
X1428709Y1213702D01*
X1431020Y1212745D01*
X1433500Y1212418D01*
X1435980Y1212745D01*
X1438291Y1213702D01*
X1440275Y1215225D01*
X1441798Y1217209D01*
X1442755Y1219520D01*
X1443082Y1222000D01*
X1442755Y1224480D01*
X1441798Y1226791D01*
X1440275Y1228775D01*
X1438291Y1230298D01*
X1435980Y1231255D01*
X1433500Y1231582D01*
D02*
G37*
G36*
X1302500Y1023586D02*
X1299890Y1023243D01*
X1299512Y1023086D01*
X1253399D01*
X1251500Y1023336D01*
X1248889Y1022993D01*
X1246457Y1021985D01*
X1244368Y1020382D01*
X1242765Y1018293D01*
X1241757Y1015861D01*
X1241414Y1013250D01*
Y1011250D01*
X1241250D01*
Y1001905D01*
X1241164Y1001250D01*
X1241250Y1000595D01*
Y991250D01*
X1250595D01*
X1251250Y991164D01*
X1302750D01*
X1305361Y991507D01*
X1307793Y992515D01*
X1309882Y994118D01*
X1311485Y996207D01*
X1312493Y998640D01*
X1312836Y1001250D01*
Y1013250D01*
X1312493Y1015861D01*
X1311485Y1018293D01*
X1309882Y1020382D01*
X1309632Y1020632D01*
X1307543Y1022235D01*
X1305110Y1023243D01*
X1302500Y1023586D01*
D02*
G37*
G36*
X1655400Y871000D02*
X1652400Y871000D01*
X1632600D01*
X1630000Y871000D01*
X1627000Y871000D01*
X1607200D01*
X1604600Y871000D01*
X1601600Y871000D01*
X1579200D01*
Y831000D01*
X1601600D01*
X1604200Y831000D01*
X1607200Y831000D01*
X1627000D01*
X1629600Y831000D01*
X1632600Y831000D01*
X1652400D01*
X1655000Y831000D01*
X1658000Y831000D01*
X1680400D01*
Y871000D01*
X1658000D01*
X1655400Y871000D01*
D02*
G37*
G36*
X1304000Y1269328D02*
X1301651Y1269018D01*
X1299461Y1268111D01*
X1297581Y1266669D01*
X1296139Y1264789D01*
X1295232Y1262599D01*
X1294922Y1260250D01*
X1295232Y1257900D01*
X1296139Y1255711D01*
X1297581Y1253831D01*
X1299461Y1252389D01*
X1301651Y1251482D01*
X1304000Y1251172D01*
X1306349Y1251482D01*
X1308539Y1252389D01*
X1310419Y1253831D01*
X1311862Y1255711D01*
X1312768Y1257900D01*
X1313078Y1260250D01*
X1312768Y1262599D01*
X1311862Y1264789D01*
X1310419Y1266669D01*
X1308539Y1268111D01*
X1306349Y1269018D01*
X1304000Y1269328D01*
D02*
G37*
G36*
X412000Y311073D02*
X404000D01*
X401059Y310783D01*
X398232Y309925D01*
X395626Y308532D01*
X393342Y306658D01*
X391468Y304374D01*
X390075Y301768D01*
X389217Y298941D01*
X388927Y296000D01*
X389217Y293060D01*
X390075Y290232D01*
X391468Y287626D01*
X393342Y285342D01*
X395626Y283468D01*
X398232Y282075D01*
X401059Y281217D01*
X404000Y280928D01*
X412000D01*
X414940Y281217D01*
X417768Y282075D01*
X420374Y283468D01*
X422658Y285342D01*
X424532Y287626D01*
X425925Y290232D01*
X426783Y293060D01*
X427072Y296000D01*
X426783Y298941D01*
X425925Y301768D01*
X424532Y304374D01*
X422658Y306658D01*
X420374Y308532D01*
X417768Y309925D01*
X414940Y310783D01*
X412000Y311073D01*
D02*
G37*
G36*
X840000Y318073D02*
X832000D01*
X829060Y317783D01*
X826232Y316925D01*
X823626Y315532D01*
X821342Y313658D01*
X819468Y311374D01*
X818075Y308768D01*
X817217Y305940D01*
X816927Y303000D01*
X817217Y300060D01*
X818075Y297232D01*
X819468Y294626D01*
X821342Y292342D01*
X823626Y290468D01*
X826232Y289075D01*
X829060Y288217D01*
X832000Y287927D01*
X840000D01*
X842941Y288217D01*
X845768Y289075D01*
X848374Y290468D01*
X850658Y292342D01*
X852532Y294626D01*
X853925Y297232D01*
X854783Y300060D01*
X855073Y303000D01*
X854783Y305940D01*
X853925Y308768D01*
X852532Y311374D01*
X850658Y313658D01*
X848374Y315532D01*
X845768Y316925D01*
X842941Y317783D01*
X840000Y318073D01*
D02*
G37*
G36*
X330500Y311073D02*
X322500D01*
X319559Y310783D01*
X316732Y309925D01*
X314126Y308532D01*
X311842Y306658D01*
X309968Y304374D01*
X308575Y301768D01*
X307717Y298941D01*
X307428Y296000D01*
X307717Y293060D01*
X308575Y290232D01*
X309968Y287626D01*
X311842Y285342D01*
X314126Y283468D01*
X316732Y282075D01*
X319559Y281217D01*
X322500Y280927D01*
X330500D01*
X333441Y281217D01*
X336268Y282075D01*
X338874Y283468D01*
X341158Y285342D01*
X343032Y287626D01*
X344425Y290232D01*
X345283Y293060D01*
X345573Y296000D01*
X345283Y298941D01*
X344425Y301768D01*
X343032Y304374D01*
X341158Y306658D01*
X338874Y308532D01*
X336268Y309925D01*
X333441Y310783D01*
X330500Y311073D01*
D02*
G37*
G36*
X677000Y309073D02*
X669000D01*
X666059Y308783D01*
X663232Y307925D01*
X660626Y306532D01*
X658342Y304658D01*
X656468Y302374D01*
X655075Y299768D01*
X654217Y296940D01*
X653927Y294000D01*
X654217Y291059D01*
X655075Y288232D01*
X656468Y285626D01*
X658342Y283342D01*
X660626Y281468D01*
X663232Y280075D01*
X666059Y279217D01*
X669000Y278927D01*
X677000D01*
X679940Y279217D01*
X682768Y280075D01*
X685374Y281468D01*
X687658Y283342D01*
X689532Y285626D01*
X690925Y288232D01*
X691783Y291059D01*
X692073Y294000D01*
X691783Y296940D01*
X690925Y299768D01*
X689532Y302374D01*
X687658Y304658D01*
X685374Y306532D01*
X682768Y307925D01*
X679940Y308783D01*
X677000Y309073D01*
D02*
G37*
G36*
X493000Y310323D02*
X485000D01*
X482060Y310033D01*
X479232Y309175D01*
X476626Y307782D01*
X474342Y305908D01*
X472468Y303624D01*
X471075Y301018D01*
X470217Y298190D01*
X469927Y295250D01*
X470217Y292309D01*
X471075Y289482D01*
X472468Y286876D01*
X474342Y284592D01*
X476626Y282718D01*
X479232Y281325D01*
X482060Y280467D01*
X485000Y280177D01*
X493000D01*
X495941Y280467D01*
X498768Y281325D01*
X501374Y282718D01*
X503658Y284592D01*
X505532Y286876D01*
X506925Y289482D01*
X507783Y292309D01*
X508073Y295250D01*
X507783Y298190D01*
X506925Y301018D01*
X505532Y303624D01*
X503658Y305908D01*
X501374Y307782D01*
X498768Y309175D01*
X495941Y310033D01*
X493000Y310323D01*
D02*
G37*
G36*
X420700Y378608D02*
X417437Y378178D01*
X414396Y376919D01*
X411785Y374915D01*
X409781Y372304D01*
X409624Y371923D01*
X406376D01*
X406219Y372304D01*
X404215Y374915D01*
X401604Y376919D01*
X398563Y378178D01*
X395300Y378608D01*
X392037Y378178D01*
X388996Y376919D01*
X386385Y374915D01*
X384381Y372304D01*
X383122Y369263D01*
X382692Y366000D01*
Y356000D01*
X383122Y352737D01*
X384381Y349696D01*
X386385Y347085D01*
X388996Y345081D01*
X392037Y343822D01*
X395300Y343392D01*
X398563Y343822D01*
X401604Y345081D01*
X404215Y347085D01*
X406219Y349696D01*
X406376Y350077D01*
X409624D01*
X409781Y349696D01*
X411785Y347085D01*
X414396Y345081D01*
X417437Y343822D01*
X420700Y343392D01*
X423963Y343822D01*
X427004Y345081D01*
X429615Y347085D01*
X431619Y349696D01*
X432878Y352737D01*
X433308Y356000D01*
Y366000D01*
X432878Y369263D01*
X431619Y372304D01*
X429615Y374915D01*
X427004Y376919D01*
X423963Y378178D01*
X420700Y378608D01*
D02*
G37*
G36*
X779088Y424444D02*
X757912D01*
Y404284D01*
X757912D01*
X759571Y401837D01*
X759690Y401284D01*
X759422Y399250D01*
X759732Y396900D01*
X760639Y394711D01*
X762081Y392831D01*
X763961Y391389D01*
X766151Y390482D01*
X768500Y390172D01*
X770850Y390482D01*
X773039Y391389D01*
X774919Y392831D01*
X776361Y394711D01*
X777268Y396900D01*
X777578Y399250D01*
X777310Y401284D01*
X777429Y401837D01*
X779088Y404284D01*
X779088D01*
Y424444D01*
D02*
G37*
G36*
X501500Y1277828D02*
X499151Y1277518D01*
X496961Y1276611D01*
X495081Y1275169D01*
X493638Y1273289D01*
X492732Y1271099D01*
X492422Y1268750D01*
X492732Y1266401D01*
X493638Y1264211D01*
X495081Y1262331D01*
X496961Y1260889D01*
X499151Y1259982D01*
X501500Y1259672D01*
X503849Y1259982D01*
X506039Y1260889D01*
X507919Y1262331D01*
X509361Y1264211D01*
X510268Y1266401D01*
X510578Y1268750D01*
X510268Y1271099D01*
X509361Y1273289D01*
X507919Y1275169D01*
X506039Y1276611D01*
X503849Y1277518D01*
X501500Y1277828D01*
D02*
G37*
G36*
X416250Y1278078D02*
X413900Y1277768D01*
X411711Y1276861D01*
X409831Y1275419D01*
X408388Y1273539D01*
X407482Y1271349D01*
X407172Y1269000D01*
X407482Y1266650D01*
X408388Y1264461D01*
X409831Y1262581D01*
X411711Y1261139D01*
X413900Y1260232D01*
X416250Y1259922D01*
X418600Y1260232D01*
X420789Y1261139D01*
X422669Y1262581D01*
X424111Y1264461D01*
X425018Y1266650D01*
X425328Y1269000D01*
X425018Y1271349D01*
X424111Y1273539D01*
X422669Y1275419D01*
X420789Y1276861D01*
X418600Y1277768D01*
X416250Y1278078D01*
D02*
G37*
G36*
X322750Y1277328D02*
X320401Y1277018D01*
X318211Y1276111D01*
X316331Y1274669D01*
X314888Y1272789D01*
X313982Y1270600D01*
X313672Y1268250D01*
X313982Y1265900D01*
X314888Y1263711D01*
X316331Y1261831D01*
X318211Y1260388D01*
X320401Y1259482D01*
X322750Y1259172D01*
X325099Y1259482D01*
X327289Y1260388D01*
X329169Y1261831D01*
X330611Y1263711D01*
X331518Y1265900D01*
X331828Y1268250D01*
X331518Y1270600D01*
X330611Y1272789D01*
X329169Y1274669D01*
X327289Y1276111D01*
X325099Y1277018D01*
X322750Y1277328D01*
D02*
G37*
G36*
X361000Y1252608D02*
X357737Y1252178D01*
X354696Y1250919D01*
X352085Y1248915D01*
X350081Y1246304D01*
X349924Y1245923D01*
X346676D01*
X346519Y1246304D01*
X344515Y1248915D01*
X341904Y1250919D01*
X338863Y1252178D01*
X335600Y1252608D01*
X332337Y1252178D01*
X329296Y1250919D01*
X326685Y1248915D01*
X324681Y1246304D01*
X323422Y1243263D01*
X323330Y1242565D01*
X306716D01*
Y1245088D01*
X286556D01*
Y1223912D01*
X306716D01*
Y1227435D01*
X323330D01*
X323422Y1226737D01*
X324681Y1223696D01*
X326685Y1221085D01*
X329296Y1219081D01*
X332337Y1217822D01*
X335600Y1217392D01*
X338863Y1217822D01*
X341904Y1219081D01*
X344515Y1221085D01*
X346519Y1223696D01*
X346676Y1224077D01*
X349924D01*
X350081Y1223696D01*
X352085Y1221085D01*
X354696Y1219081D01*
X357737Y1217822D01*
X361000Y1217392D01*
X364263Y1217822D01*
X367304Y1219081D01*
X369915Y1221085D01*
X371919Y1223696D01*
X373178Y1226737D01*
X373608Y1230000D01*
Y1240000D01*
X373178Y1243263D01*
X371919Y1246304D01*
X369915Y1248915D01*
X367304Y1250919D01*
X364263Y1252178D01*
X361000Y1252608D01*
D02*
G37*
G36*
X531700Y1315073D02*
X523700D01*
X520760Y1314783D01*
X517932Y1313925D01*
X515326Y1312532D01*
X513042Y1310658D01*
X511168Y1308374D01*
X509775Y1305768D01*
X508917Y1302941D01*
X508628Y1300000D01*
X508917Y1297059D01*
X509775Y1294232D01*
X511168Y1291626D01*
X513042Y1289342D01*
X515326Y1287468D01*
X517932Y1286075D01*
X520760Y1285217D01*
X523700Y1284927D01*
X531700D01*
X534641Y1285217D01*
X537468Y1286075D01*
X540074Y1287468D01*
X542358Y1289342D01*
X544232Y1291626D01*
X545625Y1294232D01*
X546483Y1297059D01*
X546773Y1300000D01*
X546483Y1302941D01*
X545625Y1305768D01*
X544232Y1308374D01*
X542358Y1310658D01*
X540074Y1312532D01*
X537468Y1313925D01*
X534641Y1314783D01*
X531700Y1315073D01*
D02*
G37*
G36*
X621500D02*
X613500D01*
X610560Y1314783D01*
X607732Y1313925D01*
X605126Y1312532D01*
X602842Y1310658D01*
X600968Y1308374D01*
X599575Y1305768D01*
X598717Y1302941D01*
X598428Y1300000D01*
X598717Y1297059D01*
X599575Y1294232D01*
X600968Y1291626D01*
X602842Y1289342D01*
X605126Y1287468D01*
X607732Y1286075D01*
X610560Y1285217D01*
X613500Y1284927D01*
X621500D01*
X624440Y1285217D01*
X627268Y1286075D01*
X629874Y1287468D01*
X632158Y1289342D01*
X634032Y1291626D01*
X635425Y1294232D01*
X636283Y1297059D01*
X636573Y1300000D01*
X636283Y1302941D01*
X635425Y1305768D01*
X634032Y1308374D01*
X632158Y1310658D01*
X629874Y1312532D01*
X627268Y1313925D01*
X624440Y1314783D01*
X621500Y1315073D01*
D02*
G37*
G36*
X443500D02*
X435500D01*
X432560Y1314783D01*
X429732Y1313925D01*
X427126Y1312532D01*
X424842Y1310658D01*
X422968Y1308374D01*
X421575Y1305768D01*
X420717Y1302941D01*
X420428Y1300000D01*
X420717Y1297059D01*
X421575Y1294232D01*
X422968Y1291626D01*
X424842Y1289342D01*
X427126Y1287468D01*
X429732Y1286075D01*
X432560Y1285217D01*
X435500Y1284927D01*
X443500D01*
X446441Y1285217D01*
X449268Y1286075D01*
X451874Y1287468D01*
X454158Y1289342D01*
X456032Y1291626D01*
X457425Y1294232D01*
X458283Y1297059D01*
X458573Y1300000D01*
X458283Y1302941D01*
X457425Y1305768D01*
X456032Y1308374D01*
X454158Y1310658D01*
X451874Y1312532D01*
X449268Y1313925D01*
X446441Y1314783D01*
X443500Y1315073D01*
D02*
G37*
G36*
X592250Y1278078D02*
X589901Y1277768D01*
X587711Y1276861D01*
X585831Y1275419D01*
X584389Y1273539D01*
X583482Y1271349D01*
X583172Y1269000D01*
X583482Y1266650D01*
X584389Y1264461D01*
X585831Y1262581D01*
X587711Y1261139D01*
X589901Y1260232D01*
X592250Y1259922D01*
X594599Y1260232D01*
X596789Y1261139D01*
X598669Y1262581D01*
X600111Y1264461D01*
X601018Y1266650D01*
X601328Y1269000D01*
X601018Y1271349D01*
X600111Y1273539D01*
X598669Y1275419D01*
X596789Y1276861D01*
X594599Y1277768D01*
X592250Y1278078D01*
D02*
G37*
G36*
X352300Y1315073D02*
X344300D01*
X341359Y1314783D01*
X338532Y1313925D01*
X335926Y1312532D01*
X333642Y1310658D01*
X331768Y1308374D01*
X330375Y1305768D01*
X329517Y1302941D01*
X329227Y1300000D01*
X329517Y1297059D01*
X330375Y1294232D01*
X331768Y1291626D01*
X333642Y1289342D01*
X335926Y1287468D01*
X338532Y1286075D01*
X341359Y1285217D01*
X344300Y1284927D01*
X352300D01*
X355241Y1285217D01*
X358068Y1286075D01*
X360674Y1287468D01*
X362958Y1289342D01*
X364832Y1291626D01*
X366225Y1294232D01*
X367083Y1297059D01*
X367373Y1300000D01*
X367083Y1302941D01*
X366225Y1305768D01*
X364832Y1308374D01*
X362958Y1310658D01*
X360674Y1312532D01*
X358068Y1313925D01*
X355241Y1314783D01*
X352300Y1315073D01*
D02*
G37*
G36*
X748750Y746573D02*
X745809Y746283D01*
X742982Y745425D01*
X740376Y744032D01*
X738092Y742158D01*
X736218Y739874D01*
X734825Y737268D01*
X733967Y734441D01*
X733677Y731500D01*
X733967Y728559D01*
X734825Y725732D01*
X736218Y723126D01*
X738092Y720842D01*
X740376Y718968D01*
X742982Y717575D01*
X745809Y716717D01*
X748750Y716427D01*
X751691Y716717D01*
X754518Y717575D01*
X757124Y718968D01*
X759408Y720842D01*
X761282Y723126D01*
X762675Y725732D01*
X763533Y728559D01*
X763823Y731500D01*
X763533Y734441D01*
X762675Y737268D01*
X761282Y739874D01*
X759408Y742158D01*
X757124Y744032D01*
X754518Y745425D01*
X751691Y746283D01*
X748750Y746573D01*
D02*
G37*
G36*
X257000Y1198069D02*
X254912Y1197794D01*
X252966Y1196988D01*
X251294Y1195706D01*
X250012Y1194035D01*
X249206Y1192088D01*
X248931Y1190000D01*
X247254Y1188088D01*
X229670D01*
Y1166912D01*
X230000D01*
Y1150250D01*
X232519D01*
X232693Y1148928D01*
X233449Y1147104D01*
X234651Y1145537D01*
X241162Y1139026D01*
Y1129056D01*
X262338D01*
X263902Y1126704D01*
Y1117250D01*
Y1116951D01*
X303839D01*
X304395Y1116395D01*
X306049Y1115290D01*
X307874Y1114927D01*
X307895Y1114895D01*
X309549Y1113790D01*
X311500Y1113402D01*
X374000D01*
X375951Y1113790D01*
X377605Y1114895D01*
X378709Y1116000D01*
X379444Y1116734D01*
X384105Y1121395D01*
X385210Y1123049D01*
X385598Y1125000D01*
Y1167500D01*
X385210Y1169451D01*
X384105Y1171105D01*
X376605Y1178605D01*
X374951Y1179710D01*
X373000Y1180098D01*
X328500D01*
X326549Y1179710D01*
X324895Y1178605D01*
X317290Y1171000D01*
X288750D01*
Y1170750D01*
X266966D01*
Y1188088D01*
X266746D01*
X265069Y1190000D01*
X264794Y1192088D01*
X263988Y1194035D01*
X262706Y1195706D01*
X261035Y1196988D01*
X259088Y1197794D01*
X257000Y1198069D01*
D02*
G37*
%LPD*%
G36*
X380500Y1167500D02*
Y1125000D01*
X374000Y1118500D01*
X311500D01*
Y1120000D01*
X308000D01*
X306500Y1121500D01*
Y1151000D01*
X308750D01*
Y1155250D01*
X309500Y1156000D01*
X328500Y1175000D01*
X373000D01*
X380500Y1167500D01*
D02*
G37*
D10*
X1297636Y1191500D02*
D03*
X1280500D02*
D03*
X1254886D02*
D03*
X1237750D02*
D03*
X1438136Y514250D02*
D03*
X1421000D02*
D03*
X1114864Y498750D02*
D03*
X1132000D02*
D03*
X855636Y457750D02*
D03*
X838500D02*
D03*
X501636Y413500D02*
D03*
X484500D02*
D03*
X650114Y924250D02*
D03*
X667250D02*
D03*
X467864Y1101000D02*
D03*
X485000D02*
D03*
X296636Y1234500D02*
D03*
X279500D02*
D03*
X788864Y1195750D02*
D03*
X806000D02*
D03*
X789114Y1214750D02*
D03*
X806250D02*
D03*
X789864Y1247500D02*
D03*
X807000D02*
D03*
X789364Y1266750D02*
D03*
X806500D02*
D03*
X871614Y427500D02*
D03*
X888750D02*
D03*
X699386Y924500D02*
D03*
X682250D02*
D03*
X1217636Y475000D02*
D03*
X1200500D02*
D03*
X1217636Y460000D02*
D03*
X1200500D02*
D03*
X1550386Y1183750D02*
D03*
X1533250D02*
D03*
X1493636Y1182750D02*
D03*
X1476500D02*
D03*
X256886Y1177500D02*
D03*
X239750D02*
D03*
X1169136Y1234750D02*
D03*
X1152000D02*
D03*
X1121886Y1237750D02*
D03*
X1104750D02*
D03*
X1415250Y1132636D02*
D03*
X1432386D02*
D03*
X1415250Y1099636D02*
D03*
X1432386D02*
D03*
X1415250Y1067182D02*
D03*
X1432386D02*
D03*
X1415250Y1034454D02*
D03*
X1432386D02*
D03*
X1415250Y1001727D02*
D03*
X1432386D02*
D03*
X1415250Y969000D02*
D03*
X1432386D02*
D03*
Y1116273D02*
D03*
X1415250D02*
D03*
X1432386Y1083545D02*
D03*
X1415250D02*
D03*
X1432386Y1050818D02*
D03*
X1415250D02*
D03*
X1432386Y1018091D02*
D03*
X1415250D02*
D03*
X1432386Y985364D02*
D03*
X1415250D02*
D03*
X1432386Y952636D02*
D03*
X1415250D02*
D03*
X1297636Y1164000D02*
D03*
X1280500D02*
D03*
X1255136D02*
D03*
X1238000D02*
D03*
X764136Y643500D02*
D03*
X747000D02*
D03*
D11*
X1072250Y1021750D02*
D03*
X1067250D02*
D03*
X1062250D02*
D03*
X1057250D02*
D03*
X1052250D02*
D03*
X1047250D02*
D03*
X1042250D02*
D03*
X1037250D02*
D03*
X1032250D02*
D03*
X1027250D02*
D03*
X1022250D02*
D03*
X1017250D02*
D03*
X1012250D02*
D03*
X1007250D02*
D03*
X1002250D02*
D03*
X997250D02*
D03*
X992250D02*
D03*
X987250D02*
D03*
X982250D02*
D03*
X977250D02*
D03*
X972250D02*
D03*
X967250D02*
D03*
X962250D02*
D03*
X957250D02*
D03*
X952250D02*
D03*
Y870750D02*
D03*
X957250D02*
D03*
X962250D02*
D03*
X967250D02*
D03*
X972250D02*
D03*
X977250D02*
D03*
X982250D02*
D03*
X987250D02*
D03*
X992250D02*
D03*
X997250D02*
D03*
X1002250D02*
D03*
X1007250D02*
D03*
X1012250D02*
D03*
X1017250D02*
D03*
X1022250D02*
D03*
X1027250D02*
D03*
X1032250D02*
D03*
X1037250D02*
D03*
X1042250D02*
D03*
X1047250D02*
D03*
X1052250D02*
D03*
X1057250D02*
D03*
X1062250D02*
D03*
X1067250D02*
D03*
X1072250D02*
D03*
D12*
X936750Y1006250D02*
D03*
Y1001250D02*
D03*
Y996250D02*
D03*
Y991250D02*
D03*
Y986250D02*
D03*
Y981250D02*
D03*
Y976250D02*
D03*
Y971250D02*
D03*
Y966250D02*
D03*
Y961250D02*
D03*
Y956250D02*
D03*
Y951250D02*
D03*
Y946250D02*
D03*
Y941250D02*
D03*
Y936250D02*
D03*
Y931250D02*
D03*
Y926250D02*
D03*
Y921250D02*
D03*
Y916250D02*
D03*
Y911250D02*
D03*
Y906250D02*
D03*
Y901250D02*
D03*
Y896250D02*
D03*
Y891250D02*
D03*
Y886250D02*
D03*
X1087750D02*
D03*
Y891250D02*
D03*
Y896250D02*
D03*
Y901250D02*
D03*
Y906250D02*
D03*
Y911250D02*
D03*
Y916250D02*
D03*
Y921250D02*
D03*
Y926250D02*
D03*
Y931250D02*
D03*
Y936250D02*
D03*
Y941250D02*
D03*
Y946250D02*
D03*
Y951250D02*
D03*
Y956250D02*
D03*
Y961250D02*
D03*
Y966250D02*
D03*
Y971250D02*
D03*
Y976250D02*
D03*
Y981250D02*
D03*
Y986250D02*
D03*
Y991250D02*
D03*
Y996250D02*
D03*
Y1001250D02*
D03*
Y1006250D02*
D03*
D13*
X782500Y360886D02*
D03*
Y343750D02*
D03*
X724750Y347864D02*
D03*
Y365000D02*
D03*
X624250Y410364D02*
D03*
Y427500D02*
D03*
X602000Y410364D02*
D03*
Y427500D02*
D03*
X768500Y414364D02*
D03*
Y431500D02*
D03*
X892500Y314136D02*
D03*
Y297000D02*
D03*
X425250Y404114D02*
D03*
Y421250D02*
D03*
X1385500Y1221864D02*
D03*
Y1239000D02*
D03*
X1490000Y400614D02*
D03*
Y417750D02*
D03*
X1464500Y400864D02*
D03*
Y418000D02*
D03*
X863250Y1196864D02*
D03*
Y1214000D02*
D03*
X864000Y1237000D02*
D03*
Y1254136D02*
D03*
X1214000Y855364D02*
D03*
Y872500D02*
D03*
X1213500Y925886D02*
D03*
Y908750D02*
D03*
X1439250Y401364D02*
D03*
Y418500D02*
D03*
X934250Y1231136D02*
D03*
Y1214000D02*
D03*
X897000Y1213864D02*
D03*
Y1231000D02*
D03*
X1201750Y523864D02*
D03*
Y541000D02*
D03*
X1180500Y523864D02*
D03*
Y541000D02*
D03*
X251750Y1139136D02*
D03*
Y1122000D02*
D03*
X1076500Y1248886D02*
D03*
Y1231750D02*
D03*
X1029500Y1250886D02*
D03*
Y1233750D02*
D03*
X1306750Y1220864D02*
D03*
Y1238000D02*
D03*
X1311250Y847864D02*
D03*
Y865000D02*
D03*
X1511750Y1056864D02*
D03*
Y1074000D02*
D03*
X469250Y1180386D02*
D03*
Y1163250D02*
D03*
D14*
X1254000Y459500D02*
D03*
Y448500D02*
D03*
Y437500D02*
D03*
Y426500D02*
D03*
Y470500D02*
D03*
Y481500D02*
D03*
Y492500D02*
D03*
Y522662D02*
D03*
Y533584D02*
D03*
Y544506D02*
D03*
Y555682D02*
D03*
Y566604D02*
D03*
X1374198D02*
D03*
Y555682D02*
D03*
Y544506D02*
D03*
Y533584D02*
D03*
Y522662D02*
D03*
Y492500D02*
D03*
Y481500D02*
D03*
Y470500D02*
D03*
Y459500D02*
D03*
Y448500D02*
D03*
Y437500D02*
D03*
Y426500D02*
D03*
D15*
X1663500Y563750D02*
D03*
Y576750D02*
D03*
X1641500D02*
D03*
Y563750D02*
D03*
X1663500Y570250D02*
D03*
X1641500D02*
D03*
D16*
X1123000Y456574D02*
D03*
X1113348Y478750D02*
D03*
X1132500D02*
D03*
X1168750Y1256324D02*
D03*
X1159098Y1278500D02*
D03*
X1178250D02*
D03*
X1121500Y1262324D02*
D03*
X1111848Y1284500D02*
D03*
X1131000D02*
D03*
X1076500Y1267324D02*
D03*
X1066848Y1289500D02*
D03*
X1086000D02*
D03*
X1030000Y1271574D02*
D03*
X1020348Y1293750D02*
D03*
X1039500D02*
D03*
D17*
X844676Y427500D02*
D03*
X822500Y417848D02*
D03*
Y437000D02*
D03*
X1560176Y1065500D02*
D03*
X1538000Y1055848D02*
D03*
Y1075000D02*
D03*
X1382062Y1133136D02*
D03*
X1359886Y1123484D02*
D03*
Y1142636D02*
D03*
X1382062Y1100136D02*
D03*
X1359886Y1090484D02*
D03*
Y1109636D02*
D03*
X1382062Y1067136D02*
D03*
X1359886Y1057484D02*
D03*
Y1076636D02*
D03*
X1382062Y1033136D02*
D03*
X1359886Y1023484D02*
D03*
Y1042636D02*
D03*
X1382062Y999136D02*
D03*
X1359886Y989484D02*
D03*
Y1008636D02*
D03*
X1382062Y965136D02*
D03*
X1359886Y955484D02*
D03*
Y974636D02*
D03*
X1351426Y855500D02*
D03*
X1329250Y845848D02*
D03*
Y865000D02*
D03*
D18*
X845662Y696450D02*
D03*
Y709150D02*
D03*
Y734550D02*
D03*
X793500Y696450D02*
D03*
Y709150D02*
D03*
Y734550D02*
D03*
X845662Y721850D02*
D03*
X793500D02*
D03*
D19*
X271950Y1073000D02*
D03*
X284650D02*
D03*
X310050D02*
D03*
X271950Y1133000D02*
D03*
X284650D02*
D03*
X310050D02*
D03*
X297350Y1073000D02*
D03*
Y1133000D02*
D03*
D20*
X291000Y1103000D02*
D03*
D21*
X1453000Y580000D02*
D03*
Y570000D02*
D03*
D22*
X1221000Y437000D02*
D03*
Y420000D02*
D03*
X1627865Y658965D02*
D03*
Y641965D02*
D03*
X1629503Y498380D02*
D03*
Y481380D02*
D03*
X1475250Y497250D02*
D03*
Y514250D02*
D03*
X517500Y1151000D02*
D03*
Y1134000D02*
D03*
X868250Y1013750D02*
D03*
Y1030750D02*
D03*
X888250D02*
D03*
Y1013750D02*
D03*
X859250Y868750D02*
D03*
Y851750D02*
D03*
X881250D02*
D03*
Y868750D02*
D03*
X1120250Y1028750D02*
D03*
Y1045750D02*
D03*
X1141250D02*
D03*
Y1028750D02*
D03*
X1251250Y984250D02*
D03*
Y1001250D02*
D03*
X658500Y1138750D02*
D03*
Y1155750D02*
D03*
X515500Y1108000D02*
D03*
Y1091000D02*
D03*
X597500Y1092750D02*
D03*
Y1109750D02*
D03*
X658500Y1116000D02*
D03*
Y1099000D02*
D03*
X735000D02*
D03*
Y1116000D02*
D03*
X1225750Y678000D02*
D03*
Y661000D02*
D03*
X1412500Y845500D02*
D03*
Y862500D02*
D03*
D23*
X1645250Y1197250D02*
D03*
X1662250D02*
D03*
X1663500Y1004500D02*
D03*
X1646500D02*
D03*
X958250Y685500D02*
D03*
X975250D02*
D03*
X516500Y1047500D02*
D03*
X533500D02*
D03*
X571000D02*
D03*
X554000D02*
D03*
X1038500Y1142000D02*
D03*
X1021500D02*
D03*
X1533500Y1203750D02*
D03*
X1550500D02*
D03*
X1072500Y1106000D02*
D03*
X1089500D02*
D03*
Y1085000D02*
D03*
X1072500D02*
D03*
X961250Y1104750D02*
D03*
X978250D02*
D03*
Y1089750D02*
D03*
X961250D02*
D03*
X1095250Y788750D02*
D03*
X1112250D02*
D03*
Y809750D02*
D03*
X1095250D02*
D03*
X905500Y1138000D02*
D03*
X922500D02*
D03*
Y1116750D02*
D03*
X905500D02*
D03*
X298750Y1161000D02*
D03*
X315750D02*
D03*
X240000Y1160250D02*
D03*
X257000D02*
D03*
X403500Y954000D02*
D03*
X386500D02*
D03*
X862500Y752500D02*
D03*
X845500D02*
D03*
X764250Y664000D02*
D03*
X747250D02*
D03*
X696000Y1048500D02*
D03*
X713000D02*
D03*
X679000D02*
D03*
X662000D02*
D03*
X718250Y897000D02*
D03*
X735250D02*
D03*
X675000D02*
D03*
X692000D02*
D03*
X885250Y361500D02*
D03*
X902250D02*
D03*
D24*
X1201750Y437250D02*
D03*
Y416250D02*
D03*
X735750Y1008000D02*
D03*
Y987000D02*
D03*
X705750Y1008000D02*
D03*
Y987000D02*
D03*
X834250Y868750D02*
D03*
Y847750D02*
D03*
X1164250Y1028750D02*
D03*
Y1049750D02*
D03*
X279250Y1160750D02*
D03*
Y1181750D02*
D03*
X847250Y1013750D02*
D03*
Y1034750D02*
D03*
D25*
X1072500Y1129000D02*
D03*
X1093500D02*
D03*
X403750Y977000D02*
D03*
X382750D02*
D03*
X295750Y1043750D02*
D03*
X316750D02*
D03*
X961250Y1129000D02*
D03*
X982250D02*
D03*
X1095250Y765750D02*
D03*
X1116250D02*
D03*
X902250Y384000D02*
D03*
X881250D02*
D03*
D26*
X984500Y716500D02*
D03*
X949500D02*
D03*
X1109500Y837000D02*
D03*
X1074500D02*
D03*
X371500Y1089500D02*
D03*
X406500D02*
D03*
X371250Y1062000D02*
D03*
X406250D02*
D03*
X371000Y1032750D02*
D03*
X406000D02*
D03*
X370750Y1003500D02*
D03*
X405750D02*
D03*
X330500Y984000D02*
D03*
X295500D02*
D03*
X330000Y1014000D02*
D03*
X295000D02*
D03*
D27*
X905250Y850750D02*
D03*
Y885750D02*
D03*
X1284250Y976000D02*
D03*
Y1011000D02*
D03*
X1260000Y688750D02*
D03*
Y653750D02*
D03*
D28*
X1034500Y724208D02*
D03*
X1044000D02*
D03*
X1053652D02*
D03*
Y698000D02*
D03*
X1044000D02*
D03*
X1034500D02*
D03*
D29*
X639958Y873250D02*
D03*
Y863750D02*
D03*
Y854098D02*
D03*
X613750D02*
D03*
Y863750D02*
D03*
Y873250D02*
D03*
X639208Y820000D02*
D03*
Y810500D02*
D03*
Y800848D02*
D03*
X613000D02*
D03*
Y810500D02*
D03*
Y820000D02*
D03*
X639208Y767250D02*
D03*
Y757750D02*
D03*
Y748098D02*
D03*
X613000D02*
D03*
Y757750D02*
D03*
Y767250D02*
D03*
D30*
X532250Y1071000D02*
D03*
X538750D02*
D03*
X545250D02*
D03*
X551750D02*
D03*
X558250D02*
D03*
X564750D02*
D03*
X571250D02*
D03*
X577750D02*
D03*
X532250Y1134000D02*
D03*
X538750D02*
D03*
X545250D02*
D03*
X551750D02*
D03*
X558250D02*
D03*
X564750D02*
D03*
X571250D02*
D03*
X577750D02*
D03*
X673750Y1076000D02*
D03*
X680250D02*
D03*
X686750D02*
D03*
X693250D02*
D03*
X699750D02*
D03*
X706250D02*
D03*
X712750D02*
D03*
X719250D02*
D03*
X673750Y1139000D02*
D03*
X680250D02*
D03*
X686750D02*
D03*
X693250D02*
D03*
X699750D02*
D03*
X706250D02*
D03*
X712750D02*
D03*
X719250D02*
D03*
D31*
X675250Y878500D02*
D03*
Y872000D02*
D03*
Y865500D02*
D03*
Y859000D02*
D03*
Y852500D02*
D03*
Y846000D02*
D03*
Y839500D02*
D03*
Y833000D02*
D03*
Y826500D02*
D03*
Y820000D02*
D03*
Y813500D02*
D03*
Y807000D02*
D03*
X735250Y878500D02*
D03*
Y872000D02*
D03*
Y865500D02*
D03*
Y859000D02*
D03*
Y852500D02*
D03*
Y846000D02*
D03*
Y839500D02*
D03*
Y833000D02*
D03*
Y826500D02*
D03*
Y820000D02*
D03*
Y813500D02*
D03*
Y807000D02*
D03*
D32*
X763500Y349250D02*
D03*
Y362250D02*
D03*
X747500Y355750D02*
D03*
X445750Y420000D02*
D03*
Y407000D02*
D03*
X461750Y413500D02*
D03*
X843750Y1198250D02*
D03*
Y1211250D02*
D03*
X827750Y1204750D02*
D03*
X843000Y1240250D02*
D03*
Y1253250D02*
D03*
X827000Y1246750D02*
D03*
D33*
X469000Y1123000D02*
D03*
X482000D02*
D03*
X475500Y1139000D02*
D03*
D34*
X1169000Y437423D02*
D03*
D35*
X1185002D02*
D03*
X1153000D02*
D03*
D36*
X475000Y876000D02*
D03*
X525000D02*
D03*
Y868000D02*
D03*
X475000D02*
D03*
X525000Y860000D02*
D03*
X475000D02*
D03*
X525000Y852000D02*
D03*
X475000D02*
D03*
X525000Y844000D02*
D03*
X475000D02*
D03*
X525000Y836000D02*
D03*
X475000D02*
D03*
X525000Y828000D02*
D03*
X475000D02*
D03*
X525000Y820000D02*
D03*
X475000D02*
D03*
X525000Y812000D02*
D03*
X475000D02*
D03*
X525000Y804000D02*
D03*
X475000D02*
D03*
X525000Y796000D02*
D03*
X475000D02*
D03*
X525000Y788000D02*
D03*
X475000D02*
D03*
X525000Y780000D02*
D03*
X475000D02*
D03*
X525000Y772000D02*
D03*
X475000D02*
D03*
X525000Y764000D02*
D03*
X475000D02*
D03*
X525000Y756000D02*
D03*
X475000D02*
D03*
X525000Y748000D02*
D03*
X475000D02*
D03*
X525000Y740000D02*
D03*
X475000D02*
D03*
X525000Y732000D02*
D03*
X475000D02*
D03*
X525000Y724000D02*
D03*
X475000D02*
D03*
D37*
X673500Y982776D02*
D03*
Y1011220D02*
D03*
D38*
X927474Y1161250D02*
D03*
X899030D02*
D03*
D39*
X1431000Y555500D02*
D03*
X1414000D02*
D03*
Y569500D02*
D03*
X1431000D02*
D03*
D40*
X1667100Y1165000D02*
D03*
X1641700D02*
D03*
X1616300D02*
D03*
X1590900D02*
D03*
Y1041000D02*
D03*
X1616300D02*
D03*
X1641700D02*
D03*
X1667100D02*
D03*
X1667900Y975000D02*
D03*
X1642500D02*
D03*
X1617100D02*
D03*
X1591700D02*
D03*
Y851000D02*
D03*
X1617100D02*
D03*
X1642500D02*
D03*
X1667900D02*
D03*
D41*
X1436500Y867250D02*
D03*
X1460500D02*
D03*
Y843250D02*
D03*
X1436500D02*
D03*
D42*
X1041250Y1093750D02*
D03*
X1018250D02*
D03*
Y1117750D02*
D03*
X1041250D02*
D03*
D43*
X352500Y1144500D02*
D03*
X417500D02*
D03*
D44*
X1651250Y497000D02*
D03*
X1663500D02*
D03*
X1651250Y644500D02*
D03*
X1663500D02*
D03*
X1519750Y514250D02*
D03*
X1532000D02*
D03*
X1624250Y570250D02*
D03*
X1612000D02*
D03*
D45*
X1475500Y557250D02*
D03*
Y569500D02*
D03*
X1663599Y525870D02*
D03*
Y538120D02*
D03*
X1663613Y614315D02*
D03*
Y602065D02*
D03*
D46*
X1663500Y1004000D02*
X1677000D01*
X1092000Y1274500D02*
Y1289500D01*
X723500Y1116000D02*
X746500D01*
X506194Y1151056D02*
X528276D01*
X646250Y1116250D02*
X670250D01*
X504221Y1108000D02*
X528000D01*
X284650Y1096650D02*
X291000Y1103000D01*
X284650Y1073000D02*
Y1096650D01*
X862250Y742750D02*
Y765500D01*
X774000Y696750D02*
X813000D01*
X1041250Y1117750D02*
Y1142000D01*
X1298598Y845848D02*
X1329250D01*
X735250Y878500D02*
Y909500D01*
X256886Y1189886D02*
X257000Y1190000D01*
X256886Y1177500D02*
Y1189886D01*
X750250Y1195750D02*
X788864D01*
X735750Y1210250D02*
X750250Y1195750D01*
X1374198Y555682D02*
X1413818D01*
X1431000Y569500D02*
X1475500D01*
X1547157Y570239D02*
X1612000D01*
X1041250Y1093750D02*
Y1117750D01*
X1018250D02*
Y1130250D01*
X1007250Y1117750D02*
X1018250D01*
X735250Y872000D02*
Y878500D01*
X674750Y881000D02*
Y924250D01*
Y924750D01*
X1663613Y576864D02*
Y602065D01*
X1663500Y576750D02*
X1663613Y576864D01*
X1663349Y434401D02*
Y494890D01*
Y434401D02*
X1663350Y434400D01*
Y705400D02*
X1663613Y705136D01*
X718250Y897000D02*
Y908000D01*
Y885750D02*
Y897000D01*
X745250D02*
X745750Y897500D01*
X735250Y897000D02*
X745250D01*
X630250Y757500D02*
X630500Y757750D01*
X639208D01*
X630250Y810500D02*
X639208D01*
X630500Y864000D02*
X630750Y863750D01*
X639958D01*
X604500Y757500D02*
X604750Y757750D01*
X613000D01*
X604500Y810500D02*
X613000D01*
X602000Y863750D02*
X613750D01*
X691750Y886250D02*
X692000Y886500D01*
Y897000D01*
Y908250D01*
X711250Y924750D02*
X719250D01*
X711000Y924500D02*
X711250Y924750D01*
X699386Y924500D02*
X711000D01*
X630500D02*
X638250D01*
X638500Y924250D01*
X650114D01*
X674750D02*
X675000D01*
X667250D02*
X674750D01*
Y881000D02*
X675000Y880750D01*
Y924250D02*
X682000D01*
X682250Y924500D01*
X682000Y924750D02*
X682250Y924500D01*
X674750Y924750D02*
X682000D01*
X1617000Y954750D02*
X1617100Y954850D01*
Y975000D01*
X1591700Y955300D02*
X1591750Y955250D01*
X1591700Y955300D02*
Y975000D01*
X1044000Y717000D02*
Y724208D01*
X239750Y1177500D02*
X240000Y1177250D01*
Y1160250D02*
Y1177250D01*
Y1150886D02*
Y1160250D01*
Y1150886D02*
X251750Y1139136D01*
X271950Y1133000D02*
Y1135550D01*
X268250Y1139250D02*
X271950Y1135550D01*
X268136Y1139136D02*
X268250Y1139250D01*
X251750Y1139136D02*
X268136D01*
X417500Y1144500D02*
Y1149250D01*
X279250Y1181750D02*
Y1197000D01*
X256886Y1177500D02*
X257000Y1177386D01*
Y1160250D02*
Y1177386D01*
X279250Y1153000D02*
Y1160750D01*
Y1153000D02*
X284650Y1147600D01*
Y1133000D02*
Y1147600D01*
X1038500Y1142000D02*
X1041250D01*
X1038500D02*
X1040000Y1143500D01*
Y1154000D01*
X1018250Y1130250D02*
X1021000Y1133000D01*
Y1141500D01*
X1021500Y1142000D01*
Y1153500D01*
X1021000Y1154000D02*
X1021500Y1153500D01*
X1011000Y1142000D02*
X1021500D01*
X1007000Y1118000D02*
X1007250Y1117750D01*
X1041250Y1142000D02*
X1048000D01*
X1329250Y833500D02*
Y845848D01*
Y833500D02*
X1329250Y833500D01*
X1298250Y845500D02*
X1298598Y845848D01*
X1667900Y975000D02*
Y992100D01*
X1663500Y996500D02*
X1667900Y992100D01*
X1663500Y996500D02*
Y1004000D01*
X1663000Y1016000D02*
X1663500Y1015500D01*
X297136Y1235000D02*
X335600D01*
X296636Y1234500D02*
X297136Y1235000D01*
X265750Y1234500D02*
X279500D01*
X424800Y1214700D02*
X439750Y1199750D01*
X459500D01*
X469250Y1190000D01*
Y1180386D02*
Y1190000D01*
Y1157000D02*
Y1163250D01*
Y1157000D02*
X475500Y1150750D01*
Y1139000D02*
Y1150750D01*
X485000Y1101000D02*
Y1120000D01*
X482000Y1123000D02*
X485000Y1120000D01*
X467864Y1101000D02*
Y1121864D01*
X469000Y1123000D01*
X469250Y1163250D02*
X477750D01*
X482750Y1168250D01*
X1297636Y1178114D02*
Y1191500D01*
Y1178114D02*
X1297750Y1178000D01*
Y1164114D02*
Y1178000D01*
X1297636Y1164000D02*
X1297750Y1164114D01*
X1226000Y1191500D02*
X1237750D01*
X1226500Y1164000D02*
X1238000D01*
X1226000Y1164500D02*
X1226500Y1164000D01*
X1663500Y1004000D02*
Y1004500D01*
Y1015500D01*
X1560176Y1014324D02*
Y1065500D01*
Y1014324D02*
X1566250Y1008250D01*
X1570000Y1004500D02*
X1646500D01*
X1566250Y1008250D02*
X1570000Y1004500D01*
X1642500Y975000D02*
Y991750D01*
X1646250Y995500D01*
Y1004250D01*
X1646500Y1004500D01*
X1667100Y1165000D02*
Y1182900D01*
X1662250Y1187750D02*
X1667100Y1182900D01*
X1662250Y1187750D02*
Y1197250D01*
X1662250Y1209500D02*
X1662250Y1209500D01*
Y1197250D02*
Y1209500D01*
Y1197250D02*
X1674500D01*
X1675000Y1197750D01*
X1641700Y1165000D02*
Y1183950D01*
X1644500Y1186750D01*
Y1196500D01*
X1645250Y1197250D01*
X1560176Y1065500D02*
X1561000Y1066324D01*
Y1171000D01*
X1588000Y1198000D02*
X1588750Y1197250D01*
X1645250D01*
X1511750Y1056864D02*
X1512766Y1055848D01*
X1538000Y1043750D02*
Y1055848D01*
X1524250D02*
X1538000D01*
X1512766D02*
X1524250D01*
X1039500Y1293750D02*
X1051500D01*
X1052000Y1294250D01*
X1131000Y1284500D02*
X1142750D01*
X1143500Y1285250D01*
X1178250Y1278500D02*
X1191250D01*
X1191500Y1278750D01*
X1550500Y1203750D02*
X1570250D01*
X1570750Y1204250D01*
X843000Y1253250D02*
X863114D01*
X864000Y1254136D01*
X843000Y1253250D02*
Y1266000D01*
X842500Y1266500D02*
X843000Y1266000D01*
X843750Y1211250D02*
Y1223500D01*
X844000Y1223750D01*
X515000Y1223000D02*
Y1235000D01*
X604800D02*
Y1239800D01*
X758000Y1248500D02*
X788864D01*
X789864Y1247500D01*
X743127Y1214750D02*
X789114D01*
X556250Y1241500D02*
Y1268250D01*
X604800Y1239800D02*
X618250Y1253250D01*
X753250D01*
X758000Y1248500D01*
X779500Y1266750D02*
X789364D01*
X773500Y1260750D02*
X779500Y1266750D01*
X467864Y1081886D02*
Y1101000D01*
X763500Y362250D02*
X781136D01*
X782500Y360886D01*
X602250Y428750D02*
Y442250D01*
X845662Y734550D02*
Y752338D01*
X845500Y752500D02*
X845662Y752338D01*
X832000Y752500D02*
X845500D01*
Y766000D01*
X845250Y766250D02*
X845500Y766000D01*
X862500Y752500D02*
Y765250D01*
X862250Y765500D02*
X862500Y765250D01*
X774300Y696450D02*
X793500D01*
X774000Y696750D02*
X774300Y696450D01*
X763500Y362250D02*
Y372250D01*
X892500Y284750D02*
Y297000D01*
X624250Y427500D02*
Y442250D01*
X855636Y457750D02*
X867750D01*
X843750Y1211250D02*
X851250D01*
X854000Y1214000D01*
X863250D01*
X646500Y1138750D02*
X658500D01*
X646500Y1138750D02*
X646500Y1138750D01*
X646500Y1116000D02*
X658500D01*
X646250Y1116250D02*
X646500Y1116000D01*
X735000D02*
X746500D01*
X746500Y1116000D01*
X747000Y1116500D01*
X585750Y1109750D02*
X597500D01*
X610000D01*
X515500Y1108000D02*
X528000D01*
X528000Y1108000D01*
X504025Y1107804D02*
X504221Y1108000D01*
X505250Y1134000D02*
X517500D01*
X532250D02*
X532250Y1134000D01*
X517500Y1134000D02*
X532250D01*
X658500Y1138750D02*
X673500D01*
X673750Y1139000D01*
X517500Y1151000D02*
X528220D01*
X528276Y1151056D01*
X506000Y1151250D02*
X506194Y1151056D01*
X647000Y1156500D02*
X647750Y1155750D01*
X658500D01*
X485000Y1084250D02*
Y1101000D01*
X484250Y1083500D02*
X485000Y1084250D01*
X467864Y1081886D02*
X481750Y1068000D01*
X487000D01*
X1561000Y1171000D02*
X1588000Y1198000D01*
X1550386Y1183750D02*
X1552136Y1185500D01*
X1558500D01*
X1562750Y1189750D01*
X1213500Y925886D02*
Y938250D01*
X1214000Y842750D02*
Y855364D01*
X1086000Y1289500D02*
X1092000D01*
X1413818Y555682D02*
X1414000Y555500D01*
X739627Y1218250D02*
X743127Y1214750D01*
X556250Y1241500D02*
X579500Y1218250D01*
X739627D01*
X515000Y1223000D02*
X527750Y1210250D01*
X735750D01*
X1637250Y554000D02*
Y559250D01*
X862250Y742750D02*
X864714Y740286D01*
X864792D01*
X424800Y1214700D02*
Y1235000D01*
X1663349Y494890D02*
Y496815D01*
X1663599Y497065D02*
Y525870D01*
X1475500Y569500D02*
X1547168D01*
X1663500Y540469D02*
Y563750D01*
Y540469D02*
X1663599Y540370D01*
X1663349Y496815D02*
X1663599Y497065D01*
X1663613Y614315D02*
Y705136D01*
D47*
X1412500Y867250D02*
X1436500D01*
X1265500Y984500D02*
X1303000D01*
X1297250Y978000D02*
X1297750Y978500D01*
X1255750Y978000D02*
X1297250D01*
X1399250Y867250D02*
X1412500D01*
X1266000Y972500D02*
X1303000D01*
X1183500Y1051250D02*
X1184250Y1052000D01*
X1126250Y1051250D02*
X1183500D01*
X1141250Y1045750D02*
X1178250D01*
X1147000Y1057500D02*
X1164750D01*
X1103250Y1106250D02*
Y1129000D01*
X1096250Y1086500D02*
Y1150750D01*
X1089500Y1106000D02*
Y1143750D01*
X1120750Y1045750D02*
Y1046000D01*
X1123460Y820540D02*
X1123750Y820250D01*
X1121500Y805750D02*
Y818000D01*
X1121250Y761250D02*
X1125250Y765250D01*
X1119750Y761250D02*
X1120500Y762000D01*
X1122750Y755500D02*
Y757500D01*
X1120500Y760500D02*
X1121250Y761250D01*
X1115500Y799750D02*
X1121500Y805750D01*
X1115500Y799750D02*
Y819000D01*
X1110750Y833250D02*
X1123210Y820790D01*
X1115500Y780750D02*
Y793500D01*
Y799750D01*
Y793500D02*
X1121000Y788000D01*
X1109500Y835250D02*
X1110750Y836500D01*
X1109500Y799500D02*
Y821250D01*
X1119250Y776750D02*
X1124250Y771750D01*
X1115500Y780750D02*
X1122750Y788000D01*
X1119250Y763250D02*
Y771750D01*
X1115500Y767000D02*
X1119250Y763250D01*
X1115500Y772750D02*
Y780750D01*
X1269000Y685000D02*
X1270250Y683750D01*
X1241250Y690500D02*
X1277000D01*
X1228750Y685000D02*
X1269000D01*
X1109500Y733000D02*
Y799500D01*
X1240500Y678000D02*
X1277000D01*
X934750Y1233000D02*
X945000Y1243250D01*
X978250Y1104750D02*
Y1146750D01*
X983500Y1090250D02*
Y1139500D01*
X990500Y1123000D02*
Y1136250D01*
X932000Y1243250D02*
X934250D01*
X945000D01*
X931250Y1233000D02*
X934250D01*
X922750Y1241500D02*
X931250Y1233000D01*
X934250D02*
X934750D01*
X934250Y1231750D02*
X946500D01*
X921750D02*
X934250D01*
X887750Y1030750D02*
X888500Y1031500D01*
X905250Y850500D02*
X919000D01*
X827500Y1044000D02*
X847250D01*
X833250Y1037750D02*
X881000D01*
X827750Y1030750D02*
X868250D01*
X705750Y987000D02*
X735750D01*
X721000Y986750D02*
X736500D01*
X817750Y850750D02*
X905250D01*
X827500Y846000D02*
X900750D01*
X826250Y844750D02*
X827500Y846000D01*
X736000Y974000D02*
X736500Y974500D01*
X659000Y980000D02*
X729750D01*
X684250Y981000D02*
X728750D01*
X690000Y986750D02*
X721000D01*
X656500Y987000D02*
X705750D01*
X728750Y981000D02*
X729750Y980000D01*
X673250Y974000D02*
X690250D01*
X987250Y698000D02*
Y733750D01*
X975000Y697750D02*
Y733750D01*
X981000Y686000D02*
Y727000D01*
X975250Y686000D02*
X981000D01*
X878875Y371250D02*
Y396625D01*
X885250Y371250D02*
Y396500D01*
X878875Y371250D02*
X885250D01*
X878875Y361500D02*
Y371250D01*
X872250D02*
Y385750D01*
X734500Y653750D02*
X744750Y664000D01*
X737500Y653500D02*
X747250Y643750D01*
X1265500Y1013000D02*
X1302000D01*
X1256000Y1007000D02*
X1294250D01*
X1265250Y1001250D02*
X1302750D01*
X1241500Y661000D02*
X1272250D01*
X1271000Y655250D02*
X1272250Y656500D01*
X1226250Y655250D02*
X1271000D01*
X1242000Y648500D02*
X1278000D01*
X1103969Y487855D02*
X1113348Y497234D01*
X1102500Y487855D02*
X1111605Y478750D01*
X897750Y1232250D02*
X907500Y1242000D01*
X897750Y1232250D02*
X898000Y1232000D01*
X656500Y1020750D02*
X690500D01*
X662750Y1014750D02*
X735500D01*
X662250Y1014250D02*
X662750Y1014750D01*
X656500Y1008000D02*
X690500D01*
X721500D01*
X958250Y698000D02*
Y734000D01*
X946250Y698250D02*
Y734250D01*
X952250Y691250D02*
Y728000D01*
X821750Y417848D02*
Y418250D01*
Y406250D02*
Y417848D01*
X925224Y1163500D02*
Y1204974D01*
X1115250Y756750D02*
X1119750Y761250D01*
X1122750Y757500D02*
Y758250D01*
X1115500Y767000D02*
Y772750D01*
X1122750Y757500D02*
X1123500Y758250D01*
X1118500Y753250D02*
X1122750Y757500D01*
X1120500Y762000D02*
X1123750Y765250D01*
X1119250Y771750D02*
Y776750D01*
Y761750D02*
Y763250D01*
Y771750D02*
X1124250D01*
X1116500D02*
X1119250D01*
X1115500Y772750D02*
X1116500Y771750D01*
X1110000Y778250D02*
X1115500Y772750D01*
X1113000Y778250D02*
X1115500Y780750D01*
X1109500Y799500D02*
X1115500Y793500D01*
X1109960Y820790D02*
X1123210D01*
X1115250Y799500D02*
X1115500Y799750D01*
X1121250Y761250D02*
X1124250Y758250D01*
X1120500Y762000D02*
X1121250Y761250D01*
X1119250Y763250D02*
X1120500Y762000D01*
X1118500Y758500D02*
X1120500Y760500D01*
X1122750Y758250D01*
X1119750Y761250D02*
X1120500Y760500D01*
X1119250Y761750D02*
X1119750Y761250D01*
X1109500Y733000D02*
X1130400Y753900D01*
X1109500Y835250D02*
Y837000D01*
X1123500Y758250D02*
X1124250D01*
X1118500Y753250D02*
Y758500D01*
X1123750Y765250D02*
X1125250D01*
X1115250Y748000D02*
Y756750D01*
Y748000D02*
X1122750Y755500D01*
X1110000Y778250D02*
X1113000D01*
X1121000Y788000D02*
X1122750D01*
X1109500Y799500D02*
X1115250D01*
X1121500Y818000D02*
X1123750Y820250D01*
X1110750Y833250D02*
Y836500D01*
X1109500Y821250D02*
Y835250D01*
Y821250D02*
X1109960Y820790D01*
X1124500Y804500D02*
Y820345D01*
X1124250Y804250D02*
X1124500Y804500D01*
X1124250Y789000D02*
Y804250D01*
Y779400D02*
Y789000D01*
Y779400D02*
X1130400Y773250D01*
Y756750D02*
Y773250D01*
Y753900D02*
Y756750D01*
X1109250Y732750D02*
X1109500Y733000D01*
X981000Y686000D02*
X987250D01*
X975250D02*
Y697500D01*
Y685500D02*
Y686000D01*
X981000Y727000D02*
X981250Y727250D01*
X987250Y686000D02*
Y698000D01*
X975000Y733750D02*
X987250D01*
X975000Y697750D02*
X975250Y697500D01*
X952250Y691250D02*
X952500Y691000D01*
X953000D01*
X957750Y686250D01*
X946000D02*
X957750D01*
X946000D02*
X946250Y686500D01*
Y698250D01*
Y734250D02*
X946500Y734000D01*
X958250D01*
Y685500D02*
Y698000D01*
X1251500Y1002500D02*
X1256000Y1007000D01*
X1251500Y1002500D02*
Y1013250D01*
X1251750Y1013000D01*
X1265500D01*
X1302000D02*
X1302500Y1013500D01*
X1302750Y1013250D01*
Y1001250D02*
Y1013250D01*
X1251250Y1001250D02*
X1265250D01*
X1251750Y982000D02*
X1255750Y978000D01*
X1251250Y981500D02*
X1251750Y982000D01*
X1251250Y972500D02*
Y981500D01*
Y972500D02*
X1251500Y972750D01*
X1265750D01*
X1266000Y972500D01*
X1303000D02*
Y984500D01*
X1265250Y984250D02*
X1265500Y984500D01*
X1251250Y984250D02*
X1265250D01*
X1225750Y654750D02*
Y660750D01*
Y648750D02*
Y654750D01*
X1272250Y661000D02*
X1277500D01*
X1225750Y654750D02*
X1226250Y655250D01*
X1272250Y656500D02*
Y661000D01*
X1228750Y682250D02*
Y685000D01*
X1225750Y679250D02*
X1228750Y682250D01*
X1225750Y679250D02*
Y691000D01*
X1240750D01*
X1241250Y690500D01*
X1277000D02*
X1277250Y690250D01*
Y677750D02*
Y690250D01*
X1277000Y678000D02*
X1277250Y677750D01*
X1225750Y678000D02*
X1240500D01*
X1241500Y661000D02*
X1241500Y661000D01*
X1241250Y660750D02*
X1241500Y661000D01*
X1225750D02*
X1241500D01*
X1225750Y660750D02*
X1241250D01*
X1225750Y648750D02*
X1241750D01*
X1242000Y648500D01*
X1277750Y648750D02*
X1278000Y648500D01*
X1277750Y648750D02*
Y661250D01*
X1277500Y661000D02*
X1277750Y661250D01*
X721000Y974000D02*
X736000D01*
X736500Y974500D02*
X736750Y974250D01*
Y986500D01*
X735500Y1009250D02*
Y1014750D01*
Y1009250D02*
X735750Y1009000D01*
Y1021000D01*
X735500Y1020750D02*
X735750Y1021000D01*
X721750Y1020750D02*
X735500D01*
X706750D02*
X721750D01*
X706250Y1021250D02*
X706750Y1020750D01*
X705750D02*
X706250Y1021250D01*
X690500Y1020750D02*
X705750D01*
X656250Y1020500D02*
X656500Y1020750D01*
X656000Y1020250D02*
X656250Y1020500D01*
X656000Y1007500D02*
Y1020250D01*
Y1007500D02*
X656500Y1008000D01*
X721500D02*
X721500Y1008000D01*
X735750D01*
X658250Y980750D02*
X659000Y980000D01*
X684250Y981000D02*
X690000Y986750D01*
X736500D02*
X736750Y986500D01*
X705750Y974000D02*
X721000D01*
X690250D02*
X705750D01*
X656250D02*
X673250D01*
X656250D02*
X656500Y974250D01*
Y987000D01*
X900750Y846000D02*
X905250Y850500D01*
X919000D02*
X919750Y851250D01*
Y839500D02*
Y851250D01*
X919500Y839250D02*
X919750Y839500D01*
X901500Y839250D02*
X919500D01*
X884000D02*
X901500D01*
X883750Y839000D02*
X884000Y839250D01*
X867000Y839000D02*
X883750D01*
X849750D02*
X867000D01*
X849500Y838750D02*
X849750Y839000D01*
X834250Y838750D02*
X849500D01*
X834000Y838500D02*
X834250Y838750D01*
X817500Y838500D02*
X834000D01*
X817500D02*
X817750Y838750D01*
Y850750D01*
X817750Y850750D01*
X990500Y1104750D02*
Y1123000D01*
X1120750Y1045750D02*
X1141250D01*
X1120250D02*
X1120750D01*
X1126250Y1051250D01*
X1120750Y1046000D02*
X1131750Y1057000D01*
X1146500D01*
X1147000Y1057500D01*
X1164750D02*
X1177750D01*
X1178000Y1057750D01*
X1188750D01*
X1189000Y1057500D01*
Y1045750D02*
Y1057500D01*
X1178250Y1045750D02*
X1189000D01*
X1089500Y1085000D02*
Y1106000D01*
X1096250Y1086500D02*
X1096750Y1086000D01*
X1096000Y1085250D02*
X1096750Y1086000D01*
X1096000Y1085250D02*
X1099001D01*
X1103304Y1089553D01*
X1103250Y1089607D02*
X1103304Y1089553D01*
X1103250Y1089607D02*
Y1106250D01*
X1103000Y1129250D02*
X1103250Y1129000D01*
X1102750Y1129500D02*
X1103000Y1129250D01*
X1102750Y1129500D02*
Y1144000D01*
X1102500Y1144250D02*
X1102750Y1144000D01*
X1102500Y1144250D02*
Y1156250D01*
X1089500D02*
X1102500D01*
X1089500Y1143750D02*
Y1156250D01*
X978250Y1089750D02*
Y1104750D01*
X983500Y1139500D02*
X984000Y1140000D01*
X983500Y1090250D02*
X990500D01*
Y1104750D01*
Y1136250D02*
X990650Y1136400D01*
Y1147000D01*
X978500D02*
X990650D01*
X978250Y1146750D02*
X978500Y1147000D01*
X887750Y1030750D02*
X888250D01*
X868250D02*
X887750D01*
X833000Y1038000D02*
X833250Y1037750D01*
X881000Y1037500D02*
Y1037750D01*
Y1037500D02*
X887750Y1030750D01*
X888500Y1031500D02*
Y1044250D01*
X868500D02*
X888500D01*
X847500D02*
X868500D01*
X847250Y1044000D02*
X847500Y1044250D01*
X827500Y1044000D02*
X827750Y1043750D01*
Y1030750D02*
Y1043750D01*
X908500Y1224250D02*
X912000Y1220750D01*
X908500Y1224250D02*
Y1232000D01*
X933750Y1257750D02*
X934250Y1257250D01*
Y1244750D02*
Y1257250D01*
X907500Y1242000D02*
Y1243250D01*
X898000Y1232000D02*
X908500D01*
Y1245000D01*
X908250Y1244750D02*
X908500Y1245000D01*
X896750Y1244750D02*
X908250D01*
X896750D02*
X897000Y1244500D01*
Y1231000D02*
Y1244500D01*
X934250Y1243250D02*
Y1244750D01*
Y1233000D02*
Y1243250D01*
Y1231750D02*
Y1233000D01*
Y1231136D02*
Y1231750D01*
X932000Y1243250D02*
X933000Y1244250D01*
X921750D02*
X933000D01*
X921750Y1231750D02*
Y1244250D01*
X946250Y1232000D02*
X946500Y1231750D01*
X946250Y1232000D02*
Y1244750D01*
X934250D02*
X946250D01*
X896780Y1213644D02*
X897000Y1213864D01*
X931500Y1146500D02*
Y1157224D01*
X925224Y1152776D02*
X931500Y1146500D01*
X922500Y1116750D02*
X931500Y1125750D01*
X922500Y1116750D02*
Y1138000D01*
X905500Y1116750D02*
Y1138000D01*
X896780Y1125470D02*
X905500Y1116750D01*
Y1138000D02*
Y1154780D01*
X925224Y1204974D02*
X934250Y1214000D01*
X922500Y1138000D02*
Y1160776D01*
X878875Y361500D02*
X885250D01*
X872500D02*
X878875D01*
X878750Y396750D02*
X885000D01*
X872250D02*
X878750D01*
X872250Y371250D02*
X878875D01*
X878750Y396750D02*
X878875Y396625D01*
X872250Y361250D02*
X872500Y361500D01*
X872250Y361250D02*
Y371250D01*
Y385750D02*
Y396750D01*
X885000D02*
X885250Y396500D01*
Y361500D02*
Y371250D01*
X1113348Y478750D02*
Y488750D01*
Y497234D01*
X1412500Y867250D02*
Y881250D01*
Y862500D02*
Y867250D01*
X1412000Y881750D02*
X1412500Y881250D01*
X1399250Y867250D02*
X1399250Y867250D01*
X1351426Y855500D02*
X1363676Y843250D01*
X1123000Y444250D02*
Y456574D01*
Y444250D02*
X1129827Y437423D01*
X1153000D01*
X764250Y617950D02*
X768500Y613700D01*
Y482300D02*
Y613700D01*
X747250Y643750D02*
Y664000D01*
X747000Y643500D02*
X747250Y643750D01*
X734500Y664250D02*
X734750Y664000D01*
X734500Y653750D02*
Y664250D01*
X734250Y653500D02*
X734500Y653750D01*
X734250Y643250D02*
Y653500D01*
X734000Y643000D02*
X734250Y643250D01*
X734000Y643000D02*
X746500D01*
X747000Y643500D01*
X734250Y653500D02*
X737500D01*
X744750Y664000D02*
X747250D01*
X734750D02*
X744750D01*
X895250Y427500D02*
X902250Y420500D01*
X888750Y427500D02*
X895250D01*
X844676D02*
X871614D01*
X809250Y418000D02*
X809402Y417848D01*
X821500Y418000D02*
X821750Y418250D01*
X809402Y417848D02*
X821750D01*
X822500D01*
X800250Y418000D02*
X809250D01*
X821500D01*
X903250Y370000D02*
X914000D01*
X902250Y369000D02*
X903250Y370000D01*
X902250Y361500D02*
Y369000D01*
Y384000D01*
X914000Y370000D02*
Y372250D01*
X902750Y361000D02*
X914000D01*
X902250Y361500D02*
X902750Y361000D01*
X914000D02*
Y370000D01*
Y372250D02*
Y379250D01*
Y384000D01*
X768500Y431500D02*
Y445000D01*
X768250Y445250D02*
X768500Y445000D01*
X902250Y384000D02*
Y420500D01*
X1113348Y497234D02*
X1114864Y498750D01*
X1113098Y489000D02*
X1113348Y488750D01*
X1104000Y498750D02*
X1114864D01*
X1102500Y497250D02*
X1104000Y498750D01*
X1102500Y478250D02*
Y487855D01*
Y497250D01*
Y478250D02*
X1112848D01*
X1113348Y478750D01*
X1111605D02*
X1113348D01*
X1102500Y487855D02*
X1103969D01*
X1124305Y820540D02*
X1124500Y820345D01*
X1123805Y820540D02*
X1124305D01*
X1123210Y820790D02*
X1123460Y820540D01*
X1123805D01*
X896780Y1125470D02*
Y1163500D01*
X905500Y1154780D01*
X896780Y1163500D02*
Y1213644D01*
X905500Y1204924D01*
Y1154780D02*
Y1204924D01*
X764250Y617950D02*
Y664000D01*
X922500Y1160776D02*
X925224Y1163500D01*
Y1152776D02*
Y1163500D01*
X931500Y1157224D01*
X925224Y1163500D02*
X934250Y1172526D01*
X931500Y1125750D02*
Y1146500D01*
Y1157224D02*
X934250Y1159974D01*
Y1172526D01*
Y1214000D01*
X1363676Y843250D02*
X1436500D01*
X902250Y384000D02*
X914000Y372250D01*
X902250Y384000D02*
X914000D01*
D48*
X1663500Y570250D02*
X1684750D01*
X1355006Y544506D02*
X1374198D01*
X1680500Y570000D02*
X1686750D01*
X1687250Y570500D01*
X1399000Y540750D02*
X1401000D01*
X1390000D02*
X1391500D01*
X1399000D01*
X1400000Y539750D01*
X1401000Y540750D01*
X1386244Y544506D02*
X1390000Y540750D01*
X1374198Y544506D02*
X1386244D01*
X1355000Y544500D02*
X1355006Y544506D01*
X1453000Y585000D02*
X1458250Y590250D01*
X1453000Y580000D02*
Y585000D01*
X1653500Y570250D02*
X1663500D01*
X297350Y1159600D02*
X298750Y1161000D01*
X297350Y1133000D02*
Y1159600D01*
X1624250Y570250D02*
X1641500D01*
X800000Y260000D02*
X1790000Y360000D01*
Y1240000D01*
X210000Y260000D02*
X800000D01*
Y1340000D02*
X1790000Y1240000D01*
X210000Y1340000D02*
X800000D01*
X210000Y260000D02*
Y1340000D01*
D49*
X472500Y727500D02*
X476000Y724000D01*
X1167998Y556999D02*
Y557248D01*
X1165750Y554751D02*
X1167998Y556999D01*
X1159000Y565250D02*
X1165000Y571250D01*
X1159000Y489000D02*
Y565250D01*
Y489000D02*
X1188000Y460000D01*
X1200500D01*
X1165750Y491750D02*
Y554751D01*
X1165000Y491000D02*
X1165750Y491750D01*
X1165000Y491000D02*
X1181000Y475000D01*
X1200500D01*
X675250Y807000D02*
X689750D01*
X1099750Y329500D02*
X1154750Y384500D01*
X796750Y329500D02*
X1099750D01*
X1154750Y384500D02*
Y394750D01*
X830750Y336500D02*
X1094463D01*
X1117250Y359287D01*
Y428500D01*
X1154750Y394750D02*
X1432636D01*
X1087750Y921250D02*
X1124500D01*
X1181000Y542750D02*
Y726250D01*
X1151750Y616250D02*
Y914000D01*
X1134500Y599000D02*
X1151750Y616250D01*
X1100250Y599000D02*
X1134500D01*
X1232886Y492500D02*
X1254000D01*
X1234000Y481500D02*
X1254000D01*
X1637250Y559250D02*
Y561750D01*
X1639250Y563750D01*
X1641500D01*
X1637250Y559250D02*
X1641500Y563500D01*
X1234500Y804000D02*
X1235600Y802900D01*
Y772930D02*
Y802900D01*
X1477750Y867500D02*
X1488500Y856750D01*
Y829500D02*
Y856750D01*
X1464250Y805250D02*
X1488500Y829500D01*
X1234500Y804000D02*
X1235750D01*
X1252750Y821000D01*
X1466500D01*
X1478000Y832500D01*
Y843250D01*
X527500Y498000D02*
X711500Y682000D01*
X527500Y445000D02*
Y498000D01*
X547500Y503750D02*
X719000Y675250D01*
X547500Y445000D02*
Y503750D01*
X467500Y445000D02*
Y492500D01*
X643250Y668250D01*
X1212500Y770750D02*
Y809000D01*
X1185250Y743500D02*
X1212500Y770750D01*
X1202500Y780750D02*
Y814500D01*
X1188250Y766500D02*
X1202500Y780750D01*
X597000Y963000D02*
X756500D01*
X786500Y993000D01*
X846500Y991250D02*
X936750D01*
X804000Y948750D02*
X846500Y991250D01*
X616750Y948750D02*
X804000D01*
X555000Y921000D02*
X597000Y963000D01*
X604500Y958500D02*
X774000D01*
X561000Y915000D02*
X604500Y958500D01*
X774000D02*
X798500Y983000D01*
X789500Y953250D02*
X809250Y973000D01*
X610250Y953250D02*
X789500D01*
X567250Y910250D02*
X610250Y953250D01*
X574000Y906000D02*
X616750Y948750D01*
X623750Y944250D02*
X877500D01*
X893500Y960250D01*
X1007000Y982750D02*
X1007500Y983250D01*
X1466886Y981636D02*
X1485250Y963272D01*
Y934750D02*
Y963272D01*
X1466000Y915500D02*
X1485250Y934750D01*
X1303500Y915500D02*
X1466000D01*
X1202500Y814500D02*
X1303500Y915500D01*
X1185250Y766500D02*
X1188250D01*
X1012250Y858750D02*
Y870750D01*
X1003750Y850250D02*
X1012250Y858750D01*
X1022250Y857500D02*
X1030000Y849750D01*
X1022250Y857500D02*
Y870750D01*
X1017250Y851000D02*
X1018500Y849750D01*
X1017250Y851000D02*
Y870750D01*
X1032750Y885898D02*
Y891000D01*
X1032250Y870750D02*
Y885398D01*
X1032750Y885898D01*
X961500Y951250D02*
X967500Y945250D01*
X1009250Y968250D02*
X1054000D01*
X995750Y981750D02*
X1009250Y968250D01*
X961500Y981750D02*
X995750D01*
X1007950Y962050D02*
X1062250D01*
X993000Y977000D02*
X1007950Y962050D01*
X1007250Y955500D02*
X1054000D01*
X990750Y972000D02*
X1007250Y955500D01*
X975000Y961250D02*
X994000Y942250D01*
X1062250Y949000D02*
X1063750D01*
X991000Y937500D02*
X1072000D01*
X980000Y966250D02*
X998000Y948250D01*
X1104250Y951250D02*
X1123500Y970500D01*
X1107500Y976250D02*
X1108500Y975250D01*
X1009000Y1004250D02*
X1046750D01*
X1007500Y1002750D02*
X1009000Y1004250D01*
X1046750D02*
X1052250Y1009750D01*
Y1021750D01*
X1087750Y886250D02*
X1128000D01*
X1002250Y870750D02*
Y897250D01*
X992250Y870750D02*
Y886000D01*
X936750Y1006250D02*
Y1013750D01*
Y966250D02*
X980000D01*
X967250Y1021750D02*
Y1048750D01*
Y1021750D02*
X972250D01*
X977250D02*
Y1046250D01*
X1087750Y986250D02*
X1136000D01*
X1057250Y870750D02*
Y884750D01*
X936750Y901250D02*
X957250D01*
X936750Y956250D02*
X972250D01*
X1002250Y1021750D02*
Y1041250D01*
X1087750Y951250D02*
X1104250D01*
X936750Y961250D02*
X975000D01*
X936750Y986250D02*
X957000D01*
X1007250Y1021750D02*
Y1036000D01*
X997250Y870750D02*
Y889750D01*
X936750Y896250D02*
X960500D01*
X997250Y1021750D02*
Y1036000D01*
X1087750Y976250D02*
X1107500D01*
X1087750Y941250D02*
X1124500D01*
X957500Y1022000D02*
Y1043500D01*
X1027250Y1021750D02*
Y1031500D01*
X1087750Y1001250D02*
X1100853D01*
X936750Y951250D02*
X961500D01*
X952250Y1021750D02*
Y1032750D01*
X962250Y1021750D02*
Y1046000D01*
X992250Y1021750D02*
Y1033750D01*
X1087750Y936250D02*
X1119750D01*
X987250Y870750D02*
Y882500D01*
Y996250D02*
Y1021750D01*
X972250Y956250D02*
X991000Y937500D01*
X957000Y986250D02*
X961500Y981750D01*
X923000Y616750D02*
X1013750D01*
X838500Y532250D02*
X923000Y616750D01*
X838500Y453000D02*
Y457750D01*
X822500Y437000D02*
X838500Y453000D01*
X1136000Y986250D02*
X1167000Y955250D01*
X1202750Y512750D02*
X1234000Y481500D01*
X1137500Y514250D02*
Y576750D01*
X1175750Y615000D01*
X1478000Y843250D02*
X1478000Y843250D01*
X1460500Y843250D02*
X1478000D01*
X1477500Y867250D02*
X1477750Y867500D01*
X1460500Y867250D02*
X1477500D01*
X905500Y1110500D02*
X967250Y1048750D01*
X905500Y1110500D02*
Y1116750D01*
X925500Y1082750D02*
X962250Y1046000D01*
X887000Y1082750D02*
X925500D01*
X922500Y1101000D02*
Y1116750D01*
X675000Y880750D02*
Y897000D01*
Y878750D02*
Y880750D01*
Y924250D02*
Y924500D01*
Y897000D02*
Y924250D01*
X674750Y924750D02*
X675000Y924500D01*
Y878750D02*
X675250Y878500D01*
X718250Y865750D02*
X718500Y865500D01*
X735250D01*
X692250Y872000D02*
X692250Y872000D01*
X675250Y872000D02*
X692250D01*
X689750Y807000D02*
X690000Y806750D01*
X690000Y813500D02*
X690250Y813250D01*
X675250Y813500D02*
X690000D01*
X718750Y813750D02*
X719000Y813500D01*
X735250D01*
X718750Y807000D02*
X718750Y807000D01*
X735250D01*
X1044000Y698000D02*
Y707500D01*
X574000Y812000D02*
Y906000D01*
X555000Y825500D02*
Y921000D01*
X549500Y820000D02*
X555000Y825500D01*
X561000Y821000D02*
Y915000D01*
X552000Y812000D02*
X561000Y821000D01*
X558000Y796000D02*
X574000Y812000D01*
X525000Y796000D02*
X558000D01*
X567250Y815000D02*
Y910250D01*
X556250Y804000D02*
X567250Y815000D01*
X525000Y804000D02*
X556250D01*
X525000Y812000D02*
X552000D01*
X525000Y820000D02*
X549500D01*
X525000Y732000D02*
X572000D01*
X1057250Y1003834D02*
Y1021750D01*
Y1003834D02*
X1057350Y1003734D01*
X957250Y1021750D02*
X957500Y1022000D01*
X949250Y1051750D02*
X957500Y1043500D01*
X948750Y1036250D02*
X952250Y1032750D01*
X926750Y1036250D02*
X948750D01*
X928500Y1022000D02*
X936750Y1013750D01*
X450000Y725000D02*
X452500Y727500D01*
X472500D01*
X476000Y724000D02*
X525000D01*
X475000Y828000D02*
X525000D01*
X475000Y780000D02*
X525000D01*
X353750Y389250D02*
Y445500D01*
Y389250D02*
X354000Y389000D01*
Y375800D02*
Y389000D01*
X339200Y361000D02*
X354000Y375800D01*
X501636Y360314D02*
Y413500D01*
Y360314D02*
X501700Y360250D01*
X461750Y413500D02*
X484500D01*
X445750Y420000D02*
X446250D01*
X467500Y441250D01*
Y445000D01*
X425250Y421250D02*
X444500D01*
X445750Y420000D01*
X425250Y404114D02*
X442864D01*
X445750Y407000D01*
X487500Y665000D02*
Y673750D01*
X496750Y683000D01*
X407500Y665000D02*
X408250Y665750D01*
Y679750D01*
X418000Y689500D01*
X525000Y788000D02*
X559750D01*
X597750Y873250D02*
X613750D01*
X600348Y854098D02*
X613750D01*
X602000Y820000D02*
X613000D01*
X606598Y800848D02*
X613000D01*
X597750Y767250D02*
X613000D01*
X570500Y740000D02*
X597750Y767250D01*
X525000Y740000D02*
X570500D01*
X572000Y732000D02*
X588098Y748098D01*
X613000D01*
X525000Y772000D02*
X561000D01*
X525000Y764000D02*
X563000D01*
X525000Y756000D02*
X565500D01*
X525000Y748000D02*
X568750D01*
X639958Y873250D02*
X652250D01*
X660000Y865500D01*
X675250D01*
X639208Y820000D02*
X644750D01*
X658250Y852500D02*
X675250D01*
X659750Y846000D02*
X675250D01*
X646902Y800848D02*
X647000Y800750D01*
X639208Y800848D02*
X646902D01*
X644750Y820000D02*
X647400Y822650D01*
Y841650D01*
X658250Y852500D01*
X662000Y839500D02*
X675250D01*
X639208Y767250D02*
X642000D01*
X639208Y748098D02*
X649098D01*
X665500Y833000D02*
X675250D01*
X1330000Y1241500D02*
X1330250Y1241750D01*
X1310250Y1241500D02*
X1330000D01*
X1306750Y1238000D02*
X1310250Y1241500D01*
X1385500Y1239000D02*
X1389000Y1242500D01*
X1411250D01*
X1411500Y1242250D01*
X1306750Y1211500D02*
Y1220864D01*
X1302500Y1207250D02*
X1306750Y1211500D01*
X1273000Y1207250D02*
X1302500D01*
X1267750Y1202000D02*
X1273000Y1207250D01*
X1267750Y1191750D02*
Y1202000D01*
Y1191750D02*
X1280250D01*
X1280500Y1191500D01*
X1255136Y1191750D02*
X1267750D01*
X1254886Y1191500D02*
X1255136Y1191750D01*
X1267500Y1156250D02*
Y1164000D01*
X1270750Y1153000D02*
X1307250D01*
X1311500Y1157250D01*
Y1186250D01*
X1347114Y1221864D01*
X1385500D01*
X1255136Y1164000D02*
X1267500D01*
X1280500D01*
X1130400Y1199100D02*
Y1207500D01*
X1105000Y1203750D02*
Y1207500D01*
X1168750Y1235136D02*
Y1256324D01*
Y1235136D02*
X1169136Y1234750D01*
X1121500Y1238136D02*
Y1262324D01*
Y1238136D02*
X1121886Y1237750D01*
X1076500Y1248886D02*
Y1267324D01*
X1030000Y1251386D02*
Y1271574D01*
X1029500Y1250886D02*
X1030000Y1251386D01*
X1130400Y1207500D02*
Y1221400D01*
X1143750Y1234750D01*
X1152000D01*
X1104750Y1207750D02*
Y1237750D01*
Y1207750D02*
X1105000Y1207500D01*
X1076500Y1210600D02*
Y1231750D01*
Y1210600D02*
X1079600Y1207500D01*
X1029500Y1232200D02*
Y1233750D01*
Y1232200D02*
X1054200Y1207500D01*
X1012750Y1250886D02*
X1029500D01*
X1516750Y1183750D02*
X1533250D01*
X1533500Y1184000D02*
Y1203750D01*
X1533250Y1183750D02*
X1533500Y1184000D01*
X827250Y1204750D02*
X827750D01*
X816500Y1215500D02*
X827250Y1204750D01*
X807000Y1215500D02*
X816500D01*
X806250Y1214750D02*
X807000Y1215500D01*
X806000Y1195750D02*
X818250D01*
X827250Y1204750D01*
X807000Y1247500D02*
X826250D01*
X827000Y1246750D01*
X806500Y1248000D02*
Y1266750D01*
Y1248000D02*
X807000Y1247500D01*
X843000Y1240250D02*
X849250D01*
X853750Y1235750D01*
X862750D01*
X864000Y1237000D01*
X844000Y1182750D02*
Y1198000D01*
X843750Y1198250D02*
X844000Y1198000D01*
X864500Y1236500D02*
X880000D01*
X864000Y1237000D02*
X864500Y1236500D01*
X993500Y1039750D02*
Y1049750D01*
Y1039750D02*
X997250Y1036000D01*
X1001500Y1042000D02*
X1002250Y1041250D01*
X575300Y359000D02*
Y369800D01*
X584750Y379250D01*
X788000D01*
X830750Y336500D01*
X685700Y359000D02*
X710450Y334250D01*
X719500D01*
X724750Y339500D01*
Y347864D01*
X763500Y349250D02*
X764750D01*
X770250Y343750D01*
X782500D01*
X724750Y365000D02*
X736000D01*
X745250Y355750D01*
X747500D01*
X782500Y343750D02*
X796750Y329500D01*
X1374198Y459500D02*
X1388250D01*
X1390500Y457250D01*
X1445250D01*
X1464750Y437750D01*
X1425250Y442500D02*
X1438750Y429000D01*
X1374198Y448500D02*
X1387000D01*
X1393000Y442500D01*
X1425250D01*
X1464750Y418500D02*
Y437750D01*
X1464500Y418250D02*
X1464750Y418500D01*
X1464500Y418000D02*
Y418250D01*
X1267250Y1178500D02*
Y1191250D01*
X1267750Y1191750D01*
X735250Y852500D02*
X763000D01*
X735250Y859000D02*
X752750D01*
X759000Y865250D01*
X763000Y852500D02*
X766500Y856000D01*
X794000Y780000D02*
X795250Y781250D01*
X793500Y734550D02*
Y779500D01*
X794000Y780000D01*
X793500Y721850D02*
X812600D01*
X818250Y727500D01*
Y767000D01*
X831000Y779750D01*
X845662Y696450D02*
X870700D01*
X892500Y718250D01*
Y731000D01*
X845662Y709150D02*
X861900D01*
X795250Y781250D02*
Y795250D01*
X802750Y802750D01*
X793150Y709500D02*
X793500Y709150D01*
X845662Y721850D02*
X863400D01*
X863500Y721750D01*
X773500Y709500D02*
X793150D01*
X883500Y971250D02*
X936750D01*
X881750Y973000D02*
X883500Y971250D01*
X877750Y682000D02*
X921250Y725500D01*
X802750Y802750D02*
X895500D01*
X952250Y859500D01*
Y870750D01*
X957250Y857500D02*
Y870750D01*
X892500Y731000D02*
X910500Y749000D01*
X892000Y780500D02*
Y792250D01*
X957250Y857500D01*
X908500Y798750D02*
X962250Y852500D01*
Y870750D01*
X910500Y749000D02*
Y790250D01*
X967250Y847000D01*
Y870750D01*
X921250Y725500D02*
Y788750D01*
X972250Y839750D01*
Y870750D01*
X719000Y675250D02*
X880250D01*
X929250Y724250D01*
Y788250D02*
X977250Y836250D01*
Y870750D01*
X990750Y896250D02*
X997250Y889750D01*
X796000Y822500D02*
X796500D01*
X982250Y886500D02*
X983250D01*
X987250Y882500D01*
X445500Y395750D02*
X445750Y396000D01*
X874864Y314136D02*
X892500D01*
X874750Y314250D02*
X874864Y314136D01*
X823300Y368000D02*
Y385050D01*
X844750Y406500D01*
Y427426D01*
X844676Y427500D02*
X844750Y427426D01*
X768500Y399250D02*
Y414364D01*
X713000Y365000D02*
X724750D01*
X709250Y368750D02*
X713000Y365000D01*
X602000Y397750D02*
X602000D01*
X602250Y398000D01*
Y410000D01*
X624250Y397750D02*
Y410364D01*
Y397750D02*
X624500Y397500D01*
X1117375Y428375D02*
X1128000Y439000D01*
X843750Y1198250D02*
X852500D01*
X854000Y1196750D01*
X863136D01*
X863250Y1196864D01*
X1204636Y520750D02*
X1232886Y492500D01*
X545250Y1059250D02*
Y1071000D01*
X533500Y1047500D02*
X545250Y1059250D01*
X532250Y1063500D02*
Y1071000D01*
X516500Y1047750D02*
X532250Y1063500D01*
X516500Y1047500D02*
Y1047750D01*
X551750Y1049750D02*
Y1071000D01*
Y1049750D02*
X554000Y1047500D01*
X558250Y1061500D02*
Y1071000D01*
Y1061500D02*
X571000Y1048750D01*
Y1047500D02*
Y1048750D01*
X564750Y1071000D02*
Y1083500D01*
X574000Y1092750D01*
X597500D01*
X515500Y1091000D02*
X532500D01*
X538750Y1084750D01*
Y1071000D02*
Y1084750D01*
Y1134000D02*
Y1146250D01*
X533944Y1151056D02*
X538750Y1146250D01*
X528276Y1151056D02*
X533944D01*
X373500Y465250D02*
X393500D01*
X353750Y445500D02*
X373500Y465250D01*
X923250Y1001250D02*
X936750D01*
X920500Y1004000D02*
X923250Y1001250D01*
X1067250Y859250D02*
Y870750D01*
Y859250D02*
X1072500Y854000D01*
X1027250Y1031500D02*
X1034051Y1038301D01*
X1035051D01*
X922500Y1101000D02*
X977250Y1046250D01*
X1180500Y523864D02*
X1191614Y512750D01*
X1202750D01*
X1132500Y478750D02*
Y498250D01*
X1132000Y498750D02*
X1132500Y498250D01*
X1374198Y522662D02*
X1392588D01*
X1490000Y425250D01*
Y417750D02*
Y425250D01*
X1144500Y638500D02*
Y911500D01*
X1119750Y936250D02*
X1144500Y911500D01*
X1083250Y616000D02*
X1100250Y599000D01*
X1124500Y941250D02*
X1151750Y914000D01*
X1044750Y615750D02*
X1072000Y588500D01*
X1132250D01*
X1167000Y623250D01*
Y955250D01*
X1160500Y629250D02*
Y953000D01*
X1160000Y628250D02*
X1160500Y629250D01*
X1007250Y1036000D02*
X1010250Y1039000D01*
Y1048500D01*
X998250Y1236386D02*
X1012750Y1250886D01*
X1464250Y380500D02*
Y400614D01*
X1464500Y400864D01*
X957250Y901250D02*
X985625Y929625D01*
X985500Y929750D02*
X985625Y929625D01*
X960500Y896250D02*
X986750Y922500D01*
X1213250Y897250D02*
X1213500Y897500D01*
X1213750Y883500D02*
X1214000Y883250D01*
X1213500Y897500D02*
Y908750D01*
Y911000D01*
X1214000Y872500D02*
Y883250D01*
X1081500Y877000D02*
X1119250D01*
X1119750Y877500D01*
X1490000Y380000D02*
Y400614D01*
X1489500Y379500D02*
X1490000Y380000D01*
X1002250Y897250D02*
X1002500Y897500D01*
X972000Y887170D02*
X977830Y893000D01*
X985250D01*
X992250Y886000D01*
X1512750Y1075000D02*
X1538000D01*
X1511750Y1074000D02*
X1512750Y1075000D01*
X1382062Y965136D02*
X1393636D01*
X1393750Y965250D01*
X1404864Y952636D02*
X1415250D01*
X1404750Y952750D02*
X1404864Y952636D01*
X1404864Y985364D02*
X1415250D01*
X1404750Y985250D02*
X1404864Y985364D01*
X1404659Y1018091D02*
X1415250D01*
X1404250Y1018500D02*
X1404659Y1018091D01*
X1404568Y1050818D02*
X1415250D01*
X1404250Y1050500D02*
X1404568Y1050818D01*
X1403295Y1083545D02*
X1415250D01*
X1403250Y1083500D02*
X1403295Y1083545D01*
X1403386Y1099636D02*
X1415250D01*
X1403250Y1099500D02*
X1403386Y1099636D01*
X1403864Y1132636D02*
X1415250D01*
X1403500Y1133000D02*
X1403864Y1132636D01*
X1403273Y1116273D02*
X1415250D01*
X1403250Y1116250D02*
X1403273Y1116273D01*
X1403568Y1067182D02*
X1415250D01*
X1403250Y1067500D02*
X1403568Y1067182D01*
X1403795Y1034454D02*
X1415250D01*
X1403750Y1034500D02*
X1403795Y1034454D01*
X1404273Y1001727D02*
X1415250D01*
X1404000Y1002000D02*
X1404273Y1001727D01*
X1406366Y969000D02*
X1415250D01*
X1382062Y999136D02*
X1394114D01*
X1394500Y998750D01*
X1382062Y1033136D02*
X1394114D01*
X1394250Y1033000D01*
X1382062Y1067136D02*
X1394364D01*
X1394500Y1067000D01*
X1382062Y1100136D02*
X1394386D01*
X1394750Y1100500D01*
X1382062Y1133136D02*
X1394364D01*
X1394500Y1133000D01*
X1346864Y974636D02*
X1359886D01*
X1346500Y975000D02*
X1346864Y974636D01*
X1346364Y1008636D02*
X1359886D01*
X1346000Y1009000D02*
X1346364Y1008636D01*
X1346364Y1042636D02*
X1359886D01*
X1346000Y1043000D02*
X1346364Y1042636D01*
X1346114Y1076636D02*
X1359886D01*
X1346000Y1076750D02*
X1346114Y1076636D01*
X1346864Y1109636D02*
X1359886D01*
X1346500Y1110000D02*
X1346864Y1109636D01*
X1346364Y1142636D02*
X1359886D01*
X1346250Y1142750D02*
X1346364Y1142636D01*
X1590900Y1141900D02*
Y1165000D01*
X1590500Y1141500D02*
X1590900Y1141900D01*
X1616300Y1141050D02*
Y1165000D01*
X1616250Y1141000D02*
X1616300Y1141050D01*
X1328500Y864250D02*
X1329250Y865000D01*
X1493000Y1073750D02*
X1493250Y1074000D01*
X1511750D01*
X1175750Y615000D02*
Y954750D01*
X1132000Y508500D02*
X1137500Y514000D01*
X1132000Y498750D02*
Y508500D01*
X1183000Y886250D02*
Y982250D01*
X1169136Y1147662D02*
Y1234750D01*
Y1147662D02*
X1207850Y1108948D01*
Y998850D02*
Y1108948D01*
X1191000Y982000D02*
X1207850Y998850D01*
X1191000Y781000D02*
Y982000D01*
X1186750Y776750D02*
X1191000Y781000D01*
X1076500Y1248886D02*
X1086864D01*
X1092250Y1243500D01*
Y1184000D02*
Y1243500D01*
Y1184000D02*
X1123000Y1153250D01*
Y1072250D02*
Y1153250D01*
X1494636Y1183750D02*
X1516750D01*
X1493636Y1182750D02*
X1494636Y1183750D01*
X1347750Y1182750D02*
X1476500D01*
X1305750Y1140750D02*
X1347750Y1182750D01*
X1209000Y1140750D02*
X1305750D01*
X1180000Y1169750D02*
X1209000Y1140750D01*
X998250Y1169000D02*
Y1236386D01*
X487500Y445000D02*
Y501000D01*
X642750Y656250D01*
X653250D01*
X1118000Y1189750D02*
Y1234636D01*
X1183000Y982250D02*
X1201500Y1000750D01*
Y1106250D01*
X1118000Y1189750D02*
X1201500Y1106250D01*
X1201250Y542250D02*
Y738580D01*
X1235600Y772930D01*
X445750Y396000D02*
Y407000D01*
X1432636Y394750D02*
X1439250Y401364D01*
X1018500Y908750D02*
X1045500D01*
X1057250Y911250D02*
X1087750D01*
X1045500Y908750D02*
X1053000Y916250D01*
X1087750D01*
X986750Y922500D02*
X1071500D01*
X1072000Y937500D02*
X1072500Y938000D01*
X1069954Y945546D02*
X1072802D01*
X994000Y942250D02*
X1066658D01*
X1069954Y945546D01*
X1122750Y971250D02*
X1123500Y970500D01*
X948801Y1051301D02*
X949250Y1051750D01*
X922795Y1051301D02*
X948801D01*
X1013750Y616750D02*
X1138750Y741750D01*
Y907000D01*
X1124500Y921250D02*
X1138750Y907000D01*
X1026500Y902750D02*
X1048750D01*
X1057250Y911250D01*
X936750Y976250D02*
X950750D01*
X955000Y972000D01*
X990750D01*
X936750Y981250D02*
X953500D01*
X957750Y977000D01*
X993000D01*
X735250Y839500D02*
X769371D01*
X735250Y846000D02*
X768500D01*
X776500Y854000D01*
Y883000D01*
X829750Y936250D01*
X936750D01*
X791250Y875750D02*
X826750Y911250D01*
X936750D01*
X994750Y999750D02*
X998750Y995750D01*
X987250Y996250D02*
X992250Y991250D01*
X1122750Y971250D02*
Y975500D01*
X1088000Y981500D02*
X1132000D01*
X1087750Y981250D02*
X1088000Y981500D01*
X1132000D02*
X1160500Y953000D01*
X1100853Y1001250D02*
X1101554Y1000549D01*
X1025050Y901300D02*
X1026500Y902750D01*
X1025050Y900794D02*
Y901300D01*
X1026750Y871250D02*
X1027250Y870750D01*
X1026750Y871250D02*
Y884750D01*
X1025500Y886000D02*
Y891750D01*
Y886000D02*
X1026750Y884750D01*
X1404750Y970616D02*
X1406366Y969000D01*
X1404750Y970616D02*
Y971250D01*
X791250Y847250D02*
Y875750D01*
X735250Y826500D02*
X770500D01*
X791250Y847250D01*
X735250Y833000D02*
X770500D01*
X769371Y839500D02*
X781200Y851329D01*
Y880395D01*
X827055Y926250D01*
X936750D01*
X770500Y833000D02*
X785983Y848483D01*
Y877733D01*
X824500Y916250D01*
X936750D01*
X1181000Y726250D02*
X1228500Y773750D01*
Y776500D01*
X1212500Y809000D02*
X1306250Y902750D01*
X1471000D01*
X1496000Y927750D01*
Y1003322D01*
X1466886Y1032436D02*
X1496000Y1003322D01*
X999750Y1059000D02*
X1010250Y1048500D01*
X999750Y1059000D02*
Y1167500D01*
X998250Y1169000D02*
X999750Y1167500D01*
X986500Y1058750D02*
X986500Y1058750D01*
X986500Y1039500D02*
X992250Y1033750D01*
X986500Y1039500D02*
Y1058750D01*
X649098Y748098D02*
X662000Y761000D01*
Y829500D01*
X665500Y833000D01*
X652250Y838500D02*
X659750Y846000D01*
X647000Y800750D02*
X652250Y806000D01*
Y838500D01*
X642000Y767250D02*
X657250Y782500D01*
Y834750D01*
X662000Y839500D01*
X639958Y854098D02*
X651848D01*
X656750Y859000D01*
X675250D01*
X580500Y901000D02*
X623750Y944250D01*
X559750Y788000D02*
X580500Y808750D01*
Y901000D01*
X587000Y862500D02*
X597750Y873250D01*
X561000Y772000D02*
X587000Y798000D01*
Y862500D01*
X565500Y756000D02*
X597500Y788000D01*
Y815500D01*
X602000Y820000D01*
Y796250D02*
X606598Y800848D01*
X602000Y781250D02*
Y796250D01*
X568750Y748000D02*
X602000Y781250D01*
X563000Y764000D02*
X592250Y793250D01*
Y846000D01*
X600348Y854098D01*
X772600Y787350D02*
X797250Y812000D01*
X766750Y793250D02*
X796000Y822500D01*
X861900Y709150D02*
X875250Y722500D01*
Y763750D01*
X892000Y780500D01*
X985500Y929750D02*
X985795Y930045D01*
X1069552D01*
X998750Y995750D02*
X1049366D01*
X1057350Y1003734D01*
X992250Y991250D02*
X1065500D01*
X1068000Y993750D01*
X1007500Y983250D02*
X1010750Y986500D01*
X1064250D02*
X1072000Y978750D01*
X838500Y457750D02*
Y532250D01*
X1122000Y616000D02*
X1144500Y638500D01*
X1438750Y418250D02*
Y429000D01*
X885500Y1084250D02*
X887000Y1082750D01*
X613750Y873250D02*
X639958D01*
X613750Y854098D02*
X639958D01*
X613000Y820000D02*
X639208D01*
X613000Y800848D02*
X639208D01*
X613000Y767250D02*
X639208D01*
X613000Y748098D02*
X639208D01*
X1118000Y1234636D02*
X1121500Y1238136D01*
X1296000Y864250D02*
X1328500D01*
X998000Y948250D02*
X1063000D01*
X1063750Y949000D01*
X1272750Y805250D02*
X1464250D01*
X1267500Y1156250D02*
X1270750Y1153000D01*
X1050500Y888902D02*
Y891000D01*
X1042250Y870750D02*
Y880652D01*
X1050500Y888902D01*
X1037250Y870750D02*
Y882750D01*
X1041250Y886750D01*
Y891000D01*
X711500Y682000D02*
X877750D01*
X929250Y724250D02*
Y788250D01*
X496750Y683000D02*
X603500D01*
X707850Y787350D01*
X772600D01*
X418000Y689500D02*
X602250D01*
X706000Y793250D01*
X766750D01*
D50*
X628500Y1172200D02*
X648800Y1192500D01*
X492500Y927250D02*
X516250Y951000D01*
Y932750D02*
X536000Y913000D01*
Y890750D02*
Y913000D01*
X516250Y932750D02*
Y951000D01*
X628500Y1063250D01*
Y1172200D01*
D51*
X1091750Y809750D02*
Y813750D01*
X558250Y1134000D02*
Y1147250D01*
X560000Y1149000D01*
X564750Y1134000D02*
X565000Y1133750D01*
Y1121000D02*
Y1133750D01*
X564000Y1121000D02*
X565000D01*
X558000Y1115000D02*
X564000Y1121000D01*
X551750Y1134000D02*
Y1157750D01*
X545250Y1134000D02*
Y1160750D01*
X1208000Y777250D02*
Y812250D01*
X1187500Y756750D02*
X1208000Y777250D01*
X1184500Y756750D02*
X1187500D01*
X1208000Y812250D02*
X1305000Y909250D01*
X1468190D01*
X1490440Y931500D01*
Y987440D01*
X1470844Y1007036D02*
X1490440Y987440D01*
X1466886Y1007036D02*
X1470844D01*
X1016750Y979250D02*
X1021750Y974250D01*
X1025750Y980500D02*
X1026250Y981000D01*
X1072250Y865250D02*
X1095250Y842250D01*
X1432386Y1018091D02*
Y1034254D01*
Y1034454D01*
Y952636D02*
Y969000D01*
X1454250D01*
X1466886Y981636D01*
X1432386Y1001727D02*
X1461577D01*
X1466886Y1007036D01*
X1432386Y985364D02*
Y1001727D01*
Y1050818D02*
X1459868D01*
X1466886Y1057836D01*
X1432386Y1050818D02*
Y1067182D01*
Y1083545D02*
X1432695Y1083236D01*
X1466886D01*
X1432386Y1083545D02*
X1432386Y1083545D01*
Y1099636D01*
X1432386Y1116273D02*
Y1132636D01*
Y1116273D02*
X1459250D01*
X1466886Y1108636D01*
X658500Y1099000D02*
X672250D01*
X680250Y1091000D01*
Y1076000D02*
Y1091000D01*
X675500Y1155750D02*
X680250Y1151000D01*
Y1139000D02*
Y1151000D01*
X658500Y1138750D02*
X658750Y1139000D01*
X673750D01*
X693250Y1051250D02*
X696000Y1048500D01*
X693250Y1051250D02*
Y1076000D01*
X662000Y1048500D02*
X673750Y1060250D01*
Y1076000D01*
X679000Y1048500D02*
X686750Y1056250D01*
Y1076000D01*
X731000Y1099500D02*
X731500Y1100000D01*
X714500Y1099500D02*
X731000D01*
X706250Y1091250D02*
X714500Y1099500D01*
X706250Y1076000D02*
Y1091250D01*
X1095250Y788750D02*
Y809750D01*
Y765750D02*
Y788750D01*
X1072250Y865250D02*
Y870750D01*
X1062250Y852750D02*
Y870750D01*
X881250Y868750D02*
X910250D01*
X927750Y886250D01*
X936750D01*
X911750Y891250D02*
X936750D01*
X888250Y1013750D02*
X888750Y1014250D01*
X960750Y1089250D02*
X961250Y1089750D01*
X1091750Y813750D02*
X1091750Y813750D01*
X699750Y1061750D02*
X713000Y1048500D01*
X699750Y1061750D02*
Y1076000D01*
X1095250Y809750D02*
Y842250D01*
X888250Y1013750D02*
X898250D01*
X915750Y996250D01*
X936750D01*
X1018000Y1093500D02*
X1018250Y1093750D01*
X1017000Y1022000D02*
X1017250Y1021750D01*
X1047250D02*
Y1038750D01*
X1047000Y1039000D02*
X1047250Y1038750D01*
X686750Y1139000D02*
Y1171250D01*
X674200Y1183800D02*
X686750Y1171250D01*
X674200Y1183800D02*
Y1192500D01*
X693250Y1139000D02*
Y1186150D01*
X699750Y1139000D02*
Y1155750D01*
X711000Y1167000D01*
X782000D01*
X706250Y1139000D02*
Y1152250D01*
X715000Y1161000D01*
X750000D01*
X771000Y1140000D01*
X1070750Y901250D02*
X1087750D01*
X551750Y1157750D02*
X566000Y1172000D01*
Y1192300D01*
X565800Y1192500D02*
X566000Y1192300D01*
X540400Y1165600D02*
Y1192500D01*
Y1165600D02*
X545250Y1160750D01*
X658500Y1155750D02*
X670000D01*
X675500D01*
X1017000Y1022000D02*
Y1088500D01*
X1018000Y1089500D01*
Y1093500D01*
X1067000Y905000D02*
X1070750Y901250D01*
X1068602Y966250D02*
X1087750D01*
X1021750Y974250D02*
X1060602D01*
X1068602Y966250D01*
X1026250Y981000D02*
X1060250D01*
X1070000Y971250D01*
X1087750D01*
Y1006250D02*
X1097681D01*
X1098749Y1007319D01*
X1098819D01*
X1120250Y1028750D01*
X1058552Y900448D02*
Y901044D01*
Y900448D02*
X1062600Y896400D01*
X1067785D01*
X1067935Y896250D01*
X1087750D01*
X960750Y1071000D02*
Y1089250D01*
Y1071000D02*
X982230Y1049520D01*
Y1021770D02*
X982250Y1021750D01*
X982230Y1021770D02*
Y1049520D01*
X1022250Y1021750D02*
Y1042000D01*
X1065250Y1085000D01*
X1072500D01*
X693250Y1186150D02*
X699600Y1192500D01*
X905250Y884750D02*
X911750Y891250D01*
X1062250Y852750D02*
X1076250Y838750D01*
X1431732Y1034254D02*
X1432386D01*
X1466886D01*
X782000Y1167000D02*
X815000Y1134000D01*
D52*
X1051750Y688250D02*
Y696098D01*
X1007000Y643500D02*
X1051750Y688250D01*
X910750Y643500D02*
X1007000D01*
X1034500Y678500D02*
Y698000D01*
X1004250Y648250D02*
X1034500Y678500D01*
X908500Y648250D02*
X1004250D01*
X805250Y538000D02*
X910750Y643500D01*
X818250Y558000D02*
X908500Y648250D01*
X795500Y558000D02*
X818250D01*
X795500Y538000D02*
X805250D01*
X1051750Y696098D02*
X1053652Y698000D01*
Y724208D01*
X1034500Y698000D02*
Y724208D01*
X1047250Y744500D02*
Y870750D01*
X1052250Y725610D02*
Y870750D01*
Y725610D02*
X1053652Y724208D01*
X1034500Y731750D02*
X1047250Y744500D01*
X1034500Y724208D02*
Y731750D01*
X1031000Y897250D02*
X1053830D01*
X1025500Y891750D02*
X1027000Y893250D01*
Y893382D01*
X1030368Y896750D01*
X1030500D01*
X1031000Y897250D01*
X1053830D02*
X1059581Y891500D01*
X1067000D01*
X1081500Y877000D01*
D53*
X1222636Y470000D02*
X1253630D01*
X1218636Y459000D02*
X1253630D01*
X1627536Y630924D02*
Y641008D01*
X1628022Y642209D02*
X1630434Y644621D01*
X1629114Y497766D02*
X1630065Y496815D01*
X1629503Y513283D02*
X1629666Y513446D01*
X1629503Y498380D02*
Y513283D01*
X1629224Y514329D02*
Y515474D01*
X1663349Y494890D02*
X1663386Y494853D01*
X1535627Y565729D02*
X1535887D01*
X1535537Y573953D02*
Y574170D01*
X1217636Y475000D02*
X1222636Y470000D01*
X1217636Y460000D02*
X1218636Y459000D01*
X1636500Y579750D02*
X1640000Y576250D01*
X1475500Y514250D02*
X1519750D01*
X1475500Y514250D02*
X1475500Y514250D01*
X1410750Y514250D02*
X1421000D01*
X1391416Y533584D02*
X1410750Y514250D01*
X1374198Y533584D02*
X1391416D01*
X1438136Y514250D02*
X1475250D01*
X1475500D01*
X1636500Y580750D02*
Y581750D01*
Y579750D02*
Y580750D01*
X1640000Y576250D02*
X1641500D01*
X1663361Y434628D02*
X1663756Y434233D01*
X1532000Y514250D02*
X1628000D01*
X1475500Y514250D02*
Y557250D01*
X1628000Y514250D02*
X1629224Y515474D01*
X1627536Y641008D02*
X1628181Y641653D01*
X1630065Y496815D02*
X1651250D01*
X1630434Y644621D02*
X1651250D01*
D54*
X1010750Y986500D02*
X1064250D01*
D55*
X1185001Y437348D02*
X1201746Y437049D01*
X1204500Y437000D01*
X1253630D02*
Y448000D01*
X1204500Y437000D02*
X1253630D01*
D56*
X1750000Y400000D02*
D03*
X250000Y1300000D02*
D03*
X750000D02*
D03*
X1250000Y1250000D02*
D03*
X1750000Y1200000D02*
D03*
Y800000D02*
D03*
X1250000Y350000D02*
D03*
X750000Y300000D02*
D03*
X250000D02*
D03*
Y800000D02*
D03*
X1000000D02*
D03*
D57*
X306750Y605000D02*
D03*
Y491000D02*
D03*
X396250Y712500D02*
D03*
X556500Y396750D02*
D03*
D58*
X1466886Y1134036D02*
D03*
D59*
Y1108636D02*
D03*
Y1083236D02*
D03*
Y1057836D02*
D03*
Y1032436D02*
D03*
Y1007036D02*
D03*
Y981636D02*
D03*
Y956236D02*
D03*
D60*
X847000Y507000D02*
D03*
X1125750Y616250D02*
D03*
X1083250Y616000D02*
D03*
X1042250Y615750D02*
D03*
X926000Y314500D02*
D03*
X1566250Y1008250D02*
D03*
X1384000Y846250D02*
D03*
X747250Y771750D02*
D03*
X748750Y731500D02*
D03*
Y691750D02*
D03*
X938750Y773250D02*
D03*
X892500Y731000D02*
D03*
X833750Y779750D02*
D03*
X892000Y780500D02*
D03*
X794000Y780000D02*
D03*
X885500Y1083500D02*
D03*
X809000Y1076000D02*
D03*
X771000Y1140000D02*
D03*
X1234500Y804000D02*
D03*
X1276250Y801000D02*
D03*
X941500Y1185500D02*
D03*
X342250Y864250D02*
D03*
X894500Y1185500D02*
D03*
X423500Y901250D02*
D03*
X442500Y1025000D02*
D03*
X811000Y1140000D02*
D03*
X771000Y1051000D02*
D03*
X628500Y1172200D02*
D03*
X516250Y932750D02*
D03*
D61*
X291000Y1095500D02*
D03*
X301000D02*
D03*
X281000D02*
D03*
Y1110500D02*
D03*
X291000D02*
D03*
X301000D02*
D03*
X281000Y1103000D02*
D03*
X291000D02*
D03*
X301000D02*
D03*
X1167998Y557248D02*
D03*
X1156500Y395500D02*
D03*
X1030000Y849750D02*
D03*
X1018500D02*
D03*
X1003750Y850250D02*
D03*
X1007500Y1002750D02*
D03*
X994750Y999750D02*
D03*
X872250Y361250D02*
D03*
Y371250D02*
D03*
Y385750D02*
D03*
Y396750D02*
D03*
X885000D02*
D03*
X885250Y371250D02*
D03*
X1102500Y497250D02*
D03*
X1478000Y843250D02*
D03*
X1477750Y867500D02*
D03*
X786500Y993000D02*
D03*
X809250Y973000D02*
D03*
X798500Y983000D02*
D03*
X926750Y1036250D02*
D03*
X928500Y1022000D02*
D03*
X1329250Y833500D02*
D03*
X1298250Y845500D02*
D03*
X1663000Y1016000D02*
D03*
X1677000Y1004000D02*
D03*
X265750Y1234500D02*
D03*
X482750Y1168250D02*
D03*
X416250Y1269000D02*
D03*
X1349500Y1259750D02*
D03*
X1304000Y1260250D02*
D03*
X1345250Y1202000D02*
D03*
X1426500Y1201250D02*
D03*
X1429250Y1259250D02*
D03*
X1384250Y1259500D02*
D03*
X1330250Y1241750D02*
D03*
X1411500Y1242250D02*
D03*
X1297750Y1178000D02*
D03*
X1226000Y1191500D02*
D03*
Y1164500D02*
D03*
X1662250Y1209500D02*
D03*
X1675000Y1197750D02*
D03*
X1538000Y1043750D02*
D03*
X1524250Y1055848D02*
D03*
X1052000Y1294250D02*
D03*
X1143500Y1285250D02*
D03*
X1191500Y1278750D02*
D03*
X1516750Y1183750D02*
D03*
X1573500Y1142750D02*
D03*
X1570750Y1204250D02*
D03*
X842500Y1266500D02*
D03*
X844000Y1223750D02*
D03*
X556250Y1268250D02*
D03*
X501500Y1268750D02*
D03*
X592250Y1269000D02*
D03*
X773500Y1260750D02*
D03*
X986500Y1058750D02*
D03*
X844000Y1182750D02*
D03*
X880000Y1236500D02*
D03*
X993500Y1049750D02*
D03*
X1001500Y1042000D02*
D03*
X1267250Y1178500D02*
D03*
X1267500Y1153750D02*
D03*
X602250Y442250D02*
D03*
X759000Y865250D02*
D03*
X766500Y856000D02*
D03*
X832000Y752500D02*
D03*
X845250Y766250D02*
D03*
X862250Y765500D02*
D03*
X774000Y696750D02*
D03*
X813000D02*
D03*
X908500Y798750D02*
D03*
X914000Y361000D02*
D03*
Y370000D02*
D03*
X809250Y418000D02*
D03*
X800250D02*
D03*
X821750Y406250D02*
D03*
X914000Y379250D02*
D03*
X768500Y399250D02*
D03*
X768250Y445250D02*
D03*
X709250Y368750D02*
D03*
X602000Y397750D02*
D03*
X624500Y397500D02*
D03*
X624250Y442250D02*
D03*
X867750Y457750D02*
D03*
X422250Y637250D02*
D03*
X475250Y637750D02*
D03*
X646500Y1138750D02*
D03*
X646250Y1116250D02*
D03*
X670250D02*
D03*
X747000Y1116500D02*
D03*
X723500Y1116000D02*
D03*
X610000Y1109750D02*
D03*
X585750D02*
D03*
X528000Y1108000D02*
D03*
X504025Y1107804D02*
D03*
X505250Y1134000D02*
D03*
X528276Y1151056D02*
D03*
X506000Y1151250D02*
D03*
X647000Y1156500D02*
D03*
X670000Y1155750D02*
D03*
X484250Y1083500D02*
D03*
X487000Y1068000D02*
D03*
X393500Y465250D02*
D03*
X386500Y1235000D02*
D03*
X322750Y1268250D02*
D03*
X1562750Y1189750D02*
D03*
X920500Y1004000D02*
D03*
X1072500Y854000D02*
D03*
X1035051Y1038301D02*
D03*
X1165000Y571250D02*
D03*
X1102500Y478250D02*
D03*
Y487855D02*
D03*
X1160000Y628250D02*
D03*
X1213500Y938250D02*
D03*
X1214000Y842750D02*
D03*
X1119750Y877500D02*
D03*
X1092000Y1274500D02*
D03*
X922795Y1051301D02*
D03*
X1101554Y1000549D02*
D03*
X864792Y740286D02*
D03*
D62*
X1169000Y452423D02*
D03*
Y422423D02*
D03*
D63*
X1663350Y705400D02*
D03*
X1688750Y730800D02*
D03*
X1637950D02*
D03*
Y680000D02*
D03*
X1688750D02*
D03*
X1663350Y434400D02*
D03*
X1688750Y459800D02*
D03*
X1637950D02*
D03*
Y409000D02*
D03*
X1688750D02*
D03*
X1547407Y569739D02*
D03*
X1572807Y595139D02*
D03*
X1522007D02*
D03*
Y544339D02*
D03*
X1572807D02*
D03*
D64*
X673950Y1192750D02*
D03*
X648550D02*
D03*
X699350D02*
D03*
X724750D02*
D03*
X540400Y1192500D02*
D03*
X515000D02*
D03*
X565800D02*
D03*
X591200D02*
D03*
X1079600Y1207500D02*
D03*
X1105000D02*
D03*
X1155800D02*
D03*
X1130400D02*
D03*
X1054200D02*
D03*
X1028800D02*
D03*
X685700Y359000D02*
D03*
X660300D02*
D03*
X601700Y358500D02*
D03*
X576300D02*
D03*
X848700Y368000D02*
D03*
X823300D02*
D03*
X339200Y361000D02*
D03*
X313800D02*
D03*
X420700Y361000D02*
D03*
X395300D02*
D03*
X501700Y360250D02*
D03*
X476300D02*
D03*
X426800Y1235000D02*
D03*
X452200D02*
D03*
X604800D02*
D03*
X630200D02*
D03*
X515000D02*
D03*
X540400D02*
D03*
X335600D02*
D03*
X361000D02*
D03*
D65*
X768500Y613700D02*
D03*
Y482300D02*
D03*
D66*
X795500Y513000D02*
D03*
Y583000D02*
D03*
D67*
Y538000D02*
D03*
Y558000D02*
D03*
D68*
X1353000Y1231000D02*
D03*
X1323000D02*
D03*
X1433500Y1222000D02*
D03*
X1403500D02*
D03*
D69*
X567500Y445000D02*
D03*
D70*
X547500D02*
D03*
X527500D02*
D03*
X507500D02*
D03*
X487500D02*
D03*
X467500D02*
D03*
X447500D02*
D03*
X427500D02*
D03*
X407500D02*
D03*
X387500D02*
D03*
X567500Y665000D02*
D03*
X547500D02*
D03*
X527500D02*
D03*
X507500D02*
D03*
X487500D02*
D03*
X467500D02*
D03*
X447500D02*
D03*
X427500D02*
D03*
X407500D02*
D03*
X387500D02*
D03*
D71*
X677500Y720000D02*
D03*
Y418000D02*
D03*
X323500D02*
D03*
D72*
X560000Y1149000D02*
D03*
X257000Y1190000D02*
D03*
X1653500Y570250D02*
D03*
X1680500Y570000D02*
D03*
X1635666Y622793D02*
D03*
X1391500Y540750D02*
D03*
X1622250Y522000D02*
D03*
X1610000D02*
D03*
X1576750Y947750D02*
D03*
X1617250Y924500D02*
D03*
X1270250Y1091750D02*
D03*
X977250Y1068500D02*
D03*
X552500Y1103500D02*
D03*
X672000Y339750D02*
D03*
X589250Y338750D02*
D03*
X423500Y509250D02*
D03*
X1083000Y801250D02*
D03*
X1065500Y819250D02*
D03*
X1081750Y818750D02*
D03*
X1065500Y780500D02*
D03*
X1065250Y756750D02*
D03*
X1069250Y731750D02*
D03*
X1070750Y709250D02*
D03*
X1025750Y643917D02*
D03*
X1040625Y658625D02*
D03*
X1055500Y673333D02*
D03*
X1070375Y688042D02*
D03*
X935550Y630750D02*
D03*
X954600D02*
D03*
X973650D02*
D03*
X992700D02*
D03*
X1011750D02*
D03*
X798000Y602250D02*
D03*
X778586Y548635D02*
D03*
X810500Y524500D02*
D03*
X827250Y541000D02*
D03*
X842125Y555708D02*
D03*
X857000Y570417D02*
D03*
X871875Y585125D02*
D03*
X886750Y599833D02*
D03*
X901625Y614542D02*
D03*
X916500Y630000D02*
D03*
X1060750Y843000D02*
D03*
X1033500Y770750D02*
D03*
X1033250Y749750D02*
D03*
X1020000Y724250D02*
D03*
Y705000D02*
D03*
X1019500Y685500D02*
D03*
X1009500Y673750D02*
D03*
X998000Y662500D02*
D03*
X978950D02*
D03*
X959900D02*
D03*
X940850D02*
D03*
X921800D02*
D03*
X902750D02*
D03*
X887875Y647042D02*
D03*
X873000Y632333D02*
D03*
X858125Y617625D02*
D03*
X843250Y602917D02*
D03*
X828375Y588208D02*
D03*
X813500Y573500D02*
D03*
X803250Y936000D02*
D03*
X811500Y1000250D02*
D03*
X1192000Y551750D02*
D03*
X1199000Y382250D02*
D03*
X1763250Y904250D02*
D03*
X1766750Y1092000D02*
D03*
X1765500Y1008250D02*
D03*
X1772250Y642250D02*
D03*
X1770500Y513000D02*
D03*
X1122750Y315750D02*
D03*
X1429250Y341500D02*
D03*
X1543750Y352750D02*
D03*
X1634000Y358000D02*
D03*
X1643350Y782750D02*
D03*
X1664650D02*
D03*
X1685950D02*
D03*
X1622050D02*
D03*
X1600750Y782750D02*
D03*
X1152500Y423000D02*
D03*
X1139000Y453750D02*
D03*
X1152250Y453500D02*
D03*
X1191000Y523000D02*
D03*
X1284750Y384250D02*
D03*
X1138000Y422750D02*
D03*
X1164750Y467250D02*
D03*
X1275000Y630250D02*
D03*
X1252875D02*
D03*
X1230750D02*
D03*
X1213000Y616250D02*
D03*
X1173250Y407250D02*
D03*
X1583500Y693000D02*
D03*
X1543000Y643750D02*
D03*
X1441750Y612000D02*
D03*
X1379000Y612500D02*
D03*
X1320250D02*
D03*
X1580500Y434000D02*
D03*
X1530000D02*
D03*
X1585750Y525250D02*
D03*
X1617250Y669250D02*
D03*
X1614500Y642250D02*
D03*
X1586250Y490000D02*
D03*
X1616500Y473750D02*
D03*
X1616250Y486250D02*
D03*
X1616750Y505250D02*
D03*
X1575000Y504000D02*
D03*
X1551000Y503250D02*
D03*
X1525000Y499250D02*
D03*
X1503250Y504000D02*
D03*
X1481750Y486000D02*
D03*
X1470000Y486500D02*
D03*
X1491000Y503750D02*
D03*
X1461250Y502250D02*
D03*
X1445750Y499500D02*
D03*
X1413000Y486750D02*
D03*
X1412500Y467000D02*
D03*
X1430750Y500750D02*
D03*
X1477250Y589750D02*
D03*
X1443750Y529750D02*
D03*
X1424750Y529000D02*
D03*
X1217500Y542450D02*
D03*
X1213000Y560900D02*
D03*
Y579350D02*
D03*
Y597800D02*
D03*
X1295750Y643000D02*
D03*
X1323292D02*
D03*
X1350833D02*
D03*
X1378375D02*
D03*
X1405917D02*
D03*
X1433458D02*
D03*
X1461000D02*
D03*
X1480964Y662964D02*
D03*
X1500928Y682929D02*
D03*
X1520893Y702893D02*
D03*
X1540857Y722857D02*
D03*
X1560821Y742821D02*
D03*
X1580786Y762786D02*
D03*
X1198000Y504250D02*
D03*
X1187250Y415750D02*
D03*
X1203500Y404500D02*
D03*
X1219500Y404750D02*
D03*
X1743000Y613523D02*
D03*
Y640568D02*
D03*
Y667614D02*
D03*
Y694659D02*
D03*
Y721704D02*
D03*
Y586477D02*
D03*
Y559432D02*
D03*
Y532386D02*
D03*
Y505341D02*
D03*
Y478295D02*
D03*
Y451250D02*
D03*
X1645500Y510500D02*
D03*
X1639500Y482500D02*
D03*
X1652750Y660250D02*
D03*
X1639500Y705500D02*
D03*
X1662250Y729500D02*
D03*
X1687500Y705250D02*
D03*
X1339625Y577000D02*
D03*
X1323219D02*
D03*
X1306812D02*
D03*
X1290406D02*
D03*
X1508750Y374250D02*
D03*
X1541062D02*
D03*
X1573375D02*
D03*
X1605687D02*
D03*
X1638000D02*
D03*
X1670312D02*
D03*
X1702625D02*
D03*
X1444125D02*
D03*
X1411812D02*
D03*
X1379500D02*
D03*
X1347188D02*
D03*
X1314875D02*
D03*
X1423250Y430250D02*
D03*
X1423500Y404500D02*
D03*
X1476750Y388250D02*
D03*
X1474500Y430500D02*
D03*
X1450750Y388000D02*
D03*
X1451000Y432750D02*
D03*
X1434500Y449000D02*
D03*
X1432250Y466500D02*
D03*
X1465250Y534000D02*
D03*
X1456250Y524500D02*
D03*
X1410750Y531250D02*
D03*
X1458250Y590250D02*
D03*
X1637250Y520750D02*
D03*
X1611000Y549250D02*
D03*
X1593000Y549000D02*
D03*
X1593500Y591000D02*
D03*
X1611500Y591250D02*
D03*
X1423000Y590250D02*
D03*
X1407250Y590000D02*
D03*
X1372437Y577000D02*
D03*
X1388844D02*
D03*
X1405250D02*
D03*
X1440500Y590000D02*
D03*
X1689500Y433000D02*
D03*
X1636750Y433250D02*
D03*
X1663250Y404500D02*
D03*
X1646000Y523000D02*
D03*
X1645500Y631011D02*
D03*
X1688250Y659500D02*
D03*
Y614500D02*
D03*
X1548250Y597500D02*
D03*
X1532750Y527250D02*
D03*
X1340500Y543000D02*
D03*
X1322750D02*
D03*
X1305000D02*
D03*
X1287250D02*
D03*
X1338000Y465500D02*
D03*
X1322000D02*
D03*
X1306000D02*
D03*
X1290000D02*
D03*
X1458750Y552500D02*
D03*
X1442250D02*
D03*
X1433929Y538301D02*
D03*
X1419263Y538117D02*
D03*
X1547250Y543000D02*
D03*
X1627536Y630924D02*
D03*
X1629224Y514329D02*
D03*
X1606500Y503250D02*
D03*
X1591000Y503000D02*
D03*
X1598750Y495750D02*
D03*
X692000Y908250D02*
D03*
X718250Y908000D02*
D03*
Y885750D02*
D03*
X745750Y897500D02*
D03*
X735250Y909500D02*
D03*
X1007500Y983250D02*
D03*
X967500Y945250D02*
D03*
X1185250Y766500D02*
D03*
X1184500Y756750D02*
D03*
X1185250Y743500D02*
D03*
X1050500Y891000D02*
D03*
X1041250D02*
D03*
X1032750D02*
D03*
X1062250Y949000D02*
D03*
Y962050D02*
D03*
X1054000Y955500D02*
D03*
Y968250D02*
D03*
X1108500Y975250D02*
D03*
X1016750Y979250D02*
D03*
X1025750Y980500D02*
D03*
X1018500Y908750D02*
D03*
X1128000Y886250D02*
D03*
X1216500Y487500D02*
D03*
X630250Y757500D02*
D03*
Y810500D02*
D03*
X630500Y864000D02*
D03*
X604500Y757500D02*
D03*
Y810500D02*
D03*
X602000Y863750D02*
D03*
X691750Y886250D02*
D03*
X719250Y924750D02*
D03*
X711250D02*
D03*
X630500Y924500D02*
D03*
X638250D02*
D03*
X718250Y865750D02*
D03*
X692250Y872000D02*
D03*
X690000Y806750D02*
D03*
X690250Y813250D02*
D03*
X718750Y813750D02*
D03*
Y807000D02*
D03*
X1617000Y954750D02*
D03*
X1591750Y955250D02*
D03*
X1044000Y717000D02*
D03*
Y707500D02*
D03*
X1266500Y585000D02*
D03*
X1249000D02*
D03*
X1688000Y479750D02*
D03*
X1629000Y591000D02*
D03*
X1505500Y526750D02*
D03*
X1490500D02*
D03*
X1356031Y577000D02*
D03*
X1354000Y565000D02*
D03*
Y550000D02*
D03*
Y535000D02*
D03*
Y520000D02*
D03*
X1274000Y577000D02*
D03*
Y565000D02*
D03*
Y550000D02*
D03*
Y535000D02*
D03*
Y520000D02*
D03*
X1354000Y420000D02*
D03*
Y435000D02*
D03*
Y450000D02*
D03*
X1354000Y465500D02*
D03*
X1354000Y480000D02*
D03*
Y495000D02*
D03*
X1274000D02*
D03*
Y480000D02*
D03*
Y465500D02*
D03*
Y450000D02*
D03*
Y435000D02*
D03*
Y420000D02*
D03*
X1234000Y585000D02*
D03*
Y570000D02*
D03*
Y555000D02*
D03*
Y540000D02*
D03*
Y525000D02*
D03*
Y510000D02*
D03*
X1218000Y524000D02*
D03*
X1201500Y487500D02*
D03*
X1188250Y487500D02*
D03*
X1234000Y450000D02*
D03*
Y420000D02*
D03*
Y405000D02*
D03*
X1249000Y507500D02*
D03*
X1264000D02*
D03*
X1279000D02*
D03*
X1294000D02*
D03*
X1309000D02*
D03*
X1324000D02*
D03*
X1339000D02*
D03*
X1354000D02*
D03*
X1369000D02*
D03*
X1384000D02*
D03*
X1395500Y494750D02*
D03*
Y479750D02*
D03*
Y464750D02*
D03*
X1395000Y449750D02*
D03*
X1395500Y434750D02*
D03*
Y419750D02*
D03*
Y404750D02*
D03*
X1384000Y405000D02*
D03*
X1369000D02*
D03*
X1354000D02*
D03*
X1339000D02*
D03*
X1324000D02*
D03*
X1309000D02*
D03*
X1294000D02*
D03*
X1279000D02*
D03*
X1264000D02*
D03*
X1249000D02*
D03*
X1490250Y539750D02*
D03*
X1495500Y551500D02*
D03*
X1502000Y590500D02*
D03*
X1487250Y590750D02*
D03*
X1617332Y658716D02*
D03*
X1618750Y623000D02*
D03*
X1638298Y658929D02*
D03*
X1552250Y525500D02*
D03*
X1572250D02*
D03*
X1645500Y603250D02*
D03*
X1645750Y590000D02*
D03*
Y536000D02*
D03*
X1688250Y494500D02*
D03*
Y509500D02*
D03*
Y524500D02*
D03*
Y539500D02*
D03*
Y554500D02*
D03*
Y644500D02*
D03*
Y629500D02*
D03*
X1645500Y617250D02*
D03*
X1688250Y599500D02*
D03*
Y584500D02*
D03*
X1358500Y544750D02*
D03*
X1404000Y539250D02*
D03*
X1040000Y1154000D02*
D03*
X1021000D02*
D03*
X1011000Y1142000D02*
D03*
X1007000Y1118000D02*
D03*
X1048000Y1142000D02*
D03*
X1047000Y1039000D02*
D03*
X558000Y1115000D02*
D03*
X863500Y721750D02*
D03*
X773500Y709500D02*
D03*
X881750Y973000D02*
D03*
X893500Y960250D02*
D03*
X1002500Y897500D02*
D03*
X990750Y896250D02*
D03*
X797250Y812000D02*
D03*
X796500Y822500D02*
D03*
X982250Y886500D02*
D03*
X972000Y887170D02*
D03*
X445500Y395750D02*
D03*
X763500Y372250D02*
D03*
X874750Y314250D02*
D03*
X892500Y284750D02*
D03*
X1072000Y978750D02*
D03*
X1068000Y993750D02*
D03*
X1464250Y380500D02*
D03*
X1213250Y897250D02*
D03*
X1213750Y883500D02*
D03*
X1489500Y379500D02*
D03*
X1393750Y965250D02*
D03*
X1404750Y952750D02*
D03*
Y985250D02*
D03*
X1404250Y1018500D02*
D03*
Y1050500D02*
D03*
X1403250Y1083500D02*
D03*
Y1099500D02*
D03*
X1403500Y1133000D02*
D03*
X1403250Y1116250D02*
D03*
Y1067500D02*
D03*
X1403750Y1034500D02*
D03*
X1404000Y1002000D02*
D03*
X1394500Y998750D02*
D03*
X1394250Y1033000D02*
D03*
X1394500Y1067000D02*
D03*
X1394750Y1100500D02*
D03*
X1394500Y1133000D02*
D03*
X1346500Y975000D02*
D03*
X1346000Y1009000D02*
D03*
Y1043000D02*
D03*
Y1076750D02*
D03*
X1346500Y1110000D02*
D03*
X1346250Y1142750D02*
D03*
X1590500Y1141500D02*
D03*
X1616250Y1141000D02*
D03*
X1493000Y1073750D02*
D03*
X1175750Y954750D02*
D03*
X1183000Y886250D02*
D03*
X1057250Y884750D02*
D03*
X1186750Y776750D02*
D03*
X1123000Y1072250D02*
D03*
X1180000Y1169750D02*
D03*
X998250Y1169000D02*
D03*
X1707750Y769500D02*
D03*
X1728000Y749000D02*
D03*
X1173250Y507250D02*
D03*
X1713250Y435750D02*
D03*
X1702500Y391750D02*
D03*
X633000Y935250D02*
D03*
X705000Y843000D02*
D03*
X753000Y888250D02*
D03*
X800500Y870750D02*
D03*
X672000Y773000D02*
D03*
X758000Y812000D02*
D03*
X634500Y735250D02*
D03*
X604250Y704250D02*
D03*
X517750Y699750D02*
D03*
X549250Y722250D02*
D03*
X430750Y699000D02*
D03*
X606250Y673000D02*
D03*
X451750Y468000D02*
D03*
X508250Y469500D02*
D03*
X538750Y532750D02*
D03*
X595500Y588500D02*
D03*
X637750Y628500D02*
D03*
X564750Y470000D02*
D03*
X523750Y421000D02*
D03*
X470750Y424500D02*
D03*
X640000Y366000D02*
D03*
X541500Y283500D02*
D03*
X781500Y662000D02*
D03*
X932250Y698750D02*
D03*
X720500Y776250D02*
D03*
X779000Y750250D02*
D03*
X941500Y875500D02*
D03*
X754750Y549500D02*
D03*
X625000Y558500D02*
D03*
X798500Y344750D02*
D03*
X834250Y350250D02*
D03*
X847750Y444000D02*
D03*
X917750Y400250D02*
D03*
X925750Y603000D02*
D03*
X1106000Y577250D02*
D03*
X1115500Y521250D02*
D03*
X1093750Y357500D02*
D03*
X948500Y363500D02*
D03*
X1048750D02*
D03*
X989500Y454250D02*
D03*
X859750Y484750D02*
D03*
X954500Y533500D02*
D03*
X1056000D02*
D03*
X1016250Y605500D02*
D03*
X976250D02*
D03*
X1212500Y641000D02*
D03*
X1300500Y665250D02*
D03*
X1375500Y664750D02*
D03*
X1448250D02*
D03*
X1130000Y873750D02*
D03*
X1105000Y895250D02*
D03*
X1129250Y903500D02*
D03*
X1168750Y1001750D02*
D03*
X1154750Y983000D02*
D03*
X1089250Y1025750D02*
D03*
X1205500Y951750D02*
D03*
X1205000Y980000D02*
D03*
X1323500Y686750D02*
D03*
X1247500Y763750D02*
D03*
X1455500Y686750D02*
D03*
X1522250Y735000D02*
D03*
X1586000Y800250D02*
D03*
X960250Y888500D02*
D03*
X1055750Y1050250D02*
D03*
X1109250Y1184500D02*
D03*
X1189750Y1100250D02*
D03*
X651500Y1238250D02*
D03*
X717750Y1237000D02*
D03*
X809500Y1231750D02*
D03*
X821000Y1178250D02*
D03*
X581750Y1238750D02*
D03*
X449750Y1214250D02*
D03*
X385500Y1319500D02*
D03*
X484750Y1320750D02*
D03*
X609000Y1321250D02*
D03*
X231750Y1202000D02*
D03*
X233500Y945750D02*
D03*
X231250Y1073750D02*
D03*
X233000Y663500D02*
D03*
X234500Y434500D02*
D03*
X378500Y285500D02*
D03*
X232000Y555250D02*
D03*
X1666500Y945750D02*
D03*
X1665750Y1140000D02*
D03*
X543000Y938000D02*
D03*
X635500Y1040500D02*
D03*
X486000Y956250D02*
D03*
X564250Y1031750D02*
D03*
X594250Y1061250D02*
D03*
X463250Y1068000D02*
D03*
X450250Y1181750D02*
D03*
X1544500Y1165250D02*
D03*
X1190500Y1141250D02*
D03*
X1298250Y1129250D02*
D03*
X1497750Y908250D02*
D03*
X1519250Y1038750D02*
D03*
X1450750Y793750D02*
D03*
X1256500Y833250D02*
D03*
X1308750Y832500D02*
D03*
X1332250Y893000D02*
D03*
X1500750Y856500D02*
D03*
X1565000Y904750D02*
D03*
X1604200Y955000D02*
D03*
X1218750Y1071500D02*
D03*
X951500Y1302750D02*
D03*
X854750Y1312250D02*
D03*
X1356750Y931000D02*
D03*
X1263000Y898000D02*
D03*
X1201000Y830500D02*
D03*
X1428000Y1169750D02*
D03*
X1513500Y966500D02*
D03*
X1007500Y1265250D02*
D03*
X1274750Y1055250D02*
D03*
X1203000Y1165000D02*
D03*
X1138250Y1147500D02*
D03*
X867250Y1115750D02*
D03*
X1604000Y1078750D02*
D03*
X1635500Y1235500D02*
D03*
X1501250Y1247250D02*
D03*
X1534750Y1242500D02*
D03*
X1221250Y785000D02*
D03*
X1229500Y747750D02*
D03*
X1208750Y704750D02*
D03*
X1195000Y572750D02*
D03*
X1194500Y623750D02*
D03*
X1352500Y352500D02*
D03*
X1429000Y355500D02*
D03*
X722750Y601750D02*
D03*
X648000Y1078000D02*
D03*
X589750Y1136750D02*
D03*
X837250Y1075000D02*
D03*
X1325500Y792500D02*
D03*
X1256000Y810750D02*
D03*
X733500Y932500D02*
D03*
X513250Y558750D02*
D03*
X725500Y500000D02*
D03*
X804000Y382250D02*
D03*
X982500Y1208250D02*
D03*
X1109000Y914750D02*
D03*
X1067000Y905000D02*
D03*
X1071500Y922500D02*
D03*
X1072500Y938000D02*
D03*
X1072802Y945546D02*
D03*
X1296000Y864250D02*
D03*
X1122750Y975500D02*
D03*
X1476072Y374268D02*
D03*
X1636500Y580750D02*
D03*
X1637250Y554000D02*
D03*
X1627079Y549027D02*
D03*
X1646580Y547027D02*
D03*
X1025050Y900794D02*
D03*
X1058552Y901044D02*
D03*
X1404750Y971250D02*
D03*
X1228500Y776500D02*
D03*
X1069552Y930045D02*
D03*
D73*
X643250Y668250D02*
D03*
X653250Y656250D02*
D03*
X1110000Y778250D02*
D03*
X1109500Y799500D02*
D03*
Y821250D02*
D03*
X1124500Y804500D02*
D03*
X1124250Y789000D02*
D03*
X1130400Y773250D02*
D03*
Y756750D02*
D03*
X1109250Y732750D02*
D03*
X987250Y686000D02*
D03*
Y698000D02*
D03*
Y733750D02*
D03*
X975000D02*
D03*
Y697750D02*
D03*
X946000Y686250D02*
D03*
X946250Y698250D02*
D03*
Y734250D02*
D03*
X958250Y734000D02*
D03*
Y698000D02*
D03*
X1251500Y1013250D02*
D03*
X1265500Y1013000D02*
D03*
X1302500Y1013500D02*
D03*
X1302750Y1001250D02*
D03*
X1265250D02*
D03*
X1251250Y972500D02*
D03*
X1265750Y972750D02*
D03*
X1303000Y972500D02*
D03*
Y984500D02*
D03*
X1265500D02*
D03*
X1225750Y691000D02*
D03*
X1240750D02*
D03*
X1277000Y690500D02*
D03*
X1277250Y677750D02*
D03*
X1240500Y678000D02*
D03*
X1241500Y661000D02*
D03*
X1225750Y648750D02*
D03*
X1241750D02*
D03*
X1278000Y648500D02*
D03*
X1277750Y661250D02*
D03*
X721000Y974000D02*
D03*
X736750Y974250D02*
D03*
X735750Y1021000D02*
D03*
X721750Y1020750D02*
D03*
X706250Y1021250D02*
D03*
X690500Y1020750D02*
D03*
X656250Y1020500D02*
D03*
X656000Y1007500D02*
D03*
X690500Y1008000D02*
D03*
X721500D02*
D03*
X690000Y986750D02*
D03*
X721000D02*
D03*
X705750Y974000D02*
D03*
X690250D02*
D03*
X673250D02*
D03*
X656250D02*
D03*
X656500Y987000D02*
D03*
X919750Y851250D02*
D03*
Y839500D02*
D03*
X901500Y839250D02*
D03*
X883750Y839000D02*
D03*
X867000D02*
D03*
X849500Y838750D02*
D03*
X834250D02*
D03*
X817500Y838500D02*
D03*
X817750Y850750D02*
D03*
X961000Y1152250D02*
D03*
X949000Y1152000D02*
D03*
X949250Y1139000D02*
D03*
X1182500Y1028250D02*
D03*
X1182750Y1015750D02*
D03*
X1164750D02*
D03*
X1131750Y1057000D02*
D03*
X1146500D02*
D03*
X1164750Y1057500D02*
D03*
X1178000Y1057750D02*
D03*
X1188750D02*
D03*
X1189000Y1045750D02*
D03*
X1178250D02*
D03*
X1103304Y1089553D02*
D03*
X1103250Y1106250D02*
D03*
X1103000Y1129250D02*
D03*
X1102750Y1144000D02*
D03*
X1102500Y1156250D02*
D03*
X1089500D02*
D03*
Y1143750D02*
D03*
X990500Y1090250D02*
D03*
Y1104750D02*
D03*
Y1123000D02*
D03*
Y1136250D02*
D03*
X990650Y1147000D02*
D03*
X978500D02*
D03*
X888500Y1044250D02*
D03*
X868500D02*
D03*
X847500D02*
D03*
X827500Y1044000D02*
D03*
X827750Y1030750D02*
D03*
X912000Y1220750D02*
D03*
X933750Y1257750D02*
D03*
X908500Y1232000D02*
D03*
Y1245000D02*
D03*
X896750Y1244750D02*
D03*
X921750Y1244250D02*
D03*
Y1231750D02*
D03*
X946500D02*
D03*
X946250Y1244750D02*
D03*
X934250D02*
D03*
X1412000Y881750D02*
D03*
X1399250Y867250D02*
D03*
X828000Y1002000D02*
D03*
X843000D02*
D03*
X437500Y732500D02*
D03*
Y747500D02*
D03*
Y762500D02*
D03*
Y777500D02*
D03*
Y792500D02*
D03*
Y807500D02*
D03*
Y822500D02*
D03*
Y837500D02*
D03*
Y852500D02*
D03*
Y867500D02*
D03*
X450000Y875000D02*
D03*
Y860000D02*
D03*
Y845000D02*
D03*
Y830000D02*
D03*
Y815000D02*
D03*
Y800000D02*
D03*
Y785000D02*
D03*
Y770000D02*
D03*
Y755000D02*
D03*
Y740000D02*
D03*
Y725000D02*
D03*
X427500Y1065000D02*
D03*
X442500D02*
D03*
X427500Y1050000D02*
D03*
X442500D02*
D03*
X427500Y1000000D02*
D03*
X442500D02*
D03*
X427500Y985000D02*
D03*
X442500D02*
D03*
X427500Y970000D02*
D03*
X442500D02*
D03*
X427500Y955000D02*
D03*
X442500D02*
D03*
X252500Y1095000D02*
D03*
Y1110000D02*
D03*
X352500Y1030000D02*
D03*
Y1015000D02*
D03*
Y1000000D02*
D03*
Y985000D02*
D03*
Y970000D02*
D03*
X367500Y985000D02*
D03*
Y970000D02*
D03*
X337500Y955000D02*
D03*
X352500D02*
D03*
X367500D02*
D03*
X834000Y882000D02*
D03*
X818000D02*
D03*
X1081000Y765000D02*
D03*
X828000Y1014000D02*
D03*
X1060000Y1134000D02*
D03*
Y1149000D02*
D03*
X1073000D02*
D03*
X818000Y871000D02*
D03*
X734500Y664250D02*
D03*
X734250Y653500D02*
D03*
X734000Y643000D02*
D03*
X1052750Y312250D02*
D03*
X1064500Y312000D02*
D03*
X1040750D02*
D03*
X1046500Y300500D02*
D03*
X1058500Y300833D02*
D03*
X1095000Y747000D02*
D03*
X1081000D02*
D03*
X1123805Y820540D02*
D03*
D74*
X279250Y1197000D02*
D03*
M02*
