G04 Layer_Color=32896*
%FSLAX44Y44*%
%MOMM*%
G71*
G01*
G75*
%ADD46C,0.5000*%
%ADD48C,0.4000*%
%ADD51C,0.2540*%
%ADD54C,0.2000*%
%ADD84C,0.1270*%
%ADD85C,0.1524*%
%ADD86R,0.2250X0.8636*%
%ADD87R,0.8636X0.2250*%
%ADD88R,1.0000X0.2500*%
%ADD164C,0.4064*%
%ADD165C,0.1900*%
D46*
X891532Y584500D02*
G03*
X891532Y584500I-2032J0D01*
G01*
D48*
X643200Y1154650D02*
G03*
X643200Y1154650I-1000J0D01*
G01*
X509650Y1154400D02*
G03*
X509650Y1154400I-1000J0D01*
G01*
X1156800Y1245600D02*
G03*
X1156800Y1245600I-1000J0D01*
G01*
X800000Y260000D02*
X1790000Y360000D01*
Y1240000D01*
X210000Y260000D02*
X800000D01*
Y1340000D02*
X1790000Y1240000D01*
X210000Y1340000D02*
X800000D01*
X210000Y260000D02*
Y1340000D01*
D51*
X864000Y507000D02*
G03*
X864000Y507000I-17000J0D01*
G01*
X1142750Y616250D02*
G03*
X1142750Y616250I-17000J0D01*
G01*
X1100250Y616000D02*
G03*
X1100250Y616000I-17000J0D01*
G01*
X1059250Y615750D02*
G03*
X1059250Y615750I-17000J0D01*
G01*
X943000Y314500D02*
G03*
X943000Y314500I-17000J0D01*
G01*
X1583250Y1008250D02*
G03*
X1583250Y1008250I-17000J0D01*
G01*
X1401000Y846250D02*
G03*
X1401000Y846250I-17000J0D01*
G01*
X764250Y771750D02*
G03*
X764250Y771750I-17000J0D01*
G01*
X765750Y731500D02*
G03*
X765750Y731500I-17000J0D01*
G01*
Y691750D02*
G03*
X765750Y691750I-17000J0D01*
G01*
X955750Y773250D02*
G03*
X955750Y773250I-17000J0D01*
G01*
X909500Y731000D02*
G03*
X909500Y731000I-17000J0D01*
G01*
X850750Y779750D02*
G03*
X850750Y779750I-17000J0D01*
G01*
X909000Y780500D02*
G03*
X909000Y780500I-17000J0D01*
G01*
X811000Y780000D02*
G03*
X811000Y780000I-17000J0D01*
G01*
X902500Y1083500D02*
G03*
X902500Y1083500I-17000J0D01*
G01*
X826000Y1076000D02*
G03*
X826000Y1076000I-17000J0D01*
G01*
X788000Y1140000D02*
G03*
X788000Y1140000I-17000J0D01*
G01*
X1251500Y804000D02*
G03*
X1251500Y804000I-17000J0D01*
G01*
X1293250Y801000D02*
G03*
X1293250Y801000I-17000J0D01*
G01*
X958500Y1185500D02*
G03*
X958500Y1185500I-17000J0D01*
G01*
X359250Y864250D02*
G03*
X359250Y864250I-17000J0D01*
G01*
X911500Y1185500D02*
G03*
X911500Y1185500I-17000J0D01*
G01*
X440500Y901250D02*
G03*
X440500Y901250I-17000J0D01*
G01*
X459500Y1025000D02*
G03*
X459500Y1025000I-17000J0D01*
G01*
X828000Y1140000D02*
G03*
X828000Y1140000I-17000J0D01*
G01*
X788000Y1051000D02*
G03*
X788000Y1051000I-17000J0D01*
G01*
X1739198Y858965D02*
X1749355Y859004D01*
X1754414Y864102D01*
X1749316Y869161D01*
X1739159Y869122D01*
X1746777Y869151D01*
X1746816Y858995D01*
X1749296Y874239D02*
X1739120Y879278D01*
X1749257Y884396D01*
X1739081Y889435D02*
X1739061Y894513D01*
X1739071Y891974D01*
X1749228Y892013D01*
X1749238Y889474D01*
X1739022Y904670D02*
X1739003Y909748D01*
X1741532Y912297D01*
X1746610Y912317D01*
X1749159Y909788D01*
X1749179Y904709D01*
X1746649Y902160D01*
X1741571Y902141D01*
X1739022Y904670D01*
X1738973Y917366D02*
X1749130Y917405D01*
X1749100Y925022D01*
X1746551Y927552D01*
X1738934Y927522D01*
X1738914Y932601D02*
X1738895Y937679D01*
X1738905Y935140D01*
X1749061Y935179D01*
X1749071Y932640D01*
X1748983Y955492D02*
X1749012Y947875D01*
X1746483Y945326D01*
X1741405Y945306D01*
X1738856Y947836D01*
X1738826Y955453D01*
X1738807Y960531D02*
X1738777Y968149D01*
X1741307Y970698D01*
X1743855Y968168D01*
X1743875Y963090D01*
X1746424Y960561D01*
X1748954Y963110D01*
X1748924Y970727D01*
X1738679Y993541D02*
X1738660Y998619D01*
X1741189Y1001168D01*
X1746267Y1001187D01*
X1748816Y998658D01*
X1748836Y993580D01*
X1746307Y991031D01*
X1741228Y991011D01*
X1738679Y993541D01*
X1738620Y1008775D02*
X1751316Y1008824D01*
X1746238Y1008805D01*
X1746248Y1006266D01*
X1746228Y1011344D01*
X1746238Y1008805D01*
X1751316Y1008824D01*
X1753846Y1011373D01*
X1738523Y1034167D02*
X1753758Y1034226D01*
X1753728Y1041843D01*
X1751179Y1044373D01*
X1746101Y1044353D01*
X1743571Y1041804D01*
X1743601Y1034187D01*
X1743581Y1039265D02*
X1738483Y1044324D01*
X1753669Y1057078D02*
X1753689Y1052000D01*
X1751160Y1049451D01*
X1741003Y1049412D01*
X1738454Y1051941D01*
X1738434Y1057020D01*
X1740964Y1059568D01*
X1751120Y1059608D01*
X1753669Y1057078D01*
X1738405Y1064637D02*
X1753640Y1064696D01*
X1753611Y1072313D01*
X1751062Y1074843D01*
X1745983Y1074823D01*
X1743454Y1072274D01*
X1743483Y1064657D01*
X1743464Y1069735D02*
X1738366Y1074794D01*
X1753552Y1087548D02*
X1753571Y1082470D01*
X1751042Y1079921D01*
X1740885Y1079882D01*
X1738336Y1082411D01*
X1738317Y1087489D01*
X1740846Y1090038D01*
X1751003Y1090078D01*
X1753552Y1087548D01*
X1730056Y858930D02*
X1730036Y864008D01*
X1730046Y861469D01*
X1714811Y861410D01*
X1714821Y858871D01*
X1714801Y863949D01*
X1714772Y871567D02*
X1724928Y871606D01*
X1724899Y879223D01*
X1722350Y881753D01*
X1714732Y881723D01*
X1727399Y889390D02*
X1724860Y889380D01*
X1724869Y886841D01*
X1724850Y891919D01*
X1724860Y889380D01*
X1717242Y889351D01*
X1714693Y891880D01*
X1714634Y907115D02*
X1714654Y902037D01*
X1717203Y899507D01*
X1722281Y899527D01*
X1724811Y902076D01*
X1724791Y907154D01*
X1722242Y909684D01*
X1719703Y909674D01*
X1719742Y899517D01*
X1724762Y914772D02*
X1714605Y914733D01*
X1719683Y914752D01*
X1722213Y917301D01*
X1724742Y919850D01*
X1724732Y922389D01*
X1714536Y932507D02*
X1727232Y932556D01*
X1722154Y932536D01*
X1722164Y929997D01*
X1722144Y935075D01*
X1722154Y932536D01*
X1727232Y932556D01*
X1729762Y935105D01*
X1724644Y945242D02*
X1724624Y950320D01*
X1722076Y952849D01*
X1714458Y952820D01*
X1714487Y945202D01*
X1717036Y942673D01*
X1719566Y945222D01*
X1719536Y952840D01*
X1724556Y968094D02*
X1724585Y960477D01*
X1722056Y957928D01*
X1716978Y957908D01*
X1714429Y960437D01*
X1714399Y968055D01*
X1714350Y980751D02*
X1714370Y975672D01*
X1716919Y973143D01*
X1721997Y973163D01*
X1724527Y975712D01*
X1724507Y980790D01*
X1721958Y983319D01*
X1719419Y983309D01*
X1719458Y973153D01*
X1729497Y1003662D02*
X1714262Y1003603D01*
X1714233Y1011221D01*
X1716762Y1013770D01*
X1719301Y1013779D01*
X1721841Y1013789D01*
X1724389Y1011260D01*
X1724419Y1003642D01*
X1714194Y1021377D02*
X1714174Y1026456D01*
X1716703Y1029005D01*
X1721782Y1029024D01*
X1724331Y1026495D01*
X1724350Y1021416D01*
X1721821Y1018867D01*
X1716743Y1018848D01*
X1714194Y1021377D01*
X1724292Y1036651D02*
X1724272Y1041730D01*
X1721723Y1044259D01*
X1714106Y1044230D01*
X1714135Y1036612D01*
X1716684Y1034083D01*
X1719213Y1036632D01*
X1719184Y1044249D01*
X1724243Y1049347D02*
X1714086Y1049308D01*
X1719164Y1049328D01*
X1721694Y1051877D01*
X1724223Y1054426D01*
X1724213Y1056965D01*
X1729223Y1074758D02*
X1713988Y1074700D01*
X1714017Y1067082D01*
X1716566Y1064553D01*
X1721645Y1064572D01*
X1724174Y1067121D01*
X1724145Y1074739D01*
X1724066Y1095052D02*
X1713890Y1100091D01*
X1724027Y1105209D01*
X1713851Y1110248D02*
X1713831Y1115326D01*
X1713841Y1112787D01*
X1729076Y1112846D01*
X1726547Y1110297D01*
X1713802Y1122944D02*
X1716341Y1122953D01*
X1716331Y1125493D01*
X1713792Y1125483D01*
X1713802Y1122944D01*
X1726449Y1135688D02*
X1728978Y1138237D01*
X1728958Y1143316D01*
X1726409Y1145845D01*
X1716253Y1145806D01*
X1713723Y1143257D01*
X1713743Y1138179D01*
X1716292Y1135649D01*
X1726449Y1135688D01*
X1705678Y858836D02*
X1690443Y858777D01*
X1690413Y866395D01*
X1692943Y868943D01*
X1703099Y868983D01*
X1705648Y866453D01*
X1705678Y858836D01*
X1690354Y881629D02*
X1690374Y876551D01*
X1692923Y874022D01*
X1698001Y874041D01*
X1700531Y876590D01*
X1700511Y881669D01*
X1697962Y884198D01*
X1695423Y884188D01*
X1695462Y874032D01*
X1690325Y889247D02*
X1690296Y896864D01*
X1692825Y899413D01*
X1695374Y896884D01*
X1695394Y891806D01*
X1697943Y889276D01*
X1700472Y891825D01*
X1700443Y899443D01*
X1690266Y904482D02*
X1690247Y909560D01*
X1690257Y907021D01*
X1700413Y907060D01*
X1700423Y904521D01*
X1685119Y922236D02*
X1685110Y924776D01*
X1687639Y927325D01*
X1700335Y927374D01*
X1700364Y919756D01*
X1697835Y917207D01*
X1692757Y917188D01*
X1690208Y919717D01*
X1690178Y927334D01*
X1690159Y932413D02*
X1700315Y932452D01*
X1700286Y940069D01*
X1697737Y942599D01*
X1690119Y942569D01*
X1690070Y955265D02*
X1690090Y950187D01*
X1692639Y947657D01*
X1697717Y947677D01*
X1700247Y950226D01*
X1700227Y955304D01*
X1697678Y957834D01*
X1695139Y957824D01*
X1695178Y947667D01*
X1705237Y973098D02*
X1690002Y973039D01*
X1690031Y965422D01*
X1692580Y962892D01*
X1697659Y962912D01*
X1700188Y965461D01*
X1700159Y973078D01*
X1705158Y993411D02*
X1689924Y993353D01*
X1689894Y1000970D01*
X1692424Y1003519D01*
X1694963Y1003529D01*
X1697502Y1003539D01*
X1700051Y1001009D01*
X1700080Y993392D01*
X1700021Y1008627D02*
X1692404Y1008597D01*
X1689855Y1011127D01*
X1689826Y1018744D01*
X1687286Y1018734D01*
X1684757Y1016185D01*
X1684767Y1013646D01*
X1689826Y1018744D02*
X1699982Y1018783D01*
X1689747Y1039057D02*
X1704982Y1039116D01*
X1699884Y1044175D01*
X1704943Y1049273D01*
X1689708Y1049214D01*
X1689688Y1054292D02*
X1689669Y1059371D01*
X1689679Y1056832D01*
X1699835Y1056871D01*
X1699845Y1054332D01*
X1699757Y1077184D02*
X1699786Y1069566D01*
X1697257Y1067018D01*
X1692179Y1066998D01*
X1689630Y1069527D01*
X1689600Y1077145D01*
X1704816Y1082282D02*
X1689581Y1082223D01*
X1697198Y1082252D01*
X1699727Y1084801D01*
X1699708Y1089880D01*
X1697159Y1092409D01*
X1689541Y1092380D01*
X1699669Y1100036D02*
X1699649Y1105115D01*
X1697100Y1107644D01*
X1689483Y1107615D01*
X1689512Y1099997D01*
X1692061Y1097468D01*
X1694590Y1100017D01*
X1694561Y1107634D01*
X1689434Y1120311D02*
X1689453Y1115232D01*
X1692002Y1112703D01*
X1697081Y1112722D01*
X1699610Y1115271D01*
X1699590Y1120350D01*
X1697041Y1122879D01*
X1694502Y1122869D01*
X1694541Y1112713D01*
X1689404Y1127928D02*
X1689385Y1133006D01*
X1689395Y1130467D01*
X1704630Y1130526D01*
X1704639Y1127987D01*
X1689297Y1155859D02*
X1704532Y1155918D01*
X1704502Y1163535D01*
X1701953Y1166064D01*
X1696875Y1166045D01*
X1694346Y1163496D01*
X1694375Y1155878D01*
X1689209Y1178711D02*
X1689228Y1173633D01*
X1691777Y1171103D01*
X1696855Y1171123D01*
X1699385Y1173672D01*
X1699365Y1178750D01*
X1696816Y1181280D01*
X1694277Y1181270D01*
X1694316Y1171113D01*
X1689179Y1186329D02*
X1689160Y1191407D01*
X1689169Y1188868D01*
X1704404Y1188927D01*
X1704414Y1186387D01*
X1689130Y1199024D02*
X1689111Y1204103D01*
X1689120Y1201564D01*
X1704355Y1201622D01*
X1704365Y1199083D01*
X1689052Y1219338D02*
X1689071Y1214259D01*
X1691620Y1211730D01*
X1696699Y1211750D01*
X1699228Y1214298D01*
X1699208Y1219377D01*
X1696660Y1221906D01*
X1694120Y1221896D01*
X1694160Y1211740D01*
X1701708Y1229543D02*
X1699169Y1229533D01*
X1699179Y1226994D01*
X1699160Y1232073D01*
X1699169Y1229533D01*
X1691552Y1229504D01*
X1689003Y1232033D01*
X1660947Y868820D02*
X1663496Y866291D01*
X1660967Y863742D01*
X1660977Y861202D01*
X1663526Y858673D01*
X1666065Y858683D01*
X1668594Y861232D01*
X1671143Y858702D01*
X1673682Y858712D01*
X1676212Y861261D01*
X1676202Y863801D01*
X1673653Y866330D01*
X1671114Y866320D01*
X1668584Y863771D01*
X1666035Y866301D01*
X1663496Y866291D01*
X1668565Y868849D02*
X1666035Y866301D01*
X1668594Y861232D02*
X1668584Y863771D01*
X1673555Y891721D02*
X1671016Y891712D01*
X1671026Y889173D01*
X1671006Y894251D01*
X1671016Y891712D01*
X1663398Y891682D01*
X1660849Y894212D01*
X1660791Y909447D02*
X1660810Y904368D01*
X1663359Y901839D01*
X1668437Y901859D01*
X1670967Y904407D01*
X1670947Y909486D01*
X1668398Y912015D01*
X1665859Y912005D01*
X1665898Y901849D01*
X1670908Y919642D02*
X1670888Y924721D01*
X1668339Y927250D01*
X1660722Y927221D01*
X1660751Y919603D01*
X1663300Y917074D01*
X1665830Y919623D01*
X1665800Y927240D01*
X1660702Y932299D02*
X1670859Y932338D01*
X1670849Y934877D01*
X1668300Y937407D01*
X1660683Y937377D01*
X1668300Y937407D01*
X1670830Y939956D01*
X1668281Y942485D01*
X1660663Y942456D01*
X1675820Y962828D02*
X1660585Y962769D01*
X1660555Y970386D01*
X1663085Y972935D01*
X1673241Y972975D01*
X1675790Y970445D01*
X1675820Y962828D01*
X1675761Y978063D02*
X1663065Y978014D01*
X1660516Y980543D01*
X1660497Y985621D01*
X1663026Y988170D01*
X1675722Y988219D01*
X1673124Y1003445D02*
X1675673Y1000915D01*
X1675692Y995837D01*
X1673163Y993288D01*
X1670624Y993278D01*
X1668075Y995807D01*
X1668055Y1000886D01*
X1665506Y1003415D01*
X1662967Y1003405D01*
X1660438Y1000856D01*
X1660457Y995778D01*
X1663006Y993249D01*
X1675643Y1008533D02*
X1675604Y1018689D01*
X1675624Y1013611D01*
X1660389Y1013552D01*
X1675546Y1033924D02*
X1675585Y1023767D01*
X1660350Y1023709D01*
X1660311Y1033865D01*
X1667967Y1023738D02*
X1667948Y1028817D01*
X1660291Y1038944D02*
X1675526Y1039003D01*
X1675497Y1046620D01*
X1672948Y1049149D01*
X1667869Y1049130D01*
X1665340Y1046581D01*
X1665369Y1038963D01*
X1665350Y1044042D02*
X1660252Y1049100D01*
X1651804Y868785D02*
X1651844Y858628D01*
X1636608Y858569D01*
X1636569Y868726D01*
X1644226Y858599D02*
X1644206Y863677D01*
X1636550Y873804D02*
X1651785Y873863D01*
X1651755Y881481D01*
X1649206Y884010D01*
X1644128Y883990D01*
X1641599Y881441D01*
X1641628Y873824D01*
X1651687Y899255D02*
X1651726Y889098D01*
X1644108Y889069D01*
X1644089Y894147D01*
X1644108Y889069D01*
X1636491Y889039D01*
X1651667Y904333D02*
X1636432Y904274D01*
X1636393Y914431D01*
X1633824Y922039D02*
X1636354Y924587D01*
X1638893Y924597D01*
X1638903Y922058D01*
X1636364Y922048D01*
X1636354Y924587D01*
X1633824Y922039D01*
X1631295Y919490D01*
X1636256Y949979D02*
X1636227Y957597D01*
X1638756Y960146D01*
X1641305Y957616D01*
X1641324Y952538D01*
X1643873Y950008D01*
X1646403Y952558D01*
X1646373Y960175D01*
X1631119Y965194D02*
X1646354Y965253D01*
X1646324Y972871D01*
X1643775Y975400D01*
X1638697Y975380D01*
X1636168Y972832D01*
X1636197Y965214D01*
X1646295Y980488D02*
X1636138Y980449D01*
X1641217Y980469D01*
X1643746Y983018D01*
X1646275Y985566D01*
X1646266Y988106D01*
X1636080Y995684D02*
X1636060Y1000762D01*
X1636070Y998223D01*
X1646227Y998262D01*
X1646236Y995723D01*
X1636031Y1008380D02*
X1646187Y1008419D01*
X1646158Y1016036D01*
X1643609Y1018566D01*
X1635991Y1018536D01*
X1630874Y1028673D02*
X1630864Y1031213D01*
X1633394Y1033762D01*
X1646089Y1033811D01*
X1646119Y1026193D01*
X1643589Y1023644D01*
X1638511Y1023624D01*
X1635962Y1026154D01*
X1635933Y1033771D01*
X1635815Y1064241D02*
X1635854Y1054085D01*
X1645972Y1064280D01*
X1648511Y1064290D01*
X1651060Y1061761D01*
X1651080Y1056683D01*
X1648550Y1054134D01*
X1648491Y1069369D02*
X1651021Y1071917D01*
X1651001Y1076996D01*
X1648452Y1079525D01*
X1638295Y1079486D01*
X1635766Y1076937D01*
X1635786Y1071859D01*
X1638335Y1069329D01*
X1648491Y1069369D01*
X1635737Y1084555D02*
X1635717Y1089633D01*
X1635727Y1087094D01*
X1650962Y1087152D01*
X1648433Y1084604D01*
X1650923Y1097309D02*
X1650884Y1107466D01*
X1648344Y1107456D01*
X1638227Y1097260D01*
X1635688Y1097250D01*
D54*
X1454186Y943536D02*
X1479586D01*
Y1146736D01*
X1454186D02*
X1479586D01*
X1454186Y943536D02*
Y1146736D01*
X477750Y589250D02*
Y594750D01*
X455750Y589250D02*
Y594750D01*
Y589250D02*
X459250D01*
X474250D02*
X477750D01*
X424500Y588750D02*
Y594250D01*
X402500Y588750D02*
Y594250D01*
Y588750D02*
X406000D01*
X421000D02*
X424500D01*
X1650850Y743650D02*
X1676100D01*
X1625350Y692650D02*
Y717900D01*
X1650850Y667150D02*
X1676100D01*
X1701350Y692650D02*
Y717900D01*
X1650850Y472650D02*
X1676100D01*
X1625350Y421650D02*
Y446900D01*
X1650850Y396150D02*
X1676100D01*
X1701350Y421650D02*
Y446900D01*
X1534907Y607989D02*
X1560157D01*
X1509407Y556989D02*
Y582239D01*
X1534907Y531489D02*
X1560157D01*
X1585407Y556989D02*
Y582239D01*
X624420Y1160750D02*
Y1224750D01*
Y1160750D02*
X656170D01*
Y1167750D01*
X717130D01*
Y1160750D02*
Y1167750D01*
Y1160750D02*
X748880D01*
Y1224750D01*
X624420D02*
X748880D01*
X490870Y1160500D02*
Y1224500D01*
Y1160500D02*
X522620D01*
Y1167500D01*
X583580D01*
Y1160500D02*
Y1167500D01*
Y1160500D02*
X615330D01*
Y1224500D01*
X490870D02*
X615330D01*
X1003400Y1175500D02*
X1181200D01*
X1003400D02*
Y1239500D01*
X1028800D01*
Y1232500D02*
Y1239500D01*
Y1232500D02*
X1155800D01*
Y1239500D01*
X1181200D01*
Y1175500D02*
Y1239500D01*
X929500Y514500D02*
Y549500D01*
X884500Y514500D02*
X929500D01*
X884500D02*
Y559500D01*
X874500Y339500D02*
Y569500D01*
X884500Y559500D02*
X910250D01*
Y549500D02*
X929500D01*
X910250D02*
Y559500D01*
X874500Y569500D02*
X909250D01*
X1069000Y568750D02*
X1104500D01*
X874500Y339500D02*
X908750D01*
X1104500Y339750D02*
Y568750D01*
X1069500Y339750D02*
X1104500D01*
X280000Y370000D02*
Y752500D01*
X687500D01*
X735000Y705000D01*
Y417500D02*
Y705000D01*
X687500Y370000D02*
X735000Y417500D01*
X280000Y370000D02*
X687500D01*
X1094750Y587497D02*
Y579166D01*
X1093084Y577500D01*
X1089752D01*
X1088085Y579166D01*
Y587497D01*
X1084753Y577500D02*
X1081421D01*
X1083087D01*
Y587497D01*
X1084753Y585831D01*
X1076423Y579166D02*
X1074756Y577500D01*
X1071424D01*
X1069758Y579166D01*
Y585831D01*
X1071424Y587497D01*
X1074756D01*
X1076423Y585831D01*
Y584165D01*
X1074756Y582498D01*
X1069758D01*
X787194Y1086341D02*
X780529D01*
X783862D01*
Y1076344D01*
X777197D02*
Y1086341D01*
X772199D01*
X770533Y1084675D01*
Y1081342D01*
X772199Y1079676D01*
X777197D01*
X760536Y1076344D02*
X767200D01*
X760536Y1083008D01*
Y1084675D01*
X762202Y1086341D01*
X765534D01*
X767200Y1084675D01*
X750539Y1076344D02*
X757204D01*
X750539Y1083008D01*
Y1084675D01*
X752205Y1086341D01*
X755537D01*
X757204Y1084675D01*
X827278Y1175349D02*
X820613D01*
X823946D01*
Y1165352D01*
X817281D02*
Y1175349D01*
X812283D01*
X810617Y1173683D01*
Y1170350D01*
X812283Y1168684D01*
X817281D01*
X800620Y1165352D02*
X807284D01*
X800620Y1172017D01*
Y1173683D01*
X802286Y1175349D01*
X805618D01*
X807284Y1173683D01*
X797288Y1165352D02*
X793955D01*
X795621D01*
Y1175349D01*
X797288Y1173683D01*
X490500Y1032247D02*
X483835D01*
X487168D01*
Y1022250D01*
X480503D02*
Y1032247D01*
X475505D01*
X473839Y1030581D01*
Y1027248D01*
X475505Y1025582D01*
X480503D01*
X470507Y1023916D02*
X468840Y1022250D01*
X465508D01*
X463842Y1023916D01*
Y1030581D01*
X465508Y1032247D01*
X468840D01*
X470507Y1030581D01*
Y1028914D01*
X468840Y1027248D01*
X463842D01*
X439674Y936589D02*
X433009D01*
X436342D01*
Y926592D01*
X429677D02*
Y936589D01*
X424679D01*
X423013Y934923D01*
Y931590D01*
X424679Y929924D01*
X429677D01*
X419680Y934923D02*
X418014Y936589D01*
X414682D01*
X413016Y934923D01*
Y933257D01*
X414682Y931590D01*
X413016Y929924D01*
Y928258D01*
X414682Y926592D01*
X418014D01*
X419680Y928258D01*
Y929924D01*
X418014Y931590D01*
X419680Y933257D01*
Y934923D01*
X418014Y931590D02*
X414682D01*
X897250Y1220497D02*
X890585D01*
X893918D01*
Y1210500D01*
X887253D02*
Y1220497D01*
X882255D01*
X880589Y1218831D01*
Y1215498D01*
X882255Y1213832D01*
X887253D01*
X877256Y1220497D02*
X870592D01*
Y1218831D01*
X877256Y1212166D01*
Y1210500D01*
X358394Y899505D02*
X351730D01*
X355062D01*
Y889508D01*
X348397D02*
Y899505D01*
X343399D01*
X341733Y897839D01*
Y894506D01*
X343399Y892840D01*
X348397D01*
X331736Y899505D02*
X335068Y897839D01*
X338400Y894506D01*
Y891174D01*
X336734Y889508D01*
X333402D01*
X331736Y891174D01*
Y892840D01*
X333402Y894506D01*
X338400D01*
X957834Y1220815D02*
X951170D01*
X954502D01*
Y1210818D01*
X947837D02*
Y1220815D01*
X942839D01*
X941173Y1219149D01*
Y1215816D01*
X942839Y1214150D01*
X947837D01*
X931176Y1220815D02*
X937840D01*
Y1215816D01*
X934508Y1217483D01*
X932842D01*
X931176Y1215816D01*
Y1212484D01*
X932842Y1210818D01*
X936174D01*
X937840Y1212484D01*
X294250Y757000D02*
Y766997D01*
X289252D01*
X287586Y765331D01*
Y761998D01*
X289252Y760332D01*
X294250D01*
X279255Y757000D02*
Y766997D01*
X284253Y761998D01*
X277589D01*
X1462750Y1165500D02*
X1472747D01*
Y1170498D01*
X1471081Y1172165D01*
X1467748D01*
X1466082Y1170498D01*
Y1165500D01*
X1471081Y1175497D02*
X1472747Y1177163D01*
Y1180495D01*
X1471081Y1182161D01*
X1469415D01*
X1467748Y1180495D01*
Y1178829D01*
Y1180495D01*
X1466082Y1182161D01*
X1464416D01*
X1462750Y1180495D01*
Y1177163D01*
X1464416Y1175497D01*
X1480836Y703247D02*
X1487500D01*
Y698248D01*
X1484168D01*
X1487500D01*
Y693250D01*
X1477503Y703247D02*
Y693250D01*
X1472505D01*
X1470839Y694916D01*
Y696582D01*
X1472505Y698248D01*
X1477503D01*
X1472505D01*
X1470839Y699914D01*
Y701581D01*
X1472505Y703247D01*
X1477503D01*
X1467506Y694916D02*
X1465840Y693250D01*
X1462508D01*
X1460842Y694916D01*
Y701581D01*
X1462508Y703247D01*
X1465840D01*
X1467506Y701581D01*
Y699914D01*
X1465840Y698248D01*
X1460842D01*
X1592253Y478835D02*
Y485500D01*
X1597252D01*
Y482168D01*
Y485500D01*
X1602250D01*
X1592253Y475503D02*
X1602250D01*
Y470505D01*
X1600584Y468839D01*
X1598918D01*
X1597252Y470505D01*
Y475503D01*
Y470505D01*
X1595585Y468839D01*
X1593919D01*
X1592253Y470505D01*
Y475503D01*
Y458842D02*
X1593919Y462174D01*
X1597252Y465506D01*
X1600584D01*
X1602250Y463840D01*
Y460508D01*
X1600584Y458842D01*
X1598918D01*
X1597252Y460508D01*
Y465506D01*
X422500Y1291497D02*
Y1281500D01*
X417502D01*
X415835Y1283166D01*
Y1289831D01*
X417502Y1291497D01*
X422500D01*
X412503Y1281500D02*
X409171D01*
X410837D01*
Y1291497D01*
X412503Y1289831D01*
X397508Y1291497D02*
X400840Y1289831D01*
X404173Y1286498D01*
Y1283166D01*
X402506Y1281500D01*
X399174D01*
X397508Y1283166D01*
Y1284832D01*
X399174Y1286498D01*
X404173D01*
X1599997Y1218250D02*
X1590000D01*
Y1223248D01*
X1591666Y1224914D01*
X1593332D01*
X1594998Y1223248D01*
Y1218250D01*
Y1223248D01*
X1596664Y1224914D01*
X1598331D01*
X1599997Y1223248D01*
Y1218250D01*
X1590000Y1228247D02*
Y1231579D01*
Y1229913D01*
X1599997D01*
X1598331Y1228247D01*
X597000Y1293497D02*
Y1283500D01*
X592002D01*
X590336Y1285166D01*
Y1291831D01*
X592002Y1293497D01*
X597000D01*
X587003Y1283500D02*
X583671D01*
X585337D01*
Y1293497D01*
X587003Y1291831D01*
X578673Y1293497D02*
X572008D01*
Y1291831D01*
X578673Y1285166D01*
Y1283500D01*
X511750Y1292747D02*
Y1282750D01*
X506752D01*
X505085Y1284416D01*
Y1291081D01*
X506752Y1292747D01*
X511750D01*
X501753Y1282750D02*
X498421D01*
X500087D01*
Y1292747D01*
X501753Y1291081D01*
X493423D02*
X491756Y1292747D01*
X488424D01*
X486758Y1291081D01*
Y1289415D01*
X488424Y1287748D01*
X486758Y1286082D01*
Y1284416D01*
X488424Y1282750D01*
X491756D01*
X493423Y1284416D01*
Y1286082D01*
X491756Y1287748D01*
X493423Y1289415D01*
Y1291081D01*
X491756Y1287748D02*
X488424D01*
X327750Y1289747D02*
Y1279750D01*
X322752D01*
X321086Y1281416D01*
Y1288081D01*
X322752Y1289747D01*
X327750D01*
X317753Y1279750D02*
X314421D01*
X316087D01*
Y1289747D01*
X317753Y1288081D01*
X309423Y1281416D02*
X307756Y1279750D01*
X304424D01*
X302758Y1281416D01*
Y1288081D01*
X304424Y1289747D01*
X307756D01*
X309423Y1288081D01*
Y1286414D01*
X307756Y1284748D01*
X302758D01*
X338500Y1327500D02*
Y1317503D01*
X343498D01*
X345164Y1319169D01*
Y1322502D01*
X343498Y1324168D01*
X338500D01*
X348497Y1327500D02*
X351829D01*
X350163D01*
Y1317503D01*
X348497Y1319169D01*
X356827D02*
X358494Y1317503D01*
X361826D01*
X363492Y1319169D01*
Y1320836D01*
X361826Y1322502D01*
X363492Y1324168D01*
Y1325834D01*
X361826Y1327500D01*
X358494D01*
X356827Y1325834D01*
Y1324168D01*
X358494Y1322502D01*
X356827Y1320836D01*
Y1319169D01*
X358494Y1322502D02*
X361826D01*
X519250Y1328750D02*
Y1318753D01*
X524248D01*
X525914Y1320419D01*
Y1323752D01*
X524248Y1325418D01*
X519250D01*
X529247Y1328750D02*
X532579D01*
X530913D01*
Y1318753D01*
X529247Y1320419D01*
X537577Y1318753D02*
X544242D01*
Y1320419D01*
X537577Y1327084D01*
Y1328750D01*
X619500Y1330250D02*
Y1320253D01*
X624498D01*
X626165Y1321919D01*
Y1325252D01*
X624498Y1326918D01*
X619500D01*
X629497Y1330250D02*
X632829D01*
X631163D01*
Y1320253D01*
X629497Y1321919D01*
X644492Y1320253D02*
X641160Y1321919D01*
X637827Y1325252D01*
Y1328584D01*
X639494Y1330250D01*
X642826D01*
X644492Y1328584D01*
Y1326918D01*
X642826Y1325252D01*
X637827D01*
X430000Y1328750D02*
Y1318753D01*
X434998D01*
X436665Y1320419D01*
Y1323752D01*
X434998Y1325418D01*
X430000D01*
X439997Y1328750D02*
X443329D01*
X441663D01*
Y1318753D01*
X439997Y1320419D01*
X454992Y1318753D02*
X448327D01*
Y1323752D01*
X451660Y1322086D01*
X453326D01*
X454992Y1323752D01*
Y1327084D01*
X453326Y1328750D01*
X449994D01*
X448327Y1327084D01*
X1197250Y1244750D02*
Y1254747D01*
X1192252D01*
X1190585Y1253081D01*
Y1249748D01*
X1192252Y1248082D01*
X1197250D01*
X1180589Y1244750D02*
X1187253D01*
X1180589Y1251414D01*
Y1253081D01*
X1182255Y1254747D01*
X1185587D01*
X1187253Y1253081D01*
X496500Y270750D02*
Y280747D01*
X491502D01*
X489836Y279081D01*
Y275748D01*
X491502Y274082D01*
X496500D01*
X479839Y280747D02*
X486503D01*
Y275748D01*
X483171Y277414D01*
X481505D01*
X479839Y275748D01*
Y272416D01*
X481505Y270750D01*
X484837D01*
X486503Y272416D01*
X413500Y269750D02*
Y279747D01*
X408502D01*
X406836Y278081D01*
Y274748D01*
X408502Y273082D01*
X413500D01*
X396839Y279747D02*
X400171Y278081D01*
X403503Y274748D01*
Y271416D01*
X401837Y269750D01*
X398505D01*
X396839Y271416D01*
Y273082D01*
X398505Y274748D01*
X403503D01*
X333750Y269750D02*
Y279747D01*
X328752D01*
X327085Y278081D01*
Y274748D01*
X328752Y273082D01*
X333750D01*
X323753Y279747D02*
X317089D01*
Y278081D01*
X323753Y271416D01*
Y269750D01*
X468500Y1289250D02*
X478497D01*
Y1294248D01*
X476831Y1295914D01*
X473498D01*
X471832Y1294248D01*
Y1289250D01*
Y1292582D02*
X468500Y1295914D01*
X478497Y1305911D02*
Y1299247D01*
X473498D01*
X475164Y1302579D01*
Y1304245D01*
X473498Y1305911D01*
X470166D01*
X468500Y1304245D01*
Y1300913D01*
X470166Y1299247D01*
X476831Y1309244D02*
X478497Y1310910D01*
Y1314242D01*
X476831Y1315908D01*
X475164D01*
X473498Y1314242D01*
Y1312576D01*
Y1314242D01*
X471832Y1315908D01*
X470166D01*
X468500Y1314242D01*
Y1310910D01*
X470166Y1309244D01*
X381750Y1287250D02*
X391747D01*
Y1292248D01*
X390081Y1293914D01*
X386748D01*
X385082Y1292248D01*
Y1287250D01*
Y1290582D02*
X381750Y1293914D01*
X391747Y1303911D02*
Y1297247D01*
X386748D01*
X388414Y1300579D01*
Y1302245D01*
X386748Y1303911D01*
X383416D01*
X381750Y1302245D01*
Y1298913D01*
X383416Y1297247D01*
Y1307244D02*
X381750Y1308910D01*
Y1312242D01*
X383416Y1313908D01*
X390081D01*
X391747Y1312242D01*
Y1308910D01*
X390081Y1307244D01*
X388414D01*
X386748Y1308910D01*
Y1313908D01*
X386500Y547250D02*
X396497D01*
Y552248D01*
X394831Y553914D01*
X391498D01*
X389832Y552248D01*
Y547250D01*
Y550582D02*
X386500Y553914D01*
X394831Y557247D02*
X396497Y558913D01*
Y562245D01*
X394831Y563911D01*
X393164D01*
X391498Y562245D01*
Y560579D01*
Y562245D01*
X389832Y563911D01*
X388166D01*
X386500Y562245D01*
Y558913D01*
X388166Y557247D01*
X386500Y567244D02*
Y570576D01*
Y568910D01*
X396497D01*
X394831Y567244D01*
X1292606Y836259D02*
X1285941D01*
X1289274D01*
Y826262D01*
X1282609D02*
Y836259D01*
X1277611D01*
X1275945Y834593D01*
Y831260D01*
X1277611Y829594D01*
X1282609D01*
X1265948Y826262D02*
X1272612D01*
X1265948Y832926D01*
Y834593D01*
X1267614Y836259D01*
X1270946D01*
X1272612Y834593D01*
X1241750Y839497D02*
X1235086D01*
X1238418D01*
Y829500D01*
X1231753D02*
Y839497D01*
X1226755D01*
X1225089Y837831D01*
Y834498D01*
X1226755Y832832D01*
X1231753D01*
X1221756Y837831D02*
X1220090Y839497D01*
X1216758D01*
X1215092Y837831D01*
Y836164D01*
X1216758Y834498D01*
X1218424D01*
X1216758D01*
X1215092Y832832D01*
Y831166D01*
X1216758Y829500D01*
X1220090D01*
X1221756Y831166D01*
X787146Y1175349D02*
X780481D01*
X783814D01*
Y1165352D01*
X777149D02*
Y1175349D01*
X772151D01*
X770485Y1173683D01*
Y1170350D01*
X772151Y1168684D01*
X777149D01*
X760488Y1165352D02*
X767152D01*
X760488Y1172017D01*
Y1173683D01*
X762154Y1175349D01*
X765486D01*
X767152Y1173683D01*
X757156D02*
X755490Y1175349D01*
X752157D01*
X750491Y1173683D01*
Y1172017D01*
X752157Y1170350D01*
X753823D01*
X752157D01*
X750491Y1168684D01*
Y1167018D01*
X752157Y1165352D01*
X755490D01*
X757156Y1167018D01*
X807500Y1111497D02*
X800835D01*
X804168D01*
Y1101500D01*
X797503D02*
Y1111497D01*
X792505D01*
X790839Y1109831D01*
Y1106498D01*
X792505Y1104832D01*
X797503D01*
X780842Y1101500D02*
X787506D01*
X780842Y1108165D01*
Y1109831D01*
X782508Y1111497D01*
X785840D01*
X787506Y1109831D01*
X777510D02*
X775844Y1111497D01*
X772511D01*
X770845Y1109831D01*
Y1103166D01*
X772511Y1101500D01*
X775844D01*
X777510Y1103166D01*
Y1109831D01*
X499500Y1230750D02*
Y1240747D01*
X494502D01*
X492836Y1239081D01*
Y1235748D01*
X494502Y1234082D01*
X499500D01*
X489503Y1239081D02*
X487837Y1240747D01*
X484505D01*
X482839Y1239081D01*
Y1237414D01*
X484505Y1235748D01*
X482839Y1234082D01*
Y1232416D01*
X484505Y1230750D01*
X487837D01*
X489503Y1232416D01*
Y1234082D01*
X487837Y1235748D01*
X489503Y1237414D01*
Y1239081D01*
X487837Y1235748D02*
X484505D01*
X747776Y1232916D02*
Y1242913D01*
X742778D01*
X741112Y1241247D01*
Y1237914D01*
X742778Y1236248D01*
X747776D01*
X737779Y1234582D02*
X736113Y1232916D01*
X732781D01*
X731115Y1234582D01*
Y1241247D01*
X732781Y1242913D01*
X736113D01*
X737779Y1241247D01*
Y1239581D01*
X736113Y1237914D01*
X731115D01*
X1612169Y592085D02*
X1610503Y593752D01*
Y597084D01*
X1612169Y598750D01*
X1618834D01*
X1620500Y597084D01*
Y593752D01*
X1618834Y592085D01*
X1620500Y588753D02*
Y585421D01*
Y587087D01*
X1610503D01*
X1612169Y588753D01*
X1620500Y580423D02*
Y577090D01*
Y578756D01*
X1610503D01*
X1612169Y580423D01*
X1620500Y565427D02*
Y572092D01*
X1613835Y565427D01*
X1612169D01*
X1610503Y567094D01*
Y570426D01*
X1612169Y572092D01*
X851662Y366359D02*
Y356362D01*
X846664D01*
X844997Y358028D01*
Y364693D01*
X846664Y366359D01*
X851662D01*
X835001Y356362D02*
X841665D01*
X835001Y363027D01*
Y364693D01*
X836667Y366359D01*
X839999D01*
X841665Y364693D01*
X831668D02*
X830002Y366359D01*
X826670D01*
X825004Y364693D01*
Y358028D01*
X826670Y356362D01*
X830002D01*
X831668Y358028D01*
Y364693D01*
X560250Y333747D02*
Y323750D01*
X555252D01*
X553586Y325416D01*
Y332081D01*
X555252Y333747D01*
X560250D01*
X543589Y323750D02*
X550253D01*
X543589Y330415D01*
Y332081D01*
X545255Y333747D01*
X548587D01*
X550253Y332081D01*
X540257D02*
X538590Y333747D01*
X535258D01*
X533592Y332081D01*
Y330415D01*
X535258Y328748D01*
X533592Y327082D01*
Y325416D01*
X535258Y323750D01*
X538590D01*
X540257Y325416D01*
Y327082D01*
X538590Y328748D01*
X540257Y330415D01*
Y332081D01*
X538590Y328748D02*
X535258D01*
X641750Y332747D02*
Y322750D01*
X636752D01*
X635085Y324416D01*
Y331081D01*
X636752Y332747D01*
X641750D01*
X625089Y322750D02*
X631753D01*
X625089Y329414D01*
Y331081D01*
X626755Y332747D01*
X630087D01*
X631753Y331081D01*
X621756Y324416D02*
X620090Y322750D01*
X616758D01*
X615092Y324416D01*
Y331081D01*
X616758Y332747D01*
X620090D01*
X621756Y331081D01*
Y329414D01*
X620090Y327748D01*
X615092D01*
X846000Y275250D02*
Y285247D01*
X841002D01*
X839335Y283581D01*
Y280248D01*
X841002Y278582D01*
X846000D01*
X836003Y275250D02*
X832671D01*
X834337D01*
Y285247D01*
X836003Y283581D01*
X827673Y276916D02*
X826006Y275250D01*
X822674D01*
X821008Y276916D01*
Y283581D01*
X822674Y285247D01*
X826006D01*
X827673Y283581D01*
Y281915D01*
X826006Y280248D01*
X821008D01*
X1585722Y617220D02*
Y627217D01*
X1580724D01*
X1579057Y625551D01*
Y622218D01*
X1580724Y620552D01*
X1585722D01*
X1575725Y625551D02*
X1574059Y627217D01*
X1570727D01*
X1569061Y625551D01*
Y623885D01*
X1570727Y622218D01*
X1572393D01*
X1570727D01*
X1569061Y620552D01*
Y618886D01*
X1570727Y617220D01*
X1574059D01*
X1575725Y618886D01*
X1559064Y617220D02*
X1565728D01*
X1559064Y623885D01*
Y625551D01*
X1560730Y627217D01*
X1564062D01*
X1565728Y625551D01*
X1701800Y481838D02*
Y491835D01*
X1696802D01*
X1695135Y490169D01*
Y486836D01*
X1696802Y485170D01*
X1701800D01*
X1691803Y490169D02*
X1690137Y491835D01*
X1686805D01*
X1685139Y490169D01*
Y488503D01*
X1686805Y486836D01*
X1688471D01*
X1686805D01*
X1685139Y485170D01*
Y483504D01*
X1686805Y481838D01*
X1690137D01*
X1691803Y483504D01*
X1681806Y490169D02*
X1680140Y491835D01*
X1676808D01*
X1675142Y490169D01*
Y488503D01*
X1676808Y486836D01*
X1678474D01*
X1676808D01*
X1675142Y485170D01*
Y483504D01*
X1676808Y481838D01*
X1680140D01*
X1681806Y483504D01*
X1701800Y752856D02*
Y762853D01*
X1696802D01*
X1695135Y761187D01*
Y757854D01*
X1696802Y756188D01*
X1701800D01*
X1691803Y761187D02*
X1690137Y762853D01*
X1686805D01*
X1685139Y761187D01*
Y759520D01*
X1686805Y757854D01*
X1688471D01*
X1686805D01*
X1685139Y756188D01*
Y754522D01*
X1686805Y752856D01*
X1690137D01*
X1691803Y754522D01*
X1676808Y752856D02*
Y762853D01*
X1681806Y757854D01*
X1675142D01*
X599250Y269500D02*
Y279497D01*
X594252D01*
X592585Y277831D01*
Y274498D01*
X594252Y272832D01*
X599250D01*
X589253Y277831D02*
X587587Y279497D01*
X584255D01*
X582589Y277831D01*
Y276164D01*
X584255Y274498D01*
X585921D01*
X584255D01*
X582589Y272832D01*
Y271166D01*
X584255Y269500D01*
X587587D01*
X589253Y271166D01*
X572592Y279497D02*
X579256D01*
Y274498D01*
X575924Y276164D01*
X574258D01*
X572592Y274498D01*
Y271166D01*
X574258Y269500D01*
X577590D01*
X579256Y271166D01*
X682500Y271000D02*
Y280997D01*
X677502D01*
X675835Y279331D01*
Y275998D01*
X677502Y274332D01*
X682500D01*
X672503Y279331D02*
X670837Y280997D01*
X667505D01*
X665839Y279331D01*
Y277665D01*
X667505Y275998D01*
X669171D01*
X667505D01*
X665839Y274332D01*
Y272666D01*
X667505Y271000D01*
X670837D01*
X672503Y272666D01*
X655842Y280997D02*
X659174Y279331D01*
X662506Y275998D01*
Y272666D01*
X660840Y271000D01*
X657508D01*
X655842Y272666D01*
Y274332D01*
X657508Y275998D01*
X662506D01*
X387416Y594915D02*
X394081D01*
X395747Y593248D01*
Y589916D01*
X394081Y588250D01*
X387416D01*
X385750Y589916D01*
Y593248D01*
X389082Y591582D02*
X385750Y594915D01*
Y593248D02*
X387416Y594915D01*
X385750Y604911D02*
Y598247D01*
X392415Y604911D01*
X394081D01*
X395747Y603245D01*
Y599913D01*
X394081Y598247D01*
X493334Y594836D02*
X486669D01*
X485003Y596502D01*
Y599834D01*
X486669Y601500D01*
X493334D01*
X495000Y599834D01*
Y596502D01*
X491668Y598168D02*
X495000Y594836D01*
Y596502D02*
X493334Y594836D01*
X486669Y591503D02*
X485003Y589837D01*
Y586505D01*
X486669Y584839D01*
X488335D01*
X490002Y586505D01*
Y588171D01*
Y586505D01*
X491668Y584839D01*
X493334D01*
X495000Y586505D01*
Y589837D01*
X493334Y591503D01*
X486000Y546750D02*
X495997D01*
Y551748D01*
X494331Y553414D01*
X490998D01*
X489332Y551748D01*
Y546750D01*
Y550082D02*
X486000Y553414D01*
X494331Y556747D02*
X495997Y558413D01*
Y561745D01*
X494331Y563411D01*
X492664D01*
X490998Y561745D01*
Y560079D01*
Y561745D01*
X489332Y563411D01*
X487666D01*
X486000Y561745D01*
Y558413D01*
X487666Y556747D01*
X486000Y573408D02*
Y566744D01*
X492664Y573408D01*
X494331D01*
X495997Y571742D01*
Y568410D01*
X494331Y566744D01*
X389250Y620500D02*
Y630497D01*
X384252D01*
X382585Y628831D01*
Y625498D01*
X384252Y623832D01*
X389250D01*
X385918D02*
X382585Y620500D01*
X379253Y628831D02*
X377587Y630497D01*
X374255D01*
X372589Y628831D01*
Y627164D01*
X374255Y625498D01*
X375921D01*
X374255D01*
X372589Y623832D01*
Y622166D01*
X374255Y620500D01*
X377587D01*
X379253Y622166D01*
X364258Y620500D02*
Y630497D01*
X369256Y625498D01*
X362592D01*
X508500Y620750D02*
Y630747D01*
X503502D01*
X501836Y629081D01*
Y625748D01*
X503502Y624082D01*
X508500D01*
X505168D02*
X501836Y620750D01*
X498503Y629081D02*
X496837Y630747D01*
X493505D01*
X491839Y629081D01*
Y627415D01*
X493505Y625748D01*
X495171D01*
X493505D01*
X491839Y624082D01*
Y622416D01*
X493505Y620750D01*
X496837D01*
X498503Y622416D01*
X481842Y630747D02*
X488506D01*
Y625748D01*
X485174Y627415D01*
X483508D01*
X481842Y625748D01*
Y622416D01*
X483508Y620750D01*
X486840D01*
X488506Y622416D01*
X699250Y299500D02*
X709247D01*
Y304498D01*
X707581Y306164D01*
X704248D01*
X702582Y304498D01*
Y299500D01*
Y302832D02*
X699250Y306164D01*
X707581Y309497D02*
X709247Y311163D01*
Y314495D01*
X707581Y316161D01*
X705915D01*
X704248Y314495D01*
X702582Y316161D01*
X700916D01*
X699250Y314495D01*
Y311163D01*
X700916Y309497D01*
X702582D01*
X704248Y311163D01*
X705915Y309497D01*
X707581D01*
X704248Y311163D02*
Y314495D01*
X707581Y319494D02*
X709247Y321160D01*
Y324492D01*
X707581Y326158D01*
X705915D01*
X704248Y324492D01*
X702582Y326158D01*
X700916D01*
X699250Y324492D01*
Y321160D01*
X700916Y319494D01*
X702582D01*
X704248Y321160D01*
X705915Y319494D01*
X707581D01*
X704248Y321160D02*
Y324492D01*
X1468581Y1226915D02*
X1470247Y1225248D01*
Y1221916D01*
X1468581Y1220250D01*
X1466915D01*
X1465248Y1221916D01*
Y1225248D01*
X1463582Y1226915D01*
X1461916D01*
X1460250Y1225248D01*
Y1221916D01*
X1461916Y1220250D01*
X1460250Y1230247D02*
Y1233579D01*
Y1231913D01*
X1470247D01*
X1468581Y1230247D01*
X1303081Y1236665D02*
X1304747Y1234998D01*
Y1231666D01*
X1303081Y1230000D01*
X1301414D01*
X1299748Y1231666D01*
Y1234998D01*
X1298082Y1236665D01*
X1296416D01*
X1294750Y1234998D01*
Y1231666D01*
X1296416Y1230000D01*
X1294750Y1246661D02*
Y1239997D01*
X1301414Y1246661D01*
X1303081D01*
X1304747Y1244995D01*
Y1241663D01*
X1303081Y1239997D01*
X901700Y1118961D02*
X895035D01*
X898368D01*
Y1108964D01*
X891703D02*
Y1118961D01*
X886705D01*
X885039Y1117295D01*
Y1113962D01*
X886705Y1112296D01*
X891703D01*
X881706Y1108964D02*
X878374D01*
X880040D01*
Y1118961D01*
X881706Y1117295D01*
X789750Y809747D02*
X783085D01*
X786418D01*
Y799750D01*
X779753D02*
Y809747D01*
X774755D01*
X773089Y808081D01*
Y804748D01*
X774755Y803082D01*
X779753D01*
X769756Y799750D02*
X766424D01*
X768090D01*
Y809747D01*
X769756Y808081D01*
X761426D02*
X759760Y809747D01*
X756427D01*
X754761Y808081D01*
Y801416D01*
X756427Y799750D01*
X759760D01*
X761426Y801416D01*
Y808081D01*
X908304Y815939D02*
X901639D01*
X904972D01*
Y805942D01*
X898307D02*
Y815939D01*
X893309D01*
X891643Y814273D01*
Y810940D01*
X893309Y809274D01*
X898307D01*
X888310Y805942D02*
X884978D01*
X886644D01*
Y815939D01*
X888310Y814273D01*
X879980Y805942D02*
X876647D01*
X878314D01*
Y815939D01*
X879980Y814273D01*
X844500Y813497D02*
X837835D01*
X841168D01*
Y803500D01*
X834503D02*
Y813497D01*
X829505D01*
X827839Y811831D01*
Y808498D01*
X829505Y806832D01*
X834503D01*
X824506Y803500D02*
X821174D01*
X822840D01*
Y813497D01*
X824506Y811831D01*
X809511Y803500D02*
X816176D01*
X809511Y810164D01*
Y811831D01*
X811177Y813497D01*
X814510D01*
X816176Y811831D01*
X904750Y711247D02*
X898085D01*
X901418D01*
Y701250D01*
X894753D02*
Y711247D01*
X889755D01*
X888089Y709581D01*
Y706248D01*
X889755Y704582D01*
X894753D01*
X884756Y701250D02*
X881424D01*
X883090D01*
Y711247D01*
X884756Y709581D01*
X876426D02*
X874760Y711247D01*
X871427D01*
X869761Y709581D01*
Y707915D01*
X871427Y706248D01*
X873094D01*
X871427D01*
X869761Y704582D01*
Y702916D01*
X871427Y701250D01*
X874760D01*
X876426Y702916D01*
X955040Y808573D02*
X948375D01*
X951708D01*
Y798576D01*
X945043D02*
Y808573D01*
X940045D01*
X938379Y806907D01*
Y803574D01*
X940045Y801908D01*
X945043D01*
X935046Y798576D02*
X931714D01*
X933380D01*
Y808573D01*
X935046Y806907D01*
X921717Y798576D02*
Y808573D01*
X926716Y803574D01*
X920051D01*
X798000Y689747D02*
X791336D01*
X794668D01*
Y679750D01*
X788003D02*
Y689747D01*
X783005D01*
X781339Y688081D01*
Y684748D01*
X783005Y683082D01*
X788003D01*
X778006Y679750D02*
X774674D01*
X776340D01*
Y689747D01*
X778006Y688081D01*
X763011Y689747D02*
X769676D01*
Y684748D01*
X766344Y686414D01*
X764677D01*
X763011Y684748D01*
Y681416D01*
X764677Y679750D01*
X768010D01*
X769676Y681416D01*
X798500Y738497D02*
X791835D01*
X795168D01*
Y728500D01*
X788503D02*
Y738497D01*
X783505D01*
X781839Y736831D01*
Y733498D01*
X783505Y731832D01*
X788503D01*
X778506Y728500D02*
X775174D01*
X776840D01*
Y738497D01*
X778506Y736831D01*
X763511Y738497D02*
X766844Y736831D01*
X770176Y733498D01*
Y730166D01*
X768510Y728500D01*
X765177D01*
X763511Y730166D01*
Y731832D01*
X765177Y733498D01*
X770176D01*
X744500Y803997D02*
X737835D01*
X741168D01*
Y794000D01*
X734503D02*
Y803997D01*
X729505D01*
X727839Y802331D01*
Y798998D01*
X729505Y797332D01*
X734503D01*
X724507Y794000D02*
X721174D01*
X722840D01*
Y803997D01*
X724507Y802331D01*
X716176Y803997D02*
X709511D01*
Y802331D01*
X716176Y795666D01*
Y794000D01*
X1393250Y885997D02*
X1386586D01*
X1389918D01*
Y876000D01*
X1383253D02*
Y885997D01*
X1378255D01*
X1376589Y884331D01*
Y880998D01*
X1378255Y879332D01*
X1383253D01*
X1373256Y884331D02*
X1371590Y885997D01*
X1368258D01*
X1366592Y884331D01*
Y882664D01*
X1368258Y880998D01*
X1369924D01*
X1368258D01*
X1366592Y879332D01*
Y877666D01*
X1368258Y876000D01*
X1371590D01*
X1373256Y877666D01*
X1356595Y876000D02*
X1363260D01*
X1356595Y882664D01*
Y884331D01*
X1358261Y885997D01*
X1361593D01*
X1363260Y884331D01*
X1582420Y1043523D02*
X1575755D01*
X1579088D01*
Y1033526D01*
X1572423D02*
Y1043523D01*
X1567425D01*
X1565759Y1041857D01*
Y1038524D01*
X1567425Y1036858D01*
X1572423D01*
X1562426Y1041857D02*
X1560760Y1043523D01*
X1557428D01*
X1555762Y1041857D01*
Y1040191D01*
X1557428Y1038524D01*
X1559094D01*
X1557428D01*
X1555762Y1036858D01*
Y1035192D01*
X1557428Y1033526D01*
X1560760D01*
X1562426Y1035192D01*
X1552430Y1041857D02*
X1550764Y1043523D01*
X1547431D01*
X1545765Y1041857D01*
Y1040191D01*
X1547431Y1038524D01*
X1549097D01*
X1547431D01*
X1545765Y1036858D01*
Y1035192D01*
X1547431Y1033526D01*
X1550764D01*
X1552430Y1035192D01*
X977000Y311497D02*
X970335D01*
X973668D01*
Y301500D01*
X967003D02*
Y311497D01*
X962005D01*
X960339Y309831D01*
Y306498D01*
X962005Y304832D01*
X967003D01*
X957006Y309831D02*
X955340Y311497D01*
X952008D01*
X950342Y309831D01*
Y308165D01*
X952008Y306498D01*
X953674D01*
X952008D01*
X950342Y304832D01*
Y303166D01*
X952008Y301500D01*
X955340D01*
X957006Y303166D01*
X942011Y301500D02*
Y311497D01*
X947010Y306498D01*
X940345D01*
X1058418Y651093D02*
X1051753D01*
X1055086D01*
Y641096D01*
X1048421D02*
Y651093D01*
X1043423D01*
X1041757Y649427D01*
Y646094D01*
X1043423Y644428D01*
X1048421D01*
X1038424Y649427D02*
X1036758Y651093D01*
X1033426D01*
X1031760Y649427D01*
Y647760D01*
X1033426Y646094D01*
X1035092D01*
X1033426D01*
X1031760Y644428D01*
Y642762D01*
X1033426Y641096D01*
X1036758D01*
X1038424Y642762D01*
X1021763Y651093D02*
X1028428D01*
Y646094D01*
X1025095Y647760D01*
X1023429D01*
X1021763Y646094D01*
Y642762D01*
X1023429Y641096D01*
X1026761D01*
X1028428Y642762D01*
X1099566Y651347D02*
X1092902D01*
X1096234D01*
Y641350D01*
X1089569D02*
Y651347D01*
X1084571D01*
X1082905Y649681D01*
Y646348D01*
X1084571Y644682D01*
X1089569D01*
X1079572Y649681D02*
X1077906Y651347D01*
X1074574D01*
X1072908Y649681D01*
Y648015D01*
X1074574Y646348D01*
X1076240D01*
X1074574D01*
X1072908Y644682D01*
Y643016D01*
X1074574Y641350D01*
X1077906D01*
X1079572Y643016D01*
X1062911Y651347D02*
X1066243Y649681D01*
X1069576Y646348D01*
Y643016D01*
X1067909Y641350D01*
X1064577D01*
X1062911Y643016D01*
Y644682D01*
X1064577Y646348D01*
X1069576D01*
X1142000Y656997D02*
X1135335D01*
X1138668D01*
Y647000D01*
X1132003D02*
Y656997D01*
X1127005D01*
X1125339Y655331D01*
Y651998D01*
X1127005Y650332D01*
X1132003D01*
X1122006Y655331D02*
X1120340Y656997D01*
X1117008D01*
X1115342Y655331D01*
Y653664D01*
X1117008Y651998D01*
X1118674D01*
X1117008D01*
X1115342Y650332D01*
Y648666D01*
X1117008Y647000D01*
X1120340D01*
X1122006Y648666D01*
X1112010Y656997D02*
X1105345D01*
Y655331D01*
X1112010Y648666D01*
Y647000D01*
X863346Y542381D02*
X856682D01*
X860014D01*
Y532384D01*
X853349D02*
Y542381D01*
X848351D01*
X846685Y540715D01*
Y537382D01*
X848351Y535716D01*
X853349D01*
X843352Y540715D02*
X841686Y542381D01*
X838354D01*
X836688Y540715D01*
Y539049D01*
X838354Y537382D01*
X840020D01*
X838354D01*
X836688Y535716D01*
Y534050D01*
X838354Y532384D01*
X841686D01*
X843352Y534050D01*
X833356Y540715D02*
X831690Y542381D01*
X828357D01*
X826691Y540715D01*
Y539049D01*
X828357Y537382D01*
X826691Y535716D01*
Y534050D01*
X828357Y532384D01*
X831690D01*
X833356Y534050D01*
Y535716D01*
X831690Y537382D01*
X833356Y539049D01*
Y540715D01*
X831690Y537382D02*
X828357D01*
D84*
X674000Y321151D02*
Y330958D01*
X671750Y321151D02*
X674000D01*
X672750D02*
Y330527D01*
X671750Y321151D02*
Y330958D01*
X674000D01*
X590250Y321651D02*
Y331458D01*
X588000Y321651D02*
X590250D01*
X589000D02*
Y331027D01*
X588000Y321651D02*
Y331458D01*
X590250D01*
X836500Y330151D02*
Y339958D01*
X834250Y330151D02*
X836500D01*
X835250D02*
Y339527D01*
X834250Y330151D02*
Y339958D01*
X836500D01*
X348000Y1263651D02*
Y1273458D01*
X345750Y1263651D02*
X348000D01*
X346750D02*
Y1273027D01*
X345750Y1263651D02*
Y1273458D01*
X348000D01*
X526750Y1263901D02*
Y1273708D01*
X524500Y1263901D02*
X526750D01*
X525500D02*
Y1273277D01*
X524500Y1263901D02*
Y1273708D01*
X526750D01*
X616500Y1263901D02*
Y1273708D01*
X614250Y1263901D02*
X616500D01*
X615250D02*
Y1273277D01*
X614250Y1263901D02*
Y1273708D01*
X616500D01*
X440000Y1264151D02*
Y1273958D01*
X437750Y1264151D02*
X440000D01*
X438750D02*
Y1273527D01*
X437750Y1264151D02*
Y1273958D01*
X440000D01*
D85*
X1525000Y1209250D02*
X1548250D01*
X1507000Y1157500D02*
Y1209250D01*
X1525000Y1157500D02*
X1548000D01*
X1566250Y1157588D02*
Y1209250D01*
D86*
X466875Y625568D02*
D03*
X413375Y623818D02*
D03*
X1480625Y675432D02*
D03*
D87*
X709182Y346125D02*
D03*
X467182Y554375D02*
D03*
X413432Y554625D02*
D03*
X386568Y1259875D02*
D03*
X473068Y1260875D02*
D03*
X1598682Y511625D02*
D03*
D88*
X1616250Y524250D02*
D03*
D164*
X689032Y336160D02*
G03*
X689032Y336160I-2032J0D01*
G01*
X605282Y336660D02*
G03*
X605282Y336660I-2032J0D01*
G01*
X851532Y345160D02*
G03*
X851532Y345160I-2032J0D01*
G01*
X363032Y1278660D02*
G03*
X363032Y1278660I-2032J0D01*
G01*
X541782Y1278910D02*
G03*
X541782Y1278910I-2032J0D01*
G01*
X631532D02*
G03*
X631532Y1278910I-2032J0D01*
G01*
X455032Y1279160D02*
G03*
X455032Y1279160I-2032J0D01*
G01*
D165*
X1048650Y1249650D02*
X1058647D01*
X1048650Y1256314D01*
X1058647D01*
X1048650Y1259647D02*
X1058647D01*
Y1264645D01*
X1056981Y1266311D01*
X1053648D01*
X1051982Y1264645D01*
Y1259647D01*
Y1262979D02*
X1048650Y1266311D01*
X1056981Y1276308D02*
X1058647Y1274642D01*
Y1271310D01*
X1056981Y1269643D01*
X1055314D01*
X1053648Y1271310D01*
Y1274642D01*
X1051982Y1276308D01*
X1050316D01*
X1048650Y1274642D01*
Y1271310D01*
X1050316Y1269643D01*
X1058647Y1279640D02*
Y1286305D01*
Y1282973D01*
X1048650D01*
X1027748Y1254150D02*
Y1260815D01*
X1081981Y1257315D02*
X1083647Y1255648D01*
Y1252316D01*
X1081981Y1250650D01*
X1080314D01*
X1078648Y1252316D01*
Y1255648D01*
X1076982Y1257315D01*
X1075316D01*
X1073650Y1255648D01*
Y1252316D01*
X1075316Y1250650D01*
X1083647Y1260647D02*
X1073650D01*
X1076982Y1263979D01*
X1073650Y1267311D01*
X1083647D01*
Y1275642D02*
Y1272310D01*
X1081981Y1270643D01*
X1075316D01*
X1073650Y1272310D01*
Y1275642D01*
X1075316Y1277308D01*
X1081981D01*
X1083647Y1275642D01*
X1107481Y1256314D02*
X1109147Y1254648D01*
Y1251316D01*
X1107481Y1249650D01*
X1105815D01*
X1104148Y1251316D01*
Y1254648D01*
X1102482Y1256314D01*
X1100816D01*
X1099150Y1254648D01*
Y1251316D01*
X1100816Y1249650D01*
X1109147Y1259647D02*
X1099150D01*
X1102482Y1262979D01*
X1099150Y1266311D01*
X1109147D01*
X1107481Y1276308D02*
X1109147Y1274642D01*
Y1271310D01*
X1107481Y1269643D01*
X1100816D01*
X1099150Y1271310D01*
Y1274642D01*
X1100816Y1276308D01*
X1109147Y1279640D02*
X1099150D01*
Y1286305D01*
X1109147Y1289637D02*
X1099150D01*
X1102482D01*
X1109147Y1296302D01*
X1104148Y1291303D01*
X1099150Y1296302D01*
X1133481Y1257564D02*
X1135147Y1255898D01*
Y1252566D01*
X1133481Y1250900D01*
X1131814D01*
X1130148Y1252566D01*
Y1255898D01*
X1128482Y1257564D01*
X1126816D01*
X1125150Y1255898D01*
Y1252566D01*
X1126816Y1250900D01*
X1135147Y1260897D02*
X1125150D01*
X1128482Y1264229D01*
X1125150Y1267561D01*
X1135147D01*
Y1270893D02*
X1125150D01*
Y1275892D01*
X1126816Y1277558D01*
X1133481D01*
X1135147Y1275892D01*
Y1270893D01*
Y1280890D02*
Y1284223D01*
Y1282556D01*
X1125150D01*
Y1280890D01*
Y1284223D01*
X1135147Y1294219D02*
Y1290887D01*
X1133481Y1289221D01*
X1126816D01*
X1125150Y1290887D01*
Y1294219D01*
X1126816Y1295885D01*
X1133481D01*
X1135147Y1294219D01*
X1155232Y1252650D02*
Y1259314D01*
X1158565Y1255982D02*
X1151900D01*
X1533150Y1096650D02*
X1543147D01*
Y1101648D01*
X1541481Y1103315D01*
X1538148D01*
X1536482Y1101648D01*
Y1096650D01*
Y1099982D02*
X1533150Y1103315D01*
X1543147Y1113311D02*
Y1106647D01*
X1533150D01*
Y1113311D01*
X1538148Y1106647D02*
Y1109979D01*
X1541481Y1123308D02*
X1543147Y1121642D01*
Y1118310D01*
X1541481Y1116644D01*
X1539814D01*
X1538148Y1118310D01*
Y1121642D01*
X1536482Y1123308D01*
X1534816D01*
X1533150Y1121642D01*
Y1118310D01*
X1534816Y1116644D01*
X1543147Y1133305D02*
Y1126640D01*
X1533150D01*
Y1133305D01*
X1538148Y1126640D02*
Y1129973D01*
X1543147Y1136637D02*
Y1143302D01*
Y1139969D01*
X1533150D01*
X719748Y1253650D02*
Y1260314D01*
X694150Y1233900D02*
X704147D01*
Y1238898D01*
X702481Y1240564D01*
X699148D01*
X697482Y1238898D01*
Y1233900D01*
Y1237232D02*
X694150Y1240564D01*
X702481Y1250561D02*
X704147Y1248895D01*
Y1245563D01*
X702481Y1243897D01*
X700815D01*
X699148Y1245563D01*
Y1248895D01*
X697482Y1250561D01*
X695816D01*
X694150Y1248895D01*
Y1245563D01*
X695816Y1243897D01*
X694150Y1260558D02*
Y1253894D01*
X700815Y1260558D01*
X702481D01*
X704147Y1258892D01*
Y1255560D01*
X702481Y1253894D01*
Y1263890D02*
X704147Y1265556D01*
Y1268889D01*
X702481Y1270555D01*
X700815D01*
X699148Y1268889D01*
Y1267223D01*
Y1268889D01*
X697482Y1270555D01*
X695816D01*
X694150Y1268889D01*
Y1265556D01*
X695816Y1263890D01*
X694150Y1280552D02*
Y1273887D01*
X700815Y1280552D01*
X702481D01*
X704147Y1278885D01*
Y1275553D01*
X702481Y1273887D01*
X704147Y1293881D02*
Y1297213D01*
Y1295547D01*
X694150D01*
Y1293881D01*
Y1297213D01*
Y1302211D02*
X704147D01*
X694150Y1308876D01*
X704147D01*
X669400Y1234150D02*
X679397D01*
Y1239148D01*
X677731Y1240815D01*
X674398D01*
X672732Y1239148D01*
Y1234150D01*
Y1237482D02*
X669400Y1240815D01*
X677731Y1250811D02*
X679397Y1249145D01*
Y1245813D01*
X677731Y1244147D01*
X676065D01*
X674398Y1245813D01*
Y1249145D01*
X672732Y1250811D01*
X671066D01*
X669400Y1249145D01*
Y1245813D01*
X671066Y1244147D01*
X669400Y1260808D02*
Y1254144D01*
X676065Y1260808D01*
X677731D01*
X679397Y1259142D01*
Y1255810D01*
X677731Y1254144D01*
Y1264140D02*
X679397Y1265807D01*
Y1269139D01*
X677731Y1270805D01*
X676065D01*
X674398Y1269139D01*
Y1267473D01*
Y1269139D01*
X672732Y1270805D01*
X671066D01*
X669400Y1269139D01*
Y1265807D01*
X671066Y1264140D01*
X669400Y1280802D02*
Y1274137D01*
X676065Y1280802D01*
X677731D01*
X679397Y1279136D01*
Y1275803D01*
X677731Y1274137D01*
X679397Y1299129D02*
Y1295797D01*
X677731Y1294131D01*
X671066D01*
X669400Y1295797D01*
Y1299129D01*
X671066Y1300795D01*
X677731D01*
X679397Y1299129D01*
Y1304127D02*
X671066D01*
X669400Y1305794D01*
Y1309126D01*
X671066Y1310792D01*
X679397D01*
Y1314124D02*
Y1320789D01*
Y1317457D01*
X669400D01*
X655398Y1252400D02*
Y1259064D01*
X658731Y1255732D02*
X652066D01*
X660397Y1269061D02*
Y1262397D01*
X655398D01*
X657065Y1265729D01*
Y1267395D01*
X655398Y1269061D01*
X652066D01*
X650400Y1267395D01*
Y1264063D01*
X652066Y1262397D01*
X660397Y1272393D02*
X653732D01*
X650400Y1275726D01*
X653732Y1279058D01*
X660397D01*
M02*
