G04 Layer_Color=65535*
%FSLAX44Y44*%
%MOMM*%
G71*
G01*
G75*
%ADD36C,0.3000*%
%ADD37C,0.2540*%
%ADD38C,0.4000*%
%ADD41C,1.0000*%
%ADD57C,0.2500*%
%ADD58C,0.2000*%
%ADD59C,0.1270*%
%ADD60C,0.1524*%
%ADD61R,1.4000X1.6000*%
%ADD62R,1.6000X1.4000*%
%ADD63R,1.0000X0.2500*%
%ADD64R,1.1000X3.2000*%
%ADD65R,3.2000X1.1000*%
%ADD66R,0.2500X1.0000*%
%ADD67R,0.7250X4.0000*%
%ADD68R,4.0000X0.7250*%
%ADD69R,0.8636X0.2250*%
%ADD70R,0.2250X0.8636*%
D36*
X1543600Y1209850D02*
G03*
X1543600Y1209850I-1500J0D01*
G01*
X1063000Y1147000D02*
X1228000D01*
Y972000D02*
Y1147000D01*
X1063000Y972000D02*
X1228000D01*
X1063000D02*
Y1147000D01*
X584500Y1214500D02*
X749500D01*
Y1039500D02*
Y1214500D01*
X584500Y1039500D02*
X749500D01*
X584500D02*
Y1214500D01*
Y853500D02*
X749500D01*
X584500D02*
Y1028500D01*
X749500D01*
Y853500D02*
Y1028500D01*
X525000Y403000D02*
Y568000D01*
X350000Y403000D02*
X525000D01*
X350000D02*
Y568000D01*
X525000D01*
X872000Y1094975D02*
Y1109970D01*
X879498D01*
X881997Y1107471D01*
Y1102473D01*
X879498Y1099974D01*
X872000D01*
X886995Y1094975D02*
X891993D01*
X889494D01*
Y1109970D01*
X886995Y1107471D01*
X899491Y1094975D02*
X904490D01*
X901990D01*
Y1109970D01*
X899491Y1107471D01*
X926982Y1104972D02*
X929481D01*
Y1102473D01*
X926982D01*
Y1104972D01*
Y1097474D02*
X929481D01*
Y1094975D01*
X926982D01*
Y1097474D01*
X954473Y1109970D02*
Y1094975D01*
X961971D01*
X964470Y1097474D01*
Y1099974D01*
X961971Y1102473D01*
X954473D01*
X961971D01*
X964470Y1104972D01*
Y1107471D01*
X961971Y1109970D01*
X954473D01*
X969468Y1094975D02*
Y1104972D01*
X974467Y1109970D01*
X979465Y1104972D01*
Y1094975D01*
Y1102473D01*
X969468D01*
X984464Y1109970D02*
X994460D01*
X989462D01*
Y1094975D01*
X999459D02*
X1004457D01*
X1001958D01*
Y1109970D01*
X999459Y1107471D01*
X872000Y1069781D02*
Y1084776D01*
X879498D01*
X881997Y1082277D01*
Y1077279D01*
X879498Y1074779D01*
X872000D01*
X886995Y1069781D02*
X891993D01*
X889494D01*
Y1084776D01*
X886995Y1082277D01*
X909488Y1069781D02*
X899491D01*
X909488Y1079778D01*
Y1082277D01*
X906989Y1084776D01*
X901990D01*
X899491Y1082277D01*
X929481Y1079778D02*
X931981D01*
Y1077279D01*
X929481D01*
Y1079778D01*
Y1072280D02*
X931981D01*
Y1069781D01*
X929481D01*
Y1072280D01*
X956973Y1084776D02*
Y1069781D01*
X964470D01*
X966969Y1072280D01*
Y1074779D01*
X964470Y1077279D01*
X956973D01*
X964470D01*
X966969Y1079778D01*
Y1082277D01*
X964470Y1084776D01*
X956973D01*
X971968Y1069781D02*
Y1079778D01*
X976966Y1084776D01*
X981964Y1079778D01*
Y1069781D01*
Y1077279D01*
X971968D01*
X986963Y1084776D02*
X996960D01*
X991961D01*
Y1069781D01*
X1011955D02*
X1001958D01*
X1011955Y1079778D01*
Y1082277D01*
X1009455Y1084776D01*
X1004457D01*
X1001958Y1082277D01*
X876998Y1044587D02*
X872000Y1049585D01*
Y1054584D01*
X876998Y1059582D01*
X884496Y1044587D02*
Y1054584D01*
X886995D01*
X889494Y1052084D01*
Y1044587D01*
Y1052084D01*
X891993Y1054584D01*
X894493Y1052084D01*
Y1044587D01*
X901990Y1054584D02*
X906989D01*
X909488Y1052084D01*
Y1044587D01*
X901990D01*
X899491Y1047086D01*
X901990Y1049585D01*
X909488D01*
X914486Y1054584D02*
X924483Y1044587D01*
X919485Y1049585D01*
X924483Y1054584D01*
X914486Y1044587D01*
X944476D02*
X949475D01*
X946976D01*
Y1059582D01*
X944476Y1057083D01*
X956973Y1059582D02*
X966969D01*
Y1057083D01*
X956973Y1047086D01*
Y1044587D01*
X986963Y1059582D02*
Y1049585D01*
X991961Y1044587D01*
X996960Y1049585D01*
Y1059582D01*
X1001958Y1044587D02*
X1006956Y1049585D01*
Y1054584D01*
X1001958Y1059582D01*
D37*
X665500Y756250D02*
G03*
X665500Y756250I-17000J0D01*
G01*
X662000Y819000D02*
G03*
X662000Y819000I-17000J0D01*
G01*
X498000Y991000D02*
G03*
X498000Y991000I-17000J0D01*
G01*
X568000Y564000D02*
G03*
X568000Y564000I-17000J0D01*
G01*
X665500Y485750D02*
G03*
X665500Y485750I-17000J0D01*
G01*
X1186000Y1235000D02*
G03*
X1186000Y1235000I-17000J0D01*
G01*
X789500Y1182500D02*
G03*
X789500Y1182500I-17000J0D01*
G01*
X1227000Y818000D02*
G03*
X1227000Y818000I-17000J0D01*
G01*
X681000Y1267000D02*
G03*
X681000Y1267000I-17000J0D01*
G01*
X802000Y855000D02*
G03*
X802000Y855000I-17000J0D01*
G01*
X364500Y1148250D02*
G03*
X364500Y1148250I-17000J0D01*
G01*
X678250Y396250D02*
G03*
X678250Y396250I-17000J0D01*
G01*
X1483000Y942250D02*
Y1009750D01*
X1539250D01*
X1483000Y942250D02*
X1538750D01*
X1530000Y1025610D02*
Y1093110D01*
X1473750Y1025610D02*
X1530000D01*
X1474250Y1093110D02*
X1530000D01*
X1602218Y745885D02*
X1612375Y745924D01*
X1617473Y740866D01*
X1612414Y735768D01*
X1602257Y735729D01*
X1609875Y735758D01*
X1609836Y745915D01*
X1612433Y730689D02*
X1602296Y725572D01*
X1612473Y720533D01*
X1602336Y715415D02*
X1602355Y710337D01*
X1602345Y712876D01*
X1612502Y712915D01*
X1612492Y715454D01*
X1602394Y700180D02*
X1602414Y695102D01*
X1604963Y692573D01*
X1610041Y692592D01*
X1612570Y695141D01*
X1612551Y700219D01*
X1610002Y702749D01*
X1604924Y702729D01*
X1602394Y700180D01*
X1602443Y687485D02*
X1612600Y687524D01*
X1612629Y679906D01*
X1610100Y677357D01*
X1602482Y677328D01*
X1602502Y672250D02*
X1602522Y667171D01*
X1602512Y669710D01*
X1612668Y669750D01*
X1612659Y672289D01*
X1612747Y649436D02*
X1612717Y657054D01*
X1610168Y659583D01*
X1605090Y659564D01*
X1602561Y657014D01*
X1602590Y649397D01*
X1602610Y644319D02*
X1602639Y636701D01*
X1605188Y634172D01*
X1607717Y636721D01*
X1607698Y641799D01*
X1610227Y644348D01*
X1612776Y641819D01*
X1612806Y634201D01*
X1602737Y611310D02*
X1602757Y606231D01*
X1605306Y603702D01*
X1610384Y603722D01*
X1612913Y606270D01*
X1612894Y611349D01*
X1610345Y613878D01*
X1605267Y613859D01*
X1602737Y611310D01*
X1602796Y596075D02*
X1615492Y596124D01*
X1610413Y596104D01*
X1610403Y598643D01*
X1610423Y593565D01*
X1610413Y596104D01*
X1615492Y596124D01*
X1618041Y593594D01*
X1602894Y570683D02*
X1618129Y570742D01*
X1618158Y563124D01*
X1615629Y560575D01*
X1610550Y560556D01*
X1608002Y563085D01*
X1607972Y570703D01*
X1607992Y565624D02*
X1602933Y560527D01*
X1618217Y547890D02*
X1618197Y552968D01*
X1615648Y555497D01*
X1605492Y555458D01*
X1602962Y552909D01*
X1602982Y547831D01*
X1605531Y545301D01*
X1615688Y545340D01*
X1618217Y547890D01*
X1603011Y540213D02*
X1618246Y540272D01*
X1618276Y532654D01*
X1615746Y530106D01*
X1610668Y530086D01*
X1608119Y532615D01*
X1608090Y540233D01*
X1608109Y535154D02*
X1603051Y530056D01*
X1618334Y517420D02*
X1618315Y522498D01*
X1615766Y525027D01*
X1605609Y524988D01*
X1603080Y522439D01*
X1603100Y517361D01*
X1605648Y514831D01*
X1615805Y514871D01*
X1618334Y517420D01*
X1577840Y745791D02*
X1593075Y745850D01*
X1593104Y738232D01*
X1590575Y735683D01*
X1585497Y735664D01*
X1582948Y738193D01*
X1582918Y745811D01*
X1577909Y728017D02*
X1577928Y722939D01*
X1580477Y720409D01*
X1585556Y720429D01*
X1588085Y722978D01*
X1588065Y728056D01*
X1585516Y730585D01*
X1580438Y730566D01*
X1577909Y728017D01*
X1588114Y715360D02*
X1580497Y715331D01*
X1577967Y712782D01*
X1580516Y710253D01*
X1577987Y707704D01*
X1580536Y705174D01*
X1588154Y705204D01*
X1578046Y692469D02*
X1578026Y697547D01*
X1580556Y700096D01*
X1585634Y700116D01*
X1588183Y697586D01*
X1588202Y692508D01*
X1585673Y689959D01*
X1583134Y689949D01*
X1583095Y700106D01*
X1588232Y684890D02*
X1578075Y684851D01*
X1583154Y684871D01*
X1585702Y682342D01*
X1588251Y679812D01*
X1588261Y677273D01*
X1593428Y654440D02*
X1578193Y654381D01*
X1578222Y646764D01*
X1580771Y644234D01*
X1583310Y644244D01*
X1585849Y644254D01*
X1588379Y646803D01*
X1588349Y654420D01*
X1578261Y636607D02*
X1578281Y631529D01*
X1580830Y628999D01*
X1585908Y629019D01*
X1588438Y631568D01*
X1588418Y636646D01*
X1585869Y639176D01*
X1580791Y639156D01*
X1578261Y636607D01*
X1588477Y621411D02*
X1588496Y616333D01*
X1585967Y613784D01*
X1578349Y613755D01*
X1578320Y621372D01*
X1580849Y623921D01*
X1583398Y621392D01*
X1583428Y613774D01*
X1588526Y608716D02*
X1578369Y608676D01*
X1583447Y608696D01*
X1585996Y606167D01*
X1588545Y603637D01*
X1588555Y601098D01*
X1593702Y583344D02*
X1578467Y583285D01*
X1578438Y590902D01*
X1580967Y593451D01*
X1586045Y593471D01*
X1588594Y590942D01*
X1588624Y583324D01*
X1588702Y563011D02*
X1578565Y557893D01*
X1588741Y552854D01*
X1578604Y547737D02*
X1578624Y542658D01*
X1578614Y545197D01*
X1593849Y545256D01*
X1591300Y547786D01*
X1578653Y535041D02*
X1581192Y535051D01*
X1581202Y532511D01*
X1578663Y532502D01*
X1578653Y535041D01*
X1591398Y522394D02*
X1593947Y519865D01*
X1593966Y514786D01*
X1591437Y512237D01*
X1581280Y512198D01*
X1578731Y514728D01*
X1578712Y519806D01*
X1581241Y522355D01*
X1591398Y522394D01*
X1568697Y745756D02*
X1553462Y745697D01*
X1553492Y738080D01*
X1556041Y735550D01*
X1566197Y735589D01*
X1568727Y738138D01*
X1568697Y745756D01*
X1553550Y722845D02*
X1553531Y727923D01*
X1556060Y730472D01*
X1561138Y730491D01*
X1563687Y727962D01*
X1563707Y722884D01*
X1561178Y720335D01*
X1558638Y720325D01*
X1558599Y730482D01*
X1553580Y715227D02*
X1553609Y707610D01*
X1556158Y705080D01*
X1558687Y707629D01*
X1558668Y712708D01*
X1561197Y715257D01*
X1563746Y712727D01*
X1563776Y705110D01*
X1553638Y699992D02*
X1553658Y694914D01*
X1553648Y697453D01*
X1563805Y697492D01*
X1563795Y700031D01*
X1548629Y682198D02*
X1548638Y679659D01*
X1551187Y677130D01*
X1563883Y677179D01*
X1563854Y684796D01*
X1561305Y687326D01*
X1556227Y687306D01*
X1553697Y684757D01*
X1553727Y677140D01*
X1553746Y672061D02*
X1563903Y672101D01*
X1563932Y664483D01*
X1561403Y661934D01*
X1553785Y661905D01*
X1553834Y649209D02*
X1553815Y654287D01*
X1556344Y656836D01*
X1561422Y656856D01*
X1563971Y654326D01*
X1563991Y649248D01*
X1561462Y646699D01*
X1558922Y646689D01*
X1558883Y656846D01*
X1569138Y631494D02*
X1553903Y631435D01*
X1553873Y639052D01*
X1556403Y641601D01*
X1561481Y641621D01*
X1564030Y639091D01*
X1564060Y631474D01*
X1569216Y611180D02*
X1553981Y611122D01*
X1554011Y603504D01*
X1556560Y600975D01*
X1559099Y600984D01*
X1561638Y600994D01*
X1564167Y603543D01*
X1564138Y611161D01*
X1564197Y595926D02*
X1556579Y595896D01*
X1554050Y593348D01*
X1554079Y585730D01*
X1551540Y585720D01*
X1548991Y588250D01*
X1548981Y590789D01*
X1554079Y585730D02*
X1564236Y585769D01*
X1554158Y565417D02*
X1569393Y565476D01*
X1564334Y560378D01*
X1569432Y555319D01*
X1554197Y555260D01*
X1554216Y550182D02*
X1554236Y545103D01*
X1554226Y547643D01*
X1564383Y547682D01*
X1564373Y550221D01*
X1564461Y527369D02*
X1564432Y534986D01*
X1561883Y537515D01*
X1556805Y537496D01*
X1554275Y534947D01*
X1554305Y527329D01*
X1569559Y522310D02*
X1554324Y522251D01*
X1561942Y522280D01*
X1564491Y519751D01*
X1564510Y514673D01*
X1561981Y512124D01*
X1554363Y512094D01*
X1564549Y504516D02*
X1564569Y499438D01*
X1562039Y496889D01*
X1554422Y496859D01*
X1554393Y504477D01*
X1556922Y507026D01*
X1559471Y504496D01*
X1559500Y496879D01*
X1554471Y484164D02*
X1554451Y489242D01*
X1556981Y491791D01*
X1562059Y491810D01*
X1564608Y489281D01*
X1564628Y484203D01*
X1562098Y481654D01*
X1559559Y481644D01*
X1559520Y491801D01*
X1554500Y476546D02*
X1554520Y471468D01*
X1554510Y474007D01*
X1569745Y474066D01*
X1569735Y476605D01*
X1554608Y448615D02*
X1569843Y448674D01*
X1569872Y441057D01*
X1567343Y438508D01*
X1562265Y438488D01*
X1559716Y441017D01*
X1559686Y448635D01*
X1554696Y425763D02*
X1554677Y430841D01*
X1557206Y433390D01*
X1562284Y433410D01*
X1564833Y430880D01*
X1564853Y425802D01*
X1562324Y423253D01*
X1559784Y423243D01*
X1559745Y433400D01*
X1554726Y418145D02*
X1554745Y413067D01*
X1554736Y415606D01*
X1569970Y415665D01*
X1569961Y418204D01*
X1554775Y405450D02*
X1554794Y400371D01*
X1554784Y402910D01*
X1570019Y402969D01*
X1570010Y405508D01*
X1554853Y385136D02*
X1554833Y390215D01*
X1557363Y392764D01*
X1562441Y392783D01*
X1564990Y390254D01*
X1565010Y385176D01*
X1562480Y382627D01*
X1559941Y382617D01*
X1559902Y392774D01*
X1567588Y375029D02*
X1565049Y375019D01*
X1565039Y377558D01*
X1565059Y372480D01*
X1565049Y375019D01*
X1557431Y374990D01*
X1554902Y372441D01*
X1524045Y735427D02*
X1526575Y737976D01*
X1524026Y740505D01*
X1524016Y743044D01*
X1526545Y745593D01*
X1529084Y745603D01*
X1531633Y743074D01*
X1534163Y745623D01*
X1536702Y745632D01*
X1539251Y743103D01*
X1539261Y740564D01*
X1536731Y738015D01*
X1534192Y738005D01*
X1531643Y740535D01*
X1529114Y737986D01*
X1526575Y737976D01*
X1531663Y735456D02*
X1529114Y737986D01*
X1531633Y743074D02*
X1531643Y740535D01*
X1536829Y712623D02*
X1534290Y712614D01*
X1534280Y715153D01*
X1534300Y710074D01*
X1534290Y712614D01*
X1526673Y712584D01*
X1524143Y710035D01*
X1524202Y694800D02*
X1524182Y699879D01*
X1526712Y702428D01*
X1531790Y702447D01*
X1534339Y699918D01*
X1534359Y694839D01*
X1531829Y692290D01*
X1529290Y692281D01*
X1529251Y702437D01*
X1534398Y684683D02*
X1534417Y679604D01*
X1531888Y677056D01*
X1524270Y677026D01*
X1524241Y684644D01*
X1526770Y687193D01*
X1529319Y684663D01*
X1529349Y677046D01*
X1524290Y671948D02*
X1534447Y671987D01*
X1534456Y669448D01*
X1531927Y666899D01*
X1524310Y666870D01*
X1531927Y666899D01*
X1534476Y664370D01*
X1531947Y661821D01*
X1524329Y661791D01*
X1539642Y641537D02*
X1524408Y641478D01*
X1524437Y633860D01*
X1526986Y631331D01*
X1537142Y631370D01*
X1539672Y633919D01*
X1539642Y641537D01*
X1539701Y626302D02*
X1527005Y626253D01*
X1524476Y623704D01*
X1524496Y618625D01*
X1527045Y616096D01*
X1539740Y616145D01*
X1537260Y600900D02*
X1539789Y603449D01*
X1539770Y608528D01*
X1537221Y611057D01*
X1534682Y611047D01*
X1532152Y608498D01*
X1532172Y603420D01*
X1529643Y600871D01*
X1527103Y600861D01*
X1524554Y603391D01*
X1524535Y608469D01*
X1527064Y611018D01*
X1539819Y595832D02*
X1539858Y585675D01*
X1539838Y590754D01*
X1524603Y590695D01*
X1539917Y570440D02*
X1539878Y580597D01*
X1524643Y580538D01*
X1524682Y570381D01*
X1532260Y580567D02*
X1532280Y575489D01*
X1524701Y565303D02*
X1539936Y565362D01*
X1539966Y557744D01*
X1537436Y555195D01*
X1532358Y555176D01*
X1529809Y557705D01*
X1529780Y565323D01*
X1529799Y560244D02*
X1524740Y555146D01*
X1514902Y735391D02*
X1514863Y745548D01*
X1499628Y745489D01*
X1499667Y735333D01*
X1507246Y745519D02*
X1507265Y740441D01*
X1499687Y730254D02*
X1514922Y730313D01*
X1514951Y722696D01*
X1512422Y720147D01*
X1507343Y720127D01*
X1504794Y722657D01*
X1504765Y730274D01*
X1515020Y704922D02*
X1514981Y715078D01*
X1507363Y715049D01*
X1507383Y709971D01*
X1507363Y715049D01*
X1499746Y715020D01*
X1515039Y699843D02*
X1499804Y699784D01*
X1499843Y689628D01*
X1497334Y682001D02*
X1499883Y679471D01*
X1502422Y679481D01*
X1502412Y682020D01*
X1499873Y682010D01*
X1499883Y679471D01*
X1497334Y682001D01*
X1494785Y684530D01*
X1499981Y654080D02*
X1500010Y646462D01*
X1502559Y643933D01*
X1505088Y646482D01*
X1505069Y651560D01*
X1507598Y654109D01*
X1510147Y651580D01*
X1510177Y643962D01*
X1494961Y638825D02*
X1510196Y638884D01*
X1510226Y631266D01*
X1507696Y628717D01*
X1502618Y628698D01*
X1500069Y631227D01*
X1500039Y638845D01*
X1510255Y623649D02*
X1500098Y623610D01*
X1505177Y623629D01*
X1507726Y621100D01*
X1510274Y618571D01*
X1510284Y616031D01*
X1500157Y608375D02*
X1500177Y603297D01*
X1500167Y605836D01*
X1510323Y605875D01*
X1510314Y608414D01*
X1500206Y595679D02*
X1510363Y595718D01*
X1510392Y588101D01*
X1507863Y585552D01*
X1500245Y585522D01*
X1495206Y575346D02*
X1495216Y572807D01*
X1497765Y570278D01*
X1510461Y570327D01*
X1510431Y577944D01*
X1507882Y580473D01*
X1502804Y580454D01*
X1500275Y577905D01*
X1500304Y570287D01*
X1500421Y539818D02*
X1500382Y549974D01*
X1510578Y539857D01*
X1513117Y539866D01*
X1515647Y542415D01*
X1515627Y547494D01*
X1513078Y550023D01*
X1513137Y534788D02*
X1515686Y532259D01*
X1515705Y527180D01*
X1513176Y524632D01*
X1503019Y524592D01*
X1500470Y527122D01*
X1500451Y532200D01*
X1502980Y534749D01*
X1513137Y534788D01*
X1500500Y519504D02*
X1500519Y514426D01*
X1500510Y516965D01*
X1515744Y517024D01*
X1513196Y519553D01*
X1515784Y506867D02*
X1515823Y496711D01*
X1513284Y496701D01*
X1503088Y506818D01*
X1500549Y506808D01*
D38*
X1262600Y526000D02*
G03*
X1262600Y526000I-1000J0D01*
G01*
X1102600D02*
G03*
X1102600Y526000I-1000J0D01*
G01*
X942600D02*
G03*
X942600Y526000I-1000J0D01*
G01*
X777600D02*
G03*
X777600Y526000I-1000J0D01*
G01*
X1023000Y358000D02*
G03*
X1023000Y358000I-1000J0D01*
G01*
X917000Y358400D02*
G03*
X917000Y358400I-1000J0D01*
G01*
X1790000Y360000D02*
Y1240000D01*
X800000Y1340000D02*
X1790000Y1240000D01*
X210000Y1340000D02*
X800000D01*
Y260000D02*
X1790000Y360000D01*
X210000Y260000D02*
X800000D01*
X210000D02*
Y1340000D01*
D41*
X763000Y1032993D02*
X789658D01*
X743000Y824829D02*
X769658D01*
X756329Y838158D02*
Y811500D01*
X743000Y1237329D02*
X769658D01*
X756329Y1250658D02*
Y1224000D01*
D57*
X833000Y1254000D02*
G03*
X833000Y1254000I-1250J0D01*
G01*
X858250Y801750D02*
G03*
X858250Y801750I-1250J0D01*
G01*
D58*
X1174600Y597000D02*
X1274600D01*
X1174600Y533000D02*
Y597000D01*
Y533000D02*
X1199600D01*
Y540000D01*
X1249600D01*
Y533000D02*
Y540000D01*
Y533000D02*
X1274600D01*
Y597000D01*
X1014600D02*
X1114600D01*
X1014600Y533000D02*
Y597000D01*
Y533000D02*
X1039600D01*
Y540000D01*
X1089600D01*
Y533000D02*
Y540000D01*
Y533000D02*
X1114600D01*
Y597000D01*
X854600D02*
X954600D01*
X854600Y533000D02*
Y597000D01*
Y533000D02*
X879600D01*
Y540000D01*
X929600D01*
Y533000D02*
Y540000D01*
Y533000D02*
X954600D01*
Y597000D01*
X689600D02*
X789600D01*
X689600Y533000D02*
Y597000D01*
Y533000D02*
X714600D01*
Y540000D01*
X764600D01*
Y533000D02*
Y540000D01*
Y533000D02*
X789600D01*
Y597000D01*
X1093000Y345000D02*
Y445000D01*
X1029000D02*
X1093000D01*
X1029000Y420000D02*
Y445000D01*
Y420000D02*
X1036000D01*
Y370000D02*
Y420000D01*
X1029000Y370000D02*
X1036000D01*
X1029000Y345000D02*
Y370000D01*
Y345000D02*
X1093000D01*
X987000Y345400D02*
Y445400D01*
X923000D02*
X987000D01*
X923000Y420400D02*
Y445400D01*
Y420400D02*
X930000D01*
Y370400D02*
Y420400D01*
X923000Y370400D02*
X930000D01*
X923000Y345400D02*
Y370400D01*
Y345400D02*
X987000D01*
X1176000Y732750D02*
X1274000D01*
X1293000Y713750D01*
X1274000Y628750D02*
X1293000Y647750D01*
X1176000Y628750D02*
X1274000D01*
X1176000Y706750D02*
Y732750D01*
Y628750D02*
Y654750D01*
X1016500Y732750D02*
X1114500D01*
X1133500Y713750D01*
X1114500Y628750D02*
X1133500Y647750D01*
X1016500Y628750D02*
X1114500D01*
X1016500Y706750D02*
Y732750D01*
Y628750D02*
Y654750D01*
X853500Y732750D02*
X951500D01*
X970500Y713750D01*
X951500Y628750D02*
X970500Y647750D01*
X853500Y628750D02*
X951500D01*
X853500Y706750D02*
Y732750D01*
Y628750D02*
Y654750D01*
X689750Y732750D02*
X787750D01*
X806750Y713750D01*
X787750Y628750D02*
X806750Y647750D01*
X689750Y628750D02*
X787750D01*
X689750Y706750D02*
Y732750D01*
Y628750D02*
Y654750D01*
X1207000Y345000D02*
Y443000D01*
X1188000Y326000D02*
X1207000Y345000D01*
X1103000D02*
X1122000Y326000D01*
X1103000Y345000D02*
Y443000D01*
X1181000D02*
X1207000D01*
X1103000D02*
X1129000D01*
X878500Y345000D02*
Y443000D01*
X859500Y326000D02*
X878500Y345000D01*
X774500D02*
X793500Y326000D01*
X774500Y345000D02*
Y443000D01*
X852500D02*
X878500D01*
X774500D02*
X800500D01*
X1338000Y862000D02*
Y960000D01*
X1319000Y843000D02*
X1338000Y862000D01*
X1234000D02*
X1253000Y843000D01*
X1234000Y862000D02*
Y960000D01*
X1312000D02*
X1338000D01*
X1234000D02*
X1260000D01*
X1235000Y1014000D02*
Y1112000D01*
X1254000Y1131000D01*
X1320000D02*
X1339000Y1112000D01*
Y1014000D02*
Y1112000D01*
X1235000Y1014000D02*
X1261000D01*
X1313000D02*
X1339000D01*
X1638130Y1182538D02*
Y1209210D01*
X1653874Y1182538D02*
Y1209210D01*
X1638130Y1201210D02*
X1653874D01*
X1638130Y1200210D02*
X1653874D01*
X1638130Y1199210D02*
X1653874D01*
X1638130Y1198210D02*
X1653874D01*
X1638130Y1197210D02*
X1653874D01*
X1580000Y879000D02*
X1750000D01*
Y1049000D01*
X1580000Y879000D02*
Y1049000D01*
X1750000D01*
X240000Y1023000D02*
X370000D01*
X240000Y928000D02*
Y1023000D01*
Y928000D02*
X277000Y891000D01*
X370000D01*
Y1023000D01*
X418000Y945000D02*
Y950500D01*
X396000Y945000D02*
Y950500D01*
X399500D01*
X414500D02*
X418000D01*
X1548500Y1137650D02*
X1583500D01*
X1548500Y1205650D02*
X1583500D01*
X785250Y1248500D02*
X826250D01*
X785250Y1225500D02*
X826250D01*
Y1248500D01*
X785250Y1225500D02*
Y1248500D01*
X862500Y807250D02*
X903500D01*
X862500Y830250D02*
X903500D01*
X862500Y807250D02*
Y830250D01*
X903500Y807250D02*
Y830250D01*
X1126000Y1156000D02*
Y1165997D01*
X1130998D01*
X1132664Y1164331D01*
Y1160998D01*
X1130998Y1159332D01*
X1126000D01*
X1135997Y1156000D02*
X1139329D01*
X1137663D01*
Y1165997D01*
X1135997Y1164331D01*
X1144327D02*
X1145994Y1165997D01*
X1149326D01*
X1150992Y1164331D01*
Y1157666D01*
X1149326Y1156000D01*
X1145994D01*
X1144327Y1157666D01*
Y1164331D01*
X622000Y790997D02*
X628665D01*
X625332D01*
Y781000D01*
X631997D02*
Y790997D01*
X636995D01*
X638661Y789331D01*
Y785998D01*
X636995Y784332D01*
X631997D01*
X641994Y789331D02*
X643660Y790997D01*
X646992D01*
X648658Y789331D01*
Y787664D01*
X646992Y785998D01*
X645326D01*
X646992D01*
X648658Y784332D01*
Y782666D01*
X646992Y781000D01*
X643660D01*
X641994Y782666D01*
X651990Y789331D02*
X653656Y790997D01*
X656989D01*
X658655Y789331D01*
Y782666D01*
X656989Y781000D01*
X653656D01*
X651990Y782666D01*
Y789331D01*
X601000Y845997D02*
X607664D01*
X604332D01*
Y836000D01*
X610997D02*
Y845997D01*
X615995D01*
X617661Y844331D01*
Y840998D01*
X615995Y839332D01*
X610997D01*
X620994Y844331D02*
X622660Y845997D01*
X625992D01*
X627658Y844331D01*
Y842664D01*
X625992Y840998D01*
X624326D01*
X625992D01*
X627658Y839332D01*
Y837666D01*
X625992Y836000D01*
X622660D01*
X620994Y837666D01*
X630990Y836000D02*
X634323D01*
X632657D01*
Y845997D01*
X630990Y844331D01*
X464820Y1026251D02*
X471484D01*
X468152D01*
Y1016254D01*
X474817D02*
Y1026251D01*
X479815D01*
X481481Y1024585D01*
Y1021252D01*
X479815Y1019586D01*
X474817D01*
X491478Y1016254D02*
X484814D01*
X491478Y1022918D01*
Y1024585D01*
X489812Y1026251D01*
X486480D01*
X484814Y1024585D01*
X494810D02*
X496477Y1026251D01*
X499809D01*
X501475Y1024585D01*
Y1022918D01*
X499809Y1021252D01*
X501475Y1019586D01*
Y1017920D01*
X499809Y1016254D01*
X496477D01*
X494810Y1017920D01*
Y1019586D01*
X496477Y1021252D01*
X494810Y1022918D01*
Y1024585D01*
X496477Y1021252D02*
X499809D01*
X571000Y1324000D02*
X580997D01*
Y1319002D01*
X579331Y1317336D01*
X575998D01*
X574332Y1319002D01*
Y1324000D01*
X571000Y1314003D02*
Y1310671D01*
Y1312337D01*
X580997D01*
X579331Y1314003D01*
Y1305673D02*
X580997Y1304006D01*
Y1300674D01*
X579331Y1299008D01*
X577664D01*
X575998Y1300674D01*
Y1302340D01*
Y1300674D01*
X574332Y1299008D01*
X572666D01*
X571000Y1300674D01*
Y1304006D01*
X572666Y1305673D01*
X556000Y280000D02*
Y289997D01*
X560998D01*
X562664Y288331D01*
Y284998D01*
X560998Y283332D01*
X556000D01*
X565997Y280000D02*
X569329D01*
X567663D01*
Y289997D01*
X565997Y288331D01*
X579326Y280000D02*
Y289997D01*
X574327Y284998D01*
X580992D01*
X389000Y1323000D02*
X398997D01*
Y1318002D01*
X397331Y1316335D01*
X393998D01*
X392332Y1318002D01*
Y1323000D01*
X389000Y1306339D02*
Y1313003D01*
X395664Y1306339D01*
X397331D01*
X398997Y1308005D01*
Y1311337D01*
X397331Y1313003D01*
X389000Y1296342D02*
Y1303006D01*
X395664Y1296342D01*
X397331D01*
X398997Y1298008D01*
Y1301340D01*
X397331Y1303006D01*
X330000Y282000D02*
Y291997D01*
X334998D01*
X336665Y290331D01*
Y286998D01*
X334998Y285332D01*
X330000D01*
X346661Y282000D02*
X339997D01*
X346661Y288664D01*
Y290331D01*
X344995Y291997D01*
X341663D01*
X339997Y290331D01*
X354992Y282000D02*
Y291997D01*
X349994Y286998D01*
X356658D01*
X1175512Y605028D02*
Y615025D01*
X1180510D01*
X1182177Y613359D01*
Y610026D01*
X1180510Y608360D01*
X1175512D01*
X1192173Y605028D02*
X1185509D01*
X1192173Y611693D01*
Y613359D01*
X1190507Y615025D01*
X1187175D01*
X1185509Y613359D01*
X1202170Y615025D02*
X1198838Y613359D01*
X1195506Y610026D01*
Y606694D01*
X1197172Y605028D01*
X1200504D01*
X1202170Y606694D01*
Y608360D01*
X1200504Y610026D01*
X1195506D01*
X1015492Y605028D02*
Y615025D01*
X1020490D01*
X1022157Y613359D01*
Y610026D01*
X1020490Y608360D01*
X1015492D01*
X1032153Y605028D02*
X1025489D01*
X1032153Y611693D01*
Y613359D01*
X1030487Y615025D01*
X1027155D01*
X1025489Y613359D01*
X1035486Y615025D02*
X1042150D01*
Y613359D01*
X1035486Y606694D01*
Y605028D01*
X855726D02*
Y615025D01*
X860724D01*
X862391Y613359D01*
Y610026D01*
X860724Y608360D01*
X855726D01*
X872387Y605028D02*
X865723D01*
X872387Y611693D01*
Y613359D01*
X870721Y615025D01*
X867389D01*
X865723Y613359D01*
X875720Y606694D02*
X877386Y605028D01*
X880718D01*
X882384Y606694D01*
Y613359D01*
X880718Y615025D01*
X877386D01*
X875720Y613359D01*
Y611693D01*
X877386Y610026D01*
X882384D01*
X690626Y605028D02*
Y615025D01*
X695624D01*
X697290Y613359D01*
Y610026D01*
X695624Y608360D01*
X690626D01*
X700623Y613359D02*
X702289Y615025D01*
X705621D01*
X707287Y613359D01*
Y611693D01*
X705621Y610026D01*
X703955D01*
X705621D01*
X707287Y608360D01*
Y606694D01*
X705621Y605028D01*
X702289D01*
X700623Y606694D01*
X710620Y605028D02*
X713952D01*
X712286D01*
Y615025D01*
X710620Y613359D01*
X1044000Y449000D02*
Y458997D01*
X1048998D01*
X1050665Y457331D01*
Y453998D01*
X1048998Y452332D01*
X1044000D01*
X1060661Y449000D02*
X1053997D01*
X1060661Y455664D01*
Y457331D01*
X1058995Y458997D01*
X1055663D01*
X1053997Y457331D01*
X1063994D02*
X1065660Y458997D01*
X1068992D01*
X1070658Y457331D01*
Y455664D01*
X1068992Y453998D01*
X1070658Y452332D01*
Y450666D01*
X1068992Y449000D01*
X1065660D01*
X1063994Y450666D01*
Y452332D01*
X1065660Y453998D01*
X1063994Y455664D01*
Y457331D01*
X1065660Y453998D02*
X1068992D01*
X923000Y450000D02*
Y459997D01*
X927998D01*
X929665Y458331D01*
Y454998D01*
X927998Y453332D01*
X923000D01*
X932997Y458331D02*
X934663Y459997D01*
X937995D01*
X939661Y458331D01*
Y456665D01*
X937995Y454998D01*
X936329D01*
X937995D01*
X939661Y453332D01*
Y451666D01*
X937995Y450000D01*
X934663D01*
X932997Y451666D01*
X942994Y458331D02*
X944660Y459997D01*
X947992D01*
X949658Y458331D01*
Y451666D01*
X947992Y450000D01*
X944660D01*
X942994Y451666D01*
Y458331D01*
X471665Y863331D02*
X469998Y864997D01*
X466666D01*
X465000Y863331D01*
Y856666D01*
X466666Y855000D01*
X469998D01*
X471665Y856666D01*
X474997Y855000D02*
X478329D01*
X476663D01*
Y864997D01*
X474997Y863331D01*
X483327Y855000D02*
X486660D01*
X484994D01*
Y864997D01*
X483327Y863331D01*
X491658Y855000D02*
X494990D01*
X493324D01*
Y864997D01*
X491658Y863331D01*
X1401664Y675331D02*
X1399998Y676997D01*
X1396666D01*
X1395000Y675331D01*
Y668666D01*
X1396666Y667000D01*
X1399998D01*
X1401664Y668666D01*
X1404997Y667000D02*
X1408329D01*
X1406663D01*
Y676997D01*
X1404997Y675331D01*
X1413327Y667000D02*
X1416660D01*
X1414994D01*
Y676997D01*
X1413327Y675331D01*
X1421658D02*
X1423324Y676997D01*
X1426656D01*
X1428323Y675331D01*
Y668666D01*
X1426656Y667000D01*
X1423324D01*
X1421658Y668666D01*
Y675331D01*
X1387664Y713331D02*
X1385998Y714997D01*
X1382666D01*
X1381000Y713331D01*
Y706666D01*
X1382666Y705000D01*
X1385998D01*
X1387664Y706666D01*
X1390997Y705000D02*
X1394329D01*
X1392663D01*
Y714997D01*
X1390997Y713331D01*
X1399327D02*
X1400994Y714997D01*
X1404326D01*
X1405992Y713331D01*
Y706666D01*
X1404326Y705000D01*
X1400994D01*
X1399327Y706666D01*
Y713331D01*
X1409324Y706666D02*
X1410990Y705000D01*
X1414323D01*
X1415989Y706666D01*
Y713331D01*
X1414323Y714997D01*
X1410990D01*
X1409324Y713331D01*
Y711665D01*
X1410990Y709998D01*
X1415989D01*
X1105669Y941665D02*
X1104003Y939998D01*
Y936666D01*
X1105669Y935000D01*
X1112334D01*
X1114000Y936666D01*
Y939998D01*
X1112334Y941665D01*
X1114000Y944997D02*
Y948329D01*
Y946663D01*
X1104003D01*
X1105669Y944997D01*
Y953327D02*
X1104003Y954994D01*
Y958326D01*
X1105669Y959992D01*
X1112334D01*
X1114000Y958326D01*
Y954994D01*
X1112334Y953327D01*
X1105669D01*
Y963324D02*
X1104003Y964990D01*
Y968323D01*
X1105669Y969989D01*
X1107336D01*
X1109002Y968323D01*
X1110668Y969989D01*
X1112334D01*
X1114000Y968323D01*
Y964990D01*
X1112334Y963324D01*
X1110668D01*
X1109002Y964990D01*
X1107336Y963324D01*
X1105669D01*
X1109002Y964990D02*
Y968323D01*
X1139669Y939665D02*
X1138003Y937998D01*
Y934666D01*
X1139669Y933000D01*
X1146334D01*
X1148000Y934666D01*
Y937998D01*
X1146334Y939665D01*
X1148000Y942997D02*
Y946329D01*
Y944663D01*
X1138003D01*
X1139669Y942997D01*
Y951327D02*
X1138003Y952993D01*
Y956326D01*
X1139669Y957992D01*
X1146334D01*
X1148000Y956326D01*
Y952993D01*
X1146334Y951327D01*
X1139669D01*
X1138003Y961324D02*
Y967989D01*
X1139669D01*
X1146334Y961324D01*
X1148000D01*
X965962Y853023D02*
Y843026D01*
Y848024D01*
X972626D01*
Y853023D01*
Y843026D01*
X982623D02*
X975959D01*
X982623Y849690D01*
Y851357D01*
X980957Y853023D01*
X977625D01*
X975959Y851357D01*
X992620Y843026D02*
X985956D01*
X992620Y849690D01*
Y851357D01*
X990954Y853023D01*
X987622D01*
X985956Y851357D01*
X265000Y851997D02*
Y842000D01*
Y846998D01*
X271665D01*
Y851997D01*
Y842000D01*
X281661D02*
X274997D01*
X281661Y848664D01*
Y850331D01*
X279995Y851997D01*
X276663D01*
X274997Y850331D01*
X284994Y842000D02*
X288326D01*
X286660D01*
Y851997D01*
X284994Y850331D01*
X261000Y347997D02*
Y338000D01*
Y342998D01*
X267665D01*
Y347997D01*
Y338000D01*
X277661D02*
X270997D01*
X277661Y344664D01*
Y346331D01*
X275995Y347997D01*
X272663D01*
X270997Y346331D01*
X280994D02*
X282660Y347997D01*
X285992D01*
X287658Y346331D01*
Y339666D01*
X285992Y338000D01*
X282660D01*
X280994Y339666D01*
Y346331D01*
X716026Y353151D02*
Y343154D01*
Y348152D01*
X722691D01*
Y353151D01*
Y343154D01*
X726023D02*
X729355D01*
X727689D01*
Y353151D01*
X726023Y351485D01*
X734353Y344820D02*
X736020Y343154D01*
X739352D01*
X741018Y344820D01*
Y351485D01*
X739352Y353151D01*
X736020D01*
X734353Y351485D01*
Y349818D01*
X736020Y348152D01*
X741018D01*
X1215898Y403189D02*
Y393192D01*
Y398190D01*
X1222562D01*
Y403189D01*
Y393192D01*
X1225895D02*
X1229227D01*
X1227561D01*
Y403189D01*
X1225895Y401523D01*
X1234225D02*
X1235892Y403189D01*
X1239224D01*
X1240890Y401523D01*
Y399856D01*
X1239224Y398190D01*
X1240890Y396524D01*
Y394858D01*
X1239224Y393192D01*
X1235892D01*
X1234225Y394858D01*
Y396524D01*
X1235892Y398190D01*
X1234225Y399856D01*
Y401523D01*
X1235892Y398190D02*
X1239224D01*
X1716024Y452973D02*
Y442976D01*
Y447974D01*
X1722688D01*
Y452973D01*
Y442976D01*
X1726021D02*
X1729353D01*
X1727687D01*
Y452973D01*
X1726021Y451307D01*
X1734351Y452973D02*
X1741016D01*
Y451307D01*
X1734351Y444642D01*
Y442976D01*
X1716024Y853023D02*
Y843026D01*
Y848024D01*
X1722688D01*
Y853023D01*
Y843026D01*
X1726021D02*
X1729353D01*
X1727687D01*
Y853023D01*
X1726021Y851357D01*
X1741016Y853023D02*
X1737684Y851357D01*
X1734351Y848024D01*
Y844692D01*
X1736018Y843026D01*
X1739350D01*
X1741016Y844692D01*
Y846358D01*
X1739350Y848024D01*
X1734351D01*
X1729000Y1155997D02*
Y1146000D01*
Y1150998D01*
X1735665D01*
Y1155997D01*
Y1146000D01*
X1738997D02*
X1742329D01*
X1740663D01*
Y1155997D01*
X1738997Y1154331D01*
X1753992Y1155997D02*
X1747327D01*
Y1150998D01*
X1750660Y1152664D01*
X1752326D01*
X1753992Y1150998D01*
Y1147666D01*
X1752326Y1146000D01*
X1748994D01*
X1747327Y1147666D01*
X1191000Y1284997D02*
Y1275000D01*
Y1279998D01*
X1197664D01*
Y1284997D01*
Y1275000D01*
X1200997D02*
X1204329D01*
X1202663D01*
Y1284997D01*
X1200997Y1283331D01*
X1214326Y1275000D02*
Y1284997D01*
X1209327Y1279998D01*
X1215992D01*
X689000Y1325997D02*
Y1316000D01*
Y1320998D01*
X695665D01*
Y1325997D01*
Y1316000D01*
X698997D02*
X702329D01*
X700663D01*
Y1325997D01*
X698997Y1324331D01*
X707327D02*
X708994Y1325997D01*
X712326D01*
X713992Y1324331D01*
Y1322664D01*
X712326Y1320998D01*
X710660D01*
X712326D01*
X713992Y1319332D01*
Y1317666D01*
X712326Y1316000D01*
X708994D01*
X707327Y1317666D01*
X265000Y1262997D02*
Y1253000D01*
Y1257998D01*
X271665D01*
Y1262997D01*
Y1253000D01*
X274997D02*
X278329D01*
X276663D01*
Y1262997D01*
X274997Y1261331D01*
X289992Y1253000D02*
X283327D01*
X289992Y1259665D01*
Y1261331D01*
X288326Y1262997D01*
X284994D01*
X283327Y1261331D01*
X297000Y1325000D02*
X306997D01*
Y1320002D01*
X305331Y1318336D01*
X301998D01*
X300332Y1320002D01*
Y1325000D01*
X297000Y1308339D02*
Y1315003D01*
X303664Y1308339D01*
X305331D01*
X306997Y1310005D01*
Y1313337D01*
X305331Y1315003D01*
X297000Y1305006D02*
Y1301674D01*
Y1303340D01*
X306997D01*
X305331Y1305006D01*
X306919Y644914D02*
X305253Y643248D01*
Y639916D01*
X306919Y638250D01*
X313584D01*
X315250Y639916D01*
Y643248D01*
X313584Y644914D01*
Y648247D02*
X315250Y649913D01*
Y653245D01*
X313584Y654911D01*
X306919D01*
X305253Y653245D01*
Y649913D01*
X306919Y648247D01*
X308585D01*
X310252Y649913D01*
Y654911D01*
X315250Y663242D02*
X305253D01*
X310252Y658244D01*
Y664908D01*
X430669Y674665D02*
X429003Y672998D01*
Y669666D01*
X430669Y668000D01*
X437334D01*
X439000Y669666D01*
Y672998D01*
X437334Y674665D01*
Y677997D02*
X439000Y679663D01*
Y682995D01*
X437334Y684661D01*
X430669D01*
X429003Y682995D01*
Y679663D01*
X430669Y677997D01*
X432336D01*
X434002Y679663D01*
Y684661D01*
X439000Y694658D02*
Y687994D01*
X432336Y694658D01*
X430669D01*
X429003Y692992D01*
Y689660D01*
X430669Y687994D01*
X307669Y678664D02*
X306003Y676998D01*
Y673666D01*
X307669Y672000D01*
X314334D01*
X316000Y673666D01*
Y676998D01*
X314334Y678664D01*
Y681997D02*
X316000Y683663D01*
Y686995D01*
X314334Y688661D01*
X307669D01*
X306003Y686995D01*
Y683663D01*
X307669Y681997D01*
X309335D01*
X311002Y683663D01*
Y688661D01*
X307669Y691994D02*
X306003Y693660D01*
Y696992D01*
X307669Y698658D01*
X309335D01*
X311002Y696992D01*
Y695326D01*
Y696992D01*
X312668Y698658D01*
X314334D01*
X316000Y696992D01*
Y693660D01*
X314334Y691994D01*
X1232664Y750331D02*
X1230998Y751997D01*
X1227666D01*
X1226000Y750331D01*
Y743666D01*
X1227666Y742000D01*
X1230998D01*
X1232664Y743666D01*
X1235997D02*
X1237663Y742000D01*
X1240995D01*
X1242661Y743666D01*
Y750331D01*
X1240995Y751997D01*
X1237663D01*
X1235997Y750331D01*
Y748664D01*
X1237663Y746998D01*
X1242661D01*
X1252658Y751997D02*
X1245994D01*
Y746998D01*
X1249326Y748664D01*
X1250992D01*
X1252658Y746998D01*
Y743666D01*
X1250992Y742000D01*
X1247660D01*
X1245994Y743666D01*
X1290669Y600664D02*
X1289003Y598998D01*
Y595666D01*
X1290669Y594000D01*
X1297334D01*
X1299000Y595666D01*
Y598998D01*
X1297334Y600664D01*
Y603997D02*
X1299000Y605663D01*
Y608995D01*
X1297334Y610661D01*
X1290669D01*
X1289003Y608995D01*
Y605663D01*
X1290669Y603997D01*
X1292336D01*
X1294002Y605663D01*
Y610661D01*
X1289003Y620658D02*
X1290669Y617326D01*
X1294002Y613994D01*
X1297334D01*
X1299000Y615660D01*
Y618992D01*
X1297334Y620658D01*
X1295668D01*
X1294002Y618992D01*
Y613994D01*
X1069665Y750331D02*
X1067998Y751997D01*
X1064666D01*
X1063000Y750331D01*
Y743666D01*
X1064666Y742000D01*
X1067998D01*
X1069665Y743666D01*
X1072997D02*
X1074663Y742000D01*
X1077995D01*
X1079661Y743666D01*
Y750331D01*
X1077995Y751997D01*
X1074663D01*
X1072997Y750331D01*
Y748664D01*
X1074663Y746998D01*
X1079661D01*
X1082994Y751997D02*
X1089658D01*
Y750331D01*
X1082994Y743666D01*
Y742000D01*
X987669Y517664D02*
X986003Y515998D01*
Y512666D01*
X987669Y511000D01*
X994334D01*
X996000Y512666D01*
Y515998D01*
X994334Y517664D01*
Y520997D02*
X996000Y522663D01*
Y525995D01*
X994334Y527661D01*
X987669D01*
X986003Y525995D01*
Y522663D01*
X987669Y520997D01*
X989335D01*
X991002Y522663D01*
Y527661D01*
X987669Y530994D02*
X986003Y532660D01*
Y535992D01*
X987669Y537658D01*
X989335D01*
X991002Y535992D01*
X992668Y537658D01*
X994334D01*
X996000Y535992D01*
Y532660D01*
X994334Y530994D01*
X992668D01*
X991002Y532660D01*
X989335Y530994D01*
X987669D01*
X991002Y532660D02*
Y535992D01*
X902664Y751331D02*
X900998Y752997D01*
X897666D01*
X896000Y751331D01*
Y744666D01*
X897666Y743000D01*
X900998D01*
X902664Y744666D01*
X905997Y743000D02*
X909329D01*
X907663D01*
Y752997D01*
X905997Y751331D01*
X914327D02*
X915994Y752997D01*
X919326D01*
X920992Y751331D01*
Y744666D01*
X919326Y743000D01*
X915994D01*
X914327Y744666D01*
Y751331D01*
X924324Y743000D02*
X927656D01*
X925990D01*
Y752997D01*
X924324Y751331D01*
X1152669Y513665D02*
X1151003Y511998D01*
Y508666D01*
X1152669Y507000D01*
X1159334D01*
X1161000Y508666D01*
Y511998D01*
X1159334Y513665D01*
X1161000Y516997D02*
Y520329D01*
Y518663D01*
X1151003D01*
X1152669Y516997D01*
Y525327D02*
X1151003Y526994D01*
Y530326D01*
X1152669Y531992D01*
X1159334D01*
X1161000Y530326D01*
Y526994D01*
X1159334Y525327D01*
X1152669D01*
X1161000Y541989D02*
Y535324D01*
X1154335Y541989D01*
X1152669D01*
X1151003Y540323D01*
Y536990D01*
X1152669Y535324D01*
X739665Y750331D02*
X737998Y751997D01*
X734666D01*
X733000Y750331D01*
Y743666D01*
X734666Y742000D01*
X737998D01*
X739665Y743666D01*
X742997Y742000D02*
X746329D01*
X744663D01*
Y751997D01*
X742997Y750331D01*
X751327D02*
X752994Y751997D01*
X756326D01*
X757992Y750331D01*
Y743666D01*
X756326Y742000D01*
X752994D01*
X751327Y743666D01*
Y750331D01*
X767989Y751997D02*
X761324D01*
Y746998D01*
X764657Y748664D01*
X766323D01*
X767989Y746998D01*
Y743666D01*
X766323Y742000D01*
X762990D01*
X761324Y743666D01*
X824669Y511665D02*
X823003Y509998D01*
Y506666D01*
X824669Y505000D01*
X831334D01*
X833000Y506666D01*
Y509998D01*
X831334Y511665D01*
X833000Y514997D02*
Y518329D01*
Y516663D01*
X823003D01*
X824669Y514997D01*
Y523327D02*
X823003Y524994D01*
Y528326D01*
X824669Y529992D01*
X831334D01*
X833000Y528326D01*
Y524994D01*
X831334Y523327D01*
X824669D01*
X823003Y539989D02*
X824669Y536656D01*
X828002Y533324D01*
X831334D01*
X833000Y534990D01*
Y538323D01*
X831334Y539989D01*
X829668D01*
X828002Y538323D01*
Y533324D01*
X1136669Y480664D02*
X1135003Y478998D01*
Y475666D01*
X1136669Y474000D01*
X1143334D01*
X1145000Y475666D01*
Y478998D01*
X1143334Y480664D01*
Y483997D02*
X1145000Y485663D01*
Y488995D01*
X1143334Y490661D01*
X1136669D01*
X1135003Y488995D01*
Y485663D01*
X1136669Y483997D01*
X1138335D01*
X1140002Y485663D01*
Y490661D01*
X1143334Y493994D02*
X1145000Y495660D01*
Y498992D01*
X1143334Y500658D01*
X1136669D01*
X1135003Y498992D01*
Y495660D01*
X1136669Y493994D01*
X1138335D01*
X1140002Y495660D01*
Y500658D01*
X1257669Y434664D02*
X1256003Y432998D01*
Y429666D01*
X1257669Y428000D01*
X1264334D01*
X1266000Y429666D01*
Y432998D01*
X1264334Y434664D01*
X1266000Y437997D02*
Y441329D01*
Y439663D01*
X1256003D01*
X1257669Y437997D01*
Y446327D02*
X1256003Y447994D01*
Y451326D01*
X1257669Y452992D01*
X1264334D01*
X1266000Y451326D01*
Y447994D01*
X1264334Y446327D01*
X1257669D01*
Y456324D02*
X1256003Y457990D01*
Y461323D01*
X1257669Y462989D01*
X1264334D01*
X1266000Y461323D01*
Y457990D01*
X1264334Y456324D01*
X1257669D01*
X778664Y475331D02*
X776998Y476997D01*
X773666D01*
X772000Y475331D01*
Y468666D01*
X773666Y467000D01*
X776998D01*
X778664Y468666D01*
X781997Y467000D02*
X785329D01*
X783663D01*
Y476997D01*
X781997Y475331D01*
X790327D02*
X791994Y476997D01*
X795326D01*
X796992Y475331D01*
Y468666D01*
X795326Y467000D01*
X791994D01*
X790327Y468666D01*
Y475331D01*
X800324D02*
X801990Y476997D01*
X805323D01*
X806989Y475331D01*
Y473665D01*
X805323Y471998D01*
X803656D01*
X805323D01*
X806989Y470332D01*
Y468666D01*
X805323Y467000D01*
X801990D01*
X800324Y468666D01*
X890669Y446665D02*
X889003Y444998D01*
Y441666D01*
X890669Y440000D01*
X897334D01*
X899000Y441666D01*
Y444998D01*
X897334Y446665D01*
X899000Y449997D02*
Y453329D01*
Y451663D01*
X889003D01*
X890669Y449997D01*
Y458327D02*
X889003Y459994D01*
Y463326D01*
X890669Y464992D01*
X897334D01*
X899000Y463326D01*
Y459994D01*
X897334Y458327D01*
X890669D01*
X899000Y473323D02*
X889003D01*
X894002Y468324D01*
Y474989D01*
X1244665Y974331D02*
X1242998Y975997D01*
X1239666D01*
X1238000Y974331D01*
Y967666D01*
X1239666Y966000D01*
X1242998D01*
X1244665Y967666D01*
X1254661Y975997D02*
X1247997D01*
Y970998D01*
X1251329Y972664D01*
X1252995D01*
X1254661Y970998D01*
Y967666D01*
X1252995Y966000D01*
X1249663D01*
X1247997Y967666D01*
X1264658Y975997D02*
X1257993D01*
Y970998D01*
X1261326Y972664D01*
X1262992D01*
X1264658Y970998D01*
Y967666D01*
X1262992Y966000D01*
X1259660D01*
X1257993Y967666D01*
X1354669Y853664D02*
X1353003Y851998D01*
Y848666D01*
X1354669Y847000D01*
X1361334D01*
X1363000Y848666D01*
Y851998D01*
X1361334Y853664D01*
X1353003Y863661D02*
Y856997D01*
X1358002D01*
X1356335Y860329D01*
Y861995D01*
X1358002Y863661D01*
X1361334D01*
X1363000Y861995D01*
Y858663D01*
X1361334Y856997D01*
X1353003Y873658D02*
X1354669Y870326D01*
X1358002Y866994D01*
X1361334D01*
X1363000Y868660D01*
Y871992D01*
X1361334Y873658D01*
X1359668D01*
X1358002Y871992D01*
Y866994D01*
X1210669Y940665D02*
X1209003Y938998D01*
Y935666D01*
X1210669Y934000D01*
X1217334D01*
X1219000Y935666D01*
Y938998D01*
X1217334Y940665D01*
X1209003Y950661D02*
Y943997D01*
X1214002D01*
X1212336Y947329D01*
Y948995D01*
X1214002Y950661D01*
X1217334D01*
X1219000Y948995D01*
Y945663D01*
X1217334Y943997D01*
X1209003Y953994D02*
Y960658D01*
X1210669D01*
X1217334Y953994D01*
X1219000D01*
X1191669Y940665D02*
X1190003Y938998D01*
Y935666D01*
X1191669Y934000D01*
X1198334D01*
X1200000Y935666D01*
Y938998D01*
X1198334Y940665D01*
X1190003Y950661D02*
Y943997D01*
X1195002D01*
X1193335Y947329D01*
Y948995D01*
X1195002Y950661D01*
X1198334D01*
X1200000Y948995D01*
Y945663D01*
X1198334Y943997D01*
X1191669Y953994D02*
X1190003Y955660D01*
Y958992D01*
X1191669Y960658D01*
X1193335D01*
X1195002Y958992D01*
X1196668Y960658D01*
X1198334D01*
X1200000Y958992D01*
Y955660D01*
X1198334Y953994D01*
X1196668D01*
X1195002Y955660D01*
X1193335Y953994D01*
X1191669D01*
X1195002Y955660D02*
Y958992D01*
X1158669Y936665D02*
X1157003Y934998D01*
Y931666D01*
X1158669Y930000D01*
X1165334D01*
X1167000Y931666D01*
Y934998D01*
X1165334Y936665D01*
X1157003Y946661D02*
Y939997D01*
X1162002D01*
X1160335Y943329D01*
Y944995D01*
X1162002Y946661D01*
X1165334D01*
X1167000Y944995D01*
Y941663D01*
X1165334Y939997D01*
Y949994D02*
X1167000Y951660D01*
Y954992D01*
X1165334Y956658D01*
X1158669D01*
X1157003Y954992D01*
Y951660D01*
X1158669Y949994D01*
X1160335D01*
X1162002Y951660D01*
Y956658D01*
X1245665Y1145331D02*
X1243998Y1146997D01*
X1240666D01*
X1239000Y1145331D01*
Y1138666D01*
X1240666Y1137000D01*
X1243998D01*
X1245665Y1138666D01*
X1255661Y1146997D02*
X1252329Y1145331D01*
X1248997Y1141998D01*
Y1138666D01*
X1250663Y1137000D01*
X1253995D01*
X1255661Y1138666D01*
Y1140332D01*
X1253995Y1141998D01*
X1248997D01*
X1258994Y1145331D02*
X1260660Y1146997D01*
X1263992D01*
X1265658Y1145331D01*
Y1138666D01*
X1263992Y1137000D01*
X1260660D01*
X1258994Y1138666D01*
Y1145331D01*
X1358669Y1054665D02*
X1357003Y1052998D01*
Y1049666D01*
X1358669Y1048000D01*
X1365334D01*
X1367000Y1049666D01*
Y1052998D01*
X1365334Y1054665D01*
X1357003Y1064661D02*
X1358669Y1061329D01*
X1362002Y1057997D01*
X1365334D01*
X1367000Y1059663D01*
Y1062995D01*
X1365334Y1064661D01*
X1363668D01*
X1362002Y1062995D01*
Y1057997D01*
X1367000Y1067994D02*
Y1071326D01*
Y1069660D01*
X1357003D01*
X1358669Y1067994D01*
X1383669Y1039665D02*
X1382003Y1037998D01*
Y1034666D01*
X1383669Y1033000D01*
X1390334D01*
X1392000Y1034666D01*
Y1037998D01*
X1390334Y1039665D01*
X1382003Y1049661D02*
X1383669Y1046329D01*
X1387002Y1042997D01*
X1390334D01*
X1392000Y1044663D01*
Y1047995D01*
X1390334Y1049661D01*
X1388668D01*
X1387002Y1047995D01*
Y1042997D01*
X1392000Y1059658D02*
Y1052994D01*
X1385336Y1059658D01*
X1383669D01*
X1382003Y1057992D01*
Y1054660D01*
X1383669Y1052994D01*
X811665Y1181331D02*
X809998Y1182997D01*
X806666D01*
X805000Y1181331D01*
Y1174666D01*
X806666Y1173000D01*
X809998D01*
X811665Y1174666D01*
X821661Y1182997D02*
X818329Y1181331D01*
X814997Y1177998D01*
Y1174666D01*
X816663Y1173000D01*
X819995D01*
X821661Y1174666D01*
Y1176332D01*
X819995Y1177998D01*
X814997D01*
X824994Y1181331D02*
X826660Y1182997D01*
X829992D01*
X831658Y1181331D01*
Y1179665D01*
X829992Y1177998D01*
X828326D01*
X829992D01*
X831658Y1176332D01*
Y1174666D01*
X829992Y1173000D01*
X826660D01*
X824994Y1174666D01*
X1675669Y1201665D02*
X1674003Y1199998D01*
Y1196666D01*
X1675669Y1195000D01*
X1682334D01*
X1684000Y1196666D01*
Y1199998D01*
X1682334Y1201665D01*
X1674003Y1211661D02*
X1675669Y1208329D01*
X1679002Y1204997D01*
X1682334D01*
X1684000Y1206663D01*
Y1209995D01*
X1682334Y1211661D01*
X1680668D01*
X1679002Y1209995D01*
Y1204997D01*
X1684000Y1219992D02*
X1674003D01*
X1679002Y1214994D01*
Y1221658D01*
X1606664Y1234331D02*
X1604998Y1235997D01*
X1601666D01*
X1600000Y1234331D01*
Y1227666D01*
X1601666Y1226000D01*
X1604998D01*
X1606664Y1227666D01*
X1616661Y1235997D02*
X1613329Y1234331D01*
X1609997Y1230998D01*
Y1227666D01*
X1611663Y1226000D01*
X1614995D01*
X1616661Y1227666D01*
Y1229332D01*
X1614995Y1230998D01*
X1609997D01*
X1626658Y1235997D02*
X1619994D01*
Y1230998D01*
X1623326Y1232664D01*
X1624992D01*
X1626658Y1230998D01*
Y1227666D01*
X1624992Y1226000D01*
X1621660D01*
X1619994Y1227666D01*
X834669Y1300665D02*
X833003Y1298998D01*
Y1295666D01*
X834669Y1294000D01*
X841334D01*
X843000Y1295666D01*
Y1298998D01*
X841334Y1300665D01*
X833003Y1310661D02*
X834669Y1307329D01*
X838002Y1303997D01*
X841334D01*
X843000Y1305663D01*
Y1308995D01*
X841334Y1310661D01*
X839668D01*
X838002Y1308995D01*
Y1303997D01*
X833003Y1320658D02*
X834669Y1317326D01*
X838002Y1313994D01*
X841334D01*
X843000Y1315660D01*
Y1318992D01*
X841334Y1320658D01*
X839668D01*
X838002Y1318992D01*
Y1313994D01*
X1502669Y1240665D02*
X1501003Y1238998D01*
Y1235666D01*
X1502669Y1234000D01*
X1509334D01*
X1511000Y1235666D01*
Y1238998D01*
X1509334Y1240665D01*
X1501003Y1250661D02*
X1502669Y1247329D01*
X1506002Y1243997D01*
X1509334D01*
X1511000Y1245663D01*
Y1248995D01*
X1509334Y1250661D01*
X1507668D01*
X1506002Y1248995D01*
Y1243997D01*
X1501003Y1253994D02*
Y1260658D01*
X1502669D01*
X1509334Y1253994D01*
X1511000D01*
X1473669Y1240665D02*
X1472003Y1238998D01*
Y1235666D01*
X1473669Y1234000D01*
X1480334D01*
X1482000Y1235666D01*
Y1238998D01*
X1480334Y1240665D01*
X1472003Y1250661D02*
X1473669Y1247329D01*
X1477002Y1243997D01*
X1480334D01*
X1482000Y1245663D01*
Y1248995D01*
X1480334Y1250661D01*
X1478668D01*
X1477002Y1248995D01*
Y1243997D01*
X1473669Y1253994D02*
X1472003Y1255660D01*
Y1258992D01*
X1473669Y1260658D01*
X1475336D01*
X1477002Y1258992D01*
X1478668Y1260658D01*
X1480334D01*
X1482000Y1258992D01*
Y1255660D01*
X1480334Y1253994D01*
X1478668D01*
X1477002Y1255660D01*
X1475336Y1253994D01*
X1473669D01*
X1477002Y1255660D02*
Y1258992D01*
X1504669Y1143664D02*
X1503003Y1141998D01*
Y1138666D01*
X1504669Y1137000D01*
X1511334D01*
X1513000Y1138666D01*
Y1141998D01*
X1511334Y1143664D01*
X1503003Y1153661D02*
X1504669Y1150329D01*
X1508002Y1146997D01*
X1511334D01*
X1513000Y1148663D01*
Y1151995D01*
X1511334Y1153661D01*
X1509668D01*
X1508002Y1151995D01*
Y1146997D01*
X1511334Y1156994D02*
X1513000Y1158660D01*
Y1161992D01*
X1511334Y1163658D01*
X1504669D01*
X1503003Y1161992D01*
Y1158660D01*
X1504669Y1156994D01*
X1506335D01*
X1508002Y1158660D01*
Y1163658D01*
X508665Y944331D02*
X506998Y945997D01*
X503666D01*
X502000Y944331D01*
Y937666D01*
X503666Y936000D01*
X506998D01*
X508665Y937666D01*
X511997Y945997D02*
X518661D01*
Y944331D01*
X511997Y937666D01*
Y936000D01*
X521994Y944331D02*
X523660Y945997D01*
X526992D01*
X528658Y944331D01*
Y937666D01*
X526992Y936000D01*
X523660D01*
X521994Y937666D01*
Y944331D01*
X1466664Y1146331D02*
X1464998Y1147997D01*
X1461666D01*
X1460000Y1146331D01*
Y1139666D01*
X1461666Y1138000D01*
X1464998D01*
X1466664Y1139666D01*
X1469997Y1147997D02*
X1476661D01*
Y1146331D01*
X1469997Y1139666D01*
Y1138000D01*
X1479994D02*
X1483326D01*
X1481660D01*
Y1147997D01*
X1479994Y1146331D01*
X833664Y866331D02*
X831998Y867997D01*
X828666D01*
X827000Y866331D01*
Y859666D01*
X828666Y858000D01*
X831998D01*
X833664Y859666D01*
X836997Y867997D02*
X843661D01*
Y866331D01*
X836997Y859666D01*
Y858000D01*
X853658D02*
X846994D01*
X853658Y864665D01*
Y866331D01*
X851992Y867997D01*
X848660D01*
X846994Y866331D01*
X838669Y768664D02*
X837003Y766998D01*
Y763666D01*
X838669Y762000D01*
X845334D01*
X847000Y763666D01*
Y766998D01*
X845334Y768664D01*
X837003Y771997D02*
Y778661D01*
X838669D01*
X845334Y771997D01*
X847000D01*
X838669Y781994D02*
X837003Y783660D01*
Y786992D01*
X838669Y788658D01*
X840335D01*
X842002Y786992D01*
Y785326D01*
Y786992D01*
X843668Y788658D01*
X845334D01*
X847000Y786992D01*
Y783660D01*
X845334Y781994D01*
X591669Y756665D02*
X590003Y754998D01*
Y751666D01*
X591669Y750000D01*
X598334D01*
X600000Y751666D01*
Y754998D01*
X598334Y756665D01*
X590003Y759997D02*
Y766661D01*
X591669D01*
X598334Y759997D01*
X600000D01*
Y774992D02*
X590003D01*
X595002Y769994D01*
Y776658D01*
X446669Y1173664D02*
X445003Y1171998D01*
Y1168666D01*
X446669Y1167000D01*
X453334D01*
X455000Y1168666D01*
Y1171998D01*
X453334Y1173664D01*
Y1176997D02*
X455000Y1178663D01*
Y1181995D01*
X453334Y1183661D01*
X446669D01*
X445003Y1181995D01*
Y1178663D01*
X446669Y1176997D01*
X448335D01*
X450002Y1178663D01*
Y1183661D01*
X455000Y1186994D02*
Y1190326D01*
Y1188660D01*
X445003D01*
X446669Y1186994D01*
X279415Y1167331D02*
X277748Y1168997D01*
X274416D01*
X272750Y1167331D01*
Y1160666D01*
X274416Y1159000D01*
X277748D01*
X279415Y1160666D01*
X282747Y1167331D02*
X284413Y1168997D01*
X287745D01*
X289411Y1167331D01*
Y1165665D01*
X287745Y1163998D01*
X289411Y1162332D01*
Y1160666D01*
X287745Y1159000D01*
X284413D01*
X282747Y1160666D01*
Y1162332D01*
X284413Y1163998D01*
X282747Y1165665D01*
Y1167331D01*
X284413Y1163998D02*
X287745D01*
X292744Y1160666D02*
X294410Y1159000D01*
X297742D01*
X299408Y1160666D01*
Y1167331D01*
X297742Y1168997D01*
X294410D01*
X292744Y1167331D01*
Y1165665D01*
X294410Y1163998D01*
X299408D01*
X315665Y1069331D02*
X313998Y1070997D01*
X310666D01*
X309000Y1069331D01*
Y1062666D01*
X310666Y1061000D01*
X313998D01*
X315665Y1062666D01*
X318997D02*
X320663Y1061000D01*
X323995D01*
X325661Y1062666D01*
Y1069331D01*
X323995Y1070997D01*
X320663D01*
X318997Y1069331D01*
Y1067664D01*
X320663Y1065998D01*
X325661D01*
X328994Y1069331D02*
X330660Y1070997D01*
X333992D01*
X335658Y1069331D01*
Y1062666D01*
X333992Y1061000D01*
X330660D01*
X328994Y1062666D01*
Y1069331D01*
X421000Y634997D02*
Y625000D01*
X425998D01*
X427664Y626666D01*
Y633331D01*
X425998Y634997D01*
X421000D01*
X437661Y625000D02*
X430997D01*
X437661Y631665D01*
Y633331D01*
X435995Y634997D01*
X432663D01*
X430997Y633331D01*
X447658Y634997D02*
X440994D01*
Y629998D01*
X444326Y631665D01*
X445992D01*
X447658Y629998D01*
Y626666D01*
X445992Y625000D01*
X442660D01*
X440994Y626666D01*
X296000Y602997D02*
Y593000D01*
X300998D01*
X302665Y594666D01*
Y601331D01*
X300998Y602997D01*
X296000D01*
X312661Y593000D02*
X305997D01*
X312661Y599664D01*
Y601331D01*
X310995Y602997D01*
X307663D01*
X305997Y601331D01*
X322658Y602997D02*
X319326Y601331D01*
X315994Y597998D01*
Y594666D01*
X317660Y593000D01*
X320992D01*
X322658Y594666D01*
Y596332D01*
X320992Y597998D01*
X315994D01*
X1656003Y1219000D02*
X1666000D01*
Y1223998D01*
X1664334Y1225665D01*
X1657669D01*
X1656003Y1223998D01*
Y1219000D01*
X1666000Y1228997D02*
Y1232329D01*
Y1230663D01*
X1656003D01*
X1657669Y1228997D01*
X1666000Y1237327D02*
Y1240660D01*
Y1238994D01*
X1656003D01*
X1657669Y1237327D01*
X827753Y1087500D02*
X837750D01*
Y1092498D01*
X836084Y1094165D01*
X829419D01*
X827753Y1092498D01*
Y1087500D01*
X837750Y1097497D02*
Y1100829D01*
Y1099163D01*
X827753D01*
X829419Y1097497D01*
X837750Y1112492D02*
Y1105827D01*
X831086Y1112492D01*
X829419D01*
X827753Y1110826D01*
Y1107494D01*
X829419Y1105827D01*
X509000Y1034997D02*
Y1025000D01*
X513998D01*
X515664Y1026666D01*
Y1033331D01*
X513998Y1034997D01*
X509000D01*
X518997Y1025000D02*
X522329D01*
X520663D01*
Y1034997D01*
X518997Y1033331D01*
X527327D02*
X528994Y1034997D01*
X532326D01*
X533992Y1033331D01*
Y1031665D01*
X532326Y1029998D01*
X530660D01*
X532326D01*
X533992Y1028332D01*
Y1026666D01*
X532326Y1025000D01*
X528994D01*
X527327Y1026666D01*
X827003Y981000D02*
X837000D01*
Y985998D01*
X835334Y987664D01*
X828669D01*
X827003Y985998D01*
Y981000D01*
X837000Y990997D02*
Y994329D01*
Y992663D01*
X827003D01*
X828669Y990997D01*
X837000Y1004326D02*
X827003D01*
X832002Y999327D01*
Y1005992D01*
X714756Y816955D02*
Y806958D01*
X719754D01*
X721421Y808624D01*
Y815289D01*
X719754Y816955D01*
X714756D01*
X724753Y806958D02*
X728085D01*
X726419D01*
Y816955D01*
X724753Y815289D01*
X739748Y816955D02*
X733083D01*
Y811956D01*
X736416Y813623D01*
X738082D01*
X739748Y811956D01*
Y808624D01*
X738082Y806958D01*
X734750D01*
X733083Y808624D01*
X339000Y1079997D02*
Y1070000D01*
X343998D01*
X345664Y1071666D01*
Y1078331D01*
X343998Y1079997D01*
X339000D01*
X355661Y1070000D02*
X348997D01*
X355661Y1076665D01*
Y1078331D01*
X353995Y1079997D01*
X350663D01*
X348997Y1078331D01*
X358994D02*
X360660Y1079997D01*
X363992D01*
X365658Y1078331D01*
Y1076665D01*
X363992Y1074998D01*
X362326D01*
X363992D01*
X365658Y1073332D01*
Y1071666D01*
X363992Y1070000D01*
X360660D01*
X358994Y1071666D01*
X475000Y1084997D02*
Y1075000D01*
X479998D01*
X481665Y1076666D01*
Y1083331D01*
X479998Y1084997D01*
X475000D01*
X491661Y1075000D02*
X484997D01*
X491661Y1081665D01*
Y1083331D01*
X489995Y1084997D01*
X486663D01*
X484997Y1083331D01*
X499992Y1075000D02*
Y1084997D01*
X494994Y1079998D01*
X501658D01*
X1586000Y840997D02*
Y831000D01*
X1592664D01*
X1602661D02*
X1595997D01*
X1602661Y837664D01*
Y839331D01*
X1600995Y840997D01*
X1597663D01*
X1595997Y839331D01*
X242000Y1042997D02*
Y1033000D01*
X248664D01*
X258661Y1041331D02*
X256995Y1042997D01*
X253663D01*
X251997Y1041331D01*
Y1039665D01*
X253663Y1037998D01*
X256995D01*
X258661Y1036332D01*
Y1034666D01*
X256995Y1033000D01*
X253663D01*
X251997Y1034666D01*
X261994Y1033000D02*
X265326D01*
X263660D01*
Y1042997D01*
X261994Y1041331D01*
X571000Y1098000D02*
X561003D01*
Y1102998D01*
X562669Y1104665D01*
X566002D01*
X567668Y1102998D01*
Y1098000D01*
X571000Y1107997D02*
Y1111329D01*
Y1109663D01*
X561003D01*
X562669Y1107997D01*
X571000Y1116327D02*
Y1119660D01*
Y1117993D01*
X561003D01*
X562669Y1116327D01*
X572000Y918000D02*
X562003D01*
Y922998D01*
X563669Y924665D01*
X567002D01*
X568668Y922998D01*
Y918000D01*
X572000Y927997D02*
Y931329D01*
Y929663D01*
X562003D01*
X563669Y927997D01*
X572000Y942992D02*
Y936327D01*
X565336Y942992D01*
X563669D01*
X562003Y941326D01*
Y937994D01*
X563669Y936327D01*
X497000Y577000D02*
Y586997D01*
X501998D01*
X503665Y585331D01*
Y581998D01*
X501998Y580332D01*
X497000D01*
X513661Y577000D02*
X506997D01*
X513661Y583665D01*
Y585331D01*
X511995Y586997D01*
X508663D01*
X506997Y585331D01*
X516994D02*
X518660Y586997D01*
X521992D01*
X523658Y585331D01*
Y583665D01*
X521992Y581998D01*
X520326D01*
X521992D01*
X523658Y580332D01*
Y578666D01*
X521992Y577000D01*
X518660D01*
X516994Y578666D01*
X871665Y1246666D02*
Y1253331D01*
X869998Y1254997D01*
X866666D01*
X865000Y1253331D01*
Y1246666D01*
X866666Y1245000D01*
X869998D01*
X868332Y1248332D02*
X871665Y1245000D01*
X869998D02*
X871665Y1246666D01*
X879995Y1245000D02*
Y1254997D01*
X874997Y1249998D01*
X881661D01*
X1506664Y928666D02*
Y935331D01*
X1504998Y936997D01*
X1501666D01*
X1500000Y935331D01*
Y928666D01*
X1501666Y927000D01*
X1504998D01*
X1503332Y930332D02*
X1506664Y927000D01*
X1504998D02*
X1506664Y928666D01*
X1516661Y936997D02*
X1513329Y935331D01*
X1509997Y931998D01*
Y928666D01*
X1511663Y927000D01*
X1514995D01*
X1516661Y928666D01*
Y930332D01*
X1514995Y931998D01*
X1509997D01*
X510664Y1186666D02*
Y1193331D01*
X508998Y1194997D01*
X505666D01*
X504000Y1193331D01*
Y1186666D01*
X505666Y1185000D01*
X508998D01*
X507332Y1188332D02*
X510664Y1185000D01*
X508998D02*
X510664Y1186666D01*
X513997Y1193331D02*
X515663Y1194997D01*
X518995D01*
X520661Y1193331D01*
Y1191665D01*
X518995Y1189998D01*
X520661Y1188332D01*
Y1186666D01*
X518995Y1185000D01*
X515663D01*
X513997Y1186666D01*
Y1188332D01*
X515663Y1189998D01*
X513997Y1191665D01*
Y1193331D01*
X515663Y1189998D02*
X518995D01*
X605664Y650666D02*
Y657331D01*
X603998Y658997D01*
X600666D01*
X599000Y657331D01*
Y650666D01*
X600666Y649000D01*
X603998D01*
X602332Y652332D02*
X605664Y649000D01*
X603998D02*
X605664Y650666D01*
X608997D02*
X610663Y649000D01*
X613995D01*
X615661Y650666D01*
Y657331D01*
X613995Y658997D01*
X610663D01*
X608997Y657331D01*
Y655665D01*
X610663Y653998D01*
X615661D01*
X877664Y989666D02*
Y996331D01*
X875998Y997997D01*
X872666D01*
X871000Y996331D01*
Y989666D01*
X872666Y988000D01*
X875998D01*
X874332Y991332D02*
X877664Y988000D01*
X875998D02*
X877664Y989666D01*
X880997Y997997D02*
X887661D01*
Y996331D01*
X880997Y989666D01*
Y988000D01*
X428665Y961666D02*
Y968331D01*
X426998Y969997D01*
X423666D01*
X422000Y968331D01*
Y961666D01*
X423666Y960000D01*
X426998D01*
X425332Y963332D02*
X428665Y960000D01*
X426998D02*
X428665Y961666D01*
X431997Y960000D02*
X435329D01*
X433663D01*
Y969997D01*
X431997Y968331D01*
X440327D02*
X441994Y969997D01*
X445326D01*
X446992Y968331D01*
Y961666D01*
X445326Y960000D01*
X441994D01*
X440327Y961666D01*
Y968331D01*
X391000Y626000D02*
X381003D01*
Y630998D01*
X382669Y632664D01*
X386002D01*
X387668Y630998D01*
Y626000D01*
Y629332D02*
X391000Y632664D01*
X381003Y635997D02*
Y642661D01*
X382669D01*
X389334Y635997D01*
X391000D01*
Y650992D02*
X381003D01*
X386002Y645994D01*
Y652658D01*
X376000Y535000D02*
X366003D01*
Y539998D01*
X367669Y541665D01*
X371002D01*
X372668Y539998D01*
Y535000D01*
Y538332D02*
X376000Y541665D01*
X366003Y544997D02*
Y551661D01*
X367669D01*
X374334Y544997D01*
X376000D01*
X366003Y561658D02*
Y554994D01*
X371002D01*
X369336Y558326D01*
Y559992D01*
X371002Y561658D01*
X374334D01*
X376000Y559992D01*
Y556660D01*
X374334Y554994D01*
X328000Y337000D02*
Y346997D01*
X332998D01*
X334664Y345331D01*
Y341998D01*
X332998Y340332D01*
X328000D01*
X331332D02*
X334664Y337000D01*
X337997Y346997D02*
X344661D01*
Y345331D01*
X337997Y338666D01*
Y337000D01*
X354658Y346997D02*
X351326Y345331D01*
X347994Y341998D01*
Y338666D01*
X349660Y337000D01*
X352992D01*
X354658Y338666D01*
Y340332D01*
X352992Y341998D01*
X347994D01*
X1341000Y548000D02*
Y557997D01*
X1345998D01*
X1347664Y556331D01*
Y552998D01*
X1345998Y551332D01*
X1341000D01*
X1344332D02*
X1347664Y548000D01*
X1350997Y557997D02*
X1357661D01*
Y556331D01*
X1350997Y549666D01*
Y548000D01*
X1360994Y557997D02*
X1367658D01*
Y556331D01*
X1360994Y549666D01*
Y548000D01*
X1340000Y606000D02*
Y615997D01*
X1344998D01*
X1346664Y614331D01*
Y610998D01*
X1344998Y609332D01*
X1340000D01*
X1343332D02*
X1346664Y606000D01*
X1349997Y615997D02*
X1356661D01*
Y614331D01*
X1349997Y607666D01*
Y606000D01*
X1359994Y614331D02*
X1361660Y615997D01*
X1364992D01*
X1366658Y614331D01*
Y612664D01*
X1364992Y610998D01*
X1366658Y609332D01*
Y607666D01*
X1364992Y606000D01*
X1361660D01*
X1359994Y607666D01*
Y609332D01*
X1361660Y610998D01*
X1359994Y612664D01*
Y614331D01*
X1361660Y610998D02*
X1364992D01*
X585000Y554000D02*
Y563997D01*
X589998D01*
X591665Y562331D01*
Y558998D01*
X589998Y557332D01*
X585000D01*
X588332D02*
X591665Y554000D01*
X594997Y563997D02*
X601661D01*
Y562331D01*
X594997Y555666D01*
Y554000D01*
X604994Y555666D02*
X606660Y554000D01*
X609992D01*
X611658Y555666D01*
Y562331D01*
X609992Y563997D01*
X606660D01*
X604994Y562331D01*
Y560664D01*
X606660Y558998D01*
X611658D01*
X584000Y504000D02*
Y513997D01*
X588998D01*
X590664Y512331D01*
Y508998D01*
X588998Y507332D01*
X584000D01*
X587332D02*
X590664Y504000D01*
X593997Y512331D02*
X595663Y513997D01*
X598995D01*
X600661Y512331D01*
Y510664D01*
X598995Y508998D01*
X600661Y507332D01*
Y505666D01*
X598995Y504000D01*
X595663D01*
X593997Y505666D01*
Y507332D01*
X595663Y508998D01*
X593997Y510664D01*
Y512331D01*
X595663Y508998D02*
X598995D01*
X603994Y512331D02*
X605660Y513997D01*
X608992D01*
X610658Y512331D01*
Y505666D01*
X608992Y504000D01*
X605660D01*
X603994Y505666D01*
Y512331D01*
X1412000Y1226000D02*
X1402003D01*
Y1230998D01*
X1403669Y1232664D01*
X1407002D01*
X1408668Y1230998D01*
Y1226000D01*
Y1229332D02*
X1412000Y1232664D01*
X1403669Y1235997D02*
X1402003Y1237663D01*
Y1240995D01*
X1403669Y1242661D01*
X1405336D01*
X1407002Y1240995D01*
Y1239329D01*
Y1240995D01*
X1408668Y1242661D01*
X1410334D01*
X1412000Y1240995D01*
Y1237663D01*
X1410334Y1235997D01*
X1402003Y1252658D02*
X1403669Y1249326D01*
X1407002Y1245994D01*
X1410334D01*
X1412000Y1247660D01*
Y1250992D01*
X1410334Y1252658D01*
X1408668D01*
X1407002Y1250992D01*
Y1245994D01*
X1422000Y1118000D02*
X1412003D01*
Y1122998D01*
X1413669Y1124665D01*
X1417002D01*
X1418668Y1122998D01*
Y1118000D01*
Y1121332D02*
X1422000Y1124665D01*
X1413669Y1127997D02*
X1412003Y1129663D01*
Y1132995D01*
X1413669Y1134661D01*
X1415336D01*
X1417002Y1132995D01*
Y1131329D01*
Y1132995D01*
X1418668Y1134661D01*
X1420334D01*
X1422000Y1132995D01*
Y1129663D01*
X1420334Y1127997D01*
X1412003Y1137994D02*
Y1144658D01*
X1413669D01*
X1420334Y1137994D01*
X1422000D01*
X576000Y1028000D02*
X566003D01*
Y1032998D01*
X567669Y1034665D01*
X571002D01*
X572668Y1032998D01*
Y1028000D01*
Y1031332D02*
X576000Y1034665D01*
X567669Y1037997D02*
X566003Y1039663D01*
Y1042995D01*
X567669Y1044661D01*
X569336D01*
X571002Y1042995D01*
Y1041329D01*
Y1042995D01*
X572668Y1044661D01*
X574334D01*
X576000Y1042995D01*
Y1039663D01*
X574334Y1037997D01*
X567669Y1047994D02*
X566003Y1049660D01*
Y1052992D01*
X567669Y1054658D01*
X569336D01*
X571002Y1052992D01*
X572668Y1054658D01*
X574334D01*
X576000Y1052992D01*
Y1049660D01*
X574334Y1047994D01*
X572668D01*
X571002Y1049660D01*
X569336Y1047994D01*
X567669D01*
X571002Y1049660D02*
Y1052992D01*
X1548000Y1229000D02*
X1538003D01*
Y1233998D01*
X1539669Y1235665D01*
X1543002D01*
X1544668Y1233998D01*
Y1229000D01*
Y1232332D02*
X1548000Y1235665D01*
X1539669Y1238997D02*
X1538003Y1240663D01*
Y1243995D01*
X1539669Y1245661D01*
X1541335D01*
X1543002Y1243995D01*
Y1242329D01*
Y1243995D01*
X1544668Y1245661D01*
X1546334D01*
X1548000Y1243995D01*
Y1240663D01*
X1546334Y1238997D01*
Y1248994D02*
X1548000Y1250660D01*
Y1253992D01*
X1546334Y1255658D01*
X1539669D01*
X1538003Y1253992D01*
Y1250660D01*
X1539669Y1248994D01*
X1541335D01*
X1543002Y1250660D01*
Y1255658D01*
X1385000Y919000D02*
Y928997D01*
X1389998D01*
X1391664Y927331D01*
Y923998D01*
X1389998Y922332D01*
X1385000D01*
X1388332D02*
X1391664Y919000D01*
X1399995D02*
Y928997D01*
X1394997Y923998D01*
X1401661D01*
X1404994Y927331D02*
X1406660Y928997D01*
X1409992D01*
X1411658Y927331D01*
Y920666D01*
X1409992Y919000D01*
X1406660D01*
X1404994Y920666D01*
Y927331D01*
X1447000Y1235000D02*
X1437003D01*
Y1239998D01*
X1438669Y1241665D01*
X1442002D01*
X1443668Y1239998D01*
Y1235000D01*
Y1238332D02*
X1447000Y1241665D01*
Y1249995D02*
X1437003D01*
X1442002Y1244997D01*
Y1251661D01*
X1447000Y1254994D02*
Y1258326D01*
Y1256660D01*
X1437003D01*
X1438669Y1254994D01*
X576000Y987000D02*
X566003D01*
Y991998D01*
X567669Y993664D01*
X571002D01*
X572668Y991998D01*
Y987000D01*
Y990332D02*
X576000Y993664D01*
Y1001995D02*
X566003D01*
X571002Y996997D01*
Y1003661D01*
X576000Y1013658D02*
Y1006994D01*
X569336Y1013658D01*
X567669D01*
X566003Y1011992D01*
Y1008660D01*
X567669Y1006994D01*
X1457000Y1187000D02*
Y1196997D01*
X1461998D01*
X1463665Y1195331D01*
Y1191998D01*
X1461998Y1190332D01*
X1457000D01*
X1460332D02*
X1463665Y1187000D01*
X1471995D02*
Y1196997D01*
X1466997Y1191998D01*
X1473661D01*
X1476994Y1195331D02*
X1478660Y1196997D01*
X1481992D01*
X1483658Y1195331D01*
Y1193664D01*
X1481992Y1191998D01*
X1480326D01*
X1481992D01*
X1483658Y1190332D01*
Y1188666D01*
X1481992Y1187000D01*
X1478660D01*
X1476994Y1188666D01*
X549000Y1184000D02*
X539003D01*
Y1188998D01*
X540669Y1190665D01*
X544002D01*
X545668Y1188998D01*
Y1184000D01*
Y1187332D02*
X549000Y1190665D01*
Y1198995D02*
X539003D01*
X544002Y1193997D01*
Y1200661D01*
X549000Y1208992D02*
X539003D01*
X544002Y1203994D01*
Y1210658D01*
X569000Y699000D02*
Y708997D01*
X573998D01*
X575664Y707331D01*
Y703998D01*
X573998Y702332D01*
X569000D01*
X572332D02*
X575664Y699000D01*
X583995D02*
Y708997D01*
X578997Y703998D01*
X585661D01*
X595658Y708997D02*
X588994D01*
Y703998D01*
X592326Y705665D01*
X593992D01*
X595658Y703998D01*
Y700666D01*
X593992Y699000D01*
X590660D01*
X588994Y700666D01*
X616000Y1291000D02*
X606003D01*
Y1295998D01*
X607669Y1297664D01*
X611002D01*
X612668Y1295998D01*
Y1291000D01*
Y1294332D02*
X616000Y1297664D01*
Y1305995D02*
X606003D01*
X611002Y1300997D01*
Y1307661D01*
X606003Y1317658D02*
X607669Y1314326D01*
X611002Y1310994D01*
X614334D01*
X616000Y1312660D01*
Y1315992D01*
X614334Y1317658D01*
X612668D01*
X611002Y1315992D01*
Y1310994D01*
X565150Y371348D02*
Y381345D01*
X570148D01*
X571814Y379679D01*
Y376346D01*
X570148Y374680D01*
X565150D01*
X568482D02*
X571814Y371348D01*
X580145D02*
Y381345D01*
X575147Y376346D01*
X581811D01*
X585144Y381345D02*
X591808D01*
Y379679D01*
X585144Y373014D01*
Y371348D01*
X430000Y910000D02*
Y919997D01*
X434998D01*
X436665Y918331D01*
Y914998D01*
X434998Y913332D01*
X430000D01*
X433332D02*
X436665Y910000D01*
X444995D02*
Y919997D01*
X439997Y914998D01*
X446661D01*
X449994Y918331D02*
X451660Y919997D01*
X454992D01*
X456658Y918331D01*
Y916665D01*
X454992Y914998D01*
X456658Y913332D01*
Y911666D01*
X454992Y910000D01*
X451660D01*
X449994Y911666D01*
Y913332D01*
X451660Y914998D01*
X449994Y916665D01*
Y918331D01*
X451660Y914998D02*
X454992D01*
X678000Y815000D02*
X668003D01*
Y819998D01*
X669669Y821665D01*
X673002D01*
X674668Y819998D01*
Y815000D01*
Y818332D02*
X678000Y821665D01*
Y829995D02*
X668003D01*
X673002Y824997D01*
Y831661D01*
X676334Y834994D02*
X678000Y836660D01*
Y839992D01*
X676334Y841658D01*
X669669D01*
X668003Y839992D01*
Y836660D01*
X669669Y834994D01*
X671336D01*
X673002Y836660D01*
Y841658D01*
X678000Y783000D02*
X668003D01*
Y787998D01*
X669669Y789665D01*
X673002D01*
X674668Y787998D01*
Y783000D01*
Y786332D02*
X678000Y789665D01*
X668003Y799661D02*
Y792997D01*
X673002D01*
X671336Y796329D01*
Y797995D01*
X673002Y799661D01*
X676334D01*
X678000Y797995D01*
Y794663D01*
X676334Y792997D01*
X669669Y802994D02*
X668003Y804660D01*
Y807992D01*
X669669Y809658D01*
X676334D01*
X678000Y807992D01*
Y804660D01*
X676334Y802994D01*
X669669D01*
X406000Y1117000D02*
X396003D01*
Y1121998D01*
X397669Y1123664D01*
X401002D01*
X402668Y1121998D01*
Y1117000D01*
Y1120332D02*
X406000Y1123664D01*
X396003Y1126997D02*
Y1133661D01*
X397669D01*
X404334Y1126997D01*
X406000D01*
Y1136994D02*
Y1140326D01*
Y1138660D01*
X396003D01*
X397669Y1136994D01*
X406000Y1070000D02*
X396003D01*
Y1074998D01*
X397669Y1076665D01*
X401002D01*
X402668Y1074998D01*
Y1070000D01*
Y1073332D02*
X406000Y1076665D01*
X396003Y1079997D02*
Y1086661D01*
X397669D01*
X404334Y1079997D01*
X406000D01*
Y1096658D02*
Y1089994D01*
X399336Y1096658D01*
X397669D01*
X396003Y1094992D01*
Y1091660D01*
X397669Y1089994D01*
X405000Y1167000D02*
X395003D01*
Y1171998D01*
X396669Y1173664D01*
X400002D01*
X401668Y1171998D01*
Y1167000D01*
Y1170332D02*
X405000Y1173664D01*
X395003Y1176997D02*
Y1183661D01*
X396669D01*
X403334Y1176997D01*
X405000D01*
X396669Y1186994D02*
X395003Y1188660D01*
Y1191992D01*
X396669Y1193658D01*
X398335D01*
X400002Y1191992D01*
Y1190326D01*
Y1191992D01*
X401668Y1193658D01*
X403334D01*
X405000Y1191992D01*
Y1188660D01*
X403334Y1186994D01*
X534670Y599277D02*
X541334D01*
X538002D01*
Y589280D01*
X544667D02*
Y599277D01*
X549665D01*
X551331Y597611D01*
Y594278D01*
X549665Y592612D01*
X544667D01*
X559662Y589280D02*
Y599277D01*
X554664Y594278D01*
X561328D01*
X564660Y597611D02*
X566326Y599277D01*
X569659D01*
X571325Y597611D01*
Y590946D01*
X569659Y589280D01*
X566326D01*
X564660Y590946D01*
Y597611D01*
X632206Y521045D02*
X638871D01*
X635538D01*
Y511048D01*
X642203D02*
Y521045D01*
X647201D01*
X648867Y519379D01*
Y516046D01*
X647201Y514380D01*
X642203D01*
X657198Y511048D02*
Y521045D01*
X652200Y516046D01*
X658864D01*
X662196Y511048D02*
X665529D01*
X663863D01*
Y521045D01*
X662196Y519379D01*
X1152652Y1270345D02*
X1159316D01*
X1155984D01*
Y1260348D01*
X1162649D02*
Y1270345D01*
X1167647D01*
X1169313Y1268679D01*
Y1265346D01*
X1167647Y1263680D01*
X1162649D01*
X1179310Y1260348D02*
X1172646D01*
X1179310Y1267012D01*
Y1268679D01*
X1177644Y1270345D01*
X1174312D01*
X1172646Y1268679D01*
X1187641Y1260348D02*
Y1270345D01*
X1182642Y1265346D01*
X1189307D01*
X762000Y1164997D02*
X768664D01*
X765332D01*
Y1155000D01*
X771997D02*
Y1164997D01*
X776995D01*
X778661Y1163331D01*
Y1159998D01*
X776995Y1158332D01*
X771997D01*
X788658Y1155000D02*
X781994D01*
X788658Y1161665D01*
Y1163331D01*
X786992Y1164997D01*
X783660D01*
X781994Y1163331D01*
X798655Y1164997D02*
X791990D01*
Y1159998D01*
X795323Y1161665D01*
X796989D01*
X798655Y1159998D01*
Y1156666D01*
X796989Y1155000D01*
X793656D01*
X791990Y1156666D01*
X1193800Y853277D02*
X1200464D01*
X1197132D01*
Y843280D01*
X1203797D02*
Y853277D01*
X1208795D01*
X1210461Y851611D01*
Y848278D01*
X1208795Y846612D01*
X1203797D01*
X1220458Y843280D02*
X1213794D01*
X1220458Y849945D01*
Y851611D01*
X1218792Y853277D01*
X1215460D01*
X1213794Y851611D01*
X1230455Y853277D02*
X1227123Y851611D01*
X1223790Y848278D01*
Y844946D01*
X1225456Y843280D01*
X1228789D01*
X1230455Y844946D01*
Y846612D01*
X1228789Y848278D01*
X1223790D01*
X647700Y1302349D02*
X654364D01*
X651032D01*
Y1292352D01*
X657697D02*
Y1302349D01*
X662695D01*
X664361Y1300683D01*
Y1297350D01*
X662695Y1295684D01*
X657697D01*
X674358Y1292352D02*
X667694D01*
X674358Y1299017D01*
Y1300683D01*
X672692Y1302349D01*
X669360D01*
X667694Y1300683D01*
X677690Y1302349D02*
X684355D01*
Y1300683D01*
X677690Y1294018D01*
Y1292352D01*
X768604Y890361D02*
X775268D01*
X771936D01*
Y880364D01*
X778601D02*
Y890361D01*
X783599D01*
X785265Y888695D01*
Y885362D01*
X783599Y883696D01*
X778601D01*
X795262Y880364D02*
X788598D01*
X795262Y887029D01*
Y888695D01*
X793596Y890361D01*
X790264D01*
X788598Y888695D01*
X798594Y882030D02*
X800260Y880364D01*
X803593D01*
X805259Y882030D01*
Y888695D01*
X803593Y890361D01*
X800260D01*
X798594Y888695D01*
Y887029D01*
X800260Y885362D01*
X805259D01*
X331216Y1183477D02*
X337881D01*
X334548D01*
Y1173480D01*
X341213D02*
Y1183477D01*
X346211D01*
X347877Y1181811D01*
Y1178478D01*
X346211Y1176812D01*
X341213D01*
X351210Y1181811D02*
X352876Y1183477D01*
X356208D01*
X357874Y1181811D01*
Y1180145D01*
X356208Y1178478D01*
X354542D01*
X356208D01*
X357874Y1176812D01*
Y1175146D01*
X356208Y1173480D01*
X352876D01*
X351210Y1175146D01*
X361206D02*
X362873Y1173480D01*
X366205D01*
X367871Y1175146D01*
Y1181811D01*
X366205Y1183477D01*
X362873D01*
X361206Y1181811D01*
Y1180145D01*
X362873Y1178478D01*
X367871D01*
X349250Y710021D02*
Y701690D01*
X350916Y700024D01*
X354248D01*
X355914Y701690D01*
Y710021D01*
X365911Y700024D02*
X359247D01*
X365911Y706689D01*
Y708355D01*
X364245Y710021D01*
X360913D01*
X359247Y708355D01*
X375908Y700024D02*
X369244D01*
X375908Y706689D01*
Y708355D01*
X374242Y710021D01*
X370910D01*
X369244Y708355D01*
X1560000Y1231997D02*
Y1223666D01*
X1561666Y1222000D01*
X1564998D01*
X1566664Y1223666D01*
Y1231997D01*
X1569997Y1222000D02*
X1573329D01*
X1571663D01*
Y1231997D01*
X1569997Y1230331D01*
X1578327D02*
X1579994Y1231997D01*
X1583326D01*
X1584992Y1230331D01*
Y1223666D01*
X1583326Y1222000D01*
X1579994D01*
X1578327Y1223666D01*
Y1230331D01*
X837000Y1273997D02*
Y1265666D01*
X838666Y1264000D01*
X841998D01*
X843664Y1265666D01*
Y1273997D01*
X846997Y1265666D02*
X848663Y1264000D01*
X851995D01*
X853661Y1265666D01*
Y1272331D01*
X851995Y1273997D01*
X848663D01*
X846997Y1272331D01*
Y1270665D01*
X848663Y1268998D01*
X853661D01*
X916000Y831997D02*
Y823666D01*
X917666Y822000D01*
X920998D01*
X922664Y823666D01*
Y831997D01*
X925997Y822000D02*
X929329D01*
X927663D01*
Y831997D01*
X925997Y830331D01*
X934327Y822000D02*
X937660D01*
X935994D01*
Y831997D01*
X934327Y830331D01*
X239000Y1111997D02*
Y1103666D01*
X240666Y1102000D01*
X243998D01*
X245665Y1103666D01*
Y1111997D01*
X255661Y1102000D02*
X248997D01*
X255661Y1108664D01*
Y1110331D01*
X253995Y1111997D01*
X250663D01*
X248997Y1110331D01*
X258994Y1102000D02*
X262326D01*
X260660D01*
Y1111997D01*
X258994Y1110331D01*
X1491664Y1102666D02*
Y1109331D01*
X1489998Y1110997D01*
X1486666D01*
X1485000Y1109331D01*
Y1102666D01*
X1486666Y1101000D01*
X1489998D01*
X1488332Y1104332D02*
X1491664Y1101000D01*
X1489998D02*
X1491664Y1102666D01*
X1501661Y1110997D02*
X1494997D01*
Y1105998D01*
X1498329Y1107664D01*
X1499995D01*
X1501661Y1105998D01*
Y1102666D01*
X1499995Y1101000D01*
X1496663D01*
X1494997Y1102666D01*
X1448000Y481000D02*
X1438003D01*
Y485998D01*
X1439669Y487664D01*
X1443002D01*
X1444668Y485998D01*
Y481000D01*
Y484332D02*
X1448000Y487664D01*
X1439669Y490997D02*
X1438003Y492663D01*
Y495995D01*
X1439669Y497661D01*
X1441335D01*
X1443002Y495995D01*
X1444668Y497661D01*
X1446334D01*
X1448000Y495995D01*
Y492663D01*
X1446334Y490997D01*
X1444668D01*
X1443002Y492663D01*
X1441335Y490997D01*
X1439669D01*
X1443002Y492663D02*
Y495995D01*
X1448000Y500994D02*
Y504326D01*
Y502660D01*
X1438003D01*
X1439669Y500994D01*
X584000Y452000D02*
Y461997D01*
X588998D01*
X590664Y460331D01*
Y456998D01*
X588998Y455332D01*
X584000D01*
X587332D02*
X590664Y452000D01*
X593997Y460331D02*
X595663Y461997D01*
X598995D01*
X600661Y460331D01*
Y458665D01*
X598995Y456998D01*
X600661Y455332D01*
Y453666D01*
X598995Y452000D01*
X595663D01*
X593997Y453666D01*
Y455332D01*
X595663Y456998D01*
X593997Y458665D01*
Y460331D01*
X595663Y456998D02*
X598995D01*
X610658Y452000D02*
X603994D01*
X610658Y458665D01*
Y460331D01*
X608992Y461997D01*
X605660D01*
X603994Y460331D01*
X644906Y431637D02*
X651571D01*
X648238D01*
Y421640D01*
X654903D02*
Y431637D01*
X659901D01*
X661567Y429971D01*
Y426638D01*
X659901Y424972D01*
X654903D01*
X669898Y421640D02*
Y431637D01*
X664900Y426638D01*
X671564D01*
X681561Y421640D02*
X674896D01*
X681561Y428304D01*
Y429971D01*
X679895Y431637D01*
X676562D01*
X674896Y429971D01*
D59*
X403498Y615000D02*
X458499D01*
X403000Y575000D02*
X459000D01*
X783000Y1067498D02*
Y1122499D01*
X823000Y1067000D02*
Y1123000D01*
Y929501D02*
Y984502D01*
X783000Y929000D02*
Y985000D01*
X320751Y1086500D02*
X375752D01*
X320250Y1126500D02*
X376250D01*
X1036500Y1244320D02*
X1055550D01*
X1036500Y1235430D02*
Y1244320D01*
X1021260Y1235430D02*
X1036500D01*
X1021260D02*
Y1244320D01*
X896800D02*
X1021260D01*
X1036500Y1140180D02*
X1055550D01*
X1036500D02*
Y1149070D01*
X1021260D02*
X1036500D01*
X1021260Y1140180D02*
Y1149070D01*
X896800Y1140180D02*
X1021260D01*
X1055550D02*
Y1244320D01*
X896800Y1140180D02*
Y1244320D01*
X1037750Y987570D02*
X1056800D01*
X1037750Y978680D02*
Y987570D01*
X1022510Y978680D02*
X1037750D01*
X1022510D02*
Y987570D01*
X898050D02*
X1022510D01*
X1037750Y883430D02*
X1056800D01*
X1037750D02*
Y892320D01*
X1022510D02*
X1037750D01*
X1022510Y883430D02*
Y892320D01*
X898050Y883430D02*
X1022510D01*
X1056800D02*
Y987570D01*
X898050Y883430D02*
Y987570D01*
X1329970Y539250D02*
X1377626D01*
Y510750D02*
Y539250D01*
X1329970Y510750D02*
X1377626D01*
X1329970D02*
Y539250D01*
Y594500D02*
X1377626D01*
Y566000D02*
Y594500D01*
X1329970Y566000D02*
X1377626D01*
X1329970D02*
Y594500D01*
X572874Y517000D02*
X620530D01*
X572874D02*
Y545500D01*
X620530D01*
Y517000D02*
Y545500D01*
X573124Y470250D02*
X620780D01*
X573124D02*
Y498750D01*
X620780D01*
Y470250D02*
Y498750D01*
X1369220Y971250D02*
X1416876D01*
Y942750D02*
Y971250D01*
X1369220Y942750D02*
X1416876D01*
X1369220D02*
Y971250D01*
X355000Y692250D02*
X375000D01*
X354750Y673500D02*
Y679250D01*
Y660500D02*
X375000D01*
X266500Y1090500D02*
Y1110500D01*
X279500Y1090250D02*
X285250D01*
X298250D02*
Y1110500D01*
X1395000Y466220D02*
Y513876D01*
X1423500D01*
Y466220D02*
Y513876D01*
X1395000Y466220D02*
X1423500D01*
X571874Y412250D02*
X619530D01*
X571874D02*
Y440750D01*
X619530D01*
Y412250D02*
Y440750D01*
D60*
X325276Y592750D02*
Y600104D01*
X330864D01*
X353724Y592750D02*
Y600104D01*
X348136D02*
X353724D01*
X509776Y998000D02*
Y1005354D01*
X515364D01*
X538224Y998000D02*
Y1005354D01*
X532636D02*
X538224D01*
X714026Y779750D02*
Y787104D01*
X719614D01*
X742474Y779750D02*
Y787104D01*
X736886D02*
X742474D01*
X438026Y1080000D02*
Y1087354D01*
X443614D01*
X466474Y1080000D02*
Y1087354D01*
X460886D02*
X466474D01*
X507646Y1144026D02*
X515000D01*
X507646D02*
Y1149614D01*
Y1172474D02*
X515000D01*
X507646Y1166886D02*
Y1172474D01*
X590224Y644146D02*
Y651500D01*
X584636Y644146D02*
X590224D01*
X561776D02*
Y651500D01*
Y644146D02*
X567364D01*
D61*
X485000Y880000D02*
D03*
X1352750Y671500D02*
D03*
X1329000Y711000D02*
D03*
X282000Y1132000D02*
D03*
D62*
X1113999Y904000D02*
D03*
X1144999D02*
D03*
X407751Y677750D02*
D03*
X1362000Y906000D02*
D03*
X1215999Y905000D02*
D03*
X1362000Y1012999D02*
D03*
D63*
X339000Y634000D02*
D03*
X1168000Y901000D02*
D03*
X1390000Y1006999D02*
D03*
X1664000Y1169999D02*
D03*
X812250Y1286750D02*
D03*
X1500000Y1214000D02*
D03*
X1485001D02*
D03*
X1492999Y1166500D02*
D03*
X876250Y771000D02*
D03*
X597250Y794250D02*
D03*
X452000Y1141500D02*
D03*
D64*
X1200500Y717750D02*
D03*
Y644750D02*
D03*
X1041000Y717750D02*
D03*
Y644750D02*
D03*
X878000Y717750D02*
D03*
Y644750D02*
D03*
X714250Y717750D02*
D03*
Y644750D02*
D03*
D65*
X1192000Y418500D02*
D03*
X1119000D02*
D03*
X863500Y418500D02*
D03*
X790500D02*
D03*
X1323000Y935500D02*
D03*
X1250000D02*
D03*
Y1038500D02*
D03*
X1323000D02*
D03*
D66*
X816750Y1196250D02*
D03*
X1612000Y1214000D02*
D03*
X476500Y940500D02*
D03*
X1470000Y1157000D02*
D03*
X873000Y862000D02*
D03*
D67*
X435125Y595000D02*
D03*
X344125Y1106500D02*
D03*
D68*
X803000Y1099125D02*
D03*
Y952875D02*
D03*
D69*
X370932Y625625D02*
D03*
X371182Y584875D02*
D03*
X1407068Y1188875D02*
D03*
X1436068Y1175875D02*
D03*
X556432Y1038625D02*
D03*
X1516068Y1213875D02*
D03*
X1436068Y1212875D02*
D03*
X556182Y997625D02*
D03*
X546182Y1158625D02*
D03*
X591568Y1297875D02*
D03*
X692682Y817625D02*
D03*
Y778875D02*
D03*
X418682Y1120375D02*
D03*
X418682Y1080875D02*
D03*
Y1178375D02*
D03*
D70*
X340625Y322568D02*
D03*
X1470125Y1174068D02*
D03*
X575875Y685682D02*
D03*
X577875Y357682D02*
D03*
X405375Y913182D02*
D03*
M02*
