G04 Layer_Color=8388736*
%FSLAX44Y44*%
%MOMM*%
G71*
G01*
G75*
%ADD38C,0.4000*%
%ADD71R,18.0000X8.0000*%
%ADD72R,1.5032X2.1032*%
%ADD73R,2.1032X1.5032*%
%ADD74R,1.2032X1.2032*%
%ADD75R,1.7032X1.2032*%
%ADD76R,6.2032X3.2032*%
%ADD77R,3.2032X6.2032*%
%ADD78R,1.2032X1.2032*%
%ADD79R,1.2032X1.7032*%
%ADD80R,3.0032X2.4032*%
%ADD81R,1.2192X1.6256*%
%ADD82R,1.0160X1.8034*%
%ADD83R,2.4032X3.0032*%
%ADD84R,13.2032X4.7032*%
%ADD85R,3.1032X1.3032*%
%ADD86R,6.4032X5.9032*%
%ADD87R,1.6256X1.2192*%
%ADD88R,1.0032X1.2032*%
%ADD89R,1.3208X1.2192*%
%ADD90R,1.2192X1.3208*%
%ADD91R,1.6256X3.2766*%
%ADD92R,1.3208X0.8636*%
%ADD93R,2.1032X0.6232*%
%ADD94R,3.2032X4.4032*%
%ADD95R,0.6432X1.7532*%
%ADD96R,0.8636X1.3208*%
%ADD97R,3.2766X1.6256*%
%ADD98C,2.7432*%
%ADD99R,2.7432X2.7432*%
%ADD100C,2.2032*%
%ADD101C,0.2032*%
%ADD102O,1.7032X2.7032*%
%ADD103O,2.7032X1.7032*%
%ADD104C,7.2032*%
%ADD105R,2.7432X2.7432*%
%ADD106C,3.5052*%
%ADD107O,3.5560X1.8796*%
%ADD108C,0.8032*%
%ADD109C,0.9032*%
%ADD110C,1.0032*%
%ADD111C,1.2032*%
%ADD112C,1.8032*%
G36*
X1072000Y988000D02*
Y882000D01*
X1060000Y870000D01*
X900000D01*
X885000Y885000D01*
X885000Y915000D01*
X871000Y929000D01*
Y942000D01*
X885000Y956000D01*
Y988000D01*
X895000Y998000D01*
X1062000D01*
X1072000Y988000D01*
D02*
G37*
G36*
X1073000Y1246000D02*
Y1140000D01*
X1061000Y1128000D01*
X901000D01*
X886000Y1143000D01*
X886000Y1174000D01*
X872000Y1188000D01*
X872000Y1200000D01*
X886000Y1214000D01*
Y1246000D01*
X896000Y1256000D01*
X1063000D01*
X1073000Y1246000D01*
D02*
G37*
D38*
X1790000Y360000D02*
Y1240000D01*
X800000Y1340000D02*
X1790000Y1240000D01*
X210000Y1340000D02*
X800000D01*
Y260000D02*
X1790000Y360000D01*
X210000Y260000D02*
X800000D01*
X210000D02*
Y1340000D01*
D71*
X1664000Y1035000D02*
D03*
D72*
X467500Y880000D02*
D03*
X502500D02*
D03*
X1335250Y671500D02*
D03*
X1370250D02*
D03*
X1311500Y711000D02*
D03*
X1346500D02*
D03*
X264500Y1132000D02*
D03*
X299500D02*
D03*
D73*
X1114000Y921500D02*
D03*
Y886500D02*
D03*
X1145000Y921500D02*
D03*
Y886500D02*
D03*
X407750Y695250D02*
D03*
Y660250D02*
D03*
X1362000Y923500D02*
D03*
Y888500D02*
D03*
X1216000Y922500D02*
D03*
Y887500D02*
D03*
X1362000Y995500D02*
D03*
Y1030500D02*
D03*
D74*
X339000Y625500D02*
D03*
Y642500D02*
D03*
X1168000Y909500D02*
D03*
Y892500D02*
D03*
X1390000Y1015500D02*
D03*
Y998500D02*
D03*
X1664000Y1178500D02*
D03*
Y1161500D02*
D03*
X812250Y1278250D02*
D03*
Y1295250D02*
D03*
X1500000Y1222500D02*
D03*
Y1205500D02*
D03*
X1485000D02*
D03*
Y1222500D02*
D03*
X1493000Y1175000D02*
D03*
Y1158000D02*
D03*
X876250Y762500D02*
D03*
Y779500D02*
D03*
X597250Y802750D02*
D03*
Y785750D02*
D03*
X452000Y1150000D02*
D03*
Y1133000D02*
D03*
D75*
X332000Y663750D02*
D03*
Y684750D02*
D03*
X993250Y554750D02*
D03*
Y575750D02*
D03*
X1157250Y555250D02*
D03*
Y576250D02*
D03*
X828500Y554000D02*
D03*
Y575000D02*
D03*
X1235000Y429500D02*
D03*
Y450500D02*
D03*
X895000Y397000D02*
D03*
Y418000D02*
D03*
X1190000Y893500D02*
D03*
Y914500D02*
D03*
X1320000Y616500D02*
D03*
Y637500D02*
D03*
D76*
X1190000Y680750D02*
D03*
X1278000D02*
D03*
X1030500D02*
D03*
X1118500D02*
D03*
X867500D02*
D03*
X955500D02*
D03*
X703750D02*
D03*
X791750D02*
D03*
D77*
X1155000Y429000D02*
D03*
Y341000D02*
D03*
X826500Y429000D02*
D03*
Y341000D02*
D03*
X1286000Y946000D02*
D03*
Y858000D02*
D03*
X1287000Y1028000D02*
D03*
Y1116000D02*
D03*
X305000Y899000D02*
D03*
Y1015000D02*
D03*
D78*
X825250Y1196250D02*
D03*
X808250D02*
D03*
X1603500Y1214000D02*
D03*
X1620500D02*
D03*
X485000Y940500D02*
D03*
X468000D02*
D03*
X1461500Y1157000D02*
D03*
X1478500D02*
D03*
X881500Y862000D02*
D03*
X864500D02*
D03*
D79*
X293750Y1067750D02*
D03*
X272750D02*
D03*
D80*
X406000Y595000D02*
D03*
X456000D02*
D03*
X373250Y1106500D02*
D03*
X323250D02*
D03*
D81*
X339500Y604676D02*
D03*
X349152Y582500D02*
D03*
X330000D02*
D03*
X524000Y1009926D02*
D03*
X533652Y987750D02*
D03*
X514500D02*
D03*
X728250Y791676D02*
D03*
X737902Y769500D02*
D03*
X718750D02*
D03*
X452250Y1091926D02*
D03*
X461902Y1069750D02*
D03*
X442750D02*
D03*
X576000Y639574D02*
D03*
X566348Y661750D02*
D03*
X585500D02*
D03*
D82*
X1646000Y1178982D02*
D03*
Y1213000D02*
D03*
D83*
X803000Y1070000D02*
D03*
Y1120000D02*
D03*
Y982000D02*
D03*
Y932000D02*
D03*
D84*
X1665000Y1049000D02*
D03*
Y879000D02*
D03*
D85*
X1462000Y998360D02*
D03*
Y952640D02*
D03*
X1551000Y1037000D02*
D03*
Y1082720D02*
D03*
D86*
X1533000Y975500D02*
D03*
X1480000Y1059860D02*
D03*
D87*
X503074Y1158250D02*
D03*
X525250Y1167902D02*
D03*
Y1148750D02*
D03*
D88*
X400500Y936500D02*
D03*
X413500D02*
D03*
X407000Y952500D02*
D03*
D89*
X371000Y634136D02*
D03*
Y617000D02*
D03*
X371250Y593386D02*
D03*
Y576250D02*
D03*
X1407000Y1180364D02*
D03*
Y1197500D02*
D03*
X1436000Y1167364D02*
D03*
Y1184500D02*
D03*
X556500Y1047136D02*
D03*
Y1030000D02*
D03*
X1516000Y1205364D02*
D03*
Y1222500D02*
D03*
X1436000Y1204364D02*
D03*
Y1221500D02*
D03*
X556250Y1006136D02*
D03*
Y989000D02*
D03*
X546250Y1167136D02*
D03*
Y1150000D02*
D03*
X591500Y1289364D02*
D03*
Y1306500D02*
D03*
X692750Y826136D02*
D03*
Y809000D02*
D03*
Y787386D02*
D03*
Y770250D02*
D03*
X418750Y1128886D02*
D03*
Y1111750D02*
D03*
X418750Y1089386D02*
D03*
Y1072250D02*
D03*
Y1186886D02*
D03*
Y1169750D02*
D03*
D90*
X349136Y322500D02*
D03*
X332000D02*
D03*
X1478636Y1174000D02*
D03*
X1461500D02*
D03*
X567364Y685750D02*
D03*
X584500D02*
D03*
X569364Y357750D02*
D03*
X586500D02*
D03*
X396864Y913250D02*
D03*
X414000D02*
D03*
D91*
X1377372Y525000D02*
D03*
X1330250D02*
D03*
X1377372Y580250D02*
D03*
X1330250D02*
D03*
X573128Y531250D02*
D03*
X620250D02*
D03*
X573378Y484500D02*
D03*
X620500D02*
D03*
X1416622Y957000D02*
D03*
X1369500D02*
D03*
X572128Y426500D02*
D03*
X619250D02*
D03*
D92*
X376000Y666750D02*
D03*
X353824D02*
D03*
X376000Y676250D02*
D03*
Y685902D02*
D03*
X353824D02*
D03*
D93*
X1536000Y1201000D02*
D03*
Y1194396D02*
D03*
Y1187792D02*
D03*
Y1181442D02*
D03*
Y1174838D02*
D03*
Y1168488D02*
D03*
Y1161884D02*
D03*
Y1155280D02*
D03*
Y1148930D02*
D03*
Y1142326D02*
D03*
X1596000Y1142326D02*
D03*
Y1148930D02*
D03*
Y1155280D02*
D03*
Y1161884D02*
D03*
Y1168488D02*
D03*
Y1174838D02*
D03*
Y1181442D02*
D03*
Y1187792D02*
D03*
Y1194396D02*
D03*
Y1201000D02*
D03*
D94*
X1566000Y1171650D02*
D03*
D95*
X822000Y1260250D02*
D03*
X815500D02*
D03*
X809000D02*
D03*
X802500D02*
D03*
X796000D02*
D03*
X789500D02*
D03*
X822000Y1213750D02*
D03*
X815500D02*
D03*
X809000D02*
D03*
X802500D02*
D03*
X796000D02*
D03*
X789500D02*
D03*
X866750Y795500D02*
D03*
X873250D02*
D03*
X879750D02*
D03*
X886250D02*
D03*
X892750D02*
D03*
X899250D02*
D03*
X866750Y842000D02*
D03*
X873250D02*
D03*
X879750D02*
D03*
X886250D02*
D03*
X892750D02*
D03*
X899250D02*
D03*
D96*
X292000Y1111500D02*
D03*
Y1089324D02*
D03*
X282500Y1111500D02*
D03*
X272848D02*
D03*
Y1089324D02*
D03*
D97*
X1409250Y513622D02*
D03*
Y466500D02*
D03*
D98*
X1098000Y1022000D02*
D03*
X707000Y1147000D02*
D03*
Y1107000D02*
D03*
X667000Y1094500D02*
D03*
Y1159500D02*
D03*
X619500Y1114500D02*
D03*
Y1089500D02*
D03*
X627000Y921000D02*
D03*
Y961000D02*
D03*
X667000Y973500D02*
D03*
Y908500D02*
D03*
X714500Y953500D02*
D03*
Y978500D02*
D03*
X400000Y533000D02*
D03*
D99*
X1098000Y1097000D02*
D03*
X619500Y1164500D02*
D03*
X714500Y903500D02*
D03*
D100*
X648500Y756250D02*
D03*
X645000Y819000D02*
D03*
X481000Y991000D02*
D03*
X692000Y1172000D02*
D03*
Y1082000D02*
D03*
X652000Y1142000D02*
D03*
X682000D02*
D03*
Y1112000D02*
D03*
X652000D02*
D03*
X642000Y896000D02*
D03*
Y986000D02*
D03*
X682000Y926000D02*
D03*
X652000D02*
D03*
Y956000D02*
D03*
X682000D02*
D03*
X551000Y564000D02*
D03*
X648500Y485750D02*
D03*
X1169000Y1235000D02*
D03*
X772500Y1182500D02*
D03*
X1210000Y818000D02*
D03*
X664000Y1267000D02*
D03*
X785000Y855000D02*
D03*
X347500Y1148250D02*
D03*
X661250Y396250D02*
D03*
D101*
X530000Y1300000D02*
D03*
X492000Y296000D02*
D03*
X439500Y1300000D02*
D03*
X408000Y296000D02*
D03*
X348000Y1300000D02*
D03*
X500000Y699000D02*
D03*
Y901000D02*
D03*
D102*
X517300Y1235000D02*
D03*
X542700D02*
D03*
X504700Y361000D02*
D03*
X479300D02*
D03*
X426800Y1235000D02*
D03*
X452200D02*
D03*
X420700Y361000D02*
D03*
X395300D02*
D03*
X1199200Y565000D02*
D03*
X1250000D02*
D03*
X1224600D02*
D03*
X1039200D02*
D03*
X1090000D02*
D03*
X1064600D02*
D03*
X879200D02*
D03*
X930000D02*
D03*
X904600D02*
D03*
X714200D02*
D03*
X765000D02*
D03*
X739600D02*
D03*
X335300Y1235000D02*
D03*
X360700D02*
D03*
D103*
X1061000Y420400D02*
D03*
Y369600D02*
D03*
Y395000D02*
D03*
X955000Y420800D02*
D03*
Y370000D02*
D03*
Y395400D02*
D03*
D104*
X1000000Y800000D02*
D03*
X250000D02*
D03*
Y300000D02*
D03*
X750000D02*
D03*
X1250000Y350000D02*
D03*
X1750000Y400000D02*
D03*
Y800000D02*
D03*
Y1200000D02*
D03*
X1250000Y1250000D02*
D03*
X750000Y1300000D02*
D03*
X250000D02*
D03*
D105*
X475000Y533000D02*
D03*
D106*
X1021260Y1192250D02*
D03*
X1022510Y935500D02*
D03*
D107*
X861000Y1166850D02*
D03*
Y1192250D02*
D03*
Y1217650D02*
D03*
X862250Y910100D02*
D03*
Y935500D02*
D03*
Y960900D02*
D03*
D108*
X1566000Y1171650D02*
D03*
Y1179150D02*
D03*
Y1186650D02*
D03*
X1576000D02*
D03*
Y1179150D02*
D03*
Y1171650D02*
D03*
Y1164150D02*
D03*
Y1156650D02*
D03*
X1566000D02*
D03*
Y1164150D02*
D03*
X1556000Y1156650D02*
D03*
Y1164150D02*
D03*
Y1171650D02*
D03*
Y1179150D02*
D03*
Y1186650D02*
D03*
X1486000Y906000D02*
D03*
X1494000Y990000D02*
D03*
X1435000Y999000D02*
D03*
X393000Y338000D02*
D03*
X525000Y367000D02*
D03*
X433000Y1113000D02*
D03*
X468000Y1090000D02*
D03*
X420000Y957000D02*
D03*
X326000Y1167000D02*
D03*
X386000Y1058000D02*
D03*
X439000Y1215000D02*
D03*
X618000Y1246000D02*
D03*
X525000Y1186000D02*
D03*
X849000Y1237000D02*
D03*
X722000Y846000D02*
D03*
X679000Y845000D02*
D03*
X551000Y878000D02*
D03*
X458000Y987000D02*
D03*
X494000Y1210000D02*
D03*
X478000Y1039000D02*
D03*
X1306000Y1255000D02*
D03*
X1752000Y1102000D02*
D03*
X1084000Y867000D02*
D03*
X614000Y454000D02*
D03*
X376000Y996000D02*
D03*
X247000Y1180000D02*
D03*
Y937000D02*
D03*
X407000Y1305000D02*
D03*
X936000Y1294000D02*
D03*
X1083000Y1277000D02*
D03*
X899000Y1008000D02*
D03*
X958000Y1124000D02*
D03*
X921000Y865000D02*
D03*
X1117000Y574000D02*
D03*
X953000Y571000D02*
D03*
X787000Y570000D02*
D03*
X619000Y574000D02*
D03*
X483000Y573000D02*
D03*
X436000Y401000D02*
D03*
X243000Y621000D02*
D03*
X242000Y469000D02*
D03*
X380000Y294000D02*
D03*
X528000Y295000D02*
D03*
X627000Y294000D02*
D03*
X904000Y300000D02*
D03*
X1020000Y314000D02*
D03*
X1124000Y324000D02*
D03*
X1181000Y327000D02*
D03*
X1343000Y340000D02*
D03*
X1755000Y649000D02*
D03*
Y520000D02*
D03*
X1589000Y372000D02*
D03*
X1450000Y356000D02*
D03*
X1451000Y438000D02*
D03*
X1470000Y547000D02*
D03*
X1472000Y654000D02*
D03*
X1597000Y758000D02*
D03*
X1472000Y757000D02*
D03*
D109*
X419000Y694000D02*
D03*
Y702000D02*
D03*
X332000Y643000D02*
D03*
X371250Y566250D02*
D03*
X330000Y570000D02*
D03*
X346000Y643000D02*
D03*
X323250Y684750D02*
D03*
X332000Y691000D02*
D03*
X407750Y702000D02*
D03*
D110*
X1614000Y1196000D02*
D03*
X1573000Y1097000D02*
D03*
X1462000Y1009000D02*
D03*
X793250Y1240000D02*
D03*
X780250Y1215000D02*
D03*
X802500Y1233500D02*
D03*
X803500Y1295250D02*
D03*
X820750D02*
D03*
X872250Y818500D02*
D03*
X309250Y625750D02*
D03*
X1554000Y1212000D02*
D03*
X1623000Y1165000D02*
D03*
X1399000Y957500D02*
D03*
X1387000D02*
D03*
X1589000Y1214000D02*
D03*
X1519558Y1181442D02*
D03*
X1407000Y1213000D02*
D03*
X904000Y855250D02*
D03*
X815500Y1233000D02*
D03*
X1639000Y1149000D02*
D03*
X1408516Y1167362D02*
D03*
X1545250Y1048500D02*
D03*
X1652000Y1138000D02*
D03*
D111*
X264000Y1146000D02*
D03*
X255000Y1132000D02*
D03*
X536000Y1062000D02*
D03*
X1456000Y962000D02*
D03*
X1471000D02*
D03*
X1412000Y941000D02*
D03*
X1480000Y953000D02*
D03*
X1456000Y944000D02*
D03*
X1558000Y1075000D02*
D03*
Y1091000D02*
D03*
Y1115000D02*
D03*
X1593000D02*
D03*
X413750Y899750D02*
D03*
X300000Y847000D02*
D03*
X418750Y1060000D02*
D03*
X272750Y1056250D02*
D03*
X358250Y1106500D02*
D03*
X388250D02*
D03*
X418750Y1156250D02*
D03*
X459250Y677250D02*
D03*
X502250Y796000D02*
D03*
X585000Y785750D02*
D03*
X609500D02*
D03*
X705750Y770250D02*
D03*
X692750Y757500D02*
D03*
X678500Y770250D02*
D03*
X597000Y812250D02*
D03*
X886250Y810750D02*
D03*
X886250Y823000D02*
D03*
X888250Y762500D02*
D03*
X864000D02*
D03*
X552750Y661750D02*
D03*
X599750Y357750D02*
D03*
X591250Y1319000D02*
D03*
X563500Y1167500D02*
D03*
X796000Y1196000D02*
D03*
X1391000Y1145000D02*
D03*
X1493000Y1130000D02*
D03*
X1545000Y1091000D02*
D03*
Y1075000D02*
D03*
X1536000Y1083000D02*
D03*
X671250Y716750D02*
D03*
X746000Y681000D02*
D03*
X911000Y680250D02*
D03*
X1074750Y680500D02*
D03*
X1229750Y681250D02*
D03*
X660000Y682000D02*
D03*
X840000Y654500D02*
D03*
X1002750D02*
D03*
X1163250D02*
D03*
X1054250Y654000D02*
D03*
X1214750Y653500D02*
D03*
X893250Y654500D02*
D03*
X728250Y655250D02*
D03*
X698950Y716750D02*
D03*
X726650D02*
D03*
X754350D02*
D03*
X837450D02*
D03*
X865150D02*
D03*
X892850D02*
D03*
X920550D02*
D03*
X1003650D02*
D03*
X1031350D02*
D03*
X1059050D02*
D03*
X1086750D02*
D03*
X1169850D02*
D03*
X1197550D02*
D03*
X1225250D02*
D03*
X782050D02*
D03*
X809750D02*
D03*
X948250D02*
D03*
X975950D02*
D03*
X1114450D02*
D03*
X1142150D02*
D03*
X726000Y425750D02*
D03*
X727250Y448000D02*
D03*
X746750Y469500D02*
D03*
X784500Y433000D02*
D03*
X829788Y469500D02*
D03*
X871308D02*
D03*
X912827D02*
D03*
X954346D02*
D03*
X995865D02*
D03*
X1037384D02*
D03*
X1078904D02*
D03*
X1120423D02*
D03*
X1161942D02*
D03*
X1203461D02*
D03*
X1244981D02*
D03*
X1008000Y436000D02*
D03*
X851000Y455000D02*
D03*
X850750Y432750D02*
D03*
X312000Y322500D02*
D03*
X874750Y1146500D02*
D03*
X858250Y1147000D02*
D03*
X841750Y1147250D02*
D03*
X721750Y923000D02*
D03*
X699250D02*
D03*
X690750Y901500D02*
D03*
X698500Y880750D02*
D03*
X722500Y880250D02*
D03*
X874500Y888000D02*
D03*
X856500D02*
D03*
X839000Y887750D02*
D03*
X890000Y1220000D02*
D03*
X910000D02*
D03*
Y1200000D02*
D03*
Y1180000D02*
D03*
Y1160000D02*
D03*
X930000Y1210000D02*
D03*
Y1190000D02*
D03*
Y1170000D02*
D03*
X950000Y1220000D02*
D03*
Y1200000D02*
D03*
Y1180000D02*
D03*
Y1160000D02*
D03*
X930000Y1230000D02*
D03*
X931000Y972000D02*
D03*
X951000Y902000D02*
D03*
Y922000D02*
D03*
Y942000D02*
D03*
Y962000D02*
D03*
X931000Y912000D02*
D03*
Y932000D02*
D03*
Y952000D02*
D03*
X911000Y902000D02*
D03*
Y922000D02*
D03*
Y942000D02*
D03*
Y962000D02*
D03*
X891000D02*
D03*
X1304000Y638000D02*
D03*
X1303000Y656000D02*
D03*
X1336000Y638000D02*
D03*
Y655000D02*
D03*
X1335000Y689000D02*
D03*
X1319000D02*
D03*
Y672000D02*
D03*
Y656000D02*
D03*
X1255000Y717000D02*
D03*
X1284000D02*
D03*
X1412250Y973500D02*
D03*
X1422250D02*
D03*
X1422000Y941250D02*
D03*
X1508000Y953000D02*
D03*
X1523000D02*
D03*
Y968000D02*
D03*
X1538000Y983000D02*
D03*
Y968000D02*
D03*
Y953000D02*
D03*
X1553000D02*
D03*
Y968000D02*
D03*
Y983000D02*
D03*
Y998000D02*
D03*
X1589000Y910000D02*
D03*
Y925000D02*
D03*
Y940000D02*
D03*
Y955000D02*
D03*
Y970000D02*
D03*
Y985000D02*
D03*
X1634000Y1030000D02*
D03*
X1649000D02*
D03*
X1664000D02*
D03*
X1679000D02*
D03*
X1694000D02*
D03*
X1709000D02*
D03*
X1724000D02*
D03*
X1739000D02*
D03*
X1754000D02*
D03*
X1604000Y1000000D02*
D03*
Y985000D02*
D03*
Y970000D02*
D03*
Y955000D02*
D03*
Y940000D02*
D03*
Y925000D02*
D03*
Y910000D02*
D03*
X1409000Y1152000D02*
D03*
X1388000Y1173000D02*
D03*
Y1204000D02*
D03*
Y1235000D02*
D03*
X1431000Y1131000D02*
D03*
X1458000Y1130000D02*
D03*
X1528000D02*
D03*
X1663000Y1115000D02*
D03*
X1688000Y1135000D02*
D03*
Y1165000D02*
D03*
Y1183000D02*
D03*
X1666000Y1207000D02*
D03*
X1628000Y1240000D02*
D03*
X1598000D02*
D03*
X1563000D02*
D03*
X1528000D02*
D03*
X1493000D02*
D03*
X1458000D02*
D03*
X1423000D02*
D03*
X1668000Y1150000D02*
D03*
X1473000Y1225000D02*
D03*
X1528000D02*
D03*
X1589000Y1000000D02*
D03*
X1538000Y998000D02*
D03*
X1523000Y983000D02*
D03*
X1604000Y1030000D02*
D03*
Y1015000D02*
D03*
X1628000Y1115000D02*
D03*
X1508000Y968000D02*
D03*
Y983000D02*
D03*
X1523000Y998000D02*
D03*
X1508000D02*
D03*
X1619000Y1030000D02*
D03*
X1589000Y1015000D02*
D03*
X1471000Y944000D02*
D03*
X1436000Y1142326D02*
D03*
X452250Y1118500D02*
D03*
X440000Y1149500D02*
D03*
X464000D02*
D03*
X442750Y1054000D02*
D03*
X556500Y1060750D02*
D03*
X556250Y975250D02*
D03*
X514500Y972250D02*
D03*
X467500Y953500D02*
D03*
X468000Y927250D02*
D03*
X550250Y824000D02*
D03*
D112*
X1129000Y1040000D02*
D03*
Y1010000D02*
D03*
Y980000D02*
D03*
Y950000D02*
D03*
X1154000Y1025000D02*
D03*
Y995000D02*
D03*
Y965000D02*
D03*
X1179000Y1040000D02*
D03*
Y1010000D02*
D03*
Y980000D02*
D03*
Y950000D02*
D03*
X1156000Y757000D02*
D03*
X1132000Y863000D02*
D03*
Y833000D02*
D03*
Y803000D02*
D03*
Y773000D02*
D03*
X1157000Y878000D02*
D03*
Y848000D02*
D03*
Y818000D02*
D03*
Y788000D02*
D03*
X1182000Y773000D02*
D03*
Y803000D02*
D03*
Y833000D02*
D03*
Y863000D02*
D03*
X445000Y880000D02*
D03*
Y855000D02*
D03*
Y830000D02*
D03*
Y805000D02*
D03*
Y780000D02*
D03*
Y755000D02*
D03*
Y730000D02*
D03*
X570000Y845000D02*
D03*
Y870000D02*
D03*
Y895000D02*
D03*
X545000D02*
D03*
X520000D02*
D03*
X498250Y753750D02*
D03*
Y844500D02*
D03*
X493500Y809750D02*
D03*
M02*
