G04 Layer_Color=8421504*
%FSLAX44Y44*%
%MOMM*%
G71*
G01*
G75*
%ADD10R,1.3000X1.9000*%
%ADD11R,1.9000X1.3000*%
%ADD12R,1.0000X1.0000*%
%ADD13R,1.5000X1.0000*%
%ADD14R,6.0000X3.0000*%
%ADD15R,3.0000X6.0000*%
%ADD16R,1.0000X1.0000*%
%ADD17R,1.0000X1.5000*%
%ADD18R,2.8000X2.2000*%
%ADD19R,1.0160X1.4224*%
%ADD20R,0.8128X1.6002*%
%ADD21R,2.2000X2.8000*%
%ADD22R,13.0000X4.5000*%
%ADD23R,2.9000X1.1000*%
%ADD24R,6.2000X5.7000*%
%ADD25R,1.4224X1.0160*%
%ADD26R,0.8000X1.0000*%
%ADD27R,1.1176X1.0160*%
%ADD28R,1.0160X1.1176*%
%ADD29R,1.4224X3.0734*%
%ADD30R,1.1176X0.6604*%
%ADD31R,1.9000X0.4200*%
%ADD32R,3.0000X4.2000*%
%ADD33R,0.4400X1.5500*%
%ADD34R,0.6604X1.1176*%
%ADD35R,3.0734X1.4224*%
%ADD38C,0.4000*%
D10*
X467500Y880000D02*
D03*
X502500D02*
D03*
X1335250Y671500D02*
D03*
X1370250D02*
D03*
X1311500Y711000D02*
D03*
X1346500D02*
D03*
X264500Y1132000D02*
D03*
X299500D02*
D03*
D11*
X1114000Y921500D02*
D03*
Y886500D02*
D03*
X1145000Y921500D02*
D03*
Y886500D02*
D03*
X407750Y695250D02*
D03*
Y660250D02*
D03*
X1362000Y923500D02*
D03*
Y888500D02*
D03*
X1216000Y922500D02*
D03*
Y887500D02*
D03*
X1362000Y995500D02*
D03*
Y1030500D02*
D03*
D12*
X339000Y625500D02*
D03*
Y642500D02*
D03*
X1168000Y909500D02*
D03*
Y892500D02*
D03*
X1390000Y1015500D02*
D03*
Y998500D02*
D03*
X1664000Y1178500D02*
D03*
Y1161500D02*
D03*
X812250Y1278250D02*
D03*
Y1295250D02*
D03*
X1500000Y1222500D02*
D03*
Y1205500D02*
D03*
X1485000D02*
D03*
Y1222500D02*
D03*
X1493000Y1175000D02*
D03*
Y1158000D02*
D03*
X876250Y762500D02*
D03*
Y779500D02*
D03*
X597250Y802750D02*
D03*
Y785750D02*
D03*
X452000Y1150000D02*
D03*
Y1133000D02*
D03*
D13*
X332000Y663750D02*
D03*
Y684750D02*
D03*
X993250Y554750D02*
D03*
Y575750D02*
D03*
X1157250Y555250D02*
D03*
Y576250D02*
D03*
X828500Y554000D02*
D03*
Y575000D02*
D03*
X1235000Y429500D02*
D03*
Y450500D02*
D03*
X895000Y397000D02*
D03*
Y418000D02*
D03*
X1190000Y893500D02*
D03*
Y914500D02*
D03*
X1320000Y616500D02*
D03*
Y637500D02*
D03*
D14*
X1190000Y680750D02*
D03*
X1278000D02*
D03*
X1030500D02*
D03*
X1118500D02*
D03*
X867500D02*
D03*
X955500D02*
D03*
X703750D02*
D03*
X791750D02*
D03*
D15*
X1155000Y429000D02*
D03*
Y341000D02*
D03*
X826500Y429000D02*
D03*
Y341000D02*
D03*
X1286000Y946000D02*
D03*
Y858000D02*
D03*
X1287000Y1028000D02*
D03*
Y1116000D02*
D03*
X305000Y899000D02*
D03*
Y1015000D02*
D03*
D16*
X825250Y1196250D02*
D03*
X808250D02*
D03*
X1603500Y1214000D02*
D03*
X1620500D02*
D03*
X485000Y940500D02*
D03*
X468000D02*
D03*
X1461500Y1157000D02*
D03*
X1478500D02*
D03*
X881500Y862000D02*
D03*
X864500D02*
D03*
D17*
X293750Y1067750D02*
D03*
X272750D02*
D03*
D18*
X406000Y595000D02*
D03*
X456000D02*
D03*
X373250Y1106500D02*
D03*
X323250D02*
D03*
D19*
X339500Y604676D02*
D03*
X349152Y582500D02*
D03*
X330000D02*
D03*
X524000Y1009926D02*
D03*
X533652Y987750D02*
D03*
X514500D02*
D03*
X728250Y791676D02*
D03*
X737902Y769500D02*
D03*
X718750D02*
D03*
X452250Y1091926D02*
D03*
X461902Y1069750D02*
D03*
X442750D02*
D03*
X576000Y639574D02*
D03*
X566348Y661750D02*
D03*
X585500D02*
D03*
D20*
X1646000Y1178982D02*
D03*
Y1213000D02*
D03*
D21*
X803000Y1070000D02*
D03*
Y1120000D02*
D03*
Y982000D02*
D03*
Y932000D02*
D03*
D22*
X1665000Y1049000D02*
D03*
Y879000D02*
D03*
D23*
X1462000Y998360D02*
D03*
Y952640D02*
D03*
X1551000Y1037000D02*
D03*
Y1082720D02*
D03*
D24*
X1533000Y975500D02*
D03*
X1480000Y1059860D02*
D03*
D25*
X503074Y1158250D02*
D03*
X525250Y1167902D02*
D03*
Y1148750D02*
D03*
D26*
X400500Y936500D02*
D03*
X413500D02*
D03*
X407000Y952500D02*
D03*
D27*
X371000Y634136D02*
D03*
Y617000D02*
D03*
X371250Y593386D02*
D03*
Y576250D02*
D03*
X1407000Y1180364D02*
D03*
Y1197500D02*
D03*
X1436000Y1167364D02*
D03*
Y1184500D02*
D03*
X556500Y1047136D02*
D03*
Y1030000D02*
D03*
X1516000Y1205364D02*
D03*
Y1222500D02*
D03*
X1436000Y1204364D02*
D03*
Y1221500D02*
D03*
X556250Y1006136D02*
D03*
Y989000D02*
D03*
X546250Y1167136D02*
D03*
Y1150000D02*
D03*
X591500Y1289364D02*
D03*
Y1306500D02*
D03*
X692750Y826136D02*
D03*
Y809000D02*
D03*
Y787386D02*
D03*
Y770250D02*
D03*
X418750Y1128886D02*
D03*
Y1111750D02*
D03*
X418750Y1089386D02*
D03*
Y1072250D02*
D03*
Y1186886D02*
D03*
Y1169750D02*
D03*
D28*
X349136Y322500D02*
D03*
X332000D02*
D03*
X1478636Y1174000D02*
D03*
X1461500D02*
D03*
X567364Y685750D02*
D03*
X584500D02*
D03*
X569364Y357750D02*
D03*
X586500D02*
D03*
X396864Y913250D02*
D03*
X414000D02*
D03*
D29*
X1377372Y525000D02*
D03*
X1330250D02*
D03*
X1377372Y580250D02*
D03*
X1330250D02*
D03*
X573128Y531250D02*
D03*
X620250D02*
D03*
X573378Y484500D02*
D03*
X620500D02*
D03*
X1416622Y957000D02*
D03*
X1369500D02*
D03*
X572128Y426500D02*
D03*
X619250D02*
D03*
D30*
X376000Y666750D02*
D03*
X353824D02*
D03*
X376000Y676250D02*
D03*
Y685902D02*
D03*
X353824D02*
D03*
D31*
X1536000Y1201000D02*
D03*
Y1194396D02*
D03*
Y1187792D02*
D03*
Y1181442D02*
D03*
Y1174838D02*
D03*
Y1168488D02*
D03*
Y1161884D02*
D03*
Y1155280D02*
D03*
Y1148930D02*
D03*
Y1142326D02*
D03*
X1596000Y1142326D02*
D03*
Y1148930D02*
D03*
Y1155280D02*
D03*
Y1161884D02*
D03*
Y1168488D02*
D03*
Y1174838D02*
D03*
Y1181442D02*
D03*
Y1187792D02*
D03*
Y1194396D02*
D03*
Y1201000D02*
D03*
D32*
X1566000Y1171650D02*
D03*
D33*
X822000Y1260250D02*
D03*
X815500D02*
D03*
X809000D02*
D03*
X802500D02*
D03*
X796000D02*
D03*
X789500D02*
D03*
X822000Y1213750D02*
D03*
X815500D02*
D03*
X809000D02*
D03*
X802500D02*
D03*
X796000D02*
D03*
X789500D02*
D03*
X866750Y795500D02*
D03*
X873250D02*
D03*
X879750D02*
D03*
X886250D02*
D03*
X892750D02*
D03*
X899250D02*
D03*
X866750Y842000D02*
D03*
X873250D02*
D03*
X879750D02*
D03*
X886250D02*
D03*
X892750D02*
D03*
X899250D02*
D03*
D34*
X292000Y1111500D02*
D03*
Y1089324D02*
D03*
X282500Y1111500D02*
D03*
X272848D02*
D03*
Y1089324D02*
D03*
D35*
X1409250Y513622D02*
D03*
Y466500D02*
D03*
D38*
X1790000Y360000D02*
Y1240000D01*
X800000Y1340000D02*
X1790000Y1240000D01*
X210000Y1340000D02*
X800000D01*
Y260000D02*
X1790000Y360000D01*
X210000Y260000D02*
X800000D01*
X210000D02*
Y1340000D01*
M02*
