  0
SECTION
  2
HEADER
  9
$ACADVER
  1
AC1015
  9
$ACADMAINTVER
 70
     6
  9
$DWGCODEPAGE
  3
ANSI_1252
  9
$INSBASE
 10
0.0
 20
0.0
 30
0.0
  9
$EXTMIN
 10
-114.7732851031
 20
-3.3826405544
 30
0.0
  9
$EXTMAX
 10
-46.6518085837
 20
4.0195369965
 30
0.0
  9
$LIMMIN
 10
0.0
 20
0.0
  9
$LIMMAX
 10
420.0
 20
297.0
  9
$ORTHOMODE
 70
     0
  9
$REGENMODE
 70
     1
  9
$FILLMODE
 70
     1
  9
$QTEXTMODE
 70
     0
  9
$MIRRTEXT
 70
     1
  9
$LTSCALE
 40
1.0
  9
$ATTMODE
 70
     1
  9
$TEXTSIZE
 40
3.5
  9
$TRACEWID
 40
1.0
  9
$TEXTSTYLE
  7
Standard
  9
$CLAYER
  8
0
  9
$CELTYPE
  6
ByLayer
  9
$CECOLOR
 62
   256
  9
$CELTSCALE
 40
1.0
  9
$DISPSILH
 70
     0
  9
$DIMSCALE
 40
1.0
  9
$DIMASZ
 40
3.302
  9
$DIMEXO
 40
1.0
  9
$DIMDLI
 40
3.75
  9
$DIMRND
 40
0.0
  9
$DIMDLE
 40
0.0
  9
$DIMEXE
 40
1.0
  9
$DIMTP
 40
0.0
  9
$DIMTM
 40
0.0
  9
$DIMTXT
 40
3.5
  9
$DIMCEN
 40
2.5
  9
$DIMTSZ
 40
0.0
  9
$DIMTOL
 70
     0
  9
$DIMLIM
 70
     0
  9
$DIMTIH
 70
     1
  9
$DIMTOH
 70
     1
  9
$DIMSE1
 70
     0
  9
$DIMSE2
 70
     0
  9
$DIMTAD
 70
     1
  9
$DIMZIN
 70
     0
  9
$DIMBLK
  1

  9
$DIMASO
 70
     1
  9
$DIMSHO
 70
     1
  9
$DIMPOST
  1

  9
$DIMAPOST
  1

  9
$DIMALT
 70
     0
  9
$DIMALTD
 70
     3
  9
$DIMALTF
 40
0.0393700787
  9
$DIMLFAC
 40
1.0
  9
$DIMTOFL
 70
     1
  9
$DIMTVP
 40
0.0
  9
$DIMTIX
 70
     0
  9
$DIMSOXD
 70
     0
  9
$DIMSAH
 70
     0
  9
$DIMBLK1
  1

  9
$DIMBLK2
  1

  9
$DIMSTYLE
  2
ISO-25
  9
$DIMCLRD
 70
     0
  9
$DIMCLRE
 70
     0
  9
$DIMCLRT
 70
     0
  9
$DIMTFAC
 40
1.0
  9
$DIMGAP
 40
1.524
  9
$DIMJUST
 70
     0
  9
$DIMSD1
 70
     0
  9
$DIMSD2
 70
     0
  9
$DIMTOLJ
 70
     0
  9
$DIMTZIN
 70
     0
  9
$DIMALTZ
 70
     0
  9
$DIMALTTZ
 70
     0
  9
$DIMUPT
 70
     0
  9
$DIMDEC
 70
     2
  9
$DIMTDEC
 70
     2
  9
$DIMALTU
 70
     2
  9
$DIMALTTD
 70
     3
  9
$DIMTXSTY
  7
Standard
  9
$DIMAUNIT
 70
     0
  9
$DIMADEC
 70
     2
  9
$DIMALTRND
 40
0.0
  9
$DIMAZIN
 70
     0
  9
$DIMDSEP
 70
    44
  9
$DIMATFIT
 70
     3
  9
$DIMFRAC
 70
     0
  9
$DIMLDRBLK
  1

  9
$DIMLUNIT
 70
     2
  9
$DIMLWD
 70
    -2
  9
$DIMLWE
 70
    -2
  9
$DIMTMOVE
 70
     0
  9
$LUNITS
 70
     2
  9
$LUPREC
 70
     2
  9
$SKETCHINC
 40
1.0
  9
$FILLETRAD
 40
10.0
  9
$AUNITS
 70
     0
  9
$AUPREC
 70
     2
  9
$MENU
  1
.
  9
$ELEVATION
 40
0.0
  9
$PELEVATION
 40
0.0
  9
$THICKNESS
 40
0.0
  9
$LIMCHECK
 70
     0
  9
$CHAMFERA
 40
0.0
  9
$CHAMFERB
 40
0.0
  9
$CHAMFERC
 40
0.0
  9
$CHAMFERD
 40
0.0
  9
$SKPOLY
 70
     0
  9
$TDCREATE
 40
2457856.661013843
  9
$TDUCREATE
 40
2457856.577680509
  9
$TDUPDATE
 40
2457856.66103794
  9
$TDUUPDATE
 40
2457856.577704607
  9
$TDINDWG
 40
0.0000000116
  9
$TDUSRTIMER
 40
0.0000000116
  9
$USRTIMER
 70
     1
  9
$ANGBASE
 50
0.0
  9
$ANGDIR
 70
     0
  9
$PDMODE
 70
     0
  9
$PDSIZE
 40
-1.0
  9
$PLINEWID
 40
0.0
  9
$SPLFRAME
 70
     0
  9
$SPLINETYPE
 70
     6
  9
$SPLINESEGS
 70
     8
  9
$HANDSEED
  5
77
  9
$SURFTAB1
 70
     6
  9
$SURFTAB2
 70
     6
  9
$SURFTYPE
 70
     6
  9
$SURFU
 70
     6
  9
$SURFV
 70
     6
  9
$UCSBASE
  2

  9
$UCSNAME
  2

  9
$UCSORG
 10
0.0
 20
0.0
 30
0.0
  9
$UCSXDIR
 10
1.0
 20
0.0
 30
0.0
  9
$UCSYDIR
 10
0.0
 20
1.0
 30
0.0
  9
$UCSORTHOREF
  2

  9
$UCSORTHOVIEW
 70
     0
  9
$UCSORGTOP
 10
0.0
 20
0.0
 30
0.0
  9
$UCSORGBOTTOM
 10
0.0
 20
0.0
 30
0.0
  9
$UCSORGLEFT
 10
0.0
 20
0.0
 30
0.0
  9
$UCSORGRIGHT
 10
0.0
 20
0.0
 30
0.0
  9
$UCSORGFRONT
 10
0.0
 20
0.0
 30
0.0
  9
$UCSORGBACK
 10
0.0
 20
0.0
 30
0.0
  9
$PUCSBASE
  2

  9
$PUCSNAME
  2

  9
$PUCSORG
 10
0.0
 20
0.0
 30
0.0
  9
$PUCSXDIR
 10
1.0
 20
0.0
 30
0.0
  9
$PUCSYDIR
 10
0.0
 20
1.0
 30
0.0
  9
$PUCSORTHOREF
  2

  9
$PUCSORTHOVIEW
 70
     0
  9
$PUCSORGTOP
 10
0.0
 20
0.0
 30
0.0
  9
$PUCSORGBOTTOM
 10
0.0
 20
0.0
 30
0.0
  9
$PUCSORGLEFT
 10
0.0
 20
0.0
 30
0.0
  9
$PUCSORGRIGHT
 10
0.0
 20
0.0
 30
0.0
  9
$PUCSORGFRONT
 10
0.0
 20
0.0
 30
0.0
  9
$PUCSORGBACK
 10
0.0
 20
0.0
 30
0.0
  9
$USERI1
 70
     0
  9
$USERI2
 70
     0
  9
$USERI3
 70
     0
  9
$USERI4
 70
     0
  9
$USERI5
 70
     0
  9
$USERR1
 40
0.0
  9
$USERR2
 40
0.0
  9
$USERR3
 40
0.0
  9
$USERR4
 40
0.0
  9
$USERR5
 40
0.0
  9
$WORLDVIEW
 70
     1
  9
$SHADEDGE
 70
     3
  9
$SHADEDIF
 70
    70
  9
$TILEMODE
 70
     1
  9
$MAXACTVP
 70
    64
  9
$PINSBASE
 10
0.0
 20
0.0
 30
0.0
  9
$PLIMCHECK
 70
     0
  9
$PEXTMIN
 10
1.0000000000E+20
 20
1.0000000000E+20
 30
1.0000000000E+20
  9
$PEXTMAX
 10
-1.0000000000E+20
 20
-1.0000000000E+20
 30
-1.0000000000E+20
  9
$PLIMMIN
 10
0.0
 20
0.0
  9
$PLIMMAX
 10
420.0
 20
297.0
  9
$UNITMODE
 70
     0
  9
$VISRETAIN
 70
     1
  9
$PLINEGEN
 70
     0
  9
$PSLTSCALE
 70
     1
  9
$TREEDEPTH
 70
  3020
  9
$CMLSTYLE
  2
Standard
  9
$CMLJUST
 70
     0
  9
$CMLSCALE
 40
20.0
  9
$PROXYGRAPHICS
 70
     1
  9
$MEASUREMENT
 70
     1
  9
$CELWEIGHT
370
    -1
  9
$ENDCAPS
280
     0
  9
$JOINSTYLE
280
     0
  9
$LWDISPLAY
290
     1
  9
$INSUNITS
 70
     4
  9
$HYPERLINKBASE
  1

  9
$STYLESHEET
  1

  9
$XEDIT
290
     1
  9
$CEPSNTYPE
380
     0
  9
$PSTYLEMODE
290
     1
  9
$FINGERPRINTGUID
  2
{D7C89F20-01EF-42F0-956A-9A036E8447B9}
  9
$VERSIONGUID
  2
{FAEB1C32-E019-11D5-929B-00C0DF256EC4}
  9
$EXTNAMES
290
     1
  9
$PSVPSCALE
 40
0.0
  9
$OLESTARTUP
290
     0
  0
ENDSEC
  0
SECTION
  2
CLASSES
  0
CLASS
  1
ACDBDICTIONARYWDFLT
  2
AcDbDictionaryWithDefault
  3
ObjectDBX Classes
 90
        0
280
     0
281
     0
  0
CLASS
  1
VISUALSTYLE
  2
AcDbVisualStyle
  3
ObjectDBX Classes
 90
     4095
280
     0
281
     0
  0
CLASS
  1
MATERIAL
  2
AcDbMaterial
  3
ObjectDBX Classes
 90
     1153
280
     0
281
     0
  0
CLASS
  1
SCALE
  2
AcDbScale
  3
ObjectDBX Classes
 90
     1153
280
     0
281
     0
  0
CLASS
  1
TABLESTYLE
  2
AcDbTableStyle
  3
ObjectDBX Classes
 90
     4095
280
     0
281
     0
  0
CLASS
  1
MLEADERSTYLE
  2
AcDbMLeaderStyle
  3
ACDB_MLEADERSTYLE_CLASS
 90
     4095
280
     0
281
     0
  0
CLASS
  1
SUN
  2
AcDbSun
  3
SCENEOE
 90
     1153
280
     0
281
     0
  0
CLASS
  1
ACDBPLACEHOLDER
  2
AcDbPlaceHolder
  3
ObjectDBX Classes
 90
        0
280
     0
281
     0
  0
CLASS
  1
LAYOUT
  2
AcDbLayout
  3
ObjectDBX Classes
 90
        0
280
     0
281
     0
  0
ENDSEC
  0
SECTION
  2
TABLES
  0
TABLE
  2
VPORT
  5
8
330
0
100
AcDbSymbolTable
 70
     1
  0
VPORT
  5
29
330
8
100
AcDbSymbolTableRecord
100
AcDbViewportTableRecord
  2
*Active
 70
     0
 10
0.0
 20
0.0
 11
1.0
 21
1.0
 12
-80.7125468434
 22
0.3184482211
 13
0.0
 23
0.0
 14
10.0
 24
10.0
 15
10.0
 25
10.0
 16
0.0
 26
0.0
 36
1.0
 17
0.0
 27
0.0
 37
0.0
 40
7.5502211019
 41
9.2028968572
 42
50.0
 43
0.0
 44
0.0
 50
0.0
 51
0.0
 71
     0
 72
   100
 73
     1
 74
     3
 75
     0
 76
     0
 77
     0
 78
     0
281
     0
 65
     1
110
0.0
120
0.0
130
0.0
111
1.0
121
0.0
131
0.0
112
0.0
122
1.0
132
0.0
 79
     0
146
0.0
  0
ENDTAB
  0
TABLE
  2
LTYPE
  5
5
330
0
100
AcDbSymbolTable
 70
     6
  0
LTYPE
  5
14
330
5
100
AcDbSymbolTableRecord
100
AcDbLinetypeTableRecord
  2
ByBlock
 70
     0
  3

 72
    65
 73
     0
 40
0.0
  0
LTYPE
  5
15
330
5
100
AcDbSymbolTableRecord
100
AcDbLinetypeTableRecord
  2
ByLayer
 70
     0
  3

 72
    65
 73
     0
 40
0.0
  0
LTYPE
  5
16
330
5
100
AcDbSymbolTableRecord
100
AcDbLinetypeTableRecord
  2
Continuous
 70
     0
  3
Solid line
 72
    65
 73
     0
 40
0.0
  0
LTYPE
  5
6E
330
5
100
AcDbSymbolTableRecord
100
AcDbLinetypeTableRecord
  2
HIDDEN
 70
     0
  3
Hidden __ __ __ __ __ __ __ __ __ __ __ __ __ __
 72
    65
 73
     2
 40
1.905
 49
1.27
 74
     0
 49
-0.635
 74
     0
  0
LTYPE
  5
6F
330
5
100
AcDbSymbolTableRecord
100
AcDbLinetypeTableRecord
  2
PHANTOM
 70
     0
  3
Phantom ______  __  __  ______  __  __  ______
 72
    65
 73
     6
 40
12.7
 49
6.35
 74
     0
 49
-1.27
 74
     0
 49
1.27
 74
     0
 49
-1.27
 74
     0
 49
1.27
 74
     0
 49
-1.27
 74
     0
  0
LTYPE
  5
70
330
5
100
AcDbSymbolTableRecord
100
AcDbLinetypeTableRecord
  2
CENTER
 70
     0
  3
Center ____ _ ____ _ ____ _ ____ _ ____ _ ____
 72
    65
 73
     4
 40
10.16
 49
6.35
 74
     0
 49
-1.27
 74
     0
 49
1.27
 74
     0
 49
-1.27
 74
     0
  0
LTYPE
  5
71
330
5
100
AcDbSymbolTableRecord
100
AcDbLinetypeTableRecord
  2
CENTERX2
 70
     0
  3
Center (2x) ________  __  ________  __  _____
 72
    65
 73
     4
 40
20.32
 49
12.7
 74
     0
 49
-2.54
 74
     0
 49
2.54
 74
     0
 49
-2.54
 74
     0
  0
LTYPE
  5
72
330
5
100
AcDbSymbolTableRecord
100
AcDbLinetypeTableRecord
  2
DOT2
 70
     0
  3
Dot (.5x) ........................................
 72
    65
 73
     2
 40
0.635
 49
0.0
 74
     0
 49
-0.635
 74
     0
  0
ENDTAB
  0
TABLE
  2
LAYER
  5
2
330
0
100
AcDbSymbolTable
 70
     1
  0
LAYER
  5
10
330
2
100
AcDbSymbolTableRecord
100
AcDbLayerTableRecord
  2
0
 70
     0
 62
     7
  6
Continuous
370
    -3
390
F
  0
ENDTAB
  0
TABLE
  2
STYLE
  5
3
330
0
100
AcDbSymbolTable
 70
     2
  0
STYLE
  5
11
330
3
100
AcDbSymbolTableRecord
100
AcDbTextStyleTableRecord
  2
Standard
 70
     0
 40
0.0
 41
1.0
 50
0.0
 71
     0
 42
3.5
  3
txt
  4

  0
STYLE
  5
74
330
3
100
AcDbSymbolTableRecord
100
AcDbTextStyleTableRecord
  2
SLDTEXTSTYLE0
 70
     0
 40
0.0
 41
0.7
 50
0.0
 71
     0
 42
3.5
  3
TXT
  4

  0
ENDTAB
  0
TABLE
  2
VIEW
  5
6
330
0
100
AcDbSymbolTable
 70
     0
  0
ENDTAB
  0
TABLE
  2
UCS
  5
7
330
0
100
AcDbSymbolTable
 70
     0
  0
ENDTAB
  0
TABLE
  2
APPID
  5
9
330
0
100
AcDbSymbolTable
 70
     1
  0
APPID
  5
12
330
9
100
AcDbSymbolTableRecord
100
AcDbRegAppTableRecord
  2
ACAD
 70
     0
  0
ENDTAB
  0
TABLE
  2
DIMSTYLE
  5
A
330
0
100
AcDbSymbolTable
 70
     1
100
AcDbDimStyleTable
  0
DIMSTYLE
105
27
330
A
100
AcDbSymbolTableRecord
100
AcDbDimStyleTableRecord
  2
ISO-25
 70
     0
 41
2.5
 42
0.625
 43
3.75
 44
1.25
 73
     0
 74
     0
 77
     1
 78
     8
140
2.5
141
2.5
143
0.0393700787
147
0.625
171
     3
172
     1
178
     0
271
     2
272
     2
274
     3
278
    44
283
     0
284
     8
340
11
  0
ENDTAB
  0
TABLE
  2
BLOCK_RECORD
  5
1
330
0
100
AcDbSymbolTable
 70
     1
  0
BLOCK_RECORD
  5
1F
330
1
100
AcDbSymbolTableRecord
100
AcDbBlockTableRecord
  2
*Model_Space
340
22
  0
BLOCK_RECORD
  5
1B
330
1
100
AcDbSymbolTableRecord
100
AcDbBlockTableRecord
  2
*Paper_Space
340
1E
  0
BLOCK_RECORD
  5
23
330
1
100
AcDbSymbolTableRecord
100
AcDbBlockTableRecord
  2
*Paper_Space0
340
26
  0
ENDTAB
  0
ENDSEC
  0
SECTION
  2
BLOCKS
  0
BLOCK
  5
20
330
1F
100
AcDbEntity
  8
0
100
AcDbBlockBegin
  2
*Model_Space
 70
     0
 10
0.0
 20
0.0
 30
0.0
  3
*Model_Space
  1

  0
ENDBLK
  5
21
330
1F
100
AcDbEntity
  8
0
100
AcDbBlockEnd
  0
BLOCK
  5
1C
330
1B
100
AcDbEntity
 67
     1
  8
0
100
AcDbBlockBegin
  2
*Paper_Space
 70
     0
 10
0.0
 20
0.0
 30
0.0
  3
*Paper_Space
  1

  0
ENDBLK
  5
1D
330
1B
100
AcDbEntity
 67
     1
  8
0
100
AcDbBlockEnd
  0
BLOCK
  5
24
330
23
100
AcDbEntity
  8
0
100
AcDbBlockBegin
  2
*Paper_Space0
 70
     0
 10
0.0
 20
0.0
 30
0.0
  3
*Paper_Space0
  1

  0
ENDBLK
  5
25
330
23
100
AcDbEntity
  8
0
100
AcDbBlockEnd
  0
ENDSEC
  0
SECTION
  2
ENTITIES
  0
SPLINE
  5
73
330
1F
100
AcDbEntity
  8
0
  6
Continuous
 62
     7
370
    15
100
AcDbSpline
210
0.0
220
0.0
230
1.0
 70
    11
 71
     3
 72
   176
 73
   172
 74
     0
 42
0.000000001
 43
0.00000001
 40
0.0
 40
0.0
 40
0.0
 40
0.0
 40
0.0000000452043457
 40
0.0000000452043457
 40
0.0000000452043457
 40
0.0000001155590189
 40
0.0000001155590189
 40
0.0000001155590189
 40
0.000000329538871
 40
0.000000329538871
 40
0.000000329538871
 40
0.0000013071242894
 40
0.0000013071242894
 40
0.0000013071242894
 40
0.0000051842470104
 40
0.0000051842470104
 40
0.0000051842470104
 40
0.0000206640048133
 40
0.0000206640048133
 40
0.0000206640048133
 40
0.0000825554302874
 40
0.0000825554302874
 40
0.0000825554302874
 40
0.0001444383709252
 40
0.0001444383709252
 40
0.0001444383709252
 40
0.0003919760444585
 40
0.0003919760444585
 40
0.0003919760444585
 40
0.0013839687480768
 40
0.0013839687480768
 40
0.0013839687480768
 40
0.005356199641698
 40
0.005356199641698
 40
0.005356199641698
 40
0.0212681294234484
 40
0.0212681294234484
 40
0.0212681294234484
 40
0.0371693520878965
 40
0.0371693520878965
 40
0.0371693520878965
 40
0.0490670993523779
 40
0.0490670993523779
 40
0.0490670993523779
 40
0.060599652005551
 40
0.060599652005551
 40
0.060599652005551
 40
0.0663598325591704
 40
0.0663598325591704
 40
0.0663598325591704
 40
0.0692512174581593
 40
0.0692512174581593
 40
0.0692512174581593
 40
0.0699656615676814
 40
0.0699656615676814
 40
0.0699656615676814
 40
0.0703227003307935
 40
0.0703227003307935
 40
0.0703227003307935
 40
0.0704494554445099
 40
0.0704494554445099
 40
0.0704494554445099
 40
0.070578498510453
 40
0.070578498510453
 40
0.070578498510453
 40
0.0706558247348982
 40
0.0706558247348982
 40
0.0706558247348982
 40
0.070826005033689
 40
0.070826005033689
 40
0.070826005033689
 40
0.0714229388156143
 40
0.0714229388156143
 40
0.0714229388156143
 40
0.0736284028532272
 40
0.0736284028532272
 40
0.0736284028532272
 40
0.0824482151726553
 40
0.0824482151726553
 40
0.0824482151726553
 40
0.0999524252280844
 40
0.0999524252280844
 40
0.0999524252280844
 40
0.1174163863471061
 40
0.1174163863471061
 40
0.1174163863471061
 40
0.129032667639245
 40
0.129032667639245
 40
0.129032667639245
 40
0.1348412494821817
 40
0.1348412494821817
 40
0.1348412494821817
 40
0.1377460030880372
 40
0.1377460030880372
 40
0.1377460030880372
 40
0.1391990303797675
 40
0.1391990303797675
 40
0.1391990303797675
 40
0.1396907021601969
 40
0.1396907021601969
 40
0.1396907021601969
 40
0.1401721646967685
 40
0.1401721646967685
 40
0.1401721646967685
 40
0.140412920816178
 40
0.140412920816178
 40
0.140412920816178
 40
0.1404938750673735
 40
0.1404938750673735
 40
0.1404938750673735
 40
0.1405476069374208
 40
0.1405476069374208
 40
0.1405476069374208
 40
0.1405832570582838
 40
0.1405832570582838
 40
0.1405832570582838
 40
0.1406069112392164
 40
0.1406069112392164
 40
0.1406069112392164
 40
0.1406226094993484
 40
0.1406226094993484
 40
0.1406226094993484
 40
0.1406330315532777
 40
0.1406330315532777
 40
0.1406330315532777
 40
0.1406399543313551
 40
0.1406399543313551
 40
0.1406399543313551
 40
0.1406445559991714
 40
0.1406445559991714
 40
0.1406445559991714
 40
0.1406476177273317
 40
0.1406476177273317
 40
0.1406476177273317
 40
0.1406496575018018
 40
0.1406496575018018
 40
0.1406496575018018
 40
0.1406510188381365
 40
0.1406510188381365
 40
0.1406510188381365
 40
0.1406519295878366
 40
0.1406519295878366
 40
0.1406519295878366
 40
0.1406525409155099
 40
0.1406525409155099
 40
0.1406525409155099
 40
0.1406529531307133
 40
0.1406529531307133
 40
0.1406529531307133
 40
0.1406532328267567
 40
0.1406532328267567
 40
0.1406532328267567
 40
0.1406534242796876
 40
0.1406534242796876
 40
0.1406534242796876
 40
0.1406535569822899
 40
0.1406535569822899
 40
0.1406535569822899
 40
0.1406536881605644
 40
0.1406536881605644
 40
0.1406536881605644
 40
0.1406537563338982
 40
0.1406537563338982
 40
0.1406537563338982
 40
0.1406538060443077
 40
0.1406538060443077
 40
0.1406538060443077
 40
0.1406538425931372
 40
0.1406538425931372
 40
0.1406538425931372
 40
0.1406538693111267
 40
0.1406538693111267
 40
0.1406538693111267
 40
0.1406538693111267
 10
-114.7732851031415
 20
0.0000994088277108
 30
0.0
 10
-114.77328035375
 20
0.0001137088758801
 30
0.0
 10
-114.7732724264081
 20
0.0001270819378932
 30
0.0
 10
-114.773263014314
 20
0.0001388488653938
 30
0.0
 10
-114.7732483736487
 20
0.0001571525124753
 30
0.0
 10
-114.7732299078427
 20
0.0001724483872791
 30
0.0
 10
-114.7732105566245
 20
0.0001856734744093
 30
0.0
 10
-114.7731521764959
 20
0.0002255718557675
 30
0.0
 10
-114.7730841532072
 20
0.0002505764339517
 30
0.0
 10
-114.7730167248175
 20
0.0002718727363819
 30
0.0
 10
-114.7727100095653
 20
0.0003687444071514
 30
0.0
 10
-114.7723844922341
 20
0.0003972330790484
 30
0.0
 10
-114.7720640908433
 20
0.0004255405930098
 30
0.0
 10
-114.7707931075525
 20
0.0005378321694038
 30
0.0
 10
-114.769512796052
 20
0.0005180421757377
 30
0.0
 10
-114.7682369993886
 20
0.0004993125982778
 30
0.0
 10
-114.7631431170015
 20
0.0004245308815086
 30
0.0
 10
-114.7580551156388
 20
0.0000958071301771
 30
0.0
 10
-114.7529711267094
 20
-0.0002302091949952
 30
0.0
 10
-114.7326439162989
 20
-0.0015337136933529
 30
0.0
 10
-114.7123494681213
 20
-0.0033157690560683
 30
0.0
 10
-114.6920563942475
 20
-0.0050724021434297
 30
0.0
 10
-114.6717656465837
 20
-0.0068288338666425
 30
0.0
 10
-114.6514802711107
 20
-0.0086470147046811
 30
0.0
 10
-114.6311953381196
 20
-0.0104693721600961
 30
0.0
 10
-114.5500546997034
 20
-0.0177588834155274
 30
0.0
 10
-114.4688998705949
 20
-0.0249463738258398
 30
0.0
 10
-114.3876635887027
 20
-0.0310788024854047
 30
0.0
 10
-114.062411818765
 20
-0.055631665185196
 30
0.0
 10
-113.7357765555252
 20
-0.058256241271877
 30
0.0
 10
-113.4096209428892
 20
-0.0620076757174168
 30
0.0
 10
-112.1047905944212
 20
-0.0770158047367749
 30
0.0
 10
-110.7992410064156
 20
-0.0112552008009908
 30
0.0
 10
-109.4973699159456
 20
0.0778466848038049
 30
0.0
 10
-104.2876393486039
 20
0.4344079606790501
 30
0.0
 10
-99.1197421834358
 20
1.265756583999227
 30
0.0
 10
-93.9517983667176
 20
2.014612534760845
 30
0.0
 10
-88.78907465501406
 20
2.76271207120325
 30
0.0
 10
-83.60421692188022
 20
3.414023404063279
 30
0.0
 10
-78.39843369477838
 20
3.750460667511551
 30
0.0
 10
-74.50299054495318
 20
4.002213799763108
 30
0.0
 10
-70.59179463294124
 20
4.100131876404236
 30
0.0
 10
-66.69001323518532
 20
3.981984099259437
 30
0.0
 10
-62.912942192934
 20
3.86761261037576
 30
0.0
 10
-59.12024935940362
 20
3.558141926563755
 30
0.0
 10
-55.41231734222488
 20
2.829728135052461
 30
0.0
 10
-53.55776413449975
 20
2.465405885523638
 30
0.0
 10
-51.70687340562124
 20
2.00870463556393
 30
0.0
 10
-49.94745576915708
 20
1.318380159477324
 30
0.0
 10
-49.06489970769125
 20
0.9721007780947142
 30
0.0
 10
-48.18205200938994
 20
0.5718675570833611
 30
0.0
 10
-47.43039913525863
 20
-0.0059149006037502
 30
0.0
 10
-47.2427774874815
 20
-0.1501363896697789
 30
0.0
 10
-47.06366892974938
 20
-0.3091535763380386
 30
0.0
 10
-46.91130391076747
 20
-0.4902243404433244
 30
0.0
 10
-46.83503710949394
 20
-0.580859894947496
 30
0.0
 10
-46.76481502641269
 20
-0.6785262337283832
 30
0.0
 10
-46.71265022127396
 20
-0.7848759484511342
 30
0.0
 10
-46.69400833399945
 20
-0.8228816380777668
 30
0.0
 10
-46.67772387027686
 20
-0.8622625762446886
 30
0.0
 10
-46.66547673492138
 20
-0.9027836828526783
 30
0.0
 10
-46.65311370809348
 20
-0.9436882302060531
 30
0.0
 10
-46.64389618888799
 20
-0.9872351002084881
 30
0.0
 10
-46.64794314469251
 20
-1.029775064656619
 30
0.0
 10
-46.65037706590054
 20
-1.055359461091882
 30
0.0
 10
-46.65940567579015
 20
-1.080517389628716
 30
0.0
 10
-46.67152704033372
 20
-1.103179204097229
 30
0.0
 10
-46.69817789427319
 20
-1.153005005906282
 30
0.0
 10
-46.73720613729615
 20
-1.195914415257312
 30
0.0
 10
-46.7776843073871
 20
-1.235340248003191
 30
0.0
 10
-46.9186726904353
 20
-1.372663264253235
 30
0.0
 10
-47.09110871893211
 20
-1.476197425336755
 30
0.0
 10
-47.2641632711297
 20
-1.569938861800303
 30
0.0
 10
-47.89901668764836
 20
-1.913830833739319
 30
0.0
 10
-48.60800299320712
 20
-2.11049773886221
 30
0.0
 10
-49.30822237589319
 20
-2.286547064167037
 30
0.0
 10
-52.09676084846073
 20
-2.987642076417177
 30
0.0
 10
-55.00169052345827
 20
-3.182624437313828
 30
0.0
 10
-57.87470373769882
 20
-3.297846396985685
 30
0.0
 10
-63.58343226926005
 20
-3.526794487227936
 30
0.0
 10
-69.30642441792713
 20
-3.266817647983202
 30
0.0
 10
-75.01122789195847
 20
-2.955022847246323
 30
0.0
 10
-80.70602913626634
 20
-2.643774716212923
 30
0.0
 10
-86.39612069736461
 20
-2.249392693485388
 30
0.0
 10
-92.0852838087049
 20
-1.848070249798338
 30
0.0
 10
-95.8695243545489
 20
-1.581124016470896
 30
0.0
 10
-99.65319606334558
 20
-1.305983670755102
 30
0.0
 10
-103.4362357835421
 20
-1.0225277205399
 30
0.0
 10
-105.3278991263982
 20
-0.8807889945429525
 30
0.0
 10
-107.2194613064908
 20
-0.7374541150677444
 30
0.0
 10
-109.1102612013285
 20
-0.5846279823747903
 30
0.0
 10
-110.0558081538032
 20
-0.5082030341712094
 30
0.0
 10
-111.0011657481328
 20
-0.4291084808112219
 30
0.0
 10
-111.9458272429879
 20
-0.3424224255302206
 30
0.0
 10
-112.4183544399037
 20
-0.2990613708702117
 30
0.0
 10
-112.8906444873172
 20
-0.2524648926891639
 30
0.0
 10
-113.3620116760138
 20
-0.1979203576145948
 30
0.0
 10
-113.5215215566235
 20
-0.1794625767459022
 30
0.0
 10
-113.6809370445238
 20
-0.1600999710464374
 30
0.0
 10
-113.840099310828
 20
-0.1388522730155392
 30
0.0
 10
-113.9959543150781
 20
-0.1180460848165077
 30
0.0
 10
-114.1514358261285
 20
-0.0945115085799115
 30
0.0
 10
-114.3069341142684
 20
-0.0711885112871406
 30
0.0
 10
-114.3846921426097
 20
-0.0595256800998087
 30
0.0
 10
-114.4624642059247
 20
-0.0479552266743469
 30
0.0
 10
-114.5402613441132
 20
-0.0365561963421685
 30
0.0
 10
-114.5664206782723
 20
-0.0327232655879888
 30
0.0
 10
-114.5925835088228
 20
-0.028914217755101
 30
0.0
 10
-114.6187425319778
 20
-0.0250791650315304
 30
0.0
 10
-114.6361050849732
 20
-0.0225337218871633
 30
0.0
 10
-114.6534660795351
 20
-0.0199774365626205
 30
0.0
 10
-114.6708217792168
 20
-0.0173856773375984
 30
0.0
 10
-114.6823369658275
 20
-0.0156660928971216
 30
0.0
 10
-114.693849924681
 20
-0.0139312971447333
 30
0.0
 10
-114.7053578040888
 20
-0.0121634722491055
 30
0.0
 10
-114.7129933848296
 20
-0.0109905046459811
 30
0.0
 10
-114.7206268256897
 20
-0.0098032845414291
 30
0.0
 10
-114.7282557371213
 20
-0.0085876955421604
 30
0.0
 10
-114.7333187155906
 20
-0.007780961713102
 30
0.0
 10
-114.7383797917978
 20
-0.0069619604666847
 30
0.0
 10
-114.7434369143372
 20
-0.0061192967899011
 30
0.0
 10
-114.7467943306545
 20
-0.0055598535973782
 30
0.0
 10
-114.7501500931347
 20
-0.0049901617559218
 30
0.0
 10
-114.753502420183
 20
-0.0044009891370103
 30
0.0
 10
-114.7557291802195
 20
-0.0040096353032369
 30
0.0
 10
-114.7579545094472
 20
-0.0036098294573485
 30
0.0
 10
-114.7601768460986
 20
-0.0031940916898875
 30
0.0
 10
-114.7616540643486
 20
-0.0029177449820652
 30
0.0
 10
-114.7631300418047
 20
-0.0026344715031086
 30
0.0
 10
-114.7646033966292
 20
-0.0023382168457535
 30
0.0
 10
-114.7655836959227
 20
-0.0021411032744195
 30
0.0
 10
-114.7665629125385
 20
-0.0019383306511121
 30
0.0
 10
-114.7675398119003
 20
-0.0017250043712536
 30
0.0
 10
-114.7681906385611
 20
-0.0015828828428702
 30
0.0
 10
-114.7688405123595
 20
-0.0014361442025548
 30
0.0
 10
-114.7694883189079
 20
-0.0012808362920898
 30
0.0
 10
-114.7699206620658
 20
-0.0011771844957074
 30
0.0
 10
-114.7703521577973
 20
-0.0010697659137486
 30
0.0
 10
-114.7707817891255
 20
-0.000955392739848
 30
0.0
 10
-114.7710692173575
 20
-0.0008788757891321
 30
0.0
 10
-114.7713558826818
 20
-0.0007992821071367
 30
0.0
 10
-114.7716408458397
 20
-0.0007140422634567
 30
0.0
 10
-114.7718321230832
 20
-0.0006568262975438
 30
0.0
 10
-114.7720227037191
 20
-0.0005970904071633
 30
0.0
 10
-114.7722117083902
 20
-0.0005327640135792
 30
0.0
 10
-114.7723391529141
 20
-0.0004893891775996
 30
0.0
 10
-114.7724659506997
 20
-0.0004439406336435
 30
0.0
 10
-114.77259126509
 20
-0.0003947493063897
 30
0.0
 10
-114.7726762926382
 20
-0.000361372310018
 30
0.0
 10
-114.7727607075575
 20
-0.0003262758230608
 30
0.0
 10
-114.7728436978292
 20
-0.0002881140275487
 30
0.0
 10
-114.772900503728
 20
-0.0002619927117712
 30
0.0
 10
-114.772956714139
 20
-0.0002344282499249
 30
0.0
 10
-114.7730115213153
 20
-0.0002043382732623
 30
0.0
 10
-114.7730495079955
 20
-0.0001834830058417
 30
0.0
 10
-114.7730868964315
 20
-0.0001613956637645
 30
0.0
 10
-114.773122858168
 20
-0.0001372154329211
 30
0.0
 10
-114.7731583360348
 20
-0.0001133605500575
 30
0.0
 10
-114.7731928464727
 20
-0.0000874451227019
 30
0.0
 10
-114.7732232210229
 20
-0.0000573598909097
 30
0.0
 10
-114.7732390248875
 20
-0.0000417065585064
 30
0.0
 10
-114.7732538369355
 20
-0.0000247389158527
 30
0.0
 10
-114.7732658435071
 20
-0.0000060137672466
 30
0.0
 10
-114.7732745817365
 20
0.0000076141566703
 30
0.0
 10
-114.7732819316656
 20
0.000022461237277
 30
0.0
 10
-114.7732862176463
 20
0.0000380723657935
 30
0.0
 10
-114.7732893722126
 20
0.0000495624643065
 30
0.0
 10
-114.7732908530245
 20
0.0000617110046775
 30
0.0
 10
-114.7732901247985
 20
0.0000736040000695
 30
0.0
 10
-114.7732895892319
 20
0.0000823505847
 30
0.0
 10
-114.7732878651828
 20
0.0000910925363396
 30
0.0
 10
-114.7732851031415
 20
0.0000994088277108
 30
0.0
  0
MTEXT
  5
75
330
1F
100
AcDbEntity
  8
0
  6
Continuous
 62
     7
100
AcDbMText
 10
-114.7732851031
 20
-4.402206946
 30
0.0
 40
4.83362
 41
0.0
 71
     1
 72
     1
  1
SOLIDWORKS Educational Product.
  7
SLDTEXTSTYLE0
 73
     1
 44
1.0
  0
MTEXT
  5
76
330
1F
100
AcDbEntity
  8
0
  6
Continuous
 62
     7
100
AcDbMText
 10
-114.7732851031
 20
-11.652636946
 30
0.0
 40
4.83362
 41
0.0
 71
     1
 72
     1
  1
For Instructional Use Only.
  7
SLDTEXTSTYLE0
 73
     1
 44
1.0
  0
ENDSEC
  0
SECTION
  2
OBJECTS
  0
DICTIONARY
  5
C
330
0
100
AcDbDictionary
281
     1
  3
ACAD_GROUP
350
D
  3
ACAD_LAYOUT
350
1A
  3
ACAD_MLINESTYLE
350
17
  3
ACAD_PLOTSETTINGS
350
19
  3
ACAD_PLOTSTYLENAME
350
E
  3
ACAD_SCALELIST
350
47
  0
DICTIONARY
  5
D
102
{ACAD_REACTORS
330
C
102
}
330
C
100
AcDbDictionary
281
     1
  0
DICTIONARY
  5
1A
102
{ACAD_REACTORS
330
C
102
}
330
C
100
AcDbDictionary
281
     1
  3
Layout1
350
1E
  3
Layout2
350
26
  3
Model
350
22
  0
DICTIONARY
  5
17
102
{ACAD_REACTORS
330
C
102
}
330
C
100
AcDbDictionary
281
     1
  3
Standard
350
18
  0
DICTIONARY
  5
19
102
{ACAD_REACTORS
330
C
102
}
330
C
100
AcDbDictionary
281
     1
  0
ACDBDICTIONARYWDFLT
  5
E
102
{ACAD_REACTORS
330
C
102
}
330
C
100
AcDbDictionary
281
     1
  3
Normal
350
F
100
AcDbDictionaryWithDefault
340
F
  0
DICTIONARY
  5
47
102
{ACAD_REACTORS
330
C
102
}
330
C
100
AcDbDictionary
281
     1
  3
A0
350
48
  3
A1
350
49
  3
A2
350
4A
  3
A3
350
4B
  3
A4
350
4C
  3
A5
350
4D
  3
A6
350
4E
  3
A7
350
4F
  3
A8
350
50
  3
A9
350
51
  3
B0
350
52
  3
B1
350
53
  3
B2
350
54
  3
B3
350
55
  3
B4
350
56
  3
B5
350
57
  3
B6
350
58
  3
B7
350
59
  3
B8
350
5A
  3
B9
350
5B
  3
C0
350
5C
  3
C1
350
5D
  3
C2
350
5E
  3
C3
350
5F
  3
C4
350
60
  3
C5
350
61
  3
C6
350
62
  3
C7
350
63
  3
C8
350
64
  3
C9
350
65
  3
D0
350
66
  3
D1
350
67
  3
D2
350
68
  0
LAYOUT
  5
1E
102
{ACAD_REACTORS
330
1A
102
}
330
1A
100
AcDbPlotSettings
  1

  2
none_device
  4

  6

 40
0.0
 41
0.0
 42
0.0
 43
0.0
 44
0.0
 45
0.0
 46
0.0
 47
0.0
 48
0.0
 49
0.0
140
0.0
141
0.0
142
1.0
143
1.0
 70
   688
 72
     1
 73
     0
 74
     5
  7

 75
    16
147
1.0
148
0.0
149
0.0
100
AcDbLayout
  1
Layout1
 70
     1
 71
     1
 10
0.0
 20
0.0
 11
420.0
 21
297.0
 12
0.0
 22
0.0
 32
0.0
 14
1.0000000000E+20
 24
1.0000000000E+20
 34
1.0000000000E+20
 15
-1.0000000000E+20
 25
-1.0000000000E+20
 35
-1.0000000000E+20
146
0.0
 13
0.0
 23
0.0
 33
0.0
 16
1.0
 26
0.0
 36
0.0
 17
0.0
 27
1.0
 37
0.0
 76
     0
330
1B
  0
LAYOUT
  5
26
102
{ACAD_REACTORS
330
1A
102
}
330
1A
100
AcDbPlotSettings
  1

  2
none_device
  4

  6

 40
0.0
 41
0.0
 42
0.0
 43
0.0
 44
0.0
 45
0.0
 46
0.0
 47
0.0
 48
0.0
 49
0.0
140
0.0
141
0.0
142
1.0
143
1.0
 70
   688
 72
     1
 73
     0
 74
     5
  7

 75
    16
147
1.0
148
0.0
149
0.0
100
AcDbLayout
  1
Layout2
 70
     1
 71
     2
 10
0.0
 20
0.0
 11
0.0
 21
0.0
 12
0.0
 22
0.0
 32
0.0
 14
0.0
 24
0.0
 34
0.0
 15
0.0
 25
0.0
 35
0.0
146
0.0
 13
0.0
 23
0.0
 33
0.0
 16
1.0
 26
0.0
 36
0.0
 17
0.0
 27
1.0
 37
0.0
 76
     0
330
23
  0
LAYOUT
  5
22
102
{ACAD_REACTORS
330
1A
102
}
330
1A
100
AcDbPlotSettings
  1

  2
none_device
  4
ANSI_A_(11.00_x_8.50_Inches)
  6

 40
6.35
 41
19.05
 42
6.35000508
 43
19.05000254
 44
279.4
 45
215.9
 46
461.0818064705
 47
87.606945597
 48
0.0
 49
0.0
140
0.0
141
0.0
142
0.1598614792
143
1.0
 70
  1696
 72
     0
 73
     0
 74
     0
  7

 75
     0
147
0.0179189148
148
-1300.4909072572
149
0.0
100
AcDbLayout
  1
Model
 70
     1
 71
     0
 10
0.0
 20
0.0
 11
420.0
 21
297.0
 12
0.0
 22
0.0
 32
0.0
 14
-114.7732851031
 24
-3.3826405544
 34
0.0
 15
-46.6518085837
 25
4.0195369965
 35
0.0
146
0.0
 13
0.0
 23
0.0
 33
0.0
 16
1.0
 26
0.0
 36
0.0
 17
0.0
 27
1.0
 37
0.0
 76
     0
330
1F
331
29
  0
MLINESTYLE
  5
18
102
{ACAD_REACTORS
330
17
102
}
330
17
100
AcDbMlineStyle
  2
Standard
 70
     0
  3

 62
   256
 51
90.0
 52
90.0
 71
     2
 49
0.5
 62
   256
  6
BYLAYER
 49
-0.5
 62
   256
  6
BYLAYER
  0
ACDBPLACEHOLDER
  5
F
102
{ACAD_REACTORS
330
E
102
}
330
E
  0
SCALE
  5
48
102
{ACAD_REACTORS
330
47
102
}
330
47
100
AcDbScale
 70
     0
300
1:1
140
1.0
141
1.0
290
     1
  0
SCALE
  5
49
102
{ACAD_REACTORS
330
47
102
}
330
47
100
AcDbScale
 70
     0
300
1:2
140
1.0
141
2.0
290
     0
  0
SCALE
  5
4A
102
{ACAD_REACTORS
330
47
102
}
330
47
100
AcDbScale
 70
     0
300
1:4
140
1.0
141
4.0
290
     0
  0
SCALE
  5
4B
102
{ACAD_REACTORS
330
47
102
}
330
47
100
AcDbScale
 70
     0
300
1:5
140
1.0
141
5.0
290
     0
  0
SCALE
  5
4C
102
{ACAD_REACTORS
330
47
102
}
330
47
100
AcDbScale
 70
     0
300
1:8
140
1.0
141
8.0
290
     0
  0
SCALE
  5
4D
102
{ACAD_REACTORS
330
47
102
}
330
47
100
AcDbScale
 70
     0
300
1:10
140
1.0
141
10.0
290
     0
  0
SCALE
  5
4E
102
{ACAD_REACTORS
330
47
102
}
330
47
100
AcDbScale
 70
     0
300
1:16
140
1.0
141
16.0
290
     0
  0
SCALE
  5
4F
102
{ACAD_REACTORS
330
47
102
}
330
47
100
AcDbScale
 70
     0
300
1:20
140
1.0
141
20.0
290
     0
  0
SCALE
  5
50
102
{ACAD_REACTORS
330
47
102
}
330
47
100
AcDbScale
 70
     0
300
1:30
140
1.0
141
30.0
290
     0
  0
SCALE
  5
51
102
{ACAD_REACTORS
330
47
102
}
330
47
100
AcDbScale
 70
     0
300
1:40
140
1.0
141
40.0
290
     0
  0
SCALE
  5
52
102
{ACAD_REACTORS
330
47
102
}
330
47
100
AcDbScale
 70
     0
300
1:50
140
1.0
141
50.0
290
     0
  0
SCALE
  5
53
102
{ACAD_REACTORS
330
47
102
}
330
47
100
AcDbScale
 70
     0
300
1:100
140
1.0
141
100.0
290
     0
  0
SCALE
  5
54
102
{ACAD_REACTORS
330
47
102
}
330
47
100
AcDbScale
 70
     0
300
2:1
140
2.0
141
1.0
290
     0
  0
SCALE
  5
55
102
{ACAD_REACTORS
330
47
102
}
330
47
100
AcDbScale
 70
     0
300
4:1
140
4.0
141
1.0
290
     0
  0
SCALE
  5
56
102
{ACAD_REACTORS
330
47
102
}
330
47
100
AcDbScale
 70
     0
300
8:1
140
8.0
141
1.0
290
     0
  0
SCALE
  5
57
102
{ACAD_REACTORS
330
47
102
}
330
47
100
AcDbScale
 70
     0
300
10:1
140
10.0
141
1.0
290
     0
  0
SCALE
  5
58
102
{ACAD_REACTORS
330
47
102
}
330
47
100
AcDbScale
 70
     0
300
100:1
140
100.0
141
1.0
290
     0
  0
SCALE
  5
59
102
{ACAD_REACTORS
330
47
102
}
330
47
100
AcDbScale
 70
     0
300
1/128" = 1'-0"
140
0.0078125
141
12.0
290
     0
  0
SCALE
  5
5A
102
{ACAD_REACTORS
330
47
102
}
330
47
100
AcDbScale
 70
     0
300
1/64" = 1'-0"
140
0.015625
141
12.0
290
     0
  0
SCALE
  5
5B
102
{ACAD_REACTORS
330
47
102
}
330
47
100
AcDbScale
 70
     0
300
1/32" = 1'-0"
140
0.03125
141
12.0
290
     0
  0
SCALE
  5
5C
102
{ACAD_REACTORS
330
47
102
}
330
47
100
AcDbScale
 70
     0
300
1/16" = 1'-0"
140
0.0625
141
12.0
290
     0
  0
SCALE
  5
5D
102
{ACAD_REACTORS
330
47
102
}
330
47
100
AcDbScale
 70
     0
300
3/32" = 1'-0"
140
0.09375
141
12.0
290
     0
  0
SCALE
  5
5E
102
{ACAD_REACTORS
330
47
102
}
330
47
100
AcDbScale
 70
     0
300
1/8" = 1'-0"
140
0.125
141
12.0
290
     0
  0
SCALE
  5
5F
102
{ACAD_REACTORS
330
47
102
}
330
47
100
AcDbScale
 70
     0
300
3/16" = 1'-0"
140
0.1875
141
12.0
290
     0
  0
SCALE
  5
60
102
{ACAD_REACTORS
330
47
102
}
330
47
100
AcDbScale
 70
     0
300
1/4" = 1'-0"
140
0.25
141
12.0
290
     0
  0
SCALE
  5
61
102
{ACAD_REACTORS
330
47
102
}
330
47
100
AcDbScale
 70
     0
300
3/8" = 1'-0"
140
0.375
141
12.0
290
     0
  0
SCALE
  5
62
102
{ACAD_REACTORS
330
47
102
}
330
47
100
AcDbScale
 70
     0
300
1/2" = 1'-0"
140
0.5
141
12.0
290
     0
  0
SCALE
  5
63
102
{ACAD_REACTORS
330
47
102
}
330
47
100
AcDbScale
 70
     0
300
3/4" = 1'-0"
140
0.75
141
12.0
290
     0
  0
SCALE
  5
64
102
{ACAD_REACTORS
330
47
102
}
330
47
100
AcDbScale
 70
     0
300
1" = 1'-0"
140
1.0
141
12.0
290
     0
  0
SCALE
  5
65
102
{ACAD_REACTORS
330
47
102
}
330
47
100
AcDbScale
 70
     0
300
1-1/2" = 1'-0"
140
1.5
141
12.0
290
     0
  0
SCALE
  5
66
102
{ACAD_REACTORS
330
47
102
}
330
47
100
AcDbScale
 70
     0
300
3" = 1'-0"
140
3.0
141
12.0
290
     0
  0
SCALE
  5
67
102
{ACAD_REACTORS
330
47
102
}
330
47
100
AcDbScale
 70
     0
300
6" = 1'-0"
140
6.0
141
12.0
290
     0
  0
SCALE
  5
68
102
{ACAD_REACTORS
330
47
102
}
330
47
100
AcDbScale
 70
     0
300
1'-0" = 1'-0"
140
12.0
141
12.0
290
     0
  0
ENDSEC
  0
EOF
