  0
SECTION
  2
HEADER
  9
$ACADVER
  1
AC1015
  9
$ACADMAINTVER
 70
     6
  9
$DWGCODEPAGE
  3
ANSI_1252
  9
$INSBASE
 10
0.0
 20
0.0
 30
0.0
  9
$EXTMIN
 10
7.2623753848
 20
-3.6612418813
 30
0.0
  9
$EXTMAX
 10
100.955230977
 20
6.4212380382
 30
0.0
  9
$LIMMIN
 10
0.0
 20
0.0
  9
$LIMMAX
 10
420.0
 20
297.0
  9
$ORTHOMODE
 70
     0
  9
$REGENMODE
 70
     1
  9
$FILLMODE
 70
     1
  9
$QTEXTMODE
 70
     0
  9
$MIRRTEXT
 70
     1
  9
$LTSCALE
 40
1.0
  9
$ATTMODE
 70
     1
  9
$TEXTSIZE
 40
3.5
  9
$TRACEWID
 40
1.0
  9
$TEXTSTYLE
  7
Standard
  9
$CLAYER
  8
0
  9
$CELTYPE
  6
ByLayer
  9
$CECOLOR
 62
   256
  9
$CELTSCALE
 40
1.0
  9
$DISPSILH
 70
     0
  9
$DIMSCALE
 40
1.0
  9
$DIMASZ
 40
3.302
  9
$DIMEXO
 40
1.0
  9
$DIMDLI
 40
3.75
  9
$DIMRND
 40
0.0
  9
$DIMDLE
 40
0.0
  9
$DIMEXE
 40
1.0
  9
$DIMTP
 40
0.0
  9
$DIMTM
 40
0.0
  9
$DIMTXT
 40
3.5
  9
$DIMCEN
 40
2.5
  9
$DIMTSZ
 40
0.0
  9
$DIMTOL
 70
     0
  9
$DIMLIM
 70
     0
  9
$DIMTIH
 70
     1
  9
$DIMTOH
 70
     1
  9
$DIMSE1
 70
     0
  9
$DIMSE2
 70
     0
  9
$DIMTAD
 70
     1
  9
$DIMZIN
 70
     0
  9
$DIMBLK
  1

  9
$DIMASO
 70
     1
  9
$DIMSHO
 70
     1
  9
$DIMPOST
  1

  9
$DIMAPOST
  1

  9
$DIMALT
 70
     0
  9
$DIMALTD
 70
     3
  9
$DIMALTF
 40
0.0393700787
  9
$DIMLFAC
 40
1.0
  9
$DIMTOFL
 70
     1
  9
$DIMTVP
 40
0.0
  9
$DIMTIX
 70
     0
  9
$DIMSOXD
 70
     0
  9
$DIMSAH
 70
     0
  9
$DIMBLK1
  1

  9
$DIMBLK2
  1

  9
$DIMSTYLE
  2
ISO-25
  9
$DIMCLRD
 70
     0
  9
$DIMCLRE
 70
     0
  9
$DIMCLRT
 70
     0
  9
$DIMTFAC
 40
1.0
  9
$DIMGAP
 40
1.524
  9
$DIMJUST
 70
     0
  9
$DIMSD1
 70
     0
  9
$DIMSD2
 70
     0
  9
$DIMTOLJ
 70
     0
  9
$DIMTZIN
 70
     0
  9
$DIMALTZ
 70
     0
  9
$DIMALTTZ
 70
     0
  9
$DIMUPT
 70
     0
  9
$DIMDEC
 70
     2
  9
$DIMTDEC
 70
     2
  9
$DIMALTU
 70
     2
  9
$DIMALTTD
 70
     3
  9
$DIMTXSTY
  7
Standard
  9
$DIMAUNIT
 70
     0
  9
$DIMADEC
 70
     2
  9
$DIMALTRND
 40
0.0
  9
$DIMAZIN
 70
     0
  9
$DIMDSEP
 70
    44
  9
$DIMATFIT
 70
     3
  9
$DIMFRAC
 70
     0
  9
$DIMLDRBLK
  1

  9
$DIMLUNIT
 70
     2
  9
$DIMLWD
 70
    -2
  9
$DIMLWE
 70
    -2
  9
$DIMTMOVE
 70
     0
  9
$LUNITS
 70
     2
  9
$LUPREC
 70
     2
  9
$SKETCHINC
 40
1.0
  9
$FILLETRAD
 40
10.0
  9
$AUNITS
 70
     0
  9
$AUPREC
 70
     2
  9
$MENU
  1
.
  9
$ELEVATION
 40
0.0
  9
$PELEVATION
 40
0.0
  9
$THICKNESS
 40
0.0
  9
$LIMCHECK
 70
     0
  9
$CHAMFERA
 40
0.0
  9
$CHAMFERB
 40
0.0
  9
$CHAMFERC
 40
0.0
  9
$CHAMFERD
 40
0.0
  9
$SKPOLY
 70
     0
  9
$TDCREATE
 40
2457856.653577917
  9
$TDUCREATE
 40
2457856.570244583
  9
$TDUPDATE
 40
2457856.653661377
  9
$TDUUPDATE
 40
2457856.570328044
  9
$TDINDWG
 40
0.0000000116
  9
$TDUSRTIMER
 40
0.0000000116
  9
$USRTIMER
 70
     1
  9
$ANGBASE
 50
0.0
  9
$ANGDIR
 70
     0
  9
$PDMODE
 70
     0
  9
$PDSIZE
 40
-1.0
  9
$PLINEWID
 40
0.0
  9
$SPLFRAME
 70
     0
  9
$SPLINETYPE
 70
     6
  9
$SPLINESEGS
 70
     8
  9
$HANDSEED
  5
77
  9
$SURFTAB1
 70
     6
  9
$SURFTAB2
 70
     6
  9
$SURFTYPE
 70
     6
  9
$SURFU
 70
     6
  9
$SURFV
 70
     6
  9
$UCSBASE
  2

  9
$UCSNAME
  2

  9
$UCSORG
 10
0.0
 20
0.0
 30
0.0
  9
$UCSXDIR
 10
1.0
 20
0.0
 30
0.0
  9
$UCSYDIR
 10
0.0
 20
1.0
 30
0.0
  9
$UCSORTHOREF
  2

  9
$UCSORTHOVIEW
 70
     0
  9
$UCSORGTOP
 10
0.0
 20
0.0
 30
0.0
  9
$UCSORGBOTTOM
 10
0.0
 20
0.0
 30
0.0
  9
$UCSORGLEFT
 10
0.0
 20
0.0
 30
0.0
  9
$UCSORGRIGHT
 10
0.0
 20
0.0
 30
0.0
  9
$UCSORGFRONT
 10
0.0
 20
0.0
 30
0.0
  9
$UCSORGBACK
 10
0.0
 20
0.0
 30
0.0
  9
$PUCSBASE
  2

  9
$PUCSNAME
  2

  9
$PUCSORG
 10
0.0
 20
0.0
 30
0.0
  9
$PUCSXDIR
 10
1.0
 20
0.0
 30
0.0
  9
$PUCSYDIR
 10
0.0
 20
1.0
 30
0.0
  9
$PUCSORTHOREF
  2

  9
$PUCSORTHOVIEW
 70
     0
  9
$PUCSORGTOP
 10
0.0
 20
0.0
 30
0.0
  9
$PUCSORGBOTTOM
 10
0.0
 20
0.0
 30
0.0
  9
$PUCSORGLEFT
 10
0.0
 20
0.0
 30
0.0
  9
$PUCSORGRIGHT
 10
0.0
 20
0.0
 30
0.0
  9
$PUCSORGFRONT
 10
0.0
 20
0.0
 30
0.0
  9
$PUCSORGBACK
 10
0.0
 20
0.0
 30
0.0
  9
$USERI1
 70
     0
  9
$USERI2
 70
     0
  9
$USERI3
 70
     0
  9
$USERI4
 70
     0
  9
$USERI5
 70
     0
  9
$USERR1
 40
0.0
  9
$USERR2
 40
0.0
  9
$USERR3
 40
0.0
  9
$USERR4
 40
0.0
  9
$USERR5
 40
0.0
  9
$WORLDVIEW
 70
     1
  9
$SHADEDGE
 70
     3
  9
$SHADEDIF
 70
    70
  9
$TILEMODE
 70
     1
  9
$MAXACTVP
 70
    64
  9
$PINSBASE
 10
0.0
 20
0.0
 30
0.0
  9
$PLIMCHECK
 70
     0
  9
$PEXTMIN
 10
1.0000000000E+20
 20
1.0000000000E+20
 30
1.0000000000E+20
  9
$PEXTMAX
 10
-1.0000000000E+20
 20
-1.0000000000E+20
 30
-1.0000000000E+20
  9
$PLIMMIN
 10
0.0
 20
0.0
  9
$PLIMMAX
 10
420.0
 20
297.0
  9
$UNITMODE
 70
     0
  9
$VISRETAIN
 70
     1
  9
$PLINEGEN
 70
     0
  9
$PSLTSCALE
 70
     1
  9
$TREEDEPTH
 70
  3020
  9
$CMLSTYLE
  2
Standard
  9
$CMLJUST
 70
     0
  9
$CMLSCALE
 40
20.0
  9
$PROXYGRAPHICS
 70
     1
  9
$MEASUREMENT
 70
     1
  9
$CELWEIGHT
370
    -1
  9
$ENDCAPS
280
     0
  9
$JOINSTYLE
280
     0
  9
$LWDISPLAY
290
     1
  9
$INSUNITS
 70
     4
  9
$HYPERLINKBASE
  1

  9
$STYLESHEET
  1

  9
$XEDIT
290
     1
  9
$CEPSNTYPE
380
     0
  9
$PSTYLEMODE
290
     1
  9
$FINGERPRINTGUID
  2
{5FE733DB-F9AC-4CF0-9FDD-6A5EFA964974}
  9
$VERSIONGUID
  2
{FAEB1C32-E019-11D5-929B-00C0DF256EC4}
  9
$EXTNAMES
290
     1
  9
$PSVPSCALE
 40
0.0
  9
$OLESTARTUP
290
     0
  0
ENDSEC
  0
SECTION
  2
CLASSES
  0
CLASS
  1
ACDBDICTIONARYWDFLT
  2
AcDbDictionaryWithDefault
  3
ObjectDBX Classes
 90
        0
280
     0
281
     0
  0
CLASS
  1
VISUALSTYLE
  2
AcDbVisualStyle
  3
ObjectDBX Classes
 90
     4095
280
     0
281
     0
  0
CLASS
  1
MATERIAL
  2
AcDbMaterial
  3
ObjectDBX Classes
 90
     1153
280
     0
281
     0
  0
CLASS
  1
SCALE
  2
AcDbScale
  3
ObjectDBX Classes
 90
     1153
280
     0
281
     0
  0
CLASS
  1
TABLESTYLE
  2
AcDbTableStyle
  3
ObjectDBX Classes
 90
     4095
280
     0
281
     0
  0
CLASS
  1
MLEADERSTYLE
  2
AcDbMLeaderStyle
  3
ACDB_MLEADERSTYLE_CLASS
 90
     4095
280
     0
281
     0
  0
CLASS
  1
SUN
  2
AcDbSun
  3
SCENEOE
 90
     1153
280
     0
281
     0
  0
CLASS
  1
ACDBPLACEHOLDER
  2
AcDbPlaceHolder
  3
ObjectDBX Classes
 90
        0
280
     0
281
     0
  0
CLASS
  1
LAYOUT
  2
AcDbLayout
  3
ObjectDBX Classes
 90
        0
280
     0
281
     0
  0
ENDSEC
  0
SECTION
  2
TABLES
  0
TABLE
  2
VPORT
  5
8
330
0
100
AcDbSymbolTable
 70
     1
  0
VPORT
  5
29
330
8
100
AcDbSymbolTableRecord
100
AcDbViewportTableRecord
  2
*Active
 70
     0
 10
0.0
 20
0.0
 11
1.0
 21
1.0
 12
54.1088031809
 22
1.3799980784
 13
0.0
 23
0.0
 14
10.0
 24
10.0
 15
10.0
 25
10.0
 16
0.0
 26
0.0
 36
1.0
 17
0.0
 27
0.0
 37
0.0
 40
10.2841295179
 41
9.2926399398
 42
50.0
 43
0.0
 44
0.0
 50
0.0
 51
0.0
 71
     0
 72
   100
 73
     1
 74
     3
 75
     0
 76
     0
 77
     0
 78
     0
281
     0
 65
     1
110
0.0
120
0.0
130
0.0
111
1.0
121
0.0
131
0.0
112
0.0
122
1.0
132
0.0
 79
     0
146
0.0
  0
ENDTAB
  0
TABLE
  2
LTYPE
  5
5
330
0
100
AcDbSymbolTable
 70
     6
  0
LTYPE
  5
14
330
5
100
AcDbSymbolTableRecord
100
AcDbLinetypeTableRecord
  2
ByBlock
 70
     0
  3

 72
    65
 73
     0
 40
0.0
  0
LTYPE
  5
15
330
5
100
AcDbSymbolTableRecord
100
AcDbLinetypeTableRecord
  2
ByLayer
 70
     0
  3

 72
    65
 73
     0
 40
0.0
  0
LTYPE
  5
16
330
5
100
AcDbSymbolTableRecord
100
AcDbLinetypeTableRecord
  2
Continuous
 70
     0
  3
Solid line
 72
    65
 73
     0
 40
0.0
  0
LTYPE
  5
6E
330
5
100
AcDbSymbolTableRecord
100
AcDbLinetypeTableRecord
  2
HIDDEN
 70
     0
  3
Hidden __ __ __ __ __ __ __ __ __ __ __ __ __ __
 72
    65
 73
     2
 40
1.905
 49
1.27
 74
     0
 49
-0.635
 74
     0
  0
LTYPE
  5
6F
330
5
100
AcDbSymbolTableRecord
100
AcDbLinetypeTableRecord
  2
PHANTOM
 70
     0
  3
Phantom ______  __  __  ______  __  __  ______
 72
    65
 73
     6
 40
12.7
 49
6.35
 74
     0
 49
-1.27
 74
     0
 49
1.27
 74
     0
 49
-1.27
 74
     0
 49
1.27
 74
     0
 49
-1.27
 74
     0
  0
LTYPE
  5
70
330
5
100
AcDbSymbolTableRecord
100
AcDbLinetypeTableRecord
  2
CENTER
 70
     0
  3
Center ____ _ ____ _ ____ _ ____ _ ____ _ ____
 72
    65
 73
     4
 40
10.16
 49
6.35
 74
     0
 49
-1.27
 74
     0
 49
1.27
 74
     0
 49
-1.27
 74
     0
  0
LTYPE
  5
71
330
5
100
AcDbSymbolTableRecord
100
AcDbLinetypeTableRecord
  2
CENTERX2
 70
     0
  3
Center (2x) ________  __  ________  __  _____
 72
    65
 73
     4
 40
20.32
 49
12.7
 74
     0
 49
-2.54
 74
     0
 49
2.54
 74
     0
 49
-2.54
 74
     0
  0
LTYPE
  5
72
330
5
100
AcDbSymbolTableRecord
100
AcDbLinetypeTableRecord
  2
DOT2
 70
     0
  3
Dot (.5x) ........................................
 72
    65
 73
     2
 40
0.635
 49
0.0
 74
     0
 49
-0.635
 74
     0
  0
ENDTAB
  0
TABLE
  2
LAYER
  5
2
330
0
100
AcDbSymbolTable
 70
     1
  0
LAYER
  5
10
330
2
100
AcDbSymbolTableRecord
100
AcDbLayerTableRecord
  2
0
 70
     0
 62
     7
  6
Continuous
370
    -3
390
F
  0
ENDTAB
  0
TABLE
  2
STYLE
  5
3
330
0
100
AcDbSymbolTable
 70
     2
  0
STYLE
  5
11
330
3
100
AcDbSymbolTableRecord
100
AcDbTextStyleTableRecord
  2
Standard
 70
     0
 40
0.0
 41
1.0
 50
0.0
 71
     0
 42
3.5
  3
txt
  4

  0
STYLE
  5
74
330
3
100
AcDbSymbolTableRecord
100
AcDbTextStyleTableRecord
  2
SLDTEXTSTYLE0
 70
     0
 40
0.0
 41
0.7
 50
0.0
 71
     0
 42
3.5
  3
TXT
  4

  0
ENDTAB
  0
TABLE
  2
VIEW
  5
6
330
0
100
AcDbSymbolTable
 70
     0
  0
ENDTAB
  0
TABLE
  2
UCS
  5
7
330
0
100
AcDbSymbolTable
 70
     0
  0
ENDTAB
  0
TABLE
  2
APPID
  5
9
330
0
100
AcDbSymbolTable
 70
     1
  0
APPID
  5
12
330
9
100
AcDbSymbolTableRecord
100
AcDbRegAppTableRecord
  2
ACAD
 70
     0
  0
ENDTAB
  0
TABLE
  2
DIMSTYLE
  5
A
330
0
100
AcDbSymbolTable
 70
     1
100
AcDbDimStyleTable
  0
DIMSTYLE
105
27
330
A
100
AcDbSymbolTableRecord
100
AcDbDimStyleTableRecord
  2
ISO-25
 70
     0
 41
2.5
 42
0.625
 43
3.75
 44
1.25
 73
     0
 74
     0
 77
     1
 78
     8
140
2.5
141
2.5
143
0.0393700787
147
0.625
171
     3
172
     1
178
     0
271
     2
272
     2
274
     3
278
    44
283
     0
284
     8
340
11
  0
ENDTAB
  0
TABLE
  2
BLOCK_RECORD
  5
1
330
0
100
AcDbSymbolTable
 70
     1
  0
BLOCK_RECORD
  5
1F
330
1
100
AcDbSymbolTableRecord
100
AcDbBlockTableRecord
  2
*Model_Space
340
22
  0
BLOCK_RECORD
  5
1B
330
1
100
AcDbSymbolTableRecord
100
AcDbBlockTableRecord
  2
*Paper_Space
340
1E
  0
BLOCK_RECORD
  5
23
330
1
100
AcDbSymbolTableRecord
100
AcDbBlockTableRecord
  2
*Paper_Space0
340
26
  0
ENDTAB
  0
ENDSEC
  0
SECTION
  2
BLOCKS
  0
BLOCK
  5
20
330
1F
100
AcDbEntity
  8
0
100
AcDbBlockBegin
  2
*Model_Space
 70
     0
 10
0.0
 20
0.0
 30
0.0
  3
*Model_Space
  1

  0
ENDBLK
  5
21
330
1F
100
AcDbEntity
  8
0
100
AcDbBlockEnd
  0
BLOCK
  5
1C
330
1B
100
AcDbEntity
 67
     1
  8
0
100
AcDbBlockBegin
  2
*Paper_Space
 70
     0
 10
0.0
 20
0.0
 30
0.0
  3
*Paper_Space
  1

  0
ENDBLK
  5
1D
330
1B
100
AcDbEntity
 67
     1
  8
0
100
AcDbBlockEnd
  0
BLOCK
  5
24
330
23
100
AcDbEntity
  8
0
100
AcDbBlockBegin
  2
*Paper_Space0
 70
     0
 10
0.0
 20
0.0
 30
0.0
  3
*Paper_Space0
  1

  0
ENDBLK
  5
25
330
23
100
AcDbEntity
  8
0
100
AcDbBlockEnd
  0
ENDSEC
  0
SECTION
  2
ENTITIES
  0
SPLINE
  5
73
330
1F
100
AcDbEntity
  8
0
  6
Continuous
 62
     7
370
    15
100
AcDbSpline
210
0.0
220
0.0
230
1.0
 70
    11
 71
     3
 72
   170
 73
   166
 74
     0
 42
0.000000001
 43
0.00000001
 40
0.0
 40
0.0
 40
0.0
 40
0.0
 40
0.0000000627713504
 40
0.0000000627713504
 40
0.0000000627713504
 40
0.0000001140068684
 40
0.0000001140068684
 40
0.0000001140068684
 40
0.000000164827128
 40
0.000000164827128
 40
0.000000164827128
 40
0.0000002326737905
 40
0.0000002326737905
 40
0.0000002326737905
 40
0.0000003411126059
 40
0.0000003411126059
 40
0.0000003411126059
 40
0.000000527800088
 40
0.000000527800088
 40
0.000000527800088
 40
0.0000007282400627
 40
0.0000007282400627
 40
0.0000007282400627
 40
0.0000010363847119
 40
0.0000010363847119
 40
0.0000010363847119
 40
0.0000015223628794
 40
0.0000015223628794
 40
0.0000015223628794
 40
0.0000023018057367
 40
0.0000023018057367
 40
0.0000023018057367
 40
0.0000035657356278
 40
0.0000035657356278
 40
0.0000035657356278
 40
0.0000056301780072
 40
0.0000056301780072
 40
0.0000056301780072
 40
0.0000090184713404
 40
0.0000090184713404
 40
0.0000090184713404
 40
0.0000145978026222
 40
0.0000145978026222
 40
0.0000145978026222
 40
0.0000238056240176
 40
0.0000238056240176
 40
0.0000238056240176
 40
0.0000390248989995
 40
0.0000390248989995
 40
0.0000390248989995
 40
0.0000642052499771
 40
0.0000642052499771
 40
0.0000642052499771
 40
0.0001058883605234
 40
0.0001058883605234
 40
0.0001058883605234
 40
0.0001748883673712
 40
0.0001748883673712
 40
0.0001748883673712
 40
0.0002889632728702
 40
0.0002889632728702
 40
0.0002889632728702
 40
0.000475746134682
 40
0.000475746134682
 40
0.000475746134682
 40
0.000950920960611
 40
0.000950920960611
 40
0.000950920960611
 40
0.0018998439385398
 40
0.0018998439385398
 40
0.0018998439385398
 40
0.0037942347766259
 40
0.0037942347766259
 40
0.0037942347766259
 40
0.007571873471597
 40
0.007571873471597
 40
0.007571873471597
 40
0.0150992669598932
 40
0.0150992669598932
 40
0.0150992669598932
 40
0.0301268227895869
 40
0.0301268227895869
 40
0.0301268227895869
 40
0.0478380387099245
 40
0.0478380387099245
 40
0.0478380387099245
 40
0.072829565033934
 40
0.072829565033934
 40
0.072829565033934
 40
0.0853183854725836
 40
0.0853183854725836
 40
0.0853183854725836
 40
0.0922716285528961
 40
0.0922716285528961
 40
0.0922716285528961
 40
0.0942107615684625
 40
0.0942107615684625
 40
0.0942107615684625
 40
0.0948601097635419
 40
0.0948601097635419
 40
0.0948601097635419
 40
0.0951024449540132
 40
0.0951024449540132
 40
0.0951024449540132
 40
0.0951993123636085
 40
0.0951993123636085
 40
0.0951993123636085
 40
0.0952954093565554
 40
0.0952954093565554
 40
0.0952954093565554
 40
0.0954630873139672
 40
0.0954630873139672
 40
0.0954630873139672
 40
0.0957128499738198
 40
0.0957128499738198
 40
0.0957128499738198
 40
0.0960108997266449
 40
0.0960108997266449
 40
0.0960108997266449
 40
0.0969057598205353
 40
0.0969057598205353
 40
0.0969057598205353
 40
0.0984704986457151
 40
0.0984704986457151
 40
0.0984704986457151
 40
0.1109321186510061
 40
0.1109321186510061
 40
0.1109321186510061
 40
0.1357334795588507
 40
0.1357334795588507
 40
0.1357334795588507
 40
0.1605073316911672
 40
0.1605073316911672
 40
0.1605073316911672
 40
0.1728939618111071
 40
0.1728939618111071
 40
0.1728939618111071
 40
0.179087287490002
 40
0.179087287490002
 40
0.179087287490002
 40
0.1852825388762346
 40
0.1852825388762346
 40
0.1852825388762346
 40
0.1868310020618205
 40
0.1868310020618205
 40
0.1868310020618205
 40
0.1872180285497648
 40
0.1872180285497648
 40
0.1872180285497648
 40
0.1873147967266612
 40
0.1873147967266612
 40
0.1873147967266612
 40
0.1873389975902808
 40
0.1873389975902808
 40
0.1873389975902808
 40
0.1873450571856942
 40
0.1873450571856942
 40
0.1873450571856942
 40
0.1873465838081755
 40
0.1873465838081755
 40
0.1873465838081755
 40
0.187346909391948
 40
0.187346909391948
 40
0.187346909391948
 40
0.18734701195567
 40
0.18734701195567
 40
0.18734701195567
 40
0.18734701195567
 10
100.9552309769653
 20
0.0000148101419057
 30
0.0
 10
100.9552407804711
 20
0.0000332951625444
 30
0.0
 10
100.9552482766561
 20
0.0000534923979019
 30
0.0
 10
100.9552513199851
 20
0.0000741936747269
 30
0.0
 10
100.9552538052438
 20
0.0000910988554857
 30
0.0
 10
100.9552532535958
 20
0.0001087519512072
 30
0.0
 10
100.955249502965
 20
0.0001254221166674
 30
0.0
 10
100.9552457723369
 20
0.0001420033776922
 30
0.0
 10
100.9552388716209
 20
0.0001580274993758
 30
0.0
 10
100.9552300401662
 20
0.0001725485602654
 30
0.0
 10
100.955218247831
 20
0.0001919380291423
 30
0.0
 10
100.9552028821439
 20
0.0002092560140649
 30
0.0
 10
100.9551861783227
 20
0.0002246180786678
 30
0.0
 10
100.9551594852256
 20
0.0002491670172111
 30
0.0
 10
100.9551288703335
 20
0.0002695108962978
 30
0.0
 10
100.9550973229485
 20
0.0002873976039342
 30
0.0
 10
100.9550430025331
 20
0.0003181961435675
 30
0.0
 10
100.9549848858798
 20
0.0003423248334836
 30
0.0
 10
100.9549261261852
 20
0.0003634567017713
 30
0.0
 10
100.9548629426038
 20
0.0003861795414341
 30
0.0
 10
100.9547984470499
 20
0.0004053206830111
 30
0.0
 10
100.9547335297871
 20
0.0004224741487217
 30
0.0
 10
100.9546337314103
 20
0.0004488444539408
 30
0.0
 10
100.9545326720386
 20
0.0004705264355448
 30
0.0
 10
100.954431249098
 20
0.0004897226882656
 30
0.0
 10
100.9542712970594
 20
0.0005199967045193
 30
0.0
 10
100.9541101457454
 20
0.0005440463357474
 30
0.0
 10
100.953948698138
 20
0.0005649231350464
 30
0.0
 10
100.9536897616994
 20
0.0005984062206502
 30
0.0
 10
100.953429734637
 20
0.0006236135657055
 30
0.0
 10
100.9531694981848
 20
0.0006447366618848
 30
0.0
 10
100.9527475069384
 20
0.0006789892103231
 30
0.0
 10
100.9523246067253
 20
0.0007022883956273
 30
0.0
 10
100.9519016117025
 20
0.0007203178087952
 30
0.0
 10
100.9512107146381
 20
0.0007497660716795
 30
0.0
 10
100.9505191842734
 20
0.0007648098759185
 30
0.0
 10
100.9498277091018
 20
0.0007730585645035
 30
0.0
 10
100.9486928182619
 20
0.0007865968107055
 30
0.0
 10
100.9475576841904
 20
0.0007813158034877
 30
0.0
 10
100.9464227992215
 20
0.0007672940435024
 30
0.0
 10
100.9445540425576
 20
0.0007442051330586
 30
0.0
 10
100.9426855697669
 20
0.0006966863787901
 30
0.0
 10
100.9408175929486
 20
0.0006379737489054
 30
0.0
 10
100.9377347866452
 20
0.0005410776505577
 30
0.0
 10
100.9346529533059
 20
0.0004126924468031
 30
0.0
 10
100.931571923054
 20
0.0002700875923138
 30
0.0
 10
100.9264793976993
 20
0.0000343810987753
 30
0.0
 10
100.9213887179627
 20
-0.000241517330115
 30
0.0
 10
100.9162992059779
 20
-0.0005351834582442
 30
0.0
 10
100.9078785831589
 20
-0.0010210555235878
 30
0.0
 10
100.8994608589867
 20
-0.001557345451219
 30
0.0
 10
100.8910446847002
 20
-0.0021149929239875
 30
0.0
 10
100.8771126863402
 20
-0.00303811350249
 30
0.0
 10
100.8631847196083
 20
-0.0040221044228114
 30
0.0
 10
100.8492585236243
 20
-0.0050289784565891
 30
0.0
 10
100.8262058139409
 20
-0.0066957060263461
 30
0.0
 10
100.8031578847762
 20
-0.0084283208530338
 30
0.0
 10
100.7801110036403
 20
-0.0101737934099296
 30
0.0
 10
100.74200849911
 20
-0.0130595147192244
 30
0.0
 10
100.7039091763802
 20
-0.0159873682314022
 30
0.0
 10
100.6658045925432
 20
-0.0188455021617172
 30
0.0
 10
100.6034138955758
 20
-0.0235252795003485
 30
0.0
 10
100.5410042229394
 20
-0.027966122117483
 30
0.0
 10
100.4785708614202
 20
-0.0320373324308852
 30
0.0
 10
100.3197653683632
 20
-0.0423928626382342
 30
0.0
 10
100.1607550991652
 20
-0.0503002753522459
 30
0.0
 10
100.001663432666
 20
-0.0543330512531963
 30
0.0
 10
99.68394832268895
 20
-0.0623867341837816
 30
0.0
 10
99.36604192732293
 20
-0.060328988748241
 30
0.0
 10
99.04822586777212
 20
-0.0594892220721241
 30
0.0
 10
98.41383964308712
 20
-0.0578129807518112
 30
0.0
 10
97.77929804943453
 20
-0.0462333764480647
 30
0.0
 10
97.14548822178637
 20
-0.0191447398692224
 30
0.0
 10
95.88168020696325
 20
0.0348696261528479
 30
0.0
 10
94.61950596833795
 20
0.1275416489154383
 30
0.0
 10
93.35914407002316
 20
0.2353198254834709
 30
0.0
 10
90.84835388398486
 20
0.4500267190812134
 30
0.0
 10
88.34530257799166
 20
0.7557604660728162
 30
0.0
 10
85.84850362694803
 20
1.096585063970531
 30
0.0
 10
80.86349881324745
 20
1.777061263480914
 30
0.0
 10
75.90024034950646
 20
2.608620933874119
 30
0.0
 10
70.93012664779863
 20
3.390471714275413
 30
0.0
 10
65.07475929378818
 20
4.311582137503001
 30
0.0
 10
59.19613526590695
 20
5.12214020844841
 30
0.0
 10
53.29270532125122
 20
5.65438653368868
 30
0.0
 10
44.97821280578869
 20
6.404011434649664
 30
0.0
 10
36.5790449917776
 20
6.702434084101397
 30
0.0
 10
28.25213405700282
 20
6.106382436883451
 30
0.0
 10
24.08615187569726
 20
5.808175747644381
 30
0.0
 10
19.91117149230334
 20
5.276981662724062
 30
0.0
 10
15.85717186063053
 20
4.27228183150128
 30
0.0
 10
13.6022354293946
 20
3.713442547407411
 30
0.0
 10
11.32506792688045
 20
3.042746456203248
 30
0.0
 10
9.306494646330636
 20
1.892789254646632
 30
0.0
 10
8.739372384337006
 20
1.569706443818474
 30
0.0
 10
8.179863476771795
 20
1.20371570391584
 30
0.0
 10
7.731503593570336
 20
0.7293913656862212
 30
0.0
 10
7.580242936746036
 20
0.569371226426516
 30
0.0
 10
7.438470581012526
 20
0.3934604755037572
 30
0.0
 10
7.34335215453168
 20
0.1948686422995154
 30
0.0
 10
7.307560948672156
 20
0.1201424147197919
 30
0.0
 10
7.276739486366091
 20
0.0408676079215097
 30
0.0
 10
7.26565919935776
 20
-0.041243577339625
 30
0.0
 10
7.261201240182303
 20
-0.0742795728393405
 30
0.0
 10
7.260163361749853
 20
-0.1085555052762546
 30
0.0
 10
7.266696531886476
 20
-0.1412444649818375
 30
0.0
 10
7.273180399798473
 20
-0.1736867391732743
 30
0.0
 10
7.28716475857389
 20
-0.2046834465913019
 30
0.0
 10
7.303692005865766
 20
-0.233343380205421
 30
0.0
 10
7.332557498892625
 20
-0.2833990911945691
 30
0.0
 10
7.370118014654349
 20
-0.3283876453062304
 30
0.0
 10
7.409611609172976
 20
-0.3705663944852987
 30
0.0
 10
7.468487947195735
 20
-0.4334457126206157
 30
0.0
 10
7.534009995686223
 20
-0.4901751736837833
 30
0.0
 10
7.601787856403995
 20
-0.5433390093679701
 30
0.0
 10
7.68274894170113
 20
-0.606843548902986
 30
0.0
 10
7.767440923251645
 20
-0.6656804532757745
 30
0.0
 10
7.853963667085469
 20
-0.7213701172495419
 30
0.0
 10
8.112950431697918
 20
-0.8880648527126377
 30
0.0
 10
8.38993776861028
 20
-1.027375762394935
 30
0.0
 10
8.672246114973737
 20
-1.150515019535229
 30
0.0
 10
9.166015173094468
 20
-1.365890709978219
 30
0.0
 10
9.678271670672242
 20
-1.538973291360763
 30
0.0
 10
10.19401665598317
 20
-1.694542185802598
 30
0.0
 10
14.25794243792095
 20
-2.920381426117423
 30
0.0
 10
18.56683856653471
 20
-3.233503554720582
 30
0.0
 10
22.80568624493651
 20
-3.457880388422077
 30
0.0
 10
31.25695070806116
 20
-3.90523497742322
 30
0.0
 10
39.73874552797133
 20
-3.591690097307947
 30
0.0
 10
48.1939101886984
 20
-3.225373684945454
 30
0.0
 10
56.64426293470923
 20
-2.859265746741201
 30
0.0
 10
65.08958983990489
 20
-2.381671291071771
 30
0.0
 10
73.53378474148309
 20
-1.893748122335205
 30
0.0
 10
77.75583233639955
 20
-1.649789418743081
 30
0.0
 10
81.97750054375783
 20
-1.399114094589737
 30
0.0
 10
86.19863324909909
 20
-1.139806503693639
 30
0.0
 10
88.30920320897775
 20
-1.010152486651888
 30
0.0
 10
90.41963491204501
 20
-0.8780780334805011
 30
0.0
 10
92.52959407204642
 20
-0.7388370093408952
 30
0.0
 10
94.64012195909885
 20
-0.5995584536042119
 30
0.0
 10
96.75211824234975
 20
-0.4695364878484253
 30
0.0
 10
98.8569350892456
 20
-0.2610358424355229
 30
0.0
 10
99.3830575403295
 20
-0.2089187801937473
 30
0.0
 10
99.9078920579137
 20
-0.1436868410055593
 30
0.0
 10
100.4318356026329
 20
-0.0729465861412762
 30
0.0
 10
100.562806518004
 20
-0.0552635437094446
 30
0.0
 10
100.69387717453
 20
-0.0383222428684206
 30
0.0
 10
100.8248297429701
 20
-0.0205038399739909
 30
0.0
 10
100.8575711491972
 20
-0.0160487951097859
 30
0.0
 10
100.8903210712165
 20
-0.0116185038349182
 30
0.0
 10
100.9229609818907
 20
-0.0064723074097082
 30
0.0
 10
100.9311238605508
 20
-0.0051853009163689
 30
0.0
 10
100.9392927679746
 20
-0.0039000582237511
 30
0.0
 10
100.9473890756272
 20
-0.0022451334134342
 30
0.0
 10
100.9494162447137
 20
-0.0018307701555118
 30
0.0
 10
100.9514497849955
 20
-0.0014168686316149
 30
0.0
 10
100.953429111072
 20
-0.0008140587960994
 30
0.0
 10
100.9539276591227
 20
-0.0006622244561041
 30
0.0
 10
100.9544337084735
 20
-0.0005098298789113
 30
0.0
 10
100.9548911915657
 20
-0.0002602040667466
 30
0.0
 10
100.9549891174206
 20
-0.0002067707891547
 30
0.0
 10
100.9550871322362
 20
-0.0001481191111181
 30
0.0
 10
100.9551660487366
 20
-0.000069272588226
 30
0.0
 10
100.9551910993432
 20
-0.0000442441946761
 30
0.0
 10
100.9552143856091
 20
-0.0000164737241405
 30
0.0
 10
100.9552309769653
 20
0.0000148101419057
 30
0.0
  0
MTEXT
  5
75
330
1F
100
AcDbEntity
  8
0
  6
Continuous
 62
     7
100
AcDbMText
 10
7.2623753848
 20
-4.680808273
 30
0.0
 40
4.83362
 41
0.0
 71
     1
 72
     1
  1
SOLIDWORKS Educational Product.
  7
SLDTEXTSTYLE0
 73
     1
 44
1.0
  0
MTEXT
  5
76
330
1F
100
AcDbEntity
  8
0
  6
Continuous
 62
     7
100
AcDbMText
 10
7.2623753848
 20
-11.931238273
 30
0.0
 40
4.83362
 41
0.0
 71
     1
 72
     1
  1
For Instructional Use Only.
  7
SLDTEXTSTYLE0
 73
     1
 44
1.0
  0
ENDSEC
  0
SECTION
  2
OBJECTS
  0
DICTIONARY
  5
C
330
0
100
AcDbDictionary
281
     1
  3
ACAD_GROUP
350
D
  3
ACAD_LAYOUT
350
1A
  3
ACAD_MLINESTYLE
350
17
  3
ACAD_PLOTSETTINGS
350
19
  3
ACAD_PLOTSTYLENAME
350
E
  3
ACAD_SCALELIST
350
47
  0
DICTIONARY
  5
D
102
{ACAD_REACTORS
330
C
102
}
330
C
100
AcDbDictionary
281
     1
  0
DICTIONARY
  5
1A
102
{ACAD_REACTORS
330
C
102
}
330
C
100
AcDbDictionary
281
     1
  3
Layout1
350
1E
  3
Layout2
350
26
  3
Model
350
22
  0
DICTIONARY
  5
17
102
{ACAD_REACTORS
330
C
102
}
330
C
100
AcDbDictionary
281
     1
  3
Standard
350
18
  0
DICTIONARY
  5
19
102
{ACAD_REACTORS
330
C
102
}
330
C
100
AcDbDictionary
281
     1
  0
ACDBDICTIONARYWDFLT
  5
E
102
{ACAD_REACTORS
330
C
102
}
330
C
100
AcDbDictionary
281
     1
  3
Normal
350
F
100
AcDbDictionaryWithDefault
340
F
  0
DICTIONARY
  5
47
102
{ACAD_REACTORS
330
C
102
}
330
C
100
AcDbDictionary
281
     1
  3
A0
350
48
  3
A1
350
49
  3
A2
350
4A
  3
A3
350
4B
  3
A4
350
4C
  3
A5
350
4D
  3
A6
350
4E
  3
A7
350
4F
  3
A8
350
50
  3
A9
350
51
  3
B0
350
52
  3
B1
350
53
  3
B2
350
54
  3
B3
350
55
  3
B4
350
56
  3
B5
350
57
  3
B6
350
58
  3
B7
350
59
  3
B8
350
5A
  3
B9
350
5B
  3
C0
350
5C
  3
C1
350
5D
  3
C2
350
5E
  3
C3
350
5F
  3
C4
350
60
  3
C5
350
61
  3
C6
350
62
  3
C7
350
63
  3
C8
350
64
  3
C9
350
65
  3
D0
350
66
  3
D1
350
67
  3
D2
350
68
  0
LAYOUT
  5
1E
102
{ACAD_REACTORS
330
1A
102
}
330
1A
100
AcDbPlotSettings
  1

  2
none_device
  4

  6

 40
0.0
 41
0.0
 42
0.0
 43
0.0
 44
0.0
 45
0.0
 46
0.0
 47
0.0
 48
0.0
 49
0.0
140
0.0
141
0.0
142
1.0
143
1.0
 70
   688
 72
     1
 73
     0
 74
     5
  7

 75
    16
147
1.0
148
0.0
149
0.0
100
AcDbLayout
  1
Layout1
 70
     1
 71
     1
 10
0.0
 20
0.0
 11
420.0
 21
297.0
 12
0.0
 22
0.0
 32
0.0
 14
1.0000000000E+20
 24
1.0000000000E+20
 34
1.0000000000E+20
 15
-1.0000000000E+20
 25
-1.0000000000E+20
 35
-1.0000000000E+20
146
0.0
 13
0.0
 23
0.0
 33
0.0
 16
1.0
 26
0.0
 36
0.0
 17
0.0
 27
1.0
 37
0.0
 76
     0
330
1B
  0
LAYOUT
  5
26
102
{ACAD_REACTORS
330
1A
102
}
330
1A
100
AcDbPlotSettings
  1

  2
none_device
  4

  6

 40
0.0
 41
0.0
 42
0.0
 43
0.0
 44
0.0
 45
0.0
 46
0.0
 47
0.0
 48
0.0
 49
0.0
140
0.0
141
0.0
142
1.0
143
1.0
 70
   688
 72
     1
 73
     0
 74
     5
  7

 75
    16
147
1.0
148
0.0
149
0.0
100
AcDbLayout
  1
Layout2
 70
     1
 71
     2
 10
0.0
 20
0.0
 11
0.0
 21
0.0
 12
0.0
 22
0.0
 32
0.0
 14
0.0
 24
0.0
 34
0.0
 15
0.0
 25
0.0
 35
0.0
146
0.0
 13
0.0
 23
0.0
 33
0.0
 16
1.0
 26
0.0
 36
0.0
 17
0.0
 27
1.0
 37
0.0
 76
     0
330
23
  0
LAYOUT
  5
22
102
{ACAD_REACTORS
330
1A
102
}
330
1A
100
AcDbPlotSettings
  1

  2
none_device
  4
ANSI_A_(11.00_x_8.50_Inches)
  6

 40
6.35
 41
19.05
 42
6.35000508
 43
19.05000254
 44
279.4
 45
215.9
 46
-26.3934484844
 47
84.8258807403
 48
0.0
 49
0.0
140
0.0
141
0.0
142
0.1162308474
143
1.0
 70
  1696
 72
     0
 73
     0
 74
     0
  7

 75
     0
147
0.0179189148
148
-1300.4909072572
149
0.0
100
AcDbLayout
  1
Model
 70
     1
 71
     0
 10
0.0
 20
0.0
 11
420.0
 21
297.0
 12
0.0
 22
0.0
 32
0.0
 14
7.2623753848
 24
-3.6612418813
 34
0.0
 15
100.955230977
 25
6.4212380382
 35
0.0
146
0.0
 13
0.0
 23
0.0
 33
0.0
 16
1.0
 26
0.0
 36
0.0
 17
0.0
 27
1.0
 37
0.0
 76
     0
330
1F
331
29
  0
MLINESTYLE
  5
18
102
{ACAD_REACTORS
330
17
102
}
330
17
100
AcDbMlineStyle
  2
Standard
 70
     0
  3

 62
   256
 51
90.0
 52
90.0
 71
     2
 49
0.5
 62
   256
  6
BYLAYER
 49
-0.5
 62
   256
  6
BYLAYER
  0
ACDBPLACEHOLDER
  5
F
102
{ACAD_REACTORS
330
E
102
}
330
E
  0
SCALE
  5
48
102
{ACAD_REACTORS
330
47
102
}
330
47
100
AcDbScale
 70
     0
300
1:1
140
1.0
141
1.0
290
     1
  0
SCALE
  5
49
102
{ACAD_REACTORS
330
47
102
}
330
47
100
AcDbScale
 70
     0
300
1:2
140
1.0
141
2.0
290
     0
  0
SCALE
  5
4A
102
{ACAD_REACTORS
330
47
102
}
330
47
100
AcDbScale
 70
     0
300
1:4
140
1.0
141
4.0
290
     0
  0
SCALE
  5
4B
102
{ACAD_REACTORS
330
47
102
}
330
47
100
AcDbScale
 70
     0
300
1:5
140
1.0
141
5.0
290
     0
  0
SCALE
  5
4C
102
{ACAD_REACTORS
330
47
102
}
330
47
100
AcDbScale
 70
     0
300
1:8
140
1.0
141
8.0
290
     0
  0
SCALE
  5
4D
102
{ACAD_REACTORS
330
47
102
}
330
47
100
AcDbScale
 70
     0
300
1:10
140
1.0
141
10.0
290
     0
  0
SCALE
  5
4E
102
{ACAD_REACTORS
330
47
102
}
330
47
100
AcDbScale
 70
     0
300
1:16
140
1.0
141
16.0
290
     0
  0
SCALE
  5
4F
102
{ACAD_REACTORS
330
47
102
}
330
47
100
AcDbScale
 70
     0
300
1:20
140
1.0
141
20.0
290
     0
  0
SCALE
  5
50
102
{ACAD_REACTORS
330
47
102
}
330
47
100
AcDbScale
 70
     0
300
1:30
140
1.0
141
30.0
290
     0
  0
SCALE
  5
51
102
{ACAD_REACTORS
330
47
102
}
330
47
100
AcDbScale
 70
     0
300
1:40
140
1.0
141
40.0
290
     0
  0
SCALE
  5
52
102
{ACAD_REACTORS
330
47
102
}
330
47
100
AcDbScale
 70
     0
300
1:50
140
1.0
141
50.0
290
     0
  0
SCALE
  5
53
102
{ACAD_REACTORS
330
47
102
}
330
47
100
AcDbScale
 70
     0
300
1:100
140
1.0
141
100.0
290
     0
  0
SCALE
  5
54
102
{ACAD_REACTORS
330
47
102
}
330
47
100
AcDbScale
 70
     0
300
2:1
140
2.0
141
1.0
290
     0
  0
SCALE
  5
55
102
{ACAD_REACTORS
330
47
102
}
330
47
100
AcDbScale
 70
     0
300
4:1
140
4.0
141
1.0
290
     0
  0
SCALE
  5
56
102
{ACAD_REACTORS
330
47
102
}
330
47
100
AcDbScale
 70
     0
300
8:1
140
8.0
141
1.0
290
     0
  0
SCALE
  5
57
102
{ACAD_REACTORS
330
47
102
}
330
47
100
AcDbScale
 70
     0
300
10:1
140
10.0
141
1.0
290
     0
  0
SCALE
  5
58
102
{ACAD_REACTORS
330
47
102
}
330
47
100
AcDbScale
 70
     0
300
100:1
140
100.0
141
1.0
290
     0
  0
SCALE
  5
59
102
{ACAD_REACTORS
330
47
102
}
330
47
100
AcDbScale
 70
     0
300
1/128" = 1'-0"
140
0.0078125
141
12.0
290
     0
  0
SCALE
  5
5A
102
{ACAD_REACTORS
330
47
102
}
330
47
100
AcDbScale
 70
     0
300
1/64" = 1'-0"
140
0.015625
141
12.0
290
     0
  0
SCALE
  5
5B
102
{ACAD_REACTORS
330
47
102
}
330
47
100
AcDbScale
 70
     0
300
1/32" = 1'-0"
140
0.03125
141
12.0
290
     0
  0
SCALE
  5
5C
102
{ACAD_REACTORS
330
47
102
}
330
47
100
AcDbScale
 70
     0
300
1/16" = 1'-0"
140
0.0625
141
12.0
290
     0
  0
SCALE
  5
5D
102
{ACAD_REACTORS
330
47
102
}
330
47
100
AcDbScale
 70
     0
300
3/32" = 1'-0"
140
0.09375
141
12.0
290
     0
  0
SCALE
  5
5E
102
{ACAD_REACTORS
330
47
102
}
330
47
100
AcDbScale
 70
     0
300
1/8" = 1'-0"
140
0.125
141
12.0
290
     0
  0
SCALE
  5
5F
102
{ACAD_REACTORS
330
47
102
}
330
47
100
AcDbScale
 70
     0
300
3/16" = 1'-0"
140
0.1875
141
12.0
290
     0
  0
SCALE
  5
60
102
{ACAD_REACTORS
330
47
102
}
330
47
100
AcDbScale
 70
     0
300
1/4" = 1'-0"
140
0.25
141
12.0
290
     0
  0
SCALE
  5
61
102
{ACAD_REACTORS
330
47
102
}
330
47
100
AcDbScale
 70
     0
300
3/8" = 1'-0"
140
0.375
141
12.0
290
     0
  0
SCALE
  5
62
102
{ACAD_REACTORS
330
47
102
}
330
47
100
AcDbScale
 70
     0
300
1/2" = 1'-0"
140
0.5
141
12.0
290
     0
  0
SCALE
  5
63
102
{ACAD_REACTORS
330
47
102
}
330
47
100
AcDbScale
 70
     0
300
3/4" = 1'-0"
140
0.75
141
12.0
290
     0
  0
SCALE
  5
64
102
{ACAD_REACTORS
330
47
102
}
330
47
100
AcDbScale
 70
     0
300
1" = 1'-0"
140
1.0
141
12.0
290
     0
  0
SCALE
  5
65
102
{ACAD_REACTORS
330
47
102
}
330
47
100
AcDbScale
 70
     0
300
1-1/2" = 1'-0"
140
1.5
141
12.0
290
     0
  0
SCALE
  5
66
102
{ACAD_REACTORS
330
47
102
}
330
47
100
AcDbScale
 70
     0
300
3" = 1'-0"
140
3.0
141
12.0
290
     0
  0
SCALE
  5
67
102
{ACAD_REACTORS
330
47
102
}
330
47
100
AcDbScale
 70
     0
300
6" = 1'-0"
140
6.0
141
12.0
290
     0
  0
SCALE
  5
68
102
{ACAD_REACTORS
330
47
102
}
330
47
100
AcDbScale
 70
     0
300
1'-0" = 1'-0"
140
12.0
141
12.0
290
     0
  0
ENDSEC
  0
EOF
