G04 Layer_Color=16711935*
%FSLAX44Y44*%
%MOMM*%
G71*
G01*
G75*
%ADD48C,0.4000*%
%ADD102R,1.2192X1.3208*%
%ADD105R,1.3208X1.2192*%
%ADD114R,1.2032X1.2032*%
%ADD125R,1.0032X1.2032*%
%ADD138C,7.2032*%
%ADD139C,4.2032*%
%ADD140R,1.7032X1.7032*%
%ADD141C,1.7032*%
%ADD142C,2.2032*%
%ADD143C,1.0032*%
%ADD144C,1.0162*%
%ADD145C,0.2032*%
%ADD146C,3.0032*%
%ADD147O,1.7032X2.7032*%
%ADD148C,3.7032*%
%ADD149C,1.9032*%
%ADD150O,1.9032X1.7032*%
%ADD151C,1.1032*%
%ADD152R,1.7032X2.7032*%
%ADD153O,1.7032X2.7032*%
%ADD154C,4.7032*%
%ADD155C,0.9000*%
%ADD156C,1.1000*%
%ADD157C,1.3000*%
%ADD158C,1.5700*%
%ADD159C,2.3000*%
%ADD160R,1.0160X1.0160*%
%ADD161R,1.2032X5.2032*%
%ADD162R,1.0032X2.2032*%
%ADD163R,2.4932X3.7032*%
D48*
X800000Y260000D02*
X1790000Y360000D01*
Y1240000D01*
X210000Y260000D02*
X800000D01*
Y1340000D02*
X1790000Y1240000D01*
X210000Y1340000D02*
X800000D01*
X210000Y260000D02*
Y1340000D01*
D102*
X458364Y625500D02*
D03*
X475500D02*
D03*
X404864Y623750D02*
D03*
X422000D02*
D03*
X1489136Y675500D02*
D03*
X1472000D02*
D03*
D105*
X709250Y337614D02*
D03*
Y354750D02*
D03*
X467250Y545864D02*
D03*
Y563000D02*
D03*
X413500Y546114D02*
D03*
Y563250D02*
D03*
X386500Y1268386D02*
D03*
Y1251250D02*
D03*
X473000Y1269386D02*
D03*
Y1252250D02*
D03*
X1598750Y503114D02*
D03*
Y520250D02*
D03*
D114*
X1616250Y515750D02*
D03*
Y532750D02*
D03*
D125*
X460250Y603250D02*
D03*
X473250D02*
D03*
X466750Y587250D02*
D03*
X407000Y602750D02*
D03*
X420000D02*
D03*
X413500Y586750D02*
D03*
D138*
X1750000Y400000D02*
D03*
X250000Y1300000D02*
D03*
X750000D02*
D03*
X1250000Y1250000D02*
D03*
X1750000Y1200000D02*
D03*
Y800000D02*
D03*
X1250000Y350000D02*
D03*
X750000Y300000D02*
D03*
X250000D02*
D03*
Y800000D02*
D03*
X1000000D02*
D03*
D139*
X306750Y605000D02*
D03*
Y491000D02*
D03*
X396250Y712500D02*
D03*
X556500Y396750D02*
D03*
D140*
X1466886Y1134036D02*
D03*
D141*
Y1108636D02*
D03*
Y1083236D02*
D03*
Y1057836D02*
D03*
Y1032436D02*
D03*
Y1007036D02*
D03*
Y981636D02*
D03*
Y956236D02*
D03*
D142*
X847000Y507000D02*
D03*
X1125750Y616250D02*
D03*
X1083250Y616000D02*
D03*
X1042250Y615750D02*
D03*
X926000Y314500D02*
D03*
X1566250Y1008250D02*
D03*
X1384000Y846250D02*
D03*
X747250Y771750D02*
D03*
X748750Y731500D02*
D03*
Y691750D02*
D03*
X938750Y773250D02*
D03*
X892500Y731000D02*
D03*
X833750Y779750D02*
D03*
X892000Y780500D02*
D03*
X794000Y780000D02*
D03*
X885500Y1083500D02*
D03*
X809000Y1076000D02*
D03*
X771000Y1140000D02*
D03*
X1234500Y804000D02*
D03*
X1276250Y801000D02*
D03*
X941500Y1185500D02*
D03*
X342250Y864250D02*
D03*
X894500Y1185500D02*
D03*
X423500Y901250D02*
D03*
X442500Y1025000D02*
D03*
X811000Y1140000D02*
D03*
X771000Y1051000D02*
D03*
D143*
X291000Y1095500D02*
D03*
X301000D02*
D03*
X281000D02*
D03*
Y1110500D02*
D03*
X291000D02*
D03*
X301000D02*
D03*
X281000Y1103000D02*
D03*
X291000D02*
D03*
X301000D02*
D03*
D144*
X1169000Y452423D02*
D03*
Y422423D02*
D03*
D145*
X500000Y901000D02*
D03*
Y699000D02*
D03*
X673000Y294000D02*
D03*
X589000Y293500D02*
D03*
X836000Y303000D02*
D03*
X326500Y296000D02*
D03*
X408000Y296000D02*
D03*
X489000Y295250D02*
D03*
X439500Y1300000D02*
D03*
X617500D02*
D03*
X527700D02*
D03*
X348300D02*
D03*
D146*
X1663350Y705400D02*
D03*
X1688750Y730800D02*
D03*
X1637950D02*
D03*
Y680000D02*
D03*
X1688750D02*
D03*
X1663350Y434400D02*
D03*
X1688750Y459800D02*
D03*
X1637950D02*
D03*
Y409000D02*
D03*
X1688750D02*
D03*
X1547407Y569739D02*
D03*
X1572807Y595139D02*
D03*
X1522007D02*
D03*
Y544339D02*
D03*
X1572807D02*
D03*
D147*
X673950Y1192750D02*
D03*
X648550D02*
D03*
X699350D02*
D03*
X724750D02*
D03*
X540400Y1192500D02*
D03*
X515000D02*
D03*
X565800D02*
D03*
X591200D02*
D03*
X1079600Y1207500D02*
D03*
X1105000D02*
D03*
X1155800D02*
D03*
X1130400D02*
D03*
X1054200D02*
D03*
X1028800D02*
D03*
X685700Y359000D02*
D03*
X660300D02*
D03*
X601700Y358500D02*
D03*
X576300D02*
D03*
X848700Y368000D02*
D03*
X823300D02*
D03*
X339200Y361000D02*
D03*
X313800D02*
D03*
X420700Y361000D02*
D03*
X395300D02*
D03*
X501700Y360250D02*
D03*
X476300D02*
D03*
X426800Y1235000D02*
D03*
X452200D02*
D03*
X604800D02*
D03*
X630200D02*
D03*
X515000D02*
D03*
X540400D02*
D03*
X335600D02*
D03*
X361000D02*
D03*
D148*
X768500Y613700D02*
D03*
Y482300D02*
D03*
D149*
X795500Y513000D02*
D03*
Y583000D02*
D03*
D150*
Y538000D02*
D03*
Y558000D02*
D03*
D151*
X1353000Y1231000D02*
D03*
X1323000D02*
D03*
X1433500Y1222000D02*
D03*
X1403500D02*
D03*
D152*
X567500Y445000D02*
D03*
D153*
X547500D02*
D03*
X527500D02*
D03*
X507500D02*
D03*
X487500D02*
D03*
X467500D02*
D03*
X447500D02*
D03*
X427500D02*
D03*
X407500D02*
D03*
X387500D02*
D03*
X567500Y665000D02*
D03*
X547500D02*
D03*
X527500D02*
D03*
X507500D02*
D03*
X487500D02*
D03*
X467500D02*
D03*
X447500D02*
D03*
X427500D02*
D03*
X407500D02*
D03*
X387500D02*
D03*
D154*
X677500Y720000D02*
D03*
Y418000D02*
D03*
X323500D02*
D03*
D155*
X560000Y1149000D02*
D03*
X257000Y1190000D02*
D03*
X1653500Y570250D02*
D03*
X1680500Y570000D02*
D03*
X1635666Y622793D02*
D03*
X1391500Y540750D02*
D03*
X1622250Y522000D02*
D03*
X1610000D02*
D03*
X1576750Y947750D02*
D03*
X1617250Y924500D02*
D03*
X1270250Y1091750D02*
D03*
X977250Y1068500D02*
D03*
X552500Y1103500D02*
D03*
X672000Y339750D02*
D03*
X589250Y338750D02*
D03*
X423500Y509250D02*
D03*
X1083000Y801250D02*
D03*
X1065500Y819250D02*
D03*
X1081750Y818750D02*
D03*
X1065500Y780500D02*
D03*
X1065250Y756750D02*
D03*
X1069250Y731750D02*
D03*
X1070750Y709250D02*
D03*
X1025750Y643917D02*
D03*
X1040625Y658625D02*
D03*
X1055500Y673333D02*
D03*
X1070375Y688042D02*
D03*
X935550Y630750D02*
D03*
X954600D02*
D03*
X973650D02*
D03*
X992700D02*
D03*
X1011750D02*
D03*
X798000Y602250D02*
D03*
X778586Y548635D02*
D03*
X810500Y524500D02*
D03*
X827250Y541000D02*
D03*
X842125Y555708D02*
D03*
X857000Y570417D02*
D03*
X871875Y585125D02*
D03*
X886750Y599833D02*
D03*
X901625Y614542D02*
D03*
X916500Y630000D02*
D03*
X1060750Y843000D02*
D03*
X1033500Y770750D02*
D03*
X1033250Y749750D02*
D03*
X1020000Y724250D02*
D03*
Y705000D02*
D03*
X1019500Y685500D02*
D03*
X1009500Y673750D02*
D03*
X998000Y662500D02*
D03*
X978950D02*
D03*
X959900D02*
D03*
X940850D02*
D03*
X921800D02*
D03*
X902750D02*
D03*
X887875Y647042D02*
D03*
X873000Y632333D02*
D03*
X858125Y617625D02*
D03*
X843250Y602917D02*
D03*
X828375Y588208D02*
D03*
X813500Y573500D02*
D03*
X803250Y936000D02*
D03*
X811500Y1000250D02*
D03*
X1192000Y551750D02*
D03*
X1199000Y382250D02*
D03*
X1763250Y904250D02*
D03*
X1766750Y1092000D02*
D03*
X1765500Y1008250D02*
D03*
X1772250Y642250D02*
D03*
X1770500Y513000D02*
D03*
X1122750Y315750D02*
D03*
X1429250Y341500D02*
D03*
X1543750Y352750D02*
D03*
X1634000Y358000D02*
D03*
X1643350Y782750D02*
D03*
X1664650D02*
D03*
X1685950D02*
D03*
X1622050D02*
D03*
X1600750Y782750D02*
D03*
X1152500Y423000D02*
D03*
X1139000Y453750D02*
D03*
X1152250Y453500D02*
D03*
X1191000Y523000D02*
D03*
X1284750Y384250D02*
D03*
X1138000Y422750D02*
D03*
X1164750Y467250D02*
D03*
X1275000Y630250D02*
D03*
X1252875D02*
D03*
X1230750D02*
D03*
X1213000Y616250D02*
D03*
X1173250Y407250D02*
D03*
X1583500Y693000D02*
D03*
X1543000Y643750D02*
D03*
X1441750Y612000D02*
D03*
X1379000Y612500D02*
D03*
X1320250D02*
D03*
X1580500Y434000D02*
D03*
X1530000D02*
D03*
X1585750Y525250D02*
D03*
X1617250Y669250D02*
D03*
X1614500Y642250D02*
D03*
X1586250Y490000D02*
D03*
X1616500Y473750D02*
D03*
X1616250Y486250D02*
D03*
X1616750Y505250D02*
D03*
X1575000Y504000D02*
D03*
X1551000Y503250D02*
D03*
X1525000Y499250D02*
D03*
X1503250Y504000D02*
D03*
X1481750Y486000D02*
D03*
X1470000Y486500D02*
D03*
X1491000Y503750D02*
D03*
X1461250Y502250D02*
D03*
X1445750Y499500D02*
D03*
X1413000Y486750D02*
D03*
X1412500Y467000D02*
D03*
X1430750Y500750D02*
D03*
X1477250Y589750D02*
D03*
X1443750Y529750D02*
D03*
X1424750Y529000D02*
D03*
X1217500Y542450D02*
D03*
X1213000Y560900D02*
D03*
Y579350D02*
D03*
Y597800D02*
D03*
X1295750Y643000D02*
D03*
X1323292D02*
D03*
X1350833D02*
D03*
X1378375D02*
D03*
X1405917D02*
D03*
X1433458D02*
D03*
X1461000D02*
D03*
X1480964Y662964D02*
D03*
X1500928Y682929D02*
D03*
X1520893Y702893D02*
D03*
X1540857Y722857D02*
D03*
X1560821Y742821D02*
D03*
X1580786Y762786D02*
D03*
X1198000Y504250D02*
D03*
X1187250Y415750D02*
D03*
X1203500Y404500D02*
D03*
X1219500Y404750D02*
D03*
X1743000Y613523D02*
D03*
Y640568D02*
D03*
Y667614D02*
D03*
Y694659D02*
D03*
Y721704D02*
D03*
Y586477D02*
D03*
Y559432D02*
D03*
Y532386D02*
D03*
Y505341D02*
D03*
Y478295D02*
D03*
Y451250D02*
D03*
X1645500Y510500D02*
D03*
X1639500Y482500D02*
D03*
X1652750Y660250D02*
D03*
X1639500Y705500D02*
D03*
X1662250Y729500D02*
D03*
X1687500Y705250D02*
D03*
X1339625Y577000D02*
D03*
X1323219D02*
D03*
X1306812D02*
D03*
X1290406D02*
D03*
X1508750Y374250D02*
D03*
X1541062D02*
D03*
X1573375D02*
D03*
X1605687D02*
D03*
X1638000D02*
D03*
X1670312D02*
D03*
X1702625D02*
D03*
X1444125D02*
D03*
X1411812D02*
D03*
X1379500D02*
D03*
X1347188D02*
D03*
X1314875D02*
D03*
X1423250Y430250D02*
D03*
X1423500Y404500D02*
D03*
X1476750Y388250D02*
D03*
X1474500Y430500D02*
D03*
X1450750Y388000D02*
D03*
X1451000Y432750D02*
D03*
X1434500Y449000D02*
D03*
X1432250Y466500D02*
D03*
X1465250Y534000D02*
D03*
X1456250Y524500D02*
D03*
X1410750Y531250D02*
D03*
X1458250Y590250D02*
D03*
X1637250Y520750D02*
D03*
X1611000Y549250D02*
D03*
X1593000Y549000D02*
D03*
X1593500Y591000D02*
D03*
X1611500Y591250D02*
D03*
X1423000Y590250D02*
D03*
X1407250Y590000D02*
D03*
X1372437Y577000D02*
D03*
X1388844D02*
D03*
X1405250D02*
D03*
X1440500Y590000D02*
D03*
X1689500Y433000D02*
D03*
X1636750Y433250D02*
D03*
X1663250Y404500D02*
D03*
X1646000Y523000D02*
D03*
X1645500Y631011D02*
D03*
X1688250Y659500D02*
D03*
Y614500D02*
D03*
X1548250Y597500D02*
D03*
X1532750Y527250D02*
D03*
X1340500Y543000D02*
D03*
X1322750D02*
D03*
X1305000D02*
D03*
X1287250D02*
D03*
X1338000Y465500D02*
D03*
X1322000D02*
D03*
X1306000D02*
D03*
X1290000D02*
D03*
X1458750Y552500D02*
D03*
X1442250D02*
D03*
X1433929Y538301D02*
D03*
X1419263Y538117D02*
D03*
X1547250Y543000D02*
D03*
X1627536Y630924D02*
D03*
X1629224Y514329D02*
D03*
X1606500Y503250D02*
D03*
X1591000Y503000D02*
D03*
X1598750Y495750D02*
D03*
X692000Y908250D02*
D03*
X718250Y908000D02*
D03*
Y885750D02*
D03*
X745750Y897500D02*
D03*
X735250Y909500D02*
D03*
X1007500Y983250D02*
D03*
X967500Y945250D02*
D03*
X1185250Y766500D02*
D03*
X1184500Y756750D02*
D03*
X1185250Y743500D02*
D03*
X1050500Y891000D02*
D03*
X1041250D02*
D03*
X1032750D02*
D03*
X1062250Y949000D02*
D03*
Y962050D02*
D03*
X1054000Y955500D02*
D03*
Y968250D02*
D03*
X1108500Y975250D02*
D03*
X1016750Y979250D02*
D03*
X1025750Y980500D02*
D03*
X1018500Y908750D02*
D03*
X1128000Y886250D02*
D03*
X1216500Y487500D02*
D03*
X630250Y757500D02*
D03*
Y810500D02*
D03*
X630500Y864000D02*
D03*
X604500Y757500D02*
D03*
Y810500D02*
D03*
X602000Y863750D02*
D03*
X691750Y886250D02*
D03*
X719250Y924750D02*
D03*
X711250D02*
D03*
X630500Y924500D02*
D03*
X638250D02*
D03*
X718250Y865750D02*
D03*
X692250Y872000D02*
D03*
X690000Y806750D02*
D03*
X690250Y813250D02*
D03*
X718750Y813750D02*
D03*
Y807000D02*
D03*
X1617000Y954750D02*
D03*
X1591750Y955250D02*
D03*
X1044000Y717000D02*
D03*
Y707500D02*
D03*
X1266500Y585000D02*
D03*
X1249000D02*
D03*
X1688000Y479750D02*
D03*
X1629000Y591000D02*
D03*
X1505500Y526750D02*
D03*
X1490500D02*
D03*
X1356031Y577000D02*
D03*
X1354000Y565000D02*
D03*
Y550000D02*
D03*
Y535000D02*
D03*
Y520000D02*
D03*
X1274000Y577000D02*
D03*
Y565000D02*
D03*
Y550000D02*
D03*
Y535000D02*
D03*
Y520000D02*
D03*
X1354000Y420000D02*
D03*
Y435000D02*
D03*
Y450000D02*
D03*
X1354000Y465500D02*
D03*
X1354000Y480000D02*
D03*
Y495000D02*
D03*
X1274000D02*
D03*
Y480000D02*
D03*
Y465500D02*
D03*
Y450000D02*
D03*
Y435000D02*
D03*
Y420000D02*
D03*
X1234000Y585000D02*
D03*
Y570000D02*
D03*
Y555000D02*
D03*
Y540000D02*
D03*
Y525000D02*
D03*
Y510000D02*
D03*
X1218000Y524000D02*
D03*
X1201500Y487500D02*
D03*
X1188250Y487500D02*
D03*
X1234000Y450000D02*
D03*
Y420000D02*
D03*
Y405000D02*
D03*
X1249000Y507500D02*
D03*
X1264000D02*
D03*
X1279000D02*
D03*
X1294000D02*
D03*
X1309000D02*
D03*
X1324000D02*
D03*
X1339000D02*
D03*
X1354000D02*
D03*
X1369000D02*
D03*
X1384000D02*
D03*
X1395500Y494750D02*
D03*
Y479750D02*
D03*
Y464750D02*
D03*
X1395000Y449750D02*
D03*
X1395500Y434750D02*
D03*
Y419750D02*
D03*
Y404750D02*
D03*
X1384000Y405000D02*
D03*
X1369000D02*
D03*
X1354000D02*
D03*
X1339000D02*
D03*
X1324000D02*
D03*
X1309000D02*
D03*
X1294000D02*
D03*
X1279000D02*
D03*
X1264000D02*
D03*
X1249000D02*
D03*
X1490250Y539750D02*
D03*
X1495500Y551500D02*
D03*
X1502000Y590500D02*
D03*
X1487250Y590750D02*
D03*
X1617332Y658716D02*
D03*
X1618750Y623000D02*
D03*
X1638298Y658929D02*
D03*
X1552250Y525500D02*
D03*
X1572250D02*
D03*
X1645500Y603250D02*
D03*
X1645750Y590000D02*
D03*
Y536000D02*
D03*
X1688250Y494500D02*
D03*
Y509500D02*
D03*
Y524500D02*
D03*
Y539500D02*
D03*
Y554500D02*
D03*
Y644500D02*
D03*
Y629500D02*
D03*
X1645500Y617250D02*
D03*
X1688250Y599500D02*
D03*
Y584500D02*
D03*
X1358500Y544750D02*
D03*
X1404000Y539250D02*
D03*
X1040000Y1154000D02*
D03*
X1021000D02*
D03*
X1011000Y1142000D02*
D03*
X1007000Y1118000D02*
D03*
X1048000Y1142000D02*
D03*
X1047000Y1039000D02*
D03*
X558000Y1115000D02*
D03*
X863500Y721750D02*
D03*
X773500Y709500D02*
D03*
X881750Y973000D02*
D03*
X893500Y960250D02*
D03*
X1002500Y897500D02*
D03*
X990750Y896250D02*
D03*
X797250Y812000D02*
D03*
X796500Y822500D02*
D03*
X982250Y886500D02*
D03*
X972000Y887170D02*
D03*
X445500Y395750D02*
D03*
X763500Y372250D02*
D03*
X874750Y314250D02*
D03*
X892500Y284750D02*
D03*
X1072000Y978750D02*
D03*
X1068000Y993750D02*
D03*
X1464250Y380500D02*
D03*
X1213250Y897250D02*
D03*
X1213750Y883500D02*
D03*
X1489500Y379500D02*
D03*
X1393750Y965250D02*
D03*
X1404750Y952750D02*
D03*
Y985250D02*
D03*
X1404250Y1018500D02*
D03*
Y1050500D02*
D03*
X1403250Y1083500D02*
D03*
Y1099500D02*
D03*
X1403500Y1133000D02*
D03*
X1403250Y1116250D02*
D03*
Y1067500D02*
D03*
X1403750Y1034500D02*
D03*
X1404000Y1002000D02*
D03*
X1394500Y998750D02*
D03*
X1394250Y1033000D02*
D03*
X1394500Y1067000D02*
D03*
X1394750Y1100500D02*
D03*
X1394500Y1133000D02*
D03*
X1346500Y975000D02*
D03*
X1346000Y1009000D02*
D03*
Y1043000D02*
D03*
Y1076750D02*
D03*
X1346500Y1110000D02*
D03*
X1346250Y1142750D02*
D03*
X1590500Y1141500D02*
D03*
X1616250Y1141000D02*
D03*
X1493000Y1073750D02*
D03*
X1175750Y954750D02*
D03*
X1183000Y886250D02*
D03*
X1057250Y884750D02*
D03*
X1186750Y776750D02*
D03*
X1123000Y1072250D02*
D03*
X1180000Y1169750D02*
D03*
X998250Y1169000D02*
D03*
X1707750Y769500D02*
D03*
X1728000Y749000D02*
D03*
X1173250Y507250D02*
D03*
X1713250Y435750D02*
D03*
X1702500Y391750D02*
D03*
X633000Y935250D02*
D03*
X705000Y843000D02*
D03*
X753000Y888250D02*
D03*
X800500Y870750D02*
D03*
X672000Y773000D02*
D03*
X758000Y812000D02*
D03*
X634500Y735250D02*
D03*
X604250Y704250D02*
D03*
X517750Y699750D02*
D03*
X549250Y722250D02*
D03*
X430750Y699000D02*
D03*
X606250Y673000D02*
D03*
X451750Y468000D02*
D03*
X508250Y469500D02*
D03*
X538750Y532750D02*
D03*
X595500Y588500D02*
D03*
X637750Y628500D02*
D03*
X564750Y470000D02*
D03*
X523750Y421000D02*
D03*
X470750Y424500D02*
D03*
X640000Y366000D02*
D03*
X541500Y283500D02*
D03*
X781500Y662000D02*
D03*
X932250Y698750D02*
D03*
X720500Y776250D02*
D03*
X779000Y750250D02*
D03*
X941500Y875500D02*
D03*
X754750Y549500D02*
D03*
X625000Y558500D02*
D03*
X798500Y344750D02*
D03*
X834250Y350250D02*
D03*
X847750Y444000D02*
D03*
X917750Y400250D02*
D03*
X925750Y603000D02*
D03*
X1106000Y577250D02*
D03*
X1115500Y521250D02*
D03*
X1093750Y357500D02*
D03*
X948500Y363500D02*
D03*
X1048750D02*
D03*
X989500Y454250D02*
D03*
X859750Y484750D02*
D03*
X954500Y533500D02*
D03*
X1056000D02*
D03*
X1016250Y605500D02*
D03*
X976250D02*
D03*
X1212500Y641000D02*
D03*
X1300500Y665250D02*
D03*
X1375500Y664750D02*
D03*
X1448250D02*
D03*
X1130000Y873750D02*
D03*
X1105000Y895250D02*
D03*
X1129250Y903500D02*
D03*
X1168750Y1001750D02*
D03*
X1154750Y983000D02*
D03*
X1089250Y1025750D02*
D03*
X1205500Y951750D02*
D03*
X1205000Y980000D02*
D03*
X1323500Y686750D02*
D03*
X1247500Y763750D02*
D03*
X1455500Y686750D02*
D03*
X1522250Y735000D02*
D03*
X1586000Y800250D02*
D03*
X960250Y888500D02*
D03*
X1055750Y1050250D02*
D03*
X1109250Y1184500D02*
D03*
X1189750Y1100250D02*
D03*
X651500Y1238250D02*
D03*
X717750Y1237000D02*
D03*
X809500Y1231750D02*
D03*
X821000Y1178250D02*
D03*
X581750Y1238750D02*
D03*
X449750Y1214250D02*
D03*
X385500Y1319500D02*
D03*
X484750Y1320750D02*
D03*
X609000Y1321250D02*
D03*
X231750Y1202000D02*
D03*
X233500Y945750D02*
D03*
X231250Y1073750D02*
D03*
X233000Y663500D02*
D03*
X234500Y434500D02*
D03*
X378500Y285500D02*
D03*
X232000Y555250D02*
D03*
X1666500Y945750D02*
D03*
X1665750Y1140000D02*
D03*
X543000Y938000D02*
D03*
X635500Y1040500D02*
D03*
X486000Y956250D02*
D03*
X564250Y1031750D02*
D03*
X594250Y1061250D02*
D03*
X463250Y1068000D02*
D03*
X450250Y1181750D02*
D03*
X1544500Y1165250D02*
D03*
X1190500Y1141250D02*
D03*
X1298250Y1129250D02*
D03*
X1497750Y908250D02*
D03*
X1519250Y1038750D02*
D03*
X1450750Y793750D02*
D03*
X1256500Y833250D02*
D03*
X1308750Y832500D02*
D03*
X1332250Y893000D02*
D03*
X1500750Y856500D02*
D03*
X1565000Y904750D02*
D03*
X1604200Y955000D02*
D03*
X1218750Y1071500D02*
D03*
X951500Y1302750D02*
D03*
X854750Y1312250D02*
D03*
X1356750Y931000D02*
D03*
X1263000Y898000D02*
D03*
X1201000Y830500D02*
D03*
X1428000Y1169750D02*
D03*
X1513500Y966500D02*
D03*
X1007500Y1265250D02*
D03*
X1274750Y1055250D02*
D03*
X1203000Y1165000D02*
D03*
X1138250Y1147500D02*
D03*
X867250Y1115750D02*
D03*
X1604000Y1078750D02*
D03*
X1635500Y1235500D02*
D03*
X1501250Y1247250D02*
D03*
X1534750Y1242500D02*
D03*
X1221250Y785000D02*
D03*
X1229500Y747750D02*
D03*
X1208750Y704750D02*
D03*
X1195000Y572750D02*
D03*
X1194500Y623750D02*
D03*
X1352500Y352500D02*
D03*
X1429000Y355500D02*
D03*
X722750Y601750D02*
D03*
X648000Y1078000D02*
D03*
X589750Y1136750D02*
D03*
X837250Y1075000D02*
D03*
X1325500Y792500D02*
D03*
X1256000Y810750D02*
D03*
X733500Y932500D02*
D03*
X513250Y558750D02*
D03*
X725500Y500000D02*
D03*
X804000Y382250D02*
D03*
X982500Y1208250D02*
D03*
X1109000Y914750D02*
D03*
X1067000Y905000D02*
D03*
X1071500Y922500D02*
D03*
X1072500Y938000D02*
D03*
X1072802Y945546D02*
D03*
X1296000Y864250D02*
D03*
X1122750Y975500D02*
D03*
X1476072Y374268D02*
D03*
X1636500Y580750D02*
D03*
X1637250Y554000D02*
D03*
X1627079Y549027D02*
D03*
X1646580Y547027D02*
D03*
X1025050Y900794D02*
D03*
X1058552Y901044D02*
D03*
X1404750Y971250D02*
D03*
X1228500Y776500D02*
D03*
X1069552Y930045D02*
D03*
D156*
X1167998Y557248D02*
D03*
X1156500Y395500D02*
D03*
X1030000Y849750D02*
D03*
X1018500D02*
D03*
X1003750Y850250D02*
D03*
X1007500Y1002750D02*
D03*
X994750Y999750D02*
D03*
X872250Y361250D02*
D03*
Y371250D02*
D03*
Y385750D02*
D03*
Y396750D02*
D03*
X885000D02*
D03*
X885250Y371250D02*
D03*
X1102500Y497250D02*
D03*
X1478000Y843250D02*
D03*
X1477750Y867500D02*
D03*
X786500Y993000D02*
D03*
X809250Y973000D02*
D03*
X798500Y983000D02*
D03*
X926750Y1036250D02*
D03*
X928500Y1022000D02*
D03*
X1329250Y833500D02*
D03*
X1298250Y845500D02*
D03*
X1663000Y1016000D02*
D03*
X1677000Y1004000D02*
D03*
X265750Y1234500D02*
D03*
X482750Y1168250D02*
D03*
X416250Y1269000D02*
D03*
X1349500Y1259750D02*
D03*
X1304000Y1260250D02*
D03*
X1345250Y1202000D02*
D03*
X1426500Y1201250D02*
D03*
X1429250Y1259250D02*
D03*
X1384250Y1259500D02*
D03*
X1330250Y1241750D02*
D03*
X1411500Y1242250D02*
D03*
X1297750Y1178000D02*
D03*
X1226000Y1191500D02*
D03*
Y1164500D02*
D03*
X1662250Y1209500D02*
D03*
X1675000Y1197750D02*
D03*
X1538000Y1043750D02*
D03*
X1524250Y1055848D02*
D03*
X1052000Y1294250D02*
D03*
X1143500Y1285250D02*
D03*
X1191500Y1278750D02*
D03*
X1516750Y1183750D02*
D03*
X1573500Y1142750D02*
D03*
X1570750Y1204250D02*
D03*
X842500Y1266500D02*
D03*
X844000Y1223750D02*
D03*
X556250Y1268250D02*
D03*
X501500Y1268750D02*
D03*
X592250Y1269000D02*
D03*
X773500Y1260750D02*
D03*
X986500Y1058750D02*
D03*
X844000Y1182750D02*
D03*
X880000Y1236500D02*
D03*
X993500Y1049750D02*
D03*
X1001500Y1042000D02*
D03*
X1267250Y1178500D02*
D03*
X1267500Y1153750D02*
D03*
X602250Y442250D02*
D03*
X759000Y865250D02*
D03*
X766500Y856000D02*
D03*
X832000Y752500D02*
D03*
X845250Y766250D02*
D03*
X862250Y765500D02*
D03*
X774000Y696750D02*
D03*
X813000D02*
D03*
X908500Y798750D02*
D03*
X914000Y361000D02*
D03*
Y370000D02*
D03*
X809250Y418000D02*
D03*
X800250D02*
D03*
X821750Y406250D02*
D03*
X914000Y379250D02*
D03*
X768500Y399250D02*
D03*
X768250Y445250D02*
D03*
X709250Y368750D02*
D03*
X602000Y397750D02*
D03*
X624500Y397500D02*
D03*
X624250Y442250D02*
D03*
X867750Y457750D02*
D03*
X422250Y637250D02*
D03*
X475250Y637750D02*
D03*
X646500Y1138750D02*
D03*
X646250Y1116250D02*
D03*
X670250D02*
D03*
X747000Y1116500D02*
D03*
X723500Y1116000D02*
D03*
X610000Y1109750D02*
D03*
X585750D02*
D03*
X528000Y1108000D02*
D03*
X504025Y1107804D02*
D03*
X505250Y1134000D02*
D03*
X528276Y1151056D02*
D03*
X506000Y1151250D02*
D03*
X647000Y1156500D02*
D03*
X670000Y1155750D02*
D03*
X484250Y1083500D02*
D03*
X487000Y1068000D02*
D03*
X393500Y465250D02*
D03*
X386500Y1235000D02*
D03*
X322750Y1268250D02*
D03*
X1562750Y1189750D02*
D03*
X920500Y1004000D02*
D03*
X1072500Y854000D02*
D03*
X1035051Y1038301D02*
D03*
X1165000Y571250D02*
D03*
X1102500Y478250D02*
D03*
Y487855D02*
D03*
X1160000Y628250D02*
D03*
X1213500Y938250D02*
D03*
X1214000Y842750D02*
D03*
X1119750Y877500D02*
D03*
X1092000Y1274500D02*
D03*
X922795Y1051301D02*
D03*
X1101554Y1000549D02*
D03*
X864792Y740286D02*
D03*
D157*
X643250Y668250D02*
D03*
X653250Y656250D02*
D03*
X1110000Y778250D02*
D03*
X1109500Y799500D02*
D03*
Y821250D02*
D03*
X1124500Y804500D02*
D03*
X1124250Y789000D02*
D03*
X1130400Y773250D02*
D03*
Y756750D02*
D03*
X1109250Y732750D02*
D03*
X987250Y686000D02*
D03*
Y698000D02*
D03*
Y733750D02*
D03*
X975000D02*
D03*
Y697750D02*
D03*
X946000Y686250D02*
D03*
X946250Y698250D02*
D03*
Y734250D02*
D03*
X958250Y734000D02*
D03*
Y698000D02*
D03*
X1251500Y1013250D02*
D03*
X1265500Y1013000D02*
D03*
X1302500Y1013500D02*
D03*
X1302750Y1001250D02*
D03*
X1265250D02*
D03*
X1251250Y972500D02*
D03*
X1265750Y972750D02*
D03*
X1303000Y972500D02*
D03*
Y984500D02*
D03*
X1265500D02*
D03*
X1225750Y691000D02*
D03*
X1240750D02*
D03*
X1277000Y690500D02*
D03*
X1277250Y677750D02*
D03*
X1240500Y678000D02*
D03*
X1241500Y661000D02*
D03*
X1225750Y648750D02*
D03*
X1241750D02*
D03*
X1278000Y648500D02*
D03*
X1277750Y661250D02*
D03*
X721000Y974000D02*
D03*
X736750Y974250D02*
D03*
X735750Y1021000D02*
D03*
X721750Y1020750D02*
D03*
X706250Y1021250D02*
D03*
X690500Y1020750D02*
D03*
X656250Y1020500D02*
D03*
X656000Y1007500D02*
D03*
X690500Y1008000D02*
D03*
X721500D02*
D03*
X690000Y986750D02*
D03*
X721000D02*
D03*
X705750Y974000D02*
D03*
X690250D02*
D03*
X673250D02*
D03*
X656250D02*
D03*
X656500Y987000D02*
D03*
X919750Y851250D02*
D03*
Y839500D02*
D03*
X901500Y839250D02*
D03*
X883750Y839000D02*
D03*
X867000D02*
D03*
X849500Y838750D02*
D03*
X834250D02*
D03*
X817500Y838500D02*
D03*
X817750Y850750D02*
D03*
X961000Y1152250D02*
D03*
X949000Y1152000D02*
D03*
X949250Y1139000D02*
D03*
X1182500Y1028250D02*
D03*
X1182750Y1015750D02*
D03*
X1164750D02*
D03*
X1131750Y1057000D02*
D03*
X1146500D02*
D03*
X1164750Y1057500D02*
D03*
X1178000Y1057750D02*
D03*
X1188750D02*
D03*
X1189000Y1045750D02*
D03*
X1178250D02*
D03*
X1103304Y1089553D02*
D03*
X1103250Y1106250D02*
D03*
X1103000Y1129250D02*
D03*
X1102750Y1144000D02*
D03*
X1102500Y1156250D02*
D03*
X1089500D02*
D03*
Y1143750D02*
D03*
X990500Y1090250D02*
D03*
Y1104750D02*
D03*
Y1123000D02*
D03*
Y1136250D02*
D03*
X990650Y1147000D02*
D03*
X978500D02*
D03*
X888500Y1044250D02*
D03*
X868500D02*
D03*
X847500D02*
D03*
X827500Y1044000D02*
D03*
X827750Y1030750D02*
D03*
X912000Y1220750D02*
D03*
X933750Y1257750D02*
D03*
X908500Y1232000D02*
D03*
Y1245000D02*
D03*
X896750Y1244750D02*
D03*
X921750Y1244250D02*
D03*
Y1231750D02*
D03*
X946500D02*
D03*
X946250Y1244750D02*
D03*
X934250D02*
D03*
X1412000Y881750D02*
D03*
X1399250Y867250D02*
D03*
X828000Y1002000D02*
D03*
X843000D02*
D03*
X437500Y732500D02*
D03*
Y747500D02*
D03*
Y762500D02*
D03*
Y777500D02*
D03*
Y792500D02*
D03*
Y807500D02*
D03*
Y822500D02*
D03*
Y837500D02*
D03*
Y852500D02*
D03*
Y867500D02*
D03*
X450000Y875000D02*
D03*
Y860000D02*
D03*
Y845000D02*
D03*
Y830000D02*
D03*
Y815000D02*
D03*
Y800000D02*
D03*
Y785000D02*
D03*
Y770000D02*
D03*
Y755000D02*
D03*
Y740000D02*
D03*
Y725000D02*
D03*
X427500Y1065000D02*
D03*
X442500D02*
D03*
X427500Y1050000D02*
D03*
X442500D02*
D03*
X427500Y1000000D02*
D03*
X442500D02*
D03*
X427500Y985000D02*
D03*
X442500D02*
D03*
X427500Y970000D02*
D03*
X442500D02*
D03*
X427500Y955000D02*
D03*
X442500D02*
D03*
X252500Y1095000D02*
D03*
Y1110000D02*
D03*
X352500Y1030000D02*
D03*
Y1015000D02*
D03*
Y1000000D02*
D03*
Y985000D02*
D03*
Y970000D02*
D03*
X367500Y985000D02*
D03*
Y970000D02*
D03*
X337500Y955000D02*
D03*
X352500D02*
D03*
X367500D02*
D03*
X834000Y882000D02*
D03*
X818000D02*
D03*
X1081000Y765000D02*
D03*
X828000Y1014000D02*
D03*
X1060000Y1134000D02*
D03*
Y1149000D02*
D03*
X1073000D02*
D03*
X818000Y871000D02*
D03*
X734500Y664250D02*
D03*
X734250Y653500D02*
D03*
X734000Y643000D02*
D03*
X1052750Y312250D02*
D03*
X1064500Y312000D02*
D03*
X1040750D02*
D03*
X1046500Y300500D02*
D03*
X1058500Y300833D02*
D03*
X1095000Y747000D02*
D03*
X1081000D02*
D03*
X1123805Y820540D02*
D03*
D158*
X279250Y1197000D02*
D03*
D159*
X628500Y1172200D02*
D03*
X516250Y932750D02*
D03*
D160*
X664872Y326000D02*
D03*
X681000D02*
D03*
X581122Y326500D02*
D03*
X597250D02*
D03*
X827372Y335000D02*
D03*
X843500D02*
D03*
X338872Y1268500D02*
D03*
X355000D02*
D03*
X517622Y1268750D02*
D03*
X533750D02*
D03*
X607372D02*
D03*
X623500D02*
D03*
X430872Y1269000D02*
D03*
X447000D02*
D03*
D161*
X1556500Y1143500D02*
D03*
X1516500D02*
D03*
Y1223500D02*
D03*
X1556500D02*
D03*
D162*
X1360500Y1260000D02*
D03*
X1330500D02*
D03*
X1315500D02*
D03*
Y1202000D02*
D03*
X1330500D02*
D03*
X1360500D02*
D03*
X1441000Y1251000D02*
D03*
X1411000D02*
D03*
X1396000D02*
D03*
Y1193000D02*
D03*
X1411000D02*
D03*
X1441000D02*
D03*
D163*
X926000Y337500D02*
D03*
X951400D02*
D03*
X976800D02*
D03*
X1002200D02*
D03*
X1027600D02*
D03*
X1053000D02*
D03*
Y571500D02*
D03*
X1027600D02*
D03*
X1002200D02*
D03*
X976800D02*
D03*
X951400D02*
D03*
X926000D02*
D03*
M02*
