G04 Layer_Physical_Order=4*
G04 Layer_Color=16711680*
%FSLAX44Y44*%
%MOMM*%
G71*
G01*
G75*
%ADD10R,1.0160X1.1176*%
%ADD13R,1.1176X1.0160*%
%ADD22R,1.0000X1.0000*%
%ADD33R,0.8000X1.0000*%
%ADD46C,0.5000*%
%ADD47C,1.0000*%
%ADD48C,0.4000*%
%ADD49C,0.3000*%
%ADD50C,2.0000*%
%ADD51C,0.2540*%
%ADD53C,0.2800*%
%ADD54C,0.2000*%
%ADD56C,7.0000*%
%ADD57C,4.0000*%
%ADD58R,1.5000X1.5000*%
%ADD59C,1.5000*%
%ADD60C,2.0000*%
%ADD61C,0.8000*%
%ADD62C,0.8130*%
%ADD63C,2.8000*%
%ADD64O,1.5000X2.5000*%
%ADD65C,3.5000*%
%ADD66C,1.7000*%
%ADD67O,1.7000X1.5000*%
%ADD68C,0.9000*%
%ADD69R,1.5000X2.5000*%
%ADD70O,1.5000X2.5000*%
%ADD71C,4.5000*%
%ADD72C,0.6000*%
%ADD73C,1.0000*%
%ADD74C,1.2700*%
%ADD75R,0.8128X0.8128*%
%ADD76R,1.0000X5.0000*%
%ADD77R,0.8000X2.0000*%
%ADD78R,2.2900X3.5000*%
%ADD79C,0.1500*%
G36*
X568370Y1144453D02*
X569735Y1144181D01*
X638102D01*
X639062Y1143101D01*
X640667Y1140181D01*
X640383Y1138750D01*
X640848Y1136409D01*
X642174Y1134424D01*
X644159Y1133098D01*
X646500Y1132633D01*
X648841Y1133098D01*
X650826Y1134424D01*
X652152Y1136409D01*
X652617Y1138750D01*
X652333Y1140181D01*
X653938Y1143101D01*
X654898Y1144181D01*
X754250D01*
X755616Y1144453D01*
X756706Y1144063D01*
X759184Y1142182D01*
X758896Y1140000D01*
X759309Y1136867D01*
X760518Y1133948D01*
X762441Y1131441D01*
X764948Y1129518D01*
X767867Y1128309D01*
X771000Y1127896D01*
X774133Y1128309D01*
X776850Y1129435D01*
X781643Y1124642D01*
X782724Y1123920D01*
X784000Y1123666D01*
X870369D01*
X920005Y1074030D01*
X918475Y1070334D01*
X894625D01*
X893267Y1074334D01*
X894059Y1074941D01*
X895982Y1077448D01*
X897191Y1080367D01*
X897604Y1083500D01*
X897191Y1086633D01*
X895982Y1089552D01*
X894059Y1092058D01*
X891552Y1093982D01*
X888633Y1095191D01*
X885500Y1095603D01*
X882367Y1095191D01*
X879448Y1093982D01*
X876942Y1092058D01*
X875018Y1089552D01*
X873809Y1086633D01*
X873396Y1083500D01*
X873809Y1080367D01*
X875018Y1077448D01*
X876942Y1074941D01*
X877733Y1074334D01*
X876375Y1070334D01*
X823496D01*
X820884Y1074334D01*
X821104Y1076000D01*
X820691Y1079133D01*
X819482Y1082052D01*
X817559Y1084558D01*
X815052Y1086482D01*
X812133Y1087691D01*
X809000Y1088104D01*
X805867Y1087691D01*
X802948Y1086482D01*
X800442Y1084558D01*
X798518Y1082052D01*
X797309Y1079133D01*
X796897Y1076000D01*
X797116Y1074334D01*
X794504Y1070334D01*
X617381D01*
X563334Y1124381D01*
Y1143448D01*
X566819Y1145046D01*
X567334Y1145145D01*
X568370Y1144453D01*
D02*
G37*
G36*
X1208785Y884168D02*
X1208652Y883500D01*
X1209040Y881549D01*
X1210145Y879895D01*
X1211799Y878790D01*
X1213750Y878402D01*
X1214418Y878535D01*
X1230931Y862022D01*
Y815511D01*
X1228448Y814482D01*
X1225941Y812559D01*
X1224018Y810052D01*
X1222809Y807133D01*
X1222396Y804000D01*
X1222809Y800867D01*
X1224018Y797948D01*
X1225941Y795442D01*
X1228448Y793518D01*
X1231367Y792309D01*
X1234500Y791896D01*
X1237633Y792309D01*
X1240552Y793518D01*
X1243058Y795442D01*
X1244982Y797948D01*
X1246191Y800867D01*
X1246604Y804000D01*
X1246191Y807133D01*
X1244982Y810052D01*
X1243058Y812559D01*
X1240552Y814482D01*
X1238069Y815511D01*
Y861978D01*
X1241973Y863730D01*
X1269181Y836522D01*
Y810702D01*
X1267691Y809558D01*
X1265768Y807052D01*
X1264559Y804133D01*
X1264251Y801798D01*
X1242522Y780069D01*
X1232129D01*
X1232105Y780105D01*
X1230451Y781210D01*
X1228500Y781598D01*
X1226549Y781210D01*
X1224895Y780105D01*
X1224075Y778878D01*
X1222989Y778314D01*
X1219568Y777729D01*
X1124094Y873202D01*
X1125402Y875159D01*
X1125867Y877500D01*
X1127844Y880885D01*
X1128875Y881326D01*
X1129951Y881540D01*
X1131605Y882645D01*
X1131629Y882681D01*
X1179371D01*
X1179395Y882645D01*
X1181049Y881540D01*
X1183000Y881152D01*
X1184951Y881540D01*
X1186605Y882645D01*
X1187710Y884299D01*
X1188098Y886250D01*
X1187710Y888201D01*
X1186605Y889855D01*
X1184951Y890960D01*
X1183000Y891348D01*
X1181049Y890960D01*
X1179395Y889855D01*
X1179371Y889819D01*
X1131629D01*
X1131605Y889855D01*
X1129951Y890960D01*
X1128000Y891348D01*
X1126049Y890960D01*
X1124395Y889855D01*
X1123290Y888201D01*
X1123043Y886960D01*
X1122856Y886212D01*
X1120018Y883841D01*
X1119363Y883540D01*
X1117409Y883152D01*
X1115424Y881826D01*
X1114805Y880899D01*
X1111149Y879954D01*
X1110051Y879996D01*
X1075598Y914449D01*
X1075485Y915465D01*
X1077813Y918931D01*
X1174022D01*
X1208785Y884168D01*
D02*
G37*
G36*
X1306493Y1274397D02*
X1309065Y1272347D01*
X1309108Y1268267D01*
X1308331Y1267602D01*
X1305500Y1266069D01*
X1304000Y1266367D01*
X1301659Y1265902D01*
X1299674Y1264576D01*
X1298348Y1262591D01*
X1297883Y1260250D01*
X1298348Y1257909D01*
X1299674Y1255924D01*
X1301659Y1254598D01*
X1304000Y1254133D01*
X1305500Y1254431D01*
X1308331Y1252898D01*
X1309500Y1251898D01*
Y1248000D01*
X1320500D01*
X1321500Y1248000D01*
X1324500D01*
X1324598Y1244099D01*
X1324580Y1244000D01*
X1324133Y1241750D01*
X1324196Y1241433D01*
X1323935Y1240588D01*
X1321676Y1237567D01*
X1321317Y1237341D01*
X1321248Y1237310D01*
X1319722Y1236678D01*
X1318364Y1235636D01*
X1317322Y1234278D01*
X1316667Y1232697D01*
X1316444Y1231000D01*
X1316667Y1229303D01*
X1317322Y1227722D01*
X1318364Y1226364D01*
X1319722Y1225322D01*
X1321303Y1224667D01*
X1323000Y1224444D01*
X1324697Y1224667D01*
X1326278Y1225322D01*
X1327636Y1226364D01*
X1328678Y1227722D01*
X1329333Y1229303D01*
X1329556Y1231000D01*
X1329462Y1231711D01*
X1329761Y1233198D01*
X1332168Y1236014D01*
X1332591Y1236098D01*
X1334576Y1237424D01*
X1335902Y1239409D01*
X1336367Y1241750D01*
X1335920Y1244000D01*
X1335903Y1244096D01*
X1336500Y1248000D01*
X1336500Y1248000D01*
Y1268394D01*
X1339467Y1271077D01*
X1377800Y1267217D01*
X1378616Y1265913D01*
X1379396Y1263036D01*
X1378598Y1261841D01*
X1378132Y1259500D01*
X1378598Y1257159D01*
X1379924Y1255174D01*
X1381909Y1253848D01*
X1384250Y1253382D01*
X1386000Y1253730D01*
X1388133Y1252831D01*
X1390000Y1251599D01*
Y1239000D01*
X1401000D01*
X1402000Y1239000D01*
X1405000D01*
X1406455Y1239000D01*
X1407174Y1237924D01*
X1409159Y1236598D01*
X1411500Y1236133D01*
X1413841Y1236598D01*
X1415826Y1237924D01*
X1416544Y1239000D01*
X1417000D01*
X1417618Y1242250D01*
X1417510Y1242789D01*
X1417152Y1244591D01*
X1417000Y1244818D01*
Y1259249D01*
X1421000Y1262867D01*
X1508442Y1254062D01*
X1509500Y1250500D01*
X1509500Y1249935D01*
Y1196500D01*
X1512931D01*
Y1188415D01*
X1512424Y1188076D01*
X1511098Y1186091D01*
X1510632Y1183750D01*
X1511098Y1181409D01*
X1512424Y1179424D01*
X1513181Y1178918D01*
Y1170500D01*
X1509500D01*
Y1116500D01*
X1523500D01*
Y1170500D01*
X1520318D01*
Y1178918D01*
X1521076Y1179424D01*
X1522402Y1181409D01*
X1522867Y1183750D01*
X1522402Y1186091D01*
X1521076Y1188076D01*
X1520069Y1188749D01*
Y1196500D01*
X1523500D01*
Y1248525D01*
X1526790Y1252214D01*
X1775260Y1227194D01*
Y369694D01*
X1712286Y363606D01*
X1710579Y367224D01*
X1712052Y368698D01*
X1712605Y369524D01*
X1712799Y370500D01*
Y416444D01*
X1732806Y436451D01*
X1745000D01*
X1745975Y436645D01*
X1746802Y437198D01*
X1755052Y445448D01*
X1755605Y446274D01*
X1755799Y447250D01*
Y735250D01*
X1755605Y736225D01*
X1755052Y737052D01*
X1700552Y791552D01*
X1699725Y792105D01*
X1698750Y792299D01*
X1592250D01*
X1591275Y792105D01*
X1590448Y791552D01*
X1485198Y686302D01*
X1484645Y685475D01*
X1484451Y684500D01*
X1482056Y683088D01*
X1479080D01*
Y683088D01*
X1464920D01*
Y679069D01*
X1318228D01*
X1229729Y767568D01*
X1230314Y770989D01*
X1230878Y772076D01*
X1232105Y772895D01*
X1232129Y772931D01*
X1244000D01*
X1245366Y773203D01*
X1246523Y773977D01*
X1265154Y792608D01*
X1267691Y792441D01*
X1270198Y790518D01*
X1273117Y789309D01*
X1276250Y788896D01*
X1279383Y789309D01*
X1282302Y790518D01*
X1284809Y792441D01*
X1286732Y794948D01*
X1287941Y797867D01*
X1288354Y801000D01*
X1287941Y804133D01*
X1286732Y807052D01*
X1284809Y809558D01*
X1282302Y811482D01*
X1279383Y812691D01*
X1276319Y813094D01*
Y838000D01*
X1276047Y839366D01*
X1275273Y840523D01*
X1218299Y897498D01*
X1217960Y899201D01*
X1216855Y900855D01*
X1215201Y901960D01*
X1213498Y902299D01*
X1186814Y928983D01*
X1188285Y933168D01*
X1190718Y933486D01*
X1270227Y853977D01*
X1271384Y853203D01*
X1272750Y852931D01*
X1291555D01*
X1292233Y852043D01*
X1293327Y848931D01*
X1292598Y847841D01*
X1292132Y845500D01*
X1292598Y843159D01*
X1293924Y841174D01*
X1295909Y839848D01*
X1298250Y839382D01*
X1300591Y839848D01*
X1302576Y841174D01*
X1303902Y843159D01*
X1304368Y845500D01*
X1303902Y847841D01*
X1303173Y848931D01*
X1304267Y852043D01*
X1304945Y852931D01*
X1369449D01*
X1372171Y849553D01*
X1372231Y849330D01*
X1372267Y849061D01*
X1371896Y846250D01*
X1372309Y843117D01*
X1373518Y840198D01*
X1375441Y837691D01*
X1377948Y835768D01*
X1380867Y834559D01*
X1384000Y834146D01*
X1387133Y834559D01*
X1390052Y835768D01*
X1392558Y837691D01*
X1394482Y840198D01*
X1395691Y843117D01*
X1396104Y846250D01*
X1395691Y849383D01*
X1394905Y851281D01*
X1396234Y854196D01*
X1397238Y855281D01*
X1403100D01*
X1404466Y855553D01*
X1405623Y856327D01*
X1495273Y945977D01*
X1496047Y947134D01*
X1496319Y948500D01*
Y1069954D01*
X1496605Y1070145D01*
X1497710Y1071799D01*
X1498098Y1073750D01*
X1497710Y1075701D01*
X1496605Y1077355D01*
X1494951Y1078460D01*
X1493000Y1078848D01*
X1491049Y1078460D01*
X1489395Y1077355D01*
X1488290Y1075701D01*
X1487902Y1073750D01*
X1488290Y1071799D01*
X1489181Y1070465D01*
Y949978D01*
X1401622Y862419D01*
X1393128D01*
X1392523Y863023D01*
X1391366Y863797D01*
X1390000Y864069D01*
X1375750D01*
X1374384Y863797D01*
X1373227Y863023D01*
X1370272Y860069D01*
X1304030D01*
X1303380Y860506D01*
X1301062Y864069D01*
X1301098Y864250D01*
X1300710Y866201D01*
X1299605Y867855D01*
X1297951Y868960D01*
X1296000Y869348D01*
X1294049Y868960D01*
X1292395Y867855D01*
X1292371Y867819D01*
X1276978D01*
X1216205Y928592D01*
X1216117Y929558D01*
X1217049Y933405D01*
X1217826Y933924D01*
X1219152Y935909D01*
X1219618Y938250D01*
X1219152Y940591D01*
X1217826Y942576D01*
X1215841Y943902D01*
X1213500Y944368D01*
X1211159Y943902D01*
X1209174Y942576D01*
X1208655Y941799D01*
X1204808Y940867D01*
X1203842Y940955D01*
X1196023Y948773D01*
X1194866Y949547D01*
X1193500Y949819D01*
X1192134Y949547D01*
X1191488Y949115D01*
X1182809D01*
X1180566Y952633D01*
X1180523Y953115D01*
X1180848Y954750D01*
X1180460Y956701D01*
X1179355Y958355D01*
X1177701Y959460D01*
X1175750Y959848D01*
X1173799Y959460D01*
X1172145Y958355D01*
X1171040Y956701D01*
X1170787Y955429D01*
X1168109Y955570D01*
X1166529Y959483D01*
X1267228Y1060181D01*
X1391250D01*
X1392616Y1060453D01*
X1393773Y1061227D01*
X1394457Y1061911D01*
X1394500Y1061902D01*
X1394543Y1061911D01*
X1401140Y1055313D01*
X1402298Y1054539D01*
X1403664Y1054268D01*
X1458082D01*
X1458588Y1053045D01*
X1460111Y1051061D01*
X1462095Y1049538D01*
X1464406Y1048581D01*
X1466886Y1048254D01*
X1469366Y1048581D01*
X1471677Y1049538D01*
X1473661Y1051061D01*
X1475184Y1053045D01*
X1476142Y1055356D01*
X1476468Y1057836D01*
X1476142Y1060316D01*
X1475184Y1062627D01*
X1473661Y1064612D01*
X1471677Y1066135D01*
X1469366Y1067092D01*
X1466886Y1067418D01*
X1464406Y1067092D01*
X1462095Y1066135D01*
X1460111Y1064612D01*
X1458588Y1062627D01*
X1458082Y1061405D01*
X1409780D01*
X1407864Y1065405D01*
X1407960Y1065549D01*
X1408348Y1067500D01*
X1407960Y1069451D01*
X1406855Y1071105D01*
X1405201Y1072210D01*
X1403250Y1072598D01*
X1401299Y1072210D01*
X1398105Y1070605D01*
X1396451Y1071710D01*
X1394500Y1072098D01*
X1392549Y1071710D01*
X1390895Y1070605D01*
X1389790Y1068951D01*
X1389465Y1067319D01*
X1372272D01*
X1370615Y1071319D01*
X1392500Y1093203D01*
X1396227Y1089477D01*
X1397384Y1088703D01*
X1398750Y1088431D01*
X1454426D01*
X1455687Y1087363D01*
X1457509Y1084789D01*
X1457304Y1083236D01*
X1457631Y1080756D01*
X1458588Y1078445D01*
X1460111Y1076461D01*
X1462095Y1074938D01*
X1464406Y1073981D01*
X1466886Y1073654D01*
X1469366Y1073981D01*
X1471677Y1074938D01*
X1473661Y1076461D01*
X1475184Y1078445D01*
X1476142Y1080756D01*
X1476468Y1083236D01*
X1476142Y1085716D01*
X1475184Y1088027D01*
X1473661Y1090012D01*
X1471677Y1091535D01*
X1469366Y1092492D01*
X1466886Y1092818D01*
X1464406Y1092492D01*
X1463184Y1091985D01*
X1460646Y1094523D01*
X1459488Y1095297D01*
X1458122Y1095569D01*
X1411334D01*
X1410907Y1095819D01*
X1408348Y1099500D01*
X1407960Y1101451D01*
X1406855Y1103105D01*
X1405201Y1104210D01*
X1403250Y1104598D01*
X1401299Y1104210D01*
X1398355Y1104105D01*
X1396701Y1105210D01*
X1394750Y1105598D01*
X1392799Y1105210D01*
X1391145Y1104105D01*
X1390040Y1102451D01*
X1389652Y1100500D01*
X1389660Y1100457D01*
X1363272Y1074069D01*
X1272990D01*
X1270918Y1078069D01*
X1271880Y1079431D01*
X1344500D01*
X1345866Y1079703D01*
X1347023Y1080477D01*
X1394457Y1127911D01*
X1394500Y1127902D01*
X1394543Y1127911D01*
X1400477Y1121977D01*
X1401634Y1121203D01*
X1403000Y1120931D01*
X1449544D01*
X1458137Y1112339D01*
X1457631Y1111116D01*
X1457304Y1108636D01*
X1457631Y1106156D01*
X1458588Y1103845D01*
X1460111Y1101861D01*
X1462095Y1100338D01*
X1464406Y1099381D01*
X1466886Y1099054D01*
X1469366Y1099381D01*
X1471677Y1100338D01*
X1473661Y1101861D01*
X1475184Y1103845D01*
X1476142Y1106156D01*
X1476468Y1108636D01*
X1476142Y1111116D01*
X1475184Y1113427D01*
X1473661Y1115412D01*
X1471677Y1116935D01*
X1469366Y1117892D01*
X1466886Y1118218D01*
X1464406Y1117892D01*
X1463184Y1117385D01*
X1460033Y1120536D01*
X1461690Y1124536D01*
X1476386D01*
Y1143536D01*
X1457386D01*
Y1128840D01*
X1454052Y1127263D01*
X1453386Y1127130D01*
X1452388Y1127797D01*
X1451022Y1128069D01*
X1411029D01*
X1410125Y1129024D01*
X1408413Y1132069D01*
X1408598Y1133000D01*
X1408210Y1134951D01*
X1407105Y1136605D01*
X1405451Y1137710D01*
X1403500Y1138098D01*
X1401549Y1137710D01*
X1399895Y1136605D01*
X1398105D01*
X1396451Y1137710D01*
X1394500Y1138098D01*
X1392549Y1137710D01*
X1390895Y1136605D01*
X1389790Y1134951D01*
X1389402Y1133000D01*
X1389411Y1132957D01*
X1343022Y1086569D01*
X1268000D01*
X1266634Y1086297D01*
X1265477Y1085523D01*
X1193563Y1013610D01*
X1189775Y1015478D01*
X1189810Y1015750D01*
X1189570Y1017577D01*
X1188865Y1019280D01*
X1187742Y1020742D01*
X1187492Y1023258D01*
X1188615Y1024720D01*
X1189320Y1026423D01*
X1189560Y1028250D01*
X1189320Y1030077D01*
X1188615Y1031780D01*
X1187492Y1033242D01*
X1186030Y1034364D01*
X1184327Y1035070D01*
X1182500Y1035310D01*
X1180673Y1035070D01*
X1178970Y1034364D01*
X1177508Y1033242D01*
X1176385Y1031780D01*
X1175680Y1030077D01*
X1175440Y1028250D01*
X1175680Y1026423D01*
X1176385Y1024720D01*
X1177508Y1023258D01*
X1177758Y1020742D01*
X1176636Y1019280D01*
X1176279Y1018420D01*
X1176166Y1018213D01*
X1173750Y1017471D01*
X1171334Y1018213D01*
X1171221Y1018420D01*
X1170864Y1019280D01*
X1169742Y1020742D01*
X1168280Y1021864D01*
X1166577Y1022570D01*
X1164750Y1022810D01*
X1162923Y1022570D01*
X1161220Y1021864D01*
X1159758Y1020742D01*
X1158635Y1019280D01*
X1157930Y1017577D01*
X1157690Y1015750D01*
X1157930Y1013923D01*
X1158635Y1012220D01*
X1159758Y1010758D01*
X1161220Y1009635D01*
X1162923Y1008930D01*
X1164750Y1008690D01*
X1166577Y1008930D01*
X1168280Y1009635D01*
X1169742Y1010758D01*
X1170864Y1012220D01*
X1171221Y1013080D01*
X1171334Y1013287D01*
X1173750Y1014029D01*
X1176166Y1013287D01*
X1176279Y1013080D01*
X1176636Y1012220D01*
X1177758Y1010758D01*
X1179220Y1009635D01*
X1180923Y1008930D01*
X1182750Y1008690D01*
X1183022Y1008725D01*
X1184890Y1004937D01*
X1151772Y971819D01*
X1130884D01*
X1130658Y971932D01*
X1127848Y975500D01*
X1127460Y977451D01*
X1126355Y979105D01*
X1126319Y979129D01*
Y1068454D01*
X1126605Y1068645D01*
X1127710Y1070299D01*
X1128098Y1072250D01*
X1127710Y1074201D01*
X1126605Y1075855D01*
X1124951Y1076960D01*
X1123768Y1077195D01*
X1123697Y1077243D01*
X1123614Y1077300D01*
X1122158Y1081166D01*
X1122153Y1081356D01*
X1190728Y1149931D01*
X1262835D01*
X1263174Y1149424D01*
X1265159Y1148098D01*
X1267500Y1147633D01*
X1269841Y1148098D01*
X1271826Y1149424D01*
X1273152Y1151409D01*
X1273617Y1153750D01*
X1273152Y1156091D01*
X1271826Y1158076D01*
X1269841Y1159402D01*
X1267500Y1159867D01*
X1265159Y1159402D01*
X1263174Y1158076D01*
X1262501Y1157069D01*
X1194272D01*
X1192615Y1161069D01*
X1206478Y1174931D01*
X1262418D01*
X1262924Y1174174D01*
X1264909Y1172848D01*
X1267250Y1172383D01*
X1269591Y1172848D01*
X1271576Y1174174D01*
X1272902Y1176159D01*
X1273367Y1178500D01*
X1272902Y1180841D01*
X1271576Y1182826D01*
X1269591Y1184152D01*
X1267250Y1184617D01*
X1264909Y1184152D01*
X1262924Y1182826D01*
X1262418Y1182069D01*
X1205000D01*
X1203634Y1181797D01*
X1202477Y1181023D01*
X1188673Y1167220D01*
X1184987Y1169190D01*
X1185098Y1169750D01*
X1184710Y1171701D01*
X1183605Y1173355D01*
X1181951Y1174460D01*
X1180000Y1174848D01*
X1178049Y1174460D01*
X1176395Y1173355D01*
X1176371Y1173319D01*
X1000787D01*
X1000201Y1173710D01*
X998250Y1174098D01*
X996299Y1173710D01*
X994645Y1172605D01*
X993540Y1170951D01*
X993152Y1169000D01*
X993540Y1167049D01*
X994645Y1165395D01*
X996299Y1164290D01*
X998250Y1163902D01*
X1000201Y1164290D01*
X1001855Y1165395D01*
X1002380Y1166181D01*
X1176371D01*
X1176395Y1166145D01*
X1178049Y1165040D01*
X1180000Y1164652D01*
X1180560Y1164763D01*
X1182530Y1161077D01*
X1100727Y1079273D01*
X1099953Y1078116D01*
X1099681Y1076750D01*
Y1020728D01*
X1076175Y997222D01*
X1071605Y997355D01*
X1069951Y998460D01*
X1068000Y998848D01*
X1066049Y998460D01*
X1064395Y997355D01*
X1063290Y995701D01*
X1062902Y993750D01*
X1062911Y993707D01*
X1049030Y979826D01*
X1045334Y981357D01*
Y1010000D01*
X1045080Y1011276D01*
X1044358Y1012357D01*
X1030608Y1026107D01*
X1029526Y1026830D01*
X1028250Y1027084D01*
X983631D01*
X976284Y1034431D01*
X977941Y1038431D01*
X996668D01*
X997174Y1037674D01*
X999159Y1036348D01*
X1001500Y1035882D01*
X1003841Y1036348D01*
X1005826Y1037674D01*
X1007152Y1039659D01*
X1007617Y1042000D01*
X1007152Y1044341D01*
X1005826Y1046326D01*
X1003841Y1047652D01*
X1001500Y1048118D01*
X1001292Y1048076D01*
X999617Y1049750D01*
X999152Y1052091D01*
X997826Y1054076D01*
X997069Y1054582D01*
Y1061750D01*
X996797Y1063116D01*
X996023Y1064273D01*
X890183Y1170113D01*
X890557Y1171281D01*
X892263Y1173691D01*
X894500Y1173396D01*
X897633Y1173809D01*
X900552Y1175018D01*
X903058Y1176942D01*
X904982Y1179448D01*
X906191Y1182367D01*
X906603Y1185500D01*
X906191Y1188633D01*
X904982Y1191552D01*
X903058Y1194059D01*
X900552Y1195982D01*
X897633Y1197191D01*
X894500Y1197604D01*
X891367Y1197191D01*
X888448Y1195982D01*
X887569Y1195307D01*
X883569Y1197280D01*
Y1231668D01*
X884326Y1232174D01*
X885652Y1234159D01*
X886117Y1236500D01*
X885652Y1238841D01*
X884326Y1240826D01*
X882341Y1242152D01*
X880000Y1242617D01*
X877659Y1242152D01*
X875674Y1240826D01*
X874348Y1238841D01*
X873883Y1236500D01*
X874348Y1234159D01*
X875674Y1232174D01*
X876431Y1231668D01*
Y1175250D01*
X876703Y1173884D01*
X877477Y1172727D01*
X982386Y1067817D01*
X982174Y1063076D01*
X981668Y1062319D01*
X969478D01*
X849940Y1181857D01*
X850117Y1182750D01*
X849652Y1185091D01*
X848326Y1187076D01*
X846341Y1188402D01*
X844000Y1188867D01*
X841659Y1188402D01*
X839674Y1187076D01*
X838348Y1185091D01*
X837882Y1182750D01*
X838348Y1180409D01*
X839674Y1178424D01*
X841659Y1177098D01*
X844000Y1176633D01*
X844893Y1176810D01*
X857135Y1164569D01*
X855478Y1160569D01*
X763500D01*
X762134Y1160297D01*
X760977Y1159523D01*
X752772Y1151319D01*
X627095D01*
X626183Y1155059D01*
X629102Y1156268D01*
X631609Y1158192D01*
X637058Y1163642D01*
X638982Y1166148D01*
X640191Y1169067D01*
X640603Y1172200D01*
X640191Y1175333D01*
X639310Y1177461D01*
X638982Y1178252D01*
X638972Y1178438D01*
X641909Y1180872D01*
X643759Y1179452D01*
X646070Y1178494D01*
X648550Y1178168D01*
X651030Y1178494D01*
X653341Y1179452D01*
X655325Y1180975D01*
X656848Y1182959D01*
X657805Y1185270D01*
X658132Y1187750D01*
Y1197750D01*
X657805Y1200230D01*
X656848Y1202541D01*
X655325Y1204526D01*
X653341Y1206048D01*
X651030Y1207005D01*
X648550Y1207332D01*
X646070Y1207005D01*
X643759Y1206048D01*
X641775Y1204526D01*
X640252Y1202541D01*
X639295Y1200230D01*
X638968Y1197750D01*
Y1187750D01*
X639295Y1185270D01*
X640252Y1182959D01*
X637058Y1180759D01*
X636268Y1181365D01*
X634552Y1182682D01*
X631633Y1183891D01*
X628500Y1184304D01*
X625367Y1183891D01*
X622448Y1182682D01*
X619941Y1180759D01*
X618036Y1178854D01*
X576182D01*
X574099Y1182709D01*
X574109Y1182734D01*
X575056Y1185020D01*
X575382Y1187500D01*
Y1197500D01*
X575056Y1199980D01*
X574098Y1202291D01*
X572575Y1204276D01*
X570591Y1205798D01*
X568280Y1206756D01*
X565800Y1207082D01*
X563320Y1206756D01*
X561009Y1205798D01*
X559025Y1204276D01*
X557502Y1202291D01*
X556545Y1199980D01*
X556218Y1197500D01*
Y1187500D01*
X556545Y1185020D01*
X556767Y1184484D01*
X554886Y1180916D01*
X551463Y1180255D01*
X550647Y1180979D01*
X549126Y1183743D01*
X549655Y1185020D01*
X549982Y1187500D01*
Y1197500D01*
X549655Y1199980D01*
X548698Y1202291D01*
X547175Y1204276D01*
X545191Y1205798D01*
X542880Y1206756D01*
X540400Y1207082D01*
X537920Y1206756D01*
X535609Y1205798D01*
X533625Y1204276D01*
X532102Y1202291D01*
X531145Y1199980D01*
X530818Y1197500D01*
Y1194931D01*
X526818Y1194669D01*
X526691Y1195633D01*
X525482Y1198552D01*
X524102Y1200350D01*
X523298Y1202291D01*
X521776Y1204276D01*
X519791Y1205798D01*
X517480Y1206756D01*
X515000Y1207082D01*
X512520Y1206756D01*
X510209Y1205798D01*
X508225Y1204276D01*
X506702Y1202291D01*
X505898Y1200350D01*
X504518Y1198552D01*
X503309Y1195633D01*
X502896Y1192500D01*
Y1177750D01*
X503309Y1174617D01*
X504518Y1171698D01*
X506441Y1169192D01*
X517441Y1158192D01*
X519948Y1156268D01*
X522867Y1155059D01*
X526000Y1154646D01*
X547292D01*
X547621Y1154473D01*
X550431Y1151485D01*
Y1122978D01*
X499022Y1071569D01*
X491832D01*
X491326Y1072326D01*
X489341Y1073652D01*
X487000Y1074118D01*
X484659Y1073652D01*
X482674Y1072326D01*
X481348Y1070341D01*
X480882Y1068000D01*
X481348Y1065659D01*
X482674Y1063674D01*
X484659Y1062348D01*
X487000Y1061882D01*
X489341Y1062348D01*
X491326Y1063674D01*
X491832Y1064431D01*
X500500D01*
X501866Y1064703D01*
X503023Y1065477D01*
X549547Y1112000D01*
X549951Y1112113D01*
X554395Y1111395D01*
X556049Y1110290D01*
X558000Y1109902D01*
X558319Y1109966D01*
X610892Y1057393D01*
X611974Y1056670D01*
X613250Y1056416D01*
X756360D01*
X759083Y1052416D01*
X758896Y1051000D01*
X759309Y1047867D01*
X760518Y1044948D01*
X762441Y1042441D01*
X764948Y1040518D01*
X767867Y1039309D01*
X771000Y1038896D01*
X774133Y1039309D01*
X777052Y1040518D01*
X779558Y1042441D01*
X781482Y1044948D01*
X782691Y1047867D01*
X783104Y1051000D01*
X782917Y1052416D01*
X785640Y1056416D01*
X914186D01*
X915000Y1055652D01*
X916899Y1052416D01*
X916677Y1051301D01*
X916815Y1050611D01*
X876272Y1010069D01*
X866750D01*
X865384Y1009797D01*
X864227Y1009023D01*
X853282Y998079D01*
X850023Y1000050D01*
X849956Y1000135D01*
X849872Y1000569D01*
X850060Y1002000D01*
X849820Y1003827D01*
X849115Y1005530D01*
X847992Y1006992D01*
X846530Y1008114D01*
X844827Y1008820D01*
X843000Y1009060D01*
X841173Y1008820D01*
X839470Y1008114D01*
X835212Y1009163D01*
X834855Y1009440D01*
X834115Y1010470D01*
X834820Y1012173D01*
X835060Y1014000D01*
X834820Y1015827D01*
X834115Y1017530D01*
X832992Y1018992D01*
X831530Y1020115D01*
X829827Y1020820D01*
X828000Y1021060D01*
X826173Y1020820D01*
X824470Y1020115D01*
X823008Y1018992D01*
X821886Y1017530D01*
X821180Y1015827D01*
X820940Y1014000D01*
X821180Y1012173D01*
X821886Y1010470D01*
X822682Y1008000D01*
X821886Y1005530D01*
X821180Y1003827D01*
X820940Y1002000D01*
X821128Y1000569D01*
X821004Y999931D01*
X818560Y996569D01*
X791332D01*
X790826Y997326D01*
X788841Y998652D01*
X786500Y999118D01*
X784159Y998652D01*
X782174Y997326D01*
X780848Y995341D01*
X780382Y993000D01*
X780848Y990659D01*
X782174Y988674D01*
X784159Y987348D01*
X786500Y986882D01*
X788841Y987348D01*
X789812Y987997D01*
X792483Y985661D01*
X792819Y985195D01*
X792383Y983000D01*
X792848Y980659D01*
X794174Y978674D01*
X796159Y977348D01*
X798500Y976882D01*
X800204Y977221D01*
X801015Y976772D01*
X802013Y975908D01*
X803378Y974232D01*
X803132Y973000D01*
X803598Y970659D01*
X804924Y968674D01*
X806909Y967348D01*
X809250Y966882D01*
X811591Y967348D01*
X813576Y968674D01*
X814082Y969431D01*
X843978D01*
X845635Y965431D01*
X758477Y878273D01*
X757703Y877116D01*
X757431Y875750D01*
Y871056D01*
X756659Y870902D01*
X754674Y869576D01*
X753348Y867591D01*
X752883Y865250D01*
X753348Y862909D01*
X754674Y860924D01*
X756659Y859598D01*
X757305Y859470D01*
X759104Y858897D01*
X760383Y856000D01*
X760848Y853659D01*
X762174Y851674D01*
X764159Y850348D01*
X766500Y849883D01*
X770431Y846966D01*
Y788478D01*
X761177Y779224D01*
X756154Y779858D01*
X755808Y780309D01*
X753302Y782232D01*
X750383Y783441D01*
X747250Y783854D01*
X744117Y783441D01*
X741198Y782232D01*
X738691Y780309D01*
X736768Y777802D01*
X735559Y774883D01*
X735146Y771750D01*
X735559Y768617D01*
X736768Y765698D01*
X738691Y763192D01*
X739142Y762846D01*
X739776Y757823D01*
X716227Y734273D01*
X715453Y733116D01*
X715181Y731750D01*
Y716728D01*
X688522Y690069D01*
X661500D01*
X660134Y689797D01*
X658977Y689023D01*
X645029Y675076D01*
X643250Y675310D01*
X641423Y675070D01*
X639720Y674364D01*
X638258Y673242D01*
X637136Y671780D01*
X636430Y670077D01*
X636190Y668250D01*
X636430Y666423D01*
X637136Y664720D01*
X638258Y663258D01*
X639720Y662135D01*
X641423Y661430D01*
X643250Y661190D01*
X643398Y661209D01*
X646112Y658406D01*
X646193Y658279D01*
X646385Y657735D01*
X646190Y656250D01*
X646430Y654423D01*
X647135Y652720D01*
X648258Y651257D01*
X649720Y650135D01*
X651423Y649430D01*
X653250Y649190D01*
X655077Y649430D01*
X656780Y650135D01*
X658242Y651257D01*
X659364Y652720D01*
X660070Y654423D01*
X660310Y656250D01*
X660076Y658029D01*
X675228Y673181D01*
X690250D01*
X691616Y673453D01*
X692773Y674227D01*
X740925Y722378D01*
X742698Y721018D01*
X745617Y719809D01*
X748750Y719397D01*
X751883Y719809D01*
X754802Y721018D01*
X757309Y722942D01*
X759232Y725448D01*
X760441Y728367D01*
X760854Y731500D01*
X760441Y734633D01*
X759232Y737552D01*
X757871Y739325D01*
X783273Y764727D01*
X784047Y765884D01*
X784319Y767250D01*
Y767261D01*
X786848Y768834D01*
X788319Y769365D01*
X790867Y768309D01*
X794000Y767896D01*
X797133Y768309D01*
X800052Y769518D01*
X802559Y771441D01*
X804482Y773948D01*
X805691Y776867D01*
X806104Y780000D01*
X805691Y783133D01*
X804482Y786052D01*
X802559Y788559D01*
X800052Y790482D01*
X797133Y791691D01*
X794000Y792104D01*
X790867Y791691D01*
X788319Y790635D01*
X786848Y791166D01*
X784319Y792739D01*
Y868772D01*
X808728Y893181D01*
X965346D01*
X967331Y889181D01*
X967290Y889120D01*
X966902Y887170D01*
X967290Y885219D01*
X968395Y883565D01*
X968431Y883541D01*
Y860978D01*
X933522Y826069D01*
X800129D01*
X800105Y826105D01*
X798451Y827210D01*
X796500Y827598D01*
X794549Y827210D01*
X792895Y826105D01*
X791790Y824451D01*
X791402Y822500D01*
X791790Y820549D01*
X792895Y818895D01*
X793585Y815867D01*
X792881Y814460D01*
X792540Y813951D01*
X792152Y812000D01*
X792540Y810049D01*
X793645Y808395D01*
X795299Y807290D01*
X797250Y806902D01*
X799201Y807290D01*
X800855Y808395D01*
X800879Y808431D01*
X848978D01*
X850635Y804431D01*
X837421Y791218D01*
X836883Y791441D01*
X833750Y791854D01*
X830617Y791441D01*
X827698Y790232D01*
X825191Y788308D01*
X823268Y785802D01*
X822059Y782883D01*
X821646Y779750D01*
X822059Y776617D01*
X823268Y773698D01*
X825191Y771191D01*
X827698Y769268D01*
X830617Y768059D01*
X833750Y767646D01*
X835374Y767860D01*
X837864Y766793D01*
X839424Y764782D01*
X839598Y763909D01*
X840924Y761924D01*
X842909Y760598D01*
X845250Y760133D01*
X847591Y760598D01*
X849576Y761924D01*
X850902Y763909D01*
X851367Y766250D01*
X850902Y768591D01*
X849576Y770576D01*
X847591Y771902D01*
X845242Y776131D01*
Y776137D01*
X845441Y776617D01*
X845854Y779750D01*
X845441Y782883D01*
X844232Y785802D01*
X843306Y787009D01*
X856478Y800181D01*
X898589D01*
X902383Y798750D01*
X902848Y796409D01*
X904174Y794424D01*
X906159Y793098D01*
X908500Y792633D01*
X910841Y793098D01*
X912826Y794424D01*
X914152Y796409D01*
X914618Y798750D01*
X914152Y801091D01*
X912826Y803076D01*
X910841Y804402D01*
X910693Y804431D01*
X911086Y808431D01*
X931250D01*
X932471Y808674D01*
X932757Y808491D01*
X934829Y805375D01*
X907863Y778410D01*
X904074Y780278D01*
X904104Y780500D01*
X903691Y783633D01*
X902482Y786552D01*
X900558Y789059D01*
X898052Y790982D01*
X895133Y792191D01*
X892000Y792604D01*
X888867Y792191D01*
X885948Y790982D01*
X883441Y789059D01*
X881518Y786552D01*
X880309Y783633D01*
X879896Y780500D01*
X880309Y777367D01*
X881518Y774448D01*
X883441Y771942D01*
X885948Y770018D01*
X888867Y768809D01*
X892000Y768396D01*
X892222Y768426D01*
X894090Y764637D01*
X869277Y739823D01*
X869042Y739472D01*
X865528Y735958D01*
X865177Y735723D01*
X860977Y731523D01*
X860203Y730366D01*
X859931Y729000D01*
Y725379D01*
X859895Y725355D01*
X858790Y723701D01*
X858402Y721750D01*
X858790Y719799D01*
X859895Y718145D01*
X858192Y714703D01*
X856851Y713069D01*
X777129D01*
X777105Y713105D01*
X775451Y714210D01*
X773500Y714598D01*
X771549Y714210D01*
X769895Y713105D01*
X768790Y711451D01*
X768402Y709500D01*
X768790Y707549D01*
X769895Y705895D01*
X771549Y704790D01*
X773500Y704402D01*
X775451Y704790D01*
X777105Y705895D01*
X777129Y705931D01*
X862000D01*
X863366Y706203D01*
X864523Y706977D01*
X872773Y715227D01*
X873547Y716384D01*
X873819Y717750D01*
Y726772D01*
X876558Y729511D01*
X880781Y728078D01*
X880809Y727867D01*
X882018Y724948D01*
X883941Y722441D01*
X886448Y720518D01*
X889367Y719309D01*
X892500Y718896D01*
X895633Y719309D01*
X898552Y720518D01*
X901059Y722441D01*
X902982Y724948D01*
X904191Y727867D01*
X904604Y731000D01*
X904191Y734133D01*
X902982Y737052D01*
X901059Y739558D01*
X898552Y741482D01*
X895633Y742691D01*
X895422Y742719D01*
X893989Y746942D01*
X922963Y775916D01*
X926751Y774048D01*
X926646Y773250D01*
X927059Y770117D01*
X928268Y767198D01*
X930191Y764691D01*
X932698Y762768D01*
X935617Y761559D01*
X938750Y761146D01*
X941883Y761559D01*
X944802Y762768D01*
X947309Y764691D01*
X949232Y767198D01*
X950441Y770117D01*
X950854Y773250D01*
X950441Y776383D01*
X949232Y779302D01*
X947309Y781808D01*
X944802Y783732D01*
X941883Y784941D01*
X938750Y785353D01*
X937952Y785248D01*
X936084Y789037D01*
X994175Y847128D01*
X994940Y847281D01*
X999105Y846402D01*
X999424Y845924D01*
X1001409Y844598D01*
X1003750Y844132D01*
X1006091Y844598D01*
X1007149Y845305D01*
X1039402Y813051D01*
X1077144Y775309D01*
X1077257Y773860D01*
X1076458Y770338D01*
X1076008Y769992D01*
X1074885Y768530D01*
X1074180Y766827D01*
X1073940Y765000D01*
X1074180Y763173D01*
X1074885Y761470D01*
X1076008Y760007D01*
X1077470Y758885D01*
X1079173Y758180D01*
X1080410Y758017D01*
Y753983D01*
X1079173Y753820D01*
X1077470Y753114D01*
X1076008Y751992D01*
X1074885Y750530D01*
X1074180Y748827D01*
X1073940Y747000D01*
X1074180Y745173D01*
X1074885Y743470D01*
X1076008Y742008D01*
X1077470Y740885D01*
X1079173Y740180D01*
X1081000Y739940D01*
X1082827Y740180D01*
X1084530Y740885D01*
X1085500Y741629D01*
X1086195Y742008D01*
X1089805D01*
X1090500Y741629D01*
X1091470Y740885D01*
X1093173Y740180D01*
X1095000Y739940D01*
X1096827Y740180D01*
X1098530Y740885D01*
X1099992Y742008D01*
X1101115Y743470D01*
X1101820Y745173D01*
X1106020Y746433D01*
X1165931Y686522D01*
Y636314D01*
X1162692Y634138D01*
X1161931Y633983D01*
X1160000Y634367D01*
X1157659Y633902D01*
X1155674Y632576D01*
X1154348Y630591D01*
X1153883Y628250D01*
X1154348Y625909D01*
X1155674Y623924D01*
X1156431Y623418D01*
Y605978D01*
X1119227Y568773D01*
X1118453Y567616D01*
X1118181Y566250D01*
Y411500D01*
X1118453Y410134D01*
X1119227Y408977D01*
X1135227Y392977D01*
X1136384Y392203D01*
X1137750Y391931D01*
X1151668D01*
X1152174Y391174D01*
X1154159Y389848D01*
X1156500Y389383D01*
X1158841Y389848D01*
X1160826Y391174D01*
X1162152Y393159D01*
X1162617Y395500D01*
X1162511Y396035D01*
X1166198Y398006D01*
X1173727Y390477D01*
X1174884Y389703D01*
X1176250Y389431D01*
X1264272D01*
X1294477Y359227D01*
X1295634Y358453D01*
X1297000Y358181D01*
X1474750D01*
X1476116Y358453D01*
X1477273Y359227D01*
X1481035Y362988D01*
X1481448Y362948D01*
X1482275Y362395D01*
X1483250Y362201D01*
X1656221D01*
X1656414Y358206D01*
X799889Y275411D01*
X245260D01*
X225260Y295411D01*
Y1300411D01*
X250260Y1325411D01*
X799889D01*
X1306493Y1274397D01*
D02*
G37*
G36*
X1750701Y734194D02*
Y448306D01*
X1743944Y441549D01*
X1731750D01*
X1730775Y441355D01*
X1729948Y440802D01*
X1708448Y419302D01*
X1707895Y418475D01*
X1707701Y417500D01*
Y371556D01*
X1703444Y367299D01*
X1490572D01*
X1489041Y370994D01*
X1492148Y374102D01*
X1492922Y375259D01*
X1493040Y375852D01*
X1493105Y375895D01*
X1494210Y377549D01*
X1494598Y379500D01*
X1494210Y381451D01*
X1493105Y383105D01*
X1491451Y384210D01*
X1489500Y384598D01*
X1487549Y384210D01*
X1485895Y383105D01*
X1484790Y381451D01*
X1484402Y379500D01*
X1484790Y377549D01*
X1485075Y377122D01*
X1473272Y365319D01*
X1460272D01*
X1458615Y369319D01*
X1464810Y375513D01*
X1466201Y375790D01*
X1467855Y376895D01*
X1468960Y378549D01*
X1469348Y380500D01*
X1468960Y382451D01*
X1467855Y384105D01*
X1466201Y385210D01*
X1464250Y385598D01*
X1462299Y385210D01*
X1460645Y384105D01*
X1459540Y382451D01*
X1459152Y380500D01*
X1459243Y380040D01*
X1450772Y371568D01*
X1312728D01*
X1283523Y400773D01*
X1282366Y401547D01*
X1281000Y401819D01*
X1191228D01*
X1184169Y408878D01*
Y549622D01*
X1190523Y555977D01*
X1191297Y557134D01*
X1191432Y557811D01*
X1193386Y559176D01*
X1195569Y559987D01*
X1195750Y559951D01*
X1195750Y559951D01*
X1195942Y559951D01*
X1198136D01*
X1199112Y560145D01*
X1199939Y560698D01*
X1207552Y568311D01*
X1208105Y569138D01*
X1208299Y570114D01*
Y616194D01*
X1227056Y634951D01*
X1281250D01*
X1282225Y635145D01*
X1283052Y635698D01*
X1297056Y649701D01*
X1454750D01*
X1455725Y649895D01*
X1456552Y650448D01*
X1471552Y665448D01*
X1472105Y666275D01*
X1472299Y667250D01*
X1472842Y667912D01*
X1479080D01*
Y667912D01*
X1482056D01*
Y667912D01*
X1496216D01*
Y672033D01*
X1553814D01*
X1633033Y592814D01*
Y584447D01*
X1632895Y584355D01*
X1631790Y582701D01*
X1631402Y580750D01*
X1631790Y578799D01*
X1632895Y577145D01*
X1634549Y576040D01*
X1636500Y575652D01*
X1640082Y572685D01*
Y562566D01*
X1637250Y559098D01*
X1635299Y558710D01*
X1633645Y557605D01*
X1632540Y555951D01*
X1632493Y555714D01*
X1631453Y554661D01*
X1630467Y553167D01*
X1630128Y551409D01*
X1630164Y545396D01*
X1624199Y539360D01*
X1623250Y539750D01*
Y539750D01*
X1609250D01*
Y537338D01*
X1603681D01*
X1601925Y536989D01*
X1600436Y535994D01*
X1595506Y531064D01*
X1594511Y529575D01*
X1594162Y527819D01*
Y527330D01*
X1591162D01*
Y514194D01*
X1591162Y513170D01*
Y510194D01*
X1591162Y508231D01*
X1591000Y508098D01*
X1589049Y507710D01*
X1587395Y506605D01*
X1586290Y504951D01*
X1585902Y503000D01*
X1586290Y501049D01*
X1587395Y499395D01*
X1589049Y498290D01*
X1590569Y497988D01*
X1591162Y497557D01*
Y496034D01*
X1593261D01*
X1593652Y495750D01*
X1594040Y493799D01*
X1595145Y492145D01*
X1596799Y491040D01*
X1598750Y490652D01*
X1600701Y491040D01*
X1602355Y492145D01*
X1603460Y493799D01*
X1603848Y495750D01*
X1604187Y496034D01*
X1606338D01*
Y497836D01*
X1606783Y498208D01*
X1608451Y498540D01*
X1610105Y499645D01*
X1611210Y501299D01*
X1611598Y503250D01*
X1611210Y505201D01*
X1610105Y506855D01*
X1608451Y507960D01*
X1606500Y508348D01*
X1606338Y508481D01*
X1606338Y510194D01*
Y513170D01*
X1606338Y514194D01*
Y523123D01*
X1609250Y525750D01*
X1609684Y525750D01*
X1623250D01*
X1624089Y524857D01*
X1625836Y521871D01*
X1625757Y521474D01*
Y518026D01*
X1625619Y517934D01*
X1624514Y516280D01*
X1624126Y514329D01*
X1624514Y512378D01*
X1625619Y510724D01*
X1627273Y509619D01*
X1629224Y509231D01*
X1631175Y509619D01*
X1632829Y510724D01*
X1633934Y512378D01*
X1634322Y514329D01*
X1633934Y516280D01*
X1632829Y517934D01*
X1634155Y521503D01*
X1642951Y530299D01*
X1643703Y531423D01*
X1643967Y532750D01*
X1643703Y534077D01*
X1643304Y534674D01*
Y542198D01*
X1643353Y542443D01*
Y544475D01*
X1643304Y544720D01*
Y547454D01*
X1645018Y549169D01*
X1645626Y550078D01*
X1645839Y551151D01*
Y554953D01*
X1645689Y555707D01*
Y584365D01*
X1645476Y585438D01*
X1644868Y586347D01*
X1643304Y587911D01*
Y596546D01*
X1643326Y596580D01*
X1643559Y597750D01*
X1643326Y598921D01*
X1642663Y599913D01*
X1631112Y611464D01*
Y627300D01*
X1631140Y627319D01*
X1632246Y628973D01*
X1632634Y630924D01*
X1632246Y632875D01*
X1631140Y634529D01*
X1629487Y635634D01*
X1627536Y636022D01*
X1625585Y635634D01*
X1623931Y634529D01*
X1622826Y632875D01*
X1622438Y630924D01*
X1622826Y628973D01*
X1623931Y627319D01*
X1624179Y627154D01*
Y616700D01*
X1620483Y615169D01*
X1557701Y677951D01*
X1556577Y678703D01*
X1555250Y678967D01*
X1496216D01*
Y683088D01*
X1494419D01*
X1492888Y686784D01*
X1593306Y787201D01*
X1697694D01*
X1750701Y734194D01*
D02*
G37*
G36*
X1314227Y672977D02*
X1315384Y672203D01*
X1316750Y671931D01*
X1464920D01*
Y667912D01*
X1464920D01*
X1465473Y666578D01*
X1453694Y654799D01*
X1296000D01*
X1295025Y654605D01*
X1294198Y654052D01*
X1288974Y648829D01*
X1284820Y650327D01*
X1284115Y652030D01*
X1282993Y653492D01*
X1282745Y656232D01*
X1283772Y657599D01*
X1283864Y657720D01*
X1284570Y659423D01*
X1284810Y661250D01*
X1284570Y663077D01*
X1283864Y664780D01*
X1282742Y666243D01*
X1281280Y667365D01*
X1279577Y668070D01*
X1277750Y668310D01*
X1275923Y668070D01*
X1274220Y667365D01*
X1272758Y666243D01*
X1271636Y664780D01*
X1270930Y663077D01*
X1270690Y661250D01*
X1270930Y659423D01*
X1271636Y657720D01*
X1272758Y656258D01*
X1273005Y653518D01*
X1271978Y652151D01*
X1271886Y652030D01*
X1271180Y650327D01*
X1270940Y648500D01*
X1271180Y646673D01*
X1271886Y644970D01*
X1272592Y644049D01*
X1272073Y641941D01*
X1270944Y640049D01*
X1248480D01*
X1247203Y642774D01*
X1246966Y644049D01*
X1247865Y645220D01*
X1248570Y646923D01*
X1248810Y648750D01*
X1248570Y650577D01*
X1247865Y652280D01*
X1246742Y653742D01*
X1246492Y656008D01*
X1247615Y657470D01*
X1248320Y659173D01*
X1248560Y661000D01*
X1248320Y662827D01*
X1247615Y664530D01*
X1246492Y665992D01*
X1245030Y667114D01*
X1243327Y667820D01*
X1241500Y668060D01*
X1239673Y667820D01*
X1237970Y667114D01*
X1236508Y665992D01*
X1235386Y664530D01*
X1234680Y662827D01*
X1234440Y661000D01*
X1234680Y659173D01*
X1235386Y657470D01*
X1234250Y653360D01*
X1233191Y652560D01*
X1231502Y652753D01*
X1230742Y653743D01*
X1229280Y654865D01*
X1227577Y655570D01*
X1225750Y655810D01*
X1223923Y655570D01*
X1222220Y654865D01*
X1220758Y653743D01*
X1219635Y652280D01*
X1218930Y650577D01*
X1218690Y648750D01*
X1218930Y646923D01*
X1219635Y645220D01*
X1220758Y643758D01*
X1222220Y642635D01*
X1222458Y642233D01*
X1223106Y638375D01*
X1223058Y638162D01*
X1203948Y619052D01*
X1203395Y618225D01*
X1203201Y617250D01*
Y571169D01*
X1197081Y565049D01*
X1195750Y565049D01*
X1195750Y565049D01*
X1195569Y565013D01*
X1192493Y566662D01*
X1191569Y567394D01*
Y706005D01*
X1203523Y717960D01*
X1204297Y719118D01*
X1204569Y720483D01*
Y777408D01*
X1208264Y778939D01*
X1314227Y672977D01*
D02*
G37*
G36*
X999176Y983449D02*
X1000069Y980865D01*
X969211Y950008D01*
X967500Y950348D01*
X965549Y949960D01*
X963895Y948855D01*
X962875Y947328D01*
X962769Y947195D01*
X958485Y946062D01*
X941773Y962773D01*
X940616Y963547D01*
X939250Y963819D01*
X897129D01*
X897105Y963855D01*
X895451Y964960D01*
X893500Y965348D01*
X891549Y964960D01*
X889895Y963855D01*
X888790Y962201D01*
X888402Y960250D01*
X888790Y958299D01*
X889895Y956645D01*
X891549Y955540D01*
X893500Y955152D01*
X895451Y955540D01*
X897105Y956645D01*
X897129Y956681D01*
X937772D01*
X989313Y905141D01*
X989093Y903355D01*
X988222Y900574D01*
X987839Y900319D01*
X812591D01*
X811061Y904014D01*
X874579Y967532D01*
X878145Y969395D01*
X879799Y968290D01*
X881750Y967902D01*
X883701Y968290D01*
X885355Y969395D01*
X886460Y971049D01*
X886848Y973000D01*
X886460Y974951D01*
X885355Y976605D01*
X883701Y977710D01*
X882210Y978007D01*
X881244Y979606D01*
X880468Y981921D01*
X883228Y984681D01*
X998228D01*
X999176Y983449D01*
D02*
G37*
%LPC*%
G36*
X1214000Y848867D02*
X1211659Y848402D01*
X1209674Y847076D01*
X1208348Y845091D01*
X1207883Y842750D01*
X1208348Y840409D01*
X1209674Y838424D01*
X1211659Y837098D01*
X1214000Y836633D01*
X1216341Y837098D01*
X1218326Y838424D01*
X1219652Y840409D01*
X1220117Y842750D01*
X1219652Y845091D01*
X1218326Y847076D01*
X1216341Y848402D01*
X1214000Y848867D01*
D02*
G37*
G36*
X719250Y929848D02*
X717299Y929460D01*
X715250Y928533D01*
X713201Y929460D01*
X711250Y929848D01*
X709299Y929460D01*
X707645Y928355D01*
X706540Y926701D01*
X706152Y924750D01*
X706540Y922799D01*
X707645Y921145D01*
X709299Y920040D01*
X711250Y919652D01*
X713201Y920040D01*
X714855Y921145D01*
X715645D01*
X717299Y920040D01*
X719250Y919652D01*
X721201Y920040D01*
X722855Y921145D01*
X723960Y922799D01*
X724348Y924750D01*
X723960Y926701D01*
X722855Y928355D01*
X721201Y929460D01*
X719250Y929848D01*
D02*
G37*
G36*
X748750Y703854D02*
X745617Y703441D01*
X742698Y702232D01*
X740191Y700309D01*
X738268Y697802D01*
X737059Y694883D01*
X736646Y691750D01*
X737059Y688617D01*
X738268Y685698D01*
X740191Y683192D01*
X742698Y681268D01*
X745617Y680059D01*
X748750Y679646D01*
X751883Y680059D01*
X754802Y681268D01*
X757309Y683192D01*
X759232Y685698D01*
X760441Y688617D01*
X760854Y691750D01*
X760441Y694883D01*
X759232Y697802D01*
X757309Y700309D01*
X754802Y702232D01*
X751883Y703441D01*
X748750Y703854D01*
D02*
G37*
G36*
X946250Y705310D02*
X944423Y705070D01*
X942720Y704364D01*
X941258Y703242D01*
X940135Y701780D01*
X939430Y700077D01*
X939190Y698250D01*
X939430Y696423D01*
X940135Y694720D01*
X941258Y693258D01*
Y691434D01*
X941008Y691243D01*
X939885Y689780D01*
X939180Y688077D01*
X938940Y686250D01*
X939180Y684423D01*
X939885Y682720D01*
X941008Y681258D01*
X942470Y680135D01*
X944173Y679430D01*
X946000Y679190D01*
X947827Y679430D01*
X949530Y680135D01*
X950992Y681258D01*
X952114Y682720D01*
X952820Y684423D01*
X953060Y686250D01*
X952820Y688077D01*
X952591Y688630D01*
X953119Y689437D01*
X955600Y691521D01*
X956423Y691180D01*
X958250Y690940D01*
X960077Y691180D01*
X961780Y691886D01*
X963242Y693008D01*
X964364Y694470D01*
X965070Y696173D01*
X965310Y698000D01*
X965070Y699827D01*
X964364Y701530D01*
X963242Y702992D01*
X961780Y704115D01*
X960077Y704820D01*
X958250Y705060D01*
X956423Y704820D01*
X954720Y704115D01*
X951242Y703242D01*
X949780Y704364D01*
X948077Y705070D01*
X946250Y705310D01*
D02*
G37*
G36*
X1466886Y991218D02*
X1464406Y990892D01*
X1462095Y989935D01*
X1460111Y988412D01*
X1458588Y986427D01*
X1457631Y984116D01*
X1457304Y981636D01*
X1457631Y979156D01*
X1458137Y977934D01*
X1447272Y967069D01*
X1412780D01*
X1412130Y967505D01*
X1409812Y971069D01*
X1409848Y971250D01*
X1409460Y973201D01*
X1408355Y974855D01*
X1406701Y975960D01*
X1404750Y976348D01*
X1402799Y975960D01*
X1401145Y974855D01*
X1400040Y973201D01*
X1399778Y971881D01*
X1397592Y970497D01*
X1395850Y969860D01*
X1395701Y969960D01*
X1393750Y970348D01*
X1391799Y969960D01*
X1390145Y968855D01*
X1389040Y967201D01*
X1388652Y965250D01*
X1389040Y963299D01*
X1390145Y961645D01*
X1391799Y960540D01*
X1393750Y960152D01*
X1394105Y960223D01*
X1394134Y960203D01*
X1395500Y959931D01*
X1448750D01*
X1450115Y960203D01*
X1451273Y960977D01*
X1463184Y972887D01*
X1464406Y972381D01*
X1466886Y972054D01*
X1469366Y972381D01*
X1471677Y973338D01*
X1473661Y974861D01*
X1475184Y976845D01*
X1476142Y979156D01*
X1476468Y981636D01*
X1476142Y984116D01*
X1475184Y986427D01*
X1473661Y988412D01*
X1471677Y989935D01*
X1469366Y990892D01*
X1466886Y991218D01*
D02*
G37*
G36*
X847000Y519104D02*
X843867Y518691D01*
X840948Y517482D01*
X838441Y515559D01*
X836518Y513052D01*
X835309Y510133D01*
X834896Y507000D01*
X835309Y503867D01*
X836518Y500948D01*
X838441Y498442D01*
X840948Y496518D01*
X843867Y495309D01*
X847000Y494896D01*
X850133Y495309D01*
X853052Y496518D01*
X855558Y498442D01*
X857482Y500948D01*
X858691Y503867D01*
X859104Y507000D01*
X858691Y510133D01*
X857482Y513052D01*
X855558Y515559D01*
X853052Y517482D01*
X850133Y518691D01*
X847000Y519104D01*
D02*
G37*
G36*
X1102500Y503368D02*
X1100159Y502902D01*
X1098174Y501576D01*
X1096848Y499591D01*
X1096382Y497250D01*
X1096848Y494909D01*
X1097993Y492553D01*
X1096848Y490196D01*
X1096382Y487855D01*
X1096848Y485514D01*
X1098174Y483529D01*
Y482576D01*
X1096848Y480591D01*
X1096382Y478250D01*
X1096848Y475909D01*
X1098174Y473924D01*
X1100159Y472598D01*
X1102500Y472132D01*
X1104841Y472598D01*
X1106826Y473924D01*
X1108152Y475909D01*
X1108617Y478250D01*
X1108152Y480591D01*
X1106826Y482576D01*
Y483529D01*
X1108152Y485514D01*
X1108617Y487855D01*
X1108152Y490196D01*
X1107006Y492553D01*
X1108152Y494909D01*
X1108617Y497250D01*
X1108152Y499591D01*
X1106826Y501576D01*
X1104841Y502902D01*
X1102500Y503368D01*
D02*
G37*
G36*
X1125750Y628354D02*
X1122617Y627941D01*
X1119698Y626732D01*
X1117191Y624809D01*
X1115268Y622302D01*
X1114059Y619383D01*
X1113646Y616250D01*
X1114059Y613117D01*
X1114062Y613109D01*
X1076022Y575069D01*
X1066450D01*
Y591000D01*
X1065916D01*
X1065750Y594931D01*
X1067116Y595203D01*
X1068273Y595977D01*
X1077634Y605337D01*
X1080117Y604309D01*
X1083250Y603896D01*
X1086383Y604309D01*
X1089302Y605518D01*
X1091808Y607441D01*
X1093732Y609948D01*
X1094941Y612867D01*
X1095354Y616000D01*
X1094941Y619133D01*
X1093732Y622052D01*
X1091808Y624558D01*
X1089302Y626482D01*
X1086383Y627691D01*
X1083250Y628104D01*
X1080117Y627691D01*
X1077198Y626482D01*
X1074691Y624558D01*
X1072768Y622052D01*
X1071559Y619133D01*
X1071146Y616000D01*
X1071559Y612867D01*
X1072587Y610384D01*
X1064272Y602069D01*
X1050640D01*
X1049345Y606069D01*
X1050808Y607192D01*
X1052732Y609698D01*
X1053941Y612617D01*
X1054354Y615750D01*
X1053941Y618883D01*
X1052732Y621802D01*
X1050808Y624309D01*
X1048302Y626232D01*
X1045383Y627441D01*
X1042250Y627854D01*
X1039117Y627441D01*
X1036198Y626232D01*
X1033691Y624309D01*
X1031768Y621802D01*
X1030739Y619319D01*
X972000D01*
X970634Y619047D01*
X969477Y618273D01*
X948877Y597673D01*
X948103Y596516D01*
X947831Y595150D01*
Y591000D01*
X912550D01*
Y552000D01*
X1066450D01*
Y567931D01*
X1077500D01*
X1078866Y568203D01*
X1080023Y568977D01*
X1118067Y607020D01*
X1119698Y605768D01*
X1122617Y604559D01*
X1125750Y604146D01*
X1128883Y604559D01*
X1131802Y605768D01*
X1134308Y607691D01*
X1136232Y610198D01*
X1137441Y613117D01*
X1137854Y616250D01*
X1137441Y619383D01*
X1136232Y622302D01*
X1134308Y624809D01*
X1131802Y626732D01*
X1128883Y627941D01*
X1125750Y628354D01*
D02*
G37*
G36*
X946250Y741310D02*
X944423Y741070D01*
X942720Y740365D01*
X941258Y739242D01*
X940135Y737780D01*
X939430Y736077D01*
X939190Y734250D01*
X939430Y732423D01*
X940135Y730720D01*
X941258Y729258D01*
X942720Y728136D01*
X944423Y727430D01*
X946250Y727190D01*
X948077Y727430D01*
X949780Y728136D01*
X953258Y729008D01*
X954720Y727886D01*
X956423Y727180D01*
X958250Y726940D01*
X960077Y727180D01*
X961780Y727886D01*
X963242Y729008D01*
X964364Y730470D01*
X965070Y732173D01*
X965310Y734000D01*
X965070Y735827D01*
X964364Y737530D01*
X963242Y738992D01*
X961780Y740115D01*
X960077Y740820D01*
X958250Y741060D01*
X956423Y740820D01*
X954720Y740115D01*
X951242Y739242D01*
X949780Y740365D01*
X948077Y741070D01*
X946250Y741310D01*
D02*
G37*
G36*
X735250Y914598D02*
X733299Y914210D01*
X731645Y913105D01*
X730540Y911451D01*
X730152Y909500D01*
X730540Y907549D01*
X731645Y905895D01*
X733299Y904790D01*
X735250Y904402D01*
X737201Y904790D01*
X738855Y905895D01*
X739960Y907549D01*
X740348Y909500D01*
X739960Y911451D01*
X738855Y913105D01*
X737201Y914210D01*
X735250Y914598D01*
D02*
G37*
G36*
X1590500Y1146598D02*
X1588549Y1146210D01*
X1586895Y1145105D01*
X1585790Y1143451D01*
X1585402Y1141500D01*
X1585790Y1139549D01*
X1586895Y1137895D01*
X1586931Y1137871D01*
Y956655D01*
X1586652Y955250D01*
X1586931Y953846D01*
Y947228D01*
X1510522Y870819D01*
X1482749D01*
X1482076Y871826D01*
X1480091Y873152D01*
X1477750Y873617D01*
X1475409Y873152D01*
X1473424Y871826D01*
X1472098Y869841D01*
X1471633Y867500D01*
X1472098Y865159D01*
X1473424Y863174D01*
X1475409Y861848D01*
X1477750Y861383D01*
X1480091Y861848D01*
X1482076Y863174D01*
X1482415Y863681D01*
X1512000D01*
X1513366Y863953D01*
X1514523Y864727D01*
X1593023Y943227D01*
X1593797Y944384D01*
X1594069Y945750D01*
Y950786D01*
X1595355Y951645D01*
X1596460Y953299D01*
X1596848Y955250D01*
X1596460Y957201D01*
X1595355Y958855D01*
X1594069Y959714D01*
Y1137871D01*
X1594105Y1137895D01*
X1595210Y1139549D01*
X1595598Y1141500D01*
X1595210Y1143451D01*
X1594105Y1145105D01*
X1592451Y1146210D01*
X1590500Y1146598D01*
D02*
G37*
G36*
X834000Y889060D02*
X832173Y888820D01*
X830470Y888114D01*
X829008Y886992D01*
X828248Y886003D01*
X826000Y885746D01*
X823752Y886003D01*
X822992Y886992D01*
X821530Y888114D01*
X819827Y888820D01*
X818000Y889060D01*
X816173Y888820D01*
X814470Y888114D01*
X813008Y886992D01*
X811886Y885530D01*
X811180Y883827D01*
X810940Y882000D01*
X811180Y880173D01*
X811886Y878470D01*
X813008Y877008D01*
Y875992D01*
X811886Y874530D01*
X811180Y872827D01*
X810940Y871000D01*
X811180Y869173D01*
X811886Y867470D01*
X813008Y866008D01*
X814470Y864885D01*
X816173Y864180D01*
X818000Y863940D01*
X819827Y864180D01*
X821530Y864885D01*
X822992Y866008D01*
X824115Y867470D01*
X824820Y869173D01*
X825060Y871000D01*
X824820Y872827D01*
X824319Y874036D01*
X824953Y876017D01*
X826524Y876577D01*
X829314Y876772D01*
X830470Y875885D01*
X832173Y875180D01*
X834000Y874940D01*
X835827Y875180D01*
X837530Y875885D01*
X838992Y877008D01*
X840115Y878470D01*
X840820Y880173D01*
X841060Y882000D01*
X840820Y883827D01*
X840115Y885530D01*
X838992Y886992D01*
X837530Y888114D01*
X835827Y888820D01*
X834000Y889060D01*
D02*
G37*
G36*
X745750Y902598D02*
X743799Y902210D01*
X742145Y901105D01*
X741040Y899451D01*
X740652Y897500D01*
X741040Y895549D01*
X742145Y893895D01*
X743799Y892790D01*
X745750Y892402D01*
X747701Y892790D01*
X749355Y893895D01*
X750460Y895549D01*
X750848Y897500D01*
X750460Y899451D01*
X749355Y901105D01*
X747701Y902210D01*
X745750Y902598D01*
D02*
G37*
G36*
X423500Y913354D02*
X420367Y912941D01*
X417448Y911732D01*
X414941Y909809D01*
X413018Y907302D01*
X411809Y904383D01*
X411396Y901250D01*
X411809Y898117D01*
X413018Y895198D01*
X414941Y892691D01*
X417448Y890768D01*
X420367Y889559D01*
X423500Y889146D01*
X426633Y889559D01*
X429552Y890768D01*
X432058Y892691D01*
X433982Y895198D01*
X435191Y898117D01*
X435604Y901250D01*
X435191Y904383D01*
X433982Y907302D01*
X432058Y909809D01*
X429552Y911732D01*
X426633Y912941D01*
X423500Y913354D01*
D02*
G37*
G36*
X1329250Y839617D02*
X1326909Y839152D01*
X1324924Y837826D01*
X1323598Y835841D01*
X1323132Y833500D01*
X1323598Y831159D01*
X1324924Y829174D01*
X1326909Y827848D01*
X1329250Y827382D01*
X1331591Y827848D01*
X1333576Y829174D01*
X1334902Y831159D01*
X1335367Y833500D01*
X1334902Y835841D01*
X1333576Y837826D01*
X1331591Y839152D01*
X1329250Y839617D01*
D02*
G37*
G36*
X832000Y758617D02*
X829659Y758152D01*
X827674Y756826D01*
X826348Y754841D01*
X825882Y752500D01*
X826348Y750159D01*
X827674Y748174D01*
X829659Y746848D01*
X832000Y746383D01*
X834341Y746848D01*
X836326Y748174D01*
X837652Y750159D01*
X838118Y752500D01*
X837652Y754841D01*
X836326Y756826D01*
X834341Y758152D01*
X832000Y758617D01*
D02*
G37*
G36*
X516250Y944854D02*
X513117Y944441D01*
X510198Y943232D01*
X507691Y941309D01*
X505768Y938802D01*
X504559Y935883D01*
X504146Y932750D01*
X504559Y929617D01*
X505768Y926698D01*
X507691Y924192D01*
X568691Y863192D01*
X573996Y857887D01*
Y823250D01*
Y765250D01*
X574409Y762117D01*
X575396Y759733D01*
Y680957D01*
X574111Y679856D01*
X571396Y678669D01*
X569980Y679256D01*
X567500Y679582D01*
X565020Y679256D01*
X562709Y678298D01*
X560725Y676776D01*
X559803Y675575D01*
X557883Y675199D01*
X557117D01*
X555197Y675575D01*
X554275Y676776D01*
X552291Y678298D01*
X549980Y679256D01*
X547500Y679582D01*
X545020Y679256D01*
X542709Y678298D01*
X540724Y676776D01*
X539803Y675575D01*
X537883Y675199D01*
X537117D01*
X535197Y675575D01*
X534275Y676776D01*
X532291Y678298D01*
X529980Y679256D01*
X527500Y679582D01*
X525020Y679256D01*
X522709Y678298D01*
X520724Y676776D01*
X519803Y675575D01*
X517883Y675199D01*
X517117D01*
X515197Y675575D01*
X514275Y676776D01*
X512291Y678298D01*
X509980Y679256D01*
X507500Y679582D01*
X505020Y679256D01*
X502709Y678298D01*
X500724Y676776D01*
X499803Y675575D01*
X497883Y675199D01*
X497117D01*
X495197Y675575D01*
X494275Y676776D01*
X492291Y678298D01*
X489980Y679256D01*
X487500Y679582D01*
X485020Y679256D01*
X482709Y678298D01*
X480724Y676776D01*
X479803Y675575D01*
X477883Y675199D01*
X477117D01*
X475197Y675575D01*
X474275Y676776D01*
X472291Y678298D01*
X469980Y679256D01*
X467500Y679582D01*
X465020Y679256D01*
X462709Y678298D01*
X460724Y676776D01*
X459202Y674791D01*
X458245Y672480D01*
X457918Y670000D01*
Y660000D01*
X458245Y657520D01*
X459202Y655209D01*
X459944Y654241D01*
X455841Y650137D01*
X455067Y648980D01*
X454795Y647614D01*
Y633088D01*
X451284D01*
Y617912D01*
X454795D01*
Y610250D01*
X454250D01*
Y596250D01*
X457578D01*
X460750Y594250D01*
X460750Y592250D01*
Y580250D01*
X463181D01*
Y570080D01*
X459662D01*
Y556944D01*
X459662Y555920D01*
Y552944D01*
X459662Y551920D01*
Y538784D01*
X459662D01*
X460416Y536963D01*
X420823Y497369D01*
X417690Y498730D01*
X417069Y499272D01*
Y539034D01*
X421088D01*
Y552170D01*
X421088Y553194D01*
Y556170D01*
X421088Y557194D01*
Y570330D01*
X417069D01*
Y579750D01*
X419500D01*
Y593750D01*
X416172D01*
X413000Y595750D01*
X413000Y597750D01*
Y609750D01*
X408433D01*
Y616162D01*
X411944D01*
Y631338D01*
X408921D01*
X408635Y635338D01*
X424328Y651031D01*
X425020Y650744D01*
X427500Y650418D01*
X429980Y650744D01*
X432291Y651702D01*
X434275Y653224D01*
X435798Y655209D01*
X436755Y657520D01*
X437082Y660000D01*
Y670000D01*
X436755Y672480D01*
X435798Y674791D01*
X434275Y676776D01*
X432291Y678298D01*
X429980Y679256D01*
X427500Y679582D01*
X425020Y679256D01*
X422709Y678298D01*
X420724Y676776D01*
X419803Y675575D01*
X417883Y675199D01*
X417117D01*
X415197Y675575D01*
X414275Y676776D01*
X412291Y678298D01*
X409980Y679256D01*
X407500Y679582D01*
X405020Y679256D01*
X402709Y678298D01*
X400724Y676776D01*
X399202Y674791D01*
X398245Y672480D01*
X397918Y670000D01*
Y660000D01*
X398245Y657520D01*
X399202Y655209D01*
X400724Y653224D01*
X402709Y651702D01*
X405020Y650744D01*
X407500Y650418D01*
X408035Y650489D01*
X409903Y646700D01*
X402341Y639137D01*
X401567Y637980D01*
X401295Y636614D01*
Y631338D01*
X397784D01*
Y616162D01*
X401295D01*
Y609750D01*
X401000D01*
Y595750D01*
X404328D01*
X407500Y593750D01*
X407500Y591750D01*
Y579750D01*
X409931D01*
Y570330D01*
X405912D01*
Y557194D01*
X405912Y556170D01*
Y553194D01*
X405912Y552170D01*
Y539034D01*
X409931D01*
Y500478D01*
X368977Y459523D01*
X368203Y458366D01*
X367931Y457000D01*
Y427000D01*
X368203Y425634D01*
X368977Y424477D01*
X415143Y378310D01*
X415334Y377307D01*
X414665Y373344D01*
X413924Y372775D01*
X412402Y370791D01*
X411445Y368480D01*
X411118Y366000D01*
Y356000D01*
X411445Y353520D01*
X412402Y351209D01*
X413924Y349225D01*
X415909Y347702D01*
X418220Y346744D01*
X420700Y346418D01*
X423180Y346744D01*
X425491Y347702D01*
X427475Y349225D01*
X428998Y351209D01*
X429955Y353520D01*
X430282Y356000D01*
Y366000D01*
X429955Y368480D01*
X428998Y370791D01*
X427475Y372775D01*
X425491Y374298D01*
X424268Y374805D01*
Y377800D01*
X423997Y379166D01*
X423223Y380323D01*
X375069Y428478D01*
Y455522D01*
X383552Y464005D01*
X387806Y462920D01*
X387954Y462750D01*
X389174Y460924D01*
X391159Y459598D01*
X393500Y459132D01*
X395841Y459598D01*
X397826Y460924D01*
X399152Y462909D01*
X399618Y465250D01*
X399481Y465935D01*
X469773Y536227D01*
X470547Y537384D01*
X470819Y538750D01*
Y538784D01*
X474838D01*
Y551920D01*
X474838Y552944D01*
Y555920D01*
X474838Y556944D01*
Y570080D01*
X470319D01*
Y580250D01*
X472750D01*
Y594250D01*
X469422D01*
X466250Y596250D01*
X466250Y598250D01*
Y610250D01*
X461933D01*
Y617912D01*
X465444D01*
Y633088D01*
X461933D01*
Y646136D01*
X466364Y650567D01*
X467500Y650418D01*
X469980Y650744D01*
X472291Y651702D01*
X474275Y653224D01*
X475197Y654425D01*
X477117Y654801D01*
X477883D01*
X479803Y654425D01*
X480724Y653224D01*
X482709Y651702D01*
X485020Y650744D01*
X487500Y650418D01*
X489980Y650744D01*
X492291Y651702D01*
X494275Y653224D01*
X495197Y654425D01*
X497117Y654801D01*
X497883D01*
X499803Y654425D01*
X500724Y653224D01*
X502709Y651702D01*
X505020Y650744D01*
X507500Y650418D01*
X509980Y650744D01*
X512291Y651702D01*
X514275Y653224D01*
X515197Y654425D01*
X517117Y654801D01*
X517883D01*
X519803Y654425D01*
X520724Y653224D01*
X522709Y651702D01*
X525020Y650744D01*
X527500Y650418D01*
X529980Y650744D01*
X532291Y651702D01*
X534275Y653224D01*
X535197Y654425D01*
X537117Y654801D01*
X537883D01*
X539803Y654425D01*
X540724Y653224D01*
X542709Y651702D01*
X545020Y650744D01*
X547500Y650418D01*
X549980Y650744D01*
X552291Y651702D01*
X554275Y653224D01*
X555197Y654425D01*
X557117Y654801D01*
X557883D01*
X559803Y654425D01*
X560725Y653224D01*
X562709Y651702D01*
X565020Y650744D01*
X567500Y650418D01*
X569980Y650744D01*
X571396Y651331D01*
X574111Y650144D01*
X575396Y649043D01*
Y626000D01*
X575809Y622867D01*
X577018Y619948D01*
X578941Y617441D01*
X621941Y574441D01*
X624448Y572518D01*
X627367Y571309D01*
X630500Y570896D01*
X790358D01*
X791153Y566897D01*
X789709Y566298D01*
X787725Y564776D01*
X786202Y562791D01*
X785245Y560480D01*
X784918Y558000D01*
X785245Y555520D01*
X786202Y553209D01*
X787725Y551225D01*
X788925Y550303D01*
X789301Y548383D01*
Y547617D01*
X788925Y545697D01*
X787725Y544775D01*
X786202Y542791D01*
X785245Y540480D01*
X784918Y538000D01*
X785245Y535520D01*
X786202Y533209D01*
X787725Y531225D01*
X789709Y529702D01*
X792020Y528745D01*
X794500Y528418D01*
X796500D01*
X798980Y528745D01*
X801291Y529702D01*
X803276Y531225D01*
X804798Y533209D01*
X805755Y535520D01*
X806082Y538000D01*
X805755Y540480D01*
X804798Y542791D01*
X803276Y544775D01*
X802075Y545697D01*
X801699Y547617D01*
Y548383D01*
X802075Y550303D01*
X803276Y551225D01*
X804798Y553209D01*
X805755Y555520D01*
X806082Y558000D01*
X805755Y560480D01*
X804798Y562791D01*
X803276Y564776D01*
X801291Y566298D01*
X798980Y567256D01*
X798735Y567288D01*
X798633Y571309D01*
X801552Y572518D01*
X804059Y574441D01*
X805982Y576948D01*
X807191Y579867D01*
X807604Y583000D01*
X807328Y585090D01*
X934650Y712412D01*
X1041867D01*
X1042049Y712290D01*
X1044000Y711902D01*
X1045951Y712290D01*
X1047605Y713395D01*
X1048710Y715049D01*
X1049098Y717000D01*
X1048710Y718951D01*
X1047605Y720605D01*
X1045951Y721710D01*
X1044000Y722098D01*
X1042049Y721710D01*
X1041867Y721588D01*
X932750D01*
X930994Y721239D01*
X929506Y720244D01*
X802226Y592965D01*
X801552Y593482D01*
X798633Y594691D01*
X795500Y595104D01*
X782883D01*
X781452Y599104D01*
X782355Y599845D01*
X784792Y602814D01*
X786603Y606202D01*
X787718Y609877D01*
X788094Y613700D01*
X787718Y617523D01*
X786603Y621198D01*
X784792Y624586D01*
X782355Y627555D01*
X779386Y629992D01*
X775998Y631803D01*
X772323Y632918D01*
X768500Y633294D01*
X764677Y632918D01*
X761002Y631803D01*
X757614Y629992D01*
X754645Y627555D01*
X752208Y624586D01*
X750397Y621198D01*
X749282Y617523D01*
X748906Y613700D01*
X749282Y609877D01*
X750397Y606202D01*
X752208Y602814D01*
X754645Y599845D01*
X755548Y599104D01*
X754117Y595104D01*
X635513D01*
X599604Y631013D01*
Y760662D01*
X620600D01*
X625497Y755764D01*
X625540Y755549D01*
X626645Y753895D01*
X628299Y752790D01*
X630250Y752402D01*
X632201Y752790D01*
X633855Y753895D01*
X634960Y755549D01*
X635348Y757500D01*
X634960Y759451D01*
X633855Y761105D01*
X632201Y762210D01*
X631986Y762253D01*
X625744Y768494D01*
X624256Y769489D01*
X622500Y769838D01*
X598588D01*
X598204Y770767D01*
Y818662D01*
X615600D01*
X625497Y808764D01*
X625540Y808549D01*
X626645Y806895D01*
X628299Y805790D01*
X630250Y805402D01*
X632201Y805790D01*
X633855Y806895D01*
X634960Y808549D01*
X635348Y810500D01*
X634960Y812451D01*
X633855Y814105D01*
X632201Y815210D01*
X631986Y815253D01*
X620744Y826494D01*
X619256Y827489D01*
X617500Y827838D01*
X598204D01*
Y862900D01*
X597791Y866033D01*
X597220Y867412D01*
X599348Y871412D01*
X616600D01*
X625747Y862264D01*
X625790Y862049D01*
X626895Y860395D01*
X628549Y859290D01*
X630500Y858902D01*
X632451Y859290D01*
X634105Y860395D01*
X635210Y862049D01*
X635598Y864000D01*
X635210Y865951D01*
X634105Y867605D01*
X632451Y868710D01*
X632236Y868753D01*
X621744Y879244D01*
X620256Y880239D01*
X618500Y880588D01*
X598303D01*
X596772Y884284D01*
X632236Y919747D01*
X632451Y919790D01*
X632633Y919912D01*
X636117D01*
X636299Y919790D01*
X638250Y919402D01*
X640201Y919790D01*
X641855Y920895D01*
X642960Y922549D01*
X643348Y924500D01*
X642960Y926451D01*
X641855Y928105D01*
X640201Y929210D01*
X638250Y929598D01*
X636299Y929210D01*
X636117Y929088D01*
X632633D01*
X632451Y929210D01*
X630500Y929598D01*
X628549Y929210D01*
X626895Y928105D01*
X625790Y926451D01*
X625747Y926236D01*
X582814Y883303D01*
X524809Y941309D01*
X522302Y943232D01*
X519383Y944441D01*
X516250Y944854D01*
D02*
G37*
G36*
X1616250Y1146098D02*
X1614299Y1145710D01*
X1612645Y1144605D01*
X1611540Y1142951D01*
X1611152Y1141000D01*
X1611540Y1139049D01*
X1612645Y1137395D01*
X1612681Y1137371D01*
Y957287D01*
X1612290Y956701D01*
X1611902Y954750D01*
X1612290Y952799D01*
X1612681Y952213D01*
Y945728D01*
X1513772Y846819D01*
X1482832D01*
X1482326Y847576D01*
X1480341Y848902D01*
X1478000Y849368D01*
X1475659Y848902D01*
X1473674Y847576D01*
X1472348Y845591D01*
X1471882Y843250D01*
X1472348Y840909D01*
X1473674Y838924D01*
X1475659Y837598D01*
X1478000Y837132D01*
X1480341Y837598D01*
X1482326Y838924D01*
X1482832Y839681D01*
X1515250D01*
X1516616Y839953D01*
X1517773Y840727D01*
X1619273Y942227D01*
X1620047Y943384D01*
X1620319Y944750D01*
X1620047Y946116D01*
X1619819Y946457D01*
Y950620D01*
X1620605Y951145D01*
X1621710Y952799D01*
X1622098Y954750D01*
X1621710Y956701D01*
X1620605Y958355D01*
X1619819Y958880D01*
Y1137371D01*
X1619855Y1137395D01*
X1620960Y1139049D01*
X1621348Y1141000D01*
X1620960Y1142951D01*
X1619855Y1144605D01*
X1618201Y1145710D01*
X1616250Y1146098D01*
D02*
G37*
G36*
X624500Y403618D02*
X622159Y403152D01*
X620174Y401826D01*
X618848Y399841D01*
X618382Y397500D01*
X618848Y395159D01*
X620174Y393174D01*
X620931Y392668D01*
Y339228D01*
X611772Y330069D01*
X603314D01*
Y332564D01*
X591186D01*
Y320436D01*
X603314D01*
Y322931D01*
X611743D01*
X613000Y322681D01*
X614366Y322953D01*
X615523Y323727D01*
X627023Y335227D01*
X627797Y336384D01*
X628069Y337750D01*
Y392668D01*
X628826Y393174D01*
X630152Y395159D01*
X630617Y397500D01*
X630152Y399841D01*
X628826Y401826D01*
X626841Y403152D01*
X624500Y403618D01*
D02*
G37*
G36*
X709250Y374868D02*
X706909Y374402D01*
X704924Y373076D01*
X703598Y371091D01*
X703132Y368750D01*
X703598Y366409D01*
X703985Y365830D01*
X702155Y361830D01*
X701662D01*
Y348694D01*
X701662Y347670D01*
Y344694D01*
X701662Y343670D01*
Y330534D01*
X698062Y329569D01*
X687064D01*
Y332064D01*
X674936D01*
Y319936D01*
X687064D01*
Y322431D01*
X704500D01*
X705866Y322703D01*
X707023Y323477D01*
X711773Y328227D01*
X712547Y329384D01*
X712776Y330534D01*
X716838D01*
Y343670D01*
X716838Y344694D01*
Y347670D01*
X716838Y348694D01*
Y361830D01*
X716345D01*
X714515Y365830D01*
X714902Y366409D01*
X715368Y368750D01*
X714902Y371091D01*
X713576Y373076D01*
X711591Y374402D01*
X709250Y374868D01*
D02*
G37*
G36*
X914000Y386310D02*
X912173Y386070D01*
X910470Y385364D01*
X909008Y384242D01*
X907886Y382780D01*
X907180Y381077D01*
X906940Y379250D01*
Y370000D01*
Y361000D01*
X907180Y359173D01*
X907886Y357470D01*
X909008Y356007D01*
X912550Y352465D01*
Y318000D01*
X912550D01*
X913896Y314500D01*
X914309Y311367D01*
X915518Y308448D01*
X917441Y305942D01*
X919948Y304018D01*
X922867Y302809D01*
X926000Y302396D01*
X929133Y302809D01*
X932052Y304018D01*
X934558Y305942D01*
X936482Y308448D01*
X937691Y311367D01*
X938104Y314500D01*
X941677Y318000D01*
X1041050D01*
Y357000D01*
X927985D01*
X921060Y363924D01*
Y370000D01*
Y379250D01*
X920820Y381077D01*
X920115Y382780D01*
X918992Y384242D01*
X917530Y385364D01*
X915827Y386070D01*
X914000Y386310D01*
D02*
G37*
G36*
X660300Y373582D02*
X657820Y373256D01*
X655509Y372298D01*
X653525Y370775D01*
X652002Y368791D01*
X651044Y366480D01*
X650718Y364000D01*
Y354000D01*
X651044Y351520D01*
X651902Y349449D01*
X648727Y346273D01*
X647953Y345116D01*
X647681Y343750D01*
Y330500D01*
X647953Y329134D01*
X648727Y327977D01*
X653227Y323477D01*
X654384Y322703D01*
X655750Y322431D01*
X658808D01*
Y319936D01*
X670936D01*
Y332064D01*
X658808D01*
X658808Y332064D01*
X654819Y332090D01*
Y342272D01*
X657446Y344899D01*
X657820Y344744D01*
X660300Y344418D01*
X662780Y344744D01*
X665091Y345702D01*
X667076Y347225D01*
X668598Y349209D01*
X669556Y351520D01*
X669882Y354000D01*
Y364000D01*
X669556Y366480D01*
X668598Y368791D01*
X667076Y370775D01*
X665091Y372298D01*
X662780Y373256D01*
X660300Y373582D01*
D02*
G37*
G36*
X602000Y403867D02*
X599659Y403402D01*
X597674Y402076D01*
X596348Y400091D01*
X595882Y397750D01*
X596348Y395409D01*
X597674Y393424D01*
X598145Y393110D01*
X598367Y389163D01*
X598177Y388973D01*
X597403Y387816D01*
X597131Y386450D01*
Y371890D01*
X596909Y371798D01*
X594925Y370275D01*
X593402Y368291D01*
X592444Y365980D01*
X592118Y363500D01*
Y353500D01*
X592444Y351020D01*
X593402Y348709D01*
X594925Y346725D01*
X596909Y345202D01*
X599220Y344244D01*
X601700Y343918D01*
X604180Y344244D01*
X606491Y345202D01*
X608475Y346725D01*
X609998Y348709D01*
X610955Y351020D01*
X611282Y353500D01*
Y363500D01*
X610955Y365980D01*
X609998Y368291D01*
X608475Y370275D01*
X606491Y371798D01*
X604269Y372719D01*
Y384972D01*
X604523Y385227D01*
X605297Y386384D01*
X605569Y387750D01*
Y392918D01*
X606326Y393424D01*
X607652Y395409D01*
X608117Y397750D01*
X607652Y400091D01*
X606326Y402076D01*
X604341Y403402D01*
X602000Y403867D01*
D02*
G37*
G36*
X576300Y373082D02*
X573820Y372756D01*
X571509Y371798D01*
X569524Y370275D01*
X568002Y368291D01*
X567044Y365980D01*
X566718Y363500D01*
Y353500D01*
X567044Y351020D01*
X567609Y349656D01*
X563977Y346023D01*
X563203Y344866D01*
X562931Y343500D01*
Y331250D01*
X563203Y329884D01*
X563977Y328727D01*
X568727Y323977D01*
X569884Y323203D01*
X571250Y322931D01*
X575058D01*
Y320436D01*
X587186D01*
Y332564D01*
X575058D01*
Y332564D01*
X573902Y332326D01*
X570069Y335533D01*
Y342022D01*
X572739Y344692D01*
X573820Y344244D01*
X576300Y343918D01*
X578780Y344244D01*
X581091Y345202D01*
X583075Y346725D01*
X584598Y348709D01*
X585555Y351020D01*
X585882Y353500D01*
Y363500D01*
X585555Y365980D01*
X584598Y368291D01*
X583075Y370275D01*
X581091Y371798D01*
X578780Y372756D01*
X576300Y373082D01*
D02*
G37*
G36*
X849564Y341064D02*
X837436D01*
Y328936D01*
X849564D01*
Y328936D01*
X853564Y330389D01*
X869660Y314293D01*
X869652Y314250D01*
X870040Y312299D01*
X871145Y310645D01*
X872799Y309540D01*
X874750Y309152D01*
X876701Y309540D01*
X878355Y310645D01*
X879460Y312299D01*
X879848Y314250D01*
X879460Y316201D01*
X878355Y317855D01*
X876701Y318960D01*
X874750Y319348D01*
X874707Y319339D01*
X856523Y337523D01*
X855366Y338297D01*
X854000Y338569D01*
X849564D01*
Y341064D01*
D02*
G37*
G36*
X493000Y307354D02*
X485000D01*
X481867Y306941D01*
X478948Y305732D01*
X476441Y303808D01*
X474518Y301302D01*
X473309Y298383D01*
X472896Y295250D01*
X473309Y292117D01*
X474518Y289198D01*
X476441Y286691D01*
X478948Y284768D01*
X481867Y283559D01*
X485000Y283146D01*
X493000D01*
X496133Y283559D01*
X499052Y284768D01*
X501558Y286691D01*
X503482Y289198D01*
X504691Y292117D01*
X505104Y295250D01*
X504691Y298383D01*
X503482Y301302D01*
X501558Y303808D01*
X499052Y305732D01*
X496133Y306941D01*
X493000Y307354D01*
D02*
G37*
G36*
X677000Y306104D02*
X669000D01*
X665867Y305691D01*
X662948Y304482D01*
X660442Y302558D01*
X658518Y300052D01*
X657309Y297133D01*
X656897Y294000D01*
X657309Y290867D01*
X658518Y287948D01*
X660442Y285441D01*
X662948Y283518D01*
X665867Y282309D01*
X669000Y281896D01*
X677000D01*
X680133Y282309D01*
X683052Y283518D01*
X685558Y285441D01*
X687482Y287948D01*
X688691Y290867D01*
X689103Y294000D01*
X688691Y297133D01*
X687482Y300052D01*
X685558Y302558D01*
X683052Y304482D01*
X680133Y305691D01*
X677000Y306104D01*
D02*
G37*
G36*
X593000Y305604D02*
X585000D01*
X581867Y305191D01*
X578948Y303982D01*
X576441Y302059D01*
X574518Y299552D01*
X573309Y296633D01*
X572896Y293500D01*
X573309Y290367D01*
X574518Y287448D01*
X576441Y284942D01*
X578948Y283018D01*
X581867Y281809D01*
X585000Y281396D01*
X593000D01*
X596133Y281809D01*
X599052Y283018D01*
X601558Y284942D01*
X603482Y287448D01*
X604691Y290367D01*
X605103Y293500D01*
X604691Y296633D01*
X603482Y299552D01*
X601558Y302059D01*
X599052Y303982D01*
X596133Y305191D01*
X593000Y305604D01*
D02*
G37*
G36*
X840000Y315104D02*
X832000D01*
X828867Y314691D01*
X825948Y313482D01*
X823441Y311558D01*
X821518Y309052D01*
X820309Y306133D01*
X819896Y303000D01*
X820309Y299867D01*
X821518Y296948D01*
X823441Y294442D01*
X825948Y292518D01*
X828867Y291309D01*
X832000Y290896D01*
X840000D01*
X843133Y291309D01*
X846052Y292518D01*
X848559Y294442D01*
X850482Y296948D01*
X851691Y299867D01*
X852104Y303000D01*
X851691Y306133D01*
X850482Y309052D01*
X848559Y311558D01*
X846052Y313482D01*
X843133Y314691D01*
X840000Y315104D01*
D02*
G37*
G36*
X412000Y308104D02*
X404000D01*
X400867Y307691D01*
X397948Y306482D01*
X395442Y304559D01*
X393518Y302052D01*
X392309Y299133D01*
X391896Y296000D01*
X392309Y292867D01*
X393518Y289948D01*
X395442Y287442D01*
X397948Y285518D01*
X400867Y284309D01*
X404000Y283897D01*
X412000D01*
X415133Y284309D01*
X418052Y285518D01*
X420559Y287442D01*
X422482Y289948D01*
X423691Y292867D01*
X424104Y296000D01*
X423691Y299133D01*
X422482Y302052D01*
X420559Y304559D01*
X418052Y306482D01*
X415133Y307691D01*
X412000Y308104D01*
D02*
G37*
G36*
X330500Y308104D02*
X322500D01*
X319367Y307691D01*
X316448Y306482D01*
X313941Y304559D01*
X312018Y302052D01*
X310809Y299133D01*
X310396Y296000D01*
X310809Y292867D01*
X312018Y289948D01*
X313941Y287442D01*
X316448Y285518D01*
X319367Y284309D01*
X322500Y283896D01*
X330500D01*
X333633Y284309D01*
X336552Y285518D01*
X339058Y287442D01*
X340982Y289948D01*
X342191Y292867D01*
X342604Y296000D01*
X342191Y299133D01*
X340982Y302052D01*
X339058Y304559D01*
X336552Y306482D01*
X333633Y307691D01*
X330500Y308104D01*
D02*
G37*
G36*
X809250Y424118D02*
X806909Y423652D01*
X804750Y422425D01*
X802591Y423652D01*
X800250Y424118D01*
X797909Y423652D01*
X795924Y422326D01*
X794598Y420341D01*
X794133Y418000D01*
X794598Y415659D01*
X795924Y413674D01*
X797909Y412348D01*
X800250Y411883D01*
X802591Y412348D01*
X804750Y413575D01*
X806909Y412348D01*
X809250Y411883D01*
X811591Y412348D01*
X813576Y413674D01*
X814902Y415659D01*
X815368Y418000D01*
X814902Y420341D01*
X813576Y422326D01*
X811591Y423652D01*
X809250Y424118D01*
D02*
G37*
G36*
X821750Y412368D02*
X819409Y411902D01*
X817424Y410576D01*
X816098Y408591D01*
X815632Y406250D01*
X816098Y403909D01*
X817424Y401924D01*
X819409Y400598D01*
X821750Y400132D01*
X824091Y400598D01*
X826076Y401924D01*
X827402Y403909D01*
X827868Y406250D01*
X827402Y408591D01*
X826076Y410576D01*
X824091Y411902D01*
X821750Y412368D01*
D02*
G37*
G36*
X768500Y501894D02*
X764677Y501518D01*
X761002Y500403D01*
X757614Y498592D01*
X754645Y496155D01*
X752208Y493186D01*
X750397Y489798D01*
X749282Y486123D01*
X748906Y482300D01*
X749282Y478477D01*
X750397Y474802D01*
X752208Y471414D01*
X754645Y468445D01*
X757614Y466008D01*
X761002Y464197D01*
X764677Y463082D01*
X768500Y462706D01*
X772323Y463082D01*
X775998Y464197D01*
X779386Y466008D01*
X782355Y468445D01*
X784792Y471414D01*
X786603Y474802D01*
X787718Y478477D01*
X788094Y482300D01*
X787718Y486123D01*
X786603Y489798D01*
X784792Y493186D01*
X782355Y496155D01*
X779386Y498592D01*
X775998Y500403D01*
X772323Y501518D01*
X768500Y501894D01*
D02*
G37*
G36*
X547500Y459582D02*
X545020Y459255D01*
X542709Y458298D01*
X540724Y456776D01*
X539803Y455575D01*
X537883Y455199D01*
X537117D01*
X535197Y455575D01*
X534275Y456776D01*
X532291Y458298D01*
X529980Y459255D01*
X527500Y459582D01*
X525020Y459255D01*
X522709Y458298D01*
X520724Y456776D01*
X519803Y455575D01*
X517883Y455199D01*
X517117D01*
X515197Y455575D01*
X514275Y456776D01*
X512291Y458298D01*
X509980Y459255D01*
X507500Y459582D01*
X505020Y459255D01*
X502709Y458298D01*
X500724Y456776D01*
X499803Y455575D01*
X497883Y455199D01*
X497117D01*
X495197Y455575D01*
X494275Y456776D01*
X492291Y458298D01*
X489980Y459255D01*
X487500Y459582D01*
X485020Y459255D01*
X482709Y458298D01*
X480724Y456776D01*
X479803Y455575D01*
X477883Y455199D01*
X477117D01*
X475197Y455575D01*
X474275Y456776D01*
X472291Y458298D01*
X469980Y459255D01*
X467500Y459582D01*
X465020Y459255D01*
X462709Y458298D01*
X460724Y456776D01*
X459803Y455575D01*
X457883Y455199D01*
X457117D01*
X455197Y455575D01*
X454275Y456776D01*
X452291Y458298D01*
X449980Y459255D01*
X447500Y459582D01*
X445020Y459255D01*
X442709Y458298D01*
X440724Y456776D01*
X439803Y455575D01*
X437883Y455199D01*
X437117D01*
X435197Y455575D01*
X434275Y456776D01*
X432291Y458298D01*
X429980Y459255D01*
X427500Y459582D01*
X425020Y459255D01*
X422709Y458298D01*
X420724Y456776D01*
X419803Y455575D01*
X417883Y455199D01*
X417117D01*
X415197Y455575D01*
X414275Y456776D01*
X412291Y458298D01*
X409980Y459255D01*
X407500Y459582D01*
X405020Y459255D01*
X402709Y458298D01*
X400724Y456776D01*
X399202Y454791D01*
X398245Y452480D01*
X397918Y450000D01*
Y440000D01*
X398245Y437520D01*
X399202Y435209D01*
X400724Y433224D01*
X402709Y431702D01*
X405020Y430745D01*
X407500Y430418D01*
X409980Y430745D01*
X412291Y431702D01*
X414275Y433224D01*
X415197Y434425D01*
X417117Y434801D01*
X417883D01*
X419803Y434425D01*
X420724Y433224D01*
X422709Y431702D01*
X425020Y430745D01*
X427500Y430418D01*
X429980Y430745D01*
X432291Y431702D01*
X434275Y433224D01*
X435197Y434425D01*
X437117Y434801D01*
X437883D01*
X439803Y434425D01*
X440724Y433224D01*
X442709Y431702D01*
X445020Y430745D01*
X447500Y430418D01*
X449980Y430745D01*
X452291Y431702D01*
X454275Y433224D01*
X455197Y434425D01*
X457117Y434801D01*
X457883D01*
X459803Y434425D01*
X460724Y433224D01*
X462709Y431702D01*
X465020Y430745D01*
X467500Y430418D01*
X469980Y430745D01*
X472291Y431702D01*
X474275Y433224D01*
X475197Y434425D01*
X477117Y434801D01*
X477883D01*
X479803Y434425D01*
X480724Y433224D01*
X482709Y431702D01*
X485020Y430745D01*
X487500Y430418D01*
X489980Y430745D01*
X492291Y431702D01*
X494275Y433224D01*
X495197Y434425D01*
X497117Y434801D01*
X497883D01*
X499803Y434425D01*
X500724Y433224D01*
X502709Y431702D01*
X505020Y430745D01*
X507500Y430418D01*
X509980Y430745D01*
X512291Y431702D01*
X514275Y433224D01*
X515197Y434425D01*
X517117Y434801D01*
X517883D01*
X519803Y434425D01*
X520724Y433224D01*
X522709Y431702D01*
X525020Y430745D01*
X527500Y430418D01*
X529980Y430745D01*
X532291Y431702D01*
X534275Y433224D01*
X535197Y434425D01*
X537117Y434801D01*
X537883D01*
X539803Y434425D01*
X540724Y433224D01*
X542709Y431702D01*
X545020Y430745D01*
X547500Y430418D01*
X549980Y430745D01*
X552291Y431702D01*
X554000Y433013D01*
X555213Y432792D01*
X558000Y431508D01*
Y430500D01*
X577000D01*
Y459500D01*
X558000D01*
Y458492D01*
X555213Y457208D01*
X554000Y456987D01*
X552291Y458298D01*
X549980Y459255D01*
X547500Y459582D01*
D02*
G37*
G36*
X867750Y463868D02*
X865409Y463402D01*
X863424Y462076D01*
X862098Y460091D01*
X861633Y457750D01*
X862098Y455409D01*
X863424Y453424D01*
X865409Y452098D01*
X867750Y451632D01*
X870091Y452098D01*
X872076Y453424D01*
X873402Y455409D01*
X873867Y457750D01*
X873402Y460091D01*
X872076Y462076D01*
X870091Y463402D01*
X867750Y463868D01*
D02*
G37*
G36*
X768500Y405368D02*
X766159Y404902D01*
X764174Y403576D01*
X762848Y401591D01*
X762383Y399250D01*
X762848Y396909D01*
X764174Y394924D01*
X766159Y393598D01*
X768500Y393133D01*
X770841Y393598D01*
X772826Y394924D01*
X773332Y395681D01*
X799272D01*
X805477Y389477D01*
X806634Y388703D01*
X808000Y388431D01*
X822065D01*
X823544Y386473D01*
X823513Y385979D01*
X821827Y382388D01*
X820820Y382256D01*
X818509Y381298D01*
X816525Y379776D01*
X815002Y377791D01*
X814044Y375480D01*
X813718Y373000D01*
Y363000D01*
X814044Y360520D01*
X814170Y360217D01*
X810477Y356523D01*
X809703Y355366D01*
X809431Y354000D01*
Y339750D01*
X809703Y338384D01*
X810477Y337227D01*
X815227Y332477D01*
X816384Y331703D01*
X817750Y331431D01*
X821308D01*
Y328936D01*
X833436D01*
Y341064D01*
X821308D01*
Y341064D01*
X820449Y340941D01*
X816569Y344347D01*
Y351515D01*
X819905Y354123D01*
X820820Y353745D01*
X823300Y353418D01*
X825780Y353745D01*
X828091Y354702D01*
X830076Y356225D01*
X831598Y358209D01*
X832555Y360520D01*
X832882Y363000D01*
Y372697D01*
X834979Y373793D01*
X836433Y374343D01*
X839118Y372206D01*
Y363000D01*
X839445Y360520D01*
X840402Y358209D01*
X841925Y356225D01*
X843909Y354702D01*
X846220Y353745D01*
X848700Y353418D01*
X851180Y353745D01*
X853491Y354702D01*
X855475Y356225D01*
X856998Y358209D01*
X857955Y360520D01*
X858282Y363000D01*
Y373000D01*
X857955Y375480D01*
X856998Y377791D01*
X855475Y379776D01*
X853491Y381298D01*
X851180Y382256D01*
X848700Y382582D01*
X846220Y382256D01*
X843909Y381298D01*
X841951Y379796D01*
X827223Y394523D01*
X826066Y395297D01*
X824700Y395569D01*
X809478D01*
X803273Y401773D01*
X802116Y402547D01*
X800750Y402819D01*
X773332D01*
X772826Y403576D01*
X770841Y404902D01*
X768500Y405368D01*
D02*
G37*
G36*
X501700Y374832D02*
X499220Y374506D01*
X496909Y373548D01*
X494925Y372025D01*
X493402Y370041D01*
X492445Y367730D01*
X492118Y365250D01*
Y355250D01*
X492445Y352770D01*
X493402Y350459D01*
X494925Y348475D01*
X496909Y346952D01*
X499220Y345994D01*
X501700Y345668D01*
X504180Y345994D01*
X506491Y346952D01*
X508475Y348475D01*
X509998Y350459D01*
X510956Y352770D01*
X511282Y355250D01*
Y365250D01*
X510956Y367730D01*
X509998Y370041D01*
X508475Y372025D01*
X506491Y373548D01*
X504180Y374506D01*
X501700Y374832D01*
D02*
G37*
G36*
X476300D02*
X473820Y374506D01*
X471509Y373548D01*
X469525Y372025D01*
X468002Y370041D01*
X467045Y367730D01*
X466718Y365250D01*
Y355250D01*
X467045Y352770D01*
X468002Y350459D01*
X469525Y348475D01*
X471509Y346952D01*
X473820Y345994D01*
X476300Y345668D01*
X478780Y345994D01*
X481091Y346952D01*
X483075Y348475D01*
X484598Y350459D01*
X485555Y352770D01*
X485882Y355250D01*
Y365250D01*
X485555Y367730D01*
X484598Y370041D01*
X483075Y372025D01*
X481091Y373548D01*
X478780Y374506D01*
X476300Y374832D01*
D02*
G37*
G36*
X685700Y373582D02*
X683220Y373256D01*
X680909Y372298D01*
X678925Y370775D01*
X677402Y368791D01*
X676444Y366480D01*
X676118Y364000D01*
Y354000D01*
X676444Y351520D01*
X677402Y349209D01*
X678925Y347225D01*
X680909Y345702D01*
X683220Y344744D01*
X685700Y344418D01*
X688180Y344744D01*
X690491Y345702D01*
X692476Y347225D01*
X693998Y349209D01*
X694956Y351520D01*
X695282Y354000D01*
Y364000D01*
X694956Y366480D01*
X693998Y368791D01*
X692476Y370775D01*
X690491Y372298D01*
X688180Y373256D01*
X685700Y373582D01*
D02*
G37*
G36*
X395300Y375582D02*
X392820Y375256D01*
X390509Y374298D01*
X388525Y372775D01*
X387002Y370791D01*
X386045Y368480D01*
X385718Y366000D01*
Y356000D01*
X386045Y353520D01*
X387002Y351209D01*
X388525Y349225D01*
X390509Y347702D01*
X392820Y346744D01*
X395300Y346418D01*
X397780Y346744D01*
X400091Y347702D01*
X402075Y349225D01*
X403598Y351209D01*
X404555Y353520D01*
X404882Y356000D01*
Y366000D01*
X404555Y368480D01*
X403598Y370791D01*
X402075Y372775D01*
X400091Y374298D01*
X397780Y375256D01*
X395300Y375582D01*
D02*
G37*
G36*
X339200Y375582D02*
X336720Y375256D01*
X334409Y374298D01*
X332425Y372775D01*
X330902Y370791D01*
X329945Y368480D01*
X329618Y366000D01*
Y356000D01*
X329945Y353520D01*
X330902Y351209D01*
X332425Y349225D01*
X334409Y347702D01*
X336720Y346744D01*
X339200Y346418D01*
X341680Y346744D01*
X343991Y347702D01*
X345975Y349225D01*
X347498Y351209D01*
X348456Y353520D01*
X348782Y356000D01*
Y366000D01*
X348456Y368480D01*
X347498Y370791D01*
X345975Y372775D01*
X343991Y374298D01*
X341680Y375256D01*
X339200Y375582D01*
D02*
G37*
G36*
X313800D02*
X311320Y375256D01*
X309009Y374298D01*
X307025Y372775D01*
X305502Y370791D01*
X304545Y368480D01*
X304218Y366000D01*
Y356000D01*
X304545Y353520D01*
X305502Y351209D01*
X307025Y349225D01*
X309009Y347702D01*
X311320Y346744D01*
X313800Y346418D01*
X316280Y346744D01*
X318591Y347702D01*
X320575Y349225D01*
X322098Y351209D01*
X323055Y353520D01*
X323382Y356000D01*
Y366000D01*
X323055Y368480D01*
X322098Y370791D01*
X320575Y372775D01*
X318591Y374298D01*
X316280Y375256D01*
X313800Y375582D01*
D02*
G37*
G36*
X1251500Y1020310D02*
X1249673Y1020070D01*
X1247970Y1019364D01*
X1246508Y1018242D01*
X1245386Y1016780D01*
X1244680Y1015077D01*
X1244440Y1013250D01*
X1244680Y1011423D01*
X1245386Y1009720D01*
X1246508Y1008258D01*
X1247970Y1007135D01*
X1249673Y1006430D01*
X1251500Y1006190D01*
X1253327Y1006430D01*
X1254253Y1006813D01*
X1257486Y1005632D01*
X1258263Y1005156D01*
X1258600Y1004789D01*
X1258855Y1004103D01*
X1258430Y1003077D01*
X1258190Y1001250D01*
X1258430Y999423D01*
X1259136Y997720D01*
X1260258Y996257D01*
X1261720Y995135D01*
X1263423Y994430D01*
X1265250Y994190D01*
X1267077Y994430D01*
X1268780Y995135D01*
X1270242Y996257D01*
X1271365Y997720D01*
X1272070Y999423D01*
X1272310Y1001250D01*
X1272070Y1003077D01*
X1271365Y1004780D01*
X1270492Y1008008D01*
X1271615Y1009470D01*
X1272320Y1011173D01*
X1272560Y1013000D01*
X1272320Y1014827D01*
X1271615Y1016530D01*
X1270492Y1017992D01*
X1269030Y1019115D01*
X1267327Y1019820D01*
X1265500Y1020060D01*
X1263673Y1019820D01*
X1261970Y1019115D01*
X1261142Y1018479D01*
X1260174Y1018013D01*
X1256593Y1018236D01*
X1256141Y1018512D01*
X1255030Y1019364D01*
X1253327Y1020070D01*
X1251500Y1020310D01*
D02*
G37*
G36*
X540400Y1249582D02*
X537920Y1249256D01*
X535609Y1248298D01*
X533625Y1246776D01*
X532102Y1244791D01*
X531145Y1242480D01*
X530818Y1240000D01*
Y1230000D01*
X531145Y1227520D01*
X532102Y1225209D01*
X533625Y1223224D01*
X535609Y1221702D01*
X537920Y1220744D01*
X540400Y1220418D01*
X542880Y1220744D01*
X545191Y1221702D01*
X547175Y1223224D01*
X548698Y1225209D01*
X549655Y1227520D01*
X549982Y1230000D01*
Y1240000D01*
X549655Y1242480D01*
X548698Y1244791D01*
X547175Y1246776D01*
X545191Y1248298D01*
X542880Y1249256D01*
X540400Y1249582D01*
D02*
G37*
G36*
X515000D02*
X512520Y1249256D01*
X510209Y1248298D01*
X508225Y1246776D01*
X506702Y1244791D01*
X505745Y1242480D01*
X505418Y1240000D01*
Y1230000D01*
X505745Y1227520D01*
X506702Y1225209D01*
X508225Y1223224D01*
X510209Y1221702D01*
X512520Y1220744D01*
X515000Y1220418D01*
X517480Y1220744D01*
X519791Y1221702D01*
X521776Y1223224D01*
X523298Y1225209D01*
X524255Y1227520D01*
X524582Y1230000D01*
Y1240000D01*
X524255Y1242480D01*
X523298Y1244791D01*
X521776Y1246776D01*
X519791Y1248298D01*
X517480Y1249256D01*
X515000Y1249582D01*
D02*
G37*
G36*
X452200D02*
X449720Y1249256D01*
X447409Y1248298D01*
X445425Y1246776D01*
X443902Y1244791D01*
X442945Y1242480D01*
X442618Y1240000D01*
Y1230000D01*
X442945Y1227520D01*
X443902Y1225209D01*
X445425Y1223224D01*
X447409Y1221702D01*
X449720Y1220744D01*
X452200Y1220418D01*
X454680Y1220744D01*
X456991Y1221702D01*
X458975Y1223224D01*
X460498Y1225209D01*
X461455Y1227520D01*
X461782Y1230000D01*
Y1240000D01*
X461455Y1242480D01*
X460498Y1244791D01*
X458975Y1246776D01*
X456991Y1248298D01*
X454680Y1249256D01*
X452200Y1249582D01*
D02*
G37*
G36*
X1353000Y1237556D02*
X1351303Y1237333D01*
X1349722Y1236678D01*
X1348364Y1235636D01*
X1347322Y1234278D01*
X1346667Y1232697D01*
X1346444Y1231000D01*
X1346667Y1229303D01*
X1347322Y1227722D01*
X1348364Y1226364D01*
X1349722Y1225322D01*
X1351303Y1224667D01*
X1353000Y1224444D01*
X1354697Y1224667D01*
X1356278Y1225322D01*
X1357636Y1226364D01*
X1358678Y1227722D01*
X1359333Y1229303D01*
X1359556Y1231000D01*
X1359333Y1232697D01*
X1358678Y1234278D01*
X1357636Y1235636D01*
X1356278Y1236678D01*
X1354697Y1237333D01*
X1353000Y1237556D01*
D02*
G37*
G36*
X630200Y1249582D02*
X627720Y1249256D01*
X625409Y1248298D01*
X623425Y1246776D01*
X621902Y1244791D01*
X620945Y1242480D01*
X620618Y1240000D01*
Y1230000D01*
X620945Y1227520D01*
X621902Y1225209D01*
X623425Y1223224D01*
X625409Y1221702D01*
X627720Y1220744D01*
X630200Y1220418D01*
X632680Y1220744D01*
X634991Y1221702D01*
X636976Y1223224D01*
X638498Y1225209D01*
X639455Y1227520D01*
X639782Y1230000D01*
Y1240000D01*
X639455Y1242480D01*
X638498Y1244791D01*
X636976Y1246776D01*
X634991Y1248298D01*
X632680Y1249256D01*
X630200Y1249582D01*
D02*
G37*
G36*
X604800D02*
X602320Y1249256D01*
X600009Y1248298D01*
X598025Y1246776D01*
X596502Y1244791D01*
X595545Y1242480D01*
X595218Y1240000D01*
Y1230000D01*
X595545Y1227520D01*
X596502Y1225209D01*
X598025Y1223224D01*
X600009Y1221702D01*
X602320Y1220744D01*
X604800Y1220418D01*
X607280Y1220744D01*
X609591Y1221702D01*
X611576Y1223224D01*
X613098Y1225209D01*
X614055Y1227520D01*
X614382Y1230000D01*
Y1240000D01*
X614055Y1242480D01*
X613098Y1244791D01*
X611576Y1246776D01*
X609591Y1248298D01*
X607280Y1249256D01*
X604800Y1249582D01*
D02*
G37*
G36*
X1433500Y1228556D02*
X1431803Y1228333D01*
X1430222Y1227678D01*
X1428864Y1226636D01*
X1427822Y1225278D01*
X1427167Y1223697D01*
X1426944Y1222000D01*
X1427167Y1220303D01*
X1427822Y1218722D01*
X1428864Y1217364D01*
X1430222Y1216322D01*
X1431803Y1215667D01*
X1433500Y1215444D01*
X1435197Y1215667D01*
X1436778Y1216322D01*
X1438136Y1217364D01*
X1439178Y1218722D01*
X1439833Y1220303D01*
X1440056Y1222000D01*
X1439833Y1223697D01*
X1439178Y1225278D01*
X1438136Y1226636D01*
X1436778Y1227678D01*
X1435197Y1228333D01*
X1433500Y1228556D01*
D02*
G37*
G36*
X1403500D02*
X1401803Y1228333D01*
X1400222Y1227678D01*
X1398864Y1226636D01*
X1397822Y1225278D01*
X1397167Y1223697D01*
X1396944Y1222000D01*
X1397167Y1220303D01*
X1397822Y1218722D01*
X1398864Y1217364D01*
X1400222Y1216322D01*
X1401803Y1215667D01*
X1403500Y1215444D01*
X1405197Y1215667D01*
X1406778Y1216322D01*
X1408136Y1217364D01*
X1409178Y1218722D01*
X1409833Y1220303D01*
X1410056Y1222000D01*
X1409833Y1223697D01*
X1409178Y1225278D01*
X1408136Y1226636D01*
X1406778Y1227678D01*
X1405197Y1228333D01*
X1403500Y1228556D01*
D02*
G37*
G36*
X1155800Y1222082D02*
X1153320Y1221756D01*
X1151009Y1220798D01*
X1149025Y1219276D01*
X1147502Y1217291D01*
X1146544Y1214980D01*
X1146218Y1212500D01*
Y1202500D01*
X1146544Y1200020D01*
X1147502Y1197709D01*
X1149025Y1195724D01*
X1151009Y1194202D01*
X1153320Y1193244D01*
X1155800Y1192918D01*
X1158280Y1193244D01*
X1160591Y1194202D01*
X1162575Y1195724D01*
X1164098Y1197709D01*
X1165055Y1200020D01*
X1165382Y1202500D01*
Y1212500D01*
X1165055Y1214980D01*
X1164098Y1217291D01*
X1162575Y1219276D01*
X1160591Y1220798D01*
X1158280Y1221756D01*
X1155800Y1222082D01*
D02*
G37*
G36*
X426800Y1249582D02*
X424320Y1249256D01*
X422009Y1248298D01*
X420025Y1246776D01*
X418502Y1244791D01*
X417545Y1242480D01*
X417218Y1240000D01*
Y1230000D01*
X417545Y1227520D01*
X418502Y1225209D01*
X420025Y1223224D01*
X422009Y1221702D01*
X424320Y1220744D01*
X426800Y1220418D01*
X429280Y1220744D01*
X431591Y1221702D01*
X433576Y1223224D01*
X435098Y1225209D01*
X436055Y1227520D01*
X436382Y1230000D01*
Y1240000D01*
X436055Y1242480D01*
X435098Y1244791D01*
X433576Y1246776D01*
X431591Y1248298D01*
X429280Y1249256D01*
X426800Y1249582D01*
D02*
G37*
G36*
X361000D02*
X358520Y1249256D01*
X356209Y1248298D01*
X354225Y1246776D01*
X352702Y1244791D01*
X351744Y1242480D01*
X351418Y1240000D01*
Y1230000D01*
X351744Y1227520D01*
X352702Y1225209D01*
X354225Y1223224D01*
X356209Y1221702D01*
X358520Y1220744D01*
X361000Y1220418D01*
X363480Y1220744D01*
X365791Y1221702D01*
X367775Y1223224D01*
X369298Y1225209D01*
X370255Y1227520D01*
X370582Y1230000D01*
Y1240000D01*
X370255Y1242480D01*
X369298Y1244791D01*
X367775Y1246776D01*
X365791Y1248298D01*
X363480Y1249256D01*
X361000Y1249582D01*
D02*
G37*
G36*
X335600D02*
X333120Y1249256D01*
X330809Y1248298D01*
X328825Y1246776D01*
X327302Y1244791D01*
X326344Y1242480D01*
X326018Y1240000D01*
Y1230000D01*
X326344Y1227520D01*
X327302Y1225209D01*
X328825Y1223224D01*
X330809Y1221702D01*
X333120Y1220744D01*
X335600Y1220418D01*
X338080Y1220744D01*
X340391Y1221702D01*
X342375Y1223224D01*
X343898Y1225209D01*
X344855Y1227520D01*
X345182Y1230000D01*
Y1240000D01*
X344855Y1242480D01*
X343898Y1244791D01*
X342375Y1246776D01*
X340391Y1248298D01*
X338080Y1249256D01*
X335600Y1249582D01*
D02*
G37*
G36*
X908500Y1252060D02*
X906673Y1251820D01*
X904970Y1251115D01*
X902788Y1250187D01*
X900280Y1250864D01*
X898577Y1251570D01*
X896750Y1251810D01*
X894923Y1251570D01*
X893220Y1250864D01*
X891758Y1249743D01*
X890636Y1248280D01*
X889930Y1246577D01*
X889690Y1244750D01*
X889930Y1242923D01*
X890636Y1241220D01*
X891758Y1239758D01*
X893220Y1238635D01*
X894923Y1237930D01*
X896750Y1237690D01*
X898577Y1237930D01*
X899469Y1238299D01*
X901944Y1235949D01*
X902313Y1235354D01*
X901680Y1233827D01*
X901440Y1232000D01*
X901680Y1230173D01*
X902385Y1228470D01*
X903508Y1227008D01*
X904970Y1225885D01*
X905180Y1222577D01*
X904940Y1220750D01*
X905180Y1218923D01*
X905885Y1217220D01*
X907008Y1215758D01*
X908470Y1214635D01*
X910173Y1213930D01*
X912000Y1213690D01*
X913827Y1213930D01*
X915530Y1214635D01*
X916992Y1215758D01*
X918114Y1217220D01*
X918820Y1218923D01*
X919060Y1220750D01*
X918820Y1222577D01*
X918114Y1224280D01*
X916992Y1225742D01*
X915530Y1226864D01*
X915320Y1230173D01*
X915560Y1232000D01*
X915320Y1233827D01*
X914614Y1235530D01*
X913493Y1236992D01*
Y1240008D01*
X914614Y1241470D01*
X915320Y1243173D01*
X915560Y1245000D01*
X915320Y1246827D01*
X914614Y1248530D01*
X913493Y1249992D01*
X912030Y1251115D01*
X910327Y1251820D01*
X908500Y1252060D01*
D02*
G37*
G36*
X352300Y1312103D02*
X344300D01*
X341167Y1311691D01*
X338248Y1310482D01*
X335742Y1308559D01*
X333818Y1306052D01*
X332609Y1303133D01*
X332196Y1300000D01*
X332609Y1296867D01*
X333818Y1293948D01*
X335742Y1291441D01*
X338248Y1289518D01*
X341167Y1288309D01*
X344300Y1287896D01*
X352300D01*
X355433Y1288309D01*
X358352Y1289518D01*
X360858Y1291441D01*
X362782Y1293948D01*
X363991Y1296867D01*
X364403Y1300000D01*
X363991Y1303133D01*
X362782Y1306052D01*
X360858Y1308559D01*
X358352Y1310482D01*
X355433Y1311691D01*
X352300Y1312103D01*
D02*
G37*
G36*
X480588Y1276466D02*
X465412D01*
Y1273974D01*
X453064D01*
Y1275064D01*
X440936D01*
Y1262936D01*
X453064D01*
Y1264798D01*
X462920D01*
X465412Y1262306D01*
Y1259330D01*
X465412Y1258306D01*
Y1245170D01*
X468412D01*
Y1178000D01*
X468761Y1176244D01*
X469756Y1174756D01*
X476725Y1167787D01*
X477098Y1165909D01*
X478424Y1163924D01*
X480409Y1162598D01*
X482750Y1162132D01*
X485091Y1162598D01*
X487076Y1163924D01*
X488402Y1165909D01*
X488868Y1168250D01*
X488402Y1170591D01*
X487076Y1172576D01*
X485091Y1173902D01*
X483213Y1174275D01*
X477588Y1179901D01*
Y1245170D01*
X480588D01*
Y1258306D01*
X480588Y1259330D01*
Y1262306D01*
X480588Y1263330D01*
Y1276466D01*
D02*
G37*
G36*
X394088Y1275466D02*
X378912D01*
Y1273088D01*
X361064D01*
Y1274564D01*
X348936D01*
Y1262436D01*
X361064D01*
Y1263912D01*
X378912D01*
Y1261306D01*
X394088D01*
Y1275466D01*
D02*
G37*
G36*
X621500Y1312103D02*
X613500D01*
X610367Y1311691D01*
X607448Y1310482D01*
X604941Y1308559D01*
X603018Y1306052D01*
X601809Y1303133D01*
X601396Y1300000D01*
X601809Y1296867D01*
X603018Y1293948D01*
X604941Y1291441D01*
X607448Y1289518D01*
X610367Y1288309D01*
X613500Y1287896D01*
X621500D01*
X624633Y1288309D01*
X627552Y1289518D01*
X630059Y1291441D01*
X631982Y1293948D01*
X633191Y1296867D01*
X633604Y1300000D01*
X633191Y1303133D01*
X631982Y1306052D01*
X630059Y1308559D01*
X627552Y1310482D01*
X624633Y1311691D01*
X621500Y1312103D01*
D02*
G37*
G36*
X531700D02*
X523700D01*
X520567Y1311691D01*
X517648Y1310482D01*
X515141Y1308559D01*
X513218Y1306052D01*
X512009Y1303133D01*
X511596Y1300000D01*
X512009Y1296867D01*
X513218Y1293948D01*
X515141Y1291441D01*
X517648Y1289518D01*
X520567Y1288309D01*
X523700Y1287896D01*
X531700D01*
X534833Y1288309D01*
X537752Y1289518D01*
X540258Y1291441D01*
X542182Y1293948D01*
X543391Y1296867D01*
X543804Y1300000D01*
X543391Y1303133D01*
X542182Y1306052D01*
X540258Y1308559D01*
X537752Y1310482D01*
X534833Y1311691D01*
X531700Y1312103D01*
D02*
G37*
G36*
X443500D02*
X435500D01*
X432367Y1311691D01*
X429448Y1310482D01*
X426941Y1308559D01*
X425018Y1306052D01*
X423809Y1303133D01*
X423396Y1300000D01*
X423809Y1296867D01*
X425018Y1293948D01*
X426941Y1291441D01*
X429448Y1289518D01*
X432367Y1288309D01*
X435500Y1287896D01*
X443500D01*
X446633Y1288309D01*
X449552Y1289518D01*
X452058Y1291441D01*
X453982Y1293948D01*
X455191Y1296867D01*
X455604Y1300000D01*
X455191Y1303133D01*
X453982Y1306052D01*
X452058Y1308559D01*
X449552Y1310482D01*
X446633Y1311691D01*
X443500Y1312103D01*
D02*
G37*
G36*
X501500Y1274867D02*
X499159Y1274402D01*
X497174Y1273076D01*
X495848Y1271091D01*
X495382Y1268750D01*
X495848Y1266409D01*
X497174Y1264424D01*
X499159Y1263098D01*
X501500Y1262633D01*
X503841Y1263098D01*
X505433Y1264162D01*
X511558D01*
Y1262686D01*
X523686D01*
Y1274814D01*
X511558D01*
Y1273338D01*
X505433D01*
X503841Y1274402D01*
X501500Y1274867D01*
D02*
G37*
G36*
X539814Y1274814D02*
X527686D01*
Y1262686D01*
X539814D01*
Y1263662D01*
X552317D01*
X553909Y1262598D01*
X556250Y1262132D01*
X558591Y1262598D01*
X560576Y1263924D01*
X561902Y1265909D01*
X562368Y1268250D01*
X561902Y1270591D01*
X560576Y1272576D01*
X558591Y1273902D01*
X556250Y1274368D01*
X553909Y1273902D01*
X552317Y1272838D01*
X539814D01*
Y1274814D01*
D02*
G37*
G36*
X629564D02*
X617436D01*
Y1262686D01*
X629564D01*
Y1264162D01*
X640850D01*
X647506Y1257506D01*
X648994Y1256511D01*
X650750Y1256162D01*
X769567D01*
X771159Y1255098D01*
X773500Y1254632D01*
X775841Y1255098D01*
X777826Y1256424D01*
X779152Y1258409D01*
X779617Y1260750D01*
X779152Y1263091D01*
X777826Y1265076D01*
X775841Y1266402D01*
X773500Y1266868D01*
X771159Y1266402D01*
X769567Y1265338D01*
X652651D01*
X645994Y1271994D01*
X644506Y1272989D01*
X642750Y1273338D01*
X629564D01*
Y1274814D01*
D02*
G37*
G36*
X344936Y1274564D02*
X332808D01*
Y1273088D01*
X326309D01*
X325091Y1273902D01*
X322750Y1274368D01*
X320409Y1273902D01*
X318424Y1272576D01*
X317098Y1270591D01*
X316632Y1268250D01*
X317098Y1265909D01*
X318424Y1263924D01*
X320409Y1262598D01*
X322750Y1262132D01*
X325091Y1262598D01*
X327057Y1263912D01*
X332808D01*
Y1262436D01*
X344936D01*
Y1274564D01*
D02*
G37*
G36*
X416250Y1275117D02*
X413909Y1274652D01*
X411924Y1273326D01*
X410598Y1271341D01*
X410132Y1269000D01*
X410598Y1266659D01*
X411924Y1264674D01*
X413909Y1263348D01*
X416250Y1262883D01*
X418591Y1263348D01*
X420183Y1264412D01*
X424808D01*
Y1262936D01*
X436936D01*
Y1275064D01*
X424808D01*
Y1273588D01*
X420183D01*
X418591Y1274652D01*
X416250Y1275117D01*
D02*
G37*
G36*
X592250D02*
X589909Y1274652D01*
X587924Y1273326D01*
X586598Y1271341D01*
X586133Y1269000D01*
X586598Y1266659D01*
X587924Y1264674D01*
X589909Y1263348D01*
X592250Y1262883D01*
X594591Y1263348D01*
X595809Y1264162D01*
X601308D01*
Y1262686D01*
X613436D01*
Y1274814D01*
X601308D01*
Y1273338D01*
X596557D01*
X594591Y1274652D01*
X592250Y1275117D01*
D02*
G37*
G36*
X1047000Y1044098D02*
X1045049Y1043710D01*
X1043395Y1042605D01*
X1042290Y1040951D01*
X1041902Y1039000D01*
X1042290Y1037049D01*
X1043395Y1035395D01*
X1045049Y1034290D01*
X1047000Y1033902D01*
X1048951Y1034290D01*
X1050605Y1035395D01*
X1051710Y1037049D01*
X1052098Y1039000D01*
X1051710Y1040951D01*
X1050605Y1042605D01*
X1048951Y1043710D01*
X1047000Y1044098D01*
D02*
G37*
G36*
X1466886Y1042018D02*
X1464406Y1041692D01*
X1462095Y1040735D01*
X1460111Y1039212D01*
X1458588Y1037227D01*
X1457631Y1034916D01*
X1457304Y1032436D01*
X1455666Y1030569D01*
X1411834D01*
X1411407Y1030819D01*
X1408848Y1034500D01*
X1408460Y1036451D01*
X1407355Y1038105D01*
X1405701Y1039210D01*
X1403750Y1039598D01*
X1401799Y1039210D01*
X1400145Y1038105D01*
X1398193Y1036826D01*
X1396201Y1037710D01*
X1394250Y1038098D01*
X1392299Y1037710D01*
X1390645Y1036605D01*
X1389540Y1034951D01*
X1389152Y1033000D01*
X1389540Y1031049D01*
X1390645Y1029395D01*
X1392299Y1028290D01*
X1394250Y1027902D01*
X1394293Y1027911D01*
X1397727Y1024477D01*
X1398884Y1023703D01*
X1400250Y1023431D01*
X1461450D01*
X1462815Y1023703D01*
X1462942Y1023788D01*
X1464406Y1023181D01*
X1466886Y1022854D01*
X1469366Y1023181D01*
X1471677Y1024138D01*
X1473661Y1025661D01*
X1475184Y1027645D01*
X1476142Y1029956D01*
X1476468Y1032436D01*
X1476142Y1034916D01*
X1475184Y1037227D01*
X1473661Y1039212D01*
X1471677Y1040735D01*
X1469366Y1041692D01*
X1466886Y1042018D01*
D02*
G37*
G36*
X706250Y1028310D02*
X704423Y1028070D01*
X702720Y1027365D01*
X701258Y1026242D01*
X700526Y1025289D01*
X698949Y1024882D01*
X695955Y1025140D01*
X695492Y1025742D01*
X694030Y1026864D01*
X692327Y1027570D01*
X690500Y1027810D01*
X688673Y1027570D01*
X686970Y1026864D01*
X685508Y1025742D01*
X684386Y1024280D01*
X683680Y1022577D01*
X683440Y1020750D01*
X683680Y1018923D01*
X684386Y1017220D01*
X685508Y1015758D01*
Y1012992D01*
X684386Y1011530D01*
X683680Y1009827D01*
X683440Y1008000D01*
X683680Y1006173D01*
X684386Y1004470D01*
X685508Y1003008D01*
X686970Y1001886D01*
X688673Y1001180D01*
X690500Y1000940D01*
X692327Y1001180D01*
X694030Y1001886D01*
X695492Y1003008D01*
X696615Y1004470D01*
X697320Y1006173D01*
X697560Y1008000D01*
X697320Y1009827D01*
X696615Y1011530D01*
X695492Y1012992D01*
Y1014152D01*
X697297Y1015638D01*
X701258Y1016258D01*
X702720Y1015135D01*
X704423Y1014430D01*
X706250Y1014190D01*
X708077Y1014430D01*
X709780Y1015135D01*
X711242Y1016258D01*
X714730Y1015404D01*
X716162Y1012543D01*
X715386Y1011530D01*
X714680Y1009827D01*
X714440Y1008000D01*
X714680Y1006173D01*
X715386Y1004470D01*
X716508Y1003008D01*
X717970Y1001886D01*
X719673Y1001180D01*
X721500Y1000940D01*
X723327Y1001180D01*
X725030Y1001886D01*
X726492Y1003008D01*
X727615Y1004470D01*
X728320Y1006173D01*
X728560Y1008000D01*
X728320Y1009827D01*
X727615Y1011530D01*
X727522Y1011651D01*
X727416Y1011792D01*
X727952Y1013278D01*
X729132Y1014047D01*
X731904Y1014800D01*
X732451Y1014790D01*
X733923Y1014180D01*
X735750Y1013940D01*
X737577Y1014180D01*
X739280Y1014885D01*
X740742Y1016008D01*
X741864Y1017470D01*
X742570Y1019173D01*
X742810Y1021000D01*
X742570Y1022827D01*
X741864Y1024530D01*
X740742Y1025992D01*
X739280Y1027114D01*
X737577Y1027820D01*
X735750Y1028060D01*
X733923Y1027820D01*
X732220Y1027114D01*
X731109Y1026262D01*
X730657Y1025986D01*
X727076Y1025763D01*
X726108Y1026229D01*
X725280Y1026864D01*
X723577Y1027570D01*
X721750Y1027810D01*
X719923Y1027570D01*
X718220Y1026864D01*
X716758Y1025742D01*
X716457Y1025351D01*
X714320Y1025053D01*
X712964Y1025133D01*
X711812Y1025501D01*
X711242Y1026242D01*
X709780Y1027365D01*
X708077Y1028070D01*
X706250Y1028310D01*
D02*
G37*
G36*
X442500Y1072060D02*
X440673Y1071820D01*
X438970Y1071115D01*
X437508Y1069992D01*
X437398Y1069849D01*
X436537Y1069549D01*
X433463D01*
X432602Y1069849D01*
X432492Y1069992D01*
X431030Y1071115D01*
X429327Y1071820D01*
X427500Y1072060D01*
X425673Y1071820D01*
X423970Y1071115D01*
X422508Y1069992D01*
X421385Y1068530D01*
X420680Y1066827D01*
X420440Y1065000D01*
X420680Y1063173D01*
X421385Y1061470D01*
X422508Y1060008D01*
X422651Y1059898D01*
X422951Y1059037D01*
Y1055963D01*
X422651Y1055102D01*
X422508Y1054993D01*
X421385Y1053530D01*
X420680Y1051827D01*
X420440Y1050000D01*
X420680Y1048173D01*
X421385Y1046470D01*
X422508Y1045008D01*
X423970Y1043885D01*
X425673Y1043180D01*
X427500Y1042940D01*
X429327Y1043180D01*
X431030Y1043885D01*
X432492Y1045008D01*
X432602Y1045151D01*
X433463Y1045451D01*
X436537D01*
X437398Y1045151D01*
X437508Y1045008D01*
X438970Y1043885D01*
X440673Y1043180D01*
X442500Y1042940D01*
X444327Y1043180D01*
X446030Y1043885D01*
X447492Y1045008D01*
X448615Y1046470D01*
X449320Y1048173D01*
X449560Y1050000D01*
X449320Y1051827D01*
X448615Y1053530D01*
X447492Y1054993D01*
X447349Y1055102D01*
X447049Y1055963D01*
Y1059037D01*
X447349Y1059898D01*
X447492Y1060008D01*
X448615Y1061470D01*
X449320Y1063173D01*
X449560Y1065000D01*
X449320Y1066827D01*
X448615Y1068530D01*
X447492Y1069992D01*
X446030Y1071115D01*
X444327Y1071820D01*
X442500Y1072060D01*
D02*
G37*
G36*
X1524250Y1061965D02*
X1521909Y1061500D01*
X1519924Y1060174D01*
X1518598Y1058189D01*
X1518132Y1055848D01*
X1518598Y1053507D01*
X1519924Y1051522D01*
X1521909Y1050196D01*
X1524250Y1049731D01*
X1526591Y1050196D01*
X1528576Y1051522D01*
X1529902Y1053507D01*
X1530368Y1055848D01*
X1529902Y1058189D01*
X1528576Y1060174D01*
X1526591Y1061500D01*
X1524250Y1061965D01*
D02*
G37*
G36*
X1538000Y1049867D02*
X1535659Y1049402D01*
X1533674Y1048076D01*
X1532348Y1046091D01*
X1531882Y1043750D01*
X1532348Y1041409D01*
X1533674Y1039424D01*
X1535659Y1038098D01*
X1538000Y1037633D01*
X1540341Y1038098D01*
X1542326Y1039424D01*
X1543652Y1041409D01*
X1544117Y1043750D01*
X1543652Y1046091D01*
X1542326Y1048076D01*
X1540341Y1049402D01*
X1538000Y1049867D01*
D02*
G37*
G36*
X1466886Y1016618D02*
X1464406Y1016292D01*
X1462095Y1015335D01*
X1460111Y1013812D01*
X1458588Y1011827D01*
X1458082Y1010605D01*
X1444036D01*
X1442671Y1010333D01*
X1441513Y1009560D01*
X1430272Y998319D01*
X1412134D01*
X1411909Y998432D01*
X1409098Y1002000D01*
X1408710Y1003951D01*
X1407605Y1005605D01*
X1405951Y1006710D01*
X1404000Y1007098D01*
X1402049Y1006710D01*
X1400395Y1005605D01*
X1400240Y1005373D01*
X1399226Y1003940D01*
X1396451Y1003460D01*
X1394500Y1003848D01*
X1392549Y1003460D01*
X1390895Y1002355D01*
X1389790Y1000701D01*
X1389402Y998750D01*
X1389790Y996799D01*
X1390895Y995145D01*
X1392549Y994040D01*
X1394500Y993652D01*
X1394543Y993661D01*
X1395977Y992227D01*
X1397134Y991453D01*
X1398500Y991181D01*
X1431750D01*
X1433116Y991453D01*
X1434273Y992227D01*
X1445515Y1003468D01*
X1458082D01*
X1458588Y1002245D01*
X1460111Y1000261D01*
X1462095Y998738D01*
X1464406Y997781D01*
X1466886Y997454D01*
X1469366Y997781D01*
X1471677Y998738D01*
X1473661Y1000261D01*
X1475184Y1002245D01*
X1476142Y1004556D01*
X1476468Y1007036D01*
X1476142Y1009516D01*
X1475184Y1011827D01*
X1473661Y1013812D01*
X1471677Y1015335D01*
X1469366Y1016292D01*
X1466886Y1016618D01*
D02*
G37*
G36*
X1566250Y1020354D02*
X1563117Y1019941D01*
X1560198Y1018732D01*
X1557691Y1016808D01*
X1555768Y1014302D01*
X1554559Y1011383D01*
X1554146Y1008250D01*
X1554559Y1005117D01*
X1555768Y1002198D01*
X1557691Y999691D01*
X1560198Y997768D01*
X1563117Y996559D01*
X1566250Y996146D01*
X1569383Y996559D01*
X1572302Y997768D01*
X1574809Y999691D01*
X1576732Y1002198D01*
X1577941Y1005117D01*
X1578354Y1008250D01*
X1577941Y1011383D01*
X1576732Y1014302D01*
X1574809Y1016808D01*
X1572302Y1018732D01*
X1569383Y1019941D01*
X1566250Y1020354D01*
D02*
G37*
G36*
X1302500Y1020560D02*
X1300673Y1020320D01*
X1298970Y1019614D01*
X1297508Y1018493D01*
X1296385Y1017030D01*
X1295680Y1015327D01*
X1295440Y1013500D01*
X1295680Y1011673D01*
X1296385Y1009970D01*
X1297508Y1008508D01*
X1297758Y1006243D01*
X1296635Y1004780D01*
X1295930Y1003077D01*
X1295690Y1001250D01*
X1295930Y999423D01*
X1296635Y997720D01*
X1297758Y996257D01*
X1299220Y995135D01*
X1300923Y994430D01*
X1302750Y994190D01*
X1304577Y994430D01*
X1306280Y995135D01*
X1307742Y996257D01*
X1308864Y997720D01*
X1309570Y999423D01*
X1309810Y1001250D01*
X1309570Y1003077D01*
X1308864Y1004780D01*
X1307742Y1006242D01*
X1307493Y1008508D01*
X1308615Y1009970D01*
X1309320Y1011673D01*
X1309560Y1013500D01*
X1309320Y1015327D01*
X1308615Y1017030D01*
X1307493Y1018493D01*
X1306030Y1019614D01*
X1304327Y1020320D01*
X1302500Y1020560D01*
D02*
G37*
G36*
X257000Y1195098D02*
X255049Y1194710D01*
X253395Y1193605D01*
X252290Y1191951D01*
X251902Y1190000D01*
X252290Y1188049D01*
X253395Y1186395D01*
X255049Y1185290D01*
X255264Y1185247D01*
X418756Y1021756D01*
X420244Y1020761D01*
X422000Y1020412D01*
X431412D01*
X432018Y1018948D01*
X433941Y1016441D01*
X436448Y1014518D01*
X439367Y1013309D01*
X442500Y1012896D01*
X445633Y1013309D01*
X448552Y1014518D01*
X451059Y1016441D01*
X452982Y1018948D01*
X454191Y1021867D01*
X454604Y1025000D01*
X454191Y1028133D01*
X452982Y1031052D01*
X451059Y1033559D01*
X448552Y1035482D01*
X445633Y1036691D01*
X442500Y1037104D01*
X439367Y1036691D01*
X436448Y1035482D01*
X433941Y1033559D01*
X432018Y1031052D01*
X431412Y1029588D01*
X423900D01*
X261753Y1191736D01*
X261710Y1191951D01*
X260605Y1193605D01*
X258951Y1194710D01*
X257000Y1195098D01*
D02*
G37*
G36*
X442500Y1007060D02*
X440673Y1006820D01*
X438970Y1006115D01*
X437508Y1004993D01*
X437398Y1004849D01*
X436537Y1004549D01*
X433463D01*
X432602Y1004849D01*
X432492Y1004993D01*
X431030Y1006115D01*
X429327Y1006820D01*
X427500Y1007060D01*
X425673Y1006820D01*
X423970Y1006115D01*
X422508Y1004993D01*
X421385Y1003530D01*
X420680Y1001827D01*
X420440Y1000000D01*
X420680Y998173D01*
X421385Y996470D01*
X422508Y995008D01*
X422651Y994898D01*
X422951Y994037D01*
Y990963D01*
X422651Y990102D01*
X422508Y989992D01*
X421385Y988530D01*
X420680Y986827D01*
X420440Y985000D01*
X420680Y983173D01*
X421385Y981470D01*
X422508Y980007D01*
X422651Y979898D01*
X422951Y979037D01*
Y975963D01*
X422651Y975102D01*
X422508Y974992D01*
X421385Y973530D01*
X420680Y971827D01*
X420440Y970000D01*
X420680Y968173D01*
X421385Y966470D01*
X422508Y965007D01*
X422651Y964898D01*
X422951Y964037D01*
Y960963D01*
X422651Y960102D01*
X422508Y959992D01*
X421385Y958530D01*
X420680Y956827D01*
X420440Y955000D01*
X420680Y953173D01*
X421385Y951470D01*
X422508Y950007D01*
X423970Y948885D01*
X425673Y948180D01*
X427500Y947940D01*
X429327Y948180D01*
X431030Y948885D01*
X432492Y950007D01*
X432602Y950151D01*
X433463Y950451D01*
X436537D01*
X437398Y950151D01*
X437508Y950007D01*
X438970Y948885D01*
X440673Y948180D01*
X442500Y947940D01*
X444327Y948180D01*
X446030Y948885D01*
X447492Y950007D01*
X448615Y951470D01*
X449320Y953173D01*
X449560Y955000D01*
X449320Y956827D01*
X448615Y958530D01*
X447492Y959992D01*
X447349Y960102D01*
X447049Y960963D01*
Y964037D01*
X447349Y964898D01*
X447492Y965007D01*
X448615Y966470D01*
X449320Y968173D01*
X449560Y970000D01*
X449320Y971827D01*
X448615Y973530D01*
X447492Y974992D01*
X447349Y975102D01*
X447049Y975963D01*
Y979037D01*
X447349Y979898D01*
X447492Y980007D01*
X448615Y981470D01*
X449320Y983173D01*
X449560Y985000D01*
X449320Y986827D01*
X448615Y988530D01*
X447492Y989992D01*
X447349Y990102D01*
X447049Y990963D01*
Y994037D01*
X447349Y994898D01*
X447492Y995008D01*
X448615Y996470D01*
X449320Y998173D01*
X449560Y1000000D01*
X449320Y1001827D01*
X448615Y1003530D01*
X447492Y1004993D01*
X446030Y1006115D01*
X444327Y1006820D01*
X442500Y1007060D01*
D02*
G37*
G36*
X656250Y1027560D02*
X654423Y1027320D01*
X652720Y1026615D01*
X651257Y1025492D01*
X650135Y1024030D01*
X649430Y1022327D01*
X649190Y1020500D01*
X649430Y1018673D01*
X650135Y1016970D01*
X650337Y1016708D01*
X651247Y1015387D01*
X651008Y1012492D01*
X649885Y1011030D01*
X649180Y1009327D01*
X648940Y1007500D01*
X649180Y1005673D01*
X649885Y1003970D01*
X651008Y1002507D01*
X652470Y1001385D01*
X654173Y1000680D01*
X656000Y1000440D01*
X657827Y1000680D01*
X659530Y1001385D01*
X660993Y1002507D01*
X662114Y1003970D01*
X662820Y1005673D01*
X663060Y1007500D01*
X662820Y1009327D01*
X662114Y1011030D01*
X661913Y1011292D01*
X661003Y1012613D01*
X661242Y1015508D01*
X662365Y1016970D01*
X663070Y1018673D01*
X663310Y1020500D01*
X663070Y1022327D01*
X662365Y1024030D01*
X661242Y1025492D01*
X659780Y1026615D01*
X658077Y1027320D01*
X656250Y1027560D01*
D02*
G37*
G36*
X505250Y1140117D02*
X502909Y1139652D01*
X500924Y1138326D01*
X499598Y1136341D01*
X499132Y1134000D01*
X499598Y1131659D01*
X500924Y1129674D01*
X502909Y1128348D01*
X505250Y1127883D01*
X507591Y1128348D01*
X509576Y1129674D01*
X510902Y1131659D01*
X511367Y1134000D01*
X510902Y1136341D01*
X509576Y1138326D01*
X507591Y1139652D01*
X505250Y1140117D01*
D02*
G37*
G36*
X1054200Y1222082D02*
X1051720Y1221756D01*
X1049409Y1220798D01*
X1047424Y1219276D01*
X1045902Y1217291D01*
X1044945Y1214980D01*
X1044618Y1212500D01*
Y1202500D01*
X1044945Y1200020D01*
X1045902Y1197709D01*
X1047424Y1195724D01*
X1049409Y1194202D01*
X1051720Y1193244D01*
X1054200Y1192918D01*
X1056680Y1193244D01*
X1058991Y1194202D01*
X1060975Y1195724D01*
X1062498Y1197709D01*
X1063456Y1200020D01*
X1063782Y1202500D01*
Y1212500D01*
X1063456Y1214980D01*
X1062498Y1217291D01*
X1060975Y1219276D01*
X1058991Y1220798D01*
X1056680Y1221756D01*
X1054200Y1222082D01*
D02*
G37*
G36*
X1562750Y1195867D02*
X1560409Y1195402D01*
X1558424Y1194076D01*
X1557098Y1192091D01*
X1556633Y1189750D01*
X1557098Y1187409D01*
X1558424Y1185424D01*
X1560409Y1184098D01*
X1562750Y1183633D01*
X1565091Y1184098D01*
X1567076Y1185424D01*
X1568402Y1187409D01*
X1568868Y1189750D01*
X1568402Y1192091D01*
X1567076Y1194076D01*
X1565091Y1195402D01*
X1562750Y1195867D01*
D02*
G37*
G36*
X699350Y1207332D02*
X696870Y1207005D01*
X694559Y1206048D01*
X692575Y1204526D01*
X691052Y1202541D01*
X690095Y1200230D01*
X689768Y1197750D01*
Y1187750D01*
X690095Y1185270D01*
X691052Y1182959D01*
X692575Y1180975D01*
X694559Y1179452D01*
X696870Y1178494D01*
X699350Y1178168D01*
X701830Y1178494D01*
X704141Y1179452D01*
X706125Y1180975D01*
X707648Y1182959D01*
X708605Y1185270D01*
X708932Y1187750D01*
Y1197750D01*
X708605Y1200230D01*
X707648Y1202541D01*
X706125Y1204526D01*
X704141Y1206048D01*
X701830Y1207005D01*
X699350Y1207332D01*
D02*
G37*
G36*
X1130400Y1222082D02*
X1127920Y1221756D01*
X1125609Y1220798D01*
X1123624Y1219276D01*
X1122102Y1217291D01*
X1121144Y1214980D01*
X1120818Y1212500D01*
Y1202500D01*
X1121144Y1200020D01*
X1122102Y1197709D01*
X1123624Y1195724D01*
X1125609Y1194202D01*
X1127920Y1193244D01*
X1130400Y1192918D01*
X1132880Y1193244D01*
X1135191Y1194202D01*
X1137175Y1195724D01*
X1138698Y1197709D01*
X1139656Y1200020D01*
X1139982Y1202500D01*
Y1212500D01*
X1139656Y1214980D01*
X1138698Y1217291D01*
X1137175Y1219276D01*
X1135191Y1220798D01*
X1132880Y1221756D01*
X1130400Y1222082D01*
D02*
G37*
G36*
X1105000D02*
X1102520Y1221756D01*
X1100209Y1220798D01*
X1098224Y1219276D01*
X1096702Y1217291D01*
X1095744Y1214980D01*
X1095418Y1212500D01*
Y1202500D01*
X1095744Y1200020D01*
X1096702Y1197709D01*
X1098224Y1195724D01*
X1100209Y1194202D01*
X1102520Y1193244D01*
X1105000Y1192918D01*
X1107480Y1193244D01*
X1109791Y1194202D01*
X1111775Y1195724D01*
X1113298Y1197709D01*
X1114256Y1200020D01*
X1114582Y1202500D01*
Y1212500D01*
X1114256Y1214980D01*
X1113298Y1217291D01*
X1111775Y1219276D01*
X1109791Y1220798D01*
X1107480Y1221756D01*
X1105000Y1222082D01*
D02*
G37*
G36*
X1079600D02*
X1077120Y1221756D01*
X1074809Y1220798D01*
X1072824Y1219276D01*
X1071302Y1217291D01*
X1070344Y1214980D01*
X1070018Y1212500D01*
Y1202500D01*
X1070344Y1200020D01*
X1071302Y1197709D01*
X1072824Y1195724D01*
X1074809Y1194202D01*
X1077120Y1193244D01*
X1079600Y1192918D01*
X1082080Y1193244D01*
X1084391Y1194202D01*
X1086375Y1195724D01*
X1087898Y1197709D01*
X1088856Y1200020D01*
X1089182Y1202500D01*
Y1212500D01*
X1088856Y1214980D01*
X1087898Y1217291D01*
X1086375Y1219276D01*
X1084391Y1220798D01*
X1082080Y1221756D01*
X1079600Y1222082D01*
D02*
G37*
G36*
X961000Y1159310D02*
X959173Y1159070D01*
X957470Y1158364D01*
X956008Y1157242D01*
X955816Y1156992D01*
X953992D01*
X952530Y1158114D01*
X950827Y1158820D01*
X949000Y1159060D01*
X947173Y1158820D01*
X945470Y1158114D01*
X944008Y1156992D01*
X942886Y1155530D01*
X942180Y1153827D01*
X941940Y1152000D01*
X942180Y1150173D01*
X942886Y1148470D01*
X944008Y1147008D01*
X944248Y1144113D01*
X943337Y1142792D01*
X943136Y1142530D01*
X942430Y1140827D01*
X942190Y1139000D01*
X942430Y1137173D01*
X943136Y1135470D01*
X944258Y1134008D01*
X945720Y1132886D01*
X947423Y1132180D01*
X949250Y1131940D01*
X951077Y1132180D01*
X952780Y1132886D01*
X954242Y1134008D01*
X955365Y1135470D01*
X956070Y1137173D01*
X956310Y1139000D01*
X956070Y1140827D01*
X955365Y1142530D01*
X955031Y1142965D01*
X957470Y1146135D01*
X959173Y1145430D01*
X961000Y1145190D01*
X962827Y1145430D01*
X964530Y1146135D01*
X965993Y1147258D01*
X967114Y1148720D01*
X967820Y1150423D01*
X968060Y1152250D01*
X967820Y1154077D01*
X967114Y1155780D01*
X965993Y1157242D01*
X964530Y1158364D01*
X962827Y1159070D01*
X961000Y1159310D01*
D02*
G37*
G36*
X1073000Y1156060D02*
X1071173Y1155820D01*
X1069470Y1155115D01*
X1068008Y1153992D01*
X1064992D01*
X1063530Y1155115D01*
X1061827Y1155820D01*
X1060000Y1156060D01*
X1058173Y1155820D01*
X1056470Y1155115D01*
X1055007Y1153992D01*
X1053885Y1152530D01*
X1053180Y1150827D01*
X1053003Y1149481D01*
X1051687Y1148287D01*
X1049187Y1146862D01*
X1048000Y1147098D01*
X1046049Y1146710D01*
X1044395Y1145605D01*
X1043290Y1143951D01*
X1042902Y1142000D01*
X1043290Y1140049D01*
X1044395Y1138395D01*
X1046049Y1137290D01*
X1048000Y1136902D01*
X1049485Y1137197D01*
X1050164Y1136946D01*
X1050895Y1136435D01*
X1053008Y1134522D01*
X1052940Y1134000D01*
X1053180Y1132173D01*
X1053885Y1130470D01*
X1055007Y1129007D01*
X1056470Y1127886D01*
X1058173Y1127180D01*
X1060000Y1126940D01*
X1061827Y1127180D01*
X1063530Y1127886D01*
X1064992Y1129007D01*
X1066115Y1130470D01*
X1066820Y1132173D01*
X1067060Y1134000D01*
X1066820Y1135827D01*
X1066115Y1137530D01*
X1065088Y1138868D01*
X1065214Y1140004D01*
X1066540Y1143283D01*
X1066643Y1143318D01*
X1068569Y1143577D01*
X1069470Y1142886D01*
X1071173Y1142180D01*
X1073000Y1141940D01*
X1074827Y1142180D01*
X1076530Y1142886D01*
X1077992Y1144007D01*
X1079115Y1145470D01*
X1079820Y1147173D01*
X1080060Y1149000D01*
X1079820Y1150827D01*
X1079115Y1152530D01*
X1077992Y1153992D01*
X1076530Y1155115D01*
X1074827Y1155820D01*
X1073000Y1156060D01*
D02*
G37*
G36*
X1040000Y1159098D02*
X1038049Y1158710D01*
X1036395Y1157605D01*
X1035290Y1155951D01*
X1034902Y1154000D01*
X1035290Y1152049D01*
X1036395Y1150395D01*
X1038049Y1149290D01*
X1040000Y1148902D01*
X1041951Y1149290D01*
X1043605Y1150395D01*
X1044710Y1152049D01*
X1045098Y1154000D01*
X1044710Y1155951D01*
X1043605Y1157605D01*
X1041951Y1158710D01*
X1040000Y1159098D01*
D02*
G37*
G36*
X673950Y1207332D02*
X671470Y1207005D01*
X669159Y1206048D01*
X667175Y1204526D01*
X665652Y1202541D01*
X664695Y1200230D01*
X664368Y1197750D01*
Y1187750D01*
X664695Y1185270D01*
X665652Y1182959D01*
X667175Y1180975D01*
X669159Y1179452D01*
X671470Y1178494D01*
X673950Y1178168D01*
X676430Y1178494D01*
X678741Y1179452D01*
X680725Y1180975D01*
X682248Y1182959D01*
X683205Y1185270D01*
X683532Y1187750D01*
Y1197750D01*
X683205Y1200230D01*
X682248Y1202541D01*
X680725Y1204526D01*
X678741Y1206048D01*
X676430Y1207005D01*
X673950Y1207332D01*
D02*
G37*
G36*
X941500Y1197604D02*
X938367Y1197191D01*
X935448Y1195982D01*
X932942Y1194059D01*
X931018Y1191552D01*
X929809Y1188633D01*
X929396Y1185500D01*
X929809Y1182367D01*
X931018Y1179448D01*
X932942Y1176942D01*
X935448Y1175018D01*
X938367Y1173809D01*
X941500Y1173396D01*
X944633Y1173809D01*
X947552Y1175018D01*
X950059Y1176942D01*
X951982Y1179448D01*
X953191Y1182367D01*
X953604Y1185500D01*
X953191Y1188633D01*
X951982Y1191552D01*
X950059Y1194059D01*
X947552Y1195982D01*
X944633Y1197191D01*
X941500Y1197604D01*
D02*
G37*
G36*
X1297750Y1184118D02*
X1295409Y1183652D01*
X1293424Y1182326D01*
X1292098Y1180341D01*
X1291633Y1178000D01*
X1292098Y1175659D01*
X1293424Y1173674D01*
X1295409Y1172348D01*
X1297750Y1171882D01*
X1300091Y1172348D01*
X1302076Y1173674D01*
X1303402Y1175659D01*
X1303867Y1178000D01*
X1303402Y1180341D01*
X1302076Y1182326D01*
X1300091Y1183652D01*
X1297750Y1184118D01*
D02*
G37*
G36*
X1663350Y721477D02*
X1660213Y721169D01*
X1657197Y720254D01*
X1654418Y718768D01*
X1651982Y716768D01*
X1649982Y714332D01*
X1648496Y711553D01*
X1647581Y708537D01*
X1647273Y705400D01*
X1647581Y702263D01*
X1648496Y699247D01*
X1649982Y696468D01*
X1651982Y694032D01*
X1654418Y692032D01*
X1657197Y690546D01*
X1660213Y689632D01*
X1663350Y689323D01*
X1666487Y689632D01*
X1669503Y690546D01*
X1672282Y692032D01*
X1674718Y694032D01*
X1676718Y696468D01*
X1678204Y699247D01*
X1679118Y702263D01*
X1679427Y705400D01*
X1679118Y708537D01*
X1678204Y711553D01*
X1676718Y714332D01*
X1674718Y716768D01*
X1672282Y718768D01*
X1669503Y720254D01*
X1666487Y721169D01*
X1663350Y721477D01*
D02*
G37*
G36*
X1547407Y585817D02*
X1544270Y585508D01*
X1541254Y584593D01*
X1538475Y583107D01*
X1536039Y581108D01*
X1534039Y578671D01*
X1532554Y575892D01*
X1531638Y572876D01*
X1531330Y569739D01*
X1531638Y566603D01*
X1532554Y563587D01*
X1534039Y560807D01*
X1536039Y558371D01*
X1538475Y556371D01*
X1541254Y554886D01*
X1544270Y553971D01*
X1547407Y553662D01*
X1550544Y553971D01*
X1553560Y554886D01*
X1556339Y556371D01*
X1558775Y558371D01*
X1560775Y560807D01*
X1562261Y563587D01*
X1563176Y566603D01*
X1563484Y569739D01*
X1563176Y572876D01*
X1562261Y575892D01*
X1560775Y578671D01*
X1558775Y581108D01*
X1556339Y583107D01*
X1553560Y584593D01*
X1550544Y585508D01*
X1547407Y585817D01*
D02*
G37*
G36*
X1663350Y450477D02*
X1660213Y450168D01*
X1657197Y449254D01*
X1654418Y447768D01*
X1651982Y445769D01*
X1649982Y443332D01*
X1648496Y440553D01*
X1647581Y437537D01*
X1647273Y434400D01*
X1647581Y431264D01*
X1648496Y428247D01*
X1649982Y425468D01*
X1651982Y423032D01*
X1654418Y421032D01*
X1657197Y419546D01*
X1660213Y418632D01*
X1663350Y418323D01*
X1666487Y418632D01*
X1669503Y419546D01*
X1672282Y421032D01*
X1674718Y423032D01*
X1676718Y425468D01*
X1678204Y428247D01*
X1679118Y431264D01*
X1679427Y434400D01*
X1679118Y437537D01*
X1678204Y440553D01*
X1676718Y443332D01*
X1674718Y445769D01*
X1672282Y447768D01*
X1669503Y449254D01*
X1666487Y450168D01*
X1663350Y450477D01*
D02*
G37*
%LPD*%
D10*
X458364Y625500D02*
D03*
X475500D02*
D03*
X404864Y623750D02*
D03*
X422000D02*
D03*
X1489136Y675500D02*
D03*
X1472000D02*
D03*
D13*
X709250Y337614D02*
D03*
Y354750D02*
D03*
X467250Y545864D02*
D03*
Y563000D02*
D03*
X413500Y546114D02*
D03*
Y563250D02*
D03*
X386500Y1268386D02*
D03*
Y1251250D02*
D03*
X473000Y1269386D02*
D03*
Y1252250D02*
D03*
X1598750Y503114D02*
D03*
Y520250D02*
D03*
D22*
X1616250Y515750D02*
D03*
Y532750D02*
D03*
D33*
X460250Y603250D02*
D03*
X473250D02*
D03*
X466750Y587250D02*
D03*
X407000Y602750D02*
D03*
X420000D02*
D03*
X413500Y586750D02*
D03*
D46*
X1429500Y1259000D02*
X1441500D01*
X1396500Y1201000D02*
X1441500D01*
X1384750Y1259000D02*
X1396500D01*
X1598750Y502750D02*
X1599000D01*
X1598750Y503000D02*
X1606250D01*
X1591250Y502750D02*
X1598750D01*
X1591000Y503000D02*
X1598750D01*
X422000Y1025000D02*
X442500D01*
X257000Y1190000D02*
X422000Y1025000D01*
X1624164Y532797D02*
X1634763Y543522D01*
X1634716Y551436D02*
X1634763Y543522D01*
X1637250Y554003D02*
X1637473Y554226D01*
X1616250Y532750D02*
X1624164Y532797D01*
X1603681Y532750D02*
X1616250D01*
X1598750Y527819D02*
X1603681Y532750D01*
X1598750Y520250D02*
Y527819D01*
Y503000D02*
Y503114D01*
Y502750D02*
Y503000D01*
Y495750D02*
Y502750D01*
X1606250Y503000D02*
X1606500Y503250D01*
X1591000Y503000D02*
X1591250Y502750D01*
X1599000Y496000D02*
Y502750D01*
X1598750Y495750D02*
X1599000Y496000D01*
X581500Y876000D02*
X582000D01*
X630500Y924500D01*
X577750Y871750D02*
X582000Y876000D01*
X577250Y871750D02*
X581500Y876000D01*
X582000D02*
X618500D01*
X630500Y864000D01*
X586100Y823250D02*
X617500D01*
X630250Y810500D01*
X622500Y765250D02*
X630250Y757500D01*
X630500Y924500D02*
X638250D01*
X577250Y871750D02*
X577750D01*
X932750Y717000D02*
X1044000D01*
X798750Y583000D02*
X932750Y717000D01*
X795500Y583000D02*
X798750D01*
X473000Y1178000D02*
X482750Y1168250D01*
X473000Y1178000D02*
Y1252250D01*
X447386Y1269386D02*
X473000D01*
X447000Y1269000D02*
X447386Y1269386D01*
X416250Y1269000D02*
X430872D01*
X1349750Y1260000D02*
X1360500D01*
X1349500Y1259750D02*
X1349750Y1260000D01*
X1304250D02*
X1315500D01*
X1304000Y1260250D02*
X1304250Y1260000D01*
X1315500Y1202000D02*
X1330500D01*
X1345250D01*
X1360500D01*
X1429250Y1259250D02*
X1429500Y1259000D01*
X1384250Y1259500D02*
X1384750Y1259000D01*
X1556500Y1143500D02*
X1572750D01*
X1573500Y1142750D01*
X1559750Y1204250D02*
X1570750D01*
X1556500Y1210750D02*
Y1223500D01*
X1554875Y1209125D02*
X1556500Y1210750D01*
X1554875Y1209125D02*
X1559750Y1204250D01*
X534250Y1268250D02*
X556250D01*
X533750Y1268750D02*
X534250Y1268250D01*
X501500Y1268750D02*
X517622D01*
X592500D02*
X607372D01*
X592250Y1269000D02*
X592500Y1268750D01*
X650750Y1260750D02*
X773500D01*
X642750Y1268750D02*
X650750Y1260750D01*
X623500Y1268750D02*
X642750D01*
X422000Y623750D02*
Y637000D01*
X422250Y637250D01*
X475500Y625500D02*
Y637500D01*
X475250Y637750D02*
X475500Y637500D01*
X355000Y1268500D02*
X386386D01*
X386500Y1268386D01*
Y1235000D02*
Y1251250D01*
X323000Y1268500D02*
X338872D01*
X322750Y1268250D02*
X323000Y1268500D01*
X587500Y765250D02*
X622500D01*
X1634716Y551436D02*
X1637250Y554000D01*
Y554003D01*
X1637475Y554001D02*
X1637476Y553774D01*
X1637473Y554226D02*
X1637475Y554001D01*
D47*
X1053000Y323000D02*
X1056500D01*
X1041000Y312250D02*
X1047250Y318500D01*
X1064250Y306583D02*
Y312250D01*
X1046833Y300833D02*
X1052750Y306750D01*
X926000Y337500D02*
Y349000D01*
X914000Y361000D02*
X926000Y349000D01*
X914000Y361000D02*
Y370000D01*
Y379250D01*
X1052750Y312250D02*
X1053000Y312500D01*
X1064250Y312250D02*
X1064500Y312000D01*
X1041000Y312250D02*
X1052750D01*
X1040750Y306250D02*
Y312000D01*
Y306250D02*
X1046500Y300500D01*
X1046833Y300833D02*
X1058500D01*
X1064250Y306583D01*
X1052750Y306583D02*
X1058500Y300833D01*
X1052750Y306583D02*
Y306750D01*
Y312250D01*
X1046500Y300500D02*
X1046833Y300833D01*
X1047250Y318500D02*
X1047500D01*
X1040750Y312000D02*
X1041000Y312250D01*
X1056500Y323000D02*
X1064500Y315000D01*
Y312000D02*
Y315000D01*
X1052750Y312250D02*
Y322750D01*
X1053000Y323000D01*
Y337500D01*
X1052750Y312250D02*
X1064250D01*
X926000Y310500D02*
Y314500D01*
Y337500D01*
D48*
X800000Y260000D02*
X1790000Y360000D01*
Y1240000D01*
X210000Y260000D02*
X800000D01*
Y1340000D02*
X1790000Y1240000D01*
X210000Y1340000D02*
X800000D01*
X210000Y260000D02*
Y1340000D01*
D49*
X569735Y1147750D02*
X754250D01*
X562485Y1155000D02*
X569735Y1147750D01*
X554000Y1121500D02*
Y1151485D01*
X500500Y1068000D02*
X554000Y1121500D01*
X557515Y1155000D02*
X562485D01*
X554000Y1151485D02*
X557515Y1155000D01*
X1167998Y557248D02*
X1176250Y565500D01*
X1411500Y1242250D02*
Y1259000D01*
X1444036Y1007036D02*
X1466886D01*
X1431750Y994750D02*
X1444036Y1007036D01*
X1398500Y994750D02*
X1431750D01*
X1180600Y407400D02*
Y551100D01*
X1176250Y393000D02*
X1265750D01*
X1161750Y407500D02*
X1176250Y393000D01*
X1139000Y407500D02*
X1161750Y407500D01*
X1137750Y395500D02*
X1156500D01*
X1121750Y411500D02*
X1137750Y395500D01*
X1281000Y398250D02*
X1311250Y368000D01*
X1316750Y675500D02*
X1469500D01*
X1311250Y368000D02*
X1452250D01*
X1180600Y407400D02*
X1189750Y398250D01*
X1182250Y561000D02*
Y691750D01*
X1129250Y508000D02*
X1182250Y561000D01*
X1129250Y417250D02*
X1129250Y508000D01*
X1030000Y844000D02*
X1182250Y691750D01*
X1018500Y847798D02*
X1176250Y690048D01*
Y565500D02*
Y690048D01*
X1129250Y417250D02*
X1139000Y407500D01*
X1121750Y411500D02*
Y566250D01*
X1042250Y615750D02*
X1044750D01*
X972000D02*
X1042250D01*
X1189750Y398250D02*
X1281000D01*
X1119750Y872500D02*
X1316750Y675500D01*
X1119750Y872500D02*
Y877500D01*
X487000Y1068000D02*
X500500D01*
X763500Y1157000D02*
X860000D01*
X754250Y1147750D02*
X763500Y1157000D01*
X860000D02*
X975000Y1042000D01*
X1512000Y867250D02*
X1590500Y945750D01*
X1480000Y867250D02*
X1512000D01*
X718750Y715250D02*
Y731750D01*
X690000Y686500D02*
X718750Y715250D01*
X661500Y686500D02*
X690000D01*
X673750Y676750D02*
X690250D01*
X643250Y668250D02*
X661500Y686500D01*
X653250Y656250D02*
X673750Y676750D01*
X969500Y945250D02*
X1007500Y983250D01*
X967500Y945250D02*
X969500D01*
X1185250Y743250D02*
Y743500D01*
X1184750Y742750D02*
X1185250Y743250D01*
X1183250Y743500D02*
X1184000D01*
X1185250Y766500D02*
Y767050D01*
X1050500Y879250D02*
Y891000D01*
X1169500Y575750D02*
Y688000D01*
X1041926Y815574D02*
X1169500Y688000D01*
X1018500Y847798D02*
Y849750D01*
X1030000Y844000D02*
Y849750D01*
X1007250Y850250D02*
X1041926Y815574D01*
X1003750Y850250D02*
X1007250D01*
X1123000Y1072250D02*
X1123500Y1071750D01*
X1007500Y1002000D02*
Y1002750D01*
Y1002000D02*
X1010000Y999500D01*
X1047250Y973000D02*
X1068000Y993750D01*
X998750Y988250D02*
X1010000Y999500D01*
X931000Y999750D02*
X994750D01*
X1128000Y886250D02*
X1182500D01*
X1182750Y886500D02*
X1183000Y886250D01*
X1165000Y571250D02*
X1169500Y575750D01*
X1121750Y566250D02*
X1160000Y604500D01*
X427500Y659250D02*
Y665000D01*
Y659250D02*
X427500Y659250D01*
X404864Y636614D02*
X427500Y659250D01*
X404864Y623750D02*
Y636614D01*
Y604886D02*
Y623750D01*
Y604886D02*
X407000Y602750D01*
X422000Y604750D02*
Y623750D01*
X420000Y602750D02*
X422000Y604750D01*
X413500Y563250D02*
Y586750D01*
X420700Y361000D02*
Y377800D01*
X467500Y656750D02*
Y665000D01*
X458364Y647614D02*
X467500Y656750D01*
X458364Y625500D02*
Y647614D01*
Y605136D02*
Y625500D01*
Y605136D02*
X460250Y603250D01*
X475500Y605500D02*
Y625500D01*
X473250Y603250D02*
X475500Y605500D01*
X466750Y563500D02*
Y587250D01*
Y563500D02*
X467250Y563000D01*
Y538750D02*
Y545864D01*
X1330500Y1242000D02*
Y1260000D01*
X1330250Y1241750D02*
X1330500Y1242000D01*
X1516500Y1143500D02*
X1516750Y1143750D01*
X1516500Y1184000D02*
Y1223500D01*
Y1184000D02*
X1516750Y1183750D01*
Y1143750D02*
Y1183750D01*
X968000Y1058750D02*
X986500D01*
X844000Y1182750D02*
X968000Y1058750D01*
X880000Y1175250D02*
Y1236500D01*
X993500Y1049750D02*
Y1061750D01*
X880000Y1175250D02*
X993500Y1061750D01*
X975000Y1042000D02*
X1001500D01*
X1267250Y1153500D02*
X1267500Y1153750D01*
X863500Y721750D02*
Y729000D01*
X928250Y1022000D02*
X928500D01*
X893500Y960250D02*
X939250D01*
X1002000Y897500D01*
X1002500D01*
X990250Y896750D02*
X990750Y896250D01*
X796500Y822500D02*
X935000D01*
X972000Y859500D01*
Y887170D01*
X797250Y812000D02*
X931250D01*
X982250Y863000D01*
Y886500D01*
X854000Y335000D02*
X874750Y314250D01*
X843500Y335000D02*
X854000D01*
X817750D02*
X827372D01*
X813000Y339750D02*
X817750Y335000D01*
X813000Y339750D02*
Y354000D01*
X823300Y364300D01*
Y368000D01*
X768500Y399250D02*
X800750D01*
X808000Y392000D01*
X824700D01*
X848700Y368000D01*
X709250Y354750D02*
Y368750D01*
Y330750D02*
Y337614D01*
X704500Y326000D02*
X709250Y330750D01*
X681000Y326000D02*
X704500D01*
X655750D02*
X664872D01*
X651250Y330500D02*
X655750Y326000D01*
X651250Y330500D02*
Y343750D01*
X660300Y352800D01*
Y359000D01*
X602000Y387750D02*
Y397750D01*
X600700Y359000D02*
Y386450D01*
X602000Y387750D01*
X624500Y337750D02*
Y397500D01*
X613000Y326250D02*
X624500Y337750D01*
X612750Y326500D02*
X613000Y326250D01*
X597250Y326500D02*
X612750D01*
X571250D02*
X581122D01*
X566500Y331250D02*
X571250Y326500D01*
X566500Y331250D02*
Y343500D01*
X576300Y353300D01*
Y358500D01*
X393500Y465250D02*
X393750D01*
X467250Y538750D01*
X1053000Y571500D02*
X1077500D01*
X1122000Y616000D01*
X1027600Y571500D02*
Y591850D01*
X1034250Y598500D01*
X1065750D01*
X1083250Y616000D01*
X951400Y571500D02*
Y595150D01*
X972000Y615750D01*
X1160000Y604500D02*
Y628250D01*
X1072000Y988000D02*
X1103250Y1019250D01*
X1072000Y978750D02*
Y988000D01*
X1272750Y805250D02*
Y838000D01*
X1234500Y804000D02*
Y863500D01*
X1394500Y998750D02*
X1398500Y994750D01*
X1394250Y1033000D02*
X1400250Y1027000D01*
X1461450D01*
X1466886Y1032436D01*
X1394500Y1067000D02*
X1403664Y1057836D01*
X1466886D01*
X1394750Y1096000D02*
Y1100500D01*
Y1096000D02*
X1398750Y1092000D01*
X1458122D01*
X1466886Y1083236D01*
X1394500Y1133000D02*
X1403000Y1124500D01*
X1451022D01*
X1466886Y1108636D01*
X1616250Y945250D02*
X1616750Y944750D01*
X1515250Y843250D02*
X1616750Y944750D01*
X1478000Y843250D02*
X1515250D01*
X1403100Y858850D02*
X1492750Y948500D01*
Y1073500D01*
X1493000Y1073750D01*
X1122250Y1074000D02*
X1123000Y1073250D01*
X1193500Y946250D02*
X1275500Y864250D01*
X1123000Y1072250D02*
Y1073250D01*
X999000Y1169750D02*
X1180000D01*
X998250Y1169000D02*
X999000Y1169750D01*
X780750Y767250D02*
Y870250D01*
X807250Y896750D01*
X990250D01*
X855000Y803750D02*
X903500D01*
X908500Y798750D01*
X413500Y499000D02*
Y546114D01*
X371500Y427000D02*
X420700Y377800D01*
X371500Y427000D02*
Y457000D01*
X413500Y499000D01*
X1180600Y551100D02*
X1188000Y558500D01*
Y707483D01*
X1201000Y720483D01*
X863500Y729000D02*
X867700Y733200D01*
X867817D01*
X871800Y737183D01*
Y737300D01*
X1032750Y891000D02*
X1036650Y887100D01*
X1071500Y922500D02*
X1175500D01*
X1072500Y938000D02*
X1191250D01*
X1192796Y945546D02*
X1193500Y946250D01*
X1072802Y945546D02*
X1192796D01*
X1172250Y951250D02*
X1175750Y954750D01*
X1108500Y975250D02*
Y997378D01*
X1108604Y997482D01*
X798500Y983000D02*
X851605D01*
X866553Y997948D01*
Y998231D01*
X809250Y973000D02*
X849088D01*
X853250Y993000D02*
X866750Y1006500D01*
X877750D01*
X786500Y993000D02*
X853250D01*
X759000Y865250D02*
X761000Y867250D01*
X877750Y1006500D02*
X922551Y1051301D01*
X922795D01*
X1265750Y393000D02*
X1297000Y361750D01*
X1275500Y864250D02*
X1296000D01*
X1191250Y938000D02*
X1272750Y856500D01*
X1371750D01*
X1375750Y860500D01*
X1390000D01*
X1391650Y858850D01*
X1403100D01*
X1122750Y975500D02*
Y1071000D01*
X1103250Y1019250D02*
Y1076750D01*
X1205000Y1178500D01*
X1267250D01*
X1268000Y1083000D02*
X1344500D01*
X1394500Y1133000D01*
X1047250Y937750D02*
Y973000D01*
Y937750D02*
X1201000Y784000D01*
Y720483D02*
Y784000D01*
X1167250Y759500D02*
X1183250Y743500D01*
X1036650Y878945D02*
Y887100D01*
X1036450Y878745D02*
X1036650Y878945D01*
X1036450Y875017D02*
Y878745D01*
Y875017D02*
X1044917Y866550D01*
X1050500Y879250D02*
X1054200Y875550D01*
X1041250Y876581D02*
X1046781Y871050D01*
X1041250Y876581D02*
Y891000D01*
X1172750Y768500D02*
X1184500Y756750D01*
X1178750Y773550D02*
X1185250Y767050D01*
X1088952Y866550D02*
X1126962Y828540D01*
X1186750Y776750D02*
Y790750D01*
X1057250Y884750D02*
X1092750D01*
X1178750Y773550D02*
Y792000D01*
X1054200Y875550D02*
X1095200D01*
X1092750Y884750D02*
X1186750Y790750D01*
X1095200Y875550D02*
X1178750Y792000D01*
X1126962Y828540D02*
X1127119D01*
X1046781Y871050D02*
X1092950D01*
X1172750Y791250D01*
Y768500D02*
Y791250D01*
X1127119Y828540D02*
X1167250Y788409D01*
Y759500D02*
Y788409D01*
X1044917Y866550D02*
X1088952D01*
X1297000Y361750D02*
X1474750D01*
X1489625Y376625D01*
Y379375D01*
X774000Y787000D02*
Y872000D01*
X875500Y973500D01*
X881500D01*
X766500Y856000D02*
Y873000D01*
X881750Y988250D01*
X998750D01*
X924000Y992750D02*
X931000Y999750D01*
X903500Y997250D02*
X928250Y1022000D01*
X892250Y1001750D02*
X926750Y1036250D01*
X870072Y1001750D02*
X892250D01*
X873338Y997250D02*
X903500D01*
X849088Y973000D02*
X873338Y997250D01*
X866553Y998231D02*
X870072Y1001750D01*
X761000Y867250D02*
Y875750D01*
X878000Y992750D01*
X924000D01*
X1108604Y997482D02*
Y1072854D01*
X1189250Y1153500D01*
X1267250D01*
X1025050Y883050D02*
Y900794D01*
X1017000Y905129D02*
Y906600D01*
X871800Y737300D02*
X1018500Y884000D01*
Y903629D01*
X1017000Y905129D02*
X1018500Y903629D01*
X1054000Y968250D02*
X1153250D01*
X1268000Y1083000D01*
X1062250Y949000D02*
X1064250Y951000D01*
X1159364D02*
X1159614Y951250D01*
X1172250D01*
X1064250Y951000D02*
X1069771D01*
X1070317Y951546D01*
X1075288D01*
X1075834Y951000D01*
X1159364D01*
X1054000Y955500D02*
X1067907D01*
X1068453Y956046D01*
X1158046D01*
X1062250Y962050D02*
X1156050D01*
X1393750Y965250D02*
X1395500Y963500D01*
X1448750D01*
X1466886Y981636D01*
X773500Y709500D02*
X862000D01*
X870250Y717750D01*
Y728250D01*
X1025050Y883050D01*
X1228500Y776500D02*
X1244000D01*
X1180705Y930045D02*
X1272750Y838000D01*
X1069552Y930045D02*
X1180705D01*
X1182500Y886250D02*
X1182750Y886500D01*
X1184000Y743500D02*
X1184750Y742750D01*
X831000Y779750D02*
X855000Y803750D01*
X1175500Y922500D02*
X1234500Y863500D01*
X1616250Y945250D02*
Y1141000D01*
X1244000Y776500D02*
X1272750Y805250D01*
X1477750Y865000D02*
X1480000Y867250D01*
X1590500Y945750D02*
Y1141500D01*
X1122750Y1071000D02*
X1123500Y1071750D01*
X1452250Y368000D02*
X1464500Y380250D01*
X1017000Y906600D02*
X1019150Y908750D01*
X1158046Y956046D02*
X1265750Y1063750D01*
X1391250D01*
X1394500Y1067000D01*
X1156050Y962050D02*
X1264500Y1070500D01*
X1364750D01*
X1394750Y1100500D01*
X718750Y731750D02*
X774000Y787000D01*
X690250Y676750D02*
X780750Y767250D01*
D50*
X569120Y1166750D02*
X623050D01*
X567870Y1168000D02*
X569120Y1166750D01*
X552130Y1168000D02*
X567870D01*
X550880Y1166750D02*
X552130Y1168000D01*
X526000Y1166750D02*
X550880D01*
X586100Y823250D02*
Y862900D01*
Y765250D02*
Y823250D01*
X577250Y871750D02*
X586100Y862900D01*
X516250Y932750D02*
X577250Y871750D01*
X623050Y1166750D02*
X628500Y1172200D01*
X515000Y1177750D02*
X526000Y1166750D01*
X515000Y1177750D02*
Y1192500D01*
X630500Y583000D02*
X795500D01*
X587500Y626000D02*
X630500Y583000D01*
X587500Y626000D02*
Y765250D01*
D51*
X1025500Y980500D02*
Y1007250D01*
X809000Y1067000D02*
X925000D01*
X616000D02*
X809000D01*
Y1076000D01*
X1017500Y979250D02*
Y1004750D01*
X613250Y1059750D02*
X772000D01*
X924008D01*
X772000Y1052000D02*
Y1059750D01*
X771000Y1051000D02*
X772000Y1052000D01*
X560000Y1123000D02*
Y1149000D01*
Y1123000D02*
X616000Y1067000D01*
X1042000Y930000D02*
Y1010000D01*
X1024500Y1019000D02*
X1037500Y1006000D01*
Y921500D02*
Y1006000D01*
X1018750Y1014000D02*
X1025500Y1007250D01*
X771000Y1140000D02*
X784000Y1127000D01*
X811000Y1140000D02*
X819000Y1132000D01*
X784000Y1127000D02*
X871750D01*
X979750Y1019000D01*
X1024500D01*
X819000Y1132000D02*
X874000D01*
X1042000Y930000D02*
X1067000Y905000D01*
X925000Y1067000D02*
X978000Y1014000D01*
X1018750D01*
X874000Y1132000D02*
X982250Y1023750D01*
X1028250D01*
X1042000Y1010000D01*
X558000Y1115000D02*
X613250Y1059750D01*
X924008D02*
X974509Y1009250D01*
X1004426D01*
X1004696Y1009520D01*
X1012730D01*
X1017500Y1004750D01*
X1037500Y921500D02*
X1057956Y901044D01*
X1058552D01*
D53*
X1629224Y521474D02*
X1640500Y532750D01*
X1627646Y610605D02*
Y630595D01*
X1555250Y675500D02*
X1636500Y594250D01*
X1489136Y675500D02*
X1555250D01*
X1486636D02*
X1489136D01*
X1627536Y630704D02*
X1627646Y630595D01*
X1629224Y514329D02*
Y521474D01*
X1636500Y580750D02*
Y594250D01*
D54*
X1627646Y610605D02*
X1640500Y597750D01*
D56*
X1750000Y400000D02*
D03*
X250000Y1300000D02*
D03*
X750000D02*
D03*
X1250000Y1250000D02*
D03*
X1750000Y1200000D02*
D03*
Y800000D02*
D03*
X1250000Y350000D02*
D03*
X750000Y300000D02*
D03*
X250000D02*
D03*
Y800000D02*
D03*
X1000000D02*
D03*
D57*
X306750Y605000D02*
D03*
Y491000D02*
D03*
X396250Y712500D02*
D03*
X556500Y396750D02*
D03*
D58*
X1466886Y1134036D02*
D03*
D59*
Y1108636D02*
D03*
Y1083236D02*
D03*
Y1057836D02*
D03*
Y1032436D02*
D03*
Y1007036D02*
D03*
Y981636D02*
D03*
Y956236D02*
D03*
D60*
X847000Y507000D02*
D03*
X1125750Y616250D02*
D03*
X1083250Y616000D02*
D03*
X1042250Y615750D02*
D03*
X926000Y314500D02*
D03*
X1566250Y1008250D02*
D03*
X1384000Y846250D02*
D03*
X747250Y771750D02*
D03*
X748750Y731500D02*
D03*
Y691750D02*
D03*
X938750Y773250D02*
D03*
X892500Y731000D02*
D03*
X833750Y779750D02*
D03*
X892000Y780500D02*
D03*
X794000Y780000D02*
D03*
X885500Y1083500D02*
D03*
X809000Y1076000D02*
D03*
X771000Y1140000D02*
D03*
X1234500Y804000D02*
D03*
X1276250Y801000D02*
D03*
X941500Y1185500D02*
D03*
X342250Y864250D02*
D03*
X894500Y1185500D02*
D03*
X423500Y901250D02*
D03*
X442500Y1025000D02*
D03*
X811000Y1140000D02*
D03*
X771000Y1051000D02*
D03*
X628500Y1172200D02*
D03*
X516250Y932750D02*
D03*
D61*
X291000Y1095500D02*
D03*
X301000D02*
D03*
X281000D02*
D03*
Y1110500D02*
D03*
X291000D02*
D03*
X301000D02*
D03*
X281000Y1103000D02*
D03*
X291000D02*
D03*
X301000D02*
D03*
X1167998Y557248D02*
D03*
X1156500Y395500D02*
D03*
X1030000Y849750D02*
D03*
X1018500D02*
D03*
X1003750Y850250D02*
D03*
X1007500Y1002750D02*
D03*
X994750Y999750D02*
D03*
X872250Y361250D02*
D03*
Y371250D02*
D03*
Y385750D02*
D03*
Y396750D02*
D03*
X885000D02*
D03*
X885250Y371250D02*
D03*
X1102500Y497250D02*
D03*
X1478000Y843250D02*
D03*
X1477750Y867500D02*
D03*
X786500Y993000D02*
D03*
X809250Y973000D02*
D03*
X798500Y983000D02*
D03*
X926750Y1036250D02*
D03*
X928500Y1022000D02*
D03*
X1329250Y833500D02*
D03*
X1298250Y845500D02*
D03*
X1663000Y1016000D02*
D03*
X1677000Y1004000D02*
D03*
X265750Y1234500D02*
D03*
X482750Y1168250D02*
D03*
X416250Y1269000D02*
D03*
X1349500Y1259750D02*
D03*
X1304000Y1260250D02*
D03*
X1345250Y1202000D02*
D03*
X1426500Y1201250D02*
D03*
X1429250Y1259250D02*
D03*
X1384250Y1259500D02*
D03*
X1330250Y1241750D02*
D03*
X1411500Y1242250D02*
D03*
X1297750Y1178000D02*
D03*
X1226000Y1191500D02*
D03*
Y1164500D02*
D03*
X1662250Y1209500D02*
D03*
X1675000Y1197750D02*
D03*
X1538000Y1043750D02*
D03*
X1524250Y1055848D02*
D03*
X1052000Y1294250D02*
D03*
X1143500Y1285250D02*
D03*
X1191500Y1278750D02*
D03*
X1516750Y1183750D02*
D03*
X1573500Y1142750D02*
D03*
X1570750Y1204250D02*
D03*
X842500Y1266500D02*
D03*
X844000Y1223750D02*
D03*
X556250Y1268250D02*
D03*
X501500Y1268750D02*
D03*
X592250Y1269000D02*
D03*
X773500Y1260750D02*
D03*
X986500Y1058750D02*
D03*
X844000Y1182750D02*
D03*
X880000Y1236500D02*
D03*
X993500Y1049750D02*
D03*
X1001500Y1042000D02*
D03*
X1267250Y1178500D02*
D03*
X1267500Y1153750D02*
D03*
X602250Y442250D02*
D03*
X759000Y865250D02*
D03*
X766500Y856000D02*
D03*
X832000Y752500D02*
D03*
X845250Y766250D02*
D03*
X862250Y765500D02*
D03*
X774000Y696750D02*
D03*
X813000D02*
D03*
X908500Y798750D02*
D03*
X914000Y361000D02*
D03*
Y370000D02*
D03*
X809250Y418000D02*
D03*
X800250D02*
D03*
X821750Y406250D02*
D03*
X914000Y379250D02*
D03*
X768500Y399250D02*
D03*
X768250Y445250D02*
D03*
X709250Y368750D02*
D03*
X602000Y397750D02*
D03*
X624500Y397500D02*
D03*
X624250Y442250D02*
D03*
X867750Y457750D02*
D03*
X422250Y637250D02*
D03*
X475250Y637750D02*
D03*
X646500Y1138750D02*
D03*
X646250Y1116250D02*
D03*
X670250D02*
D03*
X747000Y1116500D02*
D03*
X723500Y1116000D02*
D03*
X610000Y1109750D02*
D03*
X585750D02*
D03*
X528000Y1108000D02*
D03*
X504025Y1107804D02*
D03*
X505250Y1134000D02*
D03*
X528276Y1151056D02*
D03*
X506000Y1151250D02*
D03*
X647000Y1156500D02*
D03*
X670000Y1155750D02*
D03*
X484250Y1083500D02*
D03*
X487000Y1068000D02*
D03*
X393500Y465250D02*
D03*
X386500Y1235000D02*
D03*
X322750Y1268250D02*
D03*
X1562750Y1189750D02*
D03*
X920500Y1004000D02*
D03*
X1072500Y854000D02*
D03*
X1035051Y1038301D02*
D03*
X1165000Y571250D02*
D03*
X1102500Y478250D02*
D03*
Y487855D02*
D03*
X1160000Y628250D02*
D03*
X1213500Y938250D02*
D03*
X1214000Y842750D02*
D03*
X1119750Y877500D02*
D03*
X1092000Y1274500D02*
D03*
X922795Y1051301D02*
D03*
X1101554Y1000549D02*
D03*
X864792Y740286D02*
D03*
D62*
X1169000Y452423D02*
D03*
Y422423D02*
D03*
D63*
X1663350Y705400D02*
D03*
X1688750Y730800D02*
D03*
X1637950D02*
D03*
Y680000D02*
D03*
X1688750D02*
D03*
X1663350Y434400D02*
D03*
X1688750Y459800D02*
D03*
X1637950D02*
D03*
Y409000D02*
D03*
X1688750D02*
D03*
X1547407Y569739D02*
D03*
X1572807Y595139D02*
D03*
X1522007D02*
D03*
Y544339D02*
D03*
X1572807D02*
D03*
D64*
X673950Y1192750D02*
D03*
X648550D02*
D03*
X699350D02*
D03*
X724750D02*
D03*
X540400Y1192500D02*
D03*
X515000D02*
D03*
X565800D02*
D03*
X591200D02*
D03*
X1079600Y1207500D02*
D03*
X1105000D02*
D03*
X1155800D02*
D03*
X1130400D02*
D03*
X1054200D02*
D03*
X1028800D02*
D03*
X685700Y359000D02*
D03*
X660300D02*
D03*
X601700Y358500D02*
D03*
X576300D02*
D03*
X848700Y368000D02*
D03*
X823300D02*
D03*
X339200Y361000D02*
D03*
X313800D02*
D03*
X420700Y361000D02*
D03*
X395300D02*
D03*
X501700Y360250D02*
D03*
X476300D02*
D03*
X426800Y1235000D02*
D03*
X452200D02*
D03*
X604800D02*
D03*
X630200D02*
D03*
X515000D02*
D03*
X540400D02*
D03*
X335600D02*
D03*
X361000D02*
D03*
D65*
X768500Y613700D02*
D03*
Y482300D02*
D03*
D66*
X795500Y513000D02*
D03*
Y583000D02*
D03*
D67*
Y538000D02*
D03*
Y558000D02*
D03*
D68*
X1353000Y1231000D02*
D03*
X1323000D02*
D03*
X1433500Y1222000D02*
D03*
X1403500D02*
D03*
D69*
X567500Y445000D02*
D03*
D70*
X547500D02*
D03*
X527500D02*
D03*
X507500D02*
D03*
X487500D02*
D03*
X467500D02*
D03*
X447500D02*
D03*
X427500D02*
D03*
X407500D02*
D03*
X387500D02*
D03*
X567500Y665000D02*
D03*
X547500D02*
D03*
X527500D02*
D03*
X507500D02*
D03*
X487500D02*
D03*
X467500D02*
D03*
X447500D02*
D03*
X427500D02*
D03*
X407500D02*
D03*
X387500D02*
D03*
D71*
X677500Y720000D02*
D03*
Y418000D02*
D03*
X323500D02*
D03*
D72*
X560000Y1149000D02*
D03*
X257000Y1190000D02*
D03*
X1653500Y570250D02*
D03*
X1680500Y570000D02*
D03*
X1635666Y622793D02*
D03*
X1391500Y540750D02*
D03*
X1622250Y522000D02*
D03*
X1610000D02*
D03*
X1576750Y947750D02*
D03*
X1617250Y924500D02*
D03*
X1270250Y1091750D02*
D03*
X977250Y1068500D02*
D03*
X552500Y1103500D02*
D03*
X672000Y339750D02*
D03*
X589250Y338750D02*
D03*
X423500Y509250D02*
D03*
X1083000Y801250D02*
D03*
X1065500Y819250D02*
D03*
X1081750Y818750D02*
D03*
X1065500Y780500D02*
D03*
X1065250Y756750D02*
D03*
X1069250Y731750D02*
D03*
X1070750Y709250D02*
D03*
X1025750Y643917D02*
D03*
X1040625Y658625D02*
D03*
X1055500Y673333D02*
D03*
X1070375Y688042D02*
D03*
X935550Y630750D02*
D03*
X954600D02*
D03*
X973650D02*
D03*
X992700D02*
D03*
X1011750D02*
D03*
X798000Y602250D02*
D03*
X778586Y548635D02*
D03*
X810500Y524500D02*
D03*
X827250Y541000D02*
D03*
X842125Y555708D02*
D03*
X857000Y570417D02*
D03*
X871875Y585125D02*
D03*
X886750Y599833D02*
D03*
X901625Y614542D02*
D03*
X916500Y630000D02*
D03*
X1060750Y843000D02*
D03*
X1033500Y770750D02*
D03*
X1033250Y749750D02*
D03*
X1020000Y724250D02*
D03*
Y705000D02*
D03*
X1019500Y685500D02*
D03*
X1009500Y673750D02*
D03*
X998000Y662500D02*
D03*
X978950D02*
D03*
X959900D02*
D03*
X940850D02*
D03*
X921800D02*
D03*
X902750D02*
D03*
X887875Y647042D02*
D03*
X873000Y632333D02*
D03*
X858125Y617625D02*
D03*
X843250Y602917D02*
D03*
X828375Y588208D02*
D03*
X813500Y573500D02*
D03*
X803250Y936000D02*
D03*
X811500Y1000250D02*
D03*
X1192000Y551750D02*
D03*
X1199000Y382250D02*
D03*
X1763250Y904250D02*
D03*
X1766750Y1092000D02*
D03*
X1765500Y1008250D02*
D03*
X1772250Y642250D02*
D03*
X1770500Y513000D02*
D03*
X1122750Y315750D02*
D03*
X1429250Y341500D02*
D03*
X1543750Y352750D02*
D03*
X1634000Y358000D02*
D03*
X1643350Y782750D02*
D03*
X1664650D02*
D03*
X1685950D02*
D03*
X1622050D02*
D03*
X1600750Y782750D02*
D03*
X1152500Y423000D02*
D03*
X1139000Y453750D02*
D03*
X1152250Y453500D02*
D03*
X1191000Y523000D02*
D03*
X1284750Y384250D02*
D03*
X1138000Y422750D02*
D03*
X1164750Y467250D02*
D03*
X1275000Y630250D02*
D03*
X1252875D02*
D03*
X1230750D02*
D03*
X1213000Y616250D02*
D03*
X1173250Y407250D02*
D03*
X1583500Y693000D02*
D03*
X1543000Y643750D02*
D03*
X1441750Y612000D02*
D03*
X1379000Y612500D02*
D03*
X1320250D02*
D03*
X1580500Y434000D02*
D03*
X1530000D02*
D03*
X1585750Y525250D02*
D03*
X1617250Y669250D02*
D03*
X1614500Y642250D02*
D03*
X1586250Y490000D02*
D03*
X1616500Y473750D02*
D03*
X1616250Y486250D02*
D03*
X1616750Y505250D02*
D03*
X1575000Y504000D02*
D03*
X1551000Y503250D02*
D03*
X1525000Y499250D02*
D03*
X1503250Y504000D02*
D03*
X1481750Y486000D02*
D03*
X1470000Y486500D02*
D03*
X1491000Y503750D02*
D03*
X1461250Y502250D02*
D03*
X1445750Y499500D02*
D03*
X1413000Y486750D02*
D03*
X1412500Y467000D02*
D03*
X1430750Y500750D02*
D03*
X1477250Y589750D02*
D03*
X1443750Y529750D02*
D03*
X1424750Y529000D02*
D03*
X1217500Y542450D02*
D03*
X1213000Y560900D02*
D03*
Y579350D02*
D03*
Y597800D02*
D03*
X1295750Y643000D02*
D03*
X1323292D02*
D03*
X1350833D02*
D03*
X1378375D02*
D03*
X1405917D02*
D03*
X1433458D02*
D03*
X1461000D02*
D03*
X1480964Y662964D02*
D03*
X1500928Y682929D02*
D03*
X1520893Y702893D02*
D03*
X1540857Y722857D02*
D03*
X1560821Y742821D02*
D03*
X1580786Y762786D02*
D03*
X1198000Y504250D02*
D03*
X1187250Y415750D02*
D03*
X1203500Y404500D02*
D03*
X1219500Y404750D02*
D03*
X1743000Y613523D02*
D03*
Y640568D02*
D03*
Y667614D02*
D03*
Y694659D02*
D03*
Y721704D02*
D03*
Y586477D02*
D03*
Y559432D02*
D03*
Y532386D02*
D03*
Y505341D02*
D03*
Y478295D02*
D03*
Y451250D02*
D03*
X1645500Y510500D02*
D03*
X1639500Y482500D02*
D03*
X1652750Y660250D02*
D03*
X1639500Y705500D02*
D03*
X1662250Y729500D02*
D03*
X1687500Y705250D02*
D03*
X1339625Y577000D02*
D03*
X1323219D02*
D03*
X1306812D02*
D03*
X1290406D02*
D03*
X1508750Y374250D02*
D03*
X1541062D02*
D03*
X1573375D02*
D03*
X1605687D02*
D03*
X1638000D02*
D03*
X1670312D02*
D03*
X1702625D02*
D03*
X1444125D02*
D03*
X1411812D02*
D03*
X1379500D02*
D03*
X1347188D02*
D03*
X1314875D02*
D03*
X1423250Y430250D02*
D03*
X1423500Y404500D02*
D03*
X1476750Y388250D02*
D03*
X1474500Y430500D02*
D03*
X1450750Y388000D02*
D03*
X1451000Y432750D02*
D03*
X1434500Y449000D02*
D03*
X1432250Y466500D02*
D03*
X1465250Y534000D02*
D03*
X1456250Y524500D02*
D03*
X1410750Y531250D02*
D03*
X1458250Y590250D02*
D03*
X1637250Y520750D02*
D03*
X1611000Y549250D02*
D03*
X1593000Y549000D02*
D03*
X1593500Y591000D02*
D03*
X1611500Y591250D02*
D03*
X1423000Y590250D02*
D03*
X1407250Y590000D02*
D03*
X1372437Y577000D02*
D03*
X1388844D02*
D03*
X1405250D02*
D03*
X1440500Y590000D02*
D03*
X1689500Y433000D02*
D03*
X1636750Y433250D02*
D03*
X1663250Y404500D02*
D03*
X1646000Y523000D02*
D03*
X1645500Y631011D02*
D03*
X1688250Y659500D02*
D03*
Y614500D02*
D03*
X1548250Y597500D02*
D03*
X1532750Y527250D02*
D03*
X1340500Y543000D02*
D03*
X1322750D02*
D03*
X1305000D02*
D03*
X1287250D02*
D03*
X1338000Y465500D02*
D03*
X1322000D02*
D03*
X1306000D02*
D03*
X1290000D02*
D03*
X1458750Y552500D02*
D03*
X1442250D02*
D03*
X1433929Y538301D02*
D03*
X1419263Y538117D02*
D03*
X1547250Y543000D02*
D03*
X1627536Y630924D02*
D03*
X1629224Y514329D02*
D03*
X1606500Y503250D02*
D03*
X1591000Y503000D02*
D03*
X1598750Y495750D02*
D03*
X692000Y908250D02*
D03*
X718250Y908000D02*
D03*
Y885750D02*
D03*
X745750Y897500D02*
D03*
X735250Y909500D02*
D03*
X1007500Y983250D02*
D03*
X967500Y945250D02*
D03*
X1185250Y766500D02*
D03*
X1184500Y756750D02*
D03*
X1185250Y743500D02*
D03*
X1050500Y891000D02*
D03*
X1041250D02*
D03*
X1032750D02*
D03*
X1062250Y949000D02*
D03*
Y962050D02*
D03*
X1054000Y955500D02*
D03*
Y968250D02*
D03*
X1108500Y975250D02*
D03*
X1016750Y979250D02*
D03*
X1025750Y980500D02*
D03*
X1018500Y908750D02*
D03*
X1128000Y886250D02*
D03*
X1216500Y487500D02*
D03*
X630250Y757500D02*
D03*
Y810500D02*
D03*
X630500Y864000D02*
D03*
X604500Y757500D02*
D03*
Y810500D02*
D03*
X602000Y863750D02*
D03*
X691750Y886250D02*
D03*
X719250Y924750D02*
D03*
X711250D02*
D03*
X630500Y924500D02*
D03*
X638250D02*
D03*
X718250Y865750D02*
D03*
X692250Y872000D02*
D03*
X690000Y806750D02*
D03*
X690250Y813250D02*
D03*
X718750Y813750D02*
D03*
Y807000D02*
D03*
X1617000Y954750D02*
D03*
X1591750Y955250D02*
D03*
X1044000Y717000D02*
D03*
Y707500D02*
D03*
X1266500Y585000D02*
D03*
X1249000D02*
D03*
X1688000Y479750D02*
D03*
X1629000Y591000D02*
D03*
X1505500Y526750D02*
D03*
X1490500D02*
D03*
X1356031Y577000D02*
D03*
X1354000Y565000D02*
D03*
Y550000D02*
D03*
Y535000D02*
D03*
Y520000D02*
D03*
X1274000Y577000D02*
D03*
Y565000D02*
D03*
Y550000D02*
D03*
Y535000D02*
D03*
Y520000D02*
D03*
X1354000Y420000D02*
D03*
Y435000D02*
D03*
Y450000D02*
D03*
X1354000Y465500D02*
D03*
X1354000Y480000D02*
D03*
Y495000D02*
D03*
X1274000D02*
D03*
Y480000D02*
D03*
Y465500D02*
D03*
Y450000D02*
D03*
Y435000D02*
D03*
Y420000D02*
D03*
X1234000Y585000D02*
D03*
Y570000D02*
D03*
Y555000D02*
D03*
Y540000D02*
D03*
Y525000D02*
D03*
Y510000D02*
D03*
X1218000Y524000D02*
D03*
X1201500Y487500D02*
D03*
X1188250Y487500D02*
D03*
X1234000Y450000D02*
D03*
Y420000D02*
D03*
Y405000D02*
D03*
X1249000Y507500D02*
D03*
X1264000D02*
D03*
X1279000D02*
D03*
X1294000D02*
D03*
X1309000D02*
D03*
X1324000D02*
D03*
X1339000D02*
D03*
X1354000D02*
D03*
X1369000D02*
D03*
X1384000D02*
D03*
X1395500Y494750D02*
D03*
Y479750D02*
D03*
Y464750D02*
D03*
X1395000Y449750D02*
D03*
X1395500Y434750D02*
D03*
Y419750D02*
D03*
Y404750D02*
D03*
X1384000Y405000D02*
D03*
X1369000D02*
D03*
X1354000D02*
D03*
X1339000D02*
D03*
X1324000D02*
D03*
X1309000D02*
D03*
X1294000D02*
D03*
X1279000D02*
D03*
X1264000D02*
D03*
X1249000D02*
D03*
X1490250Y539750D02*
D03*
X1495500Y551500D02*
D03*
X1502000Y590500D02*
D03*
X1487250Y590750D02*
D03*
X1617332Y658716D02*
D03*
X1618750Y623000D02*
D03*
X1638298Y658929D02*
D03*
X1552250Y525500D02*
D03*
X1572250D02*
D03*
X1645500Y603250D02*
D03*
X1645750Y590000D02*
D03*
Y536000D02*
D03*
X1688250Y494500D02*
D03*
Y509500D02*
D03*
Y524500D02*
D03*
Y539500D02*
D03*
Y554500D02*
D03*
Y644500D02*
D03*
Y629500D02*
D03*
X1645500Y617250D02*
D03*
X1688250Y599500D02*
D03*
Y584500D02*
D03*
X1358500Y544750D02*
D03*
X1404000Y539250D02*
D03*
X1040000Y1154000D02*
D03*
X1021000D02*
D03*
X1011000Y1142000D02*
D03*
X1007000Y1118000D02*
D03*
X1048000Y1142000D02*
D03*
X1047000Y1039000D02*
D03*
X558000Y1115000D02*
D03*
X863500Y721750D02*
D03*
X773500Y709500D02*
D03*
X881750Y973000D02*
D03*
X893500Y960250D02*
D03*
X1002500Y897500D02*
D03*
X990750Y896250D02*
D03*
X797250Y812000D02*
D03*
X796500Y822500D02*
D03*
X982250Y886500D02*
D03*
X972000Y887170D02*
D03*
X445500Y395750D02*
D03*
X763500Y372250D02*
D03*
X874750Y314250D02*
D03*
X892500Y284750D02*
D03*
X1072000Y978750D02*
D03*
X1068000Y993750D02*
D03*
X1464250Y380500D02*
D03*
X1213250Y897250D02*
D03*
X1213750Y883500D02*
D03*
X1489500Y379500D02*
D03*
X1393750Y965250D02*
D03*
X1404750Y952750D02*
D03*
Y985250D02*
D03*
X1404250Y1018500D02*
D03*
Y1050500D02*
D03*
X1403250Y1083500D02*
D03*
Y1099500D02*
D03*
X1403500Y1133000D02*
D03*
X1403250Y1116250D02*
D03*
Y1067500D02*
D03*
X1403750Y1034500D02*
D03*
X1404000Y1002000D02*
D03*
X1394500Y998750D02*
D03*
X1394250Y1033000D02*
D03*
X1394500Y1067000D02*
D03*
X1394750Y1100500D02*
D03*
X1394500Y1133000D02*
D03*
X1346500Y975000D02*
D03*
X1346000Y1009000D02*
D03*
Y1043000D02*
D03*
Y1076750D02*
D03*
X1346500Y1110000D02*
D03*
X1346250Y1142750D02*
D03*
X1590500Y1141500D02*
D03*
X1616250Y1141000D02*
D03*
X1493000Y1073750D02*
D03*
X1175750Y954750D02*
D03*
X1183000Y886250D02*
D03*
X1057250Y884750D02*
D03*
X1186750Y776750D02*
D03*
X1123000Y1072250D02*
D03*
X1180000Y1169750D02*
D03*
X998250Y1169000D02*
D03*
X1707750Y769500D02*
D03*
X1728000Y749000D02*
D03*
X1173250Y507250D02*
D03*
X1713250Y435750D02*
D03*
X1702500Y391750D02*
D03*
X633000Y935250D02*
D03*
X705000Y843000D02*
D03*
X753000Y888250D02*
D03*
X800500Y870750D02*
D03*
X672000Y773000D02*
D03*
X758000Y812000D02*
D03*
X634500Y735250D02*
D03*
X604250Y704250D02*
D03*
X517750Y699750D02*
D03*
X549250Y722250D02*
D03*
X430750Y699000D02*
D03*
X606250Y673000D02*
D03*
X451750Y468000D02*
D03*
X508250Y469500D02*
D03*
X538750Y532750D02*
D03*
X595500Y588500D02*
D03*
X637750Y628500D02*
D03*
X564750Y470000D02*
D03*
X523750Y421000D02*
D03*
X470750Y424500D02*
D03*
X640000Y366000D02*
D03*
X541500Y283500D02*
D03*
X781500Y662000D02*
D03*
X932250Y698750D02*
D03*
X720500Y776250D02*
D03*
X779000Y750250D02*
D03*
X941500Y875500D02*
D03*
X754750Y549500D02*
D03*
X625000Y558500D02*
D03*
X798500Y344750D02*
D03*
X834250Y350250D02*
D03*
X847750Y444000D02*
D03*
X917750Y400250D02*
D03*
X925750Y603000D02*
D03*
X1106000Y577250D02*
D03*
X1115500Y521250D02*
D03*
X1093750Y357500D02*
D03*
X948500Y363500D02*
D03*
X1048750D02*
D03*
X989500Y454250D02*
D03*
X859750Y484750D02*
D03*
X954500Y533500D02*
D03*
X1056000D02*
D03*
X1016250Y605500D02*
D03*
X976250D02*
D03*
X1212500Y641000D02*
D03*
X1300500Y665250D02*
D03*
X1375500Y664750D02*
D03*
X1448250D02*
D03*
X1130000Y873750D02*
D03*
X1105000Y895250D02*
D03*
X1129250Y903500D02*
D03*
X1168750Y1001750D02*
D03*
X1154750Y983000D02*
D03*
X1089250Y1025750D02*
D03*
X1205500Y951750D02*
D03*
X1205000Y980000D02*
D03*
X1323500Y686750D02*
D03*
X1247500Y763750D02*
D03*
X1455500Y686750D02*
D03*
X1522250Y735000D02*
D03*
X1586000Y800250D02*
D03*
X960250Y888500D02*
D03*
X1055750Y1050250D02*
D03*
X1109250Y1184500D02*
D03*
X1189750Y1100250D02*
D03*
X651500Y1238250D02*
D03*
X717750Y1237000D02*
D03*
X809500Y1231750D02*
D03*
X821000Y1178250D02*
D03*
X581750Y1238750D02*
D03*
X449750Y1214250D02*
D03*
X385500Y1319500D02*
D03*
X484750Y1320750D02*
D03*
X609000Y1321250D02*
D03*
X231750Y1202000D02*
D03*
X233500Y945750D02*
D03*
X231250Y1073750D02*
D03*
X233000Y663500D02*
D03*
X234500Y434500D02*
D03*
X378500Y285500D02*
D03*
X232000Y555250D02*
D03*
X1666500Y945750D02*
D03*
X1665750Y1140000D02*
D03*
X543000Y938000D02*
D03*
X635500Y1040500D02*
D03*
X486000Y956250D02*
D03*
X564250Y1031750D02*
D03*
X594250Y1061250D02*
D03*
X463250Y1068000D02*
D03*
X450250Y1181750D02*
D03*
X1544500Y1165250D02*
D03*
X1190500Y1141250D02*
D03*
X1298250Y1129250D02*
D03*
X1497750Y908250D02*
D03*
X1519250Y1038750D02*
D03*
X1450750Y793750D02*
D03*
X1256500Y833250D02*
D03*
X1308750Y832500D02*
D03*
X1332250Y893000D02*
D03*
X1500750Y856500D02*
D03*
X1565000Y904750D02*
D03*
X1604200Y955000D02*
D03*
X1218750Y1071500D02*
D03*
X951500Y1302750D02*
D03*
X854750Y1312250D02*
D03*
X1356750Y931000D02*
D03*
X1263000Y898000D02*
D03*
X1201000Y830500D02*
D03*
X1428000Y1169750D02*
D03*
X1513500Y966500D02*
D03*
X1007500Y1265250D02*
D03*
X1274750Y1055250D02*
D03*
X1203000Y1165000D02*
D03*
X1138250Y1147500D02*
D03*
X867250Y1115750D02*
D03*
X1604000Y1078750D02*
D03*
X1635500Y1235500D02*
D03*
X1501250Y1247250D02*
D03*
X1534750Y1242500D02*
D03*
X1221250Y785000D02*
D03*
X1229500Y747750D02*
D03*
X1208750Y704750D02*
D03*
X1195000Y572750D02*
D03*
X1194500Y623750D02*
D03*
X1352500Y352500D02*
D03*
X1429000Y355500D02*
D03*
X722750Y601750D02*
D03*
X648000Y1078000D02*
D03*
X589750Y1136750D02*
D03*
X837250Y1075000D02*
D03*
X1325500Y792500D02*
D03*
X1256000Y810750D02*
D03*
X733500Y932500D02*
D03*
X513250Y558750D02*
D03*
X725500Y500000D02*
D03*
X804000Y382250D02*
D03*
X982500Y1208250D02*
D03*
X1109000Y914750D02*
D03*
X1067000Y905000D02*
D03*
X1071500Y922500D02*
D03*
X1072500Y938000D02*
D03*
X1072802Y945546D02*
D03*
X1296000Y864250D02*
D03*
X1122750Y975500D02*
D03*
X1476072Y374268D02*
D03*
X1636500Y580750D02*
D03*
X1637250Y554000D02*
D03*
X1627079Y549027D02*
D03*
X1646580Y547027D02*
D03*
X1025050Y900794D02*
D03*
X1058552Y901044D02*
D03*
X1404750Y971250D02*
D03*
X1228500Y776500D02*
D03*
X1069552Y930045D02*
D03*
D73*
X643250Y668250D02*
D03*
X653250Y656250D02*
D03*
X1110000Y778250D02*
D03*
X1109500Y799500D02*
D03*
Y821250D02*
D03*
X1124500Y804500D02*
D03*
X1124250Y789000D02*
D03*
X1130400Y773250D02*
D03*
Y756750D02*
D03*
X1109250Y732750D02*
D03*
X987250Y686000D02*
D03*
Y698000D02*
D03*
Y733750D02*
D03*
X975000D02*
D03*
Y697750D02*
D03*
X946000Y686250D02*
D03*
X946250Y698250D02*
D03*
Y734250D02*
D03*
X958250Y734000D02*
D03*
Y698000D02*
D03*
X1251500Y1013250D02*
D03*
X1265500Y1013000D02*
D03*
X1302500Y1013500D02*
D03*
X1302750Y1001250D02*
D03*
X1265250D02*
D03*
X1251250Y972500D02*
D03*
X1265750Y972750D02*
D03*
X1303000Y972500D02*
D03*
Y984500D02*
D03*
X1265500D02*
D03*
X1225750Y691000D02*
D03*
X1240750D02*
D03*
X1277000Y690500D02*
D03*
X1277250Y677750D02*
D03*
X1240500Y678000D02*
D03*
X1241500Y661000D02*
D03*
X1225750Y648750D02*
D03*
X1241750D02*
D03*
X1278000Y648500D02*
D03*
X1277750Y661250D02*
D03*
X721000Y974000D02*
D03*
X736750Y974250D02*
D03*
X735750Y1021000D02*
D03*
X721750Y1020750D02*
D03*
X706250Y1021250D02*
D03*
X690500Y1020750D02*
D03*
X656250Y1020500D02*
D03*
X656000Y1007500D02*
D03*
X690500Y1008000D02*
D03*
X721500D02*
D03*
X690000Y986750D02*
D03*
X721000D02*
D03*
X705750Y974000D02*
D03*
X690250D02*
D03*
X673250D02*
D03*
X656250D02*
D03*
X656500Y987000D02*
D03*
X919750Y851250D02*
D03*
Y839500D02*
D03*
X901500Y839250D02*
D03*
X883750Y839000D02*
D03*
X867000D02*
D03*
X849500Y838750D02*
D03*
X834250D02*
D03*
X817500Y838500D02*
D03*
X817750Y850750D02*
D03*
X961000Y1152250D02*
D03*
X949000Y1152000D02*
D03*
X949250Y1139000D02*
D03*
X1182500Y1028250D02*
D03*
X1182750Y1015750D02*
D03*
X1164750D02*
D03*
X1131750Y1057000D02*
D03*
X1146500D02*
D03*
X1164750Y1057500D02*
D03*
X1178000Y1057750D02*
D03*
X1188750D02*
D03*
X1189000Y1045750D02*
D03*
X1178250D02*
D03*
X1103304Y1089553D02*
D03*
X1103250Y1106250D02*
D03*
X1103000Y1129250D02*
D03*
X1102750Y1144000D02*
D03*
X1102500Y1156250D02*
D03*
X1089500D02*
D03*
Y1143750D02*
D03*
X990500Y1090250D02*
D03*
Y1104750D02*
D03*
Y1123000D02*
D03*
Y1136250D02*
D03*
X990650Y1147000D02*
D03*
X978500D02*
D03*
X888500Y1044250D02*
D03*
X868500D02*
D03*
X847500D02*
D03*
X827500Y1044000D02*
D03*
X827750Y1030750D02*
D03*
X912000Y1220750D02*
D03*
X933750Y1257750D02*
D03*
X908500Y1232000D02*
D03*
Y1245000D02*
D03*
X896750Y1244750D02*
D03*
X921750Y1244250D02*
D03*
Y1231750D02*
D03*
X946500D02*
D03*
X946250Y1244750D02*
D03*
X934250D02*
D03*
X1412000Y881750D02*
D03*
X1399250Y867250D02*
D03*
X828000Y1002000D02*
D03*
X843000D02*
D03*
X437500Y732500D02*
D03*
Y747500D02*
D03*
Y762500D02*
D03*
Y777500D02*
D03*
Y792500D02*
D03*
Y807500D02*
D03*
Y822500D02*
D03*
Y837500D02*
D03*
Y852500D02*
D03*
Y867500D02*
D03*
X450000Y875000D02*
D03*
Y860000D02*
D03*
Y845000D02*
D03*
Y830000D02*
D03*
Y815000D02*
D03*
Y800000D02*
D03*
Y785000D02*
D03*
Y770000D02*
D03*
Y755000D02*
D03*
Y740000D02*
D03*
Y725000D02*
D03*
X427500Y1065000D02*
D03*
X442500D02*
D03*
X427500Y1050000D02*
D03*
X442500D02*
D03*
X427500Y1000000D02*
D03*
X442500D02*
D03*
X427500Y985000D02*
D03*
X442500D02*
D03*
X427500Y970000D02*
D03*
X442500D02*
D03*
X427500Y955000D02*
D03*
X442500D02*
D03*
X252500Y1095000D02*
D03*
Y1110000D02*
D03*
X352500Y1030000D02*
D03*
Y1015000D02*
D03*
Y1000000D02*
D03*
Y985000D02*
D03*
Y970000D02*
D03*
X367500Y985000D02*
D03*
Y970000D02*
D03*
X337500Y955000D02*
D03*
X352500D02*
D03*
X367500D02*
D03*
X834000Y882000D02*
D03*
X818000D02*
D03*
X1081000Y765000D02*
D03*
X828000Y1014000D02*
D03*
X1060000Y1134000D02*
D03*
Y1149000D02*
D03*
X1073000D02*
D03*
X818000Y871000D02*
D03*
X734500Y664250D02*
D03*
X734250Y653500D02*
D03*
X734000Y643000D02*
D03*
X1052750Y312250D02*
D03*
X1064500Y312000D02*
D03*
X1040750D02*
D03*
X1046500Y300500D02*
D03*
X1058500Y300833D02*
D03*
X1095000Y747000D02*
D03*
X1081000D02*
D03*
X1123805Y820540D02*
D03*
D74*
X279250Y1197000D02*
D03*
D75*
X664872Y326000D02*
D03*
X681000D02*
D03*
X581122Y326500D02*
D03*
X597250D02*
D03*
X827372Y335000D02*
D03*
X843500D02*
D03*
X338872Y1268500D02*
D03*
X355000D02*
D03*
X517622Y1268750D02*
D03*
X533750D02*
D03*
X607372D02*
D03*
X623500D02*
D03*
X430872Y1269000D02*
D03*
X447000D02*
D03*
D76*
X1556500Y1143500D02*
D03*
X1516500D02*
D03*
Y1223500D02*
D03*
X1556500D02*
D03*
D77*
X1360500Y1260000D02*
D03*
X1330500D02*
D03*
X1315500D02*
D03*
Y1202000D02*
D03*
X1330500D02*
D03*
X1360500D02*
D03*
X1441000Y1251000D02*
D03*
X1411000D02*
D03*
X1396000D02*
D03*
Y1193000D02*
D03*
X1411000D02*
D03*
X1441000D02*
D03*
D78*
X926000Y337500D02*
D03*
X951400D02*
D03*
X976800D02*
D03*
X1002200D02*
D03*
X1027600D02*
D03*
X1053000D02*
D03*
Y571500D02*
D03*
X1027600D02*
D03*
X1002200D02*
D03*
X976800D02*
D03*
X951400D02*
D03*
X926000D02*
D03*
D79*
X1640500Y586750D02*
Y597750D01*
Y586750D02*
X1642885Y584365D01*
X1640500Y532750D02*
Y542394D01*
X1640549Y542443D01*
Y544475D01*
X1640500Y544524D02*
X1640549Y544475D01*
X1642885Y555103D02*
X1643035Y554953D01*
X1640500Y544524D02*
Y548616D01*
X1643035Y551151D01*
Y554953D01*
X1642885Y555103D02*
Y584365D01*
M02*
