G04 Layer_Color=32896*
%FSLAX44Y44*%
%MOMM*%
G71*
G01*
G75*
%ADD47C,0.5000*%
%ADD49C,0.2540*%
%ADD53C,0.2000*%
%ADD55C,0.4000*%
%ADD113C,0.1524*%
D47*
X240000Y2825000D02*
Y2440000D01*
X655000D01*
X700000Y2485000D02*
X655000Y2440000D01*
X700000Y2780000D02*
Y2485000D01*
X655000Y2825000D02*
X700000Y2780000D01*
X240000Y2825000D02*
X655000D01*
X720000D02*
Y2440000D01*
X1135000D01*
X1180000Y2485000D02*
X1135000Y2440000D01*
X1180000Y2780000D02*
Y2485000D01*
X1135000Y2825000D02*
X1180000Y2780000D01*
X720000Y2825000D02*
X1135000D01*
X1200000D02*
Y2440000D01*
X1615000D01*
X1660000Y2485000D02*
X1615000Y2440000D01*
X1660000Y2780000D02*
Y2485000D01*
X1615000Y2825000D02*
X1660000Y2780000D01*
X1200000Y2825000D02*
X1615000D01*
D49*
X1930000Y17460D02*
Y216460D01*
X230000Y17460D02*
Y227460D01*
X1120627Y20000D02*
X1930000D01*
X230000D02*
X1031245D01*
X1914760Y25080D02*
X1930000Y20000D01*
X1914760Y14920D02*
X1930000Y20000D01*
X230000D02*
X245240Y14920D01*
X230000Y20000D02*
X245240Y25080D01*
X1933540Y2845000D02*
X2067540D01*
X1933540Y220000D02*
X2067540D01*
X2065000Y1574397D02*
Y2845000D01*
Y220000D02*
Y1482476D01*
X2059920Y2829760D02*
X2065000Y2845000D01*
X2070080Y2829760D01*
X2065000Y220000D02*
X2070080Y235240D01*
X2059920D02*
X2065000Y220000D01*
X830000Y1287460D02*
Y1335460D01*
X1820000Y1287460D02*
Y1435460D01*
X830000Y1290000D02*
X1282593D01*
X1359279D02*
X1820000D01*
X830000D02*
X845240Y1284920D01*
X830000Y1290000D02*
X845240Y1295080D01*
X1804760D02*
X1820000Y1290000D01*
X1804760Y1284920D02*
X1820000Y1290000D01*
X1824540Y1440000D02*
X1872540D01*
X834540Y1340000D02*
X1872540D01*
X1870000Y1390000D02*
Y1440000D01*
Y1340000D02*
Y1390000D01*
X1864920Y1424760D02*
X1870000Y1440000D01*
X1875080Y1424760D01*
X1870000Y1340000D02*
X1875080Y1355240D01*
X1864920D02*
X1870000Y1340000D01*
X35078D02*
X235460D01*
X35078Y2420000D02*
X235460D01*
X37617Y1340000D02*
Y1831245D01*
Y1920627D02*
Y2420000D01*
Y1340000D02*
X42698Y1355240D01*
X32538D02*
X37617Y1340000D01*
X32538Y2404760D02*
X37617Y2420000D01*
X42698Y2404760D01*
X1820000Y2324540D02*
Y2897540D01*
X240000Y2424540D02*
Y2897540D01*
X1070627Y2895000D02*
X1820000D01*
X240000D02*
X981245D01*
X1804760Y2900080D02*
X1820000Y2895000D01*
X1804760Y2889920D02*
X1820000Y2895000D01*
X240000D02*
X255240Y2889920D01*
X240000Y2895000D02*
X255240Y2900080D01*
X35078Y240000D02*
X235460D01*
X35078Y1320000D02*
X235460D01*
X37617Y240000D02*
Y731245D01*
Y820627D02*
Y1320000D01*
Y240000D02*
X42698Y255240D01*
X32538D02*
X37617Y240000D01*
X32538Y1304760D02*
X37617Y1320000D01*
X42698Y1304760D01*
X1820000Y70460D02*
Y1215460D01*
X240000Y70460D02*
Y1315460D01*
X1070627Y73000D02*
X1820000D01*
X240000D02*
X981245D01*
X1804760Y78080D02*
X1820000Y73000D01*
X1804760Y67920D02*
X1820000Y73000D01*
X240000D02*
X255240Y67920D01*
X240000Y73000D02*
X255240Y78080D01*
X830000Y147460D02*
Y235460D01*
X1820000Y147460D02*
Y335460D01*
X830000Y150000D02*
X1282593D01*
X1359279D02*
X1820000D01*
X830000D02*
X845240Y144920D01*
X830000Y150000D02*
X845240Y155080D01*
X1804760D02*
X1820000Y150000D01*
X1804760Y144920D02*
X1820000Y150000D01*
X834540Y240000D02*
X1973540D01*
X1824540Y340000D02*
X1973540D01*
X1971000Y240000D02*
Y290000D01*
Y340000D01*
Y240000D02*
X1976080Y255240D01*
X1965920D02*
X1971000Y240000D01*
X1965920Y324760D02*
X1971000Y340000D01*
X1976080Y324760D01*
X207460Y2440000D02*
X234960D01*
X207460Y2825000D02*
X234960D01*
X210000Y2598221D02*
Y2440000D01*
Y2825000D02*
Y2674907D01*
X215080Y2455240D02*
X210000Y2440000D01*
X204920Y2455240D02*
X210000Y2440000D01*
Y2825000D02*
X204920Y2809760D01*
X210000Y2825000D02*
X215080Y2809760D01*
X700000Y2852540D02*
Y2785040D01*
X240000Y2852540D02*
Y2830040D01*
X504279Y2850000D02*
X700000D01*
X240000D02*
X427593D01*
X684760Y2855080D02*
X700000Y2850000D01*
X684760Y2844920D01*
X240000Y2850000D02*
X255240Y2844920D01*
Y2855080D02*
X240000Y2850000D01*
X687460Y2440000D02*
X714960D01*
X687460Y2825000D02*
X714960D01*
X690000Y2598221D02*
Y2440000D01*
Y2825000D02*
Y2674907D01*
X695080Y2455240D02*
X690000Y2440000D01*
X684920Y2455240D02*
X690000Y2440000D01*
Y2825000D02*
X684920Y2809760D01*
X690000Y2825000D02*
X695080Y2809760D01*
X1180000Y2852540D02*
Y2785040D01*
X720000Y2852540D02*
Y2830040D01*
X984279Y2850000D02*
X1180000D01*
X720000D02*
X907593D01*
X1164760Y2855080D02*
X1180000Y2850000D01*
X1164760Y2844920D01*
X720000Y2850000D02*
X735240Y2844920D01*
Y2855080D02*
X720000Y2850000D01*
X1167460Y2440000D02*
X1194960D01*
X1167460Y2825000D02*
X1194960D01*
X1170000Y2598221D02*
Y2440000D01*
Y2825000D02*
Y2674907D01*
X1175080Y2455240D02*
X1170000Y2440000D01*
X1164920Y2455240D02*
X1170000Y2440000D01*
Y2825000D02*
X1164920Y2809760D01*
X1170000Y2825000D02*
X1175080Y2809760D01*
X1660000Y2852540D02*
Y2785040D01*
X1200000Y2852540D02*
Y2830040D01*
X1464279Y2850000D02*
X1660000D01*
X1200000D02*
X1387593D01*
X1644760Y2855080D02*
X1660000Y2850000D01*
X1644760Y2844920D01*
X1200000Y2850000D02*
X1215240Y2844920D01*
Y2855080D02*
X1200000Y2850000D01*
D53*
X209189Y2670843D02*
X210855Y2669177D01*
Y2665845D01*
X209189Y2664178D01*
X207523D01*
X205857Y2665845D01*
Y2667511D01*
Y2665845D01*
X204191Y2664178D01*
X202525D01*
X200858Y2665845D01*
Y2669177D01*
X202525Y2670843D01*
X209189Y2660846D02*
X210855Y2659180D01*
Y2655848D01*
X209189Y2654182D01*
X207523D01*
X205857Y2655848D01*
X204191Y2654182D01*
X202525D01*
X200858Y2655848D01*
Y2659180D01*
X202525Y2660846D01*
X204191D01*
X205857Y2659180D01*
X207523Y2660846D01*
X209189D01*
X205857Y2659180D02*
Y2655848D01*
X200858Y2650849D02*
X202525D01*
Y2649183D01*
X200858D01*
Y2650849D01*
X210855Y2635854D02*
Y2642519D01*
X205857D01*
X207523Y2639186D01*
Y2637520D01*
X205857Y2635854D01*
X202525D01*
X200858Y2637520D01*
Y2640853D01*
X202525Y2642519D01*
X209189Y2632522D02*
X210855Y2630856D01*
Y2627523D01*
X209189Y2625858D01*
X202525D01*
X200858Y2627523D01*
Y2630856D01*
X202525Y2632522D01*
X209189D01*
X436655Y2840858D02*
Y2850855D01*
X431657Y2845857D01*
X438322D01*
X448318Y2850855D02*
X444986Y2849189D01*
X441654Y2845857D01*
Y2842525D01*
X443320Y2840858D01*
X446652D01*
X448318Y2842525D01*
Y2844191D01*
X446652Y2845857D01*
X441654D01*
X451651Y2840858D02*
Y2842525D01*
X453317D01*
Y2840858D01*
X451651D01*
X459981Y2849189D02*
X461647Y2850855D01*
X464980D01*
X466646Y2849189D01*
Y2842525D01*
X464980Y2840858D01*
X461647D01*
X459981Y2842525D01*
Y2849189D01*
X469978D02*
X471644Y2850855D01*
X474976D01*
X476642Y2849189D01*
Y2842525D01*
X474976Y2840858D01*
X471644D01*
X469978Y2842525D01*
Y2849189D01*
X689189Y2670843D02*
X690855Y2669177D01*
Y2665845D01*
X689189Y2664178D01*
X687523D01*
X685857Y2665845D01*
Y2667511D01*
Y2665845D01*
X684191Y2664178D01*
X682525D01*
X680858Y2665845D01*
Y2669177D01*
X682525Y2670843D01*
X689189Y2660846D02*
X690855Y2659180D01*
Y2655848D01*
X689189Y2654182D01*
X687523D01*
X685857Y2655848D01*
X684191Y2654182D01*
X682525D01*
X680858Y2655848D01*
Y2659180D01*
X682525Y2660846D01*
X684191D01*
X685857Y2659180D01*
X687523Y2660846D01*
X689189D01*
X685857Y2659180D02*
Y2655848D01*
X680858Y2650849D02*
X682525D01*
Y2649183D01*
X680858D01*
Y2650849D01*
X690855Y2635854D02*
Y2642519D01*
X685857D01*
X687523Y2639186D01*
Y2637520D01*
X685857Y2635854D01*
X682525D01*
X680858Y2637520D01*
Y2640853D01*
X682525Y2642519D01*
X689189Y2632522D02*
X690855Y2630856D01*
Y2627523D01*
X689189Y2625858D01*
X682525D01*
X680858Y2627523D01*
Y2630856D01*
X682525Y2632522D01*
X689189D01*
X916655Y2840858D02*
Y2850855D01*
X911657Y2845857D01*
X918322D01*
X928318Y2850855D02*
X924986Y2849189D01*
X921654Y2845857D01*
Y2842525D01*
X923320Y2840858D01*
X926652D01*
X928318Y2842525D01*
Y2844191D01*
X926652Y2845857D01*
X921654D01*
X931651Y2840858D02*
Y2842525D01*
X933317D01*
Y2840858D01*
X931651D01*
X939981Y2849189D02*
X941647Y2850855D01*
X944980D01*
X946646Y2849189D01*
Y2842525D01*
X944980Y2840858D01*
X941647D01*
X939981Y2842525D01*
Y2849189D01*
X949978D02*
X951644Y2850855D01*
X954976D01*
X956643Y2849189D01*
Y2842525D01*
X954976Y2840858D01*
X951644D01*
X949978Y2842525D01*
Y2849189D01*
X1169189Y2670843D02*
X1170855Y2669177D01*
Y2665845D01*
X1169189Y2664178D01*
X1167523D01*
X1165857Y2665845D01*
Y2667511D01*
Y2665845D01*
X1164191Y2664178D01*
X1162525D01*
X1160858Y2665845D01*
Y2669177D01*
X1162525Y2670843D01*
X1169189Y2660846D02*
X1170855Y2659180D01*
Y2655848D01*
X1169189Y2654182D01*
X1167523D01*
X1165857Y2655848D01*
X1164191Y2654182D01*
X1162525D01*
X1160858Y2655848D01*
Y2659180D01*
X1162525Y2660846D01*
X1164191D01*
X1165857Y2659180D01*
X1167523Y2660846D01*
X1169189D01*
X1165857Y2659180D02*
Y2655848D01*
X1160858Y2650849D02*
X1162525D01*
Y2649183D01*
X1160858D01*
Y2650849D01*
X1170855Y2635854D02*
Y2642519D01*
X1165857D01*
X1167523Y2639186D01*
Y2637520D01*
X1165857Y2635854D01*
X1162525D01*
X1160858Y2637520D01*
Y2640853D01*
X1162525Y2642519D01*
X1169189Y2632522D02*
X1170855Y2630856D01*
Y2627523D01*
X1169189Y2625858D01*
X1162525D01*
X1160858Y2627523D01*
Y2630856D01*
X1162525Y2632522D01*
X1169189D01*
X1396655Y2840858D02*
Y2850855D01*
X1391657Y2845857D01*
X1398322D01*
X1408318Y2850855D02*
X1404986Y2849189D01*
X1401654Y2845857D01*
Y2842525D01*
X1403320Y2840858D01*
X1406652D01*
X1408318Y2842525D01*
Y2844191D01*
X1406652Y2845857D01*
X1401654D01*
X1411651Y2840858D02*
Y2842525D01*
X1413317D01*
Y2840858D01*
X1411651D01*
X1419981Y2849189D02*
X1421647Y2850855D01*
X1424980D01*
X1426646Y2849189D01*
Y2842525D01*
X1424980Y2840858D01*
X1421647D01*
X1419981Y2842525D01*
Y2849189D01*
X1429978D02*
X1431644Y2850855D01*
X1434976D01*
X1436642Y2849189D01*
Y2842525D01*
X1434976Y2840858D01*
X1431644D01*
X1429978Y2842525D01*
Y2849189D01*
X130000Y220000D02*
Y2845000D01*
X1930000D01*
Y220000D02*
Y2845000D01*
X130000Y220000D02*
X1930000D01*
D55*
X240000Y1340000D02*
Y2420000D01*
X830000D01*
X1820000Y2320000D01*
X240000Y1340000D02*
X830000D01*
X1820000Y1440000D02*
Y2320000D01*
X830000Y1340000D02*
X1820000Y1440000D01*
X240000Y240000D02*
Y1320000D01*
Y240000D02*
X830000D01*
X1820000Y340000D01*
X240000Y1320000D02*
X830000D01*
X1820000Y1220000D01*
Y340000D02*
Y1220000D01*
D113*
X1035309Y10859D02*
X1040388D01*
X1037848D01*
Y26093D01*
X1035309Y23554D01*
X1048005Y26093D02*
X1058162D01*
Y23554D01*
X1048005Y13398D01*
Y10859D01*
X1063240Y23554D02*
X1065779Y26093D01*
X1070858D01*
X1073397Y23554D01*
Y13398D01*
X1070858Y10859D01*
X1065779D01*
X1063240Y13398D01*
Y23554D01*
X1078475Y10859D02*
Y13398D01*
X1081014D01*
Y10859D01*
X1078475D01*
X1091171Y23554D02*
X1093710Y26093D01*
X1098789D01*
X1101328Y23554D01*
Y13398D01*
X1098789Y10859D01*
X1093710D01*
X1091171Y13398D01*
Y23554D01*
X1106406D02*
X1108945Y26093D01*
X1114024D01*
X1116563Y23554D01*
Y13398D01*
X1114024Y10859D01*
X1108945D01*
X1106406Y13398D01*
Y23554D01*
X2074142Y1496696D02*
Y1486539D01*
X2063985Y1496696D01*
X2061446D01*
X2058907Y1494157D01*
Y1489079D01*
X2061446Y1486539D01*
X2058907Y1511931D02*
X2061446Y1506853D01*
X2066524Y1501775D01*
X2071602D01*
X2074142Y1504314D01*
Y1509392D01*
X2071602Y1511931D01*
X2069063D01*
X2066524Y1509392D01*
Y1501775D01*
X2074142Y1527166D02*
Y1517010D01*
X2063985Y1527166D01*
X2061446D01*
X2058907Y1524627D01*
Y1519549D01*
X2061446Y1517010D01*
X2074142Y1532245D02*
X2071602D01*
Y1534784D01*
X2074142D01*
Y1532245D01*
X2058907Y1555097D02*
Y1544941D01*
X2066524D01*
X2063985Y1550019D01*
Y1552558D01*
X2066524Y1555097D01*
X2071602D01*
X2074142Y1552558D01*
Y1547480D01*
X2071602Y1544941D01*
X2061446Y1560176D02*
X2058907Y1562715D01*
Y1567793D01*
X2061446Y1570332D01*
X2071602D01*
X2074142Y1567793D01*
Y1562715D01*
X2071602Y1560176D01*
X2061446D01*
X1286657Y1283398D02*
X1289196Y1280858D01*
X1294275D01*
X1296814Y1283398D01*
Y1293554D01*
X1294275Y1296093D01*
X1289196D01*
X1286657Y1293554D01*
Y1291015D01*
X1289196Y1288476D01*
X1296814D01*
X1301892Y1283398D02*
X1304431Y1280858D01*
X1309510D01*
X1312049Y1283398D01*
Y1293554D01*
X1309510Y1296093D01*
X1304431D01*
X1301892Y1293554D01*
Y1291015D01*
X1304431Y1288476D01*
X1312049D01*
X1317127Y1280858D02*
Y1283398D01*
X1319666D01*
Y1280858D01*
X1317127D01*
X1329823Y1293554D02*
X1332362Y1296093D01*
X1337441D01*
X1339980Y1293554D01*
Y1283398D01*
X1337441Y1280858D01*
X1332362D01*
X1329823Y1283398D01*
Y1293554D01*
X1345058D02*
X1347597Y1296093D01*
X1352676D01*
X1355215Y1293554D01*
Y1283398D01*
X1352676Y1280858D01*
X1347597D01*
X1345058Y1283398D01*
Y1293554D01*
X1906566Y1352927D02*
Y1358005D01*
Y1355466D01*
X1891331D01*
X1893870Y1352927D01*
Y1365623D02*
X1891331Y1368162D01*
Y1373240D01*
X1893870Y1375779D01*
X1904027D01*
X1906566Y1373240D01*
Y1368162D01*
X1904027Y1365623D01*
X1893870D01*
X1906566Y1380858D02*
X1904027D01*
Y1383397D01*
X1906566D01*
Y1380858D01*
X1893870Y1393553D02*
X1891331Y1396093D01*
Y1401171D01*
X1893870Y1403710D01*
X1904027D01*
X1906566Y1401171D01*
Y1396093D01*
X1904027Y1393553D01*
X1893870D01*
Y1408789D02*
X1891331Y1411328D01*
Y1416406D01*
X1893870Y1418945D01*
X1904027D01*
X1906566Y1416406D01*
Y1411328D01*
X1904027Y1408789D01*
X1893870D01*
X46759Y1835309D02*
Y1840388D01*
Y1837848D01*
X31524D01*
X34063Y1835309D01*
Y1848005D02*
X31524Y1850544D01*
Y1855623D01*
X34063Y1858162D01*
X44220D01*
X46759Y1855623D01*
Y1850544D01*
X44220Y1848005D01*
X34063D01*
Y1863240D02*
X31524Y1865779D01*
Y1870858D01*
X34063Y1873397D01*
X36602D01*
X39141Y1870858D01*
X41681Y1873397D01*
X44220D01*
X46759Y1870858D01*
Y1865779D01*
X44220Y1863240D01*
X41681D01*
X39141Y1865779D01*
X36602Y1863240D01*
X34063D01*
X39141Y1865779D02*
Y1870858D01*
X46759Y1878475D02*
X44220D01*
Y1881014D01*
X46759D01*
Y1878475D01*
X34063Y1891171D02*
X31524Y1893710D01*
Y1898789D01*
X34063Y1901328D01*
X44220D01*
X46759Y1898789D01*
Y1893710D01*
X44220Y1891171D01*
X34063D01*
Y1906406D02*
X31524Y1908945D01*
Y1914024D01*
X34063Y1916563D01*
X44220D01*
X46759Y1914024D01*
Y1908945D01*
X44220Y1906406D01*
X34063D01*
X985309Y2885858D02*
X990387D01*
X987848D01*
Y2901093D01*
X985309Y2898554D01*
X1008162Y2901093D02*
X998005D01*
Y2893476D01*
X1003083Y2896015D01*
X1005623D01*
X1008162Y2893476D01*
Y2888398D01*
X1005623Y2885858D01*
X1000544D01*
X998005Y2888398D01*
X1013240Y2898554D02*
X1015779Y2901093D01*
X1020858D01*
X1023397Y2898554D01*
Y2896015D01*
X1020858Y2893476D01*
X1023397Y2890937D01*
Y2888398D01*
X1020858Y2885858D01*
X1015779D01*
X1013240Y2888398D01*
Y2890937D01*
X1015779Y2893476D01*
X1013240Y2896015D01*
Y2898554D01*
X1015779Y2893476D02*
X1020858D01*
X1028475Y2885858D02*
Y2888398D01*
X1031014D01*
Y2885858D01*
X1028475D01*
X1041171Y2898554D02*
X1043710Y2901093D01*
X1048789D01*
X1051328Y2898554D01*
Y2888398D01*
X1048789Y2885858D01*
X1043710D01*
X1041171Y2888398D01*
Y2898554D01*
X1056406D02*
X1058945Y2901093D01*
X1064024D01*
X1066563Y2898554D01*
Y2888398D01*
X1064024Y2885858D01*
X1058945D01*
X1056406Y2888398D01*
Y2898554D01*
X46759Y735309D02*
Y740387D01*
Y737848D01*
X31524D01*
X34063Y735309D01*
Y748005D02*
X31524Y750544D01*
Y755623D01*
X34063Y758162D01*
X44220D01*
X46759Y755623D01*
Y750544D01*
X44220Y748005D01*
X34063D01*
Y763240D02*
X31524Y765779D01*
Y770858D01*
X34063Y773397D01*
X36602D01*
X39141Y770858D01*
X41681Y773397D01*
X44220D01*
X46759Y770858D01*
Y765779D01*
X44220Y763240D01*
X41681D01*
X39141Y765779D01*
X36602Y763240D01*
X34063D01*
X39141Y765779D02*
Y770858D01*
X46759Y778475D02*
X44220D01*
Y781014D01*
X46759D01*
Y778475D01*
X34063Y791171D02*
X31524Y793710D01*
Y798789D01*
X34063Y801328D01*
X44220D01*
X46759Y798789D01*
Y793710D01*
X44220Y791171D01*
X34063D01*
Y806406D02*
X31524Y808945D01*
Y814024D01*
X34063Y816563D01*
X44220D01*
X46759Y814024D01*
Y808945D01*
X44220Y806406D01*
X34063D01*
X985309Y63858D02*
X990387D01*
X987848D01*
Y79093D01*
X985309Y76554D01*
X1008162Y79093D02*
X998005D01*
Y71476D01*
X1003083Y74015D01*
X1005623D01*
X1008162Y71476D01*
Y66398D01*
X1005623Y63858D01*
X1000544D01*
X998005Y66398D01*
X1013240Y76554D02*
X1015779Y79093D01*
X1020858D01*
X1023397Y76554D01*
Y74015D01*
X1020858Y71476D01*
X1023397Y68937D01*
Y66398D01*
X1020858Y63858D01*
X1015779D01*
X1013240Y66398D01*
Y68937D01*
X1015779Y71476D01*
X1013240Y74015D01*
Y76554D01*
X1015779Y71476D02*
X1020858D01*
X1028475Y63858D02*
Y66398D01*
X1031014D01*
Y63858D01*
X1028475D01*
X1041171Y76554D02*
X1043710Y79093D01*
X1048789D01*
X1051328Y76554D01*
Y66398D01*
X1048789Y63858D01*
X1043710D01*
X1041171Y66398D01*
Y76554D01*
X1056406D02*
X1058945Y79093D01*
X1064024D01*
X1066563Y76554D01*
Y66398D01*
X1064024Y63858D01*
X1058945D01*
X1056406Y66398D01*
Y76554D01*
X1286657Y143398D02*
X1289196Y140858D01*
X1294275D01*
X1296814Y143398D01*
Y153554D01*
X1294275Y156094D01*
X1289196D01*
X1286657Y153554D01*
Y151015D01*
X1289196Y148476D01*
X1296814D01*
X1301892Y143398D02*
X1304431Y140858D01*
X1309510D01*
X1312049Y143398D01*
Y153554D01*
X1309510Y156094D01*
X1304431D01*
X1301892Y153554D01*
Y151015D01*
X1304431Y148476D01*
X1312049D01*
X1317127Y140858D02*
Y143398D01*
X1319666D01*
Y140858D01*
X1317127D01*
X1329823Y153554D02*
X1332362Y156094D01*
X1337441D01*
X1339980Y153554D01*
Y143398D01*
X1337441Y140858D01*
X1332362D01*
X1329823Y143398D01*
Y153554D01*
X1345058D02*
X1347597Y156094D01*
X1352676D01*
X1355215Y153554D01*
Y143398D01*
X1352676Y140858D01*
X1347597D01*
X1345058Y143398D01*
Y153554D01*
X2007566Y252927D02*
Y258005D01*
Y255466D01*
X1992331D01*
X1994870Y252927D01*
Y265623D02*
X1992331Y268162D01*
Y273240D01*
X1994870Y275779D01*
X2005027D01*
X2007566Y273240D01*
Y268162D01*
X2005027Y265623D01*
X1994870D01*
X2007566Y280858D02*
X2005027D01*
Y283397D01*
X2007566D01*
Y280858D01*
X1994870Y293554D02*
X1992331Y296093D01*
Y301171D01*
X1994870Y303710D01*
X2005027D01*
X2007566Y301171D01*
Y296093D01*
X2005027Y293554D01*
X1994870D01*
Y308789D02*
X1992331Y311328D01*
Y316406D01*
X1994870Y318945D01*
X2005027D01*
X2007566Y316406D01*
Y311328D01*
X2005027Y308789D01*
X1994870D01*
M02*
