G04 Layer_Color=16711935*
%FSLAX44Y44*%
%MOMM*%
G71*
G01*
G75*
%ADD47C,0.5000*%
%ADD53C,0.2000*%
%ADD55C,0.4000*%
%ADD229C,1.9999*%
D47*
X225000Y2870000D02*
Y2899990D01*
X239995D01*
X244993Y2894992D01*
Y2884995D01*
X239995Y2879997D01*
X225000D01*
X234997D02*
X244993Y2870000D01*
X259989D02*
X269985D01*
X274984Y2874998D01*
Y2884995D01*
X269985Y2889994D01*
X259989D01*
X254990Y2884995D01*
Y2874998D01*
X259989Y2870000D01*
X284981Y2889994D02*
Y2874998D01*
X289979Y2870000D01*
X304974D01*
Y2889994D01*
X319969Y2894992D02*
Y2889994D01*
X314971D01*
X324968D01*
X319969D01*
Y2874998D01*
X324968Y2870000D01*
X339963D02*
X349959D01*
X344961D01*
Y2889994D01*
X339963D01*
X364955Y2870000D02*
Y2889994D01*
X379950D01*
X384948Y2884995D01*
Y2870000D01*
X404942Y2860003D02*
X409940D01*
X414939Y2865002D01*
Y2889994D01*
X399943D01*
X394945Y2884995D01*
Y2874998D01*
X399943Y2870000D01*
X414939D01*
X459924Y2894992D02*
Y2889994D01*
X454926D01*
X464922D01*
X459924D01*
Y2874998D01*
X464922Y2870000D01*
X484916D02*
X494913D01*
X499911Y2874998D01*
Y2884995D01*
X494913Y2889994D01*
X484916D01*
X479917Y2884995D01*
Y2874998D01*
X484916Y2870000D01*
X514906D02*
X524903D01*
X529901Y2874998D01*
Y2884995D01*
X524903Y2889994D01*
X514906D01*
X509908Y2884995D01*
Y2874998D01*
X514906Y2870000D01*
X539898D02*
X549895D01*
X544897D01*
Y2899990D01*
X539898D01*
X594880Y2860003D02*
Y2889994D01*
X609875D01*
X614874Y2884995D01*
Y2874998D01*
X609875Y2870000D01*
X594880D01*
X629869Y2889994D02*
X639866D01*
X644864Y2884995D01*
Y2870000D01*
X629869D01*
X624871Y2874998D01*
X629869Y2879997D01*
X644864D01*
X659859Y2894992D02*
Y2889994D01*
X654861D01*
X664858D01*
X659859D01*
Y2874998D01*
X664858Y2870000D01*
X679853Y2899990D02*
Y2870000D01*
Y2884995D01*
X684851Y2889994D01*
X694848D01*
X699846Y2884995D01*
Y2870000D01*
X749830D02*
X739833Y2879997D01*
Y2889994D01*
X749830Y2899990D01*
X769824Y2894992D02*
Y2889994D01*
X764825D01*
X774822D01*
X769824D01*
Y2874998D01*
X774822Y2870000D01*
X794816D02*
X804812D01*
X809811Y2874998D01*
Y2884995D01*
X804812Y2889994D01*
X794816D01*
X789817Y2884995D01*
Y2874998D01*
X794816Y2870000D01*
X824806D02*
X834803D01*
X839801Y2874998D01*
Y2884995D01*
X834803Y2889994D01*
X824806D01*
X819808Y2884995D01*
Y2874998D01*
X824806Y2870000D01*
X849798D02*
X859794D01*
X854796D01*
Y2899990D01*
X849798D01*
X924773D02*
Y2870000D01*
X909778D01*
X904780Y2874998D01*
Y2884995D01*
X909778Y2889994D01*
X924773D01*
X934770Y2870000D02*
X944767D01*
X939769D01*
Y2889994D01*
X934770D01*
X964761D02*
X974757D01*
X979756Y2884995D01*
Y2870000D01*
X964761D01*
X959762Y2874998D01*
X964761Y2879997D01*
X979756D01*
X989753Y2870000D02*
Y2889994D01*
X994751D01*
X999749Y2884995D01*
Y2870000D01*
Y2884995D01*
X1004748Y2889994D01*
X1009746Y2884995D01*
Y2870000D01*
X1034738D02*
X1024741D01*
X1019743Y2874998D01*
Y2884995D01*
X1024741Y2889994D01*
X1034738D01*
X1039736Y2884995D01*
Y2879997D01*
X1019743D01*
X1054732Y2894992D02*
Y2889994D01*
X1049733D01*
X1059730D01*
X1054732D01*
Y2874998D01*
X1059730Y2870000D01*
X1089720D02*
X1079723D01*
X1074725Y2874998D01*
Y2884995D01*
X1079723Y2889994D01*
X1089720D01*
X1094718Y2884995D01*
Y2879997D01*
X1074725D01*
X1104715Y2889994D02*
Y2870000D01*
Y2879997D01*
X1109714Y2884995D01*
X1114712Y2889994D01*
X1119710D01*
X1184689Y2870000D02*
X1164696D01*
X1184689Y2889994D01*
Y2894992D01*
X1179691Y2899990D01*
X1169694D01*
X1164696Y2894992D01*
X1224676Y2870000D02*
Y2889994D01*
X1229675D01*
X1234673Y2884995D01*
Y2870000D01*
Y2884995D01*
X1239672Y2889994D01*
X1244670Y2884995D01*
Y2870000D01*
X1254667D02*
Y2889994D01*
X1259665D01*
X1264663Y2884995D01*
Y2870000D01*
Y2884995D01*
X1269662Y2889994D01*
X1274660Y2884995D01*
Y2870000D01*
X1284657D02*
X1294654Y2879997D01*
Y2889994D01*
X1284657Y2899990D01*
X240000Y2825000D02*
Y2440000D01*
X655000D01*
X700000Y2485000D02*
X655000Y2440000D01*
X700000Y2780000D02*
Y2485000D01*
X655000Y2825000D02*
X700000Y2780000D01*
X240000Y2825000D02*
X655000D01*
X720000D02*
Y2440000D01*
X1135000D01*
X1180000Y2485000D02*
X1135000Y2440000D01*
X1180000Y2780000D02*
Y2485000D01*
X1135000Y2825000D02*
X1180000Y2780000D01*
X720000Y2825000D02*
X1135000D01*
X1200000D02*
Y2440000D01*
X1615000D01*
X1660000Y2485000D02*
X1615000Y2440000D01*
X1660000Y2780000D02*
Y2485000D01*
X1615000Y2825000D02*
X1660000Y2780000D01*
X1200000Y2825000D02*
X1615000D01*
D53*
X130000Y220000D02*
Y2845000D01*
X1930000D01*
Y220000D02*
Y2845000D01*
X130000Y220000D02*
X1930000D01*
D55*
X240000Y1340000D02*
Y2420000D01*
X830000D01*
X1820000Y2320000D01*
X240000Y1340000D02*
X830000D01*
X1820000Y1440000D02*
Y2320000D01*
X830000Y1340000D02*
X1820000Y1440000D01*
X240000Y240000D02*
Y1320000D01*
Y240000D02*
X830000D01*
X1820000Y340000D01*
X240000Y1320000D02*
X830000D01*
X1820000Y1220000D01*
Y340000D02*
Y1220000D01*
D229*
X1622071Y2832071D02*
G03*
X1615000Y2835000I-7071J-7071D01*
G01*
X1670000Y2780000D02*
G03*
X1667071Y2787071I-10000J0D01*
G01*
X1670000Y2780000D02*
G03*
X1667071Y2787071I-10000J0D01*
G01*
X1622071Y2832071D02*
G03*
X1615000Y2835000I-7071J-7071D01*
G01*
X1667071Y2477929D02*
G03*
X1670000Y2485000I-7071J7071D01*
G01*
X1667071Y2477929D02*
G03*
X1670000Y2485000I-7071J7071D01*
G01*
X1200000Y2835000D02*
G03*
X1190000Y2825000I0J-10000D01*
G01*
X1200000Y2835000D02*
G03*
X1190000Y2825000I0J-10000D01*
G01*
X1190000Y2780000D02*
G03*
X1187071Y2787071I-10000J0D01*
G01*
X1142071Y2832071D02*
G03*
X1135000Y2835000I-7071J-7071D01*
G01*
X1142071Y2832071D02*
G03*
X1135000Y2835000I-7071J-7071D01*
G01*
X1190000Y2780000D02*
G03*
X1187071Y2787071I-10000J0D01*
G01*
Y2477929D02*
G03*
X1190000Y2485000I-7071J7071D01*
G01*
X1187071Y2477929D02*
G03*
X1190000Y2485000I-7071J7071D01*
G01*
X1830000Y2320000D02*
G03*
X1821005Y2329949I-10000J0D01*
G01*
Y1430051D02*
G03*
X1830000Y1440000I-1005J9949D01*
G01*
Y2320000D02*
G03*
X1821005Y2329949I-10000J0D01*
G01*
Y1430051D02*
G03*
X1830000Y1440000I-1005J9949D01*
G01*
Y1220000D02*
G03*
X1821005Y1229949I-10000J0D01*
G01*
Y330051D02*
G03*
X1830000Y340000I-1005J9949D01*
G01*
Y1220000D02*
G03*
X1821005Y1229949I-10000J0D01*
G01*
Y330051D02*
G03*
X1830000Y340000I-1005J9949D01*
G01*
X1615000Y2430000D02*
G03*
X1622071Y2432929I0J10000D01*
G01*
X1190000Y2440000D02*
G03*
X1200000Y2430000I10000J0D01*
G01*
X1190000Y2440000D02*
G03*
X1200000Y2430000I10000J0D01*
G01*
X1135000D02*
G03*
X1142071Y2432929I0J10000D01*
G01*
X1135000Y2430000D02*
G03*
X1142071Y2432929I0J10000D01*
G01*
X1615000Y2430000D02*
G03*
X1622071Y2432929I0J10000D01*
G01*
X831005Y2429949D02*
G03*
X830000Y2430000I-1005J-9949D01*
G01*
X831005Y1329949D02*
G03*
X830000Y1330000I-1005J-9949D01*
G01*
Y1330000D02*
G03*
X831005Y1330051I0J10000D01*
G01*
X720000Y2835000D02*
G03*
X710000Y2825000I0J-10000D01*
G01*
X720000Y2835000D02*
G03*
X710000Y2825000I0J-10000D01*
G01*
X710000Y2780000D02*
G03*
X707071Y2787071I-10000J0D01*
G01*
X710000Y2780000D02*
G03*
X707071Y2787071I-10000J0D01*
G01*
X710000Y2440000D02*
G03*
X720000Y2430000I10000J0D01*
G01*
X710000Y2440000D02*
G03*
X720000Y2430000I10000J0D01*
G01*
X707071Y2477929D02*
G03*
X710000Y2485000I-7071J7071D01*
G01*
X707071Y2477929D02*
G03*
X710000Y2485000I-7071J7071D01*
G01*
X662071Y2832071D02*
G03*
X655000Y2835000I-7071J-7071D01*
G01*
X662071Y2832071D02*
G03*
X655000Y2835000I-7071J-7071D01*
G01*
X240000D02*
G03*
X230000Y2825000I0J-10000D01*
G01*
X240000Y2835000D02*
G03*
X230000Y2825000I0J-10000D01*
G01*
X655000Y2430000D02*
G03*
X662071Y2432929I0J10000D01*
G01*
X230000Y2440000D02*
G03*
X240000Y2430000I10000J0D01*
G01*
X831005Y2429949D02*
G03*
X830000Y2430000I-1005J-9949D01*
G01*
Y1330000D02*
G03*
X831005Y1330051I0J10000D01*
G01*
Y1329949D02*
G03*
X830000Y1330000I-1005J-9949D01*
G01*
Y230000D02*
G03*
X831005Y230051I0J10000D01*
G01*
X830000Y230000D02*
G03*
X831005Y230051I0J10000D01*
G01*
X655000Y2430000D02*
G03*
X662071Y2432929I0J10000D01*
G01*
X240000Y2430000D02*
G03*
X230000Y2420000I0J-10000D01*
G01*
X230000Y2440000D02*
G03*
X240000Y2430000I10000J0D01*
G01*
X240000Y2430000D02*
G03*
X230000Y2420000I0J-10000D01*
G01*
Y1340000D02*
G03*
X240000Y1330000I10000J0D01*
G01*
X230000Y1340000D02*
G03*
X240000Y1330000I10000J0D01*
G01*
Y1330000D02*
G03*
X230000Y1320000I0J-10000D01*
G01*
X240000Y1330000D02*
G03*
X230000Y1320000I0J-10000D01*
G01*
Y240000D02*
G03*
X240000Y230000I10000J0D01*
G01*
X230000Y240000D02*
G03*
X240000Y230000I10000J0D01*
G01*
X830000D01*
X1340943Y2378440D02*
X1821005Y2329949D01*
X831005Y2429949D02*
X1279960Y2384600D01*
X1830000Y1205000D02*
Y1280000D01*
Y810000D02*
Y1145000D01*
X1830000Y410000D02*
X1830000Y750000D01*
X230000Y240000D02*
Y250000D01*
X230000Y310000D02*
X230000Y750000D01*
X230000Y1350000D02*
X230000Y1310000D01*
Y1410000D02*
Y1850000D01*
Y1910000D02*
Y2350000D01*
X1325995Y280050D02*
X1821005Y330051D01*
X831005Y230051D02*
X1265111Y273900D01*
X1830000Y1375000D02*
Y1450000D01*
Y1510000D02*
Y1850000D01*
X810000Y1330000D02*
X920000D01*
X1331344Y1279410D02*
X1821005Y1229949D01*
X830504Y1330000D02*
X1269961Y1285610D01*
X1332854Y1380743D02*
X1821005Y1430051D01*
X831005Y1330051D02*
X1271050Y1374500D01*
X710000Y2560000D02*
X710000Y2705000D01*
Y2765000D02*
Y2825000D01*
X662071Y2432929D02*
X710000Y2480858D01*
X230000Y2795000D02*
X230000Y2825000D01*
X230000Y2430000D02*
X250000D01*
X310000D02*
X480000D01*
X540000D02*
X750000D01*
X1190000Y2765000D02*
Y2825000D01*
Y2560000D02*
Y2705000D01*
Y2440000D02*
Y2500000D01*
X810000Y2430000D02*
X1270000Y2430000D01*
X1670000Y2670000D02*
Y2780000D01*
X1619142Y2430000D02*
X1670000Y2480858D01*
Y2610000D01*
X1622071Y2832071D02*
X1670000Y2784142D01*
X1830000Y2410000D02*
Y2430000D01*
X1330000D02*
X1525000Y2430000D01*
X1830000Y2310000D02*
Y2350000D01*
X1795000Y2430000D02*
X1930000Y2430000D01*
X1585000Y2430000D02*
X1735000D01*
X310000Y1330000D02*
X750000D01*
X1200000Y2835000D02*
X1615000D01*
X1142071Y2832071D02*
X1187071Y2787071D01*
X1830000Y1910000D02*
Y2250000D01*
X1830000Y340000D02*
Y350000D01*
X1142071Y2432929D02*
X1187071Y2477929D01*
X720000Y2835000D02*
X1135000D01*
X710000Y2440000D02*
Y2500000D01*
X662071Y2832071D02*
X707071Y2787071D01*
X240000Y2835000D02*
X655000D01*
X230000Y2530000D02*
Y2735000D01*
X240000Y1330000D02*
X250000Y1330000D01*
X230000Y2470000D02*
X230000Y2410000D01*
X230000Y810000D02*
X230000Y1250000D01*
M02*
