M48
;Layer_Color=9474304
;FILE_FORMAT=4:4
METRIC,LZ
;TYPE=NON_PLATED
T24F00S00C2.0000
%
G90
G05
T24
G00X00434Y00276
M15
G01X00442
M16
G00X00518Y00276
M15
G01X00526
M16
G00X00862Y01383
M15
G01X0087
M16
G00X00699Y01374
M15
G01X00707
M16
G00X00615Y013735
M15
G01X00623
M16
G00X00515Y0137525
M15
G01X00523
M16
G00X00434Y01376
M15
G01X00442
M16
G00X004735Y0128
M15
G01X004655
M16
G00X00564Y0128
M15
G01X00556
M16
G00X00382Y0128
M15
G01X00374
M16
G00X003525Y01376
M15
G01X003605
M16
G00X004735Y0238
M15
G01X004655
M16
G00X005617Y0238
M15
G01X005537
M16
G00X006515Y0238
M15
G01X006435
M16
G00X003823Y0238
M15
G01X003743
M16
M17
M30
