G04 Layer_Color=65535*
%FSLAX44Y44*%
%MOMM*%
G71*
G01*
G75*
%ADD47C,0.5000*%
%ADD48C,0.3000*%
%ADD49C,0.2540*%
%ADD50C,1.0000*%
%ADD53C,0.2000*%
%ADD54C,0.2500*%
%ADD55C,0.4000*%
%ADD104R,0.8000X2.0000*%
%ADD108C,0.3048*%
%ADD109C,0.6000*%
%ADD110C,0.2032*%
%ADD111C,0.3500*%
%ADD112C,0.1270*%
%ADD113C,0.1524*%
%ADD114R,0.6500X0.2250*%
%ADD115R,0.2250X0.6500*%
%ADD116R,2.0000X0.8000*%
%ADD117R,1.6000X1.4000*%
%ADD118R,1.4000X1.6000*%
%ADD119R,0.2500X1.0000*%
%ADD120R,1.0000X0.2500*%
%ADD121R,0.8636X0.2250*%
%ADD122R,0.2250X0.8636*%
%ADD123R,0.7250X4.0000*%
%ADD124R,4.0000X0.7250*%
%ADD125R,3.2000X1.1000*%
%ADD126R,1.1000X3.2000*%
%ADD127C,0.4064*%
D47*
X240000Y2825000D02*
Y2440000D01*
X655000D01*
X700000Y2485000D02*
X655000Y2440000D01*
X700000Y2780000D02*
Y2485000D01*
X655000Y2825000D02*
X700000Y2780000D01*
X240000Y2825000D02*
X655000D01*
X720000D02*
Y2440000D01*
X1135000D01*
X1180000Y2485000D02*
X1135000Y2440000D01*
X1180000Y2780000D02*
Y2485000D01*
X1135000Y2825000D02*
X1180000Y2780000D01*
X720000Y2825000D02*
X1135000D01*
X1200000D02*
Y2440000D01*
X1615000D01*
X1660000Y2485000D02*
X1615000Y2440000D01*
X1660000Y2780000D02*
Y2485000D01*
X1615000Y2825000D02*
X1660000Y2780000D01*
X1200000Y2825000D02*
X1615000D01*
D48*
X491000Y1965000D02*
G03*
X491000Y1965000I-1000J0D01*
G01*
X1692766Y1633500D02*
G03*
X1692766Y1633500I-1016J0D01*
G01*
X1573600Y1189850D02*
G03*
X1573600Y1189850I-1500J0D01*
G01*
X380000Y548000D02*
X555000D01*
X380000Y383000D02*
Y548000D01*
Y383000D02*
X555000D01*
Y548000D01*
X779500Y833500D02*
Y1008500D01*
X614500D02*
X779500D01*
X614500Y833500D02*
Y1008500D01*
Y833500D02*
X779500D01*
X614500Y1019500D02*
Y1194500D01*
Y1019500D02*
X779500D01*
Y1194500D01*
X614500D02*
X779500D01*
X1093000Y952000D02*
Y1127000D01*
Y952000D02*
X1258000D01*
Y1127000D01*
X1093000D02*
X1258000D01*
X902000Y1074975D02*
Y1089970D01*
X909498D01*
X911997Y1087471D01*
Y1082473D01*
X909498Y1079974D01*
X902000D01*
X916995Y1074975D02*
X921993D01*
X919494D01*
Y1089970D01*
X916995Y1087471D01*
X929491Y1074975D02*
X934490D01*
X931990D01*
Y1089970D01*
X929491Y1087471D01*
X956982Y1084972D02*
X959481D01*
Y1082473D01*
X956982D01*
Y1084972D01*
Y1077474D02*
X959481D01*
Y1074975D01*
X956982D01*
Y1077474D01*
X984473Y1089970D02*
Y1074975D01*
X991971D01*
X994470Y1077474D01*
Y1079974D01*
X991971Y1082473D01*
X984473D01*
X991971D01*
X994470Y1084972D01*
Y1087471D01*
X991971Y1089970D01*
X984473D01*
X999468Y1074975D02*
Y1084972D01*
X1004467Y1089970D01*
X1009465Y1084972D01*
Y1074975D01*
Y1082473D01*
X999468D01*
X1014464Y1089970D02*
X1024460D01*
X1019462D01*
Y1074975D01*
X1029459D02*
X1034457D01*
X1031958D01*
Y1089970D01*
X1029459Y1087471D01*
X902000Y1049781D02*
Y1064776D01*
X909498D01*
X911997Y1062277D01*
Y1057279D01*
X909498Y1054779D01*
X902000D01*
X916995Y1049781D02*
X921993D01*
X919494D01*
Y1064776D01*
X916995Y1062277D01*
X939488Y1049781D02*
X929491D01*
X939488Y1059778D01*
Y1062277D01*
X936989Y1064776D01*
X931990D01*
X929491Y1062277D01*
X959481Y1059778D02*
X961981D01*
Y1057279D01*
X959481D01*
Y1059778D01*
Y1052280D02*
X961981D01*
Y1049781D01*
X959481D01*
Y1052280D01*
X986973Y1064776D02*
Y1049781D01*
X994470D01*
X996969Y1052280D01*
Y1054779D01*
X994470Y1057279D01*
X986973D01*
X994470D01*
X996969Y1059778D01*
Y1062277D01*
X994470Y1064776D01*
X986973D01*
X1001968Y1049781D02*
Y1059778D01*
X1006966Y1064776D01*
X1011964Y1059778D01*
Y1049781D01*
Y1057279D01*
X1001968D01*
X1016963Y1064776D02*
X1026960D01*
X1021961D01*
Y1049781D01*
X1041955D02*
X1031958D01*
X1041955Y1059778D01*
Y1062277D01*
X1039455Y1064776D01*
X1034457D01*
X1031958Y1062277D01*
X906998Y1024587D02*
X902000Y1029585D01*
Y1034584D01*
X906998Y1039582D01*
X914496Y1024587D02*
Y1034584D01*
X916995D01*
X919494Y1032084D01*
Y1024587D01*
Y1032084D01*
X921993Y1034584D01*
X924493Y1032084D01*
Y1024587D01*
X931990Y1034584D02*
X936989D01*
X939488Y1032084D01*
Y1024587D01*
X931990D01*
X929491Y1027086D01*
X931990Y1029585D01*
X939488D01*
X944486Y1034584D02*
X954483Y1024587D01*
X949485Y1029585D01*
X954483Y1034584D01*
X944486Y1024587D01*
X974476D02*
X979475D01*
X976976D01*
Y1039582D01*
X974476Y1037083D01*
X986973Y1039582D02*
X996969D01*
Y1037083D01*
X986973Y1027086D01*
Y1024587D01*
X1016963Y1039582D02*
Y1029585D01*
X1021961Y1024587D01*
X1026960Y1029585D01*
Y1039582D01*
X1031958Y1024587D02*
X1036956Y1029585D01*
Y1034584D01*
X1031958Y1039582D01*
D49*
X818000Y2131000D02*
G03*
X818000Y2131000I-17000J0D01*
G01*
X858000Y2220000D02*
G03*
X858000Y2220000I-17000J0D01*
G01*
X489500Y2105000D02*
G03*
X489500Y2105000I-17000J0D01*
G01*
X470500Y1981250D02*
G03*
X470500Y1981250I-17000J0D01*
G01*
X941500Y2265500D02*
G03*
X941500Y2265500I-17000J0D01*
G01*
X389250Y1944250D02*
G03*
X389250Y1944250I-17000J0D01*
G01*
X988500Y2265500D02*
G03*
X988500Y2265500I-17000J0D01*
G01*
X1323250Y1881000D02*
G03*
X1323250Y1881000I-17000J0D01*
G01*
X1281500Y1884000D02*
G03*
X1281500Y1884000I-17000J0D01*
G01*
X818000Y2220000D02*
G03*
X818000Y2220000I-17000J0D01*
G01*
X856000Y2156000D02*
G03*
X856000Y2156000I-17000J0D01*
G01*
X932500Y2163500D02*
G03*
X932500Y2163500I-17000J0D01*
G01*
X841000Y1860000D02*
G03*
X841000Y1860000I-17000J0D01*
G01*
X939000Y1860500D02*
G03*
X939000Y1860500I-17000J0D01*
G01*
X880750Y1859750D02*
G03*
X880750Y1859750I-17000J0D01*
G01*
X939500Y1811000D02*
G03*
X939500Y1811000I-17000J0D01*
G01*
X985750Y1853250D02*
G03*
X985750Y1853250I-17000J0D01*
G01*
X795750Y1771750D02*
G03*
X795750Y1771750I-17000J0D01*
G01*
Y1811500D02*
G03*
X795750Y1811500I-17000J0D01*
G01*
X794250Y1851750D02*
G03*
X794250Y1851750I-17000J0D01*
G01*
X1431000Y1926250D02*
G03*
X1431000Y1926250I-17000J0D01*
G01*
X1613250Y2088250D02*
G03*
X1613250Y2088250I-17000J0D01*
G01*
X973000Y1394500D02*
G03*
X973000Y1394500I-17000J0D01*
G01*
X1089250Y1695750D02*
G03*
X1089250Y1695750I-17000J0D01*
G01*
X1130250Y1696000D02*
G03*
X1130250Y1696000I-17000J0D01*
G01*
X1172750Y1696250D02*
G03*
X1172750Y1696250I-17000J0D01*
G01*
X894000Y1587000D02*
G03*
X894000Y1587000I-17000J0D01*
G01*
X693500Y1558000D02*
X767500D01*
X693500D02*
Y1698000D01*
X852500Y1558000D02*
Y1590000D01*
X825500Y1558000D02*
X852500D01*
X693500Y1698000D02*
X767500D01*
X825500D02*
X852500D01*
Y1590000D02*
Y1698000D01*
X708250Y376250D02*
G03*
X708250Y376250I-17000J0D01*
G01*
X394500Y1128250D02*
G03*
X394500Y1128250I-17000J0D01*
G01*
X832000Y835000D02*
G03*
X832000Y835000I-17000J0D01*
G01*
X711000Y1247000D02*
G03*
X711000Y1247000I-17000J0D01*
G01*
X1257000Y798000D02*
G03*
X1257000Y798000I-17000J0D01*
G01*
X819500Y1162500D02*
G03*
X819500Y1162500I-17000J0D01*
G01*
X1216000Y1215000D02*
G03*
X1216000Y1215000I-17000J0D01*
G01*
X695500Y465750D02*
G03*
X695500Y465750I-17000J0D01*
G01*
X598000Y544000D02*
G03*
X598000Y544000I-17000J0D01*
G01*
X528000Y971000D02*
G03*
X528000Y971000I-17000J0D01*
G01*
X692000Y799000D02*
G03*
X692000Y799000I-17000J0D01*
G01*
X695500Y736250D02*
G03*
X695500Y736250I-17000J0D01*
G01*
X1504250Y1073110D02*
X1560000D01*
X1503750Y1005610D02*
X1560000D01*
Y1073110D01*
X1513000Y922250D02*
X1568750D01*
X1513000Y989750D02*
X1569250D01*
X1513000Y922250D02*
Y989750D01*
X1697052Y723093D02*
X1707209Y723132D01*
X1712307Y718073D01*
X1707248Y712975D01*
X1697091Y712936D01*
X1704709Y712966D01*
X1704670Y723122D01*
X1707267Y707897D02*
X1697130Y702779D01*
X1707307Y697740D01*
X1697170Y692623D02*
X1697189Y687545D01*
X1697179Y690084D01*
X1707336Y690123D01*
X1707326Y692662D01*
X1697228Y677388D02*
X1697248Y672310D01*
X1699797Y669780D01*
X1704875Y669800D01*
X1707405Y672349D01*
X1707385Y677427D01*
X1704836Y679957D01*
X1699758Y679937D01*
X1697228Y677388D01*
X1697277Y664692D02*
X1707434Y664731D01*
X1707463Y657114D01*
X1704934Y654565D01*
X1697316Y654536D01*
X1697336Y649457D02*
X1697356Y644379D01*
X1697346Y646918D01*
X1707503Y646957D01*
X1707493Y649496D01*
X1707581Y626644D02*
X1707552Y634261D01*
X1705003Y636791D01*
X1699924Y636771D01*
X1697395Y634222D01*
X1697424Y626605D01*
X1697444Y621526D02*
X1697473Y613909D01*
X1700022Y611380D01*
X1702552Y613928D01*
X1702532Y619007D01*
X1705061Y621556D01*
X1707610Y619026D01*
X1707640Y611409D01*
X1697571Y588517D02*
X1697591Y583439D01*
X1700140Y580910D01*
X1705218Y580929D01*
X1707747Y583478D01*
X1707728Y588557D01*
X1705179Y591086D01*
X1700101Y591066D01*
X1697571Y588517D01*
X1697630Y573282D02*
X1710326Y573331D01*
X1705247Y573312D01*
X1705238Y575851D01*
X1705257Y570773D01*
X1705247Y573312D01*
X1710326Y573331D01*
X1712875Y570802D01*
X1697728Y547891D02*
X1712963Y547950D01*
X1712992Y540332D01*
X1710463Y537783D01*
X1705385Y537763D01*
X1702836Y540293D01*
X1702806Y547910D01*
X1702826Y542832D02*
X1697767Y537734D01*
X1713051Y525097D02*
X1713031Y530175D01*
X1710482Y532705D01*
X1700326Y532666D01*
X1697796Y530117D01*
X1697816Y525038D01*
X1700365Y522509D01*
X1710522Y522548D01*
X1713051Y525097D01*
X1697845Y517421D02*
X1713080Y517480D01*
X1713110Y509862D01*
X1710580Y507313D01*
X1705502Y507294D01*
X1702953Y509823D01*
X1702924Y517440D01*
X1702943Y512362D02*
X1697885Y507264D01*
X1713169Y494627D02*
X1713149Y499706D01*
X1710600Y502235D01*
X1700443Y502196D01*
X1697914Y499647D01*
X1697934Y494568D01*
X1700483Y492039D01*
X1710639Y492078D01*
X1713169Y494627D01*
X1672674Y722999D02*
X1687909Y723058D01*
X1687939Y715440D01*
X1685409Y712891D01*
X1680331Y712871D01*
X1677782Y715401D01*
X1677753Y723018D01*
X1672743Y705225D02*
X1672762Y700146D01*
X1675311Y697617D01*
X1680390Y697637D01*
X1682919Y700185D01*
X1682899Y705264D01*
X1680350Y707793D01*
X1675272Y707774D01*
X1672743Y705225D01*
X1682948Y692568D02*
X1675331Y692539D01*
X1672802Y689990D01*
X1675350Y687460D01*
X1672821Y684911D01*
X1675370Y682382D01*
X1682988Y682411D01*
X1672880Y669676D02*
X1672860Y674755D01*
X1675390Y677304D01*
X1680468Y677323D01*
X1683017Y674794D01*
X1683036Y669716D01*
X1680507Y667167D01*
X1677968Y667157D01*
X1677929Y677314D01*
X1683066Y662098D02*
X1672909Y662059D01*
X1677988Y662078D01*
X1680536Y659549D01*
X1683085Y657020D01*
X1683095Y654481D01*
X1688262Y631648D02*
X1673027Y631589D01*
X1673056Y623971D01*
X1675605Y621442D01*
X1678144Y621452D01*
X1680683Y621462D01*
X1683213Y624011D01*
X1683183Y631628D01*
X1673095Y613815D02*
X1673115Y608737D01*
X1675664Y606207D01*
X1680742Y606227D01*
X1683272Y608776D01*
X1683252Y613854D01*
X1680703Y616384D01*
X1675625Y616364D01*
X1673095Y613815D01*
X1683311Y598619D02*
X1683330Y593541D01*
X1680801Y590992D01*
X1673183Y590962D01*
X1673154Y598580D01*
X1675683Y601129D01*
X1678232Y598600D01*
X1678262Y590982D01*
X1683360Y585923D02*
X1673203Y585884D01*
X1678281Y585904D01*
X1680830Y583374D01*
X1683379Y580845D01*
X1683389Y578306D01*
X1688536Y560551D02*
X1673301Y560493D01*
X1673272Y568110D01*
X1675801Y570659D01*
X1680879Y570679D01*
X1683428Y568149D01*
X1683458Y560532D01*
X1683536Y540219D02*
X1673399Y535101D01*
X1683575Y530062D01*
X1673438Y524944D02*
X1673458Y519866D01*
X1673448Y522405D01*
X1688683Y522464D01*
X1686134Y524993D01*
X1673487Y512248D02*
X1676026Y512258D01*
X1676036Y509719D01*
X1673497Y509709D01*
X1673487Y512248D01*
X1686232Y499602D02*
X1688781Y497072D01*
X1688801Y491994D01*
X1686271Y489445D01*
X1676115Y489406D01*
X1673566Y491935D01*
X1673546Y497014D01*
X1676075Y499562D01*
X1686232Y499602D01*
X1663531Y722963D02*
X1648296Y722905D01*
X1648326Y715287D01*
X1650875Y712758D01*
X1661031Y712797D01*
X1663561Y715346D01*
X1663531Y722963D01*
X1648384Y700052D02*
X1648365Y705131D01*
X1650894Y707680D01*
X1655972Y707699D01*
X1658522Y705170D01*
X1658541Y700091D01*
X1656012Y697542D01*
X1653473Y697533D01*
X1653433Y707689D01*
X1648414Y692435D02*
X1648443Y684817D01*
X1650992Y682288D01*
X1653522Y684837D01*
X1653502Y689915D01*
X1656031Y692464D01*
X1658580Y689935D01*
X1658610Y682317D01*
X1648473Y677200D02*
X1648492Y672122D01*
X1648482Y674661D01*
X1658639Y674700D01*
X1658629Y677239D01*
X1643463Y659406D02*
X1643473Y656867D01*
X1646022Y654338D01*
X1658717Y654387D01*
X1658688Y662004D01*
X1656139Y664533D01*
X1651061Y664514D01*
X1648531Y661965D01*
X1648561Y654347D01*
X1648580Y649269D02*
X1658737Y649308D01*
X1658766Y641691D01*
X1656237Y639142D01*
X1648620Y639113D01*
X1648669Y626417D02*
X1648649Y631495D01*
X1651178Y634044D01*
X1656257Y634064D01*
X1658806Y631534D01*
X1658825Y626456D01*
X1656296Y623907D01*
X1653757Y623897D01*
X1653717Y634054D01*
X1663972Y608701D02*
X1648737Y608643D01*
X1648708Y616260D01*
X1651237Y618809D01*
X1656315Y618829D01*
X1658864Y616299D01*
X1658894Y608682D01*
X1664050Y588388D02*
X1648815Y588329D01*
X1648845Y580712D01*
X1651394Y578182D01*
X1653933Y578192D01*
X1656472Y578202D01*
X1659001Y580751D01*
X1658972Y588368D01*
X1659031Y573134D02*
X1651413Y573104D01*
X1648884Y570555D01*
X1648913Y562938D01*
X1646374Y562928D01*
X1643825Y565457D01*
X1643815Y567996D01*
X1648913Y562938D02*
X1659070Y562977D01*
X1648992Y542624D02*
X1664227Y542683D01*
X1659168Y537585D01*
X1664266Y532527D01*
X1649031Y532468D01*
X1649050Y527389D02*
X1649070Y522311D01*
X1649060Y524850D01*
X1659217Y524889D01*
X1659207Y527429D01*
X1659295Y504576D02*
X1659266Y512194D01*
X1656717Y514723D01*
X1651639Y514703D01*
X1649109Y512155D01*
X1649139Y504537D01*
X1664393Y499518D02*
X1649158Y499459D01*
X1656776Y499488D01*
X1659325Y496959D01*
X1659344Y491880D01*
X1656815Y489331D01*
X1649197Y489302D01*
X1659383Y481724D02*
X1659403Y476646D01*
X1656874Y474096D01*
X1649256Y474067D01*
X1649227Y481685D01*
X1651756Y484234D01*
X1654305Y481704D01*
X1654335Y474087D01*
X1649305Y461371D02*
X1649285Y466450D01*
X1651815Y468999D01*
X1656893Y469018D01*
X1659442Y466489D01*
X1659462Y461410D01*
X1656932Y458862D01*
X1654393Y458852D01*
X1654354Y469008D01*
X1649335Y453754D02*
X1649354Y448675D01*
X1649344Y451215D01*
X1664579Y451273D01*
X1664570Y453813D01*
X1649442Y425823D02*
X1664677Y425882D01*
X1664707Y418264D01*
X1662177Y415715D01*
X1657099Y415696D01*
X1654550Y418225D01*
X1654521Y425843D01*
X1649530Y402971D02*
X1649511Y408049D01*
X1652040Y410598D01*
X1657119Y410617D01*
X1659667Y408088D01*
X1659687Y403010D01*
X1657158Y400461D01*
X1654619Y400451D01*
X1654579Y410608D01*
X1649560Y395353D02*
X1649579Y390275D01*
X1649570Y392814D01*
X1664805Y392873D01*
X1664795Y395412D01*
X1649609Y382657D02*
X1649628Y377579D01*
X1649619Y380118D01*
X1664854Y380177D01*
X1664844Y382716D01*
X1649687Y362344D02*
X1649668Y367422D01*
X1652197Y369971D01*
X1657275Y369991D01*
X1659824Y367462D01*
X1659844Y362383D01*
X1657314Y359834D01*
X1654775Y359824D01*
X1654736Y369981D01*
X1662422Y352236D02*
X1659883Y352227D01*
X1659873Y354766D01*
X1659893Y349688D01*
X1659883Y352227D01*
X1652265Y352197D01*
X1649736Y349648D01*
X1618879Y712635D02*
X1621409Y715183D01*
X1618860Y717713D01*
X1618850Y720252D01*
X1621379Y722801D01*
X1623918Y722811D01*
X1626467Y720281D01*
X1628997Y722830D01*
X1631536Y722840D01*
X1634085Y720311D01*
X1634095Y717772D01*
X1631565Y715223D01*
X1629026Y715213D01*
X1626477Y717742D01*
X1623948Y715193D01*
X1621409Y715183D01*
X1626497Y712664D02*
X1623948Y715193D01*
X1626467Y720281D02*
X1626477Y717742D01*
X1631663Y689831D02*
X1629124Y689821D01*
X1629114Y692360D01*
X1629134Y687282D01*
X1629124Y689821D01*
X1621507Y689792D01*
X1618977Y687243D01*
X1619036Y672008D02*
X1619016Y677086D01*
X1621546Y679635D01*
X1626624Y679655D01*
X1629173Y677125D01*
X1629193Y672047D01*
X1626663Y669498D01*
X1624124Y669488D01*
X1624085Y679645D01*
X1629232Y661890D02*
X1629251Y656812D01*
X1626722Y654263D01*
X1619104Y654234D01*
X1619075Y661851D01*
X1621604Y664400D01*
X1624153Y661871D01*
X1624183Y654253D01*
X1619124Y649156D02*
X1629281Y649195D01*
X1629291Y646656D01*
X1626761Y644107D01*
X1619144Y644077D01*
X1626761Y644107D01*
X1629310Y641577D01*
X1626781Y639028D01*
X1619163Y638999D01*
X1634477Y618744D02*
X1619242Y618686D01*
X1619271Y611068D01*
X1621820Y608539D01*
X1631977Y608578D01*
X1634506Y611127D01*
X1634477Y618744D01*
X1634535Y603509D02*
X1621840Y603460D01*
X1619310Y600911D01*
X1619330Y595833D01*
X1621879Y593304D01*
X1634575Y593353D01*
X1632094Y578108D02*
X1634624Y580657D01*
X1634604Y585735D01*
X1632055Y588265D01*
X1629516Y588255D01*
X1626987Y585706D01*
X1627006Y580628D01*
X1624477Y578079D01*
X1621938Y578069D01*
X1619389Y580598D01*
X1619369Y585676D01*
X1621898Y588225D01*
X1634653Y573040D02*
X1634692Y562883D01*
X1634673Y567961D01*
X1619438Y567902D01*
X1634751Y547648D02*
X1634712Y557804D01*
X1619477Y557746D01*
X1619516Y547589D01*
X1627094Y557775D02*
X1627114Y552697D01*
X1619536Y542511D02*
X1634771Y542570D01*
X1634800Y534952D01*
X1632271Y532403D01*
X1627192Y532383D01*
X1624643Y534913D01*
X1624614Y542530D01*
X1624633Y537452D02*
X1619575Y532354D01*
X1609736Y712599D02*
X1609697Y722756D01*
X1594462Y722697D01*
X1594501Y712540D01*
X1602080Y722727D02*
X1602099Y717648D01*
X1594521Y707462D02*
X1609756Y707521D01*
X1609785Y699903D01*
X1607256Y697354D01*
X1602178Y697335D01*
X1599629Y699864D01*
X1599599Y707482D01*
X1609854Y682129D02*
X1609815Y692286D01*
X1602197Y692257D01*
X1602217Y687178D01*
X1602197Y692257D01*
X1594580Y692227D01*
X1609873Y677051D02*
X1594639Y676992D01*
X1594678Y666835D01*
X1592168Y659208D02*
X1594717Y656679D01*
X1597256Y656689D01*
X1597246Y659228D01*
X1594707Y659218D01*
X1594717Y656679D01*
X1592168Y659208D01*
X1589619Y661738D01*
X1594815Y631287D02*
X1594844Y623670D01*
X1597393Y621141D01*
X1599922Y623689D01*
X1599903Y628768D01*
X1602432Y631317D01*
X1604981Y628787D01*
X1605011Y621170D01*
X1589795Y616033D02*
X1605030Y616092D01*
X1605060Y608474D01*
X1602530Y605925D01*
X1597452Y605905D01*
X1594903Y608435D01*
X1594874Y616052D01*
X1605089Y600857D02*
X1594932Y600817D01*
X1600011Y600837D01*
X1602560Y598308D01*
X1605108Y595778D01*
X1605118Y593239D01*
X1594991Y585582D02*
X1595011Y580504D01*
X1595001Y583043D01*
X1605157Y583083D01*
X1605148Y585622D01*
X1595040Y572887D02*
X1605197Y572926D01*
X1605226Y565308D01*
X1602697Y562759D01*
X1595079Y562730D01*
X1590040Y552554D02*
X1590050Y550015D01*
X1592599Y547485D01*
X1605295Y547534D01*
X1605265Y555152D01*
X1602716Y557681D01*
X1597638Y557662D01*
X1595109Y555112D01*
X1595138Y547495D01*
X1595255Y517025D02*
X1595216Y527182D01*
X1605412Y517064D01*
X1607951Y517074D01*
X1610481Y519623D01*
X1610461Y524701D01*
X1607912Y527231D01*
X1607971Y511996D02*
X1610520Y509466D01*
X1610540Y504388D01*
X1608010Y501839D01*
X1597854Y501800D01*
X1595305Y504329D01*
X1595285Y509408D01*
X1597814Y511957D01*
X1607971Y511996D01*
X1595334Y496712D02*
X1595354Y491634D01*
X1595344Y494173D01*
X1610579Y494231D01*
X1608030Y496761D01*
X1610618Y484075D02*
X1610657Y473918D01*
X1608118Y473908D01*
X1597922Y484026D01*
X1595383Y484016D01*
X1565006Y722583D02*
X1580241Y722642D01*
X1575182Y717544D01*
X1580280Y712486D01*
X1565045Y712427D01*
X1575231Y704848D02*
X1575251Y699770D01*
X1572721Y697221D01*
X1565104Y697192D01*
X1565074Y704809D01*
X1567604Y707358D01*
X1570153Y704829D01*
X1570182Y697212D01*
X1565123Y692114D02*
X1575280Y692153D01*
X1575309Y684535D01*
X1572780Y681986D01*
X1565163Y681957D01*
X1575339Y676918D02*
X1567721Y676888D01*
X1565192Y674339D01*
X1565221Y666722D01*
X1575378Y666761D01*
X1565251Y659105D02*
X1577947Y659153D01*
X1572868Y659134D01*
X1572858Y661673D01*
X1572878Y656595D01*
X1572868Y659134D01*
X1577947Y659153D01*
X1580496Y656624D01*
X1575456Y646448D02*
X1575476Y641369D01*
X1572947Y638821D01*
X1565329Y638791D01*
X1565300Y646409D01*
X1567829Y648958D01*
X1570378Y646428D01*
X1570408Y638811D01*
X1575545Y623595D02*
X1575515Y631213D01*
X1572966Y633742D01*
X1567888Y633723D01*
X1565359Y631174D01*
X1565388Y623556D01*
X1578113Y615988D02*
X1575574Y615978D01*
X1575564Y618517D01*
X1575584Y613439D01*
X1575574Y615978D01*
X1567957Y615949D01*
X1565427Y613400D01*
X1575613Y605821D02*
X1567996Y605792D01*
X1565466Y603243D01*
X1565496Y595625D01*
X1575652Y595665D01*
X1575672Y590586D02*
X1565515Y590547D01*
X1570594Y590567D01*
X1573143Y588037D01*
X1575692Y585508D01*
X1575701Y582969D01*
X1565603Y567695D02*
X1565584Y572773D01*
X1568113Y575322D01*
X1573192Y575342D01*
X1575741Y572812D01*
X1575760Y567734D01*
X1573231Y565185D01*
X1570692Y565175D01*
X1570652Y575332D01*
X1580907Y549979D02*
X1565672Y549921D01*
X1565643Y557538D01*
X1568172Y560087D01*
X1573250Y560107D01*
X1575799Y557577D01*
X1575829Y549960D01*
X1580985Y529666D02*
X1565750Y529607D01*
X1565780Y521990D01*
X1568329Y519460D01*
X1570868Y519470D01*
X1573407Y519480D01*
X1575936Y522029D01*
X1575907Y529646D01*
X1575966Y514412D02*
X1568348Y514382D01*
X1565819Y511833D01*
X1565848Y504216D01*
X1563309Y504206D01*
X1560760Y506735D01*
X1560750Y509274D01*
X1565848Y504216D02*
X1576005Y504255D01*
X1581162Y483961D02*
X1565927Y483903D01*
X1571024Y478844D01*
X1565966Y473746D01*
X1581201Y473805D01*
X1576142Y468707D02*
X1568525Y468677D01*
X1565995Y466128D01*
X1566025Y458511D01*
X1576181Y458550D01*
X1576201Y453472D02*
X1566044Y453433D01*
X1571122Y453452D01*
X1573672Y450923D01*
X1576220Y448393D01*
X1576230Y445854D01*
X1578808Y435707D02*
X1576269Y435698D01*
X1576260Y438237D01*
X1576279Y433158D01*
X1576269Y435698D01*
X1568652Y435668D01*
X1566122Y433119D01*
X1581387Y425561D02*
X1566152Y425502D01*
X1573769Y425531D01*
X1576318Y423002D01*
X1576338Y417924D01*
X1573809Y415374D01*
X1566191Y415345D01*
X1550824Y712372D02*
X1550785Y722529D01*
X1535550Y722470D01*
X1535589Y712313D01*
X1543167Y722499D02*
X1543187Y717421D01*
X1535609Y707235D02*
X1535628Y702157D01*
X1535618Y704696D01*
X1550853Y704754D01*
X1550844Y707294D01*
X1535687Y686922D02*
X1535667Y692000D01*
X1538197Y694549D01*
X1543275Y694568D01*
X1545824Y692039D01*
X1545844Y686961D01*
X1543314Y684412D01*
X1540775Y684402D01*
X1540736Y694559D01*
X1535716Y679304D02*
X1550951Y679363D01*
X1540795Y679324D02*
X1545902Y671726D01*
X1540795Y679324D02*
X1535746Y671687D01*
X1548481Y661579D02*
X1545941Y661569D01*
X1545932Y664108D01*
X1545951Y659030D01*
X1545941Y661569D01*
X1538324Y661540D01*
X1535795Y658991D01*
X1545981Y651413D02*
X1535824Y651373D01*
X1540902Y651393D01*
X1543451Y648864D01*
X1546000Y646334D01*
X1546010Y643795D01*
X1535893Y633599D02*
X1535912Y628521D01*
X1538461Y625992D01*
X1543539Y626011D01*
X1546069Y628560D01*
X1546049Y633638D01*
X1543500Y636168D01*
X1538422Y636148D01*
X1535893Y633599D01*
X1535941Y620904D02*
X1546098Y620943D01*
X1546128Y613325D01*
X1543598Y610776D01*
X1535981Y610747D01*
X1536000Y605668D02*
X1536020Y600590D01*
X1536010Y603129D01*
X1546167Y603168D01*
X1546157Y605708D01*
X1536049Y592973D02*
X1551284Y593032D01*
X1541128Y592992D02*
X1546235Y585394D01*
X1541128Y592992D02*
X1536079Y585355D01*
X574000Y2631000D02*
Y2547000D01*
X535000Y2631000D02*
X574000D01*
X535000D02*
Y2547000D01*
X574000D01*
X1054000Y2631000D02*
Y2547000D01*
X1015000Y2631000D02*
X1054000D01*
X1015000D02*
Y2547000D01*
X1054000D01*
X1534000Y2631000D02*
Y2547000D01*
X1495000Y2631000D02*
X1534000D01*
X1495000D02*
Y2547000D01*
X1534000D01*
D50*
X773000Y1217329D02*
X799658D01*
X786329Y1230658D02*
Y1204000D01*
X773000Y804829D02*
X799658D01*
X786329Y818158D02*
Y791500D01*
X793000Y1012994D02*
X819658D01*
D53*
X380000Y2192000D02*
Y2257000D01*
Y2192000D02*
X450000D01*
X380000Y2257000D02*
X450000D01*
Y2192000D02*
Y2257000D01*
X513000Y2217000D02*
X516500D01*
X494500D02*
X498000D01*
X494500Y2211500D02*
Y2217000D01*
X516500Y2211500D02*
Y2217000D01*
X859000Y2334250D02*
Y2337750D01*
Y2315750D02*
Y2319250D01*
Y2315750D02*
X864500D01*
X859000Y2337750D02*
X864500D01*
X859750Y2292250D02*
Y2295750D01*
Y2273750D02*
Y2277250D01*
Y2273750D02*
X865250D01*
X859750Y2295750D02*
X865250D01*
X489750Y1482500D02*
Y1486000D01*
Y1501000D02*
Y1504500D01*
X484250D02*
X489750D01*
X484250Y1482500D02*
X489750D01*
X779500Y1443250D02*
Y1446750D01*
Y1424750D02*
Y1428250D01*
Y1424750D02*
X785000D01*
X779500Y1446750D02*
X785000D01*
X718254Y1883250D02*
X751934D01*
X718254Y1962250D02*
X751934D01*
Y1883250D02*
Y1962250D01*
X718254Y1883250D02*
Y1962250D01*
X752000Y2169000D02*
Y2206000D01*
X701000Y2169000D02*
Y2206000D01*
X752000D01*
X701000Y2169000D02*
X752000D01*
X610500Y2164000D02*
Y2201000D01*
X559500Y2164000D02*
Y2201000D01*
X610500D01*
X559500Y2164000D02*
X610500D01*
X346000Y2167500D02*
Y2198750D01*
X296000D02*
X346000D01*
X296000Y2167500D02*
Y2198750D01*
Y2167500D02*
X346000D01*
X1674372Y1638250D02*
X1690600D01*
X1674372Y1662250D02*
X1690600D01*
X979750Y1963750D02*
Y2088750D01*
X1104750Y1963750D02*
Y2088750D01*
X979750Y1963750D02*
X1104750D01*
X979750Y2088750D02*
X1104750D01*
X1282750Y1684247D02*
Y1675916D01*
X1284416Y1674250D01*
X1287748D01*
X1289415Y1675916D01*
Y1684247D01*
X1299411Y1674250D02*
X1292747D01*
X1299411Y1680914D01*
Y1682581D01*
X1297745Y1684247D01*
X1294413D01*
X1292747Y1682581D01*
X1309408Y1684247D02*
X1302744D01*
Y1679248D01*
X1306076Y1680914D01*
X1307742D01*
X1309408Y1679248D01*
Y1675916D01*
X1307742Y1674250D01*
X1304410D01*
X1302744Y1675916D01*
X1737003Y1640000D02*
X1745334D01*
X1747000Y1641666D01*
Y1644998D01*
X1745334Y1646664D01*
X1737003D01*
X1747000Y1656661D02*
Y1649997D01*
X1740336Y1656661D01*
X1738669D01*
X1737003Y1654995D01*
Y1651663D01*
X1738669Y1649997D01*
X1747000Y1664992D02*
X1737003D01*
X1742002Y1659994D01*
Y1666658D01*
X1428250Y1698747D02*
Y1690416D01*
X1429916Y1688750D01*
X1433248D01*
X1434915Y1690416D01*
Y1698747D01*
X1444911Y1688750D02*
X1438247D01*
X1444911Y1695414D01*
Y1697081D01*
X1443245Y1698747D01*
X1439913D01*
X1438247Y1697081D01*
X1448244D02*
X1449910Y1698747D01*
X1453242D01*
X1454908Y1697081D01*
Y1695414D01*
X1453242Y1693748D01*
X1451576D01*
X1453242D01*
X1454908Y1692082D01*
Y1690416D01*
X1453242Y1688750D01*
X1449910D01*
X1448244Y1690416D01*
X815750Y1452250D02*
X805753D01*
Y1457248D01*
X807419Y1458914D01*
X810752D01*
X812418Y1457248D01*
Y1452250D01*
Y1455582D02*
X815750Y1458914D01*
X807419Y1462247D02*
X805753Y1463913D01*
Y1467245D01*
X807419Y1468911D01*
X809085D01*
X810752Y1467245D01*
X812418Y1468911D01*
X814084D01*
X815750Y1467245D01*
Y1463913D01*
X814084Y1462247D01*
X812418D01*
X810752Y1463913D01*
X809085Y1462247D01*
X807419D01*
X810752Y1463913D02*
Y1467245D01*
X814084Y1472244D02*
X815750Y1473910D01*
Y1477242D01*
X814084Y1478908D01*
X807419D01*
X805753Y1477242D01*
Y1473910D01*
X807419Y1472244D01*
X809085D01*
X810752Y1473910D01*
Y1478908D01*
X758000Y1456500D02*
X748003D01*
Y1461498D01*
X749669Y1463165D01*
X753002D01*
X754668Y1461498D01*
Y1456500D01*
Y1459832D02*
X758000Y1463165D01*
X749669Y1466497D02*
X748003Y1468163D01*
Y1471495D01*
X749669Y1473161D01*
X751336D01*
X753002Y1471495D01*
X754668Y1473161D01*
X756334D01*
X758000Y1471495D01*
Y1468163D01*
X756334Y1466497D01*
X754668D01*
X753002Y1468163D01*
X751336Y1466497D01*
X749669D01*
X753002Y1468163D02*
Y1471495D01*
X748003Y1476494D02*
Y1483158D01*
X749669D01*
X756334Y1476494D01*
X758000D01*
X658000Y1532500D02*
X648003D01*
Y1537498D01*
X649669Y1539164D01*
X653002D01*
X654668Y1537498D01*
Y1532500D01*
Y1535832D02*
X658000Y1539164D01*
X649669Y1542497D02*
X648003Y1544163D01*
Y1547495D01*
X649669Y1549161D01*
X651336D01*
X653002Y1547495D01*
X654668Y1549161D01*
X656334D01*
X658000Y1547495D01*
Y1544163D01*
X656334Y1542497D01*
X654668D01*
X653002Y1544163D01*
X651336Y1542497D01*
X649669D01*
X653002Y1544163D02*
Y1547495D01*
X648003Y1559158D02*
X649669Y1555826D01*
X653002Y1552494D01*
X656334D01*
X658000Y1554160D01*
Y1557492D01*
X656334Y1559158D01*
X654668D01*
X653002Y1557492D01*
Y1552494D01*
X635750Y1531250D02*
X625753D01*
Y1536248D01*
X627419Y1537914D01*
X630752D01*
X632418Y1536248D01*
Y1531250D01*
Y1534582D02*
X635750Y1537914D01*
X627419Y1541247D02*
X625753Y1542913D01*
Y1546245D01*
X627419Y1547911D01*
X629086D01*
X630752Y1546245D01*
X632418Y1547911D01*
X634084D01*
X635750Y1546245D01*
Y1542913D01*
X634084Y1541247D01*
X632418D01*
X630752Y1542913D01*
X629086Y1541247D01*
X627419D01*
X630752Y1542913D02*
Y1546245D01*
X625753Y1557908D02*
Y1551244D01*
X630752D01*
X629086Y1554576D01*
Y1556242D01*
X630752Y1557908D01*
X634084D01*
X635750Y1556242D01*
Y1552910D01*
X634084Y1551244D01*
X1456000Y1560000D02*
Y1569997D01*
X1460998D01*
X1462664Y1568331D01*
Y1564998D01*
X1460998Y1563332D01*
X1456000D01*
X1459332D02*
X1462664Y1560000D01*
X1465997Y1568331D02*
X1467663Y1569997D01*
X1470995D01*
X1472661Y1568331D01*
Y1566664D01*
X1470995Y1564998D01*
X1472661Y1563332D01*
Y1561666D01*
X1470995Y1560000D01*
X1467663D01*
X1465997Y1561666D01*
Y1563332D01*
X1467663Y1564998D01*
X1465997Y1566664D01*
Y1568331D01*
X1467663Y1564998D02*
X1470995D01*
X1480992Y1560000D02*
Y1569997D01*
X1475993Y1564998D01*
X1482658D01*
X1095250Y1575500D02*
Y1585497D01*
X1100248D01*
X1101915Y1583831D01*
Y1580498D01*
X1100248Y1578832D01*
X1095250D01*
X1098582D02*
X1101915Y1575500D01*
X1105247Y1583831D02*
X1106913Y1585497D01*
X1110245D01*
X1111911Y1583831D01*
Y1582164D01*
X1110245Y1580498D01*
X1111911Y1578832D01*
Y1577166D01*
X1110245Y1575500D01*
X1106913D01*
X1105247Y1577166D01*
Y1578832D01*
X1106913Y1580498D01*
X1105247Y1582164D01*
Y1583831D01*
X1106913Y1580498D02*
X1110245D01*
X1115244Y1583831D02*
X1116910Y1585497D01*
X1120242D01*
X1121908Y1583831D01*
Y1582164D01*
X1120242Y1580498D01*
X1118576D01*
X1120242D01*
X1121908Y1578832D01*
Y1577166D01*
X1120242Y1575500D01*
X1116910D01*
X1115244Y1577166D01*
X784250Y1494750D02*
X774253D01*
Y1499748D01*
X775919Y1501414D01*
X779252D01*
X780918Y1499748D01*
Y1494750D01*
Y1498082D02*
X784250Y1501414D01*
X774253Y1511411D02*
X775919Y1508079D01*
X779252Y1504747D01*
X782584D01*
X784250Y1506413D01*
Y1509745D01*
X782584Y1511411D01*
X780918D01*
X779252Y1509745D01*
Y1504747D01*
X775919Y1514744D02*
X774253Y1516410D01*
Y1519742D01*
X775919Y1521408D01*
X777586D01*
X779252Y1519742D01*
X780918Y1521408D01*
X782584D01*
X784250Y1519742D01*
Y1516410D01*
X782584Y1514744D01*
X780918D01*
X779252Y1516410D01*
X777586Y1514744D01*
X775919D01*
X779252Y1516410D02*
Y1519742D01*
X905000Y1362000D02*
X895003D01*
Y1366998D01*
X896669Y1368665D01*
X900002D01*
X901668Y1366998D01*
Y1362000D01*
Y1365332D02*
X905000Y1368665D01*
X895003Y1378661D02*
X896669Y1375329D01*
X900002Y1371997D01*
X903334D01*
X905000Y1373663D01*
Y1376995D01*
X903334Y1378661D01*
X901668D01*
X900002Y1376995D01*
Y1371997D01*
X895003Y1381994D02*
Y1388658D01*
X896669D01*
X903334Y1381994D01*
X905000D01*
X868000Y1549750D02*
Y1559747D01*
X872998D01*
X874665Y1558081D01*
Y1554748D01*
X872998Y1553082D01*
X868000D01*
X871332D02*
X874665Y1549750D01*
X884661Y1559747D02*
X881329Y1558081D01*
X877997Y1554748D01*
Y1551416D01*
X879663Y1549750D01*
X882995D01*
X884661Y1551416D01*
Y1553082D01*
X882995Y1554748D01*
X877997D01*
X894658Y1559747D02*
X891326Y1558081D01*
X887994Y1554748D01*
Y1551416D01*
X889660Y1549750D01*
X892992D01*
X894658Y1551416D01*
Y1553082D01*
X892992Y1554748D01*
X887994D01*
X440750Y1483750D02*
X430753D01*
Y1488748D01*
X432419Y1490414D01*
X435752D01*
X437418Y1488748D01*
Y1483750D01*
Y1487082D02*
X440750Y1490414D01*
X432419Y1493747D02*
X430753Y1495413D01*
Y1498745D01*
X432419Y1500411D01*
X434086D01*
X435752Y1498745D01*
Y1497079D01*
Y1498745D01*
X437418Y1500411D01*
X439084D01*
X440750Y1498745D01*
Y1495413D01*
X439084Y1493747D01*
X432419Y1503744D02*
X430753Y1505410D01*
Y1508742D01*
X432419Y1510408D01*
X434086D01*
X435752Y1508742D01*
Y1507076D01*
Y1508742D01*
X437418Y1510408D01*
X439084D01*
X440750Y1508742D01*
Y1505410D01*
X439084Y1503744D01*
X513000Y1472000D02*
Y1481997D01*
X517998D01*
X519664Y1480331D01*
Y1476998D01*
X517998Y1475332D01*
X513000D01*
X516332D02*
X519664Y1472000D01*
X522997Y1480331D02*
X524663Y1481997D01*
X527995D01*
X529661Y1480331D01*
Y1478665D01*
X527995Y1476998D01*
X526329D01*
X527995D01*
X529661Y1475332D01*
Y1473666D01*
X527995Y1472000D01*
X524663D01*
X522997Y1473666D01*
X532994Y1480331D02*
X534660Y1481997D01*
X537992D01*
X539658Y1480331D01*
Y1473666D01*
X537992Y1472000D01*
X534660D01*
X532994Y1473666D01*
Y1480331D01*
X1420000Y2261000D02*
X1410003D01*
Y2265998D01*
X1411669Y2267664D01*
X1415002D01*
X1416668Y2265998D01*
Y2261000D01*
Y2264332D02*
X1420000Y2267664D01*
Y2277661D02*
Y2270997D01*
X1413336Y2277661D01*
X1411669D01*
X1410003Y2275995D01*
Y2272663D01*
X1411669Y2270997D01*
X1420000Y2285992D02*
X1410003D01*
X1415002Y2280994D01*
Y2287658D01*
X775665Y1461666D02*
Y1468331D01*
X773998Y1469997D01*
X770666D01*
X769000Y1468331D01*
Y1461666D01*
X770666Y1460000D01*
X773998D01*
X772332Y1463332D02*
X775665Y1460000D01*
X773998D02*
X775665Y1461666D01*
X778997Y1460000D02*
X782329D01*
X780663D01*
Y1469997D01*
X778997Y1468331D01*
X787327D02*
X788994Y1469997D01*
X792326D01*
X793992Y1468331D01*
Y1466664D01*
X792326Y1464998D01*
X793992Y1463332D01*
Y1461666D01*
X792326Y1460000D01*
X788994D01*
X787327Y1461666D01*
Y1463332D01*
X788994Y1464998D01*
X787327Y1466664D01*
Y1468331D01*
X788994Y1464998D02*
X792326D01*
X1112165Y1538416D02*
Y1545081D01*
X1110498Y1546747D01*
X1107166D01*
X1105500Y1545081D01*
Y1538416D01*
X1107166Y1536750D01*
X1110498D01*
X1108832Y1540082D02*
X1112165Y1536750D01*
X1110498D02*
X1112165Y1538416D01*
X1115497Y1536750D02*
X1118829D01*
X1117163D01*
Y1546747D01*
X1115497Y1545081D01*
X1123827Y1546747D02*
X1130492D01*
Y1545081D01*
X1123827Y1538416D01*
Y1536750D01*
X839415Y1530666D02*
Y1537331D01*
X837748Y1538997D01*
X834416D01*
X832750Y1537331D01*
Y1530666D01*
X834416Y1529000D01*
X837748D01*
X836082Y1532332D02*
X839415Y1529000D01*
X837748D02*
X839415Y1530666D01*
X842747Y1529000D02*
X846079D01*
X844413D01*
Y1538997D01*
X842747Y1537331D01*
X857742Y1538997D02*
X854410Y1537331D01*
X851077Y1533998D01*
Y1530666D01*
X852744Y1529000D01*
X856076D01*
X857742Y1530666D01*
Y1532332D01*
X856076Y1533998D01*
X851077D01*
X1566165Y2170416D02*
Y2177081D01*
X1564498Y2178747D01*
X1561166D01*
X1559500Y2177081D01*
Y2170416D01*
X1561166Y2168750D01*
X1564498D01*
X1562832Y2172082D02*
X1566165Y2168750D01*
X1564498D02*
X1566165Y2170416D01*
X1569497Y2168750D02*
X1572829D01*
X1571163D01*
Y2178747D01*
X1569497Y2177081D01*
X1584492Y2178747D02*
X1577827D01*
Y2173748D01*
X1581160Y2175414D01*
X1582826D01*
X1584492Y2173748D01*
Y2170416D01*
X1582826Y2168750D01*
X1579494D01*
X1577827Y2170416D01*
X492415Y1469916D02*
Y1476581D01*
X490748Y1478247D01*
X487416D01*
X485750Y1476581D01*
Y1469916D01*
X487416Y1468250D01*
X490748D01*
X489082Y1471582D02*
X492415Y1468250D01*
X490748D02*
X492415Y1469916D01*
X495747Y1468250D02*
X499079D01*
X497413D01*
Y1478247D01*
X495747Y1476581D01*
X1566003Y1478665D02*
Y1472000D01*
X1571002D01*
Y1475332D01*
Y1472000D01*
X1576000D01*
X1566003Y1481997D02*
X1576000D01*
Y1486995D01*
X1574334Y1488661D01*
X1572668D01*
X1571002Y1486995D01*
Y1481997D01*
Y1486995D01*
X1569335Y1488661D01*
X1567669D01*
X1566003Y1486995D01*
Y1481997D01*
X1576000Y1491994D02*
Y1495326D01*
Y1493660D01*
X1566003D01*
X1567669Y1491994D01*
X1576000Y1506989D02*
Y1500324D01*
X1569335Y1506989D01*
X1567669D01*
X1566003Y1505323D01*
Y1501990D01*
X1567669Y1500324D01*
X1550003Y1478665D02*
Y1472000D01*
X1555002D01*
Y1475332D01*
Y1472000D01*
X1560000D01*
X1550003Y1481997D02*
X1560000D01*
Y1486995D01*
X1558334Y1488661D01*
X1556668D01*
X1555002Y1486995D01*
Y1481997D01*
Y1486995D01*
X1553336Y1488661D01*
X1551669D01*
X1550003Y1486995D01*
Y1481997D01*
X1560000Y1491994D02*
Y1495326D01*
Y1493660D01*
X1550003D01*
X1551669Y1491994D01*
X1560000Y1500324D02*
Y1503656D01*
Y1501990D01*
X1550003D01*
X1551669Y1500324D01*
X1477253Y1689750D02*
X1487250D01*
Y1694748D01*
X1485584Y1696414D01*
X1478919D01*
X1477253Y1694748D01*
Y1689750D01*
X1487250Y1706411D02*
Y1699747D01*
X1480585Y1706411D01*
X1478919D01*
X1477253Y1704745D01*
Y1701413D01*
X1478919Y1699747D01*
X1477253Y1709744D02*
Y1716408D01*
X1478919D01*
X1485584Y1709744D01*
X1487250D01*
X1237669Y1451664D02*
X1236003Y1449998D01*
Y1446666D01*
X1237669Y1445000D01*
X1244334D01*
X1246000Y1446666D01*
Y1449998D01*
X1244334Y1451664D01*
X1246000Y1454997D02*
Y1458329D01*
Y1456663D01*
X1236003D01*
X1237669Y1454997D01*
X1246000Y1469992D02*
Y1463327D01*
X1239335Y1469992D01*
X1237669D01*
X1236003Y1468326D01*
Y1464994D01*
X1237669Y1463327D01*
Y1473324D02*
X1236003Y1474990D01*
Y1478323D01*
X1237669Y1479989D01*
X1244334D01*
X1246000Y1478323D01*
Y1474990D01*
X1244334Y1473324D01*
X1237669D01*
X1209669Y1453665D02*
X1208003Y1451998D01*
Y1448666D01*
X1209669Y1447000D01*
X1216334D01*
X1218000Y1448666D01*
Y1451998D01*
X1216334Y1453665D01*
X1218000Y1456997D02*
Y1460329D01*
Y1458663D01*
X1208003D01*
X1209669Y1456997D01*
X1218000Y1465327D02*
Y1468660D01*
Y1466994D01*
X1208003D01*
X1209669Y1465327D01*
X1216334Y1473658D02*
X1218000Y1475324D01*
Y1478656D01*
X1216334Y1480323D01*
X1209669D01*
X1208003Y1478656D01*
Y1475324D01*
X1209669Y1473658D01*
X1211336D01*
X1213002Y1475324D01*
Y1480323D01*
X1628541Y1725842D02*
X1626875Y1724176D01*
Y1720844D01*
X1628541Y1719178D01*
X1635205D01*
X1636871Y1720844D01*
Y1724176D01*
X1635205Y1725842D01*
X1636871Y1729175D02*
Y1732507D01*
Y1730841D01*
X1626875D01*
X1628541Y1729175D01*
X1636871Y1737505D02*
Y1740838D01*
Y1739171D01*
X1626875D01*
X1628541Y1737505D01*
Y1745836D02*
X1626875Y1747502D01*
Y1750834D01*
X1628541Y1752500D01*
X1630207D01*
X1631873Y1750834D01*
X1633539Y1752500D01*
X1635205D01*
X1636871Y1750834D01*
Y1747502D01*
X1635205Y1745836D01*
X1633539D01*
X1631873Y1747502D01*
X1630207Y1745836D01*
X1628541D01*
X1631873Y1747502D02*
Y1750834D01*
X1634669Y1527664D02*
X1633003Y1525998D01*
Y1522666D01*
X1634669Y1521000D01*
X1641334D01*
X1643000Y1522666D01*
Y1525998D01*
X1641334Y1527664D01*
X1643000Y1530997D02*
Y1534329D01*
Y1532663D01*
X1633003D01*
X1634669Y1530997D01*
X1643000Y1539327D02*
Y1542660D01*
Y1540994D01*
X1633003D01*
X1634669Y1539327D01*
X1633003Y1547658D02*
Y1554323D01*
X1634669D01*
X1641334Y1547658D01*
X1643000D01*
X1523669Y1546664D02*
X1522003Y1544998D01*
Y1541666D01*
X1523669Y1540000D01*
X1530334D01*
X1532000Y1541666D01*
Y1544998D01*
X1530334Y1546664D01*
X1532000Y1549997D02*
Y1553329D01*
Y1551663D01*
X1522003D01*
X1523669Y1549997D01*
X1532000Y1558327D02*
Y1561660D01*
Y1559994D01*
X1522003D01*
X1523669Y1558327D01*
X1522003Y1573323D02*
X1523669Y1569990D01*
X1527002Y1566658D01*
X1530334D01*
X1532000Y1568324D01*
Y1571656D01*
X1530334Y1573323D01*
X1528668D01*
X1527002Y1571656D01*
Y1566658D01*
X1738669Y1683665D02*
X1737003Y1681998D01*
Y1678666D01*
X1738669Y1677000D01*
X1745334D01*
X1747000Y1678666D01*
Y1681998D01*
X1745334Y1683665D01*
X1747000Y1686997D02*
Y1690329D01*
Y1688663D01*
X1737003D01*
X1738669Y1686997D01*
X1747000Y1695327D02*
Y1698660D01*
Y1696994D01*
X1737003D01*
X1738669Y1695327D01*
X1737003Y1710323D02*
Y1703658D01*
X1742002D01*
X1740336Y1706990D01*
Y1708656D01*
X1742002Y1710323D01*
X1745334D01*
X1747000Y1708656D01*
Y1705324D01*
X1745334Y1703658D01*
X1631664Y1696331D02*
X1629998Y1697997D01*
X1626666D01*
X1625000Y1696331D01*
Y1689666D01*
X1626666Y1688000D01*
X1629998D01*
X1631664Y1689666D01*
X1634997Y1688000D02*
X1638329D01*
X1636663D01*
Y1697997D01*
X1634997Y1696331D01*
X1643327Y1688000D02*
X1646660D01*
X1644994D01*
Y1697997D01*
X1643327Y1696331D01*
X1656656Y1688000D02*
Y1697997D01*
X1651658Y1692998D01*
X1658323D01*
X1738919Y1606664D02*
X1737253Y1604998D01*
Y1601666D01*
X1738919Y1600000D01*
X1745584D01*
X1747250Y1601666D01*
Y1604998D01*
X1745584Y1606664D01*
X1747250Y1609997D02*
Y1613329D01*
Y1611663D01*
X1737253D01*
X1738919Y1609997D01*
X1747250Y1618327D02*
Y1621660D01*
Y1619994D01*
X1737253D01*
X1738919Y1618327D01*
Y1626658D02*
X1737253Y1628324D01*
Y1631656D01*
X1738919Y1633323D01*
X1740585D01*
X1742252Y1631656D01*
Y1629990D01*
Y1631656D01*
X1743918Y1633323D01*
X1745584D01*
X1747250Y1631656D01*
Y1628324D01*
X1745584Y1626658D01*
X694500Y1555997D02*
Y1547666D01*
X696166Y1546000D01*
X699498D01*
X701164Y1547666D01*
Y1555997D01*
X711161D02*
X707829Y1554331D01*
X704497Y1550998D01*
Y1547666D01*
X706163Y1546000D01*
X709495D01*
X711161Y1547666D01*
Y1549332D01*
X709495Y1550998D01*
X704497D01*
X838750Y1837247D02*
Y1828916D01*
X840416Y1827250D01*
X843748D01*
X845415Y1828916D01*
Y1837247D01*
X853745Y1827250D02*
Y1837247D01*
X848747Y1832248D01*
X855411D01*
X620500Y2212497D02*
Y2204166D01*
X622166Y2202500D01*
X625498D01*
X627164Y2204166D01*
Y2212497D01*
X630497D02*
X637161D01*
Y2210831D01*
X630497Y2204166D01*
Y2202500D01*
X675922Y2018022D02*
Y2028019D01*
X680920D01*
X682587Y2026353D01*
Y2023020D01*
X680920Y2021354D01*
X675922D01*
X679254D02*
X682587Y2018022D01*
X692583Y2028019D02*
X685919D01*
Y2023020D01*
X689251Y2024686D01*
X690917D01*
X692583Y2023020D01*
Y2019688D01*
X690917Y2018022D01*
X687585D01*
X685919Y2019688D01*
X702580Y2018022D02*
X695916D01*
X702580Y2024686D01*
Y2026353D01*
X700914Y2028019D01*
X697582D01*
X695916Y2026353D01*
X898000Y2240000D02*
X888003D01*
Y2244998D01*
X889669Y2246664D01*
X893002D01*
X894668Y2244998D01*
Y2240000D01*
Y2243332D02*
X898000Y2246664D01*
X888003Y2256661D02*
X889669Y2253329D01*
X893002Y2249997D01*
X896334D01*
X898000Y2251663D01*
Y2254995D01*
X896334Y2256661D01*
X894668D01*
X893002Y2254995D01*
Y2249997D01*
X889669Y2259993D02*
X888003Y2261660D01*
Y2264992D01*
X889669Y2266658D01*
X891336D01*
X893002Y2264992D01*
Y2263326D01*
Y2264992D01*
X894668Y2266658D01*
X896334D01*
X898000Y2264992D01*
Y2261660D01*
X896334Y2259993D01*
X899000Y2349000D02*
X889003D01*
Y2353998D01*
X890669Y2355665D01*
X894002D01*
X895668Y2353998D01*
Y2349000D01*
Y2352332D02*
X899000Y2355665D01*
X889003Y2365661D02*
X890669Y2362329D01*
X894002Y2358997D01*
X897334D01*
X899000Y2360663D01*
Y2363995D01*
X897334Y2365661D01*
X895668D01*
X894002Y2363995D01*
Y2358997D01*
X899000Y2375658D02*
Y2368994D01*
X892336Y2375658D01*
X890669D01*
X889003Y2373992D01*
Y2370660D01*
X890669Y2368994D01*
X467000Y2177250D02*
Y2187247D01*
X471998D01*
X473665Y2185581D01*
Y2182248D01*
X471998Y2180582D01*
X467000D01*
X470332D02*
X473665Y2177250D01*
X483661Y2187247D02*
X480329Y2185581D01*
X476997Y2182248D01*
Y2178916D01*
X478663Y2177250D01*
X481995D01*
X483661Y2178916D01*
Y2180582D01*
X481995Y2182248D01*
X476997D01*
X486993Y2177250D02*
X490326D01*
X488660D01*
Y2187247D01*
X486993Y2185581D01*
X305336Y2328156D02*
Y2338153D01*
X310334D01*
X312001Y2336487D01*
Y2333154D01*
X310334Y2331488D01*
X305336D01*
X308668D02*
X312001Y2328156D01*
X321997Y2338153D02*
X318665Y2336487D01*
X315333Y2333154D01*
Y2329822D01*
X316999Y2328156D01*
X320331D01*
X321997Y2329822D01*
Y2331488D01*
X320331Y2333154D01*
X315333D01*
X325330Y2336487D02*
X326996Y2338153D01*
X330328D01*
X331994Y2336487D01*
Y2329822D01*
X330328Y2328156D01*
X326996D01*
X325330Y2329822D01*
Y2336487D01*
X778000Y2271000D02*
Y2280997D01*
X782998D01*
X784665Y2279331D01*
Y2275998D01*
X782998Y2274332D01*
X778000D01*
X781332D02*
X784665Y2271000D01*
X794661Y2280997D02*
X787997D01*
Y2275998D01*
X791329Y2277664D01*
X792995D01*
X794661Y2275998D01*
Y2272666D01*
X792995Y2271000D01*
X789663D01*
X787997Y2272666D01*
X797994Y2279331D02*
X799660Y2280997D01*
X802992D01*
X804658Y2279331D01*
Y2277664D01*
X802992Y2275998D01*
X804658Y2274332D01*
Y2272666D01*
X802992Y2271000D01*
X799660D01*
X797994Y2272666D01*
Y2274332D01*
X799660Y2275998D01*
X797994Y2277664D01*
Y2279331D01*
X799660Y2275998D02*
X802992D01*
X781000Y2290000D02*
Y2299997D01*
X785998D01*
X787664Y2298331D01*
Y2294998D01*
X785998Y2293332D01*
X781000D01*
X784332D02*
X787664Y2290000D01*
X797661Y2299997D02*
X790997D01*
Y2294998D01*
X794329Y2296664D01*
X795995D01*
X797661Y2294998D01*
Y2291666D01*
X795995Y2290000D01*
X792663D01*
X790997Y2291666D01*
X800993Y2299997D02*
X807658D01*
Y2298331D01*
X800993Y2291666D01*
Y2290000D01*
X780000Y2322000D02*
Y2331997D01*
X784998D01*
X786665Y2330331D01*
Y2326998D01*
X784998Y2325332D01*
X780000D01*
X783332D02*
X786665Y2322000D01*
X796661Y2331997D02*
X789997D01*
Y2326998D01*
X793329Y2328665D01*
X794995D01*
X796661Y2326998D01*
Y2323666D01*
X794995Y2322000D01*
X791663D01*
X789997Y2323666D01*
X806658Y2331997D02*
X803326Y2330331D01*
X799994Y2326998D01*
Y2323666D01*
X801660Y2322000D01*
X804992D01*
X806658Y2323666D01*
Y2325332D01*
X804992Y2326998D01*
X799994D01*
X818500Y2359250D02*
Y2369247D01*
X823498D01*
X825164Y2367581D01*
Y2364248D01*
X823498Y2362582D01*
X818500D01*
X821832D02*
X825164Y2359250D01*
X835161Y2369247D02*
X828497D01*
Y2364248D01*
X831829Y2365914D01*
X833495D01*
X835161Y2364248D01*
Y2360916D01*
X833495Y2359250D01*
X830163D01*
X828497Y2360916D01*
X845158Y2369247D02*
X838493D01*
Y2364248D01*
X841826Y2365914D01*
X843492D01*
X845158Y2364248D01*
Y2360916D01*
X843492Y2359250D01*
X840160D01*
X838493Y2360916D01*
X1263250Y1940250D02*
X1253253D01*
Y1945248D01*
X1254919Y1946915D01*
X1258252D01*
X1259918Y1945248D01*
Y1940250D01*
Y1943582D02*
X1263250Y1946915D01*
Y1956911D02*
Y1950247D01*
X1256585Y1956911D01*
X1254919D01*
X1253253Y1955245D01*
Y1951913D01*
X1254919Y1950247D01*
X1264500Y1992750D02*
X1254503D01*
Y1997748D01*
X1256169Y1999415D01*
X1259502D01*
X1261168Y1997748D01*
Y1992750D01*
Y1996082D02*
X1264500Y1999415D01*
Y2002747D02*
Y2006079D01*
Y2004413D01*
X1254503D01*
X1256169Y2002747D01*
X866334Y2238665D02*
X859669D01*
X858003Y2236998D01*
Y2233666D01*
X859669Y2232000D01*
X866334D01*
X868000Y2233666D01*
Y2236998D01*
X864668Y2235332D02*
X868000Y2238665D01*
Y2236998D02*
X866334Y2238665D01*
X868000Y2241997D02*
Y2245329D01*
Y2243663D01*
X858003D01*
X859669Y2241997D01*
Y2250327D02*
X858003Y2251994D01*
Y2255326D01*
X859669Y2256992D01*
X861336D01*
X863002Y2255326D01*
Y2253660D01*
Y2255326D01*
X864668Y2256992D01*
X866334D01*
X868000Y2255326D01*
Y2251994D01*
X866334Y2250327D01*
X859584Y2353414D02*
X852919D01*
X851253Y2351748D01*
Y2348416D01*
X852919Y2346750D01*
X859584D01*
X861250Y2348416D01*
Y2351748D01*
X857918Y2350082D02*
X861250Y2353414D01*
Y2351748D02*
X859584Y2353414D01*
X861250Y2356747D02*
Y2360079D01*
Y2358413D01*
X851253D01*
X852919Y2356747D01*
X861250Y2371742D02*
Y2365077D01*
X854585Y2371742D01*
X852919D01*
X851253Y2370076D01*
Y2366744D01*
X852919Y2365077D01*
X486584Y2213165D02*
X479919D01*
X478253Y2211498D01*
Y2208166D01*
X479919Y2206500D01*
X486584D01*
X488250Y2208166D01*
Y2211498D01*
X484918Y2209832D02*
X488250Y2213165D01*
Y2211498D02*
X486584Y2213165D01*
X488250Y2216497D02*
Y2219829D01*
Y2218163D01*
X478253D01*
X479919Y2216497D01*
X488250Y2224827D02*
Y2228160D01*
Y2226494D01*
X478253D01*
X479919Y2224827D01*
X942664Y1510997D02*
X936000D01*
Y1505998D01*
X939332D01*
X936000D01*
Y1501000D01*
X945997Y1510997D02*
Y1501000D01*
X950995D01*
X952661Y1502666D01*
Y1504332D01*
X950995Y1505998D01*
X945997D01*
X950995D01*
X952661Y1507664D01*
Y1509331D01*
X950995Y1510997D01*
X945997D01*
X955993Y1509331D02*
X957660Y1510997D01*
X960992D01*
X962658Y1509331D01*
Y1507664D01*
X960992Y1505998D01*
X959326D01*
X960992D01*
X962658Y1504332D01*
Y1502666D01*
X960992Y1501000D01*
X957660D01*
X955993Y1502666D01*
X1535003Y1478665D02*
Y1472000D01*
X1540002D01*
Y1475332D01*
Y1472000D01*
X1545000D01*
X1535003Y1481997D02*
X1545000D01*
Y1486995D01*
X1543334Y1488661D01*
X1541668D01*
X1540002Y1486995D01*
Y1481997D01*
Y1486995D01*
X1538336Y1488661D01*
X1536669D01*
X1535003Y1486995D01*
Y1481997D01*
X1545000Y1491994D02*
Y1495326D01*
Y1493660D01*
X1535003D01*
X1536669Y1491994D01*
Y1500324D02*
X1535003Y1501990D01*
Y1505323D01*
X1536669Y1506989D01*
X1543334D01*
X1545000Y1505323D01*
Y1501990D01*
X1543334Y1500324D01*
X1536669D01*
X1662914Y2299331D02*
X1661248Y2300997D01*
X1657916D01*
X1656250Y2299331D01*
Y2292666D01*
X1657916Y2291000D01*
X1661248D01*
X1662914Y2292666D01*
X1666247Y2299331D02*
X1667913Y2300997D01*
X1671245D01*
X1672911Y2299331D01*
Y2297664D01*
X1671245Y2295998D01*
X1672911Y2294332D01*
Y2292666D01*
X1671245Y2291000D01*
X1667913D01*
X1666247Y2292666D01*
Y2294332D01*
X1667913Y2295998D01*
X1666247Y2297664D01*
Y2299331D01*
X1667913Y2295998D02*
X1671245D01*
X1682908Y2291000D02*
X1676244D01*
X1682908Y2297664D01*
Y2299331D01*
X1681242Y2300997D01*
X1677910D01*
X1676244Y2299331D01*
X1643665Y2089331D02*
X1641998Y2090997D01*
X1638666D01*
X1637000Y2089331D01*
Y2082666D01*
X1638666Y2081000D01*
X1641998D01*
X1643665Y2082666D01*
X1646997Y2089331D02*
X1648663Y2090997D01*
X1651995D01*
X1653661Y2089331D01*
Y2087664D01*
X1651995Y2085998D01*
X1653661Y2084332D01*
Y2082666D01*
X1651995Y2081000D01*
X1648663D01*
X1646997Y2082666D01*
Y2084332D01*
X1648663Y2085998D01*
X1646997Y2087664D01*
Y2089331D01*
X1648663Y2085998D02*
X1651995D01*
X1656994Y2089331D02*
X1658660Y2090997D01*
X1661992D01*
X1663658Y2089331D01*
Y2087664D01*
X1661992Y2085998D01*
X1660326D01*
X1661992D01*
X1663658Y2084332D01*
Y2082666D01*
X1661992Y2081000D01*
X1658660D01*
X1656994Y2082666D01*
X942664Y1769331D02*
X940998Y1770997D01*
X937666D01*
X936000Y1769331D01*
Y1762666D01*
X937666Y1761000D01*
X940998D01*
X942664Y1762666D01*
X945997Y1770997D02*
X952661D01*
Y1769331D01*
X945997Y1762666D01*
Y1761000D01*
X962658Y1770997D02*
X959326Y1769331D01*
X955993Y1765998D01*
Y1762666D01*
X957660Y1761000D01*
X960992D01*
X962658Y1762666D01*
Y1764332D01*
X960992Y1765998D01*
X955993D01*
X946665Y1800331D02*
X944998Y1801997D01*
X941666D01*
X940000Y1800331D01*
Y1793666D01*
X941666Y1792000D01*
X944998D01*
X946665Y1793666D01*
X949997Y1801997D02*
X956661D01*
Y1800331D01*
X949997Y1793666D01*
Y1792000D01*
X966658Y1801997D02*
X959994D01*
Y1796998D01*
X963326Y1798665D01*
X964992D01*
X966658Y1796998D01*
Y1793666D01*
X964992Y1792000D01*
X961660D01*
X959994Y1793666D01*
X552664Y2249331D02*
X550998Y2250997D01*
X547666D01*
X546000Y2249331D01*
Y2242666D01*
X547666Y2241000D01*
X550998D01*
X552664Y2242666D01*
X560995Y2241000D02*
Y2250997D01*
X555997Y2245998D01*
X562661D01*
X565994Y2250997D02*
X572658D01*
Y2249331D01*
X565994Y2242666D01*
Y2241000D01*
X548665Y2115331D02*
X546998Y2116997D01*
X543666D01*
X542000Y2115331D01*
Y2108666D01*
X543666Y2107000D01*
X546998D01*
X548665Y2108666D01*
X556995Y2107000D02*
Y2116997D01*
X551997Y2111998D01*
X558661D01*
X568658Y2116997D02*
X565326Y2115331D01*
X561993Y2111998D01*
Y2108666D01*
X563660Y2107000D01*
X566992D01*
X568658Y2108666D01*
Y2110332D01*
X566992Y2111998D01*
X561993D01*
X619915Y2131831D02*
X618248Y2133497D01*
X614916D01*
X613250Y2131831D01*
Y2125166D01*
X614916Y2123500D01*
X618248D01*
X619915Y2125166D01*
X628245Y2123500D02*
Y2133497D01*
X623247Y2128498D01*
X629911D01*
X639908Y2133497D02*
X633243D01*
Y2128498D01*
X636576Y2130164D01*
X638242D01*
X639908Y2128498D01*
Y2125166D01*
X638242Y2123500D01*
X634910D01*
X633243Y2125166D01*
X712250Y2017750D02*
Y2027747D01*
X717248D01*
X718914Y2026081D01*
Y2022748D01*
X717248Y2021082D01*
X712250D01*
X715582D02*
X718914Y2017750D01*
X728911Y2027747D02*
X722247D01*
Y2022748D01*
X725579Y2024415D01*
X727245D01*
X728911Y2022748D01*
Y2019416D01*
X727245Y2017750D01*
X723913D01*
X722247Y2019416D01*
X732243Y2017750D02*
X735576D01*
X733910D01*
Y2027747D01*
X732243Y2026081D01*
X1717500Y2266497D02*
Y2258166D01*
X1719166Y2256500D01*
X1722498D01*
X1724164Y2258166D01*
Y2266497D01*
X1727497Y2256500D02*
X1730829D01*
X1729163D01*
Y2266497D01*
X1727497Y2264831D01*
X1735827Y2266497D02*
X1742492D01*
Y2264831D01*
X1735827Y2258166D01*
Y2256500D01*
X1059914Y2249581D02*
X1058248Y2251247D01*
X1054916D01*
X1053250Y2249581D01*
Y2242916D01*
X1054916Y2241250D01*
X1058248D01*
X1059914Y2242916D01*
X1063247Y2241250D02*
X1066579D01*
X1064913D01*
Y2251247D01*
X1063247Y2249581D01*
X1165164Y1921831D02*
X1163498Y1923497D01*
X1160166D01*
X1158500Y1921831D01*
Y1915166D01*
X1160166Y1913500D01*
X1163498D01*
X1165164Y1915166D01*
X1175161Y1913500D02*
X1168497D01*
X1175161Y1920164D01*
Y1921831D01*
X1173495Y1923497D01*
X1170163D01*
X1168497Y1921831D01*
X930669Y1898665D02*
X929003Y1896998D01*
Y1893666D01*
X930669Y1892000D01*
X937334D01*
X939000Y1893666D01*
Y1896998D01*
X937334Y1898665D01*
X930669Y1901997D02*
X929003Y1903663D01*
Y1906995D01*
X930669Y1908661D01*
X932336D01*
X934002Y1906995D01*
Y1905329D01*
Y1906995D01*
X935668Y1908661D01*
X937334D01*
X939000Y1906995D01*
Y1903663D01*
X937334Y1901997D01*
X1575665Y2305331D02*
X1573998Y2306997D01*
X1570666D01*
X1569000Y2305331D01*
Y2298666D01*
X1570666Y2297000D01*
X1573998D01*
X1575665Y2298666D01*
X1583995Y2297000D02*
Y2306997D01*
X1578997Y2301998D01*
X1585661D01*
X1152165Y2213831D02*
X1150498Y2215497D01*
X1147166D01*
X1145500Y2213831D01*
Y2207166D01*
X1147166Y2205500D01*
X1150498D01*
X1152165Y2207166D01*
X1162161Y2215497D02*
X1158829Y2213831D01*
X1155497Y2210498D01*
Y2207166D01*
X1157163Y2205500D01*
X1160495D01*
X1162161Y2207166D01*
Y2208832D01*
X1160495Y2210498D01*
X1155497D01*
X1151915Y2190831D02*
X1150248Y2192497D01*
X1146916D01*
X1145250Y2190831D01*
Y2184166D01*
X1146916Y2182500D01*
X1150248D01*
X1151915Y2184166D01*
X1155247Y2192497D02*
X1161911D01*
Y2190831D01*
X1155247Y2184166D01*
Y2182500D01*
X1152165Y2170831D02*
X1150498Y2172497D01*
X1147166D01*
X1145500Y2170831D01*
Y2164166D01*
X1147166Y2162500D01*
X1150498D01*
X1152165Y2164166D01*
X1155497Y2170831D02*
X1157163Y2172497D01*
X1160495D01*
X1162161Y2170831D01*
Y2169164D01*
X1160495Y2167498D01*
X1162161Y2165832D01*
Y2164166D01*
X1160495Y2162500D01*
X1157163D01*
X1155497Y2164166D01*
Y2165832D01*
X1157163Y2167498D01*
X1155497Y2169164D01*
Y2170831D01*
X1157163Y2167498D02*
X1160495D01*
X970665Y2189331D02*
X968998Y2190997D01*
X965666D01*
X964000Y2189331D01*
Y2182666D01*
X965666Y2181000D01*
X968998D01*
X970665Y2182666D01*
X973997D02*
X975663Y2181000D01*
X978995D01*
X980661Y2182666D01*
Y2189331D01*
X978995Y2190997D01*
X975663D01*
X973997Y2189331D01*
Y2187664D01*
X975663Y2185998D01*
X980661D01*
X975665Y2155331D02*
X973998Y2156997D01*
X970666D01*
X969000Y2155331D01*
Y2148666D01*
X970666Y2147000D01*
X973998D01*
X975665Y2148666D01*
X978997Y2147000D02*
X982329D01*
X980663D01*
Y2156997D01*
X978997Y2155331D01*
X987327D02*
X988994Y2156997D01*
X992326D01*
X993992Y2155331D01*
Y2148666D01*
X992326Y2147000D01*
X988994D01*
X987327Y2148666D01*
Y2155331D01*
X781669Y2076915D02*
X780003Y2075248D01*
Y2071916D01*
X781669Y2070250D01*
X788334D01*
X790000Y2071916D01*
Y2075248D01*
X788334Y2076915D01*
X790000Y2080247D02*
Y2083579D01*
Y2081913D01*
X780003D01*
X781669Y2080247D01*
X790000Y2088577D02*
Y2091910D01*
Y2090244D01*
X780003D01*
X781669Y2088577D01*
X744169Y2024415D02*
X742503Y2022748D01*
Y2019416D01*
X744169Y2017750D01*
X750834D01*
X752500Y2019416D01*
Y2022748D01*
X750834Y2024415D01*
X752500Y2027747D02*
Y2031079D01*
Y2029413D01*
X742503D01*
X744169Y2027747D01*
X752500Y2042742D02*
Y2036077D01*
X745835Y2042742D01*
X744169D01*
X742503Y2041076D01*
Y2037744D01*
X744169Y2036077D01*
X663419Y2076414D02*
X661753Y2074748D01*
Y2071416D01*
X663419Y2069750D01*
X670084D01*
X671750Y2071416D01*
Y2074748D01*
X670084Y2076414D01*
X671750Y2079747D02*
Y2083079D01*
Y2081413D01*
X661753D01*
X663419Y2079747D01*
Y2088077D02*
X661753Y2089743D01*
Y2093076D01*
X663419Y2094742D01*
X665086D01*
X666752Y2093076D01*
Y2091410D01*
Y2093076D01*
X668418Y2094742D01*
X670084D01*
X671750Y2093076D01*
Y2089743D01*
X670084Y2088077D01*
X859669Y1890665D02*
X858003Y1888998D01*
Y1885666D01*
X859669Y1884000D01*
X866334D01*
X868000Y1885666D01*
Y1888998D01*
X866334Y1890665D01*
X868000Y1893997D02*
Y1897329D01*
Y1895663D01*
X858003D01*
X859669Y1893997D01*
X858003Y1908992D02*
Y1902327D01*
X863002D01*
X861336Y1905660D01*
Y1907326D01*
X863002Y1908992D01*
X866334D01*
X868000Y1907326D01*
Y1903994D01*
X866334Y1902327D01*
X893919Y2065164D02*
X892253Y2063498D01*
Y2060166D01*
X893919Y2058500D01*
X900584D01*
X902250Y2060166D01*
Y2063498D01*
X900584Y2065164D01*
X902250Y2068497D02*
Y2071829D01*
Y2070163D01*
X892253D01*
X893919Y2068497D01*
X892253Y2083492D02*
X893919Y2080160D01*
X897252Y2076827D01*
X900584D01*
X902250Y2078494D01*
Y2081826D01*
X900584Y2083492D01*
X898918D01*
X897252Y2081826D01*
Y2076827D01*
X918919Y2066414D02*
X917253Y2064748D01*
Y2061416D01*
X918919Y2059750D01*
X925584D01*
X927250Y2061416D01*
Y2064748D01*
X925584Y2066414D01*
X927250Y2069747D02*
Y2073079D01*
Y2071413D01*
X917253D01*
X918919Y2069747D01*
X917253Y2078077D02*
Y2084742D01*
X918919D01*
X925584Y2078077D01*
X927250D01*
X883669Y1890665D02*
X882003Y1888998D01*
Y1885666D01*
X883669Y1884000D01*
X890334D01*
X892000Y1885666D01*
Y1888998D01*
X890334Y1890665D01*
X892000Y1893997D02*
Y1897329D01*
Y1895663D01*
X882003D01*
X883669Y1893997D01*
Y1902327D02*
X882003Y1903994D01*
Y1907326D01*
X883669Y1908992D01*
X885335D01*
X887002Y1907326D01*
X888668Y1908992D01*
X890334D01*
X892000Y1907326D01*
Y1903994D01*
X890334Y1902327D01*
X888668D01*
X887002Y1903994D01*
X885335Y1902327D01*
X883669D01*
X887002Y1903994D02*
Y1907326D01*
X906669Y1890665D02*
X905003Y1888998D01*
Y1885666D01*
X906669Y1884000D01*
X913334D01*
X915000Y1885666D01*
Y1888998D01*
X913334Y1890665D01*
X915000Y1893997D02*
Y1897329D01*
Y1895663D01*
X905003D01*
X906669Y1893997D01*
X913334Y1902327D02*
X915000Y1903994D01*
Y1907326D01*
X913334Y1908992D01*
X906669D01*
X905003Y1907326D01*
Y1903994D01*
X906669Y1902327D01*
X908335D01*
X910002Y1903994D01*
Y1908992D01*
X1190169Y2155164D02*
X1188503Y2153498D01*
Y2150166D01*
X1190169Y2148500D01*
X1196834D01*
X1198500Y2150166D01*
Y2153498D01*
X1196834Y2155164D01*
X1198500Y2165161D02*
Y2158497D01*
X1191835Y2165161D01*
X1190169D01*
X1188503Y2163495D01*
Y2160163D01*
X1190169Y2158497D01*
X1198500Y2168494D02*
Y2171826D01*
Y2170160D01*
X1188503D01*
X1190169Y2168494D01*
X1178415Y1873831D02*
X1176748Y1875497D01*
X1173416D01*
X1171750Y1873831D01*
Y1867166D01*
X1173416Y1865500D01*
X1176748D01*
X1178415Y1867166D01*
X1188411Y1865500D02*
X1181747D01*
X1188411Y1872164D01*
Y1873831D01*
X1186745Y1875497D01*
X1183413D01*
X1181747Y1873831D01*
X1198408Y1865500D02*
X1191743D01*
X1198408Y1872164D01*
Y1873831D01*
X1196742Y1875497D01*
X1193410D01*
X1191743Y1873831D01*
X1177915Y1894331D02*
X1176248Y1895997D01*
X1172916D01*
X1171250Y1894331D01*
Y1887666D01*
X1172916Y1886000D01*
X1176248D01*
X1177915Y1887666D01*
X1187911Y1886000D02*
X1181247D01*
X1187911Y1892664D01*
Y1894331D01*
X1186245Y1895997D01*
X1182913D01*
X1181247Y1894331D01*
X1191244D02*
X1192910Y1895997D01*
X1196242D01*
X1197908Y1894331D01*
Y1892664D01*
X1196242Y1890998D01*
X1194576D01*
X1196242D01*
X1197908Y1889332D01*
Y1887666D01*
X1196242Y1886000D01*
X1192910D01*
X1191244Y1887666D01*
X1127919Y2114664D02*
X1126253Y2112998D01*
Y2109666D01*
X1127919Y2108000D01*
X1134584D01*
X1136250Y2109666D01*
Y2112998D01*
X1134584Y2114664D01*
X1136250Y2124661D02*
Y2117997D01*
X1129585Y2124661D01*
X1127919D01*
X1126253Y2122995D01*
Y2119663D01*
X1127919Y2117997D01*
X1136250Y2132992D02*
X1126253D01*
X1131252Y2127994D01*
Y2134658D01*
X1166169Y2081915D02*
X1164503Y2080248D01*
Y2076916D01*
X1166169Y2075250D01*
X1172834D01*
X1174500Y2076916D01*
Y2080248D01*
X1172834Y2081915D01*
X1174500Y2091911D02*
Y2085247D01*
X1167835Y2091911D01*
X1166169D01*
X1164503Y2090245D01*
Y2086913D01*
X1166169Y2085247D01*
X1164503Y2101908D02*
Y2095244D01*
X1169502D01*
X1167835Y2098576D01*
Y2100242D01*
X1169502Y2101908D01*
X1172834D01*
X1174500Y2100242D01*
Y2096910D01*
X1172834Y2095244D01*
X880665Y2233331D02*
X878998Y2234997D01*
X875666D01*
X874000Y2233331D01*
Y2226666D01*
X875666Y2225000D01*
X878998D01*
X880665Y2226666D01*
X890661Y2225000D02*
X883997D01*
X890661Y2231664D01*
Y2233331D01*
X888995Y2234997D01*
X885663D01*
X883997Y2233331D01*
X900658Y2234997D02*
X897326Y2233331D01*
X893994Y2229998D01*
Y2226666D01*
X895660Y2225000D01*
X898992D01*
X900658Y2226666D01*
Y2228332D01*
X898992Y2229998D01*
X893994D01*
X891665Y2217331D02*
X889998Y2218997D01*
X886666D01*
X885000Y2217331D01*
Y2210666D01*
X886666Y2209000D01*
X889998D01*
X891665Y2210666D01*
X901661Y2209000D02*
X894997D01*
X901661Y2215665D01*
Y2217331D01*
X899995Y2218997D01*
X896663D01*
X894997Y2217331D01*
X904994Y2218997D02*
X911658D01*
Y2217331D01*
X904994Y2210666D01*
Y2209000D01*
X938664Y2184331D02*
X936998Y2185997D01*
X933666D01*
X932000Y2184331D01*
Y2177666D01*
X933666Y2176000D01*
X936998D01*
X938664Y2177666D01*
X948661Y2176000D02*
X941997D01*
X948661Y2182664D01*
Y2184331D01*
X946995Y2185997D01*
X943663D01*
X941997Y2184331D01*
X951993D02*
X953660Y2185997D01*
X956992D01*
X958658Y2184331D01*
Y2182664D01*
X956992Y2180998D01*
X958658Y2179332D01*
Y2177666D01*
X956992Y2176000D01*
X953660D01*
X951993Y2177666D01*
Y2179332D01*
X953660Y2180998D01*
X951993Y2182664D01*
Y2184331D01*
X953660Y2180998D02*
X956992D01*
X331305Y2262319D02*
X329638Y2263985D01*
X326306D01*
X324640Y2262319D01*
Y2255654D01*
X326306Y2253988D01*
X329638D01*
X331305Y2255654D01*
X341301Y2253988D02*
X334637D01*
X341301Y2260652D01*
Y2262319D01*
X339635Y2263985D01*
X336303D01*
X334637Y2262319D01*
X344633Y2255654D02*
X346300Y2253988D01*
X349632D01*
X351298Y2255654D01*
Y2262319D01*
X349632Y2263985D01*
X346300D01*
X344633Y2262319D01*
Y2260652D01*
X346300Y2258986D01*
X351298D01*
X251665Y2229331D02*
X249998Y2230997D01*
X246666D01*
X245000Y2229331D01*
Y2222666D01*
X246666Y2221000D01*
X249998D01*
X251665Y2222666D01*
X254997Y2229331D02*
X256663Y2230997D01*
X259995D01*
X261661Y2229331D01*
Y2227664D01*
X259995Y2225998D01*
X258329D01*
X259995D01*
X261661Y2224332D01*
Y2222666D01*
X259995Y2221000D01*
X256663D01*
X254997Y2222666D01*
X264994Y2229331D02*
X266660Y2230997D01*
X269992D01*
X271658Y2229331D01*
Y2222666D01*
X269992Y2221000D01*
X266660D01*
X264994Y2222666D01*
Y2229331D01*
X366665Y2181331D02*
X364998Y2182997D01*
X361666D01*
X360000Y2181331D01*
Y2174666D01*
X361666Y2173000D01*
X364998D01*
X366665Y2174666D01*
X369997Y2181331D02*
X371663Y2182997D01*
X374995D01*
X376661Y2181331D01*
Y2179664D01*
X374995Y2177998D01*
X373329D01*
X374995D01*
X376661Y2176332D01*
Y2174666D01*
X374995Y2173000D01*
X371663D01*
X369997Y2174666D01*
X379994Y2173000D02*
X383326D01*
X381660D01*
Y2182997D01*
X379994Y2181331D01*
X366665Y2167331D02*
X364998Y2168997D01*
X361666D01*
X360000Y2167331D01*
Y2160666D01*
X361666Y2159000D01*
X364998D01*
X366665Y2160666D01*
X369997Y2167331D02*
X371663Y2168997D01*
X374995D01*
X376661Y2167331D01*
Y2165665D01*
X374995Y2163998D01*
X373329D01*
X374995D01*
X376661Y2162332D01*
Y2160666D01*
X374995Y2159000D01*
X371663D01*
X369997Y2160666D01*
X386658Y2159000D02*
X379994D01*
X386658Y2165665D01*
Y2167331D01*
X384992Y2168997D01*
X381660D01*
X379994Y2167331D01*
X366665Y2153331D02*
X364998Y2154997D01*
X361666D01*
X360000Y2153331D01*
Y2146666D01*
X361666Y2145000D01*
X364998D01*
X366665Y2146666D01*
X369997Y2153331D02*
X371663Y2154997D01*
X374995D01*
X376661Y2153331D01*
Y2151664D01*
X374995Y2149998D01*
X373329D01*
X374995D01*
X376661Y2148332D01*
Y2146666D01*
X374995Y2145000D01*
X371663D01*
X369997Y2146666D01*
X379994Y2153331D02*
X381660Y2154997D01*
X384992D01*
X386658Y2153331D01*
Y2151664D01*
X384992Y2149998D01*
X383326D01*
X384992D01*
X386658Y2148332D01*
Y2146666D01*
X384992Y2145000D01*
X381660D01*
X379994Y2146666D01*
X367664Y2139331D02*
X365998Y2140997D01*
X362666D01*
X361000Y2139331D01*
Y2132666D01*
X362666Y2131000D01*
X365998D01*
X367664Y2132666D01*
X370997Y2139331D02*
X372663Y2140997D01*
X375995D01*
X377661Y2139331D01*
Y2137664D01*
X375995Y2135998D01*
X374329D01*
X375995D01*
X377661Y2134332D01*
Y2132666D01*
X375995Y2131000D01*
X372663D01*
X370997Y2132666D01*
X385992Y2131000D02*
Y2140997D01*
X380993Y2135998D01*
X387658D01*
X367664Y2125331D02*
X365998Y2126997D01*
X362666D01*
X361000Y2125331D01*
Y2118666D01*
X362666Y2117000D01*
X365998D01*
X367664Y2118666D01*
X370997Y2125331D02*
X372663Y2126997D01*
X375995D01*
X377661Y2125331D01*
Y2123665D01*
X375995Y2121998D01*
X374329D01*
X375995D01*
X377661Y2120332D01*
Y2118666D01*
X375995Y2117000D01*
X372663D01*
X370997Y2118666D01*
X387658Y2126997D02*
X380993D01*
Y2121998D01*
X384326Y2123665D01*
X385992D01*
X387658Y2121998D01*
Y2118666D01*
X385992Y2117000D01*
X382660D01*
X380993Y2118666D01*
X418914Y2020581D02*
X417248Y2022247D01*
X413916D01*
X412250Y2020581D01*
Y2013916D01*
X413916Y2012250D01*
X417248D01*
X418914Y2013916D01*
X422247Y2020581D02*
X423913Y2022247D01*
X427245D01*
X428911Y2020581D01*
Y2018914D01*
X427245Y2017248D01*
X425579D01*
X427245D01*
X428911Y2015582D01*
Y2013916D01*
X427245Y2012250D01*
X423913D01*
X422247Y2013916D01*
X438908Y2022247D02*
X435576Y2020581D01*
X432244Y2017248D01*
Y2013916D01*
X433910Y2012250D01*
X437242D01*
X438908Y2013916D01*
Y2015582D01*
X437242Y2017248D01*
X432244D01*
X289165Y2067331D02*
X287498Y2068997D01*
X284166D01*
X282500Y2067331D01*
Y2060666D01*
X284166Y2059000D01*
X287498D01*
X289165Y2060666D01*
X292497Y2067331D02*
X294163Y2068997D01*
X297495D01*
X299161Y2067331D01*
Y2065665D01*
X297495Y2063998D01*
X295829D01*
X297495D01*
X299161Y2062332D01*
Y2060666D01*
X297495Y2059000D01*
X294163D01*
X292497Y2060666D01*
X302494Y2068997D02*
X309158D01*
Y2067331D01*
X302494Y2060666D01*
Y2059000D01*
X290665Y2096831D02*
X288998Y2098497D01*
X285666D01*
X284000Y2096831D01*
Y2090166D01*
X285666Y2088500D01*
X288998D01*
X290665Y2090166D01*
X293997Y2096831D02*
X295663Y2098497D01*
X298995D01*
X300661Y2096831D01*
Y2095164D01*
X298995Y2093498D01*
X297329D01*
X298995D01*
X300661Y2091832D01*
Y2090166D01*
X298995Y2088500D01*
X295663D01*
X293997Y2090166D01*
X303993Y2096831D02*
X305660Y2098497D01*
X308992D01*
X310658Y2096831D01*
Y2095164D01*
X308992Y2093498D01*
X310658Y2091832D01*
Y2090166D01*
X308992Y2088500D01*
X305660D01*
X303993Y2090166D01*
Y2091832D01*
X305660Y2093498D01*
X303993Y2095164D01*
Y2096831D01*
X305660Y2093498D02*
X308992D01*
X289914Y2126581D02*
X288248Y2128247D01*
X284916D01*
X283250Y2126581D01*
Y2119916D01*
X284916Y2118250D01*
X288248D01*
X289914Y2119916D01*
X293247Y2126581D02*
X294913Y2128247D01*
X298245D01*
X299911Y2126581D01*
Y2124915D01*
X298245Y2123248D01*
X296579D01*
X298245D01*
X299911Y2121582D01*
Y2119916D01*
X298245Y2118250D01*
X294913D01*
X293247Y2119916D01*
X303244D02*
X304910Y2118250D01*
X308242D01*
X309908Y2119916D01*
Y2126581D01*
X308242Y2128247D01*
X304910D01*
X303244Y2126581D01*
Y2124915D01*
X304910Y2123248D01*
X309908D01*
X321169Y2281414D02*
X319503Y2279748D01*
Y2276416D01*
X321169Y2274750D01*
X327834D01*
X329500Y2276416D01*
Y2279748D01*
X327834Y2281414D01*
X329500Y2289745D02*
X319503D01*
X324502Y2284747D01*
Y2291411D01*
X321169Y2294744D02*
X319503Y2296410D01*
Y2299742D01*
X321169Y2301408D01*
X327834D01*
X329500Y2299742D01*
Y2296410D01*
X327834Y2294744D01*
X321169D01*
X910164Y1839831D02*
X908498Y1841497D01*
X905166D01*
X903500Y1839831D01*
Y1833166D01*
X905166Y1831500D01*
X908498D01*
X910164Y1833166D01*
X918495Y1831500D02*
Y1841497D01*
X913497Y1836498D01*
X920161D01*
X923494Y1831500D02*
X926826D01*
X925160D01*
Y1841497D01*
X923494Y1839831D01*
X825915Y1747331D02*
X824248Y1748997D01*
X820916D01*
X819250Y1747331D01*
Y1740666D01*
X820916Y1739000D01*
X824248D01*
X825915Y1740666D01*
X834245Y1739000D02*
Y1748997D01*
X829247Y1743998D01*
X835911D01*
X845908Y1739000D02*
X839244D01*
X845908Y1745665D01*
Y1747331D01*
X844242Y1748997D01*
X840910D01*
X839244Y1747331D01*
X1308419Y2023665D02*
X1306753Y2021998D01*
Y2018666D01*
X1308419Y2017000D01*
X1315084D01*
X1316750Y2018666D01*
Y2021998D01*
X1315084Y2023665D01*
X1316750Y2031995D02*
X1306753D01*
X1311752Y2026997D01*
Y2033661D01*
X1308419Y2036994D02*
X1306753Y2038660D01*
Y2041992D01*
X1308419Y2043658D01*
X1310085D01*
X1311752Y2041992D01*
Y2040326D01*
Y2041992D01*
X1313418Y2043658D01*
X1315084D01*
X1316750Y2041992D01*
Y2038660D01*
X1315084Y2036994D01*
X1259669Y2069664D02*
X1258003Y2067998D01*
Y2064666D01*
X1259669Y2063000D01*
X1266334D01*
X1268000Y2064666D01*
Y2067998D01*
X1266334Y2069664D01*
X1268000Y2077995D02*
X1258003D01*
X1263002Y2072997D01*
Y2079661D01*
X1268000Y2087992D02*
X1258003D01*
X1263002Y2082993D01*
Y2089658D01*
X757664Y2142331D02*
X755998Y2143997D01*
X752666D01*
X751000Y2142331D01*
Y2135666D01*
X752666Y2134000D01*
X755998D01*
X757664Y2135666D01*
X765995Y2134000D02*
Y2143997D01*
X760997Y2138998D01*
X767661D01*
X770994Y2142331D02*
X772660Y2143997D01*
X775992D01*
X777658Y2142331D01*
Y2140665D01*
X775992Y2138998D01*
X777658Y2137332D01*
Y2135666D01*
X775992Y2134000D01*
X772660D01*
X770994Y2135666D01*
Y2137332D01*
X772660Y2138998D01*
X770994Y2140665D01*
Y2142331D01*
X772660Y2138998D02*
X775992D01*
X662664Y2139331D02*
X660998Y2140997D01*
X657666D01*
X656000Y2139331D01*
Y2132666D01*
X657666Y2131000D01*
X660998D01*
X662664Y2132666D01*
X670995Y2131000D02*
Y2140997D01*
X665997Y2135998D01*
X672661D01*
X675993Y2132666D02*
X677660Y2131000D01*
X680992D01*
X682658Y2132666D01*
Y2139331D01*
X680992Y2140997D01*
X677660D01*
X675993Y2139331D01*
Y2137664D01*
X677660Y2135998D01*
X682658D01*
X657669Y2220665D02*
X656003Y2218998D01*
Y2215666D01*
X657669Y2214000D01*
X664334D01*
X666000Y2215666D01*
Y2218998D01*
X664334Y2220665D01*
X656003Y2230661D02*
Y2223997D01*
X661002D01*
X659335Y2227329D01*
Y2228995D01*
X661002Y2230661D01*
X664334D01*
X666000Y2228995D01*
Y2225663D01*
X664334Y2223997D01*
X657669Y2233994D02*
X656003Y2235660D01*
Y2238992D01*
X657669Y2240658D01*
X664334D01*
X666000Y2238992D01*
Y2235660D01*
X664334Y2233994D01*
X657669D01*
X525419Y2164915D02*
X523753Y2163248D01*
Y2159916D01*
X525419Y2158250D01*
X532084D01*
X533750Y2159916D01*
Y2163248D01*
X532084Y2164915D01*
X523753Y2174911D02*
Y2168247D01*
X528752D01*
X527085Y2171579D01*
Y2173245D01*
X528752Y2174911D01*
X532084D01*
X533750Y2173245D01*
Y2169913D01*
X532084Y2168247D01*
X533750Y2178244D02*
Y2181576D01*
Y2179910D01*
X523753D01*
X525419Y2178244D01*
X639669Y2155665D02*
X638003Y2153998D01*
Y2150666D01*
X639669Y2149000D01*
X646334D01*
X648000Y2150666D01*
Y2153998D01*
X646334Y2155665D01*
X638003Y2165661D02*
Y2158997D01*
X643002D01*
X641336Y2162329D01*
Y2163995D01*
X643002Y2165661D01*
X646334D01*
X648000Y2163995D01*
Y2160663D01*
X646334Y2158997D01*
X648000Y2175658D02*
Y2168994D01*
X641336Y2175658D01*
X639669D01*
X638003Y2173992D01*
Y2170660D01*
X639669Y2168994D01*
X661169Y2170414D02*
X659503Y2168748D01*
Y2165416D01*
X661169Y2163750D01*
X667834D01*
X669500Y2165416D01*
Y2168748D01*
X667834Y2170414D01*
X659503Y2180411D02*
Y2173747D01*
X664502D01*
X662835Y2177079D01*
Y2178745D01*
X664502Y2180411D01*
X667834D01*
X669500Y2178745D01*
Y2175413D01*
X667834Y2173747D01*
X661169Y2183744D02*
X659503Y2185410D01*
Y2188742D01*
X661169Y2190408D01*
X662835D01*
X664502Y2188742D01*
Y2187076D01*
Y2188742D01*
X666168Y2190408D01*
X667834D01*
X669500Y2188742D01*
Y2185410D01*
X667834Y2183744D01*
X779669Y2165665D02*
X778003Y2163998D01*
Y2160666D01*
X779669Y2159000D01*
X786334D01*
X788000Y2160666D01*
Y2163998D01*
X786334Y2165665D01*
X778003Y2175661D02*
Y2168997D01*
X783002D01*
X781336Y2172329D01*
Y2173995D01*
X783002Y2175661D01*
X786334D01*
X788000Y2173995D01*
Y2170663D01*
X786334Y2168997D01*
X788000Y2183992D02*
X778003D01*
X783002Y2178994D01*
Y2185658D01*
X793664Y1982581D02*
X791998Y1984247D01*
X788666D01*
X787000Y1982581D01*
Y1975916D01*
X788666Y1974250D01*
X791998D01*
X793664Y1975916D01*
X796997Y1984247D02*
X803661D01*
Y1982581D01*
X796997Y1975916D01*
Y1974250D01*
X806994Y1984247D02*
X813658D01*
Y1982581D01*
X806994Y1975916D01*
Y1974250D01*
X671665Y1979331D02*
X669998Y1980997D01*
X666666D01*
X665000Y1979331D01*
Y1972666D01*
X666666Y1971000D01*
X669998D01*
X671665Y1972666D01*
X674997Y1980997D02*
X681661D01*
Y1979331D01*
X674997Y1972666D01*
Y1971000D01*
X684994Y1979331D02*
X686660Y1980997D01*
X689992D01*
X691658Y1979331D01*
Y1977664D01*
X689992Y1975998D01*
X691658Y1974332D01*
Y1972666D01*
X689992Y1971000D01*
X686660D01*
X684994Y1972666D01*
Y1974332D01*
X686660Y1975998D01*
X684994Y1977664D01*
Y1979331D01*
X686660Y1975998D02*
X689992D01*
X1287169Y1790665D02*
X1285503Y1788998D01*
Y1785666D01*
X1287169Y1784000D01*
X1293834D01*
X1295500Y1785666D01*
Y1788998D01*
X1293834Y1790665D01*
X1285503Y1793997D02*
Y1800661D01*
X1287169D01*
X1293834Y1793997D01*
X1295500D01*
X1293834Y1803994D02*
X1295500Y1805660D01*
Y1808992D01*
X1293834Y1810658D01*
X1287169D01*
X1285503Y1808992D01*
Y1805660D01*
X1287169Y1803994D01*
X1288835D01*
X1290502Y1805660D01*
Y1810658D01*
X1251419Y1791915D02*
X1249753Y1790248D01*
Y1786916D01*
X1251419Y1785250D01*
X1258084D01*
X1259750Y1786916D01*
Y1790248D01*
X1258084Y1791915D01*
X1251419Y1795247D02*
X1249753Y1796913D01*
Y1800245D01*
X1251419Y1801911D01*
X1253085D01*
X1254752Y1800245D01*
X1256418Y1801911D01*
X1258084D01*
X1259750Y1800245D01*
Y1796913D01*
X1258084Y1795247D01*
X1256418D01*
X1254752Y1796913D01*
X1253085Y1795247D01*
X1251419D01*
X1254752Y1796913D02*
Y1800245D01*
X1251419Y1805244D02*
X1249753Y1806910D01*
Y1810242D01*
X1251419Y1811908D01*
X1258084D01*
X1259750Y1810242D01*
Y1806910D01*
X1258084Y1805244D01*
X1251419D01*
X1437669Y1896664D02*
X1436003Y1894998D01*
Y1891666D01*
X1437669Y1890000D01*
X1444334D01*
X1446000Y1891666D01*
Y1894998D01*
X1444334Y1896664D01*
X1437669Y1899997D02*
X1436003Y1901663D01*
Y1904995D01*
X1437669Y1906661D01*
X1439335D01*
X1441002Y1904995D01*
X1442668Y1906661D01*
X1444334D01*
X1446000Y1904995D01*
Y1901663D01*
X1444334Y1899997D01*
X1442668D01*
X1441002Y1901663D01*
X1439335Y1899997D01*
X1437669D01*
X1441002Y1901663D02*
Y1904995D01*
X1446000Y1909994D02*
Y1913326D01*
Y1911660D01*
X1436003D01*
X1437669Y1909994D01*
X917664Y1426331D02*
X915998Y1427997D01*
X912666D01*
X911000Y1426331D01*
Y1419666D01*
X912666Y1418000D01*
X915998D01*
X917664Y1419666D01*
X920997Y1426331D02*
X922663Y1427997D01*
X925995D01*
X927661Y1426331D01*
Y1424664D01*
X925995Y1422998D01*
X927661Y1421332D01*
Y1419666D01*
X925995Y1418000D01*
X922663D01*
X920997Y1419666D01*
Y1421332D01*
X922663Y1422998D01*
X920997Y1424664D01*
Y1426331D01*
X922663Y1422998D02*
X925995D01*
X935992Y1418000D02*
Y1427997D01*
X930993Y1422998D01*
X937658D01*
X1169750Y2347247D02*
Y2337250D01*
X1174748D01*
X1176414Y2338916D01*
Y2345581D01*
X1174748Y2347247D01*
X1169750D01*
X1179747Y2337250D02*
X1183079D01*
X1181413D01*
Y2347247D01*
X1179747Y2345581D01*
X1121000Y2345997D02*
Y2336000D01*
X1125998D01*
X1127664Y2337666D01*
Y2344331D01*
X1125998Y2345997D01*
X1121000D01*
X1137661Y2336000D02*
X1130997D01*
X1137661Y2342664D01*
Y2344331D01*
X1135995Y2345997D01*
X1132663D01*
X1130997Y2344331D01*
X1075000Y2351997D02*
Y2342000D01*
X1079998D01*
X1081665Y2343666D01*
Y2350331D01*
X1079998Y2351997D01*
X1075000D01*
X1084997Y2350331D02*
X1086663Y2351997D01*
X1089995D01*
X1091661Y2350331D01*
Y2348665D01*
X1089995Y2346998D01*
X1088329D01*
X1089995D01*
X1091661Y2345332D01*
Y2343666D01*
X1089995Y2342000D01*
X1086663D01*
X1084997Y2343666D01*
X1022000Y2364997D02*
Y2355000D01*
X1026998D01*
X1028664Y2356666D01*
Y2363331D01*
X1026998Y2364997D01*
X1022000D01*
X1036995Y2355000D02*
Y2364997D01*
X1031997Y2359998D01*
X1038661D01*
X1411000Y2238997D02*
Y2229000D01*
X1415998D01*
X1417664Y2230666D01*
Y2237331D01*
X1415998Y2238997D01*
X1411000D01*
X1427661D02*
X1420997D01*
Y2233998D01*
X1424329Y2235665D01*
X1425995D01*
X1427661Y2233998D01*
Y2230666D01*
X1425995Y2229000D01*
X1422663D01*
X1420997Y2230666D01*
X1411500Y2203247D02*
Y2193250D01*
X1416498D01*
X1418165Y2194916D01*
Y2201581D01*
X1416498Y2203247D01*
X1411500D01*
X1428161D02*
X1424829Y2201581D01*
X1421497Y2198248D01*
Y2194916D01*
X1423163Y2193250D01*
X1426495D01*
X1428161Y2194916D01*
Y2196582D01*
X1426495Y2198248D01*
X1421497D01*
X1411500Y2170747D02*
Y2160750D01*
X1416498D01*
X1418165Y2162416D01*
Y2169081D01*
X1416498Y2170747D01*
X1411500D01*
X1421497D02*
X1428161D01*
Y2169081D01*
X1421497Y2162416D01*
Y2160750D01*
X1410250Y2137747D02*
Y2127750D01*
X1415248D01*
X1416915Y2129416D01*
Y2136081D01*
X1415248Y2137747D01*
X1410250D01*
X1420247Y2136081D02*
X1421913Y2137747D01*
X1425245D01*
X1426911Y2136081D01*
Y2134415D01*
X1425245Y2132748D01*
X1426911Y2131082D01*
Y2129416D01*
X1425245Y2127750D01*
X1421913D01*
X1420247Y2129416D01*
Y2131082D01*
X1421913Y2132748D01*
X1420247Y2134415D01*
Y2136081D01*
X1421913Y2132748D02*
X1425245D01*
X1411250Y2102247D02*
Y2092250D01*
X1416248D01*
X1417914Y2093916D01*
Y2100581D01*
X1416248Y2102247D01*
X1411250D01*
X1421247Y2093916D02*
X1422913Y2092250D01*
X1426245D01*
X1427911Y2093916D01*
Y2100581D01*
X1426245Y2102247D01*
X1422913D01*
X1421247Y2100581D01*
Y2098914D01*
X1422913Y2097248D01*
X1427911D01*
X1410250Y2068997D02*
Y2059000D01*
X1415248D01*
X1416915Y2060666D01*
Y2067331D01*
X1415248Y2068997D01*
X1410250D01*
X1420247Y2059000D02*
X1423579D01*
X1421913D01*
Y2068997D01*
X1420247Y2067331D01*
X1428577D02*
X1430244Y2068997D01*
X1433576D01*
X1435242Y2067331D01*
Y2060666D01*
X1433576Y2059000D01*
X1430244D01*
X1428577Y2060666D01*
Y2067331D01*
X987003Y2302664D02*
Y2296000D01*
X992002D01*
Y2299332D01*
Y2296000D01*
X997000D01*
X987003Y2305997D02*
X997000D01*
Y2310995D01*
X995334Y2312661D01*
X993668D01*
X992002Y2310995D01*
Y2305997D01*
Y2310995D01*
X990335Y2312661D01*
X988669D01*
X987003Y2310995D01*
Y2305997D01*
X997000Y2315994D02*
Y2319326D01*
Y2317660D01*
X987003D01*
X988669Y2315994D01*
X920253Y2346165D02*
Y2339500D01*
X925252D01*
Y2342832D01*
Y2339500D01*
X930250D01*
X920253Y2349497D02*
X930250D01*
Y2354495D01*
X928584Y2356161D01*
X926918D01*
X925252Y2354495D01*
Y2349497D01*
Y2354495D01*
X923586Y2356161D01*
X921919D01*
X920253Y2354495D01*
Y2349497D01*
X930250Y2366158D02*
Y2359494D01*
X923586Y2366158D01*
X921919D01*
X920253Y2364492D01*
Y2361160D01*
X921919Y2359494D01*
X1229253Y1644415D02*
Y1637750D01*
X1234252D01*
Y1641082D01*
Y1637750D01*
X1239250D01*
X1229253Y1647747D02*
X1239250D01*
Y1652745D01*
X1237584Y1654411D01*
X1235918D01*
X1234252Y1652745D01*
Y1647747D01*
Y1652745D01*
X1232586Y1654411D01*
X1230919D01*
X1229253Y1652745D01*
Y1647747D01*
X1239250Y1662742D02*
X1229253D01*
X1234252Y1657744D01*
Y1664408D01*
X1205003Y1643414D02*
Y1636750D01*
X1210002D01*
Y1640082D01*
Y1636750D01*
X1215000D01*
X1205003Y1646747D02*
X1215000D01*
Y1651745D01*
X1213334Y1653411D01*
X1211668D01*
X1210002Y1651745D01*
Y1646747D01*
Y1651745D01*
X1208335Y1653411D01*
X1206669D01*
X1205003Y1651745D01*
Y1646747D01*
Y1663408D02*
Y1656743D01*
X1210002D01*
X1208335Y1660076D01*
Y1661742D01*
X1210002Y1663408D01*
X1213334D01*
X1215000Y1661742D01*
Y1658410D01*
X1213334Y1656743D01*
X1187664Y1579997D02*
X1181000D01*
Y1574998D01*
X1184332D01*
X1181000D01*
Y1570000D01*
X1190997Y1579997D02*
Y1570000D01*
X1195995D01*
X1197661Y1571666D01*
Y1573332D01*
X1195995Y1574998D01*
X1190997D01*
X1195995D01*
X1197661Y1576664D01*
Y1578331D01*
X1195995Y1579997D01*
X1190997D01*
X1200994D02*
X1207658D01*
Y1578331D01*
X1200994Y1571666D01*
Y1570000D01*
X1186665Y1563997D02*
X1180000D01*
Y1558998D01*
X1183332D01*
X1180000D01*
Y1554000D01*
X1189997Y1563997D02*
Y1554000D01*
X1194995D01*
X1196661Y1555666D01*
Y1557332D01*
X1194995Y1558998D01*
X1189997D01*
X1194995D01*
X1196661Y1560665D01*
Y1562331D01*
X1194995Y1563997D01*
X1189997D01*
X1199994Y1562331D02*
X1201660Y1563997D01*
X1204992D01*
X1206658Y1562331D01*
Y1560665D01*
X1204992Y1558998D01*
X1206658Y1557332D01*
Y1555666D01*
X1204992Y1554000D01*
X1201660D01*
X1199994Y1555666D01*
Y1557332D01*
X1201660Y1558998D01*
X1199994Y1560665D01*
Y1562331D01*
X1201660Y1558998D02*
X1204992D01*
X1151665Y1523997D02*
X1145000D01*
Y1518998D01*
X1148332D01*
X1145000D01*
Y1514000D01*
X1154997Y1523997D02*
Y1514000D01*
X1161661D01*
X1164994D02*
X1168326D01*
X1166660D01*
Y1523997D01*
X1164994Y1522331D01*
X380500Y2274747D02*
Y2264750D01*
X387164D01*
X390497D02*
X393829D01*
X392163D01*
Y2274747D01*
X390497Y2273081D01*
X1740787Y1583432D02*
Y1573435D01*
X1747452D01*
X1750784Y1581765D02*
X1752450Y1583432D01*
X1755782D01*
X1757449Y1581765D01*
Y1580099D01*
X1755782Y1578433D01*
X1754116D01*
X1755782D01*
X1757449Y1576767D01*
Y1575101D01*
X1755782Y1573435D01*
X1752450D01*
X1750784Y1575101D01*
X1501003Y1691500D02*
X1511000D01*
Y1698165D01*
Y1706495D02*
X1501003D01*
X1506002Y1701497D01*
Y1708161D01*
X1739598Y1731375D02*
Y1721379D01*
X1746262D01*
X1756259Y1731375D02*
X1749594D01*
Y1726377D01*
X1752927Y1728043D01*
X1754593D01*
X1756259Y1726377D01*
Y1723045D01*
X1754593Y1721379D01*
X1751261D01*
X1749594Y1723045D01*
X1550000Y1572997D02*
Y1563000D01*
X1556664D01*
X1566661Y1572997D02*
X1563329Y1571331D01*
X1559997Y1567998D01*
Y1564666D01*
X1561663Y1563000D01*
X1564995D01*
X1566661Y1564666D01*
Y1566332D01*
X1564995Y1567998D01*
X1559997D01*
X1371915Y1959166D02*
Y1965831D01*
X1370248Y1967497D01*
X1366916D01*
X1365250Y1965831D01*
Y1959166D01*
X1366916Y1957500D01*
X1370248D01*
X1368582Y1960832D02*
X1371915Y1957500D01*
X1370248D02*
X1371915Y1959166D01*
X1375247Y1957500D02*
X1378579D01*
X1376913D01*
Y1967497D01*
X1375247Y1965831D01*
X1388576Y1957500D02*
Y1967497D01*
X1383577Y1962498D01*
X1390242D01*
X1550000Y2243500D02*
Y2253497D01*
X1554998D01*
X1556664Y2251831D01*
Y2248498D01*
X1554998Y2246832D01*
X1550000D01*
X1553332D02*
X1556664Y2243500D01*
X1559997Y2251831D02*
X1561663Y2253497D01*
X1564995D01*
X1566661Y2251831D01*
Y2250164D01*
X1564995Y2248498D01*
X1563329D01*
X1564995D01*
X1566661Y2246832D01*
Y2245166D01*
X1564995Y2243500D01*
X1561663D01*
X1559997Y2245166D01*
X1510500Y2241250D02*
Y2251247D01*
X1515498D01*
X1517164Y2249581D01*
Y2246248D01*
X1515498Y2244582D01*
X1510500D01*
X1513832D02*
X1517164Y2241250D01*
X1525495D02*
Y2251247D01*
X1520497Y2246248D01*
X1527161D01*
X273000Y2279000D02*
Y2288997D01*
X277998D01*
X279664Y2287331D01*
Y2283998D01*
X277998Y2282332D01*
X273000D01*
X276332D02*
X279664Y2279000D01*
X289661Y2288997D02*
X282997D01*
Y2283998D01*
X286329Y2285665D01*
X287995D01*
X289661Y2283998D01*
Y2280666D01*
X287995Y2279000D01*
X284663D01*
X282997Y2280666D01*
X265500Y2188500D02*
X255503D01*
Y2193498D01*
X257169Y2195164D01*
X260502D01*
X262168Y2193498D01*
Y2188500D01*
Y2191832D02*
X265500Y2195164D01*
X255503Y2205161D02*
X257169Y2201829D01*
X260502Y2198497D01*
X263834D01*
X265500Y2200163D01*
Y2203495D01*
X263834Y2205161D01*
X262168D01*
X260502Y2203495D01*
Y2198497D01*
X1211000Y2310000D02*
Y2319997D01*
X1215998D01*
X1217664Y2318331D01*
Y2314998D01*
X1215998Y2313332D01*
X1211000D01*
X1214332D02*
X1217664Y2310000D01*
X1220997Y2319997D02*
X1227661D01*
Y2318331D01*
X1220997Y2311666D01*
Y2310000D01*
X1164000Y2324000D02*
Y2333997D01*
X1168998D01*
X1170665Y2332331D01*
Y2328998D01*
X1168998Y2327332D01*
X1164000D01*
X1167332D02*
X1170665Y2324000D01*
X1173997Y2332331D02*
X1175663Y2333997D01*
X1178995D01*
X1180661Y2332331D01*
Y2330665D01*
X1178995Y2328998D01*
X1180661Y2327332D01*
Y2325666D01*
X1178995Y2324000D01*
X1175663D01*
X1173997Y2325666D01*
Y2327332D01*
X1175663Y2328998D01*
X1173997Y2330665D01*
Y2332331D01*
X1175663Y2328998D02*
X1178995D01*
X1096500Y2315500D02*
X1086503D01*
Y2320498D01*
X1088169Y2322164D01*
X1091502D01*
X1093168Y2320498D01*
Y2315500D01*
Y2318832D02*
X1096500Y2322164D01*
X1094834Y2325497D02*
X1096500Y2327163D01*
Y2330495D01*
X1094834Y2332161D01*
X1088169D01*
X1086503Y2330495D01*
Y2327163D01*
X1088169Y2325497D01*
X1089836D01*
X1091502Y2327163D01*
Y2332161D01*
X1351750Y2212250D02*
Y2222247D01*
X1356748D01*
X1358414Y2220581D01*
Y2217248D01*
X1356748Y2215582D01*
X1351750D01*
X1355082D02*
X1358414Y2212250D01*
X1361747D02*
X1365079D01*
X1363413D01*
Y2222247D01*
X1361747Y2220581D01*
X1370077D02*
X1371744Y2222247D01*
X1375076D01*
X1376742Y2220581D01*
Y2213916D01*
X1375076Y2212250D01*
X1371744D01*
X1370077Y2213916D01*
Y2220581D01*
X1351750Y2179500D02*
Y2189497D01*
X1356748D01*
X1358414Y2187831D01*
Y2184498D01*
X1356748Y2182832D01*
X1351750D01*
X1355082D02*
X1358414Y2179500D01*
X1361747D02*
X1365079D01*
X1363413D01*
Y2189497D01*
X1361747Y2187831D01*
X1370077Y2179500D02*
X1373410D01*
X1371744D01*
Y2189497D01*
X1370077Y2187831D01*
X1351500Y2146250D02*
Y2156247D01*
X1356498D01*
X1358165Y2154581D01*
Y2151248D01*
X1356498Y2149582D01*
X1351500D01*
X1354832D02*
X1358165Y2146250D01*
X1361497D02*
X1364829D01*
X1363163D01*
Y2156247D01*
X1361497Y2154581D01*
X1376492Y2146250D02*
X1369827D01*
X1376492Y2152914D01*
Y2154581D01*
X1374826Y2156247D01*
X1371494D01*
X1369827Y2154581D01*
X1351000Y2112750D02*
Y2122747D01*
X1355998D01*
X1357664Y2121081D01*
Y2117748D01*
X1355998Y2116082D01*
X1351000D01*
X1354332D02*
X1357664Y2112750D01*
X1360997D02*
X1364329D01*
X1362663D01*
Y2122747D01*
X1360997Y2121081D01*
X1369327D02*
X1370993Y2122747D01*
X1374326D01*
X1375992Y2121081D01*
Y2119415D01*
X1374326Y2117748D01*
X1372660D01*
X1374326D01*
X1375992Y2116082D01*
Y2114416D01*
X1374326Y2112750D01*
X1370993D01*
X1369327Y2114416D01*
X1351000Y2078750D02*
Y2088747D01*
X1355998D01*
X1357664Y2087081D01*
Y2083748D01*
X1355998Y2082082D01*
X1351000D01*
X1354332D02*
X1357664Y2078750D01*
X1360997D02*
X1364329D01*
X1362663D01*
Y2088747D01*
X1360997Y2087081D01*
X1374326Y2078750D02*
Y2088747D01*
X1369327Y2083748D01*
X1375992D01*
X1351250Y2046250D02*
Y2056247D01*
X1356248D01*
X1357914Y2054581D01*
Y2051248D01*
X1356248Y2049582D01*
X1351250D01*
X1354582D02*
X1357914Y2046250D01*
X1361247D02*
X1364579D01*
X1362913D01*
Y2056247D01*
X1361247Y2054581D01*
X1376242Y2056247D02*
X1369577D01*
Y2051248D01*
X1372910Y2052914D01*
X1374576D01*
X1376242Y2051248D01*
Y2047916D01*
X1374576Y2046250D01*
X1371244D01*
X1369577Y2047916D01*
X1080000Y2314000D02*
X1070003D01*
Y2318998D01*
X1071669Y2320665D01*
X1075002D01*
X1076668Y2318998D01*
Y2314000D01*
Y2317332D02*
X1080000Y2320665D01*
Y2323997D02*
Y2327329D01*
Y2325663D01*
X1070003D01*
X1071669Y2323997D01*
X1070003Y2338992D02*
X1071669Y2335660D01*
X1075002Y2332327D01*
X1078334D01*
X1080000Y2333994D01*
Y2337326D01*
X1078334Y2338992D01*
X1076668D01*
X1075002Y2337326D01*
Y2332327D01*
X1351500Y2196500D02*
Y2206497D01*
X1356498D01*
X1358165Y2204831D01*
Y2201498D01*
X1356498Y2199832D01*
X1351500D01*
X1354832D02*
X1358165Y2196500D01*
X1361497D02*
X1364829D01*
X1363163D01*
Y2206497D01*
X1361497Y2204831D01*
X1369827Y2206497D02*
X1376492D01*
Y2204831D01*
X1369827Y2198166D01*
Y2196500D01*
X1351500Y2163000D02*
Y2172997D01*
X1356498D01*
X1358165Y2171331D01*
Y2167998D01*
X1356498Y2166332D01*
X1351500D01*
X1354832D02*
X1358165Y2163000D01*
X1361497D02*
X1364829D01*
X1363163D01*
Y2172997D01*
X1361497Y2171331D01*
X1369827D02*
X1371494Y2172997D01*
X1374826D01*
X1376492Y2171331D01*
Y2169664D01*
X1374826Y2167998D01*
X1376492Y2166332D01*
Y2164666D01*
X1374826Y2163000D01*
X1371494D01*
X1369827Y2164666D01*
Y2166332D01*
X1371494Y2167998D01*
X1369827Y2169664D01*
Y2171331D01*
X1371494Y2167998D02*
X1374826D01*
X1351250Y2130500D02*
Y2140497D01*
X1356248D01*
X1357914Y2138831D01*
Y2135498D01*
X1356248Y2133832D01*
X1351250D01*
X1354582D02*
X1357914Y2130500D01*
X1361247D02*
X1364579D01*
X1362913D01*
Y2140497D01*
X1361247Y2138831D01*
X1369577Y2132166D02*
X1371244Y2130500D01*
X1374576D01*
X1376242Y2132166D01*
Y2138831D01*
X1374576Y2140497D01*
X1371244D01*
X1369577Y2138831D01*
Y2137164D01*
X1371244Y2135498D01*
X1376242D01*
X1351250Y2095750D02*
Y2105747D01*
X1356248D01*
X1357914Y2104081D01*
Y2100748D01*
X1356248Y2099082D01*
X1351250D01*
X1354582D02*
X1357914Y2095750D01*
X1367911D02*
X1361247D01*
X1367911Y2102415D01*
Y2104081D01*
X1366245Y2105747D01*
X1362913D01*
X1361247Y2104081D01*
X1371244D02*
X1372910Y2105747D01*
X1376242D01*
X1377908Y2104081D01*
Y2097416D01*
X1376242Y2095750D01*
X1372910D01*
X1371244Y2097416D01*
Y2104081D01*
X1351250Y2063000D02*
Y2072997D01*
X1356248D01*
X1357914Y2071331D01*
Y2067998D01*
X1356248Y2066332D01*
X1351250D01*
X1354582D02*
X1357914Y2063000D01*
X1367911D02*
X1361247D01*
X1367911Y2069664D01*
Y2071331D01*
X1366245Y2072997D01*
X1362913D01*
X1361247Y2071331D01*
X1371244Y2063000D02*
X1374576D01*
X1372910D01*
Y2072997D01*
X1371244Y2071331D01*
X1351000Y2030750D02*
Y2040747D01*
X1355998D01*
X1357664Y2039081D01*
Y2035748D01*
X1355998Y2034082D01*
X1351000D01*
X1354332D02*
X1357664Y2030750D01*
X1367661D02*
X1360997D01*
X1367661Y2037415D01*
Y2039081D01*
X1365995Y2040747D01*
X1362663D01*
X1360997Y2039081D01*
X1377658Y2030750D02*
X1370993D01*
X1377658Y2037415D01*
Y2039081D01*
X1375992Y2040747D01*
X1372660D01*
X1370993Y2039081D01*
X1310000Y2221750D02*
Y2231747D01*
X1314998D01*
X1316664Y2230081D01*
Y2226748D01*
X1314998Y2225082D01*
X1310000D01*
X1313332D02*
X1316664Y2221750D01*
X1326661D02*
X1319997D01*
X1326661Y2228414D01*
Y2230081D01*
X1324995Y2231747D01*
X1321663D01*
X1319997Y2230081D01*
X1329994D02*
X1331660Y2231747D01*
X1334992D01*
X1336658Y2230081D01*
Y2228414D01*
X1334992Y2226748D01*
X1333326D01*
X1334992D01*
X1336658Y2225082D01*
Y2223416D01*
X1334992Y2221750D01*
X1331660D01*
X1329994Y2223416D01*
X1263500Y2221500D02*
Y2231497D01*
X1268498D01*
X1270164Y2229831D01*
Y2226498D01*
X1268498Y2224832D01*
X1263500D01*
X1266832D02*
X1270164Y2221500D01*
X1280161D02*
X1273497D01*
X1280161Y2228165D01*
Y2229831D01*
X1278495Y2231497D01*
X1275163D01*
X1273497Y2229831D01*
X1290158Y2231497D02*
X1283493D01*
Y2226498D01*
X1286826Y2228165D01*
X1288492D01*
X1290158Y2226498D01*
Y2223166D01*
X1288492Y2221500D01*
X1285160D01*
X1283493Y2223166D01*
X1352000Y2333250D02*
X1342003D01*
Y2338248D01*
X1343669Y2339915D01*
X1347002D01*
X1348668Y2338248D01*
Y2333250D01*
Y2336582D02*
X1352000Y2339915D01*
Y2349911D02*
Y2343247D01*
X1345336Y2349911D01*
X1343669D01*
X1342003Y2348245D01*
Y2344913D01*
X1343669Y2343247D01*
X1342003Y2353244D02*
Y2359908D01*
X1343669D01*
X1350334Y2353244D01*
X1352000D01*
X811500Y1719000D02*
Y1728997D01*
X816498D01*
X818165Y1727331D01*
Y1723998D01*
X816498Y1722332D01*
X811500D01*
X814832D02*
X818165Y1719000D01*
X828161D02*
X821497D01*
X828161Y1725665D01*
Y1727331D01*
X826495Y1728997D01*
X823163D01*
X821497Y1727331D01*
X831494Y1720666D02*
X833160Y1719000D01*
X836492D01*
X838158Y1720666D01*
Y1727331D01*
X836492Y1728997D01*
X833160D01*
X831494Y1727331D01*
Y1725665D01*
X833160Y1723998D01*
X838158D01*
X1344500Y1959500D02*
X1334503D01*
Y1964498D01*
X1336169Y1966165D01*
X1339502D01*
X1341168Y1964498D01*
Y1959500D01*
Y1962832D02*
X1344500Y1966165D01*
X1334503Y1976161D02*
X1336169Y1972829D01*
X1339502Y1969497D01*
X1342834D01*
X1344500Y1971163D01*
Y1974495D01*
X1342834Y1976161D01*
X1341168D01*
X1339502Y1974495D01*
Y1969497D01*
X1344500Y1984492D02*
X1334503D01*
X1339502Y1979494D01*
Y1986158D01*
X1544500Y2168000D02*
X1534503D01*
Y2172998D01*
X1536169Y2174664D01*
X1539502D01*
X1541168Y2172998D01*
Y2168000D01*
Y2171332D02*
X1544500Y2174664D01*
X1534503Y2184661D02*
X1536169Y2181329D01*
X1539502Y2177997D01*
X1542834D01*
X1544500Y2179663D01*
Y2182995D01*
X1542834Y2184661D01*
X1541168D01*
X1539502Y2182995D01*
Y2177997D01*
X1534503Y2194658D02*
Y2187994D01*
X1539502D01*
X1537836Y2191326D01*
Y2192992D01*
X1539502Y2194658D01*
X1542834D01*
X1544500Y2192992D01*
Y2189660D01*
X1542834Y2187994D01*
X967250Y2130247D02*
Y2121916D01*
X968916Y2120250D01*
X972248D01*
X973914Y2121916D01*
Y2130247D01*
X977247Y2120250D02*
X980579D01*
X978913D01*
Y2130247D01*
X977247Y2128581D01*
X1052500Y2161997D02*
Y2153666D01*
X1054166Y2152000D01*
X1057498D01*
X1059165Y2153666D01*
Y2161997D01*
X1069161Y2152000D02*
X1062497D01*
X1069161Y2158665D01*
Y2160331D01*
X1067495Y2161997D01*
X1064163D01*
X1062497Y2160331D01*
X351000Y2196997D02*
Y2188666D01*
X352666Y2187000D01*
X355998D01*
X357664Y2188666D01*
Y2196997D01*
X360997Y2195331D02*
X362663Y2196997D01*
X365995D01*
X367661Y2195331D01*
Y2193665D01*
X365995Y2191998D01*
X364329D01*
X365995D01*
X367661Y2190332D01*
Y2188666D01*
X365995Y2187000D01*
X362663D01*
X360997Y2188666D01*
X1041750Y1825997D02*
Y1817666D01*
X1043416Y1816000D01*
X1046748D01*
X1048415Y1817666D01*
Y1825997D01*
X1058411D02*
X1051747D01*
Y1820998D01*
X1055079Y1822664D01*
X1056745D01*
X1058411Y1820998D01*
Y1817666D01*
X1056745Y1816000D01*
X1053413D01*
X1051747Y1817666D01*
X758750Y2222997D02*
Y2214666D01*
X760416Y2213000D01*
X763748D01*
X765415Y2214666D01*
Y2222997D01*
X768747Y2221331D02*
X770413Y2222997D01*
X773745D01*
X775411Y2221331D01*
Y2219664D01*
X773745Y2217998D01*
X775411Y2216332D01*
Y2214666D01*
X773745Y2213000D01*
X770413D01*
X768747Y2214666D01*
Y2216332D01*
X770413Y2217998D01*
X768747Y2219664D01*
Y2221331D01*
X770413Y2217998D02*
X773745D01*
X681003Y1932000D02*
X689334D01*
X691000Y1933666D01*
Y1936998D01*
X689334Y1938665D01*
X681003D01*
X691000Y1941997D02*
Y1945329D01*
Y1943663D01*
X681003D01*
X682669Y1941997D01*
X691000Y1956992D02*
Y1950327D01*
X684335Y1956992D01*
X682669D01*
X681003Y1955326D01*
Y1951994D01*
X682669Y1950327D01*
X721750Y1876747D02*
Y1868416D01*
X723416Y1866750D01*
X726748D01*
X728415Y1868416D01*
Y1876747D01*
X731747Y1866750D02*
X735079D01*
X733413D01*
Y1876747D01*
X731747Y1875081D01*
X745076Y1866750D02*
Y1876747D01*
X740077Y1871748D01*
X746742D01*
X681253Y1879000D02*
X689584D01*
X691250Y1880666D01*
Y1883998D01*
X689584Y1885665D01*
X681253D01*
X691250Y1888997D02*
Y1892329D01*
Y1890663D01*
X681253D01*
X682919Y1888997D01*
Y1897327D02*
X681253Y1898994D01*
Y1902326D01*
X682919Y1903992D01*
X684585D01*
X686252Y1902326D01*
Y1900660D01*
Y1902326D01*
X687918Y1903992D01*
X689584D01*
X691250Y1902326D01*
Y1898994D01*
X689584Y1897327D01*
X681253Y1825000D02*
X689584D01*
X691250Y1826666D01*
Y1829998D01*
X689584Y1831664D01*
X681253D01*
X691250Y1834997D02*
Y1838329D01*
Y1836663D01*
X681253D01*
X682919Y1834997D01*
X681253Y1849992D02*
Y1843327D01*
X686252D01*
X684585Y1846660D01*
Y1848326D01*
X686252Y1849992D01*
X689584D01*
X691250Y1848326D01*
Y1844994D01*
X689584Y1843327D01*
X1464250Y1972997D02*
Y1964666D01*
X1465916Y1963000D01*
X1469248D01*
X1470914Y1964666D01*
Y1972997D01*
X1474247Y1963000D02*
X1477579D01*
X1475913D01*
Y1972997D01*
X1474247Y1971331D01*
X1489242Y1972997D02*
X1485910Y1971331D01*
X1482577Y1967998D01*
Y1964666D01*
X1484243Y1963000D01*
X1487576D01*
X1489242Y1964666D01*
Y1966332D01*
X1487576Y1967998D01*
X1482577D01*
X489486Y1997702D02*
Y2007699D01*
X494484D01*
X496151Y2006033D01*
Y2002700D01*
X494484Y2001034D01*
X489486D01*
X499483Y1997702D02*
X502815D01*
X501149D01*
Y2007699D01*
X499483Y2006033D01*
X1005665Y2249331D02*
X1003998Y2250997D01*
X1000666D01*
X999000Y2249331D01*
Y2242666D01*
X1000666Y2241000D01*
X1003998D01*
X1005665Y2242666D01*
X1015661Y2250997D02*
X1008997D01*
Y2245998D01*
X1012329Y2247664D01*
X1013995D01*
X1015661Y2245998D01*
Y2242666D01*
X1013995Y2241000D01*
X1010663D01*
X1008997Y2242666D01*
X872919Y2051915D02*
X871253Y2050248D01*
Y2046916D01*
X872919Y2045250D01*
X879584D01*
X881250Y2046916D01*
Y2050248D01*
X879584Y2051915D01*
X881250Y2055247D02*
Y2058579D01*
Y2056913D01*
X871253D01*
X872919Y2055247D01*
X881250Y2068576D02*
X871253D01*
X876252Y2063577D01*
Y2070242D01*
X1177915Y1849581D02*
X1176248Y1851247D01*
X1172916D01*
X1171250Y1849581D01*
Y1842916D01*
X1172916Y1841250D01*
X1176248D01*
X1177915Y1842916D01*
X1187911Y1841250D02*
X1181247D01*
X1187911Y1847914D01*
Y1849581D01*
X1186245Y1851247D01*
X1182913D01*
X1181247Y1849581D01*
X1191244D02*
X1192910Y1851247D01*
X1196242D01*
X1197908Y1849581D01*
Y1842916D01*
X1196242Y1841250D01*
X1192910D01*
X1191244Y1842916D01*
Y1849581D01*
X503000Y2273750D02*
X493003D01*
Y2278748D01*
X494669Y2280414D01*
X498002D01*
X499668Y2278748D01*
Y2273750D01*
Y2277082D02*
X503000Y2280414D01*
X493003Y2290411D02*
Y2283747D01*
X498002D01*
X496335Y2287079D01*
Y2288745D01*
X498002Y2290411D01*
X501334D01*
X503000Y2288745D01*
Y2285413D01*
X501334Y2283747D01*
X503000Y2298742D02*
X493003D01*
X498002Y2293743D01*
Y2300408D01*
X1307000Y2283000D02*
Y2292997D01*
X1311998D01*
X1313665Y2291331D01*
Y2287998D01*
X1311998Y2286332D01*
X1307000D01*
X1310332D02*
X1313665Y2283000D01*
X1323661D02*
X1316997D01*
X1323661Y2289664D01*
Y2291331D01*
X1321995Y2292997D01*
X1318663D01*
X1316997Y2291331D01*
X1333658Y2292997D02*
X1330326Y2291331D01*
X1326994Y2287998D01*
Y2284666D01*
X1328660Y2283000D01*
X1331992D01*
X1333658Y2284666D01*
Y2286332D01*
X1331992Y2287998D01*
X1326994D01*
X1262000Y2282000D02*
Y2291997D01*
X1266998D01*
X1268664Y2290331D01*
Y2286998D01*
X1266998Y2285332D01*
X1262000D01*
X1265332D02*
X1268664Y2282000D01*
X1278661D02*
X1271997D01*
X1278661Y2288665D01*
Y2290331D01*
X1276995Y2291997D01*
X1273663D01*
X1271997Y2290331D01*
X1281994D02*
X1283660Y2291997D01*
X1286992D01*
X1288658Y2290331D01*
Y2288665D01*
X1286992Y2286998D01*
X1288658Y2285332D01*
Y2283666D01*
X1286992Y2282000D01*
X1283660D01*
X1281994Y2283666D01*
Y2285332D01*
X1283660Y2286998D01*
X1281994Y2288665D01*
Y2290331D01*
X1283660Y2286998D02*
X1286992D01*
X318000Y2404497D02*
Y2394500D01*
Y2399498D01*
X324664D01*
Y2404497D01*
Y2394500D01*
X327997D02*
X331329D01*
X329663D01*
Y2404497D01*
X327997Y2402831D01*
X817000Y2406997D02*
Y2397000D01*
Y2401998D01*
X823664D01*
Y2406997D01*
Y2397000D01*
X833661D02*
X826997D01*
X833661Y2403665D01*
Y2405331D01*
X831995Y2406997D01*
X828663D01*
X826997Y2405331D01*
X1234000Y2359747D02*
Y2349750D01*
Y2354748D01*
X1240665D01*
Y2359747D01*
Y2349750D01*
X1243997Y2358081D02*
X1245663Y2359747D01*
X1248995D01*
X1250661Y2358081D01*
Y2356414D01*
X1248995Y2354748D01*
X1247329D01*
X1248995D01*
X1250661Y2353082D01*
Y2351416D01*
X1248995Y2349750D01*
X1245663D01*
X1243997Y2351416D01*
X1730750Y2310747D02*
Y2300750D01*
Y2305748D01*
X1737415D01*
Y2310747D01*
Y2300750D01*
X1745745D02*
Y2310747D01*
X1740747Y2305748D01*
X1747411D01*
X1746024Y1933023D02*
Y1923026D01*
Y1928024D01*
X1752688D01*
Y1933023D01*
Y1923026D01*
X1762685Y1933023D02*
X1756021D01*
Y1928024D01*
X1759353Y1929691D01*
X1761019D01*
X1762685Y1928024D01*
Y1924692D01*
X1761019Y1923026D01*
X1757687D01*
X1756021Y1924692D01*
X1744000Y1539997D02*
Y1530000D01*
Y1534998D01*
X1750665D01*
Y1539997D01*
Y1530000D01*
X1760661Y1539997D02*
X1757329Y1538331D01*
X1753997Y1534998D01*
Y1531666D01*
X1755663Y1530000D01*
X1758995D01*
X1760661Y1531666D01*
Y1533332D01*
X1758995Y1534998D01*
X1753997D01*
X1224750Y1439997D02*
Y1430000D01*
Y1434998D01*
X1231414D01*
Y1439997D01*
Y1430000D01*
X1234747Y1439997D02*
X1241411D01*
Y1438331D01*
X1234747Y1431666D01*
Y1430000D01*
X817500Y1397997D02*
Y1388000D01*
Y1392998D01*
X824165D01*
Y1397997D01*
Y1388000D01*
X827497Y1396331D02*
X829163Y1397997D01*
X832495D01*
X834161Y1396331D01*
Y1394664D01*
X832495Y1392998D01*
X834161Y1391332D01*
Y1389666D01*
X832495Y1388000D01*
X829163D01*
X827497Y1389666D01*
Y1391332D01*
X829163Y1392998D01*
X827497Y1394664D01*
Y1396331D01*
X829163Y1392998D02*
X832495D01*
X258500Y1432747D02*
Y1422750D01*
Y1427748D01*
X265165D01*
Y1432747D01*
Y1422750D01*
X268497Y1424416D02*
X270163Y1422750D01*
X273495D01*
X275161Y1424416D01*
Y1431081D01*
X273495Y1432747D01*
X270163D01*
X268497Y1431081D01*
Y1429415D01*
X270163Y1427748D01*
X275161D01*
X270000Y1932497D02*
Y1922500D01*
Y1927498D01*
X276665D01*
Y1932497D01*
Y1922500D01*
X279997D02*
X283329D01*
X281663D01*
Y1932497D01*
X279997Y1930831D01*
X288327D02*
X289994Y1932497D01*
X293326D01*
X294992Y1930831D01*
Y1924166D01*
X293326Y1922500D01*
X289994D01*
X288327Y1924166D01*
Y1930831D01*
X979750Y1921997D02*
Y1912000D01*
Y1916998D01*
X986414D01*
Y1921997D01*
Y1912000D01*
X989747D02*
X993079D01*
X991413D01*
Y1921997D01*
X989747Y1920331D01*
X998077Y1912000D02*
X1001410D01*
X999743D01*
Y1921997D01*
X998077Y1920331D01*
X961665Y1468331D02*
X959998Y1469997D01*
X956666D01*
X955000Y1468331D01*
Y1461666D01*
X956666Y1460000D01*
X959998D01*
X961665Y1461666D01*
X964997Y1468331D02*
X966663Y1469997D01*
X969995D01*
X971661Y1468331D01*
Y1466664D01*
X969995Y1464998D01*
X971661Y1463332D01*
Y1461666D01*
X969995Y1460000D01*
X966663D01*
X964997Y1461666D01*
Y1463332D01*
X966663Y1464998D01*
X964997Y1466664D01*
Y1468331D01*
X966663Y1464998D02*
X969995D01*
X981658Y1469997D02*
X974994D01*
Y1464998D01*
X978326Y1466664D01*
X979992D01*
X981658Y1464998D01*
Y1461666D01*
X979992Y1460000D01*
X976660D01*
X974994Y1461666D01*
X1717750Y2077247D02*
Y2068916D01*
X1719416Y2067250D01*
X1722748D01*
X1724415Y2068916D01*
Y2077247D01*
X1727747Y2067250D02*
X1731079D01*
X1729413D01*
Y2077247D01*
X1727747Y2075581D01*
X1736077D02*
X1737744Y2077247D01*
X1741076D01*
X1742742Y2075581D01*
Y2073914D01*
X1741076Y2072248D01*
X1742742Y2070582D01*
Y2068916D01*
X1741076Y2067250D01*
X1737744D01*
X1736077Y2068916D01*
Y2070582D01*
X1737744Y2072248D01*
X1736077Y2073914D01*
Y2075581D01*
X1737744Y2072248D02*
X1741076D01*
X933500Y787250D02*
Y810250D01*
X892500Y787250D02*
Y810250D01*
X933500D01*
X892500Y787250D02*
X933500D01*
X815250Y1205500D02*
Y1228500D01*
X856250Y1205500D02*
Y1228500D01*
X815250Y1205500D02*
X856250D01*
X815250Y1228500D02*
X856250D01*
X1578500Y1185650D02*
X1613500D01*
X1578500Y1117650D02*
X1613500D01*
X444500Y930500D02*
X448000D01*
X426000D02*
X429500D01*
X426000Y925000D02*
Y930500D01*
X448000Y925000D02*
Y930500D01*
X400000Y871000D02*
Y1003000D01*
X307000Y871000D02*
X400000D01*
X270000Y908000D02*
X307000Y871000D01*
X270000Y908000D02*
Y1003000D01*
X400000D01*
X1610000Y1029000D02*
X1780000D01*
X1610000Y859000D02*
Y1029000D01*
X1780000Y859000D02*
Y1029000D01*
X1610000Y859000D02*
X1780000D01*
X1668130Y1177210D02*
X1683874D01*
X1668130Y1178210D02*
X1683874D01*
X1668130Y1179210D02*
X1683874D01*
X1668130Y1180210D02*
X1683874D01*
X1668130Y1181210D02*
X1683874D01*
Y1162538D02*
Y1189210D01*
X1668130Y1162538D02*
Y1189210D01*
X1343000Y994000D02*
X1369000D01*
X1265000D02*
X1291000D01*
X1369000D02*
Y1092000D01*
X1350000Y1111000D02*
X1369000Y1092000D01*
X1265000D02*
X1284000Y1111000D01*
X1265000Y994000D02*
Y1092000D01*
X1264000Y940000D02*
X1290000D01*
X1342000D02*
X1368000D01*
X1264000Y842000D02*
Y940000D01*
Y842000D02*
X1283000Y823000D01*
X1349000D02*
X1368000Y842000D01*
Y940000D01*
X804500Y423000D02*
X830500D01*
X882500D02*
X908500D01*
X804500Y325000D02*
Y423000D01*
Y325000D02*
X823500Y306000D01*
X889500D02*
X908500Y325000D01*
Y423000D01*
X1133000Y423000D02*
X1159000D01*
X1211000D02*
X1237000D01*
X1133000Y325000D02*
Y423000D01*
Y325000D02*
X1152000Y306000D01*
X1218000D02*
X1237000Y325000D01*
Y423000D01*
X719750Y608750D02*
Y634750D01*
Y686750D02*
Y712750D01*
Y608750D02*
X817750D01*
X836750Y627750D01*
X817750Y712750D02*
X836750Y693750D01*
X719750Y712750D02*
X817750D01*
X883500Y608750D02*
Y634750D01*
Y686750D02*
Y712750D01*
Y608750D02*
X981500D01*
X1000500Y627750D01*
X981500Y712750D02*
X1000500Y693750D01*
X883500Y712750D02*
X981500D01*
X1046500Y608750D02*
Y634750D01*
Y686750D02*
Y712750D01*
Y608750D02*
X1144500D01*
X1163500Y627750D01*
X1144500Y712750D02*
X1163500Y693750D01*
X1046500Y712750D02*
X1144500D01*
X1206000Y608750D02*
Y634750D01*
Y686750D02*
Y712750D01*
Y608750D02*
X1304000D01*
X1323000Y627750D01*
X1304000Y712750D02*
X1323000Y693750D01*
X1206000Y712750D02*
X1304000D01*
X953000Y325400D02*
X1017000D01*
X953000D02*
Y350400D01*
X960000D01*
Y400400D01*
X953000D02*
X960000D01*
X953000D02*
Y425400D01*
X1017000D01*
Y325400D02*
Y425400D01*
X1059000Y325000D02*
X1123000D01*
X1059000D02*
Y350000D01*
X1066000D01*
Y400000D01*
X1059000D02*
X1066000D01*
X1059000D02*
Y425000D01*
X1123000D01*
Y325000D02*
Y425000D01*
X819600Y513000D02*
Y577000D01*
X794600Y513000D02*
X819600D01*
X794600D02*
Y520000D01*
X744600D02*
X794600D01*
X744600Y513000D02*
Y520000D01*
X719600Y513000D02*
X744600D01*
X719600D02*
Y577000D01*
X819600D01*
X984600Y513000D02*
Y577000D01*
X959600Y513000D02*
X984600D01*
X959600D02*
Y520000D01*
X909600D02*
X959600D01*
X909600Y513000D02*
Y520000D01*
X884600Y513000D02*
X909600D01*
X884600D02*
Y577000D01*
X984600D01*
X1144600Y513000D02*
Y577000D01*
X1119600Y513000D02*
X1144600D01*
X1119600D02*
Y520000D01*
X1069600D02*
X1119600D01*
X1069600Y513000D02*
Y520000D01*
X1044600Y513000D02*
X1069600D01*
X1044600D02*
Y577000D01*
X1144600D01*
X1304600Y513000D02*
Y577000D01*
X1279600Y513000D02*
X1304600D01*
X1279600D02*
Y520000D01*
X1229600D02*
X1279600D01*
X1229600Y513000D02*
Y520000D01*
X1204600Y513000D02*
X1229600D01*
X1204600D02*
Y577000D01*
X1304600D01*
X674906Y411637D02*
X681571D01*
X678238D01*
Y401640D01*
X684903D02*
Y411637D01*
X689901D01*
X691567Y409971D01*
Y406638D01*
X689901Y404972D01*
X684903D01*
X699898Y401640D02*
Y411637D01*
X694900Y406638D01*
X701564D01*
X711561Y401640D02*
X704896D01*
X711561Y408304D01*
Y409971D01*
X709895Y411637D01*
X706562D01*
X704896Y409971D01*
X614000Y432000D02*
Y441997D01*
X618998D01*
X620664Y440331D01*
Y436998D01*
X618998Y435332D01*
X614000D01*
X617332D02*
X620664Y432000D01*
X623997Y440331D02*
X625663Y441997D01*
X628995D01*
X630661Y440331D01*
Y438665D01*
X628995Y436998D01*
X630661Y435332D01*
Y433666D01*
X628995Y432000D01*
X625663D01*
X623997Y433666D01*
Y435332D01*
X625663Y436998D01*
X623997Y438665D01*
Y440331D01*
X625663Y436998D02*
X628995D01*
X640658Y432000D02*
X633994D01*
X640658Y438665D01*
Y440331D01*
X638992Y441997D01*
X635660D01*
X633994Y440331D01*
X1478000Y461000D02*
X1468003D01*
Y465998D01*
X1469669Y467664D01*
X1473002D01*
X1474668Y465998D01*
Y461000D01*
Y464332D02*
X1478000Y467664D01*
X1469669Y470997D02*
X1468003Y472663D01*
Y475995D01*
X1469669Y477661D01*
X1471335D01*
X1473002Y475995D01*
X1474668Y477661D01*
X1476334D01*
X1478000Y475995D01*
Y472663D01*
X1476334Y470997D01*
X1474668D01*
X1473002Y472663D01*
X1471335Y470997D01*
X1469669D01*
X1473002Y472663D02*
Y475995D01*
X1478000Y480994D02*
Y484326D01*
Y482660D01*
X1468003D01*
X1469669Y480994D01*
X1521664Y1082666D02*
Y1089331D01*
X1519998Y1090997D01*
X1516666D01*
X1515000Y1089331D01*
Y1082666D01*
X1516666Y1081000D01*
X1519998D01*
X1518332Y1084332D02*
X1521664Y1081000D01*
X1519998D02*
X1521664Y1082666D01*
X1531661Y1090997D02*
X1524997D01*
Y1085998D01*
X1528329Y1087664D01*
X1529995D01*
X1531661Y1085998D01*
Y1082666D01*
X1529995Y1081000D01*
X1526663D01*
X1524997Y1082666D01*
X269000Y1091997D02*
Y1083666D01*
X270666Y1082000D01*
X273998D01*
X275665Y1083666D01*
Y1091997D01*
X285661Y1082000D02*
X278997D01*
X285661Y1088664D01*
Y1090331D01*
X283995Y1091997D01*
X280663D01*
X278997Y1090331D01*
X288994Y1082000D02*
X292326D01*
X290660D01*
Y1091997D01*
X288994Y1090331D01*
X946000Y811997D02*
Y803666D01*
X947666Y802000D01*
X950998D01*
X952664Y803666D01*
Y811997D01*
X955997Y802000D02*
X959329D01*
X957663D01*
Y811997D01*
X955997Y810331D01*
X964327Y802000D02*
X967660D01*
X965993D01*
Y811997D01*
X964327Y810331D01*
X867000Y1253997D02*
Y1245666D01*
X868666Y1244000D01*
X871998D01*
X873664Y1245666D01*
Y1253997D01*
X876997Y1245666D02*
X878663Y1244000D01*
X881995D01*
X883661Y1245666D01*
Y1252331D01*
X881995Y1253997D01*
X878663D01*
X876997Y1252331D01*
Y1250665D01*
X878663Y1248998D01*
X883661D01*
X1590000Y1211997D02*
Y1203666D01*
X1591666Y1202000D01*
X1594998D01*
X1596664Y1203666D01*
Y1211997D01*
X1599997Y1202000D02*
X1603329D01*
X1601663D01*
Y1211997D01*
X1599997Y1210331D01*
X1608327D02*
X1609994Y1211997D01*
X1613326D01*
X1614992Y1210331D01*
Y1203666D01*
X1613326Y1202000D01*
X1609994D01*
X1608327Y1203666D01*
Y1210331D01*
X379250Y690021D02*
Y681690D01*
X380916Y680024D01*
X384248D01*
X385914Y681690D01*
Y690021D01*
X395911Y680024D02*
X389247D01*
X395911Y686689D01*
Y688355D01*
X394245Y690021D01*
X390913D01*
X389247Y688355D01*
X405908Y680024D02*
X399244D01*
X405908Y686689D01*
Y688355D01*
X404242Y690021D01*
X400910D01*
X399244Y688355D01*
X361216Y1163477D02*
X367881D01*
X364548D01*
Y1153480D01*
X371213D02*
Y1163477D01*
X376211D01*
X377877Y1161811D01*
Y1158478D01*
X376211Y1156812D01*
X371213D01*
X381209Y1161811D02*
X382876Y1163477D01*
X386208D01*
X387874Y1161811D01*
Y1160145D01*
X386208Y1158478D01*
X384542D01*
X386208D01*
X387874Y1156812D01*
Y1155146D01*
X386208Y1153480D01*
X382876D01*
X381209Y1155146D01*
X391206D02*
X392873Y1153480D01*
X396205D01*
X397871Y1155146D01*
Y1161811D01*
X396205Y1163477D01*
X392873D01*
X391206Y1161811D01*
Y1160145D01*
X392873Y1158478D01*
X397871D01*
X652000Y770997D02*
X658664D01*
X655332D01*
Y761000D01*
X661997D02*
Y770997D01*
X666995D01*
X668661Y769331D01*
Y765998D01*
X666995Y764332D01*
X661997D01*
X671994Y769331D02*
X673660Y770997D01*
X676992D01*
X678658Y769331D01*
Y767664D01*
X676992Y765998D01*
X675326D01*
X676992D01*
X678658Y764332D01*
Y762666D01*
X676992Y761000D01*
X673660D01*
X671994Y762666D01*
X681990Y769331D02*
X683656Y770997D01*
X686989D01*
X688655Y769331D01*
Y762666D01*
X686989Y761000D01*
X683656D01*
X681990Y762666D01*
Y769331D01*
X798604Y870361D02*
X805268D01*
X801936D01*
Y860364D01*
X808601D02*
Y870361D01*
X813599D01*
X815265Y868695D01*
Y865362D01*
X813599Y863696D01*
X808601D01*
X825262Y860364D02*
X818597D01*
X825262Y867029D01*
Y868695D01*
X823596Y870361D01*
X820264D01*
X818597Y868695D01*
X828594Y862030D02*
X830260Y860364D01*
X833593D01*
X835259Y862030D01*
Y868695D01*
X833593Y870361D01*
X830260D01*
X828594Y868695D01*
Y867029D01*
X830260Y865362D01*
X835259D01*
X677700Y1282349D02*
X684364D01*
X681032D01*
Y1272352D01*
X687697D02*
Y1282349D01*
X692695D01*
X694361Y1280683D01*
Y1277350D01*
X692695Y1275684D01*
X687697D01*
X704358Y1272352D02*
X697693D01*
X704358Y1279016D01*
Y1280683D01*
X702692Y1282349D01*
X699360D01*
X697693Y1280683D01*
X707690Y1282349D02*
X714355D01*
Y1280683D01*
X707690Y1274018D01*
Y1272352D01*
X1223800Y833277D02*
X1230464D01*
X1227132D01*
Y823280D01*
X1233797D02*
Y833277D01*
X1238795D01*
X1240461Y831611D01*
Y828278D01*
X1238795Y826612D01*
X1233797D01*
X1250458Y823280D02*
X1243793D01*
X1250458Y829945D01*
Y831611D01*
X1248792Y833277D01*
X1245460D01*
X1243793Y831611D01*
X1260455Y833277D02*
X1257123Y831611D01*
X1253790Y828278D01*
Y824946D01*
X1255456Y823280D01*
X1258789D01*
X1260455Y824946D01*
Y826612D01*
X1258789Y828278D01*
X1253790D01*
X792000Y1144997D02*
X798664D01*
X795332D01*
Y1135000D01*
X801997D02*
Y1144997D01*
X806995D01*
X808661Y1143331D01*
Y1139998D01*
X806995Y1138332D01*
X801997D01*
X818658Y1135000D02*
X811993D01*
X818658Y1141665D01*
Y1143331D01*
X816992Y1144997D01*
X813660D01*
X811993Y1143331D01*
X828655Y1144997D02*
X821990D01*
Y1139998D01*
X825323Y1141665D01*
X826989D01*
X828655Y1139998D01*
Y1136666D01*
X826989Y1135000D01*
X823656D01*
X821990Y1136666D01*
X1182652Y1250345D02*
X1189316D01*
X1185984D01*
Y1240348D01*
X1192649D02*
Y1250345D01*
X1197647D01*
X1199313Y1248679D01*
Y1245346D01*
X1197647Y1243680D01*
X1192649D01*
X1209310Y1240348D02*
X1202646D01*
X1209310Y1247012D01*
Y1248679D01*
X1207644Y1250345D01*
X1204312D01*
X1202646Y1248679D01*
X1217641Y1240348D02*
Y1250345D01*
X1212642Y1245346D01*
X1219307D01*
X662206Y501045D02*
X668870D01*
X665538D01*
Y491048D01*
X672203D02*
Y501045D01*
X677201D01*
X678867Y499379D01*
Y496046D01*
X677201Y494380D01*
X672203D01*
X687198Y491048D02*
Y501045D01*
X682199Y496046D01*
X688864D01*
X692196Y491048D02*
X695529D01*
X693863D01*
Y501045D01*
X692196Y499379D01*
X564670Y579277D02*
X571334D01*
X568002D01*
Y569280D01*
X574667D02*
Y579277D01*
X579665D01*
X581331Y577611D01*
Y574278D01*
X579665Y572612D01*
X574667D01*
X589662Y569280D02*
Y579277D01*
X584664Y574278D01*
X591328D01*
X594660Y577611D02*
X596326Y579277D01*
X599659D01*
X601325Y577611D01*
Y570946D01*
X599659Y569280D01*
X596326D01*
X594660Y570946D01*
Y577611D01*
X435000Y1147000D02*
X425003D01*
Y1151998D01*
X426669Y1153664D01*
X430002D01*
X431668Y1151998D01*
Y1147000D01*
Y1150332D02*
X435000Y1153664D01*
X425003Y1156997D02*
Y1163661D01*
X426669D01*
X433334Y1156997D01*
X435000D01*
X426669Y1166994D02*
X425003Y1168660D01*
Y1171992D01*
X426669Y1173658D01*
X428335D01*
X430002Y1171992D01*
Y1170326D01*
Y1171992D01*
X431668Y1173658D01*
X433334D01*
X435000Y1171992D01*
Y1168660D01*
X433334Y1166994D01*
X436000Y1050000D02*
X426003D01*
Y1054998D01*
X427669Y1056665D01*
X431002D01*
X432668Y1054998D01*
Y1050000D01*
Y1053332D02*
X436000Y1056665D01*
X426003Y1059997D02*
Y1066661D01*
X427669D01*
X434334Y1059997D01*
X436000D01*
Y1076658D02*
Y1069994D01*
X429336Y1076658D01*
X427669D01*
X426003Y1074992D01*
Y1071660D01*
X427669Y1069994D01*
X436000Y1097000D02*
X426003D01*
Y1101998D01*
X427669Y1103664D01*
X431002D01*
X432668Y1101998D01*
Y1097000D01*
Y1100332D02*
X436000Y1103664D01*
X426003Y1106997D02*
Y1113661D01*
X427669D01*
X434334Y1106997D01*
X436000D01*
Y1116994D02*
Y1120326D01*
Y1118660D01*
X426003D01*
X427669Y1116994D01*
X708000Y763000D02*
X698003D01*
Y767998D01*
X699669Y769665D01*
X703002D01*
X704668Y767998D01*
Y763000D01*
Y766332D02*
X708000Y769665D01*
X698003Y779661D02*
Y772997D01*
X703002D01*
X701336Y776329D01*
Y777995D01*
X703002Y779661D01*
X706334D01*
X708000Y777995D01*
Y774663D01*
X706334Y772997D01*
X699669Y782994D02*
X698003Y784660D01*
Y787992D01*
X699669Y789658D01*
X706334D01*
X708000Y787992D01*
Y784660D01*
X706334Y782994D01*
X699669D01*
X708000Y795000D02*
X698003D01*
Y799998D01*
X699669Y801665D01*
X703002D01*
X704668Y799998D01*
Y795000D01*
Y798332D02*
X708000Y801665D01*
Y809995D02*
X698003D01*
X703002Y804997D01*
Y811661D01*
X706334Y814994D02*
X708000Y816660D01*
Y819992D01*
X706334Y821658D01*
X699669D01*
X698003Y819992D01*
Y816660D01*
X699669Y814994D01*
X701336D01*
X703002Y816660D01*
Y821658D01*
X460000Y890000D02*
Y899997D01*
X464998D01*
X466665Y898331D01*
Y894998D01*
X464998Y893332D01*
X460000D01*
X463332D02*
X466665Y890000D01*
X474995D02*
Y899997D01*
X469997Y894998D01*
X476661D01*
X479994Y898331D02*
X481660Y899997D01*
X484992D01*
X486658Y898331D01*
Y896665D01*
X484992Y894998D01*
X486658Y893332D01*
Y891666D01*
X484992Y890000D01*
X481660D01*
X479994Y891666D01*
Y893332D01*
X481660Y894998D01*
X479994Y896665D01*
Y898331D01*
X481660Y894998D02*
X484992D01*
X595150Y351348D02*
Y361345D01*
X600148D01*
X601814Y359679D01*
Y356346D01*
X600148Y354680D01*
X595150D01*
X598482D02*
X601814Y351348D01*
X610145D02*
Y361345D01*
X605147Y356346D01*
X611811D01*
X615144Y361345D02*
X621808D01*
Y359679D01*
X615144Y353014D01*
Y351348D01*
X646000Y1271000D02*
X636003D01*
Y1275998D01*
X637669Y1277664D01*
X641002D01*
X642668Y1275998D01*
Y1271000D01*
Y1274332D02*
X646000Y1277664D01*
Y1285995D02*
X636003D01*
X641002Y1280997D01*
Y1287661D01*
X636003Y1297658D02*
X637669Y1294326D01*
X641002Y1290994D01*
X644334D01*
X646000Y1292660D01*
Y1295992D01*
X644334Y1297658D01*
X642668D01*
X641002Y1295992D01*
Y1290994D01*
X599000Y679000D02*
Y688997D01*
X603998D01*
X605664Y687331D01*
Y683998D01*
X603998Y682332D01*
X599000D01*
X602332D02*
X605664Y679000D01*
X613995D02*
Y688997D01*
X608997Y683998D01*
X615661D01*
X625658Y688997D02*
X618994D01*
Y683998D01*
X622326Y685665D01*
X623992D01*
X625658Y683998D01*
Y680666D01*
X623992Y679000D01*
X620660D01*
X618994Y680666D01*
X579000Y1164000D02*
X569003D01*
Y1168998D01*
X570669Y1170665D01*
X574002D01*
X575668Y1168998D01*
Y1164000D01*
Y1167332D02*
X579000Y1170665D01*
Y1178995D02*
X569003D01*
X574002Y1173997D01*
Y1180661D01*
X579000Y1188992D02*
X569003D01*
X574002Y1183994D01*
Y1190658D01*
X1487000Y1167000D02*
Y1176997D01*
X1491998D01*
X1493665Y1175331D01*
Y1171998D01*
X1491998Y1170332D01*
X1487000D01*
X1490332D02*
X1493665Y1167000D01*
X1501995D02*
Y1176997D01*
X1496997Y1171998D01*
X1503661D01*
X1506994Y1175331D02*
X1508660Y1176997D01*
X1511992D01*
X1513658Y1175331D01*
Y1173664D01*
X1511992Y1171998D01*
X1510326D01*
X1511992D01*
X1513658Y1170332D01*
Y1168666D01*
X1511992Y1167000D01*
X1508660D01*
X1506994Y1168666D01*
X606000Y967000D02*
X596003D01*
Y971998D01*
X597669Y973664D01*
X601002D01*
X602668Y971998D01*
Y967000D01*
Y970332D02*
X606000Y973664D01*
Y981995D02*
X596003D01*
X601002Y976997D01*
Y983661D01*
X606000Y993658D02*
Y986994D01*
X599336Y993658D01*
X597669D01*
X596003Y991992D01*
Y988660D01*
X597669Y986994D01*
X1477000Y1215000D02*
X1467003D01*
Y1219998D01*
X1468669Y1221665D01*
X1472002D01*
X1473668Y1219998D01*
Y1215000D01*
Y1218332D02*
X1477000Y1221665D01*
Y1229995D02*
X1467003D01*
X1472002Y1224997D01*
Y1231661D01*
X1477000Y1234994D02*
Y1238326D01*
Y1236660D01*
X1467003D01*
X1468669Y1234994D01*
X1415000Y899000D02*
Y908997D01*
X1419998D01*
X1421664Y907331D01*
Y903998D01*
X1419998Y902332D01*
X1415000D01*
X1418332D02*
X1421664Y899000D01*
X1429995D02*
Y908997D01*
X1424997Y903998D01*
X1431661D01*
X1434993Y907331D02*
X1436660Y908997D01*
X1439992D01*
X1441658Y907331D01*
Y900666D01*
X1439992Y899000D01*
X1436660D01*
X1434993Y900666D01*
Y907331D01*
X1578000Y1209000D02*
X1568003D01*
Y1213998D01*
X1569669Y1215665D01*
X1573002D01*
X1574668Y1213998D01*
Y1209000D01*
Y1212332D02*
X1578000Y1215665D01*
X1569669Y1218997D02*
X1568003Y1220663D01*
Y1223995D01*
X1569669Y1225661D01*
X1571335D01*
X1573002Y1223995D01*
Y1222329D01*
Y1223995D01*
X1574668Y1225661D01*
X1576334D01*
X1578000Y1223995D01*
Y1220663D01*
X1576334Y1218997D01*
Y1228994D02*
X1578000Y1230660D01*
Y1233992D01*
X1576334Y1235658D01*
X1569669D01*
X1568003Y1233992D01*
Y1230660D01*
X1569669Y1228994D01*
X1571335D01*
X1573002Y1230660D01*
Y1235658D01*
X606000Y1008000D02*
X596003D01*
Y1012998D01*
X597669Y1014665D01*
X601002D01*
X602668Y1012998D01*
Y1008000D01*
Y1011332D02*
X606000Y1014665D01*
X597669Y1017997D02*
X596003Y1019663D01*
Y1022995D01*
X597669Y1024661D01*
X599336D01*
X601002Y1022995D01*
Y1021329D01*
Y1022995D01*
X602668Y1024661D01*
X604334D01*
X606000Y1022995D01*
Y1019663D01*
X604334Y1017997D01*
X597669Y1027994D02*
X596003Y1029660D01*
Y1032992D01*
X597669Y1034658D01*
X599336D01*
X601002Y1032992D01*
X602668Y1034658D01*
X604334D01*
X606000Y1032992D01*
Y1029660D01*
X604334Y1027994D01*
X602668D01*
X601002Y1029660D01*
X599336Y1027994D01*
X597669D01*
X601002Y1029660D02*
Y1032992D01*
X1452000Y1098000D02*
X1442003D01*
Y1102998D01*
X1443669Y1104665D01*
X1447002D01*
X1448668Y1102998D01*
Y1098000D01*
Y1101332D02*
X1452000Y1104665D01*
X1443669Y1107997D02*
X1442003Y1109663D01*
Y1112995D01*
X1443669Y1114661D01*
X1445336D01*
X1447002Y1112995D01*
Y1111329D01*
Y1112995D01*
X1448668Y1114661D01*
X1450334D01*
X1452000Y1112995D01*
Y1109663D01*
X1450334Y1107997D01*
X1442003Y1117994D02*
Y1124658D01*
X1443669D01*
X1450334Y1117994D01*
X1452000D01*
X1442000Y1206000D02*
X1432003D01*
Y1210998D01*
X1433669Y1212664D01*
X1437002D01*
X1438668Y1210998D01*
Y1206000D01*
Y1209332D02*
X1442000Y1212664D01*
X1433669Y1215997D02*
X1432003Y1217663D01*
Y1220995D01*
X1433669Y1222661D01*
X1435336D01*
X1437002Y1220995D01*
Y1219329D01*
Y1220995D01*
X1438668Y1222661D01*
X1440334D01*
X1442000Y1220995D01*
Y1217663D01*
X1440334Y1215997D01*
X1432003Y1232658D02*
X1433669Y1229326D01*
X1437002Y1225994D01*
X1440334D01*
X1442000Y1227660D01*
Y1230992D01*
X1440334Y1232658D01*
X1438668D01*
X1437002Y1230992D01*
Y1225994D01*
X614000Y484000D02*
Y493997D01*
X618998D01*
X620664Y492331D01*
Y488998D01*
X618998Y487332D01*
X614000D01*
X617332D02*
X620664Y484000D01*
X623997Y492331D02*
X625663Y493997D01*
X628995D01*
X630661Y492331D01*
Y490664D01*
X628995Y488998D01*
X630661Y487332D01*
Y485666D01*
X628995Y484000D01*
X625663D01*
X623997Y485666D01*
Y487332D01*
X625663Y488998D01*
X623997Y490664D01*
Y492331D01*
X625663Y488998D02*
X628995D01*
X633994Y492331D02*
X635660Y493997D01*
X638992D01*
X640658Y492331D01*
Y485666D01*
X638992Y484000D01*
X635660D01*
X633994Y485666D01*
Y492331D01*
X615000Y534000D02*
Y543997D01*
X619998D01*
X621665Y542331D01*
Y538998D01*
X619998Y537332D01*
X615000D01*
X618332D02*
X621665Y534000D01*
X624997Y543997D02*
X631661D01*
Y542331D01*
X624997Y535666D01*
Y534000D01*
X634994Y535666D02*
X636660Y534000D01*
X639992D01*
X641658Y535666D01*
Y542331D01*
X639992Y543997D01*
X636660D01*
X634994Y542331D01*
Y540664D01*
X636660Y538998D01*
X641658D01*
X1370000Y586000D02*
Y595997D01*
X1374998D01*
X1376664Y594331D01*
Y590998D01*
X1374998Y589332D01*
X1370000D01*
X1373332D02*
X1376664Y586000D01*
X1379997Y595997D02*
X1386661D01*
Y594331D01*
X1379997Y587666D01*
Y586000D01*
X1389994Y594331D02*
X1391660Y595997D01*
X1394992D01*
X1396658Y594331D01*
Y592664D01*
X1394992Y590998D01*
X1396658Y589332D01*
Y587666D01*
X1394992Y586000D01*
X1391660D01*
X1389994Y587666D01*
Y589332D01*
X1391660Y590998D01*
X1389994Y592664D01*
Y594331D01*
X1391660Y590998D02*
X1394992D01*
X1371000Y528000D02*
Y537997D01*
X1375998D01*
X1377664Y536331D01*
Y532998D01*
X1375998Y531332D01*
X1371000D01*
X1374332D02*
X1377664Y528000D01*
X1380997Y537997D02*
X1387661D01*
Y536331D01*
X1380997Y529666D01*
Y528000D01*
X1390994Y537997D02*
X1397658D01*
Y536331D01*
X1390994Y529666D01*
Y528000D01*
X358000Y317000D02*
Y326997D01*
X362998D01*
X364664Y325331D01*
Y321998D01*
X362998Y320332D01*
X358000D01*
X361332D02*
X364664Y317000D01*
X367997Y326997D02*
X374661D01*
Y325331D01*
X367997Y318666D01*
Y317000D01*
X384658Y326997D02*
X381326Y325331D01*
X377994Y321998D01*
Y318666D01*
X379660Y317000D01*
X382992D01*
X384658Y318666D01*
Y320332D01*
X382992Y321998D01*
X377994D01*
X406000Y515000D02*
X396003D01*
Y519998D01*
X397669Y521665D01*
X401002D01*
X402668Y519998D01*
Y515000D01*
Y518332D02*
X406000Y521665D01*
X396003Y524997D02*
Y531661D01*
X397669D01*
X404334Y524997D01*
X406000D01*
X396003Y541658D02*
Y534994D01*
X401002D01*
X399336Y538326D01*
Y539992D01*
X401002Y541658D01*
X404334D01*
X406000Y539992D01*
Y536660D01*
X404334Y534994D01*
X421000Y606000D02*
X411003D01*
Y610998D01*
X412669Y612664D01*
X416002D01*
X417668Y610998D01*
Y606000D01*
Y609332D02*
X421000Y612664D01*
X411003Y615997D02*
Y622661D01*
X412669D01*
X419334Y615997D01*
X421000D01*
Y630992D02*
X411003D01*
X416002Y625994D01*
Y632658D01*
X458665Y941666D02*
Y948331D01*
X456998Y949997D01*
X453666D01*
X452000Y948331D01*
Y941666D01*
X453666Y940000D01*
X456998D01*
X455332Y943332D02*
X458665Y940000D01*
X456998D02*
X458665Y941666D01*
X461997Y940000D02*
X465329D01*
X463663D01*
Y949997D01*
X461997Y948331D01*
X470327D02*
X471993Y949997D01*
X475326D01*
X476992Y948331D01*
Y941666D01*
X475326Y940000D01*
X471993D01*
X470327Y941666D01*
Y948331D01*
X907664Y969666D02*
Y976331D01*
X905998Y977997D01*
X902666D01*
X901000Y976331D01*
Y969666D01*
X902666Y968000D01*
X905998D01*
X904332Y971332D02*
X907664Y968000D01*
X905998D02*
X907664Y969666D01*
X910997Y977997D02*
X917661D01*
Y976331D01*
X910997Y969666D01*
Y968000D01*
X635664Y630666D02*
Y637331D01*
X633998Y638997D01*
X630666D01*
X629000Y637331D01*
Y630666D01*
X630666Y629000D01*
X633998D01*
X632332Y632332D02*
X635664Y629000D01*
X633998D02*
X635664Y630666D01*
X638997D02*
X640663Y629000D01*
X643995D01*
X645661Y630666D01*
Y637331D01*
X643995Y638997D01*
X640663D01*
X638997Y637331D01*
Y635664D01*
X640663Y633998D01*
X645661D01*
X540664Y1166666D02*
Y1173331D01*
X538998Y1174997D01*
X535666D01*
X534000Y1173331D01*
Y1166666D01*
X535666Y1165000D01*
X538998D01*
X537332Y1168332D02*
X540664Y1165000D01*
X538998D02*
X540664Y1166666D01*
X543997Y1173331D02*
X545663Y1174997D01*
X548995D01*
X550661Y1173331D01*
Y1171665D01*
X548995Y1169998D01*
X550661Y1168332D01*
Y1166666D01*
X548995Y1165000D01*
X545663D01*
X543997Y1166666D01*
Y1168332D01*
X545663Y1169998D01*
X543997Y1171665D01*
Y1173331D01*
X545663Y1169998D02*
X548995D01*
X1536664Y908666D02*
Y915331D01*
X1534998Y916997D01*
X1531666D01*
X1530000Y915331D01*
Y908666D01*
X1531666Y907000D01*
X1534998D01*
X1533332Y910332D02*
X1536664Y907000D01*
X1534998D02*
X1536664Y908666D01*
X1546661Y916997D02*
X1543329Y915331D01*
X1539997Y911998D01*
Y908666D01*
X1541663Y907000D01*
X1544995D01*
X1546661Y908666D01*
Y910332D01*
X1544995Y911998D01*
X1539997D01*
X901665Y1226666D02*
Y1233331D01*
X899998Y1234997D01*
X896666D01*
X895000Y1233331D01*
Y1226666D01*
X896666Y1225000D01*
X899998D01*
X898332Y1228332D02*
X901665Y1225000D01*
X899998D02*
X901665Y1226666D01*
X909995Y1225000D02*
Y1234997D01*
X904997Y1229998D01*
X911661D01*
X527000Y557000D02*
Y566997D01*
X531998D01*
X533665Y565331D01*
Y561998D01*
X531998Y560332D01*
X527000D01*
X543661Y557000D02*
X536997D01*
X543661Y563665D01*
Y565331D01*
X541995Y566997D01*
X538663D01*
X536997Y565331D01*
X546993D02*
X548660Y566997D01*
X551992D01*
X553658Y565331D01*
Y563665D01*
X551992Y561998D01*
X550326D01*
X551992D01*
X553658Y560332D01*
Y558666D01*
X551992Y557000D01*
X548660D01*
X546993Y558666D01*
X602000Y898000D02*
X592003D01*
Y902998D01*
X593669Y904665D01*
X597002D01*
X598668Y902998D01*
Y898000D01*
X602000Y907997D02*
Y911329D01*
Y909663D01*
X592003D01*
X593669Y907997D01*
X602000Y922992D02*
Y916327D01*
X595336Y922992D01*
X593669D01*
X592003Y921326D01*
Y917994D01*
X593669Y916327D01*
X601000Y1078000D02*
X591003D01*
Y1082998D01*
X592669Y1084665D01*
X596002D01*
X597668Y1082998D01*
Y1078000D01*
X601000Y1087997D02*
Y1091329D01*
Y1089663D01*
X591003D01*
X592669Y1087997D01*
X601000Y1096327D02*
Y1099660D01*
Y1097994D01*
X591003D01*
X592669Y1096327D01*
X1156000Y1136000D02*
Y1145997D01*
X1160998D01*
X1162664Y1144331D01*
Y1140998D01*
X1160998Y1139332D01*
X1156000D01*
X1165997Y1136000D02*
X1169329D01*
X1167663D01*
Y1145997D01*
X1165997Y1144331D01*
X1174327D02*
X1175994Y1145997D01*
X1179326D01*
X1180992Y1144331D01*
Y1137666D01*
X1179326Y1136000D01*
X1175994D01*
X1174327Y1137666D01*
Y1144331D01*
X272000Y1022997D02*
Y1013000D01*
X278664D01*
X288661Y1021331D02*
X286995Y1022997D01*
X283663D01*
X281997Y1021331D01*
Y1019665D01*
X283663Y1017998D01*
X286995D01*
X288661Y1016332D01*
Y1014666D01*
X286995Y1013000D01*
X283663D01*
X281997Y1014666D01*
X291994Y1013000D02*
X295326D01*
X293660D01*
Y1022997D01*
X291994Y1021331D01*
X1616000Y820997D02*
Y811000D01*
X1622664D01*
X1632661D02*
X1625997D01*
X1632661Y817664D01*
Y819331D01*
X1630995Y820997D01*
X1627663D01*
X1625997Y819331D01*
X505000Y1064997D02*
Y1055000D01*
X509998D01*
X511665Y1056666D01*
Y1063331D01*
X509998Y1064997D01*
X505000D01*
X521661Y1055000D02*
X514997D01*
X521661Y1061665D01*
Y1063331D01*
X519995Y1064997D01*
X516663D01*
X514997Y1063331D01*
X529992Y1055000D02*
Y1064997D01*
X524994Y1059998D01*
X531658D01*
X369000Y1059997D02*
Y1050000D01*
X373998D01*
X375664Y1051666D01*
Y1058331D01*
X373998Y1059997D01*
X369000D01*
X385661Y1050000D02*
X378997D01*
X385661Y1056665D01*
Y1058331D01*
X383995Y1059997D01*
X380663D01*
X378997Y1058331D01*
X388994D02*
X390660Y1059997D01*
X393992D01*
X395658Y1058331D01*
Y1056665D01*
X393992Y1054998D01*
X392326D01*
X393992D01*
X395658Y1053332D01*
Y1051666D01*
X393992Y1050000D01*
X390660D01*
X388994Y1051666D01*
X744756Y796955D02*
Y786958D01*
X749754D01*
X751421Y788624D01*
Y795289D01*
X749754Y796955D01*
X744756D01*
X754753Y786958D02*
X758085D01*
X756419D01*
Y796955D01*
X754753Y795289D01*
X769748Y796955D02*
X763083D01*
Y791956D01*
X766416Y793623D01*
X768082D01*
X769748Y791956D01*
Y788624D01*
X768082Y786958D01*
X764750D01*
X763083Y788624D01*
X857003Y961000D02*
X867000D01*
Y965998D01*
X865334Y967664D01*
X858669D01*
X857003Y965998D01*
Y961000D01*
X867000Y970997D02*
Y974329D01*
Y972663D01*
X857003D01*
X858669Y970997D01*
X867000Y984326D02*
X857003D01*
X862002Y979327D01*
Y985992D01*
X539000Y1014997D02*
Y1005000D01*
X543998D01*
X545664Y1006666D01*
Y1013331D01*
X543998Y1014997D01*
X539000D01*
X548997Y1005000D02*
X552329D01*
X550663D01*
Y1014997D01*
X548997Y1013331D01*
X557327D02*
X558993Y1014997D01*
X562326D01*
X563992Y1013331D01*
Y1011665D01*
X562326Y1009998D01*
X560660D01*
X562326D01*
X563992Y1008332D01*
Y1006666D01*
X562326Y1005000D01*
X558993D01*
X557327Y1006666D01*
X857753Y1067500D02*
X867750D01*
Y1072498D01*
X866084Y1074165D01*
X859419D01*
X857753Y1072498D01*
Y1067500D01*
X867750Y1077497D02*
Y1080829D01*
Y1079163D01*
X857753D01*
X859419Y1077497D01*
X867750Y1092492D02*
Y1085827D01*
X861086Y1092492D01*
X859419D01*
X857753Y1090826D01*
Y1087494D01*
X859419Y1085827D01*
X1686003Y1199000D02*
X1696000D01*
Y1203998D01*
X1694334Y1205665D01*
X1687669D01*
X1686003Y1203998D01*
Y1199000D01*
X1696000Y1208997D02*
Y1212329D01*
Y1210663D01*
X1686003D01*
X1687669Y1208997D01*
X1696000Y1217327D02*
Y1220660D01*
Y1218994D01*
X1686003D01*
X1687669Y1217327D01*
X326000Y582997D02*
Y573000D01*
X330998D01*
X332664Y574666D01*
Y581331D01*
X330998Y582997D01*
X326000D01*
X342661Y573000D02*
X335997D01*
X342661Y579664D01*
Y581331D01*
X340995Y582997D01*
X337663D01*
X335997Y581331D01*
X352658Y582997D02*
X349326Y581331D01*
X345993Y577998D01*
Y574666D01*
X347660Y573000D01*
X350992D01*
X352658Y574666D01*
Y576332D01*
X350992Y577998D01*
X345993D01*
X451000Y614997D02*
Y605000D01*
X455998D01*
X457664Y606666D01*
Y613331D01*
X455998Y614997D01*
X451000D01*
X467661Y605000D02*
X460997D01*
X467661Y611665D01*
Y613331D01*
X465995Y614997D01*
X462663D01*
X460997Y613331D01*
X477658Y614997D02*
X470993D01*
Y609998D01*
X474326Y611665D01*
X475992D01*
X477658Y609998D01*
Y606666D01*
X475992Y605000D01*
X472660D01*
X470993Y606666D01*
X345664Y1049331D02*
X343998Y1050997D01*
X340666D01*
X339000Y1049331D01*
Y1042666D01*
X340666Y1041000D01*
X343998D01*
X345664Y1042666D01*
X348997D02*
X350663Y1041000D01*
X353995D01*
X355661Y1042666D01*
Y1049331D01*
X353995Y1050997D01*
X350663D01*
X348997Y1049331D01*
Y1047664D01*
X350663Y1045998D01*
X355661D01*
X358993Y1049331D02*
X360660Y1050997D01*
X363992D01*
X365658Y1049331D01*
Y1042666D01*
X363992Y1041000D01*
X360660D01*
X358993Y1042666D01*
Y1049331D01*
X309415Y1147331D02*
X307748Y1148997D01*
X304416D01*
X302750Y1147331D01*
Y1140666D01*
X304416Y1139000D01*
X307748D01*
X309415Y1140666D01*
X312747Y1147331D02*
X314413Y1148997D01*
X317745D01*
X319411Y1147331D01*
Y1145665D01*
X317745Y1143998D01*
X319411Y1142332D01*
Y1140666D01*
X317745Y1139000D01*
X314413D01*
X312747Y1140666D01*
Y1142332D01*
X314413Y1143998D01*
X312747Y1145665D01*
Y1147331D01*
X314413Y1143998D02*
X317745D01*
X322744Y1140666D02*
X324410Y1139000D01*
X327742D01*
X329408Y1140666D01*
Y1147331D01*
X327742Y1148997D01*
X324410D01*
X322744Y1147331D01*
Y1145665D01*
X324410Y1143998D01*
X329408D01*
X476669Y1153664D02*
X475003Y1151998D01*
Y1148666D01*
X476669Y1147000D01*
X483334D01*
X485000Y1148666D01*
Y1151998D01*
X483334Y1153664D01*
Y1156997D02*
X485000Y1158663D01*
Y1161995D01*
X483334Y1163661D01*
X476669D01*
X475003Y1161995D01*
Y1158663D01*
X476669Y1156997D01*
X478335D01*
X480002Y1158663D01*
Y1163661D01*
X485000Y1166994D02*
Y1170326D01*
Y1168660D01*
X475003D01*
X476669Y1166994D01*
X621669Y736665D02*
X620003Y734998D01*
Y731666D01*
X621669Y730000D01*
X628334D01*
X630000Y731666D01*
Y734998D01*
X628334Y736665D01*
X620003Y739997D02*
Y746661D01*
X621669D01*
X628334Y739997D01*
X630000D01*
Y754992D02*
X620003D01*
X625002Y749994D01*
Y756658D01*
X868669Y748664D02*
X867003Y746998D01*
Y743666D01*
X868669Y742000D01*
X875334D01*
X877000Y743666D01*
Y746998D01*
X875334Y748664D01*
X867003Y751997D02*
Y758661D01*
X868669D01*
X875334Y751997D01*
X877000D01*
X868669Y761994D02*
X867003Y763660D01*
Y766992D01*
X868669Y768658D01*
X870335D01*
X872002Y766992D01*
Y765326D01*
Y766992D01*
X873668Y768658D01*
X875334D01*
X877000Y766992D01*
Y763660D01*
X875334Y761994D01*
X863664Y846331D02*
X861998Y847997D01*
X858666D01*
X857000Y846331D01*
Y839666D01*
X858666Y838000D01*
X861998D01*
X863664Y839666D01*
X866997Y847997D02*
X873661D01*
Y846331D01*
X866997Y839666D01*
Y838000D01*
X883658D02*
X876993D01*
X883658Y844665D01*
Y846331D01*
X881992Y847997D01*
X878660D01*
X876993Y846331D01*
X1496664Y1126331D02*
X1494998Y1127997D01*
X1491666D01*
X1490000Y1126331D01*
Y1119666D01*
X1491666Y1118000D01*
X1494998D01*
X1496664Y1119666D01*
X1499997Y1127997D02*
X1506661D01*
Y1126331D01*
X1499997Y1119666D01*
Y1118000D01*
X1509994D02*
X1513326D01*
X1511660D01*
Y1127997D01*
X1509994Y1126331D01*
X538665Y924331D02*
X536998Y925997D01*
X533666D01*
X532000Y924331D01*
Y917666D01*
X533666Y916000D01*
X536998D01*
X538665Y917666D01*
X541997Y925997D02*
X548661D01*
Y924331D01*
X541997Y917666D01*
Y916000D01*
X551994Y924331D02*
X553660Y925997D01*
X556992D01*
X558658Y924331D01*
Y917666D01*
X556992Y916000D01*
X553660D01*
X551994Y917666D01*
Y924331D01*
X1534669Y1123664D02*
X1533003Y1121998D01*
Y1118666D01*
X1534669Y1117000D01*
X1541334D01*
X1543000Y1118666D01*
Y1121998D01*
X1541334Y1123664D01*
X1533003Y1133661D02*
X1534669Y1130329D01*
X1538002Y1126997D01*
X1541334D01*
X1543000Y1128663D01*
Y1131995D01*
X1541334Y1133661D01*
X1539668D01*
X1538002Y1131995D01*
Y1126997D01*
X1541334Y1136994D02*
X1543000Y1138660D01*
Y1141992D01*
X1541334Y1143658D01*
X1534669D01*
X1533003Y1141992D01*
Y1138660D01*
X1534669Y1136994D01*
X1536335D01*
X1538002Y1138660D01*
Y1143658D01*
X1503669Y1220665D02*
X1502003Y1218998D01*
Y1215666D01*
X1503669Y1214000D01*
X1510334D01*
X1512000Y1215666D01*
Y1218998D01*
X1510334Y1220665D01*
X1502003Y1230661D02*
X1503669Y1227329D01*
X1507002Y1223997D01*
X1510334D01*
X1512000Y1225663D01*
Y1228995D01*
X1510334Y1230661D01*
X1508668D01*
X1507002Y1228995D01*
Y1223997D01*
X1503669Y1233994D02*
X1502003Y1235660D01*
Y1238992D01*
X1503669Y1240658D01*
X1505336D01*
X1507002Y1238992D01*
X1508668Y1240658D01*
X1510334D01*
X1512000Y1238992D01*
Y1235660D01*
X1510334Y1233994D01*
X1508668D01*
X1507002Y1235660D01*
X1505336Y1233994D01*
X1503669D01*
X1507002Y1235660D02*
Y1238992D01*
X1532669Y1220665D02*
X1531003Y1218998D01*
Y1215666D01*
X1532669Y1214000D01*
X1539334D01*
X1541000Y1215666D01*
Y1218998D01*
X1539334Y1220665D01*
X1531003Y1230661D02*
X1532669Y1227329D01*
X1536002Y1223997D01*
X1539334D01*
X1541000Y1225663D01*
Y1228995D01*
X1539334Y1230661D01*
X1537668D01*
X1536002Y1228995D01*
Y1223997D01*
X1531003Y1233994D02*
Y1240658D01*
X1532669D01*
X1539334Y1233994D01*
X1541000D01*
X864669Y1280665D02*
X863003Y1278998D01*
Y1275666D01*
X864669Y1274000D01*
X871334D01*
X873000Y1275666D01*
Y1278998D01*
X871334Y1280665D01*
X863003Y1290661D02*
X864669Y1287329D01*
X868002Y1283997D01*
X871334D01*
X873000Y1285663D01*
Y1288995D01*
X871334Y1290661D01*
X869668D01*
X868002Y1288995D01*
Y1283997D01*
X863003Y1300658D02*
X864669Y1297326D01*
X868002Y1293994D01*
X871334D01*
X873000Y1295660D01*
Y1298992D01*
X871334Y1300658D01*
X869668D01*
X868002Y1298992D01*
Y1293994D01*
X1636664Y1214331D02*
X1634998Y1215997D01*
X1631666D01*
X1630000Y1214331D01*
Y1207666D01*
X1631666Y1206000D01*
X1634998D01*
X1636664Y1207666D01*
X1646661Y1215997D02*
X1643329Y1214331D01*
X1639997Y1210998D01*
Y1207666D01*
X1641663Y1206000D01*
X1644995D01*
X1646661Y1207666D01*
Y1209332D01*
X1644995Y1210998D01*
X1639997D01*
X1656658Y1215997D02*
X1649994D01*
Y1210998D01*
X1653326Y1212664D01*
X1654992D01*
X1656658Y1210998D01*
Y1207666D01*
X1654992Y1206000D01*
X1651660D01*
X1649994Y1207666D01*
X1705669Y1181665D02*
X1704003Y1179998D01*
Y1176666D01*
X1705669Y1175000D01*
X1712334D01*
X1714000Y1176666D01*
Y1179998D01*
X1712334Y1181665D01*
X1704003Y1191661D02*
X1705669Y1188329D01*
X1709002Y1184997D01*
X1712334D01*
X1714000Y1186663D01*
Y1189995D01*
X1712334Y1191661D01*
X1710668D01*
X1709002Y1189995D01*
Y1184997D01*
X1714000Y1199992D02*
X1704003D01*
X1709002Y1194994D01*
Y1201658D01*
X841665Y1161331D02*
X839998Y1162997D01*
X836666D01*
X835000Y1161331D01*
Y1154666D01*
X836666Y1153000D01*
X839998D01*
X841665Y1154666D01*
X851661Y1162997D02*
X848329Y1161331D01*
X844997Y1157998D01*
Y1154666D01*
X846663Y1153000D01*
X849995D01*
X851661Y1154666D01*
Y1156332D01*
X849995Y1157998D01*
X844997D01*
X854994Y1161331D02*
X856660Y1162997D01*
X859992D01*
X861658Y1161331D01*
Y1159665D01*
X859992Y1157998D01*
X858326D01*
X859992D01*
X861658Y1156332D01*
Y1154666D01*
X859992Y1153000D01*
X856660D01*
X854994Y1154666D01*
X1413669Y1019665D02*
X1412003Y1017998D01*
Y1014666D01*
X1413669Y1013000D01*
X1420334D01*
X1422000Y1014666D01*
Y1017998D01*
X1420334Y1019665D01*
X1412003Y1029661D02*
X1413669Y1026329D01*
X1417002Y1022997D01*
X1420334D01*
X1422000Y1024663D01*
Y1027995D01*
X1420334Y1029661D01*
X1418668D01*
X1417002Y1027995D01*
Y1022997D01*
X1422000Y1039658D02*
Y1032994D01*
X1415336Y1039658D01*
X1413669D01*
X1412003Y1037992D01*
Y1034660D01*
X1413669Y1032994D01*
X1388669Y1034665D02*
X1387003Y1032998D01*
Y1029666D01*
X1388669Y1028000D01*
X1395334D01*
X1397000Y1029666D01*
Y1032998D01*
X1395334Y1034665D01*
X1387003Y1044661D02*
X1388669Y1041329D01*
X1392002Y1037997D01*
X1395334D01*
X1397000Y1039663D01*
Y1042995D01*
X1395334Y1044661D01*
X1393668D01*
X1392002Y1042995D01*
Y1037997D01*
X1397000Y1047994D02*
Y1051326D01*
Y1049660D01*
X1387003D01*
X1388669Y1047994D01*
X1275665Y1125331D02*
X1273998Y1126997D01*
X1270666D01*
X1269000Y1125331D01*
Y1118666D01*
X1270666Y1117000D01*
X1273998D01*
X1275665Y1118666D01*
X1285661Y1126997D02*
X1282329Y1125331D01*
X1278997Y1121998D01*
Y1118666D01*
X1280663Y1117000D01*
X1283995D01*
X1285661Y1118666D01*
Y1120332D01*
X1283995Y1121998D01*
X1278997D01*
X1288994Y1125331D02*
X1290660Y1126997D01*
X1293992D01*
X1295658Y1125331D01*
Y1118666D01*
X1293992Y1117000D01*
X1290660D01*
X1288994Y1118666D01*
Y1125331D01*
X1188669Y916665D02*
X1187003Y914998D01*
Y911666D01*
X1188669Y910000D01*
X1195334D01*
X1197000Y911666D01*
Y914998D01*
X1195334Y916665D01*
X1187003Y926661D02*
Y919997D01*
X1192002D01*
X1190335Y923329D01*
Y924995D01*
X1192002Y926661D01*
X1195334D01*
X1197000Y924995D01*
Y921663D01*
X1195334Y919997D01*
Y929994D02*
X1197000Y931660D01*
Y934992D01*
X1195334Y936658D01*
X1188669D01*
X1187003Y934992D01*
Y931660D01*
X1188669Y929994D01*
X1190335D01*
X1192002Y931660D01*
Y936658D01*
X1221669Y920665D02*
X1220003Y918998D01*
Y915666D01*
X1221669Y914000D01*
X1228334D01*
X1230000Y915666D01*
Y918998D01*
X1228334Y920665D01*
X1220003Y930661D02*
Y923997D01*
X1225002D01*
X1223335Y927329D01*
Y928995D01*
X1225002Y930661D01*
X1228334D01*
X1230000Y928995D01*
Y925663D01*
X1228334Y923997D01*
X1221669Y933994D02*
X1220003Y935660D01*
Y938992D01*
X1221669Y940658D01*
X1223335D01*
X1225002Y938992D01*
X1226668Y940658D01*
X1228334D01*
X1230000Y938992D01*
Y935660D01*
X1228334Y933994D01*
X1226668D01*
X1225002Y935660D01*
X1223335Y933994D01*
X1221669D01*
X1225002Y935660D02*
Y938992D01*
X1240669Y920665D02*
X1239003Y918998D01*
Y915666D01*
X1240669Y914000D01*
X1247334D01*
X1249000Y915666D01*
Y918998D01*
X1247334Y920665D01*
X1239003Y930661D02*
Y923997D01*
X1244002D01*
X1242336Y927329D01*
Y928995D01*
X1244002Y930661D01*
X1247334D01*
X1249000Y928995D01*
Y925663D01*
X1247334Y923997D01*
X1239003Y933994D02*
Y940658D01*
X1240669D01*
X1247334Y933994D01*
X1249000D01*
X1384669Y833664D02*
X1383003Y831998D01*
Y828666D01*
X1384669Y827000D01*
X1391334D01*
X1393000Y828666D01*
Y831998D01*
X1391334Y833664D01*
X1383003Y843661D02*
Y836997D01*
X1388002D01*
X1386335Y840329D01*
Y841995D01*
X1388002Y843661D01*
X1391334D01*
X1393000Y841995D01*
Y838663D01*
X1391334Y836997D01*
X1383003Y853658D02*
X1384669Y850326D01*
X1388002Y846994D01*
X1391334D01*
X1393000Y848660D01*
Y851992D01*
X1391334Y853658D01*
X1389668D01*
X1388002Y851992D01*
Y846994D01*
X1274665Y954331D02*
X1272998Y955997D01*
X1269666D01*
X1268000Y954331D01*
Y947666D01*
X1269666Y946000D01*
X1272998D01*
X1274665Y947666D01*
X1284661Y955997D02*
X1277997D01*
Y950998D01*
X1281329Y952664D01*
X1282995D01*
X1284661Y950998D01*
Y947666D01*
X1282995Y946000D01*
X1279663D01*
X1277997Y947666D01*
X1294658Y955997D02*
X1287993D01*
Y950998D01*
X1291326Y952664D01*
X1292992D01*
X1294658Y950998D01*
Y947666D01*
X1292992Y946000D01*
X1289660D01*
X1287993Y947666D01*
X920669Y426665D02*
X919003Y424998D01*
Y421666D01*
X920669Y420000D01*
X927334D01*
X929000Y421666D01*
Y424998D01*
X927334Y426665D01*
X929000Y429997D02*
Y433329D01*
Y431663D01*
X919003D01*
X920669Y429997D01*
Y438327D02*
X919003Y439994D01*
Y443326D01*
X920669Y444992D01*
X927334D01*
X929000Y443326D01*
Y439994D01*
X927334Y438327D01*
X920669D01*
X929000Y453323D02*
X919003D01*
X924002Y448324D01*
Y454989D01*
X808664Y455331D02*
X806998Y456997D01*
X803666D01*
X802000Y455331D01*
Y448666D01*
X803666Y447000D01*
X806998D01*
X808664Y448666D01*
X811997Y447000D02*
X815329D01*
X813663D01*
Y456997D01*
X811997Y455331D01*
X820327D02*
X821994Y456997D01*
X825326D01*
X826992Y455331D01*
Y448666D01*
X825326Y447000D01*
X821994D01*
X820327Y448666D01*
Y455331D01*
X830324D02*
X831990Y456997D01*
X835323D01*
X836989Y455331D01*
Y453665D01*
X835323Y451998D01*
X833656D01*
X835323D01*
X836989Y450332D01*
Y448666D01*
X835323Y447000D01*
X831990D01*
X830324Y448666D01*
X1287669Y414664D02*
X1286003Y412998D01*
Y409666D01*
X1287669Y408000D01*
X1294334D01*
X1296000Y409666D01*
Y412998D01*
X1294334Y414664D01*
X1296000Y417997D02*
Y421329D01*
Y419663D01*
X1286003D01*
X1287669Y417997D01*
Y426327D02*
X1286003Y427994D01*
Y431326D01*
X1287669Y432992D01*
X1294334D01*
X1296000Y431326D01*
Y427994D01*
X1294334Y426327D01*
X1287669D01*
Y436324D02*
X1286003Y437990D01*
Y441323D01*
X1287669Y442989D01*
X1294334D01*
X1296000Y441323D01*
Y437990D01*
X1294334Y436324D01*
X1287669D01*
X1166669Y460664D02*
X1165003Y458998D01*
Y455666D01*
X1166669Y454000D01*
X1173334D01*
X1175000Y455666D01*
Y458998D01*
X1173334Y460664D01*
Y463997D02*
X1175000Y465663D01*
Y468995D01*
X1173334Y470661D01*
X1166669D01*
X1165003Y468995D01*
Y465663D01*
X1166669Y463997D01*
X1168335D01*
X1170002Y465663D01*
Y470661D01*
X1173334Y473994D02*
X1175000Y475660D01*
Y478992D01*
X1173334Y480658D01*
X1166669D01*
X1165003Y478992D01*
Y475660D01*
X1166669Y473994D01*
X1168335D01*
X1170002Y475660D01*
Y480658D01*
X854669Y491665D02*
X853003Y489998D01*
Y486666D01*
X854669Y485000D01*
X861334D01*
X863000Y486666D01*
Y489998D01*
X861334Y491665D01*
X863000Y494997D02*
Y498329D01*
Y496663D01*
X853003D01*
X854669Y494997D01*
Y503327D02*
X853003Y504994D01*
Y508326D01*
X854669Y509992D01*
X861334D01*
X863000Y508326D01*
Y504994D01*
X861334Y503327D01*
X854669D01*
X853003Y519989D02*
X854669Y516656D01*
X858002Y513324D01*
X861334D01*
X863000Y514990D01*
Y518323D01*
X861334Y519989D01*
X859668D01*
X858002Y518323D01*
Y513324D01*
X769665Y730331D02*
X767998Y731997D01*
X764666D01*
X763000Y730331D01*
Y723666D01*
X764666Y722000D01*
X767998D01*
X769665Y723666D01*
X772997Y722000D02*
X776329D01*
X774663D01*
Y731997D01*
X772997Y730331D01*
X781327D02*
X782994Y731997D01*
X786326D01*
X787992Y730331D01*
Y723666D01*
X786326Y722000D01*
X782994D01*
X781327Y723666D01*
Y730331D01*
X797989Y731997D02*
X791324D01*
Y726998D01*
X794656Y728664D01*
X796323D01*
X797989Y726998D01*
Y723666D01*
X796323Y722000D01*
X792990D01*
X791324Y723666D01*
X1182669Y493665D02*
X1181003Y491998D01*
Y488666D01*
X1182669Y487000D01*
X1189334D01*
X1191000Y488666D01*
Y491998D01*
X1189334Y493665D01*
X1191000Y496997D02*
Y500329D01*
Y498663D01*
X1181003D01*
X1182669Y496997D01*
Y505327D02*
X1181003Y506994D01*
Y510326D01*
X1182669Y511992D01*
X1189334D01*
X1191000Y510326D01*
Y506994D01*
X1189334Y505327D01*
X1182669D01*
X1191000Y521989D02*
Y515324D01*
X1184335Y521989D01*
X1182669D01*
X1181003Y520323D01*
Y516990D01*
X1182669Y515324D01*
X932664Y731331D02*
X930998Y732997D01*
X927666D01*
X926000Y731331D01*
Y724666D01*
X927666Y723000D01*
X930998D01*
X932664Y724666D01*
X935997Y723000D02*
X939329D01*
X937663D01*
Y732997D01*
X935997Y731331D01*
X944327D02*
X945994Y732997D01*
X949326D01*
X950992Y731331D01*
Y724666D01*
X949326Y723000D01*
X945994D01*
X944327Y724666D01*
Y731331D01*
X954324Y723000D02*
X957656D01*
X955990D01*
Y732997D01*
X954324Y731331D01*
X1017669Y497664D02*
X1016003Y495998D01*
Y492666D01*
X1017669Y491000D01*
X1024334D01*
X1026000Y492666D01*
Y495998D01*
X1024334Y497664D01*
Y500997D02*
X1026000Y502663D01*
Y505995D01*
X1024334Y507661D01*
X1017669D01*
X1016003Y505995D01*
Y502663D01*
X1017669Y500997D01*
X1019335D01*
X1021002Y502663D01*
Y507661D01*
X1017669Y510994D02*
X1016003Y512660D01*
Y515992D01*
X1017669Y517658D01*
X1019335D01*
X1021002Y515992D01*
X1022668Y517658D01*
X1024334D01*
X1026000Y515992D01*
Y512660D01*
X1024334Y510994D01*
X1022668D01*
X1021002Y512660D01*
X1019335Y510994D01*
X1017669D01*
X1021002Y512660D02*
Y515992D01*
X1099665Y730331D02*
X1097998Y731997D01*
X1094666D01*
X1093000Y730331D01*
Y723666D01*
X1094666Y722000D01*
X1097998D01*
X1099665Y723666D01*
X1102997D02*
X1104663Y722000D01*
X1107995D01*
X1109661Y723666D01*
Y730331D01*
X1107995Y731997D01*
X1104663D01*
X1102997Y730331D01*
Y728664D01*
X1104663Y726998D01*
X1109661D01*
X1112994Y731997D02*
X1119658D01*
Y730331D01*
X1112994Y723666D01*
Y722000D01*
X1320669Y580664D02*
X1319003Y578998D01*
Y575666D01*
X1320669Y574000D01*
X1327334D01*
X1329000Y575666D01*
Y578998D01*
X1327334Y580664D01*
Y583997D02*
X1329000Y585663D01*
Y588995D01*
X1327334Y590661D01*
X1320669D01*
X1319003Y588995D01*
Y585663D01*
X1320669Y583997D01*
X1322336D01*
X1324002Y585663D01*
Y590661D01*
X1319003Y600658D02*
X1320669Y597326D01*
X1324002Y593994D01*
X1327334D01*
X1329000Y595660D01*
Y598992D01*
X1327334Y600658D01*
X1325668D01*
X1324002Y598992D01*
Y593994D01*
X1262664Y730331D02*
X1260998Y731997D01*
X1257666D01*
X1256000Y730331D01*
Y723666D01*
X1257666Y722000D01*
X1260998D01*
X1262664Y723666D01*
X1265997D02*
X1267663Y722000D01*
X1270995D01*
X1272661Y723666D01*
Y730331D01*
X1270995Y731997D01*
X1267663D01*
X1265997Y730331D01*
Y728664D01*
X1267663Y726998D01*
X1272661D01*
X1282658Y731997D02*
X1275994D01*
Y726998D01*
X1279326Y728664D01*
X1280992D01*
X1282658Y726998D01*
Y723666D01*
X1280992Y722000D01*
X1277660D01*
X1275994Y723666D01*
X337669Y658664D02*
X336003Y656998D01*
Y653666D01*
X337669Y652000D01*
X344334D01*
X346000Y653666D01*
Y656998D01*
X344334Y658664D01*
Y661997D02*
X346000Y663663D01*
Y666995D01*
X344334Y668661D01*
X337669D01*
X336003Y666995D01*
Y663663D01*
X337669Y661997D01*
X339336D01*
X341002Y663663D01*
Y668661D01*
X337669Y671994D02*
X336003Y673660D01*
Y676992D01*
X337669Y678658D01*
X339336D01*
X341002Y676992D01*
Y675326D01*
Y676992D01*
X342668Y678658D01*
X344334D01*
X346000Y676992D01*
Y673660D01*
X344334Y671994D01*
X460669Y654665D02*
X459003Y652998D01*
Y649666D01*
X460669Y648000D01*
X467334D01*
X469000Y649666D01*
Y652998D01*
X467334Y654665D01*
Y657997D02*
X469000Y659663D01*
Y662995D01*
X467334Y664661D01*
X460669D01*
X459003Y662995D01*
Y659663D01*
X460669Y657997D01*
X462336D01*
X464002Y659663D01*
Y664661D01*
X469000Y674658D02*
Y667994D01*
X462336Y674658D01*
X460669D01*
X459003Y672992D01*
Y669660D01*
X460669Y667994D01*
X336919Y624915D02*
X335253Y623248D01*
Y619916D01*
X336919Y618250D01*
X343584D01*
X345250Y619916D01*
Y623248D01*
X343584Y624915D01*
Y628247D02*
X345250Y629913D01*
Y633245D01*
X343584Y634911D01*
X336919D01*
X335253Y633245D01*
Y629913D01*
X336919Y628247D01*
X338586D01*
X340252Y629913D01*
Y634911D01*
X345250Y643242D02*
X335253D01*
X340252Y638244D01*
Y644908D01*
X327000Y1305000D02*
X336997D01*
Y1300002D01*
X335331Y1298336D01*
X331998D01*
X330332Y1300002D01*
Y1305000D01*
X327000Y1288339D02*
Y1295003D01*
X333665Y1288339D01*
X335331D01*
X336997Y1290005D01*
Y1293337D01*
X335331Y1295003D01*
X327000Y1285006D02*
Y1281674D01*
Y1283340D01*
X336997D01*
X335331Y1285006D01*
X295000Y1242997D02*
Y1233000D01*
Y1237998D01*
X301665D01*
Y1242997D01*
Y1233000D01*
X304997D02*
X308329D01*
X306663D01*
Y1242997D01*
X304997Y1241331D01*
X319992Y1233000D02*
X313327D01*
X319992Y1239665D01*
Y1241331D01*
X318326Y1242997D01*
X314994D01*
X313327Y1241331D01*
X719000Y1305997D02*
Y1296000D01*
Y1300998D01*
X725665D01*
Y1305997D01*
Y1296000D01*
X728997D02*
X732329D01*
X730663D01*
Y1305997D01*
X728997Y1304331D01*
X737327D02*
X738994Y1305997D01*
X742326D01*
X743992Y1304331D01*
Y1302664D01*
X742326Y1300998D01*
X740660D01*
X742326D01*
X743992Y1299332D01*
Y1297666D01*
X742326Y1296000D01*
X738994D01*
X737327Y1297666D01*
X1221000Y1264997D02*
Y1255000D01*
Y1259998D01*
X1227664D01*
Y1264997D01*
Y1255000D01*
X1230997D02*
X1234329D01*
X1232663D01*
Y1264997D01*
X1230997Y1263331D01*
X1244326Y1255000D02*
Y1264997D01*
X1239327Y1259998D01*
X1245992D01*
X1759000Y1135997D02*
Y1126000D01*
Y1130998D01*
X1765665D01*
Y1135997D01*
Y1126000D01*
X1768997D02*
X1772329D01*
X1770663D01*
Y1135997D01*
X1768997Y1134331D01*
X1783992Y1135997D02*
X1777327D01*
Y1130998D01*
X1780660Y1132664D01*
X1782326D01*
X1783992Y1130998D01*
Y1127666D01*
X1782326Y1126000D01*
X1778994D01*
X1777327Y1127666D01*
X1746024Y833023D02*
Y823026D01*
Y828024D01*
X1752688D01*
Y833023D01*
Y823026D01*
X1756021D02*
X1759353D01*
X1757687D01*
Y833023D01*
X1756021Y831357D01*
X1771016Y833023D02*
X1767684Y831357D01*
X1764351Y828024D01*
Y824692D01*
X1766017Y823026D01*
X1769350D01*
X1771016Y824692D01*
Y826358D01*
X1769350Y828024D01*
X1764351D01*
X1746024Y432973D02*
Y422976D01*
Y427974D01*
X1752688D01*
Y432973D01*
Y422976D01*
X1756021D02*
X1759353D01*
X1757687D01*
Y432973D01*
X1756021Y431307D01*
X1764351Y432973D02*
X1771016D01*
Y431307D01*
X1764351Y424642D01*
Y422976D01*
X1245898Y383189D02*
Y373192D01*
Y378190D01*
X1252562D01*
Y383189D01*
Y373192D01*
X1255895D02*
X1259227D01*
X1257561D01*
Y383189D01*
X1255895Y381523D01*
X1264225D02*
X1265891Y383189D01*
X1269224D01*
X1270890Y381523D01*
Y379856D01*
X1269224Y378190D01*
X1270890Y376524D01*
Y374858D01*
X1269224Y373192D01*
X1265891D01*
X1264225Y374858D01*
Y376524D01*
X1265891Y378190D01*
X1264225Y379856D01*
Y381523D01*
X1265891Y378190D02*
X1269224D01*
X746026Y333151D02*
Y323154D01*
Y328152D01*
X752691D01*
Y333151D01*
Y323154D01*
X756023D02*
X759355D01*
X757689D01*
Y333151D01*
X756023Y331485D01*
X764353Y324820D02*
X766020Y323154D01*
X769352D01*
X771018Y324820D01*
Y331485D01*
X769352Y333151D01*
X766020D01*
X764353Y331485D01*
Y329818D01*
X766020Y328152D01*
X771018D01*
X291000Y327997D02*
Y318000D01*
Y322998D01*
X297665D01*
Y327997D01*
Y318000D01*
X307661D02*
X300997D01*
X307661Y324664D01*
Y326331D01*
X305995Y327997D01*
X302663D01*
X300997Y326331D01*
X310994D02*
X312660Y327997D01*
X315992D01*
X317658Y326331D01*
Y319666D01*
X315992Y318000D01*
X312660D01*
X310994Y319666D01*
Y326331D01*
X295000Y831997D02*
Y822000D01*
Y826998D01*
X301665D01*
Y831997D01*
Y822000D01*
X311661D02*
X304997D01*
X311661Y828664D01*
Y830331D01*
X309995Y831997D01*
X306663D01*
X304997Y830331D01*
X314994Y822000D02*
X318326D01*
X316660D01*
Y831997D01*
X314994Y830331D01*
X995962Y833023D02*
Y823026D01*
Y828024D01*
X1002626D01*
Y833023D01*
Y823026D01*
X1012623D02*
X1005959D01*
X1012623Y829690D01*
Y831357D01*
X1010957Y833023D01*
X1007625D01*
X1005959Y831357D01*
X1022620Y823026D02*
X1015956D01*
X1022620Y829690D01*
Y831357D01*
X1020954Y833023D01*
X1017622D01*
X1015956Y831357D01*
X1169669Y919665D02*
X1168003Y917998D01*
Y914666D01*
X1169669Y913000D01*
X1176334D01*
X1178000Y914666D01*
Y917998D01*
X1176334Y919665D01*
X1178000Y922997D02*
Y926329D01*
Y924663D01*
X1168003D01*
X1169669Y922997D01*
Y931327D02*
X1168003Y932994D01*
Y936326D01*
X1169669Y937992D01*
X1176334D01*
X1178000Y936326D01*
Y932994D01*
X1176334Y931327D01*
X1169669D01*
X1168003Y941324D02*
Y947989D01*
X1169669D01*
X1176334Y941324D01*
X1178000D01*
X1135669Y921665D02*
X1134003Y919998D01*
Y916666D01*
X1135669Y915000D01*
X1142334D01*
X1144000Y916666D01*
Y919998D01*
X1142334Y921665D01*
X1144000Y924997D02*
Y928329D01*
Y926663D01*
X1134003D01*
X1135669Y924997D01*
Y933327D02*
X1134003Y934994D01*
Y938326D01*
X1135669Y939992D01*
X1142334D01*
X1144000Y938326D01*
Y934994D01*
X1142334Y933327D01*
X1135669D01*
Y943324D02*
X1134003Y944990D01*
Y948323D01*
X1135669Y949989D01*
X1137336D01*
X1139002Y948323D01*
X1140668Y949989D01*
X1142334D01*
X1144000Y948323D01*
Y944990D01*
X1142334Y943324D01*
X1140668D01*
X1139002Y944990D01*
X1137336Y943324D01*
X1135669D01*
X1139002Y944990D02*
Y948323D01*
X1417664Y693331D02*
X1415998Y694997D01*
X1412666D01*
X1411000Y693331D01*
Y686666D01*
X1412666Y685000D01*
X1415998D01*
X1417664Y686666D01*
X1420997Y685000D02*
X1424329D01*
X1422663D01*
Y694997D01*
X1420997Y693331D01*
X1429327D02*
X1430994Y694997D01*
X1434326D01*
X1435992Y693331D01*
Y686666D01*
X1434326Y685000D01*
X1430994D01*
X1429327Y686666D01*
Y693331D01*
X1439324Y686666D02*
X1440990Y685000D01*
X1444323D01*
X1445989Y686666D01*
Y693331D01*
X1444323Y694997D01*
X1440990D01*
X1439324Y693331D01*
Y691665D01*
X1440990Y689998D01*
X1445989D01*
X1431664Y655331D02*
X1429998Y656997D01*
X1426666D01*
X1425000Y655331D01*
Y648666D01*
X1426666Y647000D01*
X1429998D01*
X1431664Y648666D01*
X1434997Y647000D02*
X1438329D01*
X1436663D01*
Y656997D01*
X1434997Y655331D01*
X1443327Y647000D02*
X1446660D01*
X1444994D01*
Y656997D01*
X1443327Y655331D01*
X1451658D02*
X1453324Y656997D01*
X1456656D01*
X1458323Y655331D01*
Y648666D01*
X1456656Y647000D01*
X1453324D01*
X1451658Y648666D01*
Y655331D01*
X501665Y843331D02*
X499998Y844997D01*
X496666D01*
X495000Y843331D01*
Y836666D01*
X496666Y835000D01*
X499998D01*
X501665Y836666D01*
X504997Y835000D02*
X508329D01*
X506663D01*
Y844997D01*
X504997Y843331D01*
X513327Y835000D02*
X516660D01*
X514994D01*
Y844997D01*
X513327Y843331D01*
X521658Y835000D02*
X524990D01*
X523324D01*
Y844997D01*
X521658Y843331D01*
X953000Y430000D02*
Y439997D01*
X957998D01*
X959665Y438331D01*
Y434998D01*
X957998Y433332D01*
X953000D01*
X962997Y438331D02*
X964663Y439997D01*
X967995D01*
X969661Y438331D01*
Y436665D01*
X967995Y434998D01*
X966329D01*
X967995D01*
X969661Y433332D01*
Y431666D01*
X967995Y430000D01*
X964663D01*
X962997Y431666D01*
X972994Y438331D02*
X974660Y439997D01*
X977992D01*
X979658Y438331D01*
Y431666D01*
X977992Y430000D01*
X974660D01*
X972994Y431666D01*
Y438331D01*
X1074000Y429000D02*
Y438997D01*
X1078998D01*
X1080665Y437331D01*
Y433998D01*
X1078998Y432332D01*
X1074000D01*
X1090661Y429000D02*
X1083997D01*
X1090661Y435664D01*
Y437331D01*
X1088995Y438997D01*
X1085663D01*
X1083997Y437331D01*
X1093994D02*
X1095660Y438997D01*
X1098992D01*
X1100658Y437331D01*
Y435664D01*
X1098992Y433998D01*
X1100658Y432332D01*
Y430666D01*
X1098992Y429000D01*
X1095660D01*
X1093994Y430666D01*
Y432332D01*
X1095660Y433998D01*
X1093994Y435664D01*
Y437331D01*
X1095660Y433998D02*
X1098992D01*
X720626Y585028D02*
Y595025D01*
X725624D01*
X727290Y593359D01*
Y590026D01*
X725624Y588360D01*
X720626D01*
X730623Y593359D02*
X732289Y595025D01*
X735621D01*
X737287Y593359D01*
Y591693D01*
X735621Y590026D01*
X733955D01*
X735621D01*
X737287Y588360D01*
Y586694D01*
X735621Y585028D01*
X732289D01*
X730623Y586694D01*
X740620Y585028D02*
X743952D01*
X742286D01*
Y595025D01*
X740620Y593359D01*
X885726Y585028D02*
Y595025D01*
X890724D01*
X892391Y593359D01*
Y590026D01*
X890724Y588360D01*
X885726D01*
X902387Y585028D02*
X895723D01*
X902387Y591693D01*
Y593359D01*
X900721Y595025D01*
X897389D01*
X895723Y593359D01*
X905720Y586694D02*
X907386Y585028D01*
X910718D01*
X912384Y586694D01*
Y593359D01*
X910718Y595025D01*
X907386D01*
X905720Y593359D01*
Y591693D01*
X907386Y590026D01*
X912384D01*
X1045492Y585028D02*
Y595025D01*
X1050490D01*
X1052157Y593359D01*
Y590026D01*
X1050490Y588360D01*
X1045492D01*
X1062153Y585028D02*
X1055489D01*
X1062153Y591693D01*
Y593359D01*
X1060487Y595025D01*
X1057155D01*
X1055489Y593359D01*
X1065486Y595025D02*
X1072150D01*
Y593359D01*
X1065486Y586694D01*
Y585028D01*
X1205512D02*
Y595025D01*
X1210510D01*
X1212177Y593359D01*
Y590026D01*
X1210510Y588360D01*
X1205512D01*
X1222173Y585028D02*
X1215509D01*
X1222173Y591693D01*
Y593359D01*
X1220507Y595025D01*
X1217175D01*
X1215509Y593359D01*
X1232170Y595025D02*
X1228838Y593359D01*
X1225506Y590026D01*
Y586694D01*
X1227172Y585028D01*
X1230504D01*
X1232170Y586694D01*
Y588360D01*
X1230504Y590026D01*
X1225506D01*
X360000Y262000D02*
Y271997D01*
X364998D01*
X366665Y270331D01*
Y266998D01*
X364998Y265332D01*
X360000D01*
X376661Y262000D02*
X369997D01*
X376661Y268664D01*
Y270331D01*
X374995Y271997D01*
X371663D01*
X369997Y270331D01*
X384992Y262000D02*
Y271997D01*
X379994Y266998D01*
X386658D01*
X419000Y1303000D02*
X428997D01*
Y1298002D01*
X427331Y1296335D01*
X423998D01*
X422332Y1298002D01*
Y1303000D01*
X419000Y1286339D02*
Y1293003D01*
X425664Y1286339D01*
X427331D01*
X428997Y1288005D01*
Y1291337D01*
X427331Y1293003D01*
X419000Y1276342D02*
Y1283006D01*
X425664Y1276342D01*
X427331D01*
X428997Y1278008D01*
Y1281340D01*
X427331Y1283006D01*
X586000Y260000D02*
Y269997D01*
X590998D01*
X592664Y268331D01*
Y264998D01*
X590998Y263332D01*
X586000D01*
X595997Y260000D02*
X599329D01*
X597663D01*
Y269997D01*
X595997Y268331D01*
X609326Y260000D02*
Y269997D01*
X604327Y264998D01*
X610992D01*
X601000Y1304000D02*
X610997D01*
Y1299002D01*
X609331Y1297336D01*
X605998D01*
X604332Y1299002D01*
Y1304000D01*
X601000Y1294003D02*
Y1290671D01*
Y1292337D01*
X610997D01*
X609331Y1294003D01*
Y1285673D02*
X610997Y1284006D01*
Y1280674D01*
X609331Y1279008D01*
X607664D01*
X605998Y1280674D01*
Y1282340D01*
Y1280674D01*
X604332Y1279008D01*
X602666D01*
X601000Y1280674D01*
Y1284006D01*
X602666Y1285673D01*
X494820Y1006251D02*
X501484D01*
X498152D01*
Y996254D01*
X504817D02*
Y1006251D01*
X509815D01*
X511481Y1004585D01*
Y1001252D01*
X509815Y999586D01*
X504817D01*
X521478Y996254D02*
X514814D01*
X521478Y1002918D01*
Y1004585D01*
X519812Y1006251D01*
X516480D01*
X514814Y1004585D01*
X524810D02*
X526477Y1006251D01*
X529809D01*
X531475Y1004585D01*
Y1002918D01*
X529809Y1001252D01*
X531475Y999586D01*
Y997920D01*
X529809Y996254D01*
X526477D01*
X524810Y997920D01*
Y999586D01*
X526477Y1001252D01*
X524810Y1002918D01*
Y1004585D01*
X526477Y1001252D02*
X529809D01*
X631000Y825997D02*
X637664D01*
X634332D01*
Y816000D01*
X640997D02*
Y825997D01*
X645995D01*
X647661Y824331D01*
Y820998D01*
X645995Y819332D01*
X640997D01*
X650993Y824331D02*
X652660Y825997D01*
X655992D01*
X657658Y824331D01*
Y822664D01*
X655992Y820998D01*
X654326D01*
X655992D01*
X657658Y819332D01*
Y817666D01*
X655992Y816000D01*
X652660D01*
X650993Y817666D01*
X660990Y816000D02*
X664323D01*
X662656D01*
Y825997D01*
X660990Y824331D01*
X300000Y2553000D02*
Y2524000D01*
X308000D01*
X300000Y2746000D02*
Y2717000D01*
Y2746000D02*
X308000D01*
X640000Y2553000D02*
Y2524000D01*
X636000Y2746000D02*
X640000Y2742000D01*
Y2717000D01*
X632000Y2746000D02*
X636000D01*
X270000Y2800000D02*
Y2480000D01*
X620000Y2800000D02*
Y2480000D01*
X270000D02*
X620000D01*
X270000Y2800000D02*
X620000D01*
X659997Y2745000D02*
X651666D01*
X650000Y2743334D01*
Y2740002D01*
X651666Y2738336D01*
X659997D01*
X650000Y2728339D02*
Y2735003D01*
X656665Y2728339D01*
X658331D01*
X659997Y2730005D01*
Y2733337D01*
X658331Y2735003D01*
X650000Y2725006D02*
Y2721674D01*
Y2723340D01*
X659997D01*
X658331Y2725006D01*
X556665Y2813331D02*
X554998Y2814997D01*
X551666D01*
X550000Y2813331D01*
Y2806666D01*
X551666Y2805000D01*
X554998D01*
X556665Y2806666D01*
X559997Y2805000D02*
X563329D01*
X561663D01*
Y2814997D01*
X559997Y2813331D01*
X568327D02*
X569994Y2814997D01*
X573326D01*
X574992Y2813331D01*
Y2806666D01*
X573326Y2805000D01*
X569994D01*
X568327Y2806666D01*
Y2813331D01*
X578324D02*
X579990Y2814997D01*
X583323D01*
X584989Y2813331D01*
Y2811665D01*
X583323Y2809998D01*
X581656D01*
X583323D01*
X584989Y2808332D01*
Y2806666D01*
X583323Y2805000D01*
X579990D01*
X578324Y2806666D01*
X596665Y2773331D02*
X594998Y2774997D01*
X591666D01*
X590000Y2773331D01*
Y2766666D01*
X591666Y2765000D01*
X594998D01*
X596665Y2766666D01*
X599997Y2765000D02*
X603329D01*
X601663D01*
Y2774997D01*
X599997Y2773331D01*
X608327D02*
X609994Y2774997D01*
X613326D01*
X614992Y2773331D01*
Y2766666D01*
X613326Y2765000D01*
X609994D01*
X608327Y2766666D01*
Y2773331D01*
X624989Y2765000D02*
X618324D01*
X624989Y2771665D01*
Y2773331D01*
X623323Y2774997D01*
X619990D01*
X618324Y2773331D01*
X395000Y2817997D02*
Y2808000D01*
X399998D01*
X401665Y2809666D01*
Y2816331D01*
X399998Y2817997D01*
X395000D01*
X411661Y2808000D02*
X404997D01*
X411661Y2814665D01*
Y2816331D01*
X409995Y2817997D01*
X406663D01*
X404997Y2816331D01*
X419992Y2808000D02*
Y2817997D01*
X414994Y2812998D01*
X421658D01*
X400000Y2459997D02*
Y2450000D01*
X404998D01*
X406665Y2451666D01*
Y2458331D01*
X404998Y2459997D01*
X400000D01*
X416661Y2450000D02*
X409997D01*
X416661Y2456665D01*
Y2458331D01*
X414995Y2459997D01*
X411663D01*
X409997Y2458331D01*
X426658Y2459997D02*
X419994D01*
Y2454998D01*
X423326Y2456665D01*
X424992D01*
X426658Y2454998D01*
Y2451666D01*
X424992Y2450000D01*
X421660D01*
X419994Y2451666D01*
X315000Y2459997D02*
Y2450000D01*
X319998D01*
X321665Y2451666D01*
Y2458331D01*
X319998Y2459997D01*
X315000D01*
X331661Y2450000D02*
X324997D01*
X331661Y2456665D01*
Y2458331D01*
X329995Y2459997D01*
X326663D01*
X324997Y2458331D01*
X341658Y2459997D02*
X338326Y2458331D01*
X334994Y2454998D01*
Y2451666D01*
X336660Y2450000D01*
X339992D01*
X341658Y2451666D01*
Y2453332D01*
X339992Y2454998D01*
X334994D01*
X433000Y2808000D02*
Y2817997D01*
X437998D01*
X439664Y2816331D01*
Y2812998D01*
X437998Y2811332D01*
X433000D01*
X436332D02*
X439664Y2808000D01*
X449661Y2817997D02*
X446329Y2816331D01*
X442997Y2812998D01*
Y2809666D01*
X444663Y2808000D01*
X447995D01*
X449661Y2809666D01*
Y2811332D01*
X447995Y2812998D01*
X442997D01*
X457992Y2808000D02*
Y2817997D01*
X452994Y2812998D01*
X459658D01*
X435000Y2450000D02*
Y2459997D01*
X439998D01*
X441665Y2458331D01*
Y2454998D01*
X439998Y2453332D01*
X435000D01*
X438332D02*
X441665Y2450000D01*
X451661Y2459997D02*
X448329Y2458331D01*
X444997Y2454998D01*
Y2451666D01*
X446663Y2450000D01*
X449995D01*
X451661Y2451666D01*
Y2453332D01*
X449995Y2454998D01*
X444997D01*
X461658Y2459997D02*
X454994D01*
Y2454998D01*
X458326Y2456665D01*
X459992D01*
X461658Y2454998D01*
Y2451666D01*
X459992Y2450000D01*
X456660D01*
X454994Y2451666D01*
X350000Y2450000D02*
Y2459997D01*
X354998D01*
X356665Y2458331D01*
Y2454998D01*
X354998Y2453332D01*
X350000D01*
X353332D02*
X356665Y2450000D01*
X366661Y2459997D02*
X363329Y2458331D01*
X359997Y2454998D01*
Y2451666D01*
X361663Y2450000D01*
X364995D01*
X366661Y2451666D01*
Y2453332D01*
X364995Y2454998D01*
X359997D01*
X376658Y2459997D02*
X373326Y2458331D01*
X369994Y2454998D01*
Y2451666D01*
X371660Y2450000D01*
X374992D01*
X376658Y2451666D01*
Y2453332D01*
X374992Y2454998D01*
X369994D01*
X780000Y2553000D02*
Y2524000D01*
X788000D01*
X780000Y2746000D02*
Y2717000D01*
Y2746000D02*
X788000D01*
X1120000Y2553000D02*
Y2524000D01*
X1116000Y2746000D02*
X1120000Y2742000D01*
Y2717000D01*
X1112000Y2746000D02*
X1116000D01*
X750000Y2800000D02*
Y2480000D01*
X1100000Y2800000D02*
Y2480000D01*
X750000D02*
X1100000D01*
X750000Y2800000D02*
X1100000D01*
X1139997Y2745000D02*
X1131666D01*
X1130000Y2743334D01*
Y2740002D01*
X1131666Y2738336D01*
X1139997D01*
X1130000Y2728339D02*
Y2735003D01*
X1136665Y2728339D01*
X1138331D01*
X1139997Y2730005D01*
Y2733337D01*
X1138331Y2735003D01*
X1130000Y2725006D02*
Y2721674D01*
Y2723340D01*
X1139997D01*
X1138331Y2725006D01*
X1036665Y2813331D02*
X1034998Y2814997D01*
X1031666D01*
X1030000Y2813331D01*
Y2806666D01*
X1031666Y2805000D01*
X1034998D01*
X1036665Y2806666D01*
X1039997Y2805000D02*
X1043329D01*
X1041663D01*
Y2814997D01*
X1039997Y2813331D01*
X1048327D02*
X1049994Y2814997D01*
X1053326D01*
X1054992Y2813331D01*
Y2806666D01*
X1053326Y2805000D01*
X1049994D01*
X1048327Y2806666D01*
Y2813331D01*
X1058324D02*
X1059990Y2814997D01*
X1063323D01*
X1064989Y2813331D01*
Y2811665D01*
X1063323Y2809998D01*
X1061656D01*
X1063323D01*
X1064989Y2808332D01*
Y2806666D01*
X1063323Y2805000D01*
X1059990D01*
X1058324Y2806666D01*
X1076665Y2773331D02*
X1074998Y2774997D01*
X1071666D01*
X1070000Y2773331D01*
Y2766666D01*
X1071666Y2765000D01*
X1074998D01*
X1076665Y2766666D01*
X1079997Y2765000D02*
X1083329D01*
X1081663D01*
Y2774997D01*
X1079997Y2773331D01*
X1088327D02*
X1089994Y2774997D01*
X1093326D01*
X1094992Y2773331D01*
Y2766666D01*
X1093326Y2765000D01*
X1089994D01*
X1088327Y2766666D01*
Y2773331D01*
X1104989Y2765000D02*
X1098324D01*
X1104989Y2771665D01*
Y2773331D01*
X1103323Y2774997D01*
X1099990D01*
X1098324Y2773331D01*
X875000Y2817997D02*
Y2808000D01*
X879998D01*
X881665Y2809666D01*
Y2816331D01*
X879998Y2817997D01*
X875000D01*
X891661Y2808000D02*
X884997D01*
X891661Y2814665D01*
Y2816331D01*
X889995Y2817997D01*
X886663D01*
X884997Y2816331D01*
X899992Y2808000D02*
Y2817997D01*
X894994Y2812998D01*
X901658D01*
X880000Y2459997D02*
Y2450000D01*
X884998D01*
X886665Y2451666D01*
Y2458331D01*
X884998Y2459997D01*
X880000D01*
X896661Y2450000D02*
X889997D01*
X896661Y2456665D01*
Y2458331D01*
X894995Y2459997D01*
X891663D01*
X889997Y2458331D01*
X906658Y2459997D02*
X899994D01*
Y2454998D01*
X903326Y2456665D01*
X904992D01*
X906658Y2454998D01*
Y2451666D01*
X904992Y2450000D01*
X901660D01*
X899994Y2451666D01*
X795000Y2459997D02*
Y2450000D01*
X799998D01*
X801665Y2451666D01*
Y2458331D01*
X799998Y2459997D01*
X795000D01*
X811661Y2450000D02*
X804997D01*
X811661Y2456665D01*
Y2458331D01*
X809995Y2459997D01*
X806663D01*
X804997Y2458331D01*
X821658Y2459997D02*
X818326Y2458331D01*
X814994Y2454998D01*
Y2451666D01*
X816660Y2450000D01*
X819992D01*
X821658Y2451666D01*
Y2453332D01*
X819992Y2454998D01*
X814994D01*
X913000Y2808000D02*
Y2817997D01*
X917998D01*
X919665Y2816331D01*
Y2812998D01*
X917998Y2811332D01*
X913000D01*
X916332D02*
X919665Y2808000D01*
X929661Y2817997D02*
X926329Y2816331D01*
X922997Y2812998D01*
Y2809666D01*
X924663Y2808000D01*
X927995D01*
X929661Y2809666D01*
Y2811332D01*
X927995Y2812998D01*
X922997D01*
X937992Y2808000D02*
Y2817997D01*
X932993Y2812998D01*
X939658D01*
X915000Y2450000D02*
Y2459997D01*
X919998D01*
X921665Y2458331D01*
Y2454998D01*
X919998Y2453332D01*
X915000D01*
X918332D02*
X921665Y2450000D01*
X931661Y2459997D02*
X928329Y2458331D01*
X924997Y2454998D01*
Y2451666D01*
X926663Y2450000D01*
X929995D01*
X931661Y2451666D01*
Y2453332D01*
X929995Y2454998D01*
X924997D01*
X941658Y2459997D02*
X934994D01*
Y2454998D01*
X938326Y2456665D01*
X939992D01*
X941658Y2454998D01*
Y2451666D01*
X939992Y2450000D01*
X936660D01*
X934994Y2451666D01*
X830000Y2450000D02*
Y2459997D01*
X834998D01*
X836665Y2458331D01*
Y2454998D01*
X834998Y2453332D01*
X830000D01*
X833332D02*
X836665Y2450000D01*
X846661Y2459997D02*
X843329Y2458331D01*
X839997Y2454998D01*
Y2451666D01*
X841663Y2450000D01*
X844995D01*
X846661Y2451666D01*
Y2453332D01*
X844995Y2454998D01*
X839997D01*
X856658Y2459997D02*
X853326Y2458331D01*
X849994Y2454998D01*
Y2451666D01*
X851660Y2450000D01*
X854992D01*
X856658Y2451666D01*
Y2453332D01*
X854992Y2454998D01*
X849994D01*
X1260000Y2553000D02*
Y2524000D01*
X1268000D01*
X1260000Y2746000D02*
Y2717000D01*
Y2746000D02*
X1268000D01*
X1600000Y2553000D02*
Y2524000D01*
X1596000Y2746000D02*
X1600000Y2742000D01*
Y2717000D01*
X1592000Y2746000D02*
X1596000D01*
X1230000Y2800000D02*
Y2480000D01*
X1580000Y2800000D02*
Y2480000D01*
X1230000D02*
X1580000D01*
X1230000Y2800000D02*
X1580000D01*
X1619997Y2745000D02*
X1611666D01*
X1610000Y2743334D01*
Y2740002D01*
X1611666Y2738336D01*
X1619997D01*
X1610000Y2728339D02*
Y2735003D01*
X1616664Y2728339D01*
X1618331D01*
X1619997Y2730005D01*
Y2733337D01*
X1618331Y2735003D01*
X1610000Y2725006D02*
Y2721674D01*
Y2723340D01*
X1619997D01*
X1618331Y2725006D01*
X1516664Y2813331D02*
X1514998Y2814997D01*
X1511666D01*
X1510000Y2813331D01*
Y2806666D01*
X1511666Y2805000D01*
X1514998D01*
X1516664Y2806666D01*
X1519997Y2805000D02*
X1523329D01*
X1521663D01*
Y2814997D01*
X1519997Y2813331D01*
X1528327D02*
X1529993Y2814997D01*
X1533326D01*
X1534992Y2813331D01*
Y2806666D01*
X1533326Y2805000D01*
X1529993D01*
X1528327Y2806666D01*
Y2813331D01*
X1538324D02*
X1539990Y2814997D01*
X1543323D01*
X1544989Y2813331D01*
Y2811665D01*
X1543323Y2809998D01*
X1541656D01*
X1543323D01*
X1544989Y2808332D01*
Y2806666D01*
X1543323Y2805000D01*
X1539990D01*
X1538324Y2806666D01*
X1556664Y2773331D02*
X1554998Y2774997D01*
X1551666D01*
X1550000Y2773331D01*
Y2766666D01*
X1551666Y2765000D01*
X1554998D01*
X1556664Y2766666D01*
X1559997Y2765000D02*
X1563329D01*
X1561663D01*
Y2774997D01*
X1559997Y2773331D01*
X1568327D02*
X1569993Y2774997D01*
X1573326D01*
X1574992Y2773331D01*
Y2766666D01*
X1573326Y2765000D01*
X1569993D01*
X1568327Y2766666D01*
Y2773331D01*
X1584989Y2765000D02*
X1578324D01*
X1584989Y2771665D01*
Y2773331D01*
X1583323Y2774997D01*
X1579990D01*
X1578324Y2773331D01*
X1355000Y2817997D02*
Y2808000D01*
X1359998D01*
X1361664Y2809666D01*
Y2816331D01*
X1359998Y2817997D01*
X1355000D01*
X1371661Y2808000D02*
X1364997D01*
X1371661Y2814665D01*
Y2816331D01*
X1369995Y2817997D01*
X1366663D01*
X1364997Y2816331D01*
X1379992Y2808000D02*
Y2817997D01*
X1374993Y2812998D01*
X1381658D01*
X1360000Y2459997D02*
Y2450000D01*
X1364998D01*
X1366664Y2451666D01*
Y2458331D01*
X1364998Y2459997D01*
X1360000D01*
X1376661Y2450000D02*
X1369997D01*
X1376661Y2456665D01*
Y2458331D01*
X1374995Y2459997D01*
X1371663D01*
X1369997Y2458331D01*
X1386658Y2459997D02*
X1379993D01*
Y2454998D01*
X1383326Y2456665D01*
X1384992D01*
X1386658Y2454998D01*
Y2451666D01*
X1384992Y2450000D01*
X1381660D01*
X1379993Y2451666D01*
X1275000Y2459997D02*
Y2450000D01*
X1279998D01*
X1281664Y2451666D01*
Y2458331D01*
X1279998Y2459997D01*
X1275000D01*
X1291661Y2450000D02*
X1284997D01*
X1291661Y2456665D01*
Y2458331D01*
X1289995Y2459997D01*
X1286663D01*
X1284997Y2458331D01*
X1301658Y2459997D02*
X1298326Y2458331D01*
X1294993Y2454998D01*
Y2451666D01*
X1296660Y2450000D01*
X1299992D01*
X1301658Y2451666D01*
Y2453332D01*
X1299992Y2454998D01*
X1294993D01*
X1393000Y2808000D02*
Y2817997D01*
X1397998D01*
X1399664Y2816331D01*
Y2812998D01*
X1397998Y2811332D01*
X1393000D01*
X1396332D02*
X1399664Y2808000D01*
X1409661Y2817997D02*
X1406329Y2816331D01*
X1402997Y2812998D01*
Y2809666D01*
X1404663Y2808000D01*
X1407995D01*
X1409661Y2809666D01*
Y2811332D01*
X1407995Y2812998D01*
X1402997D01*
X1417992Y2808000D02*
Y2817997D01*
X1412993Y2812998D01*
X1419658D01*
X1395000Y2450000D02*
Y2459997D01*
X1399998D01*
X1401664Y2458331D01*
Y2454998D01*
X1399998Y2453332D01*
X1395000D01*
X1398332D02*
X1401664Y2450000D01*
X1411661Y2459997D02*
X1408329Y2458331D01*
X1404997Y2454998D01*
Y2451666D01*
X1406663Y2450000D01*
X1409995D01*
X1411661Y2451666D01*
Y2453332D01*
X1409995Y2454998D01*
X1404997D01*
X1421658Y2459997D02*
X1414993D01*
Y2454998D01*
X1418326Y2456665D01*
X1419992D01*
X1421658Y2454998D01*
Y2451666D01*
X1419992Y2450000D01*
X1416660D01*
X1414993Y2451666D01*
X1310000Y2450000D02*
Y2459997D01*
X1314998D01*
X1316664Y2458331D01*
Y2454998D01*
X1314998Y2453332D01*
X1310000D01*
X1313332D02*
X1316664Y2450000D01*
X1326661Y2459997D02*
X1323329Y2458331D01*
X1319997Y2454998D01*
Y2451666D01*
X1321663Y2450000D01*
X1324995D01*
X1326661Y2451666D01*
Y2453332D01*
X1324995Y2454998D01*
X1319997D01*
X1336658Y2459997D02*
X1333326Y2458331D01*
X1329993Y2454998D01*
Y2451666D01*
X1331660Y2450000D01*
X1334992D01*
X1336658Y2451666D01*
Y2453332D01*
X1334992Y2454998D01*
X1329993D01*
X130000Y220000D02*
Y2845000D01*
X1930000D01*
Y220000D02*
Y2845000D01*
X130000Y220000D02*
X1930000D01*
D54*
X708500Y1965500D02*
G03*
X708500Y1965500I-1250J0D01*
G01*
X698000Y2156000D02*
G03*
X698000Y2156000I-1250J0D01*
G01*
X556500Y2151000D02*
G03*
X556500Y2151000I-1250J0D01*
G01*
X1110500Y2101750D02*
G03*
X1110500Y2101750I-1250J0D01*
G01*
X888250Y781750D02*
G03*
X888250Y781750I-1250J0D01*
G01*
X863000Y1234000D02*
G03*
X863000Y1234000I-1250J0D01*
G01*
D55*
X646016Y1857750D02*
G03*
X646016Y1857750I-1016J0D01*
G01*
Y1910500D02*
G03*
X646016Y1910500I-1016J0D01*
G01*
X646766Y1963750D02*
G03*
X646766Y1963750I-1016J0D01*
G01*
X1055016Y1780000D02*
G03*
X1055016Y1780000I-1016J0D01*
G01*
X947000Y338400D02*
G03*
X947000Y338400I-1000J0D01*
G01*
X1053000Y338000D02*
G03*
X1053000Y338000I-1000J0D01*
G01*
X807600Y506000D02*
G03*
X807600Y506000I-1000J0D01*
G01*
X972600D02*
G03*
X972600Y506000I-1000J0D01*
G01*
X1132600D02*
G03*
X1132600Y506000I-1000J0D01*
G01*
X1292600D02*
G03*
X1292600Y506000I-1000J0D01*
G01*
X240000Y1340000D02*
Y2420000D01*
X830000D01*
X1820000Y2320000D01*
X240000Y1340000D02*
X830000D01*
X1820000Y1440000D02*
Y2320000D01*
X830000Y1340000D02*
X1820000Y1440000D01*
X240000Y240000D02*
Y1320000D01*
Y240000D02*
X830000D01*
X1820000Y340000D01*
X240000Y1320000D02*
X830000D01*
X1820000Y1220000D01*
Y340000D02*
Y1220000D01*
D104*
X912250Y2241250D02*
D03*
D108*
X1086274Y2197750D02*
G03*
X1086274Y2197750I-1524J0D01*
G01*
X1454024Y1918250D02*
G03*
X1454024Y1918250I-1524J0D01*
G01*
X1466524Y1660000D02*
G03*
X1466524Y1660000I-1524J0D01*
G01*
D109*
X729750Y1952250D02*
G03*
X729750Y1952250I-3000J0D01*
G01*
X714000Y2179000D02*
G03*
X714000Y2179000I-3000J0D01*
G01*
X572500Y2174000D02*
G03*
X572500Y2174000I-3000J0D01*
G01*
X1097750Y2078750D02*
G03*
X1097750Y2078750I-3000J0D01*
G01*
D110*
X1484016Y1643000D02*
G03*
X1484016Y1643000I-1016J0D01*
G01*
X839000Y1771370D02*
Y1819500D01*
X860250D01*
Y1771250D02*
Y1819500D01*
X839000Y1771250D02*
X860250D01*
D111*
X351367Y2204452D02*
G03*
X351000Y2205500I1310J1048D01*
G01*
X832548Y1826190D02*
G03*
X831500Y1825823I-1048J1310D01*
G01*
D112*
X1076750Y2184500D02*
Y2186750D01*
X1057000Y2197750D02*
X1062500D01*
X1057000Y2173500D02*
X1062500D01*
X1042750Y2184500D02*
Y2187000D01*
X1494500Y1933500D02*
Y1937250D01*
X1476750Y1951250D02*
X1480500D01*
X1476750Y1919250D02*
X1480250D01*
X1462500Y1933500D02*
Y1937000D01*
X1465500Y1642250D02*
Y1642750D01*
X1452250Y1653500D02*
X1452750D01*
X1452250Y1631500D02*
X1452750D01*
X1439500Y1642250D02*
Y1642750D01*
X565000Y1770000D02*
Y1800000D01*
X495000Y1770000D02*
X565000D01*
X495000D02*
Y1800000D01*
X565000Y1960000D02*
Y1990000D01*
X495000D02*
X565000D01*
X495000Y1960000D02*
Y1990000D01*
X1193000Y1509923D02*
Y1525163D01*
X1205250Y1509923D02*
Y1525163D01*
X1486000Y1654750D02*
Y1655250D01*
X1479952Y1654750D02*
Y1655250D01*
Y1654750D02*
X1486000D01*
X1479952Y1655250D02*
X1486000D01*
X1283000Y1496500D02*
X1405214D01*
Y1656510D01*
X1283000Y1496500D02*
Y1656510D01*
X1405214D01*
X649530Y392250D02*
Y420750D01*
X601874D02*
X649530D01*
X601874Y392250D02*
Y420750D01*
Y392250D02*
X649530D01*
X1425000Y446220D02*
X1453500D01*
Y493876D01*
X1425000D02*
X1453500D01*
X1425000Y446220D02*
Y493876D01*
X328250Y1070250D02*
Y1090500D01*
X309500Y1070250D02*
X315250D01*
X296500Y1070500D02*
Y1090500D01*
X384750Y640500D02*
X405000D01*
X384750Y653500D02*
Y659250D01*
X385000Y672250D02*
X405000D01*
X1399220Y922750D02*
Y951250D01*
Y922750D02*
X1446876D01*
Y951250D01*
X1399220D02*
X1446876D01*
X650780Y450250D02*
Y478750D01*
X603124D02*
X650780D01*
X603124Y450250D02*
Y478750D01*
Y450250D02*
X650780D01*
X650530Y497000D02*
Y525500D01*
X602874D02*
X650530D01*
X602874Y497000D02*
Y525500D01*
Y497000D02*
X650530D01*
X1359970Y546000D02*
Y574500D01*
Y546000D02*
X1407626D01*
Y574500D01*
X1359970D02*
X1407626D01*
X1359970Y490750D02*
Y519250D01*
Y490750D02*
X1407626D01*
Y519250D01*
X1359970D02*
X1407626D01*
X928050Y863430D02*
Y967570D01*
X1086800Y863430D02*
Y967570D01*
X928050Y863430D02*
X1052510D01*
Y872320D01*
X1067750D01*
Y863430D02*
Y872320D01*
Y863430D02*
X1086800D01*
X928050Y967570D02*
X1052510D01*
Y958680D02*
Y967570D01*
Y958680D02*
X1067750D01*
Y967570D01*
X1086800D01*
X926800Y1120180D02*
Y1224320D01*
X1085550Y1120180D02*
Y1224320D01*
X926800Y1120180D02*
X1051260D01*
Y1129070D01*
X1066500D01*
Y1120180D02*
Y1129070D01*
Y1120180D02*
X1085550D01*
X926800Y1224320D02*
X1051260D01*
Y1215430D02*
Y1224320D01*
Y1215430D02*
X1066500D01*
Y1224320D01*
X1085550D01*
X350250Y1106500D02*
X406250D01*
X350751Y1066500D02*
X405752D01*
X813000Y909000D02*
Y965000D01*
X853000Y909501D02*
Y964502D01*
Y1047000D02*
Y1103000D01*
X813000Y1047498D02*
Y1102499D01*
X433000Y555000D02*
X489000D01*
X433498Y595000D02*
X488499D01*
X394000Y2799958D02*
X396250D01*
Y2790151D01*
X395250Y2799527D02*
Y2790151D01*
X394000D02*
X396250D01*
X394000Y2799958D02*
Y2790151D01*
X404000Y2474958D02*
X406250D01*
Y2465151D01*
X405250Y2474527D02*
Y2465151D01*
X404000D02*
X406250D01*
X404000Y2474958D02*
Y2465151D01*
X324000Y2474958D02*
X326250D01*
Y2465151D01*
X325250Y2474527D02*
Y2465151D01*
X324000D02*
X326250D01*
X324000Y2474958D02*
Y2465151D01*
X874000Y2799958D02*
X876250D01*
Y2790151D01*
X875250Y2799527D02*
Y2790151D01*
X874000D02*
X876250D01*
X874000Y2799958D02*
Y2790151D01*
X884000Y2474958D02*
X886250D01*
Y2465151D01*
X885250Y2474527D02*
Y2465151D01*
X884000D02*
X886250D01*
X884000Y2474958D02*
Y2465151D01*
X804000Y2474958D02*
X806250D01*
Y2465151D01*
X805250Y2474527D02*
Y2465151D01*
X804000D02*
X806250D01*
X804000Y2474958D02*
Y2465151D01*
X1354000Y2799958D02*
X1356250D01*
Y2790151D01*
X1355250Y2799527D02*
Y2790151D01*
X1354000D02*
X1356250D01*
X1354000Y2799958D02*
Y2790151D01*
X1364000Y2474958D02*
X1366250D01*
Y2465151D01*
X1365250Y2474527D02*
Y2465151D01*
X1364000D02*
X1366250D01*
X1364000Y2474958D02*
Y2465151D01*
X1284000Y2474958D02*
X1286250D01*
Y2465151D01*
X1285250Y2474527D02*
Y2465151D01*
X1284000D02*
X1286250D01*
X1284000Y2474958D02*
Y2465151D01*
D113*
X1734800Y1928000D02*
Y2058000D01*
X1709300Y1928000D02*
X1734800D01*
X1709300Y2058000D02*
X1734800D01*
X1609800Y1929000D02*
Y2057000D01*
X1734000Y2118000D02*
Y2248000D01*
X1708500Y2118000D02*
X1734000D01*
X1708500Y2248000D02*
X1734000D01*
X1609000Y2119000D02*
Y2247000D01*
X659500Y1823250D02*
Y1852103D01*
X652750Y1823250D02*
Y1852103D01*
Y1823250D02*
X659500D01*
X652750Y1852103D02*
X659500D01*
Y1876000D02*
Y1904853D01*
X652750Y1876000D02*
Y1904853D01*
Y1876000D02*
X659500D01*
X652750Y1904853D02*
X659500D01*
X660250Y1929250D02*
Y1958103D01*
X653500Y1929250D02*
Y1958103D01*
Y1929250D02*
X660250D01*
X653500Y1958103D02*
X660250D01*
X1059647Y1794500D02*
X1088500D01*
X1059647Y1787750D02*
X1088500D01*
Y1794500D01*
X1059647Y1787750D02*
Y1794500D01*
X1376854Y1921276D02*
Y1926864D01*
X1369500Y1921276D02*
X1376854D01*
Y1944136D02*
Y1949724D01*
X1369500D02*
X1376854D01*
X1407490Y2030912D02*
Y2036500D01*
X1400136Y2030912D02*
X1407490D01*
Y2053772D02*
Y2059360D01*
X1400136D02*
X1407490D01*
Y2064912D02*
Y2070500D01*
X1400136Y2064912D02*
X1407490D01*
Y2087772D02*
Y2093360D01*
X1400136D02*
X1407490D01*
Y2098912D02*
Y2104500D01*
X1400136Y2098912D02*
X1407490D01*
Y2121772D02*
Y2127360D01*
X1400136D02*
X1407490D01*
Y2132912D02*
Y2138500D01*
X1400136Y2132912D02*
X1407490D01*
Y2155772D02*
Y2161360D01*
X1400136D02*
X1407490D01*
Y2165912D02*
Y2171500D01*
X1400136Y2165912D02*
X1407490D01*
Y2188772D02*
Y2194360D01*
X1400136D02*
X1407490D01*
Y2198912D02*
Y2204500D01*
X1400136Y2198912D02*
X1407490D01*
Y2221772D02*
Y2227360D01*
X1400136D02*
X1407490D01*
X1045776Y2356146D02*
X1051364D01*
X1045776D02*
Y2363500D01*
X1068636Y2356146D02*
X1074224D01*
Y2363500D01*
X1092276Y2351896D02*
X1097864D01*
X1092276D02*
Y2359250D01*
X1115136Y2351896D02*
X1120724D01*
Y2359250D01*
X1137276Y2346896D02*
X1142864D01*
X1137276D02*
Y2354250D01*
X1160136Y2346896D02*
X1165724D01*
Y2354250D01*
X1184526Y2340896D02*
X1190114D01*
X1184526D02*
Y2348250D01*
X1207386Y2340896D02*
X1212974D01*
Y2348250D01*
X1585604Y2131276D02*
Y2136864D01*
X1578250Y2131276D02*
X1585604D01*
Y2154136D02*
Y2159724D01*
X1578250D02*
X1585604D01*
X870104Y1493276D02*
Y1498864D01*
X862750Y1493276D02*
X870104D01*
Y1516136D02*
Y1521724D01*
X862750D02*
X870104D01*
X1138776Y1541146D02*
X1144364D01*
X1138776D02*
Y1548500D01*
X1161636Y1541146D02*
X1167224D01*
Y1548500D01*
X591776Y624146D02*
X597364D01*
X591776D02*
Y631500D01*
X614636Y624146D02*
X620224D01*
Y631500D01*
X537646Y1146886D02*
Y1152474D01*
X545000D01*
X537646Y1124026D02*
Y1129614D01*
Y1124026D02*
X545000D01*
X490886Y1067354D02*
X496474D01*
Y1060000D02*
Y1067354D01*
X468026D02*
X473614D01*
X468026Y1060000D02*
Y1067354D01*
X766886Y767104D02*
X772474D01*
Y759750D02*
Y767104D01*
X744026D02*
X749614D01*
X744026Y759750D02*
Y767104D01*
X562636Y985354D02*
X568224D01*
Y978000D02*
Y985354D01*
X539776D02*
X545364D01*
X539776Y978000D02*
Y985354D01*
X378136Y580104D02*
X383724D01*
Y572750D02*
Y580104D01*
X355276D02*
X360864D01*
X355276Y572750D02*
Y580104D01*
D114*
X1693613Y1688190D02*
D03*
X1693599Y1611995D02*
D03*
X1505500Y1643375D02*
D03*
D115*
X1648125Y1650250D02*
D03*
X1555875Y1594250D02*
D03*
X1687375Y1724500D02*
D03*
Y1577000D02*
D03*
D116*
X703500Y2108000D02*
D03*
D117*
X1290000Y1751250D02*
D03*
X1314250Y2073500D02*
D03*
X935250Y1948250D02*
D03*
X1392000Y992999D02*
D03*
X1245999Y885000D02*
D03*
X1392000Y886000D02*
D03*
X437751Y657750D02*
D03*
X1174999Y884000D02*
D03*
X1143999D02*
D03*
D118*
X342500Y2094000D02*
D03*
X343000Y2064000D02*
D03*
X418250Y2083500D02*
D03*
X418500Y2112750D02*
D03*
X418750Y2142000D02*
D03*
X419000Y2169500D02*
D03*
X1122000Y1917000D02*
D03*
X997000Y1796500D02*
D03*
X312000Y1112000D02*
D03*
X1359000Y691000D02*
D03*
X1382750Y651500D02*
D03*
X515000Y860000D02*
D03*
D119*
X923750Y1441500D02*
D03*
X713500Y1977000D02*
D03*
X756750D02*
D03*
X700500Y2128500D02*
D03*
X734500D02*
D03*
X785750Y1744000D02*
D03*
X884000Y1832500D02*
D03*
X425000Y2034000D02*
D03*
X278500Y2240250D02*
D03*
X337250Y2241000D02*
D03*
X944000Y2196750D02*
D03*
Y2218000D02*
D03*
X1133750Y1889750D02*
D03*
Y1868750D02*
D03*
X999750Y2169750D02*
D03*
Y2184750D02*
D03*
X1111000Y2165000D02*
D03*
Y2186000D02*
D03*
X1572000Y2283750D02*
D03*
X1060000Y2222000D02*
D03*
X592500Y2127500D02*
D03*
X555000D02*
D03*
X996750Y1765500D02*
D03*
X1685000Y2084500D02*
D03*
X1683750Y2277250D02*
D03*
X903000Y842000D02*
D03*
X1500000Y1137000D02*
D03*
X506500Y920500D02*
D03*
X1642000Y1194000D02*
D03*
X846750Y1176250D02*
D03*
X561500Y2787251D02*
D03*
Y2773001D02*
D03*
X1041500Y2787251D02*
D03*
Y2773001D02*
D03*
X1521500Y2787251D02*
D03*
Y2773001D02*
D03*
D120*
X1442498Y1934000D02*
D03*
X1255752Y1749500D02*
D03*
X765000Y2187500D02*
D03*
X688500D02*
D03*
X627500Y2181250D02*
D03*
X545500Y2179500D02*
D03*
X688500Y2227250D02*
D03*
X1281250Y2072750D02*
D03*
X1171250Y2117250D02*
D03*
X1150250D02*
D03*
X911250Y1940250D02*
D03*
X889250D02*
D03*
X918250Y2102250D02*
D03*
X898250D02*
D03*
X547500Y2222500D02*
D03*
X1505250Y1585750D02*
D03*
X1659503Y1569880D02*
D03*
X1657865Y1730465D02*
D03*
X1251000Y1508500D02*
D03*
X482000Y1121500D02*
D03*
X627250Y774250D02*
D03*
X906250Y751000D02*
D03*
X1522999Y1146500D02*
D03*
X1515001Y1194000D02*
D03*
X1530000D02*
D03*
X842250Y1266750D02*
D03*
X1694000Y1149999D02*
D03*
X1420000Y986999D02*
D03*
X1198000Y881000D02*
D03*
X369000Y614000D02*
D03*
D121*
X499182Y2251875D02*
D03*
X1541818Y2145375D02*
D03*
X1341318Y1936375D02*
D03*
X1336818Y2309375D02*
D03*
X1059432Y2322375D02*
D03*
X1106432Y2320375D02*
D03*
X281682Y2210625D02*
D03*
X1210568Y1612375D02*
D03*
X1231818D02*
D03*
X927068Y2302375D02*
D03*
X964182Y2302625D02*
D03*
X1469318Y1489875D02*
D03*
X1243432Y1997375D02*
D03*
X1244068Y1943875D02*
D03*
X894068Y2325511D02*
D03*
X893318Y2285375D02*
D03*
X1494568Y1489375D02*
D03*
X1520068Y1489125D02*
D03*
X1415568Y2310375D02*
D03*
X455318Y1492625D02*
D03*
X922432Y1385625D02*
D03*
X798568Y1502875D02*
D03*
X632068Y1498875D02*
D03*
X654318D02*
D03*
X754818Y1436375D02*
D03*
X812432Y1432375D02*
D03*
X448682Y1158375D02*
D03*
Y1060875D02*
D03*
X448682Y1100375D02*
D03*
X722682Y758875D02*
D03*
Y797625D02*
D03*
X621568Y1277875D02*
D03*
X576182Y1138625D02*
D03*
X586182Y977625D02*
D03*
X1466068Y1192875D02*
D03*
X1546068Y1193875D02*
D03*
X586432Y1018625D02*
D03*
X1466068Y1155875D02*
D03*
X1437068Y1168875D02*
D03*
X401182Y564875D02*
D03*
X400932Y605625D02*
D03*
D122*
X785625Y1723568D02*
D03*
X1276625Y2244068D02*
D03*
X1319125D02*
D03*
X1453875Y2032704D02*
D03*
Y2065432D02*
D03*
Y2098159D02*
D03*
Y2130886D02*
D03*
Y2163613D02*
D03*
Y2196340D02*
D03*
X1453761Y2048932D02*
D03*
Y2081659D02*
D03*
Y2114386D02*
D03*
Y2147114D02*
D03*
X1453761Y2179568D02*
D03*
X1453761Y2212568D02*
D03*
X1143375Y2317818D02*
D03*
X1190625Y2314818D02*
D03*
X278375Y2257568D02*
D03*
X1515125Y2262818D02*
D03*
X1571875Y2263818D02*
D03*
X1239125Y1540068D02*
D03*
Y1555068D02*
D03*
X720875Y2004568D02*
D03*
X910125Y1507432D02*
D03*
X827875Y2346682D02*
D03*
X828375Y2327432D02*
D03*
X827625Y2294682D02*
D03*
X827375Y2275682D02*
D03*
X318125Y2314568D02*
D03*
X506375Y2180932D02*
D03*
X688625Y2004182D02*
D03*
X523125Y1493568D02*
D03*
X877125Y1537818D02*
D03*
X1153375Y1578682D02*
D03*
X1459625Y1594318D02*
D03*
X1276375Y2271568D02*
D03*
X1319125D02*
D03*
X435375Y893182D02*
D03*
X607875Y337682D02*
D03*
X605875Y665682D02*
D03*
X1500125Y1154068D02*
D03*
X370625Y302568D02*
D03*
X430125Y2795068D02*
D03*
X440125Y2470068D02*
D03*
X360125D02*
D03*
X910125Y2795068D02*
D03*
X920125Y2470068D02*
D03*
X840125D02*
D03*
X1390125Y2795068D02*
D03*
X1400125Y2470068D02*
D03*
X1320125D02*
D03*
D123*
X374125Y1086500D02*
D03*
X465125Y575000D02*
D03*
D124*
X833000Y932875D02*
D03*
Y1079125D02*
D03*
D125*
X1353000Y1018500D02*
D03*
X1280000D02*
D03*
Y915500D02*
D03*
X1353000D02*
D03*
X820500Y398500D02*
D03*
X893500D02*
D03*
X1149000Y398500D02*
D03*
X1222000D02*
D03*
D126*
X744250Y624750D02*
D03*
Y697750D02*
D03*
X908000Y624750D02*
D03*
Y697750D02*
D03*
X1071000Y624750D02*
D03*
Y697750D02*
D03*
X1230500Y624750D02*
D03*
Y697750D02*
D03*
D127*
X381000Y2803128D02*
G03*
X381000Y2803128I0J2032D01*
G01*
X391000Y2478128D02*
G03*
X391000Y2478128I0J2032D01*
G01*
X311000D02*
G03*
X311000Y2478128I0J2032D01*
G01*
X861000Y2803128D02*
G03*
X861000Y2803128I0J2032D01*
G01*
X871000Y2478128D02*
G03*
X871000Y2478128I0J2032D01*
G01*
X791000D02*
G03*
X791000Y2478128I0J2032D01*
G01*
X1341000Y2803128D02*
G03*
X1341000Y2803128I0J2032D01*
G01*
X1351000Y2478128D02*
G03*
X1351000Y2478128I0J2032D01*
G01*
X1271000D02*
G03*
X1271000Y2478128I0J2032D01*
G01*
M02*
