M48
;Layer_Color=9474304
;FILE_FORMAT=4:4
METRIC,LZ
;TYPE=NON_PLATED
T20F00S00C0.5000
T21F00S00C0.8000
T22F00S00C0.9000
T23F00S00C1.2000
%
T20
X0023Y00265
Y00275
Y00285
Y00295
X01280314Y00276617
X01290276Y00277488
X01300238Y0027836
X013102Y00279231
X0183Y00365
Y00375
Y00385
Y00395
Y00765
Y00775
Y00785
X0023
Y00775
Y00765
Y00795
X0183
Y0116
Y0117
Y0118
Y0119
Y01465
Y01475
Y01485
Y01495
X013162Y01380231
X01306238Y0137936
X01296276Y01378488
X01286314Y01377617
X01285314Y01283231
X01295276Y0128236
X01305238Y01281488
X013152Y01280617
X00795Y0133
X00785
X00775
X00765
X00295
X00285
X00275
X00265
X0023Y01365
Y01375
Y01385
Y01395
Y01295
Y01285
Y01275
Y01265
Y01865
Y01875
Y01885
Y01895
X0183
Y01885
Y01875
Y01865
Y02265
Y02275
Y02285
Y02295
Y02365
Y02375
X01324924Y02378257
X01314962Y02379128
X01305Y0238
X01295038Y02380872
X0023Y02375
Y02365
Y02385
Y02395
X00265Y0243
X00275
X00285
X00295
X0023Y02485
Y02495
Y02505
Y02515
Y0275
Y0276
Y0277
X0071Y0275
Y0274
Y0273
Y0272
Y02545
Y02535
Y02525
Y02515
X00765Y0243
X00775
X00785
X00525
X00515
X00505
X00495
X00795
X0119Y02515
Y02525
Y02535
Y02545
Y0272
Y0273
Y0274
Y0275
X01285Y0243
X01295
X01305
X01315
X0154
X0155
X0156
X0157
X0175
X0176
X0177
X0178
X0183Y02395
Y02385
X0167Y02625
Y02635
Y02645
Y02655
X0023Y0278
T21
X0053Y00881
Y01779
T22
X01353Y02311
X01383
X014335Y02302
X014635
T23
X0053Y00679
Y01981
M30
