M48
;Layer_Color=9474304
;FILE_FORMAT=4:4
METRIC,LZ
;TYPE=PLATED
T1F00S00C0.2500
T2F00S00C0.3000
T3F00S00C0.3500
T4F00S00C0.4000
T5F00S00C0.4064
T6F00S00C0.5000
T7F00S00C0.6000
T8F00S00C0.7112
T9F00S00C0.8000
T10F00S00C0.9000
T11F00S00C0.9500
T12F00S00C1.0000
T13F00S00C1.1000
T14F00S00C1.1176
T15F00S00C1.5240
T16F00S00C1.7000
T17F00S00C2.3000
T18F00S00C3.2000
T19F00S00C3.3020
%
T01
X01603375Y0145425
X01635687
X01668
X01664Y01438
X01700312Y0145425
X01732625
X017325Y0147175
X0169325Y014845
X017195Y01513
X0174325Y0151575
X01773Y0153125
Y01558295
Y01585341
X0171825Y015745
X01718Y0155975
X016695Y015625
X0164625Y0156625
X016465Y0155375
X0164675Y0158525
X016365Y0158325
X0162875Y0157575
X01621Y01583
X01605Y01584
X0161625Y0157
X016105Y01514
X0166675Y0151325
X0156Y01514
X015045Y015105
X01481Y0151275
X0145325Y0151025
X014535Y014845
X014255Y0148475
X01414Y01485
X01399
X01384
X01369
X01354
X01339
X01324
X01309
X01294
X01279
X01264
X012495Y0148475
X012335Y014845
X01229Y0146225
X0121725Y0149575
X0120325Y0148725
X0119475Y0154725
X0121825Y015675
X012315Y015675
X012465
X01228Y0158425
X0120325Y0158725
X01304Y01575
Y0156
Y015455
Y0153
Y01515
Y015
X01264
Y0153
X0132Y015455
X01336
X01352
X01368
X01384
X01384Y0156
Y01575
X014255Y0157475
Y0155975
Y0154475
X01425Y0152975
X014255Y0151475
Y0149975
X01384Y015
Y01515
Y0153
X014425Y01547
X0146225Y015465
X014645Y01529
X0146075Y0158075
X0147575Y015795
X0149125Y0158225
X015Y015665
X0151175Y01566
X01521Y0158375
X0153325Y01584
X01555Y0157925
X01581Y0158325
X01571062Y0145425
X0157375Y0143275
X0153875Y0145425
X015195Y014595
X01506072Y01454268
X0150675Y0146825
X0149425Y014605
X0148075Y01468
X01474125Y0145425
X01441812
X014095
X01377188
X013825Y014325
X01344875Y0145425
X0131475Y0146425
X01459Y014355
X0145925Y014215
X01443Y0156675
X0118225Y015335
X01169Y0153375
X01168Y0150275
X011825Y01503
X011865Y014755
X0112375Y014375
X0107875Y014435
X009785
X00944Y01441
Y0145
Y0145925
X0094775Y0148025
X00915Y0147675
X0090225
Y0146575
Y0145125
Y0144125
X0091525Y0145125
X0090475Y0139425
X009225Y0136475
X0086425Y0143025
X008285Y0142475
X00834Y0146225
X0083025Y01498
X0083925
X0085175Y0148625
X007985Y0147925
X0079825Y0152525
X0087775Y01524
X0089775Y0153775
X0088975Y0156475
X010195Y0153425
X011325Y0155825
Y01567855
Y0157725
X0115275Y0139575
X007935Y0145225
X0073925Y0144875
X00702Y0141975
X0067Y01446
X006545Y014775
X00632Y0147775
X0063225Y0152225
X0065425
X0059475Y0155
X0053825Y015495
X0048175Y01548
X004235Y0154525
X0050075Y015045
X004755Y0147575
X0055375Y01501
X0061925Y0141875
X005715Y013635
X004085Y013655
X007555Y0158
X002645Y015145
X00262Y0163525
X00263Y017435
X0045225Y0171725
X0050525Y0171775
X0054775Y0177975
X0057925Y0180225
X0063425Y0178425
X0063625Y01753
X0066775Y017085
X006255Y016685
X00655Y016385
X0054325Y0163875
X0056875Y0161275
X004535Y0158925
X0046075Y01779
X006345Y018375
X0066025
X006645Y0181525
X00702Y01853
X0072Y0188675
X0072025Y0189325
X0074875Y0189375
Y01887
X007505Y0185625
X00788Y01892
X00789Y0194525
X00783Y0196825
X0077575Y019775
X0074825Y0196575
Y0194575
X0072225Y01952
X0072175Y0196625
X00735Y01923
X006605Y01944
X00632Y0194375
X006345Y018905
X0066025
X0075275Y0168175
X0078475Y016295
X00808586Y01628635
X008405Y016045
X0085725Y01621
X00872125Y01635708
X00887Y01650417
X00901875Y01665125
X0091675Y01679833
X00931625Y01694542
X009465Y0171
X0096555Y0171075
X009846
X0100365
X010227
X0104175
X0105575Y01723917
X01070625Y01738625
X010855Y01753333
X01100375Y01768042
X0110075Y0178925
X0109925Y0181175
X0109525Y0183675
X010955Y018605
X01113Y0188125
X0111175Y0189875
X010955Y0189925
X0109075Y01923
X011025Y01934
X0108725Y0196475
X010805Y01971
X0107125
X0106275
X0105505Y01980794
X010325Y019775
X0102075Y0197625
X0101225Y019665
X01002Y0196717
X0099025Y019685
X009715Y019555
X0103375Y0193025
X010485Y0192975
X0106
X01088552Y01981044
X01135Y0197525
X01158Y0196625
X0116Y0195375
X0114975Y019575
X0115925Y019835
X010635Y0185075
X0106325Y0182975
X0105Y0180425
Y01785
X010495Y017655
X010395Y0175375
X01028Y017425
X0100895
X009899
X0097085
X009518
X0093275
X00917875Y01727042
X00903Y01712333
X00888125Y01697625
X0087325Y01682917
X00858375Y01668208
X008435Y016535
X00828Y0168225
X008115Y01742
X00804Y0177675
X008035Y017895
X00809Y0183025
X00862Y018325
X0087525Y0184625
X0089225Y018455
X00894792Y01820286
X008935Y0180175
X00843Y0177675
X0096225Y0177875
X0095575Y01683
X0100625Y016855
X0104625
X01086Y016135
X011455Y0160125
X01136Y0165725
X0119Y0170825
X01074Y017875
Y01797
X009385Y0187875
X0082725Y01892
X008265Y019025
X008305Y0195075
X007965Y01936
X009845Y016135
X01197998Y01637248
X01195Y0165125
X01225Y0165275
X01222Y0163175
X01221Y01603
X01248Y01604
X01264Y01605
Y0159
X01279Y015875
X01294
X01309
X01324
X01339
X01354
X01369
X01384
X01384Y016
Y01615
X013885Y0162475
X01384Y0163
Y01645
X01386031Y01657
X01402437
X01418844
X0143525
X0143725Y0167
X01453Y0167025
X014705Y0167
X0148825Y0167025
X0150725Y0166975
X0151725Y0167075
X01532Y016705
X015255Y016315
X0152025Y0161975
X015205Y0160675
X015355
X0156275Y0160725
X0158225Y016055
X0157725Y01623
X0157825Y016775
X01573Y0172375
X01570857Y01802857
X0155225Y01815
X01550893Y01782893
X01530928Y01762929
X01510964Y01742964
X0147825Y0174475
X014855Y0176675
X01491Y01723
X01463458
X01435917
X01408375
X014055Y0174475
X01380833Y01723
X01353292
X0132575
X013305Y0174525
X013535Y0176675
X0135025Y016925
X01353219Y01657
X01336812
X01320406
X01304
Y01645
Y0163
Y01615
Y016
X0131725Y01623
X01335
X0135275
X013705
X01369625Y01657
X01409Y016925
X0147175Y01692
X0147225Y016325
X0148875
X0149525Y01614
X0148625Y016045
X0147375Y0160975
X01463928Y016183
X01449263Y01618118
X0145475Y01609
X0144075Y0161125
X01434Y0161925
X014215Y0162075
X01414Y015875
X01399
X01264Y0162
Y01635
Y0165
Y01665
X01279
X012965
X01305Y0171025
X01282875
X0126075
X012425Y01721
X01243Y0169625
Y016778
Y0165935
Y016409
X012475Y0162245
X012245Y0170375
X0123875Y0178475
X0121525Y018235
X012145Y0183675
X0121525Y018465
X0121675Y0185675
X012585Y018565
X0125125Y01865
X012595Y0182775
X012775Y0184375
X01286Y0189075
X012865Y0191325
X01244Y0192275
X01231Y019105
X0124375Y019635
X0124325Y0197725
X01213Y0196625
X01293Y01978
X01326Y0194425
X0133875Y019125
X013555Y018725
X0136225Y01973
X0150775Y019475
X01508Y0192325
X0153075Y019365
X0148075Y0187375
X01616Y0188025
X0163075Y0186275
X0165205Y0186275
X0167335
X0169465
X0171595
X0173775Y018495
X01758Y01829
X01773Y01801704
Y01774659
Y01747614
Y01720568
Y01693523
Y01666477
Y01639432
Y01612386
X018005Y01593
X0171825Y015895
Y016045
Y016195
Y016345
X017105Y0165
X0171825Y016645
Y016795
Y016945
Y017095
Y017245
Y017395
X0168275Y0174025
X01668298Y01738929
X01647332Y01738716
X0164725Y0174925
X016445Y0172225
X0164875Y01703
X01657536Y01710924
X01665666Y01702793
X016755Y0169725
Y0171101
Y0168325
X0167575Y0167
X01659Y01671
X016415Y0167125
X016235Y01671
X01623Y01629
X01641Y0162925
X01657079Y01629027
X0166725Y01634
X0167658Y01627027
X0167575Y01616
X01676Y01603
X0166725Y0160075
X01659224Y01594329
X0165225Y01602
X0164
X0161575Y0160525
X0160225Y016055
X016755Y015905
X016835Y0165025
X016665Y0166075
X016695Y017855
X0169225Y018095
X017175Y0178525
X016135Y01773
X01610786Y01842786
X01590821Y01822821
X0180225Y0172225
X0179325Y0198425
X017955Y0208825
X0179675Y02172
X0169575Y0222
X0164625Y02221
X016205Y022215
X016035Y0222275
X0159275Y0226975
X0160075Y0228425
X016655Y023155
X0169225Y022895
X01705Y0227775
X01634Y0215875
X016342Y02035
X0162175Y0203525
X0160675Y0202775
X01647Y0203475
X0164725Y020045
X016965Y0202575
X01595Y0198475
X0152775Y0198825
X015435Y020465
X0154925Y0211875
X0155425Y02135848
X01568Y0212375
X01523Y0215375
X0143325Y021475
X014245Y02147
X0143325Y021635
Y021795
X0142475Y021805
X0143325Y0219625
X014335Y02213
X014245
X0137625Y0222275
X013765Y0219
X01376Y0215675
Y02123
Y02089
X013765Y02055
X0138675Y02011
X0143475Y0203275
Y0205125
Y0206525
X01434Y02082
X014245Y0207875
X0143425Y020985
X0143375Y021145
X0142425Y02113
X0143425Y021305
X0142375Y0204525
X012355Y0203175
X012435Y0201825
X01235Y0206
X0120575Y0203475
X0119875Y0208175
X0121975Y0218025
X012205Y0222125
X01233Y02245
X01256Y022445
Y022715
X0129725Y022585
X012975Y0223375
X0132775Y02258
X0132825Y0220925
X0130025Y0217175
X0130475Y0213525
X0124875Y021515
X0121Y0224975
X012215Y0235875
X01334Y0234025
X0136025Y0232175
X013795Y0233975
X0141425Y023395
X014415Y0232225
X0145925Y0233925
X014565Y0228125
X01458Y0224975
X0154675Y0226375
X015745Y0224525
X0156475Y023225
X0153125Y0232725
X0137525Y02282
X0113925Y022645
X0116825Y022275
X01153Y0215225
X0111925Y0210575
X01131554Y02080549
X011385Y0205525
X0115275Y020555
X0118475Y02063
X01102Y0205875
X01098Y0207375
X0109225Y0204205
Y02029
X01102802Y02025546
X011025Y02018
X01099552Y02010045
X011015Y020025
X01097Y01985
X01139Y0199475
X01084Y020355
Y0204825
X0105575Y020605
X0104675Y0205925
X010375Y0206325
Y0208275
X0102475Y0207975
X010315Y02122
X010235Y0212975
X010165Y0213875
X0100725Y021485
X00952795Y02131301
X0095675Y0211625
X009585Y02102
X009505Y02084
X0091175Y02053
X009235Y0204025
X009975Y0202525
X010485Y0198875
X01065051Y02118301
X01077Y02119
X0108575Y0213025
X01078Y02222
X0107Y02234
X01051
X01041Y02222
X01037Y02198
X0102825Y02249
X010125Y0228825
X010375Y0234525
X01082Y0237425
X01122Y023545
X011735Y0236525
X0091Y023165
X00874Y0230375
Y0226275
X00851Y0225825
X008395Y0231175
X008035Y0234075
X008725Y023465
X0089725Y0219575
X0086725Y02155
X008415Y0208025
X0083925Y02053
X008285Y02063
X008165Y02073
X0083325Y02016
X007635Y020125
X0074925Y0200475
X0074125
X0074825Y01988
X0076525Y019895
X00722Y0198825
X0066825Y020045
X006605
X00663Y0201525
X00573Y02018
X00516Y0203625
X00517Y02148
X0051425Y021635
X0049325Y02148
X00534025Y02187804
X00558Y02188
X005825Y021835
X00588Y02195
X0061575Y0218975
X0064
X0067625Y0219625
X006765Y0221875
X00677Y022365
X007Y0223575
X0070025Y0219625
X007535Y02196
X00777Y021965
X00678Y02158
X006655Y021205
X0062425Y0214125
X0059425Y0211175
X0059Y02229
X00558276Y02231056
X00536Y0223125
X0053525Y02214
X0051275Y0224825
X0048025Y0226175
X0047975Y0229425
X004165Y02315
X0044625Y02349
X005315Y0234875
X0058625Y0234825
X0062225Y02349
X0061175Y0231875
X006815Y0231825
X0074775Y02317
X0061975Y0221675
X0035275Y0234825
X0029575Y023145
X0026175Y02282
X0026125Y0215375
X002635Y0202575
X004155Y023995
X0051475Y0240075
X00639Y0240125
X0088475Y0239225
X009815Y0238275
T02
X0041Y00274
X00423Y00318
X00466Y00381
X00555Y00347
X00558Y00275
X00657Y00274
X00934Y0028
X0105Y00294
X01154Y00304
X01211Y00307
X01373Y0032
X0148Y00336
X01619Y00352
X01785Y005
Y00629
X01627Y00738
X01502Y00737
Y00634
X015Y00527
X01481Y00418
X01147Y00554
X00983Y00551
X00817Y0055
X00649Y00554
X00644Y00434
X00513Y00553
X0040125Y0054625
X0043775Y00682
X00449
Y00674
X00362Y00671
X0035325Y0066475
X00362Y00623
X00376
X0036Y0055
X00273Y00601
X00272Y00449
X00277Y00917
Y0116
X00356Y01147
X00463Y01093
X00498Y0107
X00508Y01019
X00488Y00967
X0045Y00937
X00406Y00976
X00416Y01038
X00524Y0119
X00555Y01166
X00581Y00858
X00709Y00825
X00752Y00826
X00951Y00845
X01114Y00847
X00929Y00988
X00988Y01104
X01465Y00979
X01524Y0097
X01516Y00886
X01586Y0113665
Y0114415
Y0115165
Y0115915
Y0116665
X01596
Y0115915
Y0115165
Y0114415
Y0113665
X01606
Y0114415
Y0115165
Y0115915
Y0116665
X01782Y01082
X01336Y01235
X01113Y01257
X00966Y01274
X00879Y01217
X00648Y01226
X00469Y01195
X00437Y01285
X00287Y0227
T03
X00311Y021755
Y02183
Y021905
X00321
Y02183
Y021755
X00331
Y02183
Y021905
T04
X0033925Y0060575
X0090225Y007985
X00934Y0083525
X01417Y009375
X01429
X01492Y00989
X0157525Y010285
X01549558Y01161442
X01438516Y01147362
X01653Y01145
X01669Y01129
X01682Y01118
X01644Y01176
X01603Y01077
X01619Y01194
X01584Y01192
X01437Y01193
X008455Y01213
X008325Y012135
X0082325Y0122
X0081025Y01195
X008335Y0127525
X0085075
X0054025Y02771
X0102025
X0150025
X015Y027825
X0102
X0054
T05
X01199Y01502423
Y01532423
T06
X00342Y003025
X0062975Y0033775
X01191942Y004495
X01233461
X01274981
X0124475Y006335
X0125975Y0066125
X0125525Y0069675
X0122755
X0119985
X0119325Y006345
X01333Y00636
X01349
Y00652
Y00669
X01365
X01366Y00635
Y00618
X01334
X01314Y00697
X01285
X0117215Y0069675
X0114445
X0111675
X0108905
X0106135
X0103365
X0100595
X0097825
X0095055
X0092285
X0089515
X0086745
X0083975
X0081205
X0087Y006345
X0092325
X00941Y0066025
X0091825Y007425
X00894
X0091625Y0079075
X0103275Y006345
X0108425Y00634
X0110475Y006605
X01108904Y004495
X01150423
X01067384
X01025865
X00984346
X00942827
X00901308
X00881Y00435
X0088075Y0041275
X00859788Y004495
X008145Y00413
X01038Y00416
X00756Y0040575
X0075725Y00428
X0077675Y004495
X0075825Y0063525
X00776Y00661
X0078435Y0069675
X0075665
X0072895
X0070125
X0069Y00662
X007085Y0075025
X0072275Y007375
X0073575Y0075025
X006395Y0076575
X00615
X00627Y0079225
X0053225Y00776
X0048925Y0065725
X0058275Y0064175
X0033Y00827
X0030275Y0103625
X00285Y01112
X00294Y01126
X0038825Y010865
X0041825
X0048225Y010985
X00494Y011295
X0047
X0044875Y0113625
Y0104
X0047275Y01034
X00566Y01042
X005865Y0104075
X0058625Y0095525
X005445Y0095225
X004975Y009335
X00498Y0090725
X0044375Y0087975
X0058025Y00804
X007285Y0086075
X007525Y0086025
X0075175Y00903
X0072925
X0072075Y008815
X005935Y011475
X00826Y01176
X0087175Y0112725
X0088825Y01127
X0090475Y011265
X0094Y0114
Y0116
Y0118
X0096Y0117
Y0119
X0098Y0118
Y0116
Y0114
X0096Y0115
X00961Y00952
Y00932
Y00912
Y00892
X00941Y00902
Y00922
Y00942
X00921
X00981
Y00922
Y00902
Y00882
X00941
X009045Y00868
X008865
X00869Y0086775
X0091625Y00803
X01442Y00921
X01452Y0092125
X0145225Y009535
X0144225
X01486Y00942
X01501
Y00924
X01486
X0151Y00933
X01538
Y00948
Y00963
Y00978
X01553
Y00963
X01568
Y00978
X01583
Y00963
Y00948
Y00933
X01568
Y00948
X01553
Y00933
X01566Y01063
X01575Y01071
Y01055
X01558Y0111
X01523
X01488
X01461Y01111
X01466Y01122326
X01439Y01132
X01421Y01125
X01418Y01153
Y01184
X01588Y01095
Y01071
Y01055
X01623Y01095
X01658
X01693
X01698Y0113
X01718Y01145
Y01163
X01696Y01187
X01718Y01115
X01724Y0101
X01739
X01754
X01769
X01784
X01709
X01694
X01679
X01664
X01649
X01634
Y00995
X01619
Y0098
X01634
Y00965
Y0095
Y00935
Y0092
Y00905
Y0089
X01619
Y00905
Y0092
Y00935
Y0095
Y00965
X01628Y0122
X01658
X01593
X01558
Y01205
X01523Y0122
X01503Y01205
X01488Y0122
X01453
X01418Y01215
X0098Y012
X0096Y0121
X0094Y012
X0092
X010765Y013805
X010885Y01380833
X0108275Y0139225
X010945Y01392
X0107075
X0062125Y01299
X0068325Y0173625
X0067325Y0174825
X007645Y0174425
X0076425Y017335
X00764Y01723
X0048Y01805
Y0182
Y01835
Y0185
Y01865
Y0188
Y01895
Y0191
Y01925
Y0194
Y01955
X004675Y019475
Y019325
Y019175
Y019025
Y018875
Y018725
Y018575
Y018425
Y018275
Y018125
X008475Y019185
X0084775Y0193075
X00848Y01951
Y01962
X00864
X0086425Y0191875
X008795
X00897Y01919
X0091375
X009315Y0191925
X0094975Y019195
Y0193125
X0097625Y0181425
X0098825Y01814
X01005Y0181375
X0101725
Y01778
Y01766
X01005Y0177775
X0098825Y01778
X0097625Y0177825
X00976Y0176625
X01111Y01827
X01125
X0113925Y0181275
X011604Y0183675
Y0185325
X0115425Y01869
X011545Y018845
X01153805Y0190054
X011395Y0190125
Y018795
X0114Y0185825
X01111Y01845
X0125575Y01771
X0127075
X012705Y01758
X012715Y01741
X0127175Y0172875
X0125575
X01308Y017285
X0130775Y0174125
X0130725Y0175775
X01307Y017705
X0132825Y019255
X0135925Y019135
X0142925Y0194725
X01442Y0196175
X01693Y02096
X01707Y02084
X0133275Y0208125
X013325Y020935
X01333Y020645
Y020525
X0129575Y0205275
X012955Y020645
X0129525Y0208125
X012955Y02093
X012815Y0209325
X0128125Y020525
X0121275Y0209575
X012125Y0210825
X0120825Y0212575
X01219
X0121875Y0213775
X01208
X0119475Y021375
Y0209575
X011765Y02137
X0116175
X01133304Y02169553
X0113325Y0218625
X01133Y0220925
X0113275Y02224
X011325Y0223625
X011195
Y0222375
X01103Y02229
X0109
Y02214
X010205Y0221625
X0102065Y02227
X010085
X00991Y0223225
X00979Y02232
X0097925Y02219
X010205Y02203
Y0218475
Y0217025
X009185Y0212425
X008985
X008775
X008575Y02124
X0085775Y0211075
X00858Y02094
Y02082
X00873
X00942Y0230075
X009385Y02312
Y02325
X0092675Y0232475
X0095175Y0232425
Y0231175
X009765
X0097625Y0232475
X0096425
X0096375Y0233775
X0076575Y02101
X0075175Y0210075
X007515Y02088
X00751Y0206675
Y02054
X0073575
X0072025
X0072Y0206675
X007205Y02088
Y0210075
X0073625Y0210125
X0068625Y021005
X00686Y020875
X006865Y02067
X0068625Y02054
X0070325
X0076675Y0205425
X004725Y0205
Y02035
X004575
Y0205
Y02065
X004725
Y0208
X004575
Y0213
X004725
Y02145
X004575
X003975Y02065
Y0205
Y02035
X003825
X003675
X003825Y0205
Y02065
Y0208
Y02095
Y0211
X002825Y02175
Y0219
T07
X0032Y02497
X00353Y0255125
X0038575Y02553
X00385Y0246
X0038425Y027725
X00352Y0277525
X003285Y027755
X004245Y0277175
X00466
X005065Y0277
X0052725Y027175
X0056Y027185
X004855Y027175
X00444Y0271775
X0042625Y0255125
X00467Y0255225
X00507Y0255375
X0048775Y0249475
X00448Y0249525
X004065Y0249675
X0052825Y0249325
X0055025Y0249375
X005805Y0249525
X008Y02497
X008865Y0249675
X00928Y0249525
X0096775Y0249475
X0100825Y0249325
X0103025Y0249375
X010605Y0249525
X00987Y0255375
X00947Y0255225
X0090625Y0255125
X0086575Y02553
X00833Y0255125
X00865Y0246
X0086425Y027725
X00832Y0277525
X008085Y027755
X009045Y0277175
X00946
X009865Y0277
X0100725Y027175
X0104Y027185
X009655Y027175
X00924Y0271775
X012885Y027755
X01312Y0277525
X0134425Y027725
X013845Y0277175
X01426
X014665Y0277
X0148725Y027175
X0152Y027185
X014455Y027175
X01404Y0271775
X0138625Y0255125
X01427Y0255225
X01467Y0255375
X0144775Y0249475
X01408Y0249525
X013665Y0249675
X01345Y0246
X0134575Y02553
X01313Y0255125
X0128Y02497
X0148825Y0249325
X0151025Y0249375
X015405Y0249525
X0154425Y02787
X0106425
X0058425
T08
X0030925Y02277
T09
X004175Y01525
X004375
X004575
X004775
X004975
X005175
X005375
X005575
X005775
X005975
Y01745
X005775
X005575
X005375
X005175
X004975
X004775
X004575
X004375
X004175
T10
X004253Y00341
X004507
X005093
X005347
X00985Y0035
Y003754
X01091Y00375
Y003496
X012292Y00545
X012546
X0128
X0112
X010946
X010692
X0096
X009346
X009092
X00795
X00985Y004008
X01091Y004004
X007696Y00545
X007442
X008533Y01448
X008787
X007157Y01439
X006903
X006317Y014385
X006063
X005317Y0144025
X005063
X004507Y01441
X004253
X004568Y01215
X004822
X005473
X005727
X003907
X003653
X003692Y01441
X003438
X01496886Y02036236
Y02061636
Y02087036
Y02112436
Y02137836
Y02163236
Y02188636
Y02214036
X011858Y022875
X011604
X01135
X011096
X010842
X010588
X0075475Y0227275
X0072935
X0070395
X0067855
X006212Y022725
X005958
X005704
X00545
Y02315
X005704
X006348
X006602
X004822
X004568
X00391
X003656
T11
X008255Y01593
Y01618
Y01638
Y01663
T12
X0069125Y0037625
X01212Y00753
Y00783
X01187Y00768
X01186Y00737
X01162Y00753
Y00783
X006785Y0073625
X0052825Y0073375
X00475Y00735
Y0071
Y0076
Y00785
X005235Y0078975
X00581Y00544
X006785Y0046575
X003775Y0112825
X00511Y00971
X0055Y00875
X00575
X006
Y0085
Y00825
X0052825Y008245
X00475Y00835
Y0081
Y0086
X00675Y00799
X00815Y00835
X008025Y011625
X01159Y0102
Y0099
Y0096
Y0093
X01184Y00945
Y00975
Y01005
X01187Y00858
Y00828
Y00798
X01162Y00813
Y00843
X01212
Y00813
X0124Y00798
X01209Y0093
Y0096
Y0099
Y0102
X01199Y01215
X00956Y013945
X00877Y01587
X00694Y01247
X0037225Y0194425
X004535Y0198125
X0077725Y0185175
X0077875Y018115
Y0177175
X00824Y0186
X0086375Y0185975
X00922Y018605
X009225Y01811
X0096875Y0185325
X0107225Y0169575
X0111325Y01696
X0115575Y0169625
X012645Y01884
X0130625Y01881
X01414Y0192625
X0159625Y0208825
X009155Y021635
X00839Y02156
X00801Y02131
Y0222
X00841
X009245Y022655
X009715
X006585Y022522
X004725Y02105
X0054625Y0201275
T13
X00672Y00876
X00682Y00906
Y00936
X00712
Y00906
X00672Y00966
X00682Y01092
X00712
Y01122
X00682
X00722Y01152
Y01062
T14
X0089225Y008901
Y009155
Y009409
X00891Y0114685
Y0117225
Y0119765
T15
X0043Y00513
X00505
X01128Y01002
Y01077
T16
X00657Y00901
Y00941
X00697Y009535
X007445Y009585
Y009335
Y008835
X00697Y008885
X00697Y010745
X006495Y010695
Y010945
Y011445
X00697Y011395
X00737Y01127
Y01087
X0166795Y01489
X0171875
Y015398
X0166795
X0169335Y015144
X01552007Y01624339
Y01675139
X01577407Y01649739
X01602807Y01624339
Y01675139
X0166795Y0176
X0171875
Y018108
X0166795
X0169335Y017854
T17
X007985Y015623
Y016937
X00285Y02775
X0064
X00765
X00665Y02625
Y02525
X0064Y02475
X0112
X01145Y02525
Y02625
X0112Y02775
X01245
X016
X01625Y02625
Y02525
X016Y02475
T18
X0028Y0028
X0078
X0128Y0033
X0178Y0038
Y0078
X0103
X0028
X0178Y0118
Y0148
X0128Y0143
Y0123
X0078Y0128
Y0138
X007075Y01498
X005865Y0147675
X003535Y01498
X0033675Y01571
X0028Y0138
Y0128
X0033675Y01685
X0028Y0188
X0042625Y017925
X007075Y018
X0103Y0188
X0178
Y0228
X0128Y0233
X0078Y0238
X0028
T19
X0105251Y009155
X0105126Y0117225
M30
