G04 Layer_Color=8388736*
%FSLAX44Y44*%
%MOMM*%
G71*
G01*
G75*
%ADD16C,0.5000*%
%ADD31R,1.3208X1.2192*%
%ADD32R,1.0160X1.0160*%
%ADD33R,1.2032X1.2032*%
%ADD34O,3.8032X1.8032*%
%ADD35O,1.8032X3.8032*%
%ADD36C,3.7032*%
%ADD37C,1.5032*%
%ADD38C,1.2032*%
D16*
X250000Y250000D02*
Y665000D01*
X295000Y710000D01*
X590000D01*
X635000Y665000D01*
Y250000D02*
Y665000D01*
X250000Y250000D02*
X635000D01*
D31*
X280000Y448636D02*
D03*
Y431500D02*
D03*
X605000Y458636D02*
D03*
Y441500D02*
D03*
Y378636D02*
D03*
Y361500D02*
D03*
D32*
X280000Y413128D02*
D03*
Y397000D02*
D03*
X605000Y423128D02*
D03*
Y407000D02*
D03*
Y343128D02*
D03*
Y327000D02*
D03*
D33*
X287750Y563000D02*
D03*
Y580000D02*
D03*
X302000D02*
D03*
Y563000D02*
D03*
D34*
X329000Y570000D02*
D03*
Y550000D02*
D03*
Y530000D02*
D03*
Y510000D02*
D03*
Y490000D02*
D03*
Y470000D02*
D03*
Y450000D02*
D03*
Y430000D02*
D03*
Y410000D02*
D03*
Y390000D02*
D03*
Y370000D02*
D03*
Y350000D02*
D03*
Y330000D02*
D03*
X551000Y330000D02*
D03*
Y350000D02*
D03*
Y370000D02*
D03*
X551000Y390000D02*
D03*
Y410000D02*
D03*
Y430000D02*
D03*
Y450000D02*
D03*
Y470000D02*
D03*
Y490000D02*
D03*
Y510000D02*
D03*
Y530000D02*
D03*
Y550000D02*
D03*
Y570000D02*
D03*
Y590000D02*
D03*
Y610000D02*
D03*
Y630000D02*
D03*
D35*
X370000Y310000D02*
D03*
X390000D02*
D03*
X410000D02*
D03*
X430000Y310000D02*
D03*
X450000D02*
D03*
X470000D02*
D03*
X490000D02*
D03*
X510000D02*
D03*
D36*
X450000Y675000D02*
D03*
X550000D02*
D03*
X300000Y650000D02*
D03*
X600000D02*
D03*
X300000Y295000D02*
D03*
D37*
X299750Y362000D02*
D03*
X299500Y338500D02*
D03*
X302500Y394250D02*
D03*
X303250Y434500D02*
D03*
X357250Y454000D02*
D03*
X303250Y476000D02*
D03*
X357500Y495500D02*
D03*
Y537250D02*
D03*
X579750Y590500D02*
D03*
X356500Y570000D02*
D03*
X288000Y594250D02*
D03*
X523750Y363000D02*
D03*
X522000Y395750D02*
D03*
X578250Y416500D02*
D03*
X523750Y436250D02*
D03*
X579750Y458000D02*
D03*
X522750Y477000D02*
D03*
X580250Y497750D02*
D03*
X521250Y517000D02*
D03*
X581750Y538250D02*
D03*
X581250Y560250D02*
D03*
X305000Y516500D02*
D03*
X615000Y395000D02*
D03*
X578000Y330000D02*
D03*
D38*
X304000Y550250D02*
D03*
X292500Y550000D02*
D03*
M02*
