G04 Layer_Physical_Order=4*
G04 Layer_Color=16711680*
%FSLAX44Y44*%
%MOMM*%
G71*
G01*
G75*
%ADD36C,0.3000*%
%ADD38C,0.4000*%
%ADD39C,0.5000*%
%ADD42C,2.5400*%
%ADD43R,2.5400X2.5400*%
%ADD44C,2.0000*%
%ADD45O,1.5000X2.5000*%
%ADD46O,2.5000X1.5000*%
%ADD47C,7.0000*%
%ADD48R,2.5400X2.5400*%
%ADD49C,3.3020*%
%ADD50O,3.3528X1.6764*%
%ADD51C,0.6000*%
%ADD52C,0.7000*%
%ADD53C,0.8000*%
%ADD54C,1.0000*%
%ADD55C,1.6000*%
%ADD56R,2.7000X0.5000*%
G36*
X1752000Y1225000D02*
X1771950Y1210000D01*
Y388950D01*
X1752000Y369000D01*
X815000Y283000D01*
X506409Y281299D01*
X504700Y286289D01*
X505272Y286728D01*
X507355Y289444D01*
X508665Y292606D01*
X509112Y296000D01*
X508665Y299394D01*
X507355Y302556D01*
X505272Y305272D01*
X502556Y307355D01*
X499394Y308665D01*
X496000Y309112D01*
X488000D01*
X484606Y308665D01*
X481444Y307355D01*
X478728Y305272D01*
X476645Y302556D01*
X475335Y299394D01*
X474888Y296000D01*
X475335Y292606D01*
X476645Y289444D01*
X478728Y286728D01*
X479481Y286150D01*
X477796Y281141D01*
X421801Y280832D01*
X420092Y285823D01*
X421272Y286728D01*
X423355Y289444D01*
X424665Y292606D01*
X425112Y296000D01*
X424665Y299394D01*
X423355Y302556D01*
X421272Y305272D01*
X418556Y307355D01*
X415394Y308665D01*
X412000Y309112D01*
X404000D01*
X400606Y308665D01*
X397444Y307355D01*
X394728Y305272D01*
X392645Y302556D01*
X391335Y299394D01*
X390888Y296000D01*
X391335Y292606D01*
X392645Y289444D01*
X394728Y286728D01*
X396081Y285691D01*
X394395Y280681D01*
X270821Y280000D01*
X230000Y320821D01*
Y1286921D01*
X263079Y1320000D01*
X801000Y1320000D01*
X1752000Y1225000D01*
D02*
G37*
%LPC*%
G36*
X1210000Y831112D02*
X1206606Y830665D01*
X1203444Y829355D01*
X1200728Y827272D01*
X1198644Y824556D01*
X1197335Y821394D01*
X1196888Y818000D01*
X1197335Y814606D01*
X1198644Y811444D01*
X1200728Y808728D01*
X1203444Y806645D01*
X1206606Y805335D01*
X1210000Y804888D01*
X1213394Y805335D01*
X1216556Y806645D01*
X1219272Y808728D01*
X1221356Y811444D01*
X1222665Y814606D01*
X1223112Y818000D01*
X1222665Y821394D01*
X1221356Y824556D01*
X1219272Y827272D01*
X1216556Y829355D01*
X1213394Y830665D01*
X1210000Y831112D01*
D02*
G37*
G36*
X645000Y832112D02*
X641606Y831665D01*
X638444Y830356D01*
X635728Y828272D01*
X633644Y825556D01*
X632335Y822394D01*
X631888Y819000D01*
X632335Y815606D01*
X633644Y812444D01*
X635728Y809728D01*
X638444Y807645D01*
X641606Y806335D01*
X645000Y805888D01*
X648394Y806335D01*
X651556Y807645D01*
X654272Y809728D01*
X656356Y812444D01*
X657665Y815606D01*
X658112Y819000D01*
X657665Y822394D01*
X656356Y825556D01*
X654272Y828272D01*
X651556Y830356D01*
X648394Y831665D01*
X645000Y832112D01*
D02*
G37*
G36*
X1157000Y829095D02*
X1154128Y828717D01*
X1151453Y827608D01*
X1149155Y825845D01*
X1147392Y823548D01*
X1146283Y820872D01*
X1145905Y818000D01*
X1146283Y815128D01*
X1147392Y812452D01*
X1149155Y810155D01*
X1151453Y808391D01*
X1154128Y807283D01*
X1157000Y806905D01*
X1159872Y807283D01*
X1162547Y808391D01*
X1164845Y810155D01*
X1166609Y812452D01*
X1167717Y815128D01*
X1168095Y818000D01*
X1167717Y820872D01*
X1166609Y823548D01*
X1164845Y825845D01*
X1162547Y827608D01*
X1159872Y828717D01*
X1157000Y829095D01*
D02*
G37*
G36*
Y799095D02*
X1154128Y798717D01*
X1151453Y797608D01*
X1149155Y795845D01*
X1147392Y793548D01*
X1146283Y790872D01*
X1145905Y788000D01*
X1146283Y785128D01*
X1147392Y782452D01*
X1149155Y780155D01*
X1151453Y778391D01*
X1154128Y777283D01*
X1157000Y776905D01*
X1159872Y777283D01*
X1162547Y778391D01*
X1164845Y780155D01*
X1166609Y782452D01*
X1167717Y785128D01*
X1168095Y788000D01*
X1167717Y790872D01*
X1166609Y793548D01*
X1164845Y795845D01*
X1162547Y797608D01*
X1159872Y798717D01*
X1157000Y799095D01*
D02*
G37*
G36*
X1132000Y814095D02*
X1129128Y813717D01*
X1126453Y812608D01*
X1124155Y810845D01*
X1122392Y808547D01*
X1121283Y805872D01*
X1120905Y803000D01*
X1121283Y800128D01*
X1122392Y797453D01*
X1124155Y795155D01*
X1126453Y793391D01*
X1129128Y792283D01*
X1132000Y791905D01*
X1134872Y792283D01*
X1137547Y793391D01*
X1139845Y795155D01*
X1141609Y797453D01*
X1142717Y800128D01*
X1143095Y803000D01*
X1142717Y805872D01*
X1141609Y808547D01*
X1139845Y810845D01*
X1137547Y812608D01*
X1134872Y813717D01*
X1132000Y814095D01*
D02*
G37*
G36*
X1182000D02*
X1179128Y813717D01*
X1176453Y812608D01*
X1174155Y810845D01*
X1172392Y808547D01*
X1171283Y805872D01*
X1170905Y803000D01*
X1171283Y800128D01*
X1172392Y797453D01*
X1174155Y795155D01*
X1176453Y793391D01*
X1179128Y792283D01*
X1182000Y791905D01*
X1184872Y792283D01*
X1187547Y793391D01*
X1189845Y795155D01*
X1191609Y797453D01*
X1192717Y800128D01*
X1193095Y803000D01*
X1192717Y805872D01*
X1191609Y808547D01*
X1189845Y810845D01*
X1187547Y812608D01*
X1184872Y813717D01*
X1182000Y814095D01*
D02*
G37*
G36*
X300000Y855069D02*
X297912Y854794D01*
X295965Y853988D01*
X294294Y852706D01*
X293012Y851034D01*
X292206Y849088D01*
X291931Y847000D01*
X292206Y844912D01*
X293012Y842965D01*
X294294Y841294D01*
X295965Y840012D01*
X297912Y839206D01*
X300000Y838931D01*
X302088Y839206D01*
X304035Y840012D01*
X305706Y841294D01*
X306988Y842965D01*
X307794Y844912D01*
X308069Y847000D01*
X307794Y849088D01*
X306988Y851034D01*
X305706Y852706D01*
X304035Y853988D01*
X302088Y854794D01*
X300000Y855069D01*
D02*
G37*
G36*
X1132000Y874095D02*
X1129128Y873717D01*
X1126453Y872608D01*
X1124155Y870845D01*
X1122392Y868548D01*
X1121283Y865872D01*
X1120905Y863000D01*
X1121283Y860128D01*
X1122392Y857452D01*
X1124155Y855155D01*
X1126453Y853391D01*
X1129128Y852283D01*
X1132000Y851905D01*
X1134872Y852283D01*
X1137547Y853391D01*
X1139845Y855155D01*
X1141609Y857452D01*
X1142717Y860128D01*
X1143095Y863000D01*
X1142717Y865872D01*
X1141609Y868548D01*
X1139845Y870845D01*
X1137547Y872608D01*
X1134872Y873717D01*
X1132000Y874095D01*
D02*
G37*
G36*
X1157000Y889095D02*
X1154128Y888717D01*
X1151453Y887608D01*
X1149155Y885845D01*
X1147392Y883547D01*
X1146283Y880872D01*
X1145905Y878000D01*
X1146283Y875128D01*
X1147392Y872453D01*
X1149155Y870155D01*
X1151453Y868391D01*
X1154128Y867283D01*
X1157000Y866905D01*
X1159872Y867283D01*
X1162547Y868391D01*
X1164845Y870155D01*
X1166609Y872453D01*
X1167717Y875128D01*
X1168095Y878000D01*
X1167717Y880872D01*
X1166609Y883547D01*
X1164845Y885845D01*
X1162547Y887608D01*
X1159872Y888717D01*
X1157000Y889095D01*
D02*
G37*
G36*
X1132000Y844095D02*
X1129128Y843717D01*
X1126453Y842608D01*
X1124155Y840845D01*
X1122392Y838547D01*
X1121283Y835872D01*
X1120905Y833000D01*
X1121283Y830128D01*
X1122392Y827452D01*
X1124155Y825155D01*
X1126453Y823391D01*
X1129128Y822283D01*
X1132000Y821905D01*
X1134872Y822283D01*
X1137547Y823391D01*
X1139845Y825155D01*
X1141609Y827452D01*
X1142717Y830128D01*
X1143095Y833000D01*
X1142717Y835872D01*
X1141609Y838547D01*
X1139845Y840845D01*
X1137547Y842608D01*
X1134872Y843717D01*
X1132000Y844095D01*
D02*
G37*
G36*
X1182000D02*
X1179128Y843717D01*
X1176453Y842608D01*
X1174155Y840845D01*
X1172392Y838547D01*
X1171283Y835872D01*
X1170905Y833000D01*
X1171283Y830128D01*
X1172392Y827452D01*
X1174155Y825155D01*
X1176453Y823391D01*
X1179128Y822283D01*
X1182000Y821905D01*
X1184872Y822283D01*
X1187547Y823391D01*
X1189845Y825155D01*
X1191609Y827452D01*
X1192717Y830128D01*
X1193095Y833000D01*
X1192717Y835872D01*
X1191609Y838547D01*
X1189845Y840845D01*
X1187547Y842608D01*
X1184872Y843717D01*
X1182000Y844095D01*
D02*
G37*
G36*
X1157000Y859095D02*
X1154128Y858717D01*
X1151453Y857608D01*
X1149155Y855845D01*
X1147392Y853547D01*
X1146283Y850872D01*
X1145905Y848000D01*
X1146283Y845128D01*
X1147392Y842453D01*
X1149155Y840155D01*
X1151453Y838391D01*
X1154128Y837283D01*
X1157000Y836905D01*
X1159872Y837283D01*
X1162547Y838391D01*
X1164845Y840155D01*
X1166609Y842453D01*
X1167717Y845128D01*
X1168095Y848000D01*
X1167717Y850872D01*
X1166609Y853547D01*
X1164845Y855845D01*
X1162547Y857608D01*
X1159872Y858717D01*
X1157000Y859095D01*
D02*
G37*
G36*
X648500Y498862D02*
X645106Y498415D01*
X641944Y497105D01*
X639228Y495022D01*
X637145Y492306D01*
X635835Y489144D01*
X635388Y485750D01*
X635835Y482356D01*
X637145Y479194D01*
X639228Y476478D01*
X641944Y474394D01*
X645106Y473085D01*
X648500Y472638D01*
X651894Y473085D01*
X655056Y474394D01*
X657772Y476478D01*
X659855Y479194D01*
X661165Y482356D01*
X661612Y485750D01*
X661165Y489144D01*
X659855Y492306D01*
X657772Y495022D01*
X655056Y497105D01*
X651894Y498415D01*
X648500Y498862D01*
D02*
G37*
G36*
X490700Y548700D02*
X459300D01*
Y517300D01*
X490700D01*
Y548700D01*
D02*
G37*
G36*
X551000Y577112D02*
X547606Y576665D01*
X544444Y575355D01*
X541728Y573272D01*
X539645Y570556D01*
X538335Y567394D01*
X537888Y564000D01*
X538335Y560606D01*
X539645Y557444D01*
X541728Y554728D01*
X544444Y552645D01*
X547606Y551335D01*
X551000Y550888D01*
X554394Y551335D01*
X557556Y552645D01*
X560272Y554728D01*
X562355Y557444D01*
X563665Y560606D01*
X564112Y564000D01*
X563665Y567394D01*
X562355Y570556D01*
X560272Y573272D01*
X557556Y575355D01*
X554394Y576665D01*
X551000Y577112D01*
D02*
G37*
G36*
X420700Y376591D02*
X417959Y376230D01*
X415405Y375172D01*
X413211Y373489D01*
X411528Y371295D01*
X410470Y368741D01*
X405530D01*
X404472Y371295D01*
X402789Y373489D01*
X400595Y375172D01*
X398041Y376230D01*
X395300Y376591D01*
X392559Y376230D01*
X390005Y375172D01*
X387811Y373489D01*
X386128Y371295D01*
X385070Y368741D01*
X384709Y366000D01*
Y356000D01*
X385070Y353259D01*
X386128Y350705D01*
X387811Y348511D01*
X390005Y346828D01*
X392559Y345770D01*
X395300Y345409D01*
X398041Y345770D01*
X400595Y346828D01*
X402789Y348511D01*
X404472Y350705D01*
X405530Y353259D01*
X410470D01*
X411528Y350705D01*
X413211Y348511D01*
X415405Y346828D01*
X417959Y345770D01*
X420700Y345409D01*
X423441Y345770D01*
X425995Y346828D01*
X428189Y348511D01*
X429872Y350705D01*
X430930Y353259D01*
X431291Y356000D01*
Y366000D01*
X430930Y368741D01*
X429872Y371295D01*
X428189Y373489D01*
X425995Y375172D01*
X423441Y376230D01*
X420700Y376591D01*
D02*
G37*
G36*
X504700D02*
X501959Y376230D01*
X499405Y375172D01*
X497211Y373489D01*
X495528Y371295D01*
X494470Y368741D01*
X489530D01*
X488472Y371295D01*
X486789Y373489D01*
X484595Y375172D01*
X482041Y376230D01*
X479300Y376591D01*
X476559Y376230D01*
X474005Y375172D01*
X471811Y373489D01*
X470128Y371295D01*
X469070Y368741D01*
X468709Y366000D01*
Y356000D01*
X469070Y353259D01*
X470128Y350705D01*
X471811Y348511D01*
X474005Y346828D01*
X476559Y345770D01*
X479300Y345409D01*
X482041Y345770D01*
X484595Y346828D01*
X486789Y348511D01*
X488472Y350705D01*
X489530Y353259D01*
X494470D01*
X495528Y350705D01*
X497211Y348511D01*
X499405Y346828D01*
X501959Y345770D01*
X504700Y345409D01*
X507441Y345770D01*
X509995Y346828D01*
X512189Y348511D01*
X513872Y350705D01*
X514930Y353259D01*
X515291Y356000D01*
Y366000D01*
X514930Y368741D01*
X513872Y371295D01*
X512189Y373489D01*
X509995Y375172D01*
X507441Y376230D01*
X504700Y376591D01*
D02*
G37*
G36*
X661250Y409362D02*
X657856Y408915D01*
X654694Y407606D01*
X651978Y405522D01*
X649894Y402806D01*
X648585Y399644D01*
X648138Y396250D01*
X648585Y392856D01*
X649894Y389694D01*
X651978Y386978D01*
X654694Y384894D01*
X657856Y383585D01*
X661250Y383138D01*
X664644Y383585D01*
X667806Y384894D01*
X670522Y386978D01*
X672605Y389694D01*
X673915Y392856D01*
X674362Y396250D01*
X673915Y399644D01*
X672605Y402806D01*
X670522Y405522D01*
X667806Y407606D01*
X664644Y408915D01*
X661250Y409362D01*
D02*
G37*
G36*
X1156000Y768095D02*
X1153128Y767717D01*
X1150453Y766609D01*
X1148155Y764845D01*
X1146392Y762548D01*
X1145283Y759872D01*
X1144905Y757000D01*
X1145283Y754128D01*
X1146392Y751452D01*
X1148155Y749155D01*
X1150453Y747392D01*
X1153128Y746283D01*
X1156000Y745905D01*
X1158872Y746283D01*
X1161547Y747392D01*
X1163845Y749155D01*
X1165609Y751452D01*
X1166717Y754128D01*
X1167095Y757000D01*
X1166717Y759872D01*
X1165609Y762548D01*
X1163845Y764845D01*
X1161547Y766609D01*
X1158872Y767717D01*
X1156000Y768095D01*
D02*
G37*
G36*
X1132000Y784095D02*
X1129128Y783717D01*
X1126453Y782608D01*
X1124155Y780845D01*
X1122392Y778547D01*
X1121283Y775872D01*
X1120905Y773000D01*
X1121283Y770128D01*
X1122392Y767453D01*
X1124155Y765155D01*
X1126453Y763391D01*
X1129128Y762283D01*
X1132000Y761905D01*
X1134872Y762283D01*
X1137547Y763391D01*
X1139845Y765155D01*
X1141609Y767453D01*
X1142717Y770128D01*
X1143095Y773000D01*
X1142717Y775872D01*
X1141609Y778547D01*
X1139845Y780845D01*
X1137547Y782608D01*
X1134872Y783717D01*
X1132000Y784095D01*
D02*
G37*
G36*
X1182000D02*
X1179128Y783717D01*
X1176453Y782608D01*
X1174155Y780845D01*
X1172392Y778547D01*
X1171283Y775872D01*
X1170905Y773000D01*
X1171283Y770128D01*
X1172392Y767453D01*
X1174155Y765155D01*
X1176453Y763391D01*
X1179128Y762283D01*
X1182000Y761905D01*
X1184872Y762283D01*
X1187547Y763391D01*
X1189845Y765155D01*
X1191609Y767453D01*
X1192717Y770128D01*
X1193095Y773000D01*
X1192717Y775872D01*
X1191609Y778547D01*
X1189845Y780845D01*
X1187547Y782608D01*
X1184872Y783717D01*
X1182000Y784095D01*
D02*
G37*
G36*
X552750Y669819D02*
X550662Y669544D01*
X548716Y668738D01*
X547044Y667456D01*
X545762Y665785D01*
X544956Y663838D01*
X544681Y661750D01*
X544956Y659662D01*
X545762Y657716D01*
X547044Y656044D01*
X548716Y654762D01*
X550662Y653956D01*
X552750Y653681D01*
X554838Y653956D01*
X556785Y654762D01*
X558456Y656044D01*
X559738Y657716D01*
X560544Y659662D01*
X560819Y661750D01*
X560544Y663838D01*
X559738Y665785D01*
X558456Y667456D01*
X556785Y668738D01*
X554838Y669544D01*
X552750Y669819D01*
D02*
G37*
G36*
X459250Y685319D02*
X457162Y685044D01*
X455215Y684238D01*
X453544Y682956D01*
X452262Y681284D01*
X451456Y679338D01*
X451181Y677250D01*
X451197Y677128D01*
X405427Y631358D01*
X313441D01*
X312780Y631864D01*
X311077Y632570D01*
X309250Y632810D01*
X307423Y632570D01*
X305720Y631864D01*
X304258Y630742D01*
X303136Y629280D01*
X302430Y627577D01*
X302190Y625750D01*
X302430Y623923D01*
X303136Y622220D01*
X304258Y620757D01*
X305720Y619636D01*
X307423Y618930D01*
X309250Y618690D01*
X311077Y618930D01*
X312780Y619636D01*
X313441Y620142D01*
X407750D01*
X409896Y620569D01*
X411715Y621785D01*
X459128Y669197D01*
X459250Y669181D01*
X461338Y669456D01*
X463284Y670262D01*
X464956Y671544D01*
X466238Y673215D01*
X467044Y675162D01*
X467319Y677250D01*
X467044Y679338D01*
X466238Y681284D01*
X464956Y682956D01*
X463284Y684238D01*
X461338Y685044D01*
X459250Y685319D01*
D02*
G37*
G36*
X648500Y769362D02*
X645106Y768915D01*
X641944Y767606D01*
X639228Y765522D01*
X637145Y762806D01*
X635835Y759644D01*
X635388Y756250D01*
X635835Y752856D01*
X637145Y749694D01*
X639228Y746978D01*
X641944Y744894D01*
X645106Y743585D01*
X648500Y743138D01*
X651894Y743585D01*
X655056Y744894D01*
X657772Y746978D01*
X659855Y749694D01*
X661165Y752856D01*
X661612Y756250D01*
X661165Y759644D01*
X659855Y762806D01*
X657772Y765522D01*
X655056Y767606D01*
X651894Y768915D01*
X648500Y769362D01*
D02*
G37*
G36*
X534000Y1313112D02*
X526000D01*
X522606Y1312665D01*
X519444Y1311355D01*
X516728Y1309272D01*
X514645Y1306556D01*
X513335Y1303394D01*
X512888Y1300000D01*
X513335Y1296606D01*
X514645Y1293444D01*
X516728Y1290728D01*
X519444Y1288645D01*
X522606Y1287335D01*
X526000Y1286888D01*
X534000D01*
X537394Y1287335D01*
X540556Y1288645D01*
X543272Y1290728D01*
X545355Y1293444D01*
X546665Y1296606D01*
X547112Y1300000D01*
X546665Y1303394D01*
X545355Y1306556D01*
X543272Y1309272D01*
X540556Y1311355D01*
X537394Y1312665D01*
X534000Y1313112D01*
D02*
G37*
G36*
X930000Y1238069D02*
X927912Y1237794D01*
X925965Y1236988D01*
X924294Y1235706D01*
X923012Y1234035D01*
X922206Y1232088D01*
X921931Y1230000D01*
X922206Y1227912D01*
X923012Y1225965D01*
X924294Y1224294D01*
X925965Y1223012D01*
X926982Y1222591D01*
X927411Y1220378D01*
Y1219622D01*
X926982Y1217409D01*
X925965Y1216988D01*
X924294Y1215706D01*
X923012Y1214035D01*
X922206Y1212088D01*
X921931Y1210000D01*
X922206Y1207912D01*
X923012Y1205965D01*
X924294Y1204294D01*
X925965Y1203012D01*
X926982Y1202591D01*
X927411Y1200378D01*
Y1199622D01*
X926982Y1197409D01*
X925965Y1196988D01*
X924294Y1195706D01*
X923012Y1194035D01*
X922206Y1192088D01*
X921931Y1190000D01*
X922206Y1187912D01*
X923012Y1185965D01*
X924294Y1184294D01*
X925965Y1183012D01*
X926982Y1182591D01*
X927411Y1180378D01*
Y1179622D01*
X926982Y1177409D01*
X925965Y1176988D01*
X924294Y1175706D01*
X923012Y1174035D01*
X922206Y1172088D01*
X921931Y1170000D01*
X922206Y1167912D01*
X923012Y1165965D01*
X924294Y1164294D01*
X925965Y1163012D01*
X927912Y1162206D01*
X930000Y1161931D01*
X932088Y1162206D01*
X934035Y1163012D01*
X935706Y1164294D01*
X936988Y1165965D01*
X937794Y1167912D01*
X938069Y1170000D01*
X937794Y1172088D01*
X936988Y1174035D01*
X935706Y1175706D01*
X934035Y1176988D01*
X933018Y1177409D01*
X932589Y1179622D01*
Y1180378D01*
X933018Y1182591D01*
X934035Y1183012D01*
X935706Y1184294D01*
X936988Y1185965D01*
X937794Y1187912D01*
X938069Y1190000D01*
X937794Y1192088D01*
X936988Y1194035D01*
X935706Y1195706D01*
X934035Y1196988D01*
X933018Y1197409D01*
X932589Y1199622D01*
Y1200378D01*
X933018Y1202591D01*
X934035Y1203012D01*
X935706Y1204294D01*
X936988Y1205965D01*
X937794Y1207912D01*
X938069Y1210000D01*
X937794Y1212088D01*
X936988Y1214035D01*
X935706Y1215706D01*
X934035Y1216988D01*
X933018Y1217409D01*
X932589Y1219622D01*
Y1220378D01*
X933018Y1222591D01*
X934035Y1223012D01*
X935706Y1224294D01*
X936988Y1225965D01*
X937794Y1227912D01*
X938069Y1230000D01*
X937794Y1232088D01*
X936988Y1234035D01*
X935706Y1235706D01*
X934035Y1236988D01*
X932088Y1237794D01*
X930000Y1238069D01*
D02*
G37*
G36*
X1021260Y1211854D02*
X1017435Y1211478D01*
X1013758Y1210362D01*
X1010368Y1208550D01*
X1007398Y1206112D01*
X1004959Y1203142D01*
X1003148Y1199752D01*
X1002032Y1196075D01*
X1001656Y1192250D01*
X1002032Y1188425D01*
X1003148Y1184748D01*
X1004959Y1181358D01*
X1007398Y1178388D01*
X1010368Y1175949D01*
X1013758Y1174138D01*
X1017435Y1173022D01*
X1021260Y1172646D01*
X1025085Y1173022D01*
X1028762Y1174138D01*
X1032152Y1175949D01*
X1035122Y1178388D01*
X1037561Y1181358D01*
X1039372Y1184748D01*
X1040488Y1188425D01*
X1040864Y1192250D01*
X1040488Y1196075D01*
X1039372Y1199752D01*
X1037561Y1203142D01*
X1035122Y1206112D01*
X1032152Y1208550D01*
X1028762Y1210362D01*
X1025085Y1211478D01*
X1021260Y1211854D01*
D02*
G37*
G36*
X360700Y1250591D02*
X357959Y1250230D01*
X355405Y1249172D01*
X353211Y1247489D01*
X351528Y1245295D01*
X350470Y1242741D01*
X350109Y1240000D01*
Y1230000D01*
X350470Y1227259D01*
X351528Y1224705D01*
X353211Y1222511D01*
X355405Y1220828D01*
X357959Y1219770D01*
X360700Y1219409D01*
X363441Y1219770D01*
X365995Y1220828D01*
X368189Y1222511D01*
X369872Y1224705D01*
X370930Y1227259D01*
X371291Y1230000D01*
Y1240000D01*
X370930Y1242741D01*
X369872Y1245295D01*
X368189Y1247489D01*
X365995Y1249172D01*
X363441Y1250230D01*
X360700Y1250591D01*
D02*
G37*
G36*
X815500Y1240060D02*
X813673Y1239820D01*
X811970Y1239115D01*
X810508Y1237992D01*
X809386Y1236530D01*
X808680Y1234827D01*
X808440Y1233000D01*
X808680Y1231173D01*
X809386Y1229470D01*
X810508Y1228008D01*
X811970Y1226886D01*
X813673Y1226180D01*
X815500Y1225940D01*
X817327Y1226180D01*
X819030Y1226886D01*
X819691Y1227392D01*
X834945D01*
X841584Y1220754D01*
X841529Y1220621D01*
X841138Y1217650D01*
X841529Y1214679D01*
X842676Y1211910D01*
X844500Y1209532D01*
X846878Y1207708D01*
X847003Y1207656D01*
Y1202244D01*
X846878Y1202192D01*
X844500Y1200368D01*
X842676Y1197990D01*
X842410Y1197348D01*
X803892D01*
X803794Y1198088D01*
X802988Y1200034D01*
X801706Y1201706D01*
X800034Y1202988D01*
X798088Y1203794D01*
X796000Y1204069D01*
X793912Y1203794D01*
X791965Y1202988D01*
X790294Y1201706D01*
X789012Y1200034D01*
X788206Y1198088D01*
X787931Y1196000D01*
X788206Y1193912D01*
X789012Y1191965D01*
X789816Y1190918D01*
X789576Y1188126D01*
X788630Y1185269D01*
X788386Y1185190D01*
X780601Y1192975D01*
X780601Y1192975D01*
X779608Y1193638D01*
X779245Y1193711D01*
X779056Y1193856D01*
X775894Y1195165D01*
X772500Y1195612D01*
X769106Y1195165D01*
X765982Y1193871D01*
X602188Y1193871D01*
X602188Y1193871D01*
X601017Y1193638D01*
X600025Y1192975D01*
X592212Y1185163D01*
X591549Y1184171D01*
X591316Y1183000D01*
X591316Y1183000D01*
Y1148965D01*
X591464Y1148221D01*
X591549Y1147794D01*
X592212Y1146802D01*
X589602Y1142533D01*
X589035Y1141965D01*
X587819Y1140146D01*
X587392Y1138000D01*
Y1099573D01*
X556622Y1068803D01*
X556500Y1068819D01*
X554412Y1068544D01*
X552466Y1067738D01*
X550794Y1066456D01*
X549512Y1064784D01*
X548918Y1063349D01*
X548545Y1062866D01*
X544000Y1063640D01*
X543919Y1063807D01*
X543993Y1063642D01*
X543993D01*
X543794Y1064088D01*
X543582Y1064601D01*
X542988Y1066034D01*
X541706Y1067706D01*
X540034Y1068988D01*
X538088Y1069794D01*
X536000Y1070069D01*
X533912Y1069794D01*
X531965Y1068988D01*
X530294Y1067706D01*
X529012Y1066034D01*
X528206Y1064088D01*
X527931Y1062000D01*
X528206Y1059912D01*
X529012Y1057965D01*
X529031Y1057941D01*
X528740Y1056012D01*
X523480Y1054281D01*
X523369Y1054312D01*
X460187Y1117494D01*
X460319Y1118500D01*
X460044Y1120588D01*
X459238Y1122534D01*
X457956Y1124206D01*
X456284Y1125488D01*
X454338Y1126294D01*
X452250Y1126569D01*
X450162Y1126294D01*
X448215Y1125488D01*
X446544Y1124206D01*
X445262Y1122534D01*
X444456Y1120588D01*
X444181Y1118500D01*
X444456Y1116412D01*
X445262Y1114465D01*
X446544Y1112794D01*
X448215Y1111512D01*
X450162Y1110706D01*
X451258Y1110562D01*
X571392Y990427D01*
Y918343D01*
X571819Y916197D01*
X573035Y914378D01*
X574353Y913059D01*
X572282Y908059D01*
X530000Y908059D01*
X530000Y908059D01*
X528829Y907826D01*
X527837Y907163D01*
X527837Y907163D01*
X525360Y904686D01*
X522872Y905717D01*
X520000Y906095D01*
X517128Y905717D01*
X514453Y904609D01*
X512155Y902845D01*
X510392Y900547D01*
X509283Y897872D01*
X508905Y895000D01*
X509283Y892128D01*
X510392Y889453D01*
X512155Y887155D01*
X513008Y886500D01*
X511311Y881500D01*
X506500D01*
Y870500D01*
Y862500D01*
Y854500D01*
Y846500D01*
Y833608D01*
X477000D01*
X476500Y833508D01*
D01*
X474854Y833181D01*
X473035Y831965D01*
X471819Y830146D01*
X471392Y828000D01*
X471819Y825854D01*
X473035Y824035D01*
X474854Y822819D01*
X476500Y822492D01*
D01*
X477000Y822392D01*
X506500D01*
Y814500D01*
Y808311D01*
X506116Y807509D01*
X503006Y804501D01*
X502250Y804069D01*
X500162Y803794D01*
X498215Y802988D01*
X496544Y801706D01*
X495262Y800034D01*
X494456Y798088D01*
X494181Y796000D01*
X494456Y793912D01*
X495262Y791965D01*
X496304Y790608D01*
X496058Y789212D01*
X494439Y785608D01*
X477000D01*
X476500Y785508D01*
D01*
X474854Y785181D01*
X473035Y783965D01*
X471819Y782146D01*
X471392Y780000D01*
X471819Y777854D01*
X473035Y776035D01*
X474854Y774819D01*
X476500Y774492D01*
D01*
X477000Y774392D01*
X506500D01*
Y766500D01*
Y758500D01*
Y750500D01*
Y742500D01*
Y729608D01*
X477000D01*
X476500Y729508D01*
D01*
X474854Y729181D01*
D01*
X473035Y727965D01*
X471819Y726146D01*
X471392Y724000D01*
X471819Y721854D01*
X473035Y720035D01*
X474854Y718819D01*
X477000Y718392D01*
X523000D01*
X525146Y718819D01*
X526965Y720035D01*
X528181Y721854D01*
X528608Y724000D01*
X533230Y726392D01*
X546427D01*
X562392Y710427D01*
Y674500D01*
X562819Y672354D01*
X564035Y670535D01*
X868535Y366035D01*
X870354Y364819D01*
X872500Y364392D01*
X941068D01*
X942511Y362511D01*
X944705Y360828D01*
X947259Y359770D01*
X950000Y359409D01*
X960000D01*
X962741Y359770D01*
X965295Y360828D01*
X967489Y362511D01*
X969172Y364705D01*
X970230Y367259D01*
X970591Y370000D01*
X970230Y372741D01*
X969172Y375295D01*
X967489Y377489D01*
X965295Y379172D01*
X962741Y380230D01*
Y385170D01*
X965295Y386228D01*
X967489Y387911D01*
X969172Y390105D01*
X970230Y392659D01*
X970591Y395400D01*
X970230Y398141D01*
X969172Y400695D01*
X967489Y402889D01*
X965295Y404572D01*
X962741Y405630D01*
X960000Y405991D01*
X950000D01*
X947259Y405630D01*
X944705Y404572D01*
X942511Y402889D01*
X940828Y400695D01*
X939770Y398141D01*
X939409Y395400D01*
X939770Y392659D01*
X940828Y390105D01*
X942511Y387911D01*
X944705Y386228D01*
X947259Y385170D01*
Y380230D01*
X944705Y379172D01*
X942511Y377489D01*
X941068Y375608D01*
X874823D01*
X815658Y434773D01*
X817571Y439392D01*
X972677D01*
X1046166Y365903D01*
X1046828Y364305D01*
X1048511Y362111D01*
X1050705Y360428D01*
X1053259Y359370D01*
X1056000Y359009D01*
X1066000D01*
X1068741Y359370D01*
X1071295Y360428D01*
X1073489Y362111D01*
X1075172Y364305D01*
X1076230Y366859D01*
X1076591Y369600D01*
X1076230Y372341D01*
X1075172Y374895D01*
X1073489Y377089D01*
X1071295Y378772D01*
X1068741Y379830D01*
Y384770D01*
X1071295Y385828D01*
X1073489Y387511D01*
X1075172Y389705D01*
X1076230Y392259D01*
X1076591Y395000D01*
X1076230Y397741D01*
X1075172Y400295D01*
X1073489Y402489D01*
X1071295Y404172D01*
X1068741Y405230D01*
X1066000Y405591D01*
X1056000D01*
X1053259Y405230D01*
X1050705Y404172D01*
X1048511Y402489D01*
X1046828Y400295D01*
X1045770Y397741D01*
X1045409Y395000D01*
X1045770Y392259D01*
X1046828Y389705D01*
X1048511Y387511D01*
X1050499Y385986D01*
X1050669Y384939D01*
X1050489Y380506D01*
X1048371Y379560D01*
X978965Y448965D01*
X977146Y450181D01*
X975000Y450608D01*
X812323D01*
X676908Y586023D01*
X678821Y590642D01*
X741427D01*
X754328Y577741D01*
X753749Y576343D01*
X751215Y575810D01*
X748208Y576030D01*
X747089Y577489D01*
X744895Y579172D01*
X742341Y580230D01*
X739600Y580591D01*
X736859Y580230D01*
X734305Y579172D01*
X732111Y577489D01*
X730428Y575295D01*
X729370Y572741D01*
X729009Y570000D01*
Y560000D01*
X729370Y557259D01*
X730428Y554705D01*
X732111Y552511D01*
X734305Y550828D01*
X736859Y549770D01*
X739600Y549409D01*
X742341Y549770D01*
X744895Y550828D01*
X747089Y552511D01*
X748772Y554705D01*
X749830Y557259D01*
X754770D01*
X755828Y554705D01*
X757511Y552511D01*
X759705Y550828D01*
X762259Y549770D01*
X765000Y549409D01*
X767741Y549770D01*
X770295Y550828D01*
X772489Y552511D01*
X774172Y554705D01*
X775230Y557259D01*
X775591Y560000D01*
Y570000D01*
X775230Y572741D01*
X774172Y575295D01*
X772489Y577489D01*
X770295Y579172D01*
X767741Y580230D01*
X767695Y580236D01*
X752908Y595023D01*
X754821Y599642D01*
X917027D01*
X924392Y592277D01*
Y578932D01*
X922511Y577489D01*
X920828Y575295D01*
X919770Y572741D01*
X914830D01*
X913772Y575295D01*
X912089Y577489D01*
X909895Y579172D01*
X907341Y580230D01*
X904600Y580591D01*
X901859Y580230D01*
X899305Y579172D01*
X897111Y577489D01*
X895428Y575295D01*
X894370Y572741D01*
X894009Y570000D01*
Y560000D01*
X894370Y557259D01*
X895428Y554705D01*
X897111Y552511D01*
X899305Y550828D01*
X901859Y549770D01*
X904600Y549409D01*
X907341Y549770D01*
X909895Y550828D01*
X912089Y552511D01*
X913772Y554705D01*
X914830Y557259D01*
X919770D01*
X920828Y554705D01*
X922511Y552511D01*
X924705Y550828D01*
X927259Y549770D01*
X930000Y549409D01*
X932741Y549770D01*
X935295Y550828D01*
X937489Y552511D01*
X939172Y554705D01*
X940230Y557259D01*
X940591Y560000D01*
Y570000D01*
X940230Y572741D01*
X939172Y575295D01*
X937489Y577489D01*
X935608Y578932D01*
Y594600D01*
X935181Y596746D01*
X933965Y598565D01*
X928758Y603773D01*
X930671Y608392D01*
X1071377D01*
X1084392Y595377D01*
Y578932D01*
X1082511Y577489D01*
X1080828Y575295D01*
X1079770Y572741D01*
X1074830D01*
X1073772Y575295D01*
X1072089Y577489D01*
X1069895Y579172D01*
X1067341Y580230D01*
X1064600Y580591D01*
X1061859Y580230D01*
X1059305Y579172D01*
X1057111Y577489D01*
X1055428Y575295D01*
X1054370Y572741D01*
X1054009Y570000D01*
Y560000D01*
X1054370Y557259D01*
X1055428Y554705D01*
X1057111Y552511D01*
X1059305Y550828D01*
X1061859Y549770D01*
X1064600Y549409D01*
X1067341Y549770D01*
X1069895Y550828D01*
X1072089Y552511D01*
X1073772Y554705D01*
X1074830Y557259D01*
X1079770D01*
X1080828Y554705D01*
X1082511Y552511D01*
X1084705Y550828D01*
X1087259Y549770D01*
X1090000Y549409D01*
X1092741Y549770D01*
X1095295Y550828D01*
X1097489Y552511D01*
X1099172Y554705D01*
X1100230Y557259D01*
X1100591Y560000D01*
Y570000D01*
X1100230Y572741D01*
X1099172Y575295D01*
X1097489Y577489D01*
X1095608Y578932D01*
Y597700D01*
X1095181Y599846D01*
X1093965Y601665D01*
X1082608Y613023D01*
X1084521Y617642D01*
X1228527D01*
X1244392Y601777D01*
Y578932D01*
X1242511Y577489D01*
X1240828Y575295D01*
X1239770Y572741D01*
X1234830D01*
X1233772Y575295D01*
X1232089Y577489D01*
X1229895Y579172D01*
X1227341Y580230D01*
X1224600Y580591D01*
X1221859Y580230D01*
X1219305Y579172D01*
X1217111Y577489D01*
X1215428Y575295D01*
X1214370Y572741D01*
X1214009Y570000D01*
Y560000D01*
X1214370Y557259D01*
X1215428Y554705D01*
X1217111Y552511D01*
X1219305Y550828D01*
X1221859Y549770D01*
X1224600Y549409D01*
X1227341Y549770D01*
X1229895Y550828D01*
X1232089Y552511D01*
X1233772Y554705D01*
X1234830Y557259D01*
X1239770D01*
X1240828Y554705D01*
X1242511Y552511D01*
X1244705Y550828D01*
X1247259Y549770D01*
X1250000Y549409D01*
X1252741Y549770D01*
X1255295Y550828D01*
X1257489Y552511D01*
X1259172Y554705D01*
X1260230Y557259D01*
X1260591Y560000D01*
Y570000D01*
X1260230Y572741D01*
X1259172Y575295D01*
X1257489Y577489D01*
X1255608Y578932D01*
Y604100D01*
X1255181Y606246D01*
X1253965Y608065D01*
X1234815Y627215D01*
X1232996Y628431D01*
X1230850Y628858D01*
X685073D01*
X615108Y698823D01*
Y730250D01*
X614681Y732396D01*
X613465Y734215D01*
X571715Y775965D01*
X569896Y777181D01*
X568833Y777392D01*
X569326Y782392D01*
X572000D01*
X574146Y782819D01*
X575965Y784035D01*
X581573Y789642D01*
X609250D01*
X611396Y790069D01*
X613215Y791285D01*
X622965Y801035D01*
X624181Y802854D01*
X624608Y805000D01*
Y867034D01*
X629227Y868947D01*
X645337Y852837D01*
X646329Y852174D01*
X647500Y851941D01*
X647500Y851941D01*
X772290Y851941D01*
X772335Y851606D01*
X773644Y848444D01*
X775728Y845728D01*
X778444Y843644D01*
X781606Y842335D01*
X785000Y841888D01*
X788394Y842335D01*
X791556Y843644D01*
X794272Y845728D01*
X796356Y848444D01*
X797665Y851606D01*
X797710Y851941D01*
X852000D01*
X853170Y852174D01*
X854163Y852837D01*
X854163Y852837D01*
X875523Y874197D01*
X880142Y872284D01*
Y846073D01*
X872285Y838215D01*
X870854Y837931D01*
X869035Y836715D01*
X867819Y834896D01*
X867392Y832750D01*
Y823596D01*
X867258Y823493D01*
X866135Y822030D01*
X865430Y820327D01*
X865190Y818500D01*
X865430Y816673D01*
X866135Y814970D01*
X867258Y813508D01*
X868720Y812385D01*
X870423Y811680D01*
X872250Y811440D01*
X874077Y811680D01*
X875780Y812385D01*
X877242Y813508D01*
X878364Y814970D01*
X879070Y816673D01*
X879310Y818500D01*
X879070Y820327D01*
X878608Y821443D01*
Y828677D01*
X889715Y839785D01*
X890931Y841604D01*
X891358Y843750D01*
Y948250D01*
X891189Y949098D01*
X892397Y952346D01*
X894115Y954631D01*
X895034Y955012D01*
X896706Y956294D01*
X897988Y957965D01*
X898409Y958982D01*
X900622Y959411D01*
X901378D01*
X903591Y958982D01*
X904012Y957965D01*
X905294Y956294D01*
X906965Y955012D01*
X907982Y954591D01*
X908411Y952378D01*
Y951622D01*
X907982Y949409D01*
X906965Y948988D01*
X905294Y947706D01*
X904012Y946034D01*
X903206Y944088D01*
X902931Y942000D01*
X903206Y939912D01*
X904012Y937965D01*
X905294Y936294D01*
X906965Y935012D01*
X907982Y934591D01*
X908410Y932378D01*
Y931621D01*
X907982Y929409D01*
X906965Y928988D01*
X905294Y927706D01*
X904012Y926034D01*
X903206Y924088D01*
X902931Y922000D01*
X903206Y919912D01*
X904012Y917965D01*
X905294Y916294D01*
X906965Y915012D01*
X907982Y914591D01*
X908411Y912378D01*
Y911622D01*
X907982Y909409D01*
X906965Y908988D01*
X905294Y907706D01*
X904012Y906034D01*
X903206Y904088D01*
X902931Y902000D01*
X903206Y899912D01*
X904012Y897965D01*
X905294Y896294D01*
X906965Y895012D01*
X908912Y894206D01*
X911000Y893931D01*
X913088Y894206D01*
X915034Y895012D01*
X916706Y896294D01*
X917988Y897965D01*
X918794Y899912D01*
X919069Y902000D01*
X918794Y904088D01*
X917988Y906034D01*
X916706Y907706D01*
X915034Y908988D01*
X914018Y909409D01*
X913589Y911622D01*
Y912378D01*
X914018Y914591D01*
X915034Y915012D01*
X916706Y916294D01*
X917988Y917965D01*
X918794Y919912D01*
X919069Y922000D01*
X918794Y924088D01*
X917988Y926034D01*
X916706Y927706D01*
X915034Y928988D01*
X914018Y929409D01*
X913589Y931621D01*
Y932378D01*
X914018Y934591D01*
X915034Y935012D01*
X916706Y936294D01*
X917988Y937965D01*
X918794Y939912D01*
X919069Y942000D01*
X918794Y944088D01*
X917988Y946034D01*
X916706Y947706D01*
X915034Y948988D01*
X914018Y949409D01*
X913589Y951622D01*
Y952378D01*
X914018Y954591D01*
X915034Y955012D01*
X916706Y956294D01*
X917988Y957965D01*
X918794Y959912D01*
X919069Y962000D01*
X918794Y964088D01*
X917988Y966034D01*
X916706Y967706D01*
X915034Y968988D01*
X913088Y969794D01*
X911000Y970069D01*
X908912Y969794D01*
X906965Y968988D01*
X905294Y967706D01*
X904012Y966034D01*
X903591Y965018D01*
X901378Y964589D01*
X900622D01*
X898409Y965018D01*
X897988Y966034D01*
X896706Y967706D01*
X895034Y968988D01*
X893088Y969794D01*
X891000Y970069D01*
X888912Y969794D01*
X886965Y968988D01*
X885484Y967851D01*
X885236Y967692D01*
X884491Y967524D01*
X880145Y967758D01*
X879493Y968049D01*
X878750Y969018D01*
X876372Y970842D01*
X873603Y971989D01*
X870632Y972380D01*
X853868D01*
X850897Y971989D01*
X848128Y970842D01*
X845750Y969018D01*
X843926Y966640D01*
X842779Y963871D01*
X842388Y960900D01*
X842779Y957929D01*
X843926Y955160D01*
X845750Y952782D01*
X848128Y950958D01*
X848253Y950906D01*
Y945494D01*
X848128Y945442D01*
X845750Y943618D01*
X843926Y941240D01*
X842779Y938471D01*
X842388Y935500D01*
X842779Y932529D01*
X842831Y932403D01*
X840094Y927527D01*
X836519Y927307D01*
X823413Y940413D01*
X823413Y940413D01*
X822421Y941076D01*
X821250Y941309D01*
X821250Y941309D01*
X718312Y941309D01*
X717872Y941221D01*
X717424Y941177D01*
X716978Y941042D01*
X714500Y940798D01*
X712022Y941042D01*
X711575Y941177D01*
X711128Y941221D01*
X710688Y941309D01*
X624250D01*
X624250Y941309D01*
X623079Y941076D01*
X622087Y940413D01*
X622087Y940413D01*
X608837Y927163D01*
X608174Y926171D01*
X607941Y925000D01*
X607941Y925000D01*
Y913522D01*
X603322Y911609D01*
X595608Y919323D01*
Y989750D01*
X595181Y991896D01*
X593965Y993715D01*
X542108Y1045573D01*
Y1055515D01*
X543931Y1057409D01*
X544909Y1057665D01*
X549179Y1056784D01*
X549726Y1056436D01*
X550794Y1055044D01*
X552466Y1053762D01*
X554412Y1052956D01*
X556500Y1052681D01*
X558588Y1052956D01*
X560535Y1053762D01*
X562206Y1055044D01*
X563488Y1056715D01*
X564294Y1058662D01*
X564569Y1060750D01*
X564553Y1060872D01*
X596965Y1093285D01*
X598181Y1095104D01*
X598608Y1097250D01*
Y1127284D01*
X603227Y1129197D01*
X605837Y1126587D01*
X606829Y1125924D01*
X608000Y1125691D01*
X608000Y1125691D01*
X612855D01*
X613003Y1125721D01*
X613154Y1125706D01*
X613584Y1125836D01*
X614025Y1125924D01*
X614151Y1126008D01*
X614296Y1126052D01*
X614639Y1126236D01*
X617022Y1126958D01*
X619500Y1127202D01*
X621978Y1126958D01*
X624361Y1126236D01*
X624703Y1126052D01*
X624849Y1126008D01*
X624975Y1125924D01*
X625416Y1125836D01*
X625846Y1125706D01*
X625997Y1125721D01*
X626145Y1125691D01*
X876500D01*
X876706Y1125732D01*
X876916Y1125720D01*
X877286Y1125848D01*
X877671Y1125924D01*
X877845Y1126041D01*
X878044Y1126109D01*
X878337Y1126369D01*
X878663Y1126587D01*
X878780Y1126762D01*
X878937Y1126901D01*
X884437Y1134151D01*
X884608Y1134504D01*
X884826Y1134829D01*
X884867Y1135036D01*
X884959Y1135225D01*
X884982Y1135616D01*
X885059Y1136000D01*
Y1174750D01*
X885059Y1174750D01*
X884826Y1175921D01*
X884163Y1176913D01*
X884163Y1176913D01*
X880678Y1180398D01*
X878711Y1182709D01*
X879324Y1186510D01*
X880471Y1189279D01*
X880862Y1192250D01*
X880471Y1195221D01*
X879324Y1197990D01*
X877500Y1200368D01*
X875122Y1202192D01*
X874997Y1202244D01*
Y1207656D01*
X875122Y1207708D01*
X877500Y1209532D01*
X879324Y1211910D01*
X879499Y1212331D01*
X881603Y1213193D01*
X884948Y1213663D01*
X885188Y1213609D01*
X885965Y1213012D01*
X887912Y1212206D01*
X890000Y1211931D01*
X892088Y1212206D01*
X894035Y1213012D01*
X895706Y1214294D01*
X896988Y1215965D01*
X897409Y1216982D01*
X899622Y1217411D01*
X900378D01*
X902591Y1216982D01*
X903012Y1215965D01*
X904294Y1214294D01*
X905965Y1213012D01*
X906982Y1212591D01*
X907411Y1210378D01*
Y1209622D01*
X906982Y1207409D01*
X905965Y1206988D01*
X904294Y1205706D01*
X903012Y1204035D01*
X902206Y1202088D01*
X901931Y1200000D01*
X902206Y1197912D01*
X903012Y1195965D01*
X904294Y1194294D01*
X905965Y1193012D01*
X906982Y1192591D01*
X907411Y1190378D01*
Y1189622D01*
X906982Y1187409D01*
X905965Y1186988D01*
X904294Y1185706D01*
X903012Y1184035D01*
X902206Y1182088D01*
X901931Y1180000D01*
X902206Y1177912D01*
X903012Y1175965D01*
X904294Y1174294D01*
X905965Y1173012D01*
X906982Y1172591D01*
X907411Y1170378D01*
Y1169622D01*
X906982Y1167409D01*
X905965Y1166988D01*
X904294Y1165706D01*
X903012Y1164035D01*
X902206Y1162088D01*
X901931Y1160000D01*
X902206Y1157912D01*
X903012Y1155965D01*
X904294Y1154294D01*
X905965Y1153012D01*
X907912Y1152206D01*
X910000Y1151931D01*
X912088Y1152206D01*
X914035Y1153012D01*
X915706Y1154294D01*
X916988Y1155965D01*
X917794Y1157912D01*
X918069Y1160000D01*
X917794Y1162088D01*
X916988Y1164035D01*
X915706Y1165706D01*
X914035Y1166988D01*
X913018Y1167409D01*
X912589Y1169622D01*
Y1170378D01*
X913018Y1172591D01*
X914035Y1173012D01*
X915706Y1174294D01*
X916988Y1175965D01*
X917794Y1177912D01*
X918069Y1180000D01*
X917794Y1182088D01*
X916988Y1184035D01*
X915706Y1185706D01*
X914035Y1186988D01*
X913018Y1187409D01*
X912589Y1189622D01*
Y1190378D01*
X913018Y1192591D01*
X914035Y1193012D01*
X915706Y1194294D01*
X916988Y1195965D01*
X917794Y1197912D01*
X918069Y1200000D01*
X917794Y1202088D01*
X916988Y1204035D01*
X915706Y1205706D01*
X914035Y1206988D01*
X913018Y1207409D01*
X912589Y1209622D01*
Y1210378D01*
X913018Y1212591D01*
X914035Y1213012D01*
X915706Y1214294D01*
X916988Y1215965D01*
X917794Y1217912D01*
X918069Y1220000D01*
X917794Y1222088D01*
X916988Y1224035D01*
X915706Y1225706D01*
X914035Y1226988D01*
X912088Y1227794D01*
X910000Y1228069D01*
X907912Y1227794D01*
X905965Y1226988D01*
X904294Y1225706D01*
X903012Y1224035D01*
X902591Y1223018D01*
X900378Y1222589D01*
X899622D01*
X897409Y1223018D01*
X896988Y1224035D01*
X895706Y1225706D01*
X894035Y1226988D01*
X892088Y1227794D01*
X890000Y1228069D01*
X887912Y1227794D01*
X885965Y1226988D01*
X884294Y1225706D01*
X883958Y1225268D01*
X883014Y1224885D01*
X879833Y1224699D01*
X878031Y1225075D01*
X877500Y1225768D01*
X875122Y1227592D01*
X872353Y1228739D01*
X869382Y1229130D01*
X852618D01*
X849647Y1228739D01*
X849514Y1228684D01*
X841233Y1236965D01*
X839414Y1238181D01*
X837268Y1238608D01*
X819691D01*
X819030Y1239115D01*
X817327Y1239820D01*
X815500Y1240060D01*
D02*
G37*
G36*
X950000Y1228069D02*
X947912Y1227794D01*
X945965Y1226988D01*
X944294Y1225706D01*
X943012Y1224035D01*
X942206Y1222088D01*
X941931Y1220000D01*
X942206Y1217912D01*
X943012Y1215965D01*
X944294Y1214294D01*
X945965Y1213012D01*
X946982Y1212591D01*
X947411Y1210378D01*
Y1209622D01*
X946982Y1207409D01*
X945965Y1206988D01*
X944294Y1205706D01*
X943012Y1204035D01*
X942206Y1202088D01*
X941931Y1200000D01*
X942206Y1197912D01*
X943012Y1195965D01*
X944294Y1194294D01*
X945965Y1193012D01*
X946982Y1192591D01*
X947411Y1190378D01*
Y1189622D01*
X946982Y1187409D01*
X945965Y1186988D01*
X944294Y1185706D01*
X943012Y1184035D01*
X942206Y1182088D01*
X941931Y1180000D01*
X942206Y1177912D01*
X943012Y1175965D01*
X944294Y1174294D01*
X945965Y1173012D01*
X946982Y1172591D01*
X947411Y1170378D01*
Y1169622D01*
X946982Y1167409D01*
X945965Y1166988D01*
X944294Y1165706D01*
X943012Y1164035D01*
X942206Y1162088D01*
X941931Y1160000D01*
X942206Y1157912D01*
X943012Y1155965D01*
X944294Y1154294D01*
X945965Y1153012D01*
X947912Y1152206D01*
X950000Y1151931D01*
X952088Y1152206D01*
X954035Y1153012D01*
X955706Y1154294D01*
X956988Y1155965D01*
X957794Y1157912D01*
X958069Y1160000D01*
X957794Y1162088D01*
X956988Y1164035D01*
X955706Y1165706D01*
X954035Y1166988D01*
X953018Y1167409D01*
X952589Y1169622D01*
Y1170378D01*
X953018Y1172591D01*
X954035Y1173012D01*
X955706Y1174294D01*
X956988Y1175965D01*
X957794Y1177912D01*
X958069Y1180000D01*
X957794Y1182088D01*
X956988Y1184035D01*
X955706Y1185706D01*
X954035Y1186988D01*
X953018Y1187409D01*
X952589Y1189622D01*
Y1190378D01*
X953018Y1192591D01*
X954035Y1193012D01*
X955706Y1194294D01*
X956988Y1195965D01*
X957794Y1197912D01*
X958069Y1200000D01*
X957794Y1202088D01*
X956988Y1204035D01*
X955706Y1205706D01*
X954035Y1206988D01*
X953018Y1207409D01*
X952589Y1209622D01*
Y1210378D01*
X953018Y1212591D01*
X954035Y1213012D01*
X955706Y1214294D01*
X956988Y1215965D01*
X957794Y1217912D01*
X958069Y1220000D01*
X957794Y1222088D01*
X956988Y1224035D01*
X955706Y1225706D01*
X954035Y1226988D01*
X952088Y1227794D01*
X950000Y1228069D01*
D02*
G37*
G36*
X563500Y1175569D02*
X561412Y1175294D01*
X559465Y1174488D01*
X557794Y1173206D01*
X556512Y1171535D01*
X555706Y1169588D01*
X555431Y1167500D01*
X555706Y1165412D01*
X556512Y1163465D01*
X557794Y1161794D01*
X559465Y1160512D01*
X561412Y1159706D01*
X563500Y1159431D01*
X565588Y1159706D01*
X567534Y1160512D01*
X569206Y1161794D01*
X570488Y1163465D01*
X571294Y1165412D01*
X571569Y1167500D01*
X571294Y1169588D01*
X570488Y1171535D01*
X569206Y1173206D01*
X567534Y1174488D01*
X565588Y1175294D01*
X563500Y1175569D01*
D02*
G37*
G36*
X664000Y1280112D02*
X660606Y1279665D01*
X657444Y1278355D01*
X654728Y1276272D01*
X652645Y1273556D01*
X651335Y1270394D01*
X650888Y1267000D01*
X651335Y1263606D01*
X652645Y1260444D01*
X654728Y1257728D01*
X657444Y1255645D01*
X660606Y1254335D01*
X664000Y1253888D01*
X667394Y1254335D01*
X670556Y1255645D01*
X673272Y1257728D01*
X675356Y1260444D01*
X676665Y1263606D01*
X677112Y1267000D01*
X676665Y1270394D01*
X675356Y1273556D01*
X673272Y1276272D01*
X670556Y1278355D01*
X667394Y1279665D01*
X664000Y1280112D01*
D02*
G37*
G36*
X352000Y1313112D02*
X344000D01*
X340606Y1312665D01*
X337444Y1311355D01*
X334728Y1309272D01*
X332645Y1306556D01*
X331335Y1303394D01*
X330888Y1300000D01*
X331335Y1296606D01*
X332645Y1293444D01*
X334728Y1290728D01*
X337444Y1288645D01*
X340606Y1287335D01*
X344000Y1286888D01*
X352000D01*
X355394Y1287335D01*
X358556Y1288645D01*
X361272Y1290728D01*
X363355Y1293444D01*
X364665Y1296606D01*
X365112Y1300000D01*
X364665Y1303394D01*
X363355Y1306556D01*
X361272Y1309272D01*
X358556Y1311355D01*
X355394Y1312665D01*
X352000Y1313112D01*
D02*
G37*
G36*
X443500D02*
X435500D01*
X432106Y1312665D01*
X428944Y1311355D01*
X426228Y1309272D01*
X424145Y1306556D01*
X422835Y1303394D01*
X422388Y1300000D01*
X422835Y1296606D01*
X424145Y1293444D01*
X426228Y1290728D01*
X428944Y1288645D01*
X432106Y1287335D01*
X435500Y1286888D01*
X443500D01*
X446894Y1287335D01*
X450056Y1288645D01*
X452772Y1290728D01*
X454855Y1293444D01*
X456165Y1296606D01*
X456612Y1300000D01*
X456165Y1303394D01*
X454855Y1306556D01*
X452772Y1309272D01*
X450056Y1311355D01*
X446894Y1312665D01*
X443500Y1313112D01*
D02*
G37*
G36*
X1169000Y1248112D02*
X1165606Y1247665D01*
X1162444Y1246356D01*
X1159728Y1244272D01*
X1157645Y1241556D01*
X1156335Y1238394D01*
X1155888Y1235000D01*
X1156335Y1231606D01*
X1157645Y1228444D01*
X1159728Y1225728D01*
X1162444Y1223644D01*
X1165606Y1222335D01*
X1169000Y1221888D01*
X1172394Y1222335D01*
X1175556Y1223644D01*
X1178272Y1225728D01*
X1180356Y1228444D01*
X1181665Y1231606D01*
X1182112Y1235000D01*
X1181665Y1238394D01*
X1180356Y1241556D01*
X1178272Y1244272D01*
X1175556Y1246356D01*
X1172394Y1247665D01*
X1169000Y1248112D01*
D02*
G37*
G36*
X452200Y1250591D02*
X449459Y1250230D01*
X446905Y1249172D01*
X444711Y1247489D01*
X443028Y1245295D01*
X441970Y1242741D01*
X437030D01*
X435972Y1245295D01*
X434289Y1247489D01*
X432095Y1249172D01*
X429541Y1250230D01*
X426800Y1250591D01*
X424059Y1250230D01*
X421505Y1249172D01*
X419311Y1247489D01*
X417628Y1245295D01*
X416570Y1242741D01*
X416209Y1240000D01*
Y1230000D01*
X416570Y1227259D01*
X417628Y1224705D01*
X419311Y1222511D01*
X421505Y1220828D01*
X424059Y1219770D01*
X426800Y1219409D01*
X429541Y1219770D01*
X432095Y1220828D01*
X434289Y1222511D01*
X435972Y1224705D01*
X437030Y1227259D01*
X441970D01*
X443028Y1224705D01*
X444711Y1222511D01*
X446905Y1220828D01*
X449459Y1219770D01*
X452200Y1219409D01*
X454941Y1219770D01*
X457495Y1220828D01*
X459689Y1222511D01*
X461372Y1224705D01*
X462430Y1227259D01*
X462791Y1230000D01*
Y1240000D01*
X462430Y1242741D01*
X461372Y1245295D01*
X459689Y1247489D01*
X457495Y1249172D01*
X454941Y1250230D01*
X452200Y1250591D01*
D02*
G37*
G36*
X542700D02*
X539959Y1250230D01*
X537405Y1249172D01*
X535211Y1247489D01*
X533528Y1245295D01*
X532470Y1242741D01*
X527530D01*
X526472Y1245295D01*
X524789Y1247489D01*
X522595Y1249172D01*
X520041Y1250230D01*
X517300Y1250591D01*
X514559Y1250230D01*
X512005Y1249172D01*
X509811Y1247489D01*
X508128Y1245295D01*
X507070Y1242741D01*
X506709Y1240000D01*
Y1230000D01*
X507070Y1227259D01*
X508128Y1224705D01*
X509811Y1222511D01*
X512005Y1220828D01*
X514559Y1219770D01*
X517300Y1219409D01*
X520041Y1219770D01*
X522595Y1220828D01*
X524789Y1222511D01*
X526472Y1224705D01*
X527530Y1227259D01*
X532470D01*
X533528Y1224705D01*
X535211Y1222511D01*
X537405Y1220828D01*
X539959Y1219770D01*
X542700Y1219409D01*
X545441Y1219770D01*
X547995Y1220828D01*
X550189Y1222511D01*
X551872Y1224705D01*
X552930Y1227259D01*
X553291Y1230000D01*
Y1240000D01*
X552930Y1242741D01*
X551872Y1245295D01*
X550189Y1247489D01*
X547995Y1249172D01*
X545441Y1250230D01*
X542700Y1250591D01*
D02*
G37*
G36*
X1407000Y1220060D02*
X1405173Y1219820D01*
X1403470Y1219115D01*
X1402008Y1217992D01*
X1400885Y1216530D01*
X1400180Y1214827D01*
X1399940Y1213000D01*
X1400180Y1211173D01*
X1400885Y1209470D01*
X1402008Y1208008D01*
X1403470Y1206886D01*
X1405173Y1206180D01*
X1407000Y1205940D01*
X1407505Y1206006D01*
X1434909Y1178602D01*
X1435320Y1178124D01*
X1435730Y1173156D01*
X1435552Y1172483D01*
X1407677Y1144608D01*
X1403956D01*
X1400075Y1144919D01*
X1398605Y1149521D01*
X1409518Y1160434D01*
X1410343Y1160542D01*
X1412046Y1161248D01*
X1413508Y1162370D01*
X1414630Y1163832D01*
X1415336Y1165535D01*
X1415576Y1167362D01*
X1415336Y1169190D01*
X1414630Y1170892D01*
X1413508Y1172355D01*
X1412046Y1173477D01*
X1410343Y1174182D01*
X1408516Y1174423D01*
X1406689Y1174182D01*
X1404986Y1173477D01*
X1403523Y1172355D01*
X1402401Y1170892D01*
X1401696Y1169190D01*
X1401587Y1168364D01*
X1387035Y1153811D01*
X1385819Y1151992D01*
X1385612Y1150949D01*
X1385294Y1150706D01*
X1384012Y1149035D01*
X1383206Y1147088D01*
X1382931Y1145000D01*
X1383206Y1142912D01*
X1384012Y1140965D01*
X1385294Y1139294D01*
X1386965Y1138012D01*
X1388912Y1137206D01*
X1391000Y1136931D01*
X1391122Y1136947D01*
X1393035Y1135035D01*
X1394854Y1133819D01*
X1397000Y1133392D01*
X1401929D01*
X1403842Y1128773D01*
X1392435Y1117365D01*
X1391219Y1115546D01*
X1390792Y1113400D01*
Y1076723D01*
X1186933Y872863D01*
X1184872Y873717D01*
X1182000Y874095D01*
X1179128Y873717D01*
X1176453Y872608D01*
X1174155Y870845D01*
X1172392Y868548D01*
X1171283Y865872D01*
X1170905Y863000D01*
X1171283Y860128D01*
X1172392Y857452D01*
X1174155Y855155D01*
X1176453Y853391D01*
X1179128Y852283D01*
X1182000Y851905D01*
X1184872Y852283D01*
X1187547Y853391D01*
X1189845Y855155D01*
X1191609Y857452D01*
X1192717Y860128D01*
X1193095Y863000D01*
X1193076Y863145D01*
X1400365Y1070435D01*
X1401581Y1072254D01*
X1402008Y1074400D01*
Y1111077D01*
X1425904Y1134974D01*
X1430294Y1136620D01*
X1431965Y1135338D01*
X1433912Y1134532D01*
X1436000Y1134257D01*
X1438088Y1134532D01*
X1440034Y1135338D01*
X1441706Y1136620D01*
X1442988Y1138291D01*
X1443794Y1140238D01*
X1444069Y1142326D01*
X1443794Y1144414D01*
X1442988Y1146360D01*
X1441706Y1148032D01*
X1440034Y1149314D01*
X1438088Y1150120D01*
X1436350Y1150349D01*
X1435609Y1151394D01*
X1434121Y1155191D01*
X1444323Y1165392D01*
X1525000D01*
X1527146Y1165819D01*
X1528965Y1167035D01*
X1533965Y1172035D01*
X1535181Y1173854D01*
X1535608Y1176000D01*
Y1185677D01*
X1555002Y1205071D01*
X1555827Y1205180D01*
X1557530Y1205885D01*
X1558992Y1207008D01*
X1560114Y1208470D01*
X1560820Y1210173D01*
X1561060Y1212000D01*
X1560820Y1213827D01*
X1560114Y1215530D01*
X1558992Y1216992D01*
X1557530Y1218114D01*
X1555827Y1218820D01*
X1554000Y1219060D01*
X1552173Y1218820D01*
X1550470Y1218114D01*
X1549008Y1216992D01*
X1547886Y1215530D01*
X1547180Y1213827D01*
X1547072Y1213002D01*
X1526035Y1191965D01*
X1525799Y1191612D01*
X1524819Y1190146D01*
X1521462Y1188304D01*
X1519598Y1188497D01*
X1519558Y1188502D01*
X1517731Y1188262D01*
X1516028Y1187556D01*
X1514566Y1186434D01*
X1514255Y1186030D01*
X1440459D01*
X1413994Y1212495D01*
X1414060Y1213000D01*
X1413820Y1214827D01*
X1413114Y1216530D01*
X1411992Y1217992D01*
X1410530Y1219115D01*
X1408827Y1219820D01*
X1407000Y1220060D01*
D02*
G37*
G36*
X1639000Y1156060D02*
X1637173Y1155820D01*
X1635470Y1155115D01*
X1634008Y1153992D01*
X1632885Y1152530D01*
X1632180Y1150827D01*
X1631940Y1149000D01*
X1632180Y1147173D01*
X1632885Y1145470D01*
X1634008Y1144007D01*
X1634412Y1143697D01*
Y1099264D01*
X1560236Y1025088D01*
X1503500D01*
X1501744Y1024739D01*
X1500256Y1023744D01*
X1466851Y990340D01*
X1410546D01*
X1408790Y989990D01*
X1407301Y988996D01*
X1395756Y977450D01*
X1394761Y975962D01*
X1394412Y974206D01*
Y964772D01*
X1390250Y961482D01*
X1388756Y961739D01*
X1387000Y962088D01*
X1385244Y961739D01*
X1383756Y960744D01*
X1382761Y959256D01*
X1382412Y957500D01*
Y954200D01*
X1382761Y952444D01*
X1383756Y950956D01*
X1388956Y945756D01*
X1390444Y944761D01*
X1392200Y944412D01*
X1399636D01*
X1403931Y941000D01*
X1404206Y938912D01*
X1405012Y936965D01*
X1406294Y935294D01*
X1407966Y934012D01*
X1409912Y933206D01*
X1412000Y932931D01*
X1414088Y933206D01*
X1416035Y934012D01*
X1417163Y934878D01*
X1417966Y934262D01*
X1419912Y933456D01*
X1422000Y933181D01*
X1424088Y933456D01*
X1426035Y934262D01*
X1427706Y935544D01*
X1428988Y937215D01*
X1429794Y939162D01*
X1430069Y941250D01*
X1429794Y943338D01*
X1428988Y945285D01*
X1427706Y946956D01*
X1426035Y948238D01*
X1424088Y949044D01*
X1422752Y954263D01*
X1442901Y974412D01*
X1451994D01*
X1452989Y969412D01*
X1451965Y968988D01*
X1450294Y967706D01*
X1449012Y966034D01*
X1448206Y964088D01*
X1447931Y962000D01*
X1448206Y959912D01*
X1449012Y957965D01*
X1450294Y956294D01*
X1450791Y955913D01*
X1451233Y954059D01*
Y951941D01*
X1450791Y950087D01*
X1450294Y949706D01*
X1449012Y948035D01*
X1448206Y946088D01*
X1447931Y944000D01*
X1448206Y941912D01*
X1449012Y939966D01*
X1450294Y938294D01*
X1451965Y937012D01*
X1453912Y936206D01*
X1456000Y935931D01*
X1458088Y936206D01*
X1460034Y937012D01*
X1460260Y937185D01*
X1461757Y938294D01*
X1465243D01*
X1466740Y937185D01*
X1466965Y937012D01*
X1468912Y936206D01*
X1471000Y935931D01*
X1473088Y936206D01*
X1475034Y937012D01*
X1476706Y938294D01*
X1477988Y939966D01*
X1478794Y941912D01*
X1479734Y944266D01*
X1482088Y945206D01*
X1484034Y946012D01*
X1485706Y947294D01*
X1486988Y948966D01*
X1487794Y950912D01*
X1488069Y953000D01*
X1487794Y955088D01*
X1486988Y957035D01*
X1485706Y958706D01*
X1484034Y959988D01*
X1482088Y960794D01*
X1479069Y962000D01*
X1478794Y964088D01*
X1477988Y966034D01*
X1476706Y967706D01*
X1475034Y968988D01*
X1473088Y969794D01*
X1471876Y969954D01*
X1470874Y974254D01*
X1470918Y974816D01*
X1471147Y975023D01*
X1472244Y975756D01*
X1495009Y998521D01*
X1496473Y998366D01*
X1500121Y996561D01*
X1500206Y995912D01*
X1501012Y993966D01*
X1501185Y993740D01*
X1502294Y992243D01*
Y988757D01*
X1501185Y987260D01*
X1501012Y987035D01*
X1500206Y985088D01*
X1499931Y983000D01*
X1500206Y980912D01*
X1501012Y978966D01*
X1501185Y978740D01*
X1502294Y977243D01*
Y973757D01*
X1501185Y972260D01*
X1501012Y972035D01*
X1500206Y970088D01*
X1499931Y968000D01*
X1500206Y965912D01*
X1501012Y963966D01*
X1501185Y963740D01*
X1502294Y962243D01*
Y958757D01*
X1501185Y957260D01*
X1501012Y957035D01*
X1500206Y955088D01*
X1499931Y953000D01*
X1500206Y950912D01*
X1501012Y948966D01*
X1502294Y947294D01*
X1503965Y946012D01*
X1505912Y945206D01*
X1508000Y944931D01*
X1510088Y945206D01*
X1512034Y946012D01*
X1512260Y946185D01*
X1513757Y947294D01*
X1517243D01*
X1518740Y946185D01*
X1518965Y946012D01*
X1520912Y945206D01*
X1523000Y944931D01*
X1525088Y945206D01*
X1527034Y946012D01*
X1527260Y946185D01*
X1528757Y947294D01*
X1532243D01*
X1533740Y946185D01*
X1533965Y946012D01*
X1535912Y945206D01*
X1538000Y944931D01*
X1540088Y945206D01*
X1542034Y946012D01*
X1542260Y946185D01*
X1543757Y947294D01*
X1547243D01*
X1548740Y946185D01*
X1548965Y946012D01*
X1550912Y945206D01*
X1553000Y944931D01*
X1555088Y945206D01*
X1557034Y946012D01*
X1558706Y947294D01*
X1559988Y948966D01*
X1560794Y950912D01*
X1561069Y953000D01*
X1560794Y955088D01*
X1559988Y957035D01*
X1559815Y957260D01*
X1558706Y958757D01*
Y962243D01*
X1559815Y963740D01*
X1559988Y963966D01*
X1560794Y965912D01*
X1561069Y968000D01*
X1560794Y970088D01*
X1559988Y972035D01*
X1559815Y972260D01*
X1558706Y973757D01*
Y977243D01*
X1559815Y978740D01*
X1559988Y978966D01*
X1560794Y980912D01*
X1561069Y983000D01*
X1560794Y985088D01*
X1559988Y987035D01*
X1559815Y987260D01*
X1558706Y988757D01*
Y992243D01*
X1559815Y993740D01*
X1559988Y993966D01*
X1560794Y995912D01*
X1561069Y998000D01*
X1560794Y1000088D01*
X1559988Y1002035D01*
X1558706Y1003706D01*
X1557034Y1004988D01*
X1555088Y1005794D01*
X1553000Y1006069D01*
X1550912Y1005794D01*
X1548965Y1004988D01*
X1548740Y1004815D01*
X1547243Y1003706D01*
X1543757D01*
X1542260Y1004815D01*
X1542034Y1004988D01*
X1540088Y1005794D01*
X1538000Y1006069D01*
X1535912Y1005794D01*
X1533965Y1004988D01*
X1533740Y1004815D01*
X1532243Y1003706D01*
X1528757D01*
X1527260Y1004815D01*
X1527034Y1004988D01*
X1525088Y1005794D01*
X1523000Y1006069D01*
X1520912Y1005794D01*
X1518965Y1004988D01*
X1518740Y1004815D01*
X1517243Y1003706D01*
X1513757D01*
X1512260Y1004815D01*
X1512034Y1004988D01*
X1511660Y1010413D01*
X1512222Y1011318D01*
X1512463Y1011412D01*
X1564000D01*
X1565756Y1011761D01*
X1567244Y1012756D01*
X1655244Y1100756D01*
X1656239Y1102244D01*
X1656588Y1104000D01*
Y1129100D01*
X1659244Y1131756D01*
X1660239Y1133244D01*
X1660588Y1135000D01*
Y1140000D01*
X1660239Y1141756D01*
X1659244Y1143244D01*
X1658244Y1144244D01*
X1658244Y1144244D01*
X1655244Y1147244D01*
X1653756Y1148239D01*
X1652000Y1148588D01*
X1651006Y1148390D01*
X1650231Y1148486D01*
X1649056Y1148934D01*
X1645979Y1150734D01*
X1645733Y1151036D01*
X1645114Y1152530D01*
X1643992Y1153992D01*
X1642530Y1155115D01*
X1640827Y1155820D01*
X1639000Y1156060D01*
D02*
G37*
G36*
X481000Y1004112D02*
X477606Y1003665D01*
X474444Y1002355D01*
X471728Y1000272D01*
X469645Y997556D01*
X468335Y994394D01*
X467888Y991000D01*
X468335Y987606D01*
X469645Y984444D01*
X471728Y981728D01*
X474444Y979644D01*
X477606Y978335D01*
X481000Y977888D01*
X484394Y978335D01*
X487556Y979644D01*
X490272Y981728D01*
X492355Y984444D01*
X493665Y987606D01*
X494112Y991000D01*
X493665Y994394D01*
X492355Y997556D01*
X490272Y1000272D01*
X487556Y1002355D01*
X484394Y1003665D01*
X481000Y1004112D01*
D02*
G37*
G36*
X1022510Y955104D02*
X1018685Y954728D01*
X1015008Y953612D01*
X1011618Y951801D01*
X1008648Y949362D01*
X1006209Y946392D01*
X1004398Y943002D01*
X1003282Y939325D01*
X1002906Y935500D01*
X1003282Y931675D01*
X1004398Y927998D01*
X1006209Y924608D01*
X1008648Y921638D01*
X1011618Y919200D01*
X1015008Y917388D01*
X1018685Y916272D01*
X1022510Y915896D01*
X1026335Y916272D01*
X1030012Y917388D01*
X1033402Y919200D01*
X1036372Y921638D01*
X1038811Y924608D01*
X1040622Y927998D01*
X1041738Y931675D01*
X1042114Y935500D01*
X1041738Y939325D01*
X1040622Y943002D01*
X1038811Y946392D01*
X1036372Y949362D01*
X1033402Y951801D01*
X1030012Y953612D01*
X1026335Y954728D01*
X1022510Y955104D01*
D02*
G37*
G36*
X951000Y970069D02*
X948912Y969794D01*
X946965Y968988D01*
X945294Y967706D01*
X944012Y966034D01*
X943206Y964088D01*
X942931Y962000D01*
X943206Y959912D01*
X944012Y957965D01*
X945294Y956294D01*
X946965Y955012D01*
X947982Y954591D01*
X948411Y952378D01*
Y951622D01*
X947982Y949409D01*
X946965Y948988D01*
X945294Y947706D01*
X944012Y946034D01*
X943206Y944088D01*
X942931Y942000D01*
X943206Y939912D01*
X944012Y937965D01*
X945294Y936294D01*
X946965Y935012D01*
X947982Y934591D01*
X948410Y932378D01*
Y931621D01*
X947982Y929409D01*
X946965Y928988D01*
X945294Y927706D01*
X944012Y926034D01*
X943206Y924088D01*
X942931Y922000D01*
X943206Y919912D01*
X944012Y917965D01*
X945294Y916294D01*
X946965Y915012D01*
X947982Y914591D01*
X948411Y912378D01*
Y911622D01*
X947982Y909409D01*
X946965Y908988D01*
X945294Y907706D01*
X944012Y906034D01*
X943206Y904088D01*
X942931Y902000D01*
X943206Y899912D01*
X944012Y897965D01*
X945294Y896294D01*
X946965Y895012D01*
X948912Y894206D01*
X951000Y893931D01*
X953088Y894206D01*
X955034Y895012D01*
X956706Y896294D01*
X957988Y897965D01*
X958794Y899912D01*
X959069Y902000D01*
X958794Y904088D01*
X957988Y906034D01*
X956706Y907706D01*
X955034Y908988D01*
X954018Y909409D01*
X953589Y911622D01*
Y912378D01*
X954018Y914591D01*
X955034Y915012D01*
X956706Y916294D01*
X957988Y917965D01*
X958794Y919912D01*
X959069Y922000D01*
X958794Y924088D01*
X957988Y926034D01*
X956706Y927706D01*
X955034Y928988D01*
X954018Y929409D01*
X953589Y931621D01*
Y932378D01*
X954018Y934591D01*
X955034Y935012D01*
X956706Y936294D01*
X957988Y937965D01*
X958794Y939912D01*
X959069Y942000D01*
X958794Y944088D01*
X957988Y946034D01*
X956706Y947706D01*
X955034Y948988D01*
X954018Y949409D01*
X953589Y951622D01*
Y952378D01*
X954018Y954591D01*
X955034Y955012D01*
X956706Y956294D01*
X957988Y957965D01*
X958794Y959912D01*
X959069Y962000D01*
X958794Y964088D01*
X957988Y966034D01*
X956706Y967706D01*
X955034Y968988D01*
X953088Y969794D01*
X951000Y970069D01*
D02*
G37*
G36*
X931000Y980069D02*
X928912Y979794D01*
X926965Y978988D01*
X925294Y977706D01*
X924012Y976034D01*
X923206Y974088D01*
X922931Y972000D01*
X923206Y969912D01*
X924012Y967965D01*
X925294Y966294D01*
X926965Y965012D01*
X927982Y964591D01*
X928411Y962378D01*
Y961622D01*
X927982Y959409D01*
X926965Y958988D01*
X925294Y957706D01*
X924012Y956034D01*
X923206Y954088D01*
X922931Y952000D01*
X923206Y949912D01*
X924012Y947965D01*
X925294Y946294D01*
X926965Y945012D01*
X927982Y944591D01*
X928410Y942378D01*
Y941621D01*
X927982Y939409D01*
X926965Y938988D01*
X925294Y937706D01*
X924012Y936034D01*
X923206Y934088D01*
X922931Y932000D01*
X923206Y929912D01*
X924012Y927965D01*
X925294Y926294D01*
X926965Y925012D01*
X927982Y924591D01*
X928411Y922378D01*
Y921622D01*
X927982Y919409D01*
X926965Y918988D01*
X925294Y917706D01*
X924012Y916034D01*
X923206Y914088D01*
X922931Y912000D01*
X923206Y909912D01*
X924012Y907965D01*
X925294Y906294D01*
X926965Y905012D01*
X928912Y904206D01*
X931000Y903931D01*
X933088Y904206D01*
X935034Y905012D01*
X936706Y906294D01*
X937988Y907965D01*
X938794Y909912D01*
X939069Y912000D01*
X938794Y914088D01*
X937988Y916034D01*
X936706Y917706D01*
X935034Y918988D01*
X934018Y919409D01*
X933589Y921622D01*
Y922378D01*
X934018Y924591D01*
X935034Y925012D01*
X936706Y926294D01*
X937988Y927965D01*
X938794Y929912D01*
X939069Y932000D01*
X938794Y934088D01*
X937988Y936034D01*
X936706Y937706D01*
X935034Y938988D01*
X934018Y939409D01*
X933589Y941621D01*
Y942378D01*
X934018Y944591D01*
X935034Y945012D01*
X936706Y946294D01*
X937988Y947965D01*
X938794Y949912D01*
X939069Y952000D01*
X938794Y954088D01*
X937988Y956034D01*
X936706Y957706D01*
X935034Y958988D01*
X934018Y959409D01*
X933589Y961622D01*
Y962378D01*
X934018Y964591D01*
X935034Y965012D01*
X936706Y966294D01*
X937988Y967965D01*
X938794Y969912D01*
X939069Y972000D01*
X938794Y974088D01*
X937988Y976034D01*
X936706Y977706D01*
X935034Y978988D01*
X933088Y979794D01*
X931000Y980069D01*
D02*
G37*
G36*
X347500Y1161362D02*
X344106Y1160915D01*
X340944Y1159605D01*
X338228Y1157522D01*
X336144Y1154806D01*
X334835Y1151644D01*
X334388Y1148250D01*
X334835Y1144856D01*
X336144Y1141694D01*
X338228Y1138978D01*
X340944Y1136895D01*
X344106Y1135585D01*
X347500Y1135138D01*
X350894Y1135585D01*
X354056Y1136895D01*
X356772Y1138978D01*
X358856Y1141694D01*
X360165Y1144856D01*
X360612Y1148250D01*
X360165Y1151644D01*
X358856Y1154806D01*
X356772Y1157522D01*
X354056Y1159605D01*
X350894Y1160915D01*
X347500Y1161362D01*
D02*
G37*
G36*
X1589000Y1221060D02*
X1587173Y1220820D01*
X1585470Y1220115D01*
X1584008Y1218992D01*
X1582886Y1217530D01*
X1582180Y1215827D01*
X1581940Y1214000D01*
X1582180Y1212173D01*
X1582886Y1210470D01*
X1584008Y1209007D01*
X1584412Y1208697D01*
Y1133901D01*
X1569756Y1119244D01*
X1568761Y1117756D01*
X1568412Y1116000D01*
Y1102303D01*
X1568008Y1101992D01*
X1566886Y1100530D01*
X1566863Y1100476D01*
X1564110Y1099057D01*
X1562506Y1098508D01*
X1561079Y1098384D01*
X1560088Y1098794D01*
X1558000Y1099069D01*
X1555912Y1098794D01*
X1553965Y1097988D01*
X1552294Y1096706D01*
X1550706D01*
X1549034Y1097988D01*
X1547088Y1098794D01*
X1545000Y1099069D01*
X1542912Y1098794D01*
X1540966Y1097988D01*
X1539294Y1096706D01*
X1538331Y1095451D01*
X1538012Y1095034D01*
X1538012Y1095034D01*
X1537206Y1093088D01*
X1536000Y1091069D01*
X1533912Y1090794D01*
X1533912Y1090794D01*
X1531965Y1089988D01*
X1530294Y1088706D01*
X1529012Y1087035D01*
X1528206Y1085088D01*
X1527931Y1083000D01*
X1528206Y1080912D01*
X1529012Y1078966D01*
X1530294Y1077294D01*
X1531965Y1076012D01*
X1533912Y1075206D01*
X1536000Y1074931D01*
X1537206Y1072912D01*
X1538012Y1070965D01*
X1539294Y1069294D01*
X1540966Y1068012D01*
X1542912Y1067206D01*
X1545000Y1066931D01*
X1547088Y1067206D01*
X1547348Y1067314D01*
X1548504Y1066755D01*
X1549700Y1060881D01*
X1544248Y1055428D01*
X1543423Y1055320D01*
X1541720Y1054614D01*
X1540258Y1053492D01*
X1539135Y1052030D01*
X1538430Y1050327D01*
X1538190Y1048500D01*
X1533711Y1045608D01*
X1495000D01*
X1492854Y1045181D01*
X1491035Y1043965D01*
X1462998Y1015929D01*
X1462000Y1016060D01*
X1460173Y1015820D01*
X1458470Y1015115D01*
X1457008Y1013992D01*
X1455885Y1012530D01*
X1455180Y1010827D01*
X1454940Y1009000D01*
X1455180Y1007173D01*
X1455885Y1005470D01*
X1457008Y1004007D01*
X1458470Y1002886D01*
X1460173Y1002180D01*
X1462000Y1001940D01*
X1463827Y1002180D01*
X1465530Y1002886D01*
X1466992Y1004007D01*
X1467586Y1004781D01*
X1467965Y1005035D01*
X1497323Y1034392D01*
X1551000D01*
X1553146Y1034819D01*
X1554965Y1036035D01*
X1618965Y1100035D01*
X1620181Y1101854D01*
X1620608Y1104000D01*
Y1154677D01*
X1624002Y1158072D01*
X1624827Y1158180D01*
X1626530Y1158885D01*
X1627993Y1160007D01*
X1629115Y1161470D01*
X1629820Y1163173D01*
X1630060Y1165000D01*
X1629820Y1166827D01*
X1629115Y1168530D01*
X1627993Y1169992D01*
X1626530Y1171114D01*
X1624827Y1171820D01*
X1623000Y1172060D01*
X1621173Y1171820D01*
X1619470Y1171114D01*
X1618008Y1169992D01*
X1616886Y1168530D01*
X1615608Y1168214D01*
X1610608Y1172100D01*
Y1182677D01*
X1618759Y1190828D01*
X1618992Y1191008D01*
X1620114Y1192470D01*
X1620820Y1194173D01*
X1621060Y1196000D01*
X1620820Y1197827D01*
X1620114Y1199530D01*
X1618992Y1200992D01*
X1617530Y1202114D01*
X1615827Y1202820D01*
X1614000Y1203060D01*
X1612173Y1202820D01*
X1610470Y1202114D01*
X1609008Y1200992D01*
X1607885Y1199530D01*
X1607180Y1197827D01*
X1606940Y1196000D01*
X1607071Y1195002D01*
X1601035Y1188965D01*
X1599819Y1187146D01*
X1599392Y1185000D01*
Y1110573D01*
X1584995Y1096176D01*
X1582910Y1096524D01*
X1579908Y1098159D01*
X1579820Y1098827D01*
X1579115Y1100530D01*
X1577992Y1101992D01*
X1577588Y1102303D01*
Y1114100D01*
X1592244Y1128756D01*
X1593239Y1130244D01*
X1593588Y1132000D01*
Y1208697D01*
X1593992Y1209007D01*
X1595114Y1210470D01*
X1595820Y1212173D01*
X1596060Y1214000D01*
X1595820Y1215827D01*
X1595114Y1217530D01*
X1593992Y1218992D01*
X1592530Y1220115D01*
X1590827Y1220820D01*
X1589000Y1221060D01*
D02*
G37*
G36*
X1754000Y1038069D02*
X1751912Y1037794D01*
X1749966Y1036988D01*
X1749740Y1036815D01*
X1748243Y1035706D01*
X1744757D01*
X1743260Y1036815D01*
X1743035Y1036988D01*
X1741088Y1037794D01*
X1739000Y1038069D01*
X1736912Y1037794D01*
X1734966Y1036988D01*
X1734740Y1036815D01*
X1733243Y1035706D01*
X1729757D01*
X1728260Y1036815D01*
X1728035Y1036988D01*
X1726088Y1037794D01*
X1724000Y1038069D01*
X1721912Y1037794D01*
X1719966Y1036988D01*
X1719740Y1036815D01*
X1718243Y1035706D01*
X1714757D01*
X1713260Y1036815D01*
X1713035Y1036988D01*
X1711088Y1037794D01*
X1709000Y1038069D01*
X1706912Y1037794D01*
X1704966Y1036988D01*
X1704740Y1036815D01*
X1703243Y1035706D01*
X1699757D01*
X1698260Y1036815D01*
X1698035Y1036988D01*
X1696088Y1037794D01*
X1694000Y1038069D01*
X1691912Y1037794D01*
X1689966Y1036988D01*
X1689740Y1036815D01*
X1688243Y1035706D01*
X1684757D01*
X1683260Y1036815D01*
X1683035Y1036988D01*
X1681088Y1037794D01*
X1679000Y1038069D01*
X1676912Y1037794D01*
X1674966Y1036988D01*
X1674740Y1036815D01*
X1673243Y1035706D01*
X1669757D01*
X1668260Y1036815D01*
X1668035Y1036988D01*
X1666088Y1037794D01*
X1664000Y1038069D01*
X1661912Y1037794D01*
X1659966Y1036988D01*
X1659740Y1036815D01*
X1658243Y1035706D01*
X1654757D01*
X1653260Y1036815D01*
X1653035Y1036988D01*
X1651088Y1037794D01*
X1649000Y1038069D01*
X1646912Y1037794D01*
X1644966Y1036988D01*
X1644740Y1036815D01*
X1643243Y1035706D01*
X1639757D01*
X1638260Y1036815D01*
X1638035Y1036988D01*
X1636088Y1037794D01*
X1634000Y1038069D01*
X1631912Y1037794D01*
X1629966Y1036988D01*
X1629740Y1036815D01*
X1628243Y1035706D01*
X1624757D01*
X1623260Y1036815D01*
X1623035Y1036988D01*
X1621088Y1037794D01*
X1619000Y1038069D01*
X1616912Y1037794D01*
X1614966Y1036988D01*
X1614740Y1036815D01*
X1613243Y1035706D01*
X1609757D01*
X1608260Y1036815D01*
X1608035Y1036988D01*
X1606088Y1037794D01*
X1604000Y1038069D01*
X1601912Y1037794D01*
X1599966Y1036988D01*
X1598294Y1035706D01*
X1597012Y1034035D01*
X1596206Y1032088D01*
X1595931Y1030000D01*
X1596206Y1027912D01*
X1596366Y1027524D01*
X1594987Y1024013D01*
X1591476Y1022634D01*
X1591088Y1022794D01*
X1589000Y1023069D01*
X1586912Y1022794D01*
X1584966Y1021988D01*
X1583294Y1020706D01*
X1582012Y1019035D01*
X1581206Y1017088D01*
X1580931Y1015000D01*
X1581206Y1012912D01*
X1582012Y1010965D01*
X1582185Y1010740D01*
X1583294Y1009243D01*
Y1005757D01*
X1582185Y1004260D01*
X1582012Y1004035D01*
X1581206Y1002088D01*
X1580931Y1000000D01*
X1581206Y997912D01*
X1582012Y995965D01*
X1582185Y995740D01*
X1583294Y994243D01*
Y990757D01*
X1582185Y989260D01*
X1582012Y989035D01*
X1581206Y987088D01*
X1580931Y985000D01*
X1581206Y982912D01*
X1582012Y980965D01*
X1582185Y980740D01*
X1583294Y979243D01*
Y975757D01*
X1582185Y974260D01*
X1582012Y974035D01*
X1581206Y972088D01*
X1580931Y970000D01*
X1581206Y967912D01*
X1582012Y965965D01*
X1582185Y965740D01*
X1583294Y964243D01*
Y960757D01*
X1582185Y959260D01*
X1582012Y959035D01*
X1581206Y957088D01*
X1580931Y955000D01*
X1581206Y952912D01*
X1582012Y950965D01*
X1582185Y950740D01*
X1583294Y949243D01*
Y945757D01*
X1582185Y944260D01*
X1582012Y944035D01*
X1581206Y942088D01*
X1580931Y940000D01*
X1581206Y937912D01*
X1582012Y935965D01*
X1582185Y935740D01*
X1583294Y934243D01*
Y930757D01*
X1582185Y929260D01*
X1582012Y929035D01*
X1581206Y927088D01*
X1580931Y925000D01*
X1581206Y922912D01*
X1582012Y920965D01*
X1582185Y920740D01*
X1583294Y919243D01*
Y915757D01*
X1582185Y914260D01*
X1582012Y914035D01*
X1581206Y912088D01*
X1580931Y910000D01*
X1581206Y907912D01*
X1582012Y905965D01*
X1583294Y904294D01*
X1584966Y903012D01*
X1586912Y902206D01*
X1589000Y901931D01*
X1591088Y902206D01*
X1593035Y903012D01*
X1593260Y903185D01*
X1594757Y904294D01*
X1598243D01*
X1599740Y903185D01*
X1599966Y903012D01*
X1601912Y902206D01*
X1604000Y901931D01*
X1606088Y902206D01*
X1608035Y903012D01*
X1609706Y904294D01*
X1610988Y905965D01*
X1611794Y907912D01*
X1612069Y910000D01*
X1611794Y912088D01*
X1610988Y914035D01*
X1610815Y914260D01*
X1609706Y915757D01*
Y919243D01*
X1610815Y920740D01*
X1610988Y920965D01*
X1611794Y922912D01*
X1612069Y925000D01*
X1611794Y927088D01*
X1610988Y929035D01*
X1610815Y929260D01*
X1609706Y930757D01*
Y934243D01*
X1610815Y935740D01*
X1610988Y935965D01*
X1611794Y937912D01*
X1612069Y940000D01*
X1611794Y942088D01*
X1610988Y944035D01*
X1610815Y944260D01*
X1609706Y945757D01*
Y949243D01*
X1610815Y950740D01*
X1610988Y950965D01*
X1611794Y952912D01*
X1612069Y955000D01*
X1611794Y957088D01*
X1610988Y959035D01*
X1610815Y959260D01*
X1609706Y960757D01*
Y964243D01*
X1610815Y965740D01*
X1610988Y965965D01*
X1611794Y967912D01*
X1612069Y970000D01*
X1611794Y972088D01*
X1610988Y974035D01*
X1610815Y974260D01*
X1609706Y975757D01*
Y979243D01*
X1610815Y980740D01*
X1610988Y980965D01*
X1611794Y982912D01*
X1612069Y985000D01*
X1611794Y987088D01*
X1610988Y989035D01*
X1610815Y989260D01*
X1609706Y990757D01*
Y994243D01*
X1610815Y995740D01*
X1610988Y995965D01*
X1611794Y997912D01*
X1612069Y1000000D01*
X1611794Y1002088D01*
X1610988Y1004035D01*
X1610815Y1004260D01*
X1609706Y1005757D01*
Y1009243D01*
X1610815Y1010740D01*
X1610988Y1010965D01*
X1611794Y1012912D01*
X1612069Y1015000D01*
X1611794Y1017088D01*
X1611634Y1017476D01*
X1613013Y1020987D01*
X1616524Y1022366D01*
X1616912Y1022206D01*
X1619000Y1021931D01*
X1621088Y1022206D01*
X1623035Y1023012D01*
X1623260Y1023185D01*
X1624757Y1024294D01*
X1628243D01*
X1629740Y1023185D01*
X1629966Y1023012D01*
X1631912Y1022206D01*
X1634000Y1021931D01*
X1636088Y1022206D01*
X1638035Y1023012D01*
X1638260Y1023185D01*
X1639757Y1024294D01*
X1643243D01*
X1644740Y1023185D01*
X1644966Y1023012D01*
X1646912Y1022206D01*
X1649000Y1021931D01*
X1651088Y1022206D01*
X1653035Y1023012D01*
X1653260Y1023185D01*
X1654757Y1024294D01*
X1658243D01*
X1659740Y1023185D01*
X1659966Y1023012D01*
X1661912Y1022206D01*
X1664000Y1021931D01*
X1666088Y1022206D01*
X1668035Y1023012D01*
X1668260Y1023185D01*
X1669757Y1024294D01*
X1673243D01*
X1674740Y1023185D01*
X1674966Y1023012D01*
X1676912Y1022206D01*
X1679000Y1021931D01*
X1681088Y1022206D01*
X1683035Y1023012D01*
X1683260Y1023185D01*
X1684757Y1024294D01*
X1688243D01*
X1689740Y1023185D01*
X1689966Y1023012D01*
X1691912Y1022206D01*
X1694000Y1021931D01*
X1696088Y1022206D01*
X1698035Y1023012D01*
X1698260Y1023185D01*
X1699757Y1024294D01*
X1703243D01*
X1704740Y1023185D01*
X1704966Y1023012D01*
X1706912Y1022206D01*
X1709000Y1021931D01*
X1711088Y1022206D01*
X1713035Y1023012D01*
X1713260Y1023185D01*
X1714757Y1024294D01*
X1718243D01*
X1719740Y1023185D01*
X1719966Y1023012D01*
X1721912Y1022206D01*
X1724000Y1021931D01*
X1726088Y1022206D01*
X1728035Y1023012D01*
X1728260Y1023185D01*
X1729757Y1024294D01*
X1733243D01*
X1734740Y1023185D01*
X1734966Y1023012D01*
X1736912Y1022206D01*
X1739000Y1021931D01*
X1741088Y1022206D01*
X1743035Y1023012D01*
X1743260Y1023185D01*
X1744757Y1024294D01*
X1748243D01*
X1749740Y1023185D01*
X1749966Y1023012D01*
X1751912Y1022206D01*
X1754000Y1021931D01*
X1756088Y1022206D01*
X1758035Y1023012D01*
X1759706Y1024294D01*
X1760988Y1025965D01*
X1761794Y1027912D01*
X1762069Y1030000D01*
X1761794Y1032088D01*
X1760988Y1034035D01*
X1759706Y1035706D01*
X1758035Y1036988D01*
X1756088Y1037794D01*
X1754000Y1038069D01*
D02*
G37*
G36*
X1113700Y1112700D02*
X1082300D01*
Y1081300D01*
X1113700D01*
Y1112700D01*
D02*
G37*
%LPD*%
G36*
X789000Y1180250D02*
X876500D01*
X882000Y1174750D01*
Y1136000D01*
X876500Y1128750D01*
X626145D01*
X625537Y1129075D01*
X622578Y1129973D01*
X619500Y1130276D01*
X616422Y1129973D01*
X613463Y1129075D01*
X612855Y1128750D01*
X608000D01*
X599840Y1136910D01*
X623465Y1160535D01*
X624681Y1162354D01*
X625108Y1164500D01*
X624681Y1166646D01*
X623465Y1168465D01*
X621646Y1169681D01*
X619500Y1170108D01*
X617354Y1169681D01*
X615535Y1168465D01*
X595548Y1148479D01*
X594375Y1148965D01*
Y1183000D01*
X602188Y1190813D01*
X778438Y1190813D01*
X789000Y1180250D01*
D02*
G37*
G36*
X581750Y898250D02*
X581750Y843000D01*
X572250Y833500D01*
X523542Y833500D01*
X523000Y833608D01*
X520000D01*
X520000Y895000D01*
X530000Y905000D01*
X575000Y905000D01*
X581750Y898250D01*
D02*
G37*
G36*
X837000Y922500D02*
X872500D01*
X880142Y914858D01*
Y883142D01*
X852000Y855000D01*
X647500Y855000D01*
X624608Y877892D01*
Y888000D01*
X624181Y890146D01*
X622965Y891965D01*
X611000Y903931D01*
Y925000D01*
X624250Y938250D01*
X710688D01*
X711422Y938027D01*
X714500Y937724D01*
X717578Y938027D01*
X718312Y938250D01*
X821250Y938250D01*
X837000Y922500D01*
D02*
G37*
%LPC*%
G36*
X551000Y884118D02*
X548659Y883652D01*
X546674Y882326D01*
X545348Y880341D01*
X544883Y878000D01*
X545348Y875659D01*
X546674Y873674D01*
X548659Y872348D01*
X551000Y871882D01*
X553341Y872348D01*
X555326Y873674D01*
X556652Y875659D01*
X557118Y878000D01*
X556652Y880341D01*
X555326Y882326D01*
X553341Y883652D01*
X551000Y884118D01*
D02*
G37*
%LPD*%
D36*
X1652000Y1144000D02*
X1655000Y1141000D01*
X1655000Y1141000D02*
X1656000Y1140000D01*
X1655000Y1141000D02*
X1655000Y1141000D01*
X1656000Y1135000D02*
Y1140000D01*
X1652000Y1131000D02*
X1656000Y1135000D01*
X1503500Y1020500D02*
X1562136D01*
X1639000Y1097364D02*
Y1149000D01*
X1562136Y1020500D02*
X1639000Y1097364D01*
X1652000Y1104000D02*
Y1131000D01*
X1564000Y1016000D02*
X1652000Y1104000D01*
X1506000Y1016000D02*
X1564000D01*
X1468751Y985751D02*
X1503500Y1020500D01*
X1469000Y979000D02*
X1506000Y1016000D01*
X1441000Y979000D02*
X1469000D01*
X1410546Y985751D02*
X1468751D01*
X1652000Y1138000D02*
Y1144000D01*
X1655000Y1141000D02*
X1655000D01*
X1573000Y1097000D02*
Y1116000D01*
X1589000Y1132000D01*
Y1214000D01*
X1411000Y949000D02*
X1441000Y979000D01*
X1392200Y949000D02*
X1411000D01*
X1387000Y954200D02*
X1392200Y949000D01*
X1387000Y954200D02*
Y957500D01*
X1399000Y974206D02*
X1410546Y985751D01*
X1399000Y957500D02*
Y974206D01*
X1407000Y1213000D02*
X1438558Y1181442D01*
X1519558D01*
D38*
X596750Y812000D02*
X597000Y812250D01*
X523000Y812000D02*
X596750D01*
X799750Y1192250D02*
X861000D01*
X796000Y1196000D02*
X799750Y1192250D01*
X861000Y1217650D02*
X866850D01*
X1790000Y360000D02*
Y1240000D01*
X800000Y1340000D02*
X1790000Y1240000D01*
X210000Y1340000D02*
X800000D01*
Y260000D02*
X1790000Y360000D01*
X210000Y260000D02*
X800000D01*
X210000D02*
Y1340000D01*
D39*
X1180000Y858000D02*
X1396400Y1074400D01*
X1462000Y1009000D02*
X1464000D01*
X1495000Y1040000D02*
X1551000D01*
X1464000Y1009000D02*
X1495000Y1040000D01*
X1551000D02*
X1615000Y1104000D01*
Y1157000D01*
X1605000Y1185000D02*
X1615000Y1195000D01*
X1614000Y1196000D02*
X1614000D01*
X1615000Y1195000D01*
X309250Y625750D02*
X407750D01*
X1545250Y1048500D02*
X1605000Y1108250D01*
Y1185000D01*
X1615000Y1157000D02*
X1623000Y1165000D01*
X1391000Y1145000D02*
Y1149846D01*
X1408516Y1167362D01*
X1050400Y369600D02*
X1061000D01*
X568000Y674500D02*
X872500Y370000D01*
X810000Y445000D02*
X975000D01*
X576250Y678750D02*
X810000Y445000D01*
X975000D02*
X1050400Y369600D01*
X872500Y370000D02*
X955000D01*
X1250000Y565000D02*
Y604100D01*
X1090000Y565000D02*
Y597700D01*
X930000Y570000D02*
Y594600D01*
X743750Y596250D02*
X765000Y575000D01*
X671500Y596250D02*
X743750D01*
X579250Y795250D02*
X609250D01*
X572000Y788000D02*
X579250Y795250D01*
X523000Y788000D02*
X572000D01*
X407750Y625750D02*
X459250Y677250D01*
X502250Y796000D02*
X523000D01*
X477000Y724000D02*
X523000D01*
X477000Y780000D02*
X523000D01*
Y740000D02*
X551500D01*
X576250Y715250D01*
X523000Y732000D02*
X548750D01*
X568000Y712750D01*
X576250Y678750D02*
Y715250D01*
X568000Y674500D02*
Y712750D01*
X852618Y1217650D02*
X861000D01*
X837268Y1233000D02*
X852618Y1217650D01*
X815500Y1233000D02*
X837268D01*
X601250Y692000D02*
Y726500D01*
X593000Y687500D02*
Y722750D01*
X584500Y683250D02*
Y719250D01*
X609500Y696500D02*
Y730250D01*
X873000Y831000D02*
Y832750D01*
Y818750D02*
Y831000D01*
X873100Y960900D02*
X885750Y948250D01*
X862250Y960900D02*
X873100D01*
X873000Y831000D02*
X885750Y843750D01*
Y948250D01*
X555750Y748000D02*
X584500Y719250D01*
X559750Y756000D02*
X593000Y722750D01*
X919350Y605250D02*
X930000Y594600D01*
X563750Y764000D02*
X601250Y726500D01*
X1073700Y614000D02*
X1090000Y597700D01*
X567750Y772000D02*
X609500Y730250D01*
X1230850Y623250D02*
X1250000Y604100D01*
X609500Y696500D02*
X682750Y623250D01*
X1230850D01*
X679250Y614000D02*
X1073700D01*
X601250Y692000D02*
X679250Y614000D01*
X593000Y687500D02*
X675250Y605250D01*
X919350D01*
X584500Y683250D02*
X671500Y596250D01*
X523750Y764000D02*
X563750D01*
X523750Y772000D02*
X567750D01*
X523750Y748000D02*
X555750D01*
X523750Y756000D02*
X559750D01*
X477000Y828000D02*
X523000D01*
Y804000D02*
X580250D01*
X581250Y803000D01*
X605750D01*
X556500Y1060750D02*
X593000Y1097250D01*
X523000Y820000D02*
X546250D01*
X550250Y824000D01*
X609250Y795250D02*
X619000Y805000D01*
X605750Y803000D02*
X610000Y807250D01*
X536500Y1043250D02*
X590000Y989750D01*
X577000Y918343D02*
Y992750D01*
Y918343D02*
X610000Y885343D01*
Y807250D02*
Y885343D01*
X590000Y917000D02*
Y989750D01*
Y917000D02*
X619000Y888000D01*
Y805000D02*
Y888000D01*
X593000Y1097250D02*
Y1138000D01*
X619500Y1164500D01*
X1530000Y1188000D02*
X1554000Y1212000D01*
X1530000Y1176000D02*
Y1188000D01*
X1525000Y1171000D02*
X1530000Y1176000D01*
X1396400Y1074400D02*
Y1113400D01*
X1425326Y1142326D01*
X1436000D01*
X1442000Y1171000D02*
X1525000D01*
X1391000Y1145000D02*
X1397000Y1139000D01*
X1410000D01*
X1442000Y1171000D01*
X536500Y1043250D02*
Y1063000D01*
X451750Y1118000D02*
X577000Y992750D01*
D42*
X1098000Y1022000D02*
D03*
X707000Y1147000D02*
D03*
Y1107000D02*
D03*
X667000Y1094500D02*
D03*
Y1159500D02*
D03*
X619500Y1114500D02*
D03*
Y1089500D02*
D03*
X627000Y921000D02*
D03*
Y961000D02*
D03*
X667000Y973500D02*
D03*
Y908500D02*
D03*
X714500Y953500D02*
D03*
Y978500D02*
D03*
X400000Y533000D02*
D03*
D43*
X1098000Y1097000D02*
D03*
X619500Y1164500D02*
D03*
X714500Y903500D02*
D03*
D44*
X648500Y756250D02*
D03*
X645000Y819000D02*
D03*
X481000Y991000D02*
D03*
X692000Y1172000D02*
D03*
Y1082000D02*
D03*
X652000Y1142000D02*
D03*
X682000D02*
D03*
Y1112000D02*
D03*
X652000D02*
D03*
X642000Y896000D02*
D03*
Y986000D02*
D03*
X682000Y926000D02*
D03*
X652000D02*
D03*
Y956000D02*
D03*
X682000D02*
D03*
X551000Y564000D02*
D03*
X648500Y485750D02*
D03*
X1169000Y1235000D02*
D03*
X772500Y1182500D02*
D03*
X1210000Y818000D02*
D03*
X664000Y1267000D02*
D03*
X785000Y855000D02*
D03*
X347500Y1148250D02*
D03*
X661250Y396250D02*
D03*
D45*
X517300Y1235000D02*
D03*
X542700D02*
D03*
X504700Y361000D02*
D03*
X479300D02*
D03*
X426800Y1235000D02*
D03*
X452200D02*
D03*
X420700Y361000D02*
D03*
X395300D02*
D03*
X1199200Y565000D02*
D03*
X1250000D02*
D03*
X1224600D02*
D03*
X1039200D02*
D03*
X1090000D02*
D03*
X1064600D02*
D03*
X879200D02*
D03*
X930000D02*
D03*
X904600D02*
D03*
X714200D02*
D03*
X765000D02*
D03*
X739600D02*
D03*
X335300Y1235000D02*
D03*
X360700D02*
D03*
D46*
X1061000Y420400D02*
D03*
Y369600D02*
D03*
Y395000D02*
D03*
X955000Y420800D02*
D03*
Y370000D02*
D03*
Y395400D02*
D03*
D47*
X1000000Y800000D02*
D03*
X250000D02*
D03*
Y300000D02*
D03*
X750000D02*
D03*
X1250000Y350000D02*
D03*
X1750000Y400000D02*
D03*
Y800000D02*
D03*
Y1200000D02*
D03*
X1250000Y1250000D02*
D03*
X750000Y1300000D02*
D03*
X250000D02*
D03*
D48*
X475000Y533000D02*
D03*
D49*
X1021260Y1192250D02*
D03*
X1022510Y935500D02*
D03*
D50*
X861000Y1166850D02*
D03*
Y1192250D02*
D03*
Y1217650D02*
D03*
X862250Y910100D02*
D03*
Y935500D02*
D03*
Y960900D02*
D03*
D51*
X1566000Y1171650D02*
D03*
Y1179150D02*
D03*
Y1186650D02*
D03*
X1576000D02*
D03*
Y1179150D02*
D03*
Y1171650D02*
D03*
Y1164150D02*
D03*
Y1156650D02*
D03*
X1566000D02*
D03*
Y1164150D02*
D03*
X1556000Y1156650D02*
D03*
Y1164150D02*
D03*
Y1171650D02*
D03*
Y1179150D02*
D03*
Y1186650D02*
D03*
X1486000Y906000D02*
D03*
X1494000Y990000D02*
D03*
X1435000Y999000D02*
D03*
X393000Y338000D02*
D03*
X525000Y367000D02*
D03*
X433000Y1113000D02*
D03*
X468000Y1090000D02*
D03*
X420000Y957000D02*
D03*
X326000Y1167000D02*
D03*
X386000Y1058000D02*
D03*
X439000Y1215000D02*
D03*
X618000Y1246000D02*
D03*
X525000Y1186000D02*
D03*
X849000Y1237000D02*
D03*
X722000Y846000D02*
D03*
X679000Y845000D02*
D03*
X551000Y878000D02*
D03*
X458000Y987000D02*
D03*
X494000Y1210000D02*
D03*
X478000Y1039000D02*
D03*
X1306000Y1255000D02*
D03*
X1752000Y1102000D02*
D03*
X1084000Y867000D02*
D03*
X614000Y454000D02*
D03*
X376000Y996000D02*
D03*
X247000Y1180000D02*
D03*
Y937000D02*
D03*
X407000Y1305000D02*
D03*
X936000Y1294000D02*
D03*
X1083000Y1277000D02*
D03*
X899000Y1008000D02*
D03*
X958000Y1124000D02*
D03*
X921000Y865000D02*
D03*
X1117000Y574000D02*
D03*
X953000Y571000D02*
D03*
X787000Y570000D02*
D03*
X619000Y574000D02*
D03*
X483000Y573000D02*
D03*
X436000Y401000D02*
D03*
X243000Y621000D02*
D03*
X242000Y469000D02*
D03*
X380000Y294000D02*
D03*
X528000Y295000D02*
D03*
X627000Y294000D02*
D03*
X904000Y300000D02*
D03*
X1020000Y314000D02*
D03*
X1124000Y324000D02*
D03*
X1181000Y327000D02*
D03*
X1343000Y340000D02*
D03*
X1755000Y649000D02*
D03*
Y520000D02*
D03*
X1589000Y372000D02*
D03*
X1450000Y356000D02*
D03*
X1451000Y438000D02*
D03*
X1470000Y547000D02*
D03*
X1472000Y654000D02*
D03*
X1597000Y758000D02*
D03*
X1472000Y757000D02*
D03*
D52*
X419000Y694000D02*
D03*
Y702000D02*
D03*
X332000Y643000D02*
D03*
X371250Y566250D02*
D03*
X330000Y570000D02*
D03*
X346000Y643000D02*
D03*
X323250Y684750D02*
D03*
X332000Y691000D02*
D03*
X407750Y702000D02*
D03*
D53*
X1614000Y1196000D02*
D03*
X1573000Y1097000D02*
D03*
X1462000Y1009000D02*
D03*
X793250Y1240000D02*
D03*
X780250Y1215000D02*
D03*
X802500Y1233500D02*
D03*
X803500Y1295250D02*
D03*
X820750D02*
D03*
X872250Y818500D02*
D03*
X309250Y625750D02*
D03*
X1554000Y1212000D02*
D03*
X1623000Y1165000D02*
D03*
X1399000Y957500D02*
D03*
X1387000D02*
D03*
X1589000Y1214000D02*
D03*
X1519558Y1181442D02*
D03*
X1407000Y1213000D02*
D03*
X904000Y855250D02*
D03*
X815500Y1233000D02*
D03*
X1639000Y1149000D02*
D03*
X1408516Y1167362D02*
D03*
X1545250Y1048500D02*
D03*
X1652000Y1138000D02*
D03*
D54*
X264000Y1146000D02*
D03*
X255000Y1132000D02*
D03*
X536000Y1062000D02*
D03*
X1456000Y962000D02*
D03*
X1471000D02*
D03*
X1412000Y941000D02*
D03*
X1480000Y953000D02*
D03*
X1456000Y944000D02*
D03*
X1558000Y1075000D02*
D03*
Y1091000D02*
D03*
Y1115000D02*
D03*
X1593000D02*
D03*
X413750Y899750D02*
D03*
X300000Y847000D02*
D03*
X418750Y1060000D02*
D03*
X272750Y1056250D02*
D03*
X358250Y1106500D02*
D03*
X388250D02*
D03*
X418750Y1156250D02*
D03*
X459250Y677250D02*
D03*
X502250Y796000D02*
D03*
X585000Y785750D02*
D03*
X609500D02*
D03*
X705750Y770250D02*
D03*
X692750Y757500D02*
D03*
X678500Y770250D02*
D03*
X597000Y812250D02*
D03*
X886250Y810750D02*
D03*
X886250Y823000D02*
D03*
X888250Y762500D02*
D03*
X864000D02*
D03*
X552750Y661750D02*
D03*
X599750Y357750D02*
D03*
X591250Y1319000D02*
D03*
X563500Y1167500D02*
D03*
X796000Y1196000D02*
D03*
X1391000Y1145000D02*
D03*
X1493000Y1130000D02*
D03*
X1545000Y1091000D02*
D03*
Y1075000D02*
D03*
X1536000Y1083000D02*
D03*
X671250Y716750D02*
D03*
X746000Y681000D02*
D03*
X911000Y680250D02*
D03*
X1074750Y680500D02*
D03*
X1229750Y681250D02*
D03*
X660000Y682000D02*
D03*
X840000Y654500D02*
D03*
X1002750D02*
D03*
X1163250D02*
D03*
X1054250Y654000D02*
D03*
X1214750Y653500D02*
D03*
X893250Y654500D02*
D03*
X728250Y655250D02*
D03*
X698950Y716750D02*
D03*
X726650D02*
D03*
X754350D02*
D03*
X837450D02*
D03*
X865150D02*
D03*
X892850D02*
D03*
X920550D02*
D03*
X1003650D02*
D03*
X1031350D02*
D03*
X1059050D02*
D03*
X1086750D02*
D03*
X1169850D02*
D03*
X1197550D02*
D03*
X1225250D02*
D03*
X782050D02*
D03*
X809750D02*
D03*
X948250D02*
D03*
X975950D02*
D03*
X1114450D02*
D03*
X1142150D02*
D03*
X726000Y425750D02*
D03*
X727250Y448000D02*
D03*
X746750Y469500D02*
D03*
X784500Y433000D02*
D03*
X829788Y469500D02*
D03*
X871308D02*
D03*
X912827D02*
D03*
X954346D02*
D03*
X995865D02*
D03*
X1037384D02*
D03*
X1078904D02*
D03*
X1120423D02*
D03*
X1161942D02*
D03*
X1203461D02*
D03*
X1244981D02*
D03*
X1008000Y436000D02*
D03*
X851000Y455000D02*
D03*
X850750Y432750D02*
D03*
X312000Y322500D02*
D03*
X874750Y1146500D02*
D03*
X858250Y1147000D02*
D03*
X841750Y1147250D02*
D03*
X721750Y923000D02*
D03*
X699250D02*
D03*
X690750Y901500D02*
D03*
X698500Y880750D02*
D03*
X722500Y880250D02*
D03*
X874500Y888000D02*
D03*
X856500D02*
D03*
X839000Y887750D02*
D03*
X890000Y1220000D02*
D03*
X910000D02*
D03*
Y1200000D02*
D03*
Y1180000D02*
D03*
Y1160000D02*
D03*
X930000Y1210000D02*
D03*
Y1190000D02*
D03*
Y1170000D02*
D03*
X950000Y1220000D02*
D03*
Y1200000D02*
D03*
Y1180000D02*
D03*
Y1160000D02*
D03*
X930000Y1230000D02*
D03*
X931000Y972000D02*
D03*
X951000Y902000D02*
D03*
Y922000D02*
D03*
Y942000D02*
D03*
Y962000D02*
D03*
X931000Y912000D02*
D03*
Y932000D02*
D03*
Y952000D02*
D03*
X911000Y902000D02*
D03*
Y922000D02*
D03*
Y942000D02*
D03*
Y962000D02*
D03*
X891000D02*
D03*
X1304000Y638000D02*
D03*
X1303000Y656000D02*
D03*
X1336000Y638000D02*
D03*
Y655000D02*
D03*
X1335000Y689000D02*
D03*
X1319000D02*
D03*
Y672000D02*
D03*
Y656000D02*
D03*
X1255000Y717000D02*
D03*
X1284000D02*
D03*
X1412250Y973500D02*
D03*
X1422250D02*
D03*
X1422000Y941250D02*
D03*
X1508000Y953000D02*
D03*
X1523000D02*
D03*
Y968000D02*
D03*
X1538000Y983000D02*
D03*
Y968000D02*
D03*
Y953000D02*
D03*
X1553000D02*
D03*
Y968000D02*
D03*
Y983000D02*
D03*
Y998000D02*
D03*
X1589000Y910000D02*
D03*
Y925000D02*
D03*
Y940000D02*
D03*
Y955000D02*
D03*
Y970000D02*
D03*
Y985000D02*
D03*
X1634000Y1030000D02*
D03*
X1649000D02*
D03*
X1664000D02*
D03*
X1679000D02*
D03*
X1694000D02*
D03*
X1709000D02*
D03*
X1724000D02*
D03*
X1739000D02*
D03*
X1754000D02*
D03*
X1604000Y1000000D02*
D03*
Y985000D02*
D03*
Y970000D02*
D03*
Y955000D02*
D03*
Y940000D02*
D03*
Y925000D02*
D03*
Y910000D02*
D03*
X1409000Y1152000D02*
D03*
X1388000Y1173000D02*
D03*
Y1204000D02*
D03*
Y1235000D02*
D03*
X1431000Y1131000D02*
D03*
X1458000Y1130000D02*
D03*
X1528000D02*
D03*
X1663000Y1115000D02*
D03*
X1688000Y1135000D02*
D03*
Y1165000D02*
D03*
Y1183000D02*
D03*
X1666000Y1207000D02*
D03*
X1628000Y1240000D02*
D03*
X1598000D02*
D03*
X1563000D02*
D03*
X1528000D02*
D03*
X1493000D02*
D03*
X1458000D02*
D03*
X1423000D02*
D03*
X1668000Y1150000D02*
D03*
X1473000Y1225000D02*
D03*
X1528000D02*
D03*
X1589000Y1000000D02*
D03*
X1538000Y998000D02*
D03*
X1523000Y983000D02*
D03*
X1604000Y1030000D02*
D03*
Y1015000D02*
D03*
X1628000Y1115000D02*
D03*
X1508000Y968000D02*
D03*
Y983000D02*
D03*
X1523000Y998000D02*
D03*
X1508000D02*
D03*
X1619000Y1030000D02*
D03*
X1589000Y1015000D02*
D03*
X1471000Y944000D02*
D03*
X1436000Y1142326D02*
D03*
X452250Y1118500D02*
D03*
X440000Y1149500D02*
D03*
X464000D02*
D03*
X442750Y1054000D02*
D03*
X556500Y1060750D02*
D03*
X556250Y975250D02*
D03*
X514500Y972250D02*
D03*
X467500Y953500D02*
D03*
X468000Y927250D02*
D03*
X550250Y824000D02*
D03*
D55*
X1129000Y1040000D02*
D03*
Y1010000D02*
D03*
Y980000D02*
D03*
Y950000D02*
D03*
X1154000Y1025000D02*
D03*
Y995000D02*
D03*
Y965000D02*
D03*
X1179000Y1040000D02*
D03*
Y1010000D02*
D03*
Y980000D02*
D03*
Y950000D02*
D03*
X1156000Y757000D02*
D03*
X1132000Y863000D02*
D03*
Y833000D02*
D03*
Y803000D02*
D03*
Y773000D02*
D03*
X1157000Y878000D02*
D03*
Y848000D02*
D03*
Y818000D02*
D03*
Y788000D02*
D03*
X1182000Y773000D02*
D03*
Y803000D02*
D03*
Y833000D02*
D03*
Y863000D02*
D03*
X445000Y880000D02*
D03*
Y855000D02*
D03*
Y830000D02*
D03*
Y805000D02*
D03*
Y780000D02*
D03*
Y755000D02*
D03*
Y730000D02*
D03*
X570000Y845000D02*
D03*
Y870000D02*
D03*
Y895000D02*
D03*
X545000D02*
D03*
X520000D02*
D03*
X498250Y753750D02*
D03*
Y844500D02*
D03*
X493500Y809750D02*
D03*
D56*
X477000Y876000D02*
D03*
X523000D02*
D03*
Y868000D02*
D03*
X477000D02*
D03*
X523000Y860000D02*
D03*
X477000D02*
D03*
X523000Y852000D02*
D03*
X477000D02*
D03*
X523000Y844000D02*
D03*
X477000D02*
D03*
X523000Y836000D02*
D03*
X477000D02*
D03*
X523000Y828000D02*
D03*
X477000D02*
D03*
X523000Y820000D02*
D03*
X477000D02*
D03*
X523000Y812000D02*
D03*
X477000D02*
D03*
X523000Y804000D02*
D03*
X477000D02*
D03*
X523000Y796000D02*
D03*
X477000D02*
D03*
X523000Y788000D02*
D03*
X477000D02*
D03*
X523000Y780000D02*
D03*
X477000D02*
D03*
X523000Y772000D02*
D03*
X477000D02*
D03*
X523000Y764000D02*
D03*
X477000D02*
D03*
X523000Y756000D02*
D03*
X477000D02*
D03*
X523000Y748000D02*
D03*
X477000D02*
D03*
X523000Y740000D02*
D03*
X477000D02*
D03*
X523000Y732000D02*
D03*
X477000D02*
D03*
X523000Y724000D02*
D03*
X477000D02*
D03*
M02*
