G04 Layer_Color=32896*
%FSLAX44Y44*%
%MOMM*%
G71*
G01*
G75*
%ADD37C,0.2540*%
%ADD38C,0.4000*%
%ADD60C,0.1524*%
D37*
X804540Y260000D02*
X1858540D01*
X1794540Y360000D02*
X1858540D01*
X1856000Y260000D02*
Y310000D01*
Y360000D01*
Y260000D02*
X1861080Y275240D01*
X1850920D02*
X1856000Y260000D01*
X1850920Y344760D02*
X1856000Y360000D01*
X1861080Y344760D01*
X800000Y167460D02*
Y255460D01*
X1790000Y167460D02*
Y355460D01*
X800000Y170000D02*
X1252593D01*
X1329279D02*
X1790000D01*
X800000D02*
X815240Y164920D01*
X800000Y170000D02*
X815240Y175080D01*
X1774760D02*
X1790000Y170000D01*
X1774760Y164920D02*
X1790000Y170000D01*
Y1244540D02*
Y1392540D01*
X210000Y1344540D02*
Y1392540D01*
X1040627Y1390000D02*
X1790000D01*
X210000D02*
X951245D01*
X1774760Y1395080D02*
X1790000Y1390000D01*
X1774760Y1384920D02*
X1790000Y1390000D01*
X210000D02*
X225240Y1384920D01*
X210000Y1390000D02*
X225240Y1395080D01*
X186460Y260000D02*
X205460D01*
X186460Y1340000D02*
X205460D01*
X189000Y260000D02*
Y751245D01*
Y840627D02*
Y1340000D01*
Y260000D02*
X194080Y275240D01*
X183920D02*
X189000Y260000D01*
X183920Y1324760D02*
X189000Y1340000D01*
X194080Y1324760D01*
D38*
X1790000Y360000D02*
Y1240000D01*
X800000Y1340000D02*
X1790000Y1240000D01*
X210000Y1340000D02*
X800000D01*
Y260000D02*
X1790000Y360000D01*
X210000Y260000D02*
X800000D01*
X210000D02*
Y1340000D01*
D60*
X1892566Y272927D02*
Y278005D01*
Y275466D01*
X1877331D01*
X1879870Y272927D01*
Y285623D02*
X1877331Y288162D01*
Y293240D01*
X1879870Y295779D01*
X1890027D01*
X1892566Y293240D01*
Y288162D01*
X1890027Y285623D01*
X1879870D01*
X1892566Y300858D02*
X1890027D01*
Y303397D01*
X1892566D01*
Y300858D01*
X1879870Y313554D02*
X1877331Y316093D01*
Y321171D01*
X1879870Y323710D01*
X1890027D01*
X1892566Y321171D01*
Y316093D01*
X1890027Y313554D01*
X1879870D01*
Y328789D02*
X1877331Y331328D01*
Y336406D01*
X1879870Y338945D01*
X1890027D01*
X1892566Y336406D01*
Y331328D01*
X1890027Y328789D01*
X1879870D01*
X1256657Y163398D02*
X1259196Y160858D01*
X1264275D01*
X1266814Y163398D01*
Y173554D01*
X1264275Y176094D01*
X1259196D01*
X1256657Y173554D01*
Y171015D01*
X1259196Y168476D01*
X1266814D01*
X1271892Y163398D02*
X1274431Y160858D01*
X1279510D01*
X1282049Y163398D01*
Y173554D01*
X1279510Y176094D01*
X1274431D01*
X1271892Y173554D01*
Y171015D01*
X1274431Y168476D01*
X1282049D01*
X1287127Y160858D02*
Y163398D01*
X1289666D01*
Y160858D01*
X1287127D01*
X1299823Y173554D02*
X1302362Y176094D01*
X1307441D01*
X1309980Y173554D01*
Y163398D01*
X1307441Y160858D01*
X1302362D01*
X1299823Y163398D01*
Y173554D01*
X1315058D02*
X1317597Y176094D01*
X1322676D01*
X1325215Y173554D01*
Y163398D01*
X1322676Y160858D01*
X1317597D01*
X1315058Y163398D01*
Y173554D01*
X955309Y1380858D02*
X960387D01*
X957848D01*
Y1396093D01*
X955309Y1393554D01*
X978162Y1396093D02*
X968005D01*
Y1388476D01*
X973083Y1391015D01*
X975623D01*
X978162Y1388476D01*
Y1383398D01*
X975623Y1380858D01*
X970544D01*
X968005Y1383398D01*
X983240Y1393554D02*
X985779Y1396093D01*
X990858D01*
X993397Y1393554D01*
Y1391015D01*
X990858Y1388476D01*
X993397Y1385937D01*
Y1383398D01*
X990858Y1380858D01*
X985779D01*
X983240Y1383398D01*
Y1385937D01*
X985779Y1388476D01*
X983240Y1391015D01*
Y1393554D01*
X985779Y1388476D02*
X990858D01*
X998475Y1380858D02*
Y1383398D01*
X1001014D01*
Y1380858D01*
X998475D01*
X1011171Y1393554D02*
X1013710Y1396093D01*
X1018789D01*
X1021328Y1393554D01*
Y1383398D01*
X1018789Y1380858D01*
X1013710D01*
X1011171Y1383398D01*
Y1393554D01*
X1026406D02*
X1028945Y1396093D01*
X1034024D01*
X1036563Y1393554D01*
Y1383398D01*
X1034024Y1380858D01*
X1028945D01*
X1026406Y1383398D01*
Y1393554D01*
X198141Y755309D02*
Y760387D01*
Y757848D01*
X182906D01*
X185446Y755309D01*
Y768005D02*
X182906Y770544D01*
Y775623D01*
X185446Y778162D01*
X195602D01*
X198141Y775623D01*
Y770544D01*
X195602Y768005D01*
X185446D01*
Y783240D02*
X182906Y785779D01*
Y790858D01*
X185446Y793397D01*
X187985D01*
X190524Y790858D01*
X193063Y793397D01*
X195602D01*
X198141Y790858D01*
Y785779D01*
X195602Y783240D01*
X193063D01*
X190524Y785779D01*
X187985Y783240D01*
X185446D01*
X190524Y785779D02*
Y790858D01*
X198141Y798475D02*
X195602D01*
Y801014D01*
X198141D01*
Y798475D01*
X185446Y811171D02*
X182906Y813710D01*
Y818789D01*
X185446Y821328D01*
X195602D01*
X198141Y818789D01*
Y813710D01*
X195602Y811171D01*
X185446D01*
Y826406D02*
X182906Y828945D01*
Y834024D01*
X185446Y836563D01*
X195602D01*
X198141Y834024D01*
Y828945D01*
X195602Y826406D01*
X185446D01*
M02*
