M48
;Layer_Color=9474304
;FILE_FORMAT=4:4
METRIC,LZ
;TYPE=PLATED
T1F00S00C0.3000
T2F00S00C0.4000
T3F00S00C0.5000
T4F00S00C0.9000
T5F00S00C1.0000
T6F00S00C1.1000
T7F00S00C1.1176
T8F00S00C1.5240
T9F00S00C1.7000
T10F00S00C3.2000
T11F00S00C3.3020
%
T01
X0038Y00294
X00393Y00338
X00525Y00367
X00528Y00295
X00627Y00294
X00904Y003
X0102Y00314
X01124Y00324
X01181Y00327
X01343Y0034
X0145Y00356
X01589Y00372
X01755Y0052
Y00649
X01597Y00758
X01472Y00757
Y00654
X0147Y00547
X01451Y00438
X01117Y00574
X00953Y00571
X00787Y0057
X00619Y00574
X00614Y00454
X00436Y00401
X00483Y00573
X00419Y00694
Y00702
X0040775
X00332Y00691
X0032325Y0068475
X00332Y00643
X00346
X0033Y0057
X0037125Y0056625
X00243Y00621
X00242Y00469
X00247Y00937
X00376Y00996
X00386Y01058
X00326Y01167
X00247Y0118
X00433Y01113
X00468Y0109
X00478Y01039
X00458Y00987
X0042Y00957
X00551Y00878
X00679Y00845
X00722Y00846
X00525Y01186
X00958Y01124
X00899Y01008
X00921Y00865
X01084Y00867
X01486Y00906
X01494Y0099
X01435Y00999
X01556Y0115665
Y0116415
Y0117165
Y0117915
Y0118665
X01566
Y0117915
Y0117165
Y0116415
Y0115665
X01576
Y0116415
Y0117165
Y0117915
Y0118665
X01752Y01102
X01306Y01255
X01083Y01277
X00936Y01294
X00849Y01237
X00618Y01246
X00494Y0121
X00439Y01215
X00407Y01305
T02
X0030925Y0062575
X0087225Y008185
X00904Y0085525
X01387Y009575
X01399
X01462Y01009
X0154525Y010485
X01573Y01097
X01519558Y01181442
X01408516Y01167362
X01623Y01165
X01639Y01149
X01652Y01138
X01614Y01196
X01589Y01214
X01554Y01212
X01407Y01213
X008155Y01233
X008025Y012335
X008035Y0129525
X0082075
X0079325Y0124
X0078025Y01215
T03
X00312Y003225
X0059975Y0035775
X01203461Y004695
X01244981
X0121475Y006535
X0122975Y0068125
X0122525Y0071675
X0119755
X01255Y00717
X01284
X01319Y00689
X01335
X01319Y00672
Y00656
X01303
X01304Y00638
X01336
Y00655
X0116325Y006545
X0116985Y0071675
X0114215
X0111445
X0108675
X0105905
X0103135
X0100365
X0097595
X0094825
X0092055
X0089285
X0086515
X0083745
X0080975
X0084Y006545
X0089325
X00911Y0068025
X0088825Y007625
X00864
X0100275Y006545
X0105425Y00654
X0107475Y006805
X01078904Y004695
X01037384
X00995865
X00954346
X00912827
X00871308
X00851Y00455
X0085075Y0043275
X00829788Y004695
X01008Y00436
X01120423Y004695
X01161942
X007845Y00433
X00726Y0042575
X0072725Y00448
X0074675Y004695
X0072825Y0065525
X00746Y00681
X0075435Y0071675
X0072665
X0069895
X0067125
X0066Y00682
X006785Y0077025
X0069275Y007575
X0070575Y0077025
X006095Y0078575
X00585
X0055275Y0066175
X0045925Y0067725
X0078205Y0071675
X003Y00847
X0027275Y0105625
X00255Y01132
X00264Y01146
X0035825Y011065
X0038825
X0045225Y011185
X00464Y011495
X0044
X0041875Y0115625
Y0106
X0044275Y01054
X00536Y01062
X005565Y0106075
X0055625Y0097525
X005145Y0097225
X004675Y009535
X00468Y0092725
X0041375Y0089975
X0050225Y00796
X0055025Y00824
X00597Y0081225
X006985Y0088075
X007225Y0088025
X0072175Y00923
X0069925
X0069075Y009015
X005635Y011675
X0084175Y0114725
X0085825Y01147
X0087475Y011465
X0091Y0116
Y0118
X0093Y0119
Y0117
X0095Y0118
Y0116
X00951Y00962
Y00942
Y00922
Y00902
X00931Y00912
Y00932
Y00952
Y00972
X00911Y00962
Y00942
Y00922
Y00902
X008745Y00888
X008565
X00839Y0088775
X0088625Y00823
X0088625Y0081075
X00891Y00962
X0141225Y009735
X0142225
X01422Y0094125
X01412Y00941
X01456Y00944
X01471
Y00962
X01456
X0148Y00953
X01508
X01523
Y00968
X01538
Y00983
X01553
Y00968
Y00953
X01538
Y00998
X01553
X01523
Y00983
X01508
Y00968
Y00998
X01536Y01083
X01545Y01091
X01558
Y01075
X01545
X01558Y01115
X01528Y0113
X01493
X01458
X01431Y01131
X01436Y01142326
X01409Y01152
X01391Y01145
X01388Y01173
X01593Y01115
X01628
X01663
X01668Y0115
X01688Y01135
Y01165
Y01183
X01694Y0103
X01679
X01664
X01649
X01634
X01619
X01604
Y01015
Y01
X01589
Y01015
Y00985
Y0097
Y00955
Y0094
Y00925
Y0091
X01604
Y00925
Y0094
Y00955
Y0097
Y00985
X01709Y0103
X01724
X01739
X01754
X01666Y01207
X01628Y0124
X01598
X01563
X01528
Y01225
X01493Y0124
X01458
X01473Y01225
X01423Y0124
X01388Y01235
Y01204
X0095Y012
Y0122
X0093Y0121
Y0123
X0091Y0122
X0089
X0091Y012
X00796Y01196
X0059125Y01319
T04
X003953Y00361
X004207
X004793
X005047
X00955Y0037
Y003954
X01061Y00395
Y003696
X011992Y00565
X012246
X0125
X0109
X010646
X010392
X0093
X009046
X008792
X00955Y004208
X01061Y004204
X00765Y00565
X007396
X007142
X005427Y01235
X005173
X004522
X004268
X003607
X003353
T05
X0066125Y0039625
X01132Y00773
X01156Y00757
X01157Y00788
X01182Y00773
X006485Y0075625
X0049825Y0075375
X00445Y00755
Y0078
Y0073
X00551Y00564
X006485Y0048575
X003475Y0114825
X00481Y00991
X0052Y00895
X00545
X0057
Y0087
Y00845
X0049825Y008445
X004935Y0080975
X00445Y00805
Y0083
Y00855
Y0088
X00645Y00819
X00785Y00855
X007725Y011825
X01129Y0104
Y0101
Y0098
Y0095
X01154Y00965
Y00995
Y01025
X01179Y0104
Y0101
Y0098
Y0095
X01182Y00863
Y00833
Y00803
X01157Y00818
Y00848
Y00878
X01132Y00863
Y00833
Y00803
X0121Y00818
X01169Y01235
X00664Y01267
T06
X00642Y00896
X00652Y00926
X00682
Y00956
X00652
X00642Y00986
X00652Y01112
Y01142
X00682
Y01112
X00692Y01082
Y01172
T07
X0086225Y009101
Y009355
Y009609
X00861Y0116685
Y0119225
Y0121765
T08
X004Y00533
X00475
X01098Y01022
Y01097
T09
X00627Y00921
Y00961
X00667Y009735
X007145Y009785
Y009535
Y009035
X00667Y009085
X00667Y010945
X00707Y01107
Y01147
X00667Y011595
X006195Y011645
Y011145
Y010895
T10
X0025Y003
X0075
X0125Y0035
X0175Y004
X0025Y008
X01
X0175
Y012
X0125Y0125
X0075Y013
X0025
T11
X0102251Y009355
X0102126Y0119225
M30
