M48
;Layer_Color=9474304
;FILE_FORMAT=4:4
METRIC,LZ
;TYPE=PLATED
T1F00S00C0.2500
T2F00S00C0.3000
T3F00S00C0.3500
T4F00S00C0.4064
T5F00S00C0.5000
T6F00S00C0.7112
T7F00S00C0.8000
T8F00S00C0.9000
T9F00S00C0.9500
T10F00S00C1.0000
T11F00S00C1.7000
T12F00S00C2.3000
T13F00S00C3.2000
%
T01
X003785Y002855
X005415Y002835
X0058925Y0033875
X0064Y00366
X00672Y0033975
X0070925Y0036875
X007635Y0037225
X004455Y0039575
X00804Y0038225
X007985Y0034475
X0083425Y0035025
X0087225Y0036125
Y0037125
X0088525
X00885Y0039675
X0087225
Y0038575
X00914Y0037925
Y0037
Y00361
X009485Y003635
X0104875
X0109375Y003575
X0112275Y0031575
X011565Y003955
X0087475Y0031425
X008925Y0028475
X01199Y0038225
X0128475Y0038425
X01314875Y0037425
X01347188
X013525Y003525
X013795Y0037425
X01411812
X01444125
X0145075Y00388
X0146425Y003805
X01476072Y00374268
X0147675Y0038825
X014895Y003795
X0150875Y0037425
X01541062
X0154375Y0035275
X01573375Y0037425
X01429Y003555
X0142925Y003415
X01605687Y0037425
X01638
X01634Y00358
X01670312Y0037425
X01702625
X017025Y0039175
X0166325Y004045
X016895Y00433
X0171325Y0043575
X01743Y0045125
Y00478295
Y00505341
Y00532386
Y00559432
Y00586477
Y00613523
Y00640568
Y00667614
Y00694659
Y00721704
X01728Y00749
X0170775Y007695
X0168595Y0078275
X0166465
X0164335
X0162205
X0160075Y0078275
X0166225Y007295
X016395Y007055
X01638298Y00658929
X0165275Y0066025
X0168825Y006595
Y006445
Y006295
Y006145
Y005995
Y005845
X016805Y0057
X0168825Y005545
Y005395
Y005245
Y005095
Y004945
X01688Y0047975
X016395Y004825
X0161625Y0048625
X016165Y0047375
X0161675Y0050525
X016065Y0050325
X0159875Y0049575
X01591Y00503
X0161Y00522
X0162225
X01629224Y00514329
X0163725Y0052075
X01646Y00523
X016455Y005105
X0164575Y00536
X0164658Y00547027
X0163725Y00554
X01627079Y00549027
X01611Y0054925
X01593Y00549
X015935Y00591
X016115Y0059125
X01629Y00591
X0164575Y0059
X016455Y0060325
Y0061725
Y00631011
X01635666Y00622793
X01627536Y00630924
X0161875Y00623
X016145Y0064225
X01617332Y00658716
X0161725Y0066925
X016875Y0070525
X0177225Y0064225
X017705Y00513
X016535Y0057025
X016365Y0058075
X0163675Y0043325
X015805Y00434
X0153
X014745Y004305
X01451Y0043275
X0142325Y0043025
X014235Y004045
X013955Y0040475
X01384Y00405
X01369
X01354
Y0042
Y00435
Y0045
X01354Y004655
X01354Y0048
Y00495
X01354Y005075
X01354Y0052
Y00535
X013585Y0054475
X01354Y0055
Y00565
X01356031Y00577
X01339625
X01323219
X01306812
X01290406
X01274
Y00565
Y0055
Y00535
Y0052
X01279Y005075
X01264
X01249
X01234Y0051
Y00525
Y0054
Y00555
Y0057
Y00585
X01249
X012665
X01275Y0063025
X01252875
X0123075
X012125Y00641
X01213Y0061625
Y005978
Y0057935
Y005609
X012175Y0054245
X01218Y00524
X01191Y00523
X01198Y0050425
X012015Y004875
X012165
X01234Y0045
Y0042
Y00405
X012195Y0040475
X012035Y004045
X01249Y00405
X01264
X01279
X01294
X01309
X01324
X01339
X01338Y004655
X01322
X01306
X0129
X01274
Y0048
Y00495
X01294Y005075
X01309
X01324
X01339
X01369
X01384
X013955Y0049475
Y0047975
Y0046475
X01395Y0044975
X013955Y0043475
Y0041975
X014125Y00467
X01413Y0048675
X0143075Y0050075
X0144575Y004995
X0146125Y0050225
X0147Y004865
X0148175Y00486
X01491Y0050375
X0150325Y00504
X015055Y0052675
X014905
X0149025Y0053975
X014955Y005515
X0145875Y005525
X0144225
X01433929Y00538301
X01419263Y00538117
X0142475Y00529
X0141075Y0053125
X01404Y0053925
X013915Y0054075
X01388844Y00577
X01372437
X0140525
X0140725Y0059
X01423Y0059025
X014405Y0059
X0145825Y0059025
X0147725Y0058975
X0148725Y0059075
X01502Y005905
X0154825Y005975
X01543Y0064375
X01480964Y00662964
X0144825Y0066475
X014555Y0068675
X01461Y00643
X01433458
X01405917
X01378375
X013755Y0066475
X01350833Y00643
X01323292
X0129575
X013005Y0066525
X013235Y0068675
X0132025Y006125
X01379
X0144175Y00612
X0144375Y0052975
X0145625Y005245
X0146525Y00534
X0153275Y0052725
X0155225Y005255
X0157225
X0158575Y0052525
X01575Y00504
X01551Y0050325
X01525Y0049925
X0154725Y00543
X0158625Y0049
X0143225Y004665
X014345Y00449
X01274Y0045
Y00435
Y0042
X0128725Y00543
X01305
X0132275
X013405
X01192Y0055175
X01195Y0057275
X011945Y0062375
X0120875Y0070475
X012295Y0074775
X012285Y007765
X0122125Y00785
X012475Y0076375
X013255Y007925
X0152225Y00735
X01540857Y00722857
X01520893Y00702893
X01500928Y00682929
X015835Y00693
X01560821Y00742821
X01580786Y00762786
X0118525Y007665
X011845Y0075675
X0118525Y007435
X0118675Y0077675
X010655Y007805
X0106525Y0075675
X0106925Y0073175
X0107075Y0070925
X01070375Y00688042
X010555Y00673333
X01040625Y00658625
X0102575Y00643917
X0101175Y0063075
X009927
X0097365
X009546
X0093555
X009165Y0063
X00901625Y00614542
X0088675Y00599833
X00871875Y00585125
X00857Y00570417
X00842125Y00555708
X0082725Y00541
X008105Y005245
X008135Y005735
X00828375Y00588208
X0084325Y00602917
X00858125Y00617625
X00873Y00632333
X00887875Y00647042
X0090275Y006625
X009218
X0094085
X009599
X0097895
X00998
X010095Y0067375
X010195Y006855
X0102Y00705
Y0072425
X01044Y00717
Y007075
X0103325Y0074975
X010335Y0077075
X0093225Y0069875
X008635Y0072175
X00864792Y00740286
X0086225Y007655
X0084525Y0076625
X00832Y007525
X00813Y0069675
X00798Y0060225
X0092575Y00603
X0097625Y006055
X0101625
X01056Y005335
X011155Y0052125
X011025Y0049725
Y00487855
Y0047825
X01139Y0045375
X0115225Y004535
X0116475Y0046725
X0118825Y004875
X0117325Y0050725
X01167998Y00557248
X01165Y0057125
X0116Y0062825
X01106Y0057725
X01138Y0042275
X011525Y00423
X0117325Y0040725
X0118725Y0041575
X009895Y0045425
X009545Y005335
X0085975Y0048475
X0086775Y0045775
X0084775Y00444
X0082175Y0040625
X0080925Y00418
X0080025
X0091775Y0040025
X007685Y0039925
X0076825Y0044525
X007255Y005
X0075475Y005495
X00778586Y00548635
X0072275Y0060175
X0063775Y006285
X0060625Y00673
X0060425Y0070425
X006045Y007575
X0063025
X006345Y0073525
X00672Y00773
X007205Y0077625
X00779Y0075025
X007735Y007095
X00774Y0069675
X007815Y00662
X005955Y005885
X00625Y005585
X0051325Y0055875
X0053875Y0053275
X0056475Y0047
X0050825Y004695
X0045175Y00468
X0047075Y004245
X0052375Y00421
X0060225Y0044225
X0062425
X006245Y003975
X00602Y0039775
X004235Y0050925
X0042225Y0063725
X0047525Y0063775
X0051775Y0069975
X0054925Y0072225
X0043075Y00699
X00233Y006635
X00232Y0055525
X002345Y004345
X003935Y0046525
X002335Y0094575
X0023125Y0107375
X0046325Y01068
X00487
X0048425Y010835
X00504025Y01107804
X00528Y01108
X005525Y011035
X00558Y01115
X0058575Y0110975
X0061
X0064625Y0111625
X006465Y0113875
X00647Y011565
X0067Y0115575
X0067025Y0111625
X007235Y01116
X00747Y011165
X00648Y01078
X006355Y010405
X0059425Y0106125
X0056425Y0103175
X00543Y00938
X00486Y0095625
X00633Y0093525
X006305Y009245
X0063825
X006305Y00864
X00602Y0086375
X006045Y008105
X0063025
X0069025Y0081325
X0069Y0080675
X0071875Y00807
Y0081375
X00758Y00812
X007665Y00856
X00759Y0086525
X00753Y0088825
X0074575Y008975
X0073525Y009095
X0071825Y00908
X0071925Y0092475
X0071125
X007335Y009325
X0071825Y0088575
Y0086575
X0069225Y00872
X0069175Y0088625
X00692Y0090825
X00705Y00843
X007865Y00993
X0058975Y0113675
X0056Y01149
X00528276Y01151056
X00506Y0115125
X0050525Y01134
X0048275Y0116825
X0045025Y0118175
X00821Y0117825
X00844Y0118275
X0086725Y0111575
X0083725Y01075
X008115Y0100025
X0080925Y00973
X007985Y00983
X0080325Y00936
X008005Y0087075
X007965Y008225
X0079725Y00812
X009085Y0079875
X009415Y008755
X0096025Y008885
X00972Y0088717
X0098225Y008865
X0099075Y0089625
X010025Y008975
X0102505Y00900794
X010185Y0090875
X0103275Y00891
X0104125
X010505
X0105725Y0088475
X01058552Y00901044
X01067Y00905
X010715Y009225
X01069552Y00930045
X010725Y00938
X01072802Y00945546
X0106225Y00949
Y0096205
X01054Y0096825
Y009555
X01072Y0097875
X01068Y0099375
X01101554Y01000549
X011085Y0097525
X0112275Y009755
X0115475Y00983
X0116875Y0100175
X0117575Y0095475
X01183Y0088625
X01128
X0113Y0087375
X0111975Y008775
X01105Y0089525
X01109Y0091475
X0112925Y009035
X010725Y00854
X0106075Y00843
X010655Y0081925
X0108175Y0081875
X01083Y0080125
X0103Y0084975
X010185
X0100375Y0085025
X009675Y0094525
X010075Y0098325
X0101675Y0097925
X0102575Y009805
X010075Y0100275
X0099475Y0099975
X010015Y01042
X009935Y0104975
X009865Y0105875
X0097725Y010685
X00922795Y01051301
X0092675Y0103625
X009285Y01022
X009205Y01004
X0088175Y00973
X008935Y0096025
X01035051Y01038301
X01047Y01039
X0105575Y0105025
X0108925Y0102575
X01123Y0107225
X0113825Y011475
X011905Y0114125
X0118Y0116975
X0118975Y0110025
X0110925Y011845
X0104Y01154
X01021
X01011Y01142
X01007Y01118
X0099825Y01169
X01048Y01142
X01203Y01165
X01226Y011645
X012675Y0115375
X0126725Y011785
X0129775Y01178
X0129825Y0112925
X0134625Y0114275
X013465Y0111
X01346Y0107675
Y01043
Y01009
X013465Y00975
X0135675Y00931
X0133225Y00893
X01296Y0086425
X0130875Y008325
X012565Y0083325
X01256Y0081075
X01214Y0084275
X01201Y008305
X0121375Y008835
X0121325Y0089725
X012135Y0093825
X012055Y0095175
X01205Y0098
X0121875Y010715
X0127025Y0109175
X0127475Y0105525
X013945Y01067
X0140325Y010675
Y010835
Y010995
X0139475Y011005
X0140325Y0111625
X014035Y01133
X013945
X01428Y0116975
X0151675Y0118375
X015445Y0116525
X0156275Y0118975
X015735Y0114275
X01538Y0104375
X0151925Y0103875
X0152425Y01055848
X01493Y0107375
X0140425Y010505
X0140375Y010345
X0139425Y01033
X0140425Y010185
X01404Y01002
X013945Y0099875
X0140475Y0098525
Y0097125
X0139375Y0096525
X0140475Y0095275
X015135Y009665
X0149775Y0090825
X0150075Y008565
X0147775Y008675
X01478Y0084325
X0145075Y0079375
X01586Y0080025
X01565Y0090475
X0157675Y0094775
X01263Y00898
X0161725Y009245
X01617Y0095475
X016042Y00955
X0159175Y0095525
X016665Y0094575
X0176325Y0090425
X017655Y0100825
X0176675Y01092
X0166575Y0114
X0161625Y01141
X015905Y011415
X01604Y0107875
X016355Y012355
X0166225Y012095
X01675Y0119775
X0157075Y0120425
X0153475Y012425
X0150125Y0124725
X0142925Y0125925
X014115Y0124225
X0138425Y012595
X013495Y0125975
X0133025Y0124175
X01304Y0126025
X0134525Y01202
X014265Y0120125
X01226Y011915
X011915Y0127875
X011435Y0128525
X01092Y012745
X01052Y0129425
X010075Y0126525
X009825Y0120825
X009515Y0130275
X0085475Y0131225
X008425Y012665
X00844Y0122375
X008095Y0123175
X0088Y012365
X007735Y0126075
X0071775Y01237
X006515Y0123825
X0058175Y0123875
X0059225Y01269
X0055625Y0126825
X005015Y0126875
X0048475Y0132075
X0041625Y01269
X0044975Y0121425
X00609Y0132125
X003855Y013195
X003865Y01235
X0032275Y0126825
X0026575Y012345
X0023175Y01202
T02
X00257Y0119
T03
X00281Y010955
Y01103
Y011105
X00291
Y01103
Y010955
X00301
Y01103
Y011105
T04
X01169Y00422423
Y00452423
T05
X010465Y003005
X010585Y00300833
X0105275Y0031225
X010645Y00312
X0104075
X0122575Y0064875
X0124175
X012415Y00661
X012405Y00678
X0124075Y00691
X0122575
X01277Y006905
X0127725Y0067775
X0127775Y0066125
X01278Y006485
X0110925Y0073275
X01095Y00747
X01081
Y00765
X0111Y0077825
X0112425Y00789
X011304Y0077325
Y0075675
X0098725Y0073375
X00975
X0095825Y00734
X0094625Y0073425
Y0069825
X00946Y0068625
X0095825Y00698
X00975Y0069775
X0098725Y00698
Y00686
X007345Y0066425
X0073425Y006535
X00734Y00643
X0065325Y0065625
X0064325Y0066825
X0045Y00725
Y0074
Y00755
Y0077
Y00785
X004375Y007775
Y007625
Y007475
Y007325
Y007925
X003675Y00955
Y0097
X003525
Y00985
X003675
X003525Y01
Y01015
Y0103
Y00955
X003375
X002525Y01095
Y0111
X004275Y01065
X004425
Y0105
X004275
Y01
X004425
Y00985
X004275
Y0097
X004425
Y00955
X004275
X004375Y008675
Y008525
Y008375
Y008225
Y008075
X0045Y00815
Y0083
Y00845
Y0086
Y00875
Y008
X0065625Y00974
X006565Y00987
X00656Y010075
X0065625Y010205
X006905Y0102075
Y01008
X0069Y0098675
X0069025Y00974
X0070575
X00721
Y0098675
X007215Y01008
X0072175Y0102075
X0073575Y01021
X0070625Y0102125
X0073675Y0097425
X0067325Y00974
X00828Y01002
Y01014
X0082775Y0103075
X008275Y01044
X008475Y0104425
X008685
X008885
X00843Y01002
X00834Y00882
X00818
Y00871
X0081775Y0085075
X008175Y008385
X0083425Y0083875
X008495
X00867Y00839
X0088375
X009015Y0083925
X0091975Y008395
Y0085125
X011095Y0082125
X01123805Y0082054
X011245Y008045
X011095Y007995
X0116475Y0101575
X0118275
X011825Y0102825
X0117825Y0104575
X01189
X0118875Y0105775
X01178
X0116475Y010575
X011465Y01057
X0113175
X01103304Y01089553
X0110325Y0110625
X01103Y0112925
X0110275Y01144
X011025Y0115625
X010895
Y0114375
X01073Y01149
X0106
Y01134
X009905Y0113625
X0099065Y01147
X009785
X00961Y0115225
X00949Y01152
X0094925Y01139
X009905Y01123
Y0110475
Y0109025
X012515Y0101325
X012655Y01013
X0126525Y0100125
X012655Y009845
X0126575Y0097275
X0125125Y009725
X01303
Y009845
X0130275Y0100125
X013025Y010135
X0129825Y008455
X0132925Y008335
X0139925Y0086725
X01412Y0088175
X01663Y01016
X01677Y01004
X009465Y0123175
X0094625Y0124475
X0093425
X0092175Y0124425
Y0123175
X009085Y01232
Y01245
X0089675Y0124475
X00912Y0122075
X0093375Y0125775
T06
X0027925Y01197
T07
X004075Y00445
X004275
X004475
X004675
X004875
X005075
X005275
X005475
X005675
Y00665
X005475
X005275
X005075
X004875
X004675
X004475
X004275
X004075
X003875
Y00445
T08
X003138Y00361
X003392
X003953Y00361
X004207
X004763Y0036025
X005017
X005763Y003585
X006017
X006603Y00359
X006857
X008233Y00368
X008487
X01466886Y00956236
Y00981636
Y01007036
Y01032436
Y01057836
Y01083236
Y01108636
Y01134036
X011558Y012075
X011304
X01105
X010796
X010542
X010288
X0072475Y0119275
X0069935
X0067395
X0064855
X005912Y011925
X005658
X005404
X00515
Y01235
X005404
X006048
X006302
X004522
X004268
X00361
X003356
T09
X007955Y00513
Y00538
Y00558
Y00583
T10
X00926Y003145
X00847Y00507
X008925Y00731
X00892Y007805
X0093875Y0077325
X0083375Y0077975
X00794Y0078
X0104225Y0061575
X0108325Y00616
X0112575Y0061625
X0074875Y0069175
Y007315
X0074725Y0077175
X0034225Y0086425
X004235Y0090125
X0051625Y0093275
X004425Y01025
X006285Y011722
X00771Y0114
Y01051
X00809Y01076
X00811Y0114
X008945Y011855
X009415
X008855Y010835
X012345Y00804
X0127625Y00801
X01384Y0084625
X0156625Y0100825
T11
X0163795Y00409
X0166335Y004344
X0168875Y004598
X0163795
X0168875Y00409
Y0068
X0166335Y007054
X0168875Y007308
X0163795
Y0068
X01572807Y00595139
X01547407Y00569739
X01522007Y00595139
Y00544339
X01572807
T12
X007685Y004823
Y006137
T13
X0025Y003
X005565Y0039675
X0075Y003
X0125Y0035
X0175Y004
X006775Y00418
Y0072
X0039625Y007125
X0030675Y00605
Y00491
X003235Y00418
X0025Y008
X01
X0175
Y012
X0125Y0125
X0075Y013
X0025
M30
