M48
;Layer_Color=9474304
;FILE_FORMAT=4:4
METRIC,LZ
;TYPE=PLATED
T1F00S00C0.4000
T2F00S00C0.6000
T3F00S00C2.3000
%
T01
X002925Y0055
X00304Y0055025
T02
X002995Y003385
X0029975Y00362
X003025Y0039425
X00522Y0039575
X0052375Y00363
X00578Y0033
X00615Y00395
X0057825Y004165
X0057975Y00458
X0058025Y0049775
X0058175Y0053825
X0058125Y0056025
X0057975Y005905
X0052125Y00517
X0052275Y00477
X0052375Y0043625
X0035725Y00454
X003575Y004955
Y0053725
X003565Y0057
X00288Y0059425
X00305Y005165
X0030325Y00476
Y004345
T03
X003Y00295
X0045Y00675
X0055
X006Y0065
X003
M30
