M48
;Layer_Color=9474304
;FILE_FORMAT=4:4
METRIC,LZ
;TYPE=NON_PLATED
T17F00S00C2.0000
%
G90
G05
T17
G00X003225Y00296
M15
G01X003305
M16
G00X00404Y00296
M15
G01X00412
M16
G00X00485Y0029525
M15
G01X00493
M16
G00X00585Y002935
M15
G01X00593
M16
G00X00669Y00294
M15
G01X00677
M16
G00X00832Y00303
M15
G01X0084
M16
G00X006215Y013
M15
G01X006135
M16
G00X005317Y013
M15
G01X005237
M16
G00X004435Y013
M15
G01X004355
M16
G00X003523Y013
M15
G01X003443
M16
M17
M30
