G04 Layer_Color=128*
%FSLAX44Y44*%
%MOMM*%
G71*
G01*
G75*
%ADD10R,1.0160X1.1176*%
%ADD13R,1.1176X1.0160*%
%ADD22R,1.0000X1.0000*%
%ADD33R,0.8000X1.0000*%
%ADD48C,0.4000*%
%ADD75R,0.8128X0.8128*%
%ADD76R,1.0000X5.0000*%
%ADD77R,0.8000X2.0000*%
%ADD78R,2.2900X3.5000*%
D10*
X458364Y625500D02*
D03*
X475500D02*
D03*
X404864Y623750D02*
D03*
X422000D02*
D03*
X1489136Y675500D02*
D03*
X1472000D02*
D03*
D13*
X709250Y337614D02*
D03*
Y354750D02*
D03*
X467250Y545864D02*
D03*
Y563000D02*
D03*
X413500Y546114D02*
D03*
Y563250D02*
D03*
X386500Y1268386D02*
D03*
Y1251250D02*
D03*
X473000Y1269386D02*
D03*
Y1252250D02*
D03*
X1598750Y503114D02*
D03*
Y520250D02*
D03*
D22*
X1616250Y515750D02*
D03*
Y532750D02*
D03*
D33*
X460250Y603250D02*
D03*
X473250D02*
D03*
X466750Y587250D02*
D03*
X407000Y602750D02*
D03*
X420000D02*
D03*
X413500Y586750D02*
D03*
D48*
X800000Y260000D02*
X1790000Y360000D01*
Y1240000D01*
X210000Y260000D02*
X800000D01*
Y1340000D02*
X1790000Y1240000D01*
X210000Y1340000D02*
X800000D01*
X210000Y260000D02*
Y1340000D01*
D75*
X664872Y326000D02*
D03*
X681000D02*
D03*
X581122Y326500D02*
D03*
X597250D02*
D03*
X827372Y335000D02*
D03*
X843500D02*
D03*
X338872Y1268500D02*
D03*
X355000D02*
D03*
X517622Y1268750D02*
D03*
X533750D02*
D03*
X607372D02*
D03*
X623500D02*
D03*
X430872Y1269000D02*
D03*
X447000D02*
D03*
D76*
X1556500Y1143500D02*
D03*
X1516500D02*
D03*
Y1223500D02*
D03*
X1556500D02*
D03*
D77*
X1360500Y1260000D02*
D03*
X1330500D02*
D03*
X1315500D02*
D03*
Y1202000D02*
D03*
X1330500D02*
D03*
X1360500D02*
D03*
X1441000Y1251000D02*
D03*
X1411000D02*
D03*
X1396000D02*
D03*
Y1193000D02*
D03*
X1411000D02*
D03*
X1441000D02*
D03*
D78*
X926000Y337500D02*
D03*
X951400D02*
D03*
X976800D02*
D03*
X1002200D02*
D03*
X1027600D02*
D03*
X1053000D02*
D03*
Y571500D02*
D03*
X1027600D02*
D03*
X1002200D02*
D03*
X976800D02*
D03*
X951400D02*
D03*
X926000D02*
D03*
M02*
