G04 Layer_Physical_Order=2*
G04 Layer_Color=36540*
%FSLAX44Y44*%
%MOMM*%
G71*
G01*
G75*
%ADD48C,0.4000*%
%ADD56C,7.0000*%
%ADD57C,4.0000*%
%ADD59C,1.5000*%
%ADD60C,2.0000*%
%ADD61C,0.8000*%
%ADD62C,0.8130*%
%ADD63C,2.8000*%
%ADD64O,1.5000X2.5000*%
%ADD66C,1.7000*%
%ADD70O,1.5000X2.5000*%
%ADD71C,4.5000*%
%ADD72C,0.6000*%
%ADD73C,1.0000*%
%ADD74C,1.2700*%
G36*
X1383375Y1266973D02*
X1383448Y1265458D01*
X1381909Y1265152D01*
X1379924Y1263826D01*
X1378598Y1261841D01*
X1378132Y1259500D01*
X1378598Y1257159D01*
X1379924Y1255174D01*
X1381909Y1253848D01*
X1384250Y1253382D01*
X1386591Y1253848D01*
X1388576Y1255174D01*
X1389902Y1257159D01*
X1390367Y1259500D01*
X1389902Y1261841D01*
X1388576Y1263826D01*
X1386591Y1265152D01*
X1386890Y1266619D01*
X1775372Y1227500D01*
Y370000D01*
X1707683Y363457D01*
X1707003Y364898D01*
X1711552Y369448D01*
X1712105Y370275D01*
X1712299Y371250D01*
Y417194D01*
X1732306Y437201D01*
X1744500D01*
X1745475Y437395D01*
X1746302Y437948D01*
X1754552Y446198D01*
X1755105Y447025D01*
X1755299Y448000D01*
Y736000D01*
X1755105Y736975D01*
X1754552Y737802D01*
X1700052Y792302D01*
X1699225Y792855D01*
X1698250Y793049D01*
X1591750D01*
X1590775Y792855D01*
X1589948Y792302D01*
X1453194Y655549D01*
X1295500D01*
X1294525Y655355D01*
X1293698Y654802D01*
X1286449Y647553D01*
X1285028Y648254D01*
X1285060Y648500D01*
X1284820Y650327D01*
X1284115Y652030D01*
X1282993Y653492D01*
X1282298Y654026D01*
X1282228Y655854D01*
X1282236Y655869D01*
X1282742Y656258D01*
X1283864Y657720D01*
X1284570Y659423D01*
X1284810Y661250D01*
X1284570Y663077D01*
X1283864Y664780D01*
X1282742Y666243D01*
X1281280Y667365D01*
X1279577Y668070D01*
X1277750Y668310D01*
X1275923Y668070D01*
X1274220Y667365D01*
X1272758Y666243D01*
X1271636Y664780D01*
X1270930Y663077D01*
X1270690Y661250D01*
X1270930Y659423D01*
X1271636Y657720D01*
X1272758Y656258D01*
X1273452Y655724D01*
X1273522Y653895D01*
X1273514Y653881D01*
X1273008Y653492D01*
X1271886Y652030D01*
X1271180Y650327D01*
X1270940Y648500D01*
X1271180Y646673D01*
X1271886Y644970D01*
X1273008Y643508D01*
X1274470Y642385D01*
X1274679Y642299D01*
X1274380Y640799D01*
X1244766D01*
X1244468Y642299D01*
X1245280Y642635D01*
X1246742Y643758D01*
X1247865Y645220D01*
X1248570Y646923D01*
X1248810Y648750D01*
X1248570Y650577D01*
X1247865Y652280D01*
X1246742Y653743D01*
X1246374Y654026D01*
Y655916D01*
X1246492Y656008D01*
X1247615Y657470D01*
X1248320Y659173D01*
X1248560Y661000D01*
X1248320Y662827D01*
X1247615Y664530D01*
X1246492Y665992D01*
X1245030Y667114D01*
X1243327Y667820D01*
X1241500Y668060D01*
X1239673Y667820D01*
X1237970Y667114D01*
X1236508Y665992D01*
X1235386Y664530D01*
X1234680Y662827D01*
X1234440Y661000D01*
X1234680Y659173D01*
X1235386Y657470D01*
X1236508Y656008D01*
X1236877Y655724D01*
Y653834D01*
X1236758Y653743D01*
X1235636Y652280D01*
X1234930Y650577D01*
X1234690Y648750D01*
X1234930Y646923D01*
X1235636Y645220D01*
X1236758Y643758D01*
X1238220Y642635D01*
X1239032Y642299D01*
X1238734Y640799D01*
X1228766D01*
X1228468Y642299D01*
X1229280Y642635D01*
X1230742Y643758D01*
X1231864Y645220D01*
X1232570Y646923D01*
X1232810Y648750D01*
X1232570Y650577D01*
X1231864Y652280D01*
X1230742Y653743D01*
X1229280Y654865D01*
X1227577Y655570D01*
X1225750Y655810D01*
X1223923Y655570D01*
X1222220Y654865D01*
X1220758Y653743D01*
X1219635Y652280D01*
X1218930Y650577D01*
X1218690Y648750D01*
X1218930Y646923D01*
X1219635Y645220D01*
X1220758Y643758D01*
X1222220Y642635D01*
X1223923Y641930D01*
X1223999Y641920D01*
X1224027Y641849D01*
X1224191Y640382D01*
X1223698Y640052D01*
X1202448Y618802D01*
X1201895Y617975D01*
X1201701Y617000D01*
Y552056D01*
X1163448Y513802D01*
X1162895Y512976D01*
X1162701Y512000D01*
Y489056D01*
X1154698Y481052D01*
X1154145Y480225D01*
X1153951Y479250D01*
Y462750D01*
X1154145Y461775D01*
X1154698Y460948D01*
X1155525Y460395D01*
X1156500Y460201D01*
X1157475Y460395D01*
X1158302Y460948D01*
X1158855Y461775D01*
X1159049Y462750D01*
Y478194D01*
X1167052Y486198D01*
X1167605Y487025D01*
X1167799Y488000D01*
Y510944D01*
X1206052Y549198D01*
X1206605Y550024D01*
X1206799Y551000D01*
Y615944D01*
X1226556Y635701D01*
X1280750D01*
X1281725Y635895D01*
X1282552Y636448D01*
X1296556Y650451D01*
X1454250D01*
X1455225Y650645D01*
X1456052Y651198D01*
X1592806Y787951D01*
X1697194D01*
X1750201Y734944D01*
Y449056D01*
X1743444Y442299D01*
X1731250D01*
X1730275Y442105D01*
X1729448Y441552D01*
X1707948Y420052D01*
X1707395Y419226D01*
X1707201Y418250D01*
Y372306D01*
X1702944Y368049D01*
X1291806D01*
X1268302Y391552D01*
X1267476Y392105D01*
X1266500Y392299D01*
X1182306D01*
X1157302Y417302D01*
X1156476Y417855D01*
X1155500Y418049D01*
X1154525Y417855D01*
X1153698Y417302D01*
X1153145Y416475D01*
X1152951Y415500D01*
X1153145Y414524D01*
X1153698Y413698D01*
X1179448Y387948D01*
X1180275Y387395D01*
X1181250Y387201D01*
X1265444D01*
X1288948Y363698D01*
X1289775Y363145D01*
X1290750Y362951D01*
X1686877D01*
X1686950Y361453D01*
X800000Y275717D01*
X245372D01*
X225372Y295717D01*
Y1300717D01*
X250372Y1325717D01*
X800000D01*
X1383375Y1266973D01*
D02*
G37*
%LPC*%
G36*
X892000Y792604D02*
X888867Y792191D01*
X885948Y790982D01*
X883441Y789059D01*
X881518Y786552D01*
X880309Y783633D01*
X879896Y780500D01*
X880309Y777367D01*
X881518Y774448D01*
X883441Y771942D01*
X885948Y770018D01*
X888867Y768809D01*
X892000Y768396D01*
X895133Y768809D01*
X898052Y770018D01*
X900558Y771942D01*
X902482Y774448D01*
X903691Y777367D01*
X904104Y780500D01*
X903691Y783633D01*
X902482Y786552D01*
X900558Y789059D01*
X898052Y790982D01*
X895133Y792191D01*
X892000Y792604D01*
D02*
G37*
G36*
X1228500Y781598D02*
X1226549Y781210D01*
X1224895Y780105D01*
X1223790Y778451D01*
X1223402Y776500D01*
X1223790Y774549D01*
X1224895Y772895D01*
X1226549Y771790D01*
X1228500Y771402D01*
X1230451Y771790D01*
X1232105Y772895D01*
X1233210Y774549D01*
X1233598Y776500D01*
X1233210Y778451D01*
X1232105Y780105D01*
X1230451Y781210D01*
X1228500Y781598D01*
D02*
G37*
G36*
X1276250Y813104D02*
X1273117Y812691D01*
X1270198Y811482D01*
X1267691Y809558D01*
X1265768Y807052D01*
X1264559Y804133D01*
X1264146Y801000D01*
X1264559Y797867D01*
X1265768Y794948D01*
X1267691Y792441D01*
X1270198Y790518D01*
X1273117Y789309D01*
X1276250Y788896D01*
X1279383Y789309D01*
X1282302Y790518D01*
X1284809Y792441D01*
X1286732Y794948D01*
X1287941Y797867D01*
X1288354Y801000D01*
X1287941Y804133D01*
X1286732Y807052D01*
X1284809Y809558D01*
X1282302Y811482D01*
X1279383Y812691D01*
X1276250Y813104D01*
D02*
G37*
G36*
X833750Y791854D02*
X830617Y791441D01*
X827698Y790232D01*
X825191Y788308D01*
X823268Y785802D01*
X822059Y782883D01*
X821646Y779750D01*
X822059Y776617D01*
X823268Y773698D01*
X825191Y771191D01*
X827698Y769268D01*
X830617Y768059D01*
X833750Y767646D01*
X836883Y768059D01*
X838060Y768547D01*
X839375Y767467D01*
X839133Y766250D01*
X839598Y763909D01*
X840924Y761924D01*
X842909Y760598D01*
X845250Y760133D01*
X847591Y760598D01*
X849576Y761924D01*
X850902Y763909D01*
X851367Y766250D01*
X850902Y768591D01*
X849576Y770576D01*
X847591Y771902D01*
X845250Y772367D01*
X845075Y772333D01*
X844229Y773694D01*
X844232Y773698D01*
X845441Y776617D01*
X845854Y779750D01*
X845441Y782883D01*
X844232Y785802D01*
X842309Y788308D01*
X839802Y790232D01*
X836883Y791441D01*
X833750Y791854D01*
D02*
G37*
G36*
X938750Y785353D02*
X935617Y784941D01*
X932698Y783732D01*
X930191Y781808D01*
X928268Y779302D01*
X927059Y776383D01*
X926646Y773250D01*
X927059Y770117D01*
X928268Y767198D01*
X930191Y764691D01*
X932698Y762768D01*
X935617Y761559D01*
X938750Y761146D01*
X941883Y761559D01*
X944802Y762768D01*
X947309Y764691D01*
X949232Y767198D01*
X950441Y770117D01*
X950854Y773250D01*
X950441Y776383D01*
X949232Y779302D01*
X947309Y781808D01*
X944802Y783732D01*
X941883Y784941D01*
X938750Y785353D01*
D02*
G37*
G36*
X794000Y792104D02*
X790867Y791691D01*
X787948Y790482D01*
X785442Y788559D01*
X783518Y786052D01*
X782309Y783133D01*
X781897Y780000D01*
X782309Y776867D01*
X783518Y773948D01*
X785442Y771441D01*
X787948Y769518D01*
X790867Y768309D01*
X794000Y767896D01*
X797133Y768309D01*
X800052Y769518D01*
X802559Y771441D01*
X804482Y773948D01*
X805691Y776867D01*
X806104Y780000D01*
X805691Y783133D01*
X804482Y786052D01*
X802559Y788559D01*
X800052Y790482D01*
X797133Y791691D01*
X794000Y792104D01*
D02*
G37*
G36*
X1234500Y816104D02*
X1231367Y815691D01*
X1228448Y814482D01*
X1225941Y812559D01*
X1224018Y810052D01*
X1222809Y807133D01*
X1222396Y804000D01*
X1222809Y800867D01*
X1224018Y797948D01*
X1225941Y795442D01*
X1228448Y793518D01*
X1231367Y792309D01*
X1234500Y791896D01*
X1237633Y792309D01*
X1240552Y793518D01*
X1243058Y795442D01*
X1244982Y797948D01*
X1246191Y800867D01*
X1246604Y804000D01*
X1246191Y807133D01*
X1244982Y810052D01*
X1243058Y812559D01*
X1240552Y814482D01*
X1237633Y815691D01*
X1234500Y816104D01*
D02*
G37*
G36*
X796500Y827598D02*
X794549Y827210D01*
X792895Y826105D01*
X791790Y824451D01*
X791402Y822500D01*
X791790Y820549D01*
X792895Y818895D01*
X794382Y817902D01*
X794578Y817056D01*
X794609Y816249D01*
X793645Y815605D01*
X792540Y813951D01*
X792152Y812000D01*
X792540Y810049D01*
X793645Y808395D01*
X795299Y807290D01*
X797250Y806902D01*
X799201Y807290D01*
X800855Y808395D01*
X801960Y810049D01*
X802348Y812000D01*
X801960Y813951D01*
X800855Y815605D01*
X799368Y816599D01*
X799172Y817444D01*
X799141Y818251D01*
X800105Y818895D01*
X801210Y820549D01*
X801598Y822500D01*
X801210Y824451D01*
X800105Y826105D01*
X798451Y827210D01*
X796500Y827598D01*
D02*
G37*
G36*
X1329250Y839617D02*
X1326909Y839152D01*
X1324924Y837826D01*
X1323598Y835841D01*
X1323132Y833500D01*
X1323598Y831159D01*
X1324924Y829174D01*
X1326909Y827848D01*
X1329250Y827382D01*
X1331591Y827848D01*
X1333576Y829174D01*
X1334902Y831159D01*
X1335367Y833500D01*
X1334902Y835841D01*
X1333576Y837826D01*
X1331591Y839152D01*
X1329250Y839617D01*
D02*
G37*
G36*
X1384000Y858354D02*
X1380867Y857941D01*
X1377948Y856732D01*
X1375441Y854809D01*
X1373518Y852302D01*
X1372309Y849383D01*
X1371896Y846250D01*
X1372309Y843117D01*
X1373518Y840198D01*
X1375441Y837691D01*
X1377948Y835768D01*
X1380867Y834559D01*
X1384000Y834146D01*
X1387133Y834559D01*
X1390052Y835768D01*
X1392558Y837691D01*
X1394482Y840198D01*
X1395691Y843117D01*
X1396104Y846250D01*
X1395691Y849383D01*
X1394482Y852302D01*
X1392558Y854809D01*
X1390052Y856732D01*
X1387133Y857941D01*
X1384000Y858354D01*
D02*
G37*
G36*
X1214000Y848867D02*
X1211659Y848402D01*
X1209674Y847076D01*
X1208348Y845091D01*
X1207883Y842750D01*
X1208348Y840409D01*
X1209674Y838424D01*
X1211659Y837098D01*
X1214000Y836633D01*
X1216341Y837098D01*
X1218326Y838424D01*
X1219652Y840409D01*
X1220117Y842750D01*
X1219652Y845091D01*
X1218326Y847076D01*
X1216341Y848402D01*
X1214000Y848867D01*
D02*
G37*
G36*
X908500Y804867D02*
X906159Y804402D01*
X904174Y803076D01*
X902848Y801091D01*
X902383Y798750D01*
X902848Y796409D01*
X904174Y794424D01*
X906159Y793098D01*
X908500Y792633D01*
X910841Y793098D01*
X912826Y794424D01*
X914152Y796409D01*
X914618Y798750D01*
X914152Y801091D01*
X912826Y803076D01*
X910841Y804402D01*
X908500Y804867D01*
D02*
G37*
G36*
X630250Y815598D02*
X628299Y815210D01*
X626645Y814105D01*
X625540Y812451D01*
X625152Y810500D01*
X625540Y808549D01*
X626645Y806895D01*
X628299Y805790D01*
X630250Y805402D01*
X632201Y805790D01*
X633855Y806895D01*
X634960Y808549D01*
X635348Y810500D01*
X634960Y812451D01*
X633855Y814105D01*
X632201Y815210D01*
X630250Y815598D01*
D02*
G37*
G36*
X747250Y783854D02*
X744117Y783441D01*
X741198Y782232D01*
X738691Y780309D01*
X736768Y777802D01*
X735559Y774883D01*
X735146Y771750D01*
X735559Y768617D01*
X736768Y765698D01*
X738691Y763192D01*
X741198Y761268D01*
X744117Y760059D01*
X747250Y759646D01*
X750383Y760059D01*
X753302Y761268D01*
X755808Y763192D01*
X757732Y765698D01*
X758941Y768617D01*
X759353Y771750D01*
X758941Y774883D01*
X757732Y777802D01*
X755808Y780309D01*
X753302Y782232D01*
X750383Y783441D01*
X747250Y783854D01*
D02*
G37*
G36*
X863500Y726848D02*
X861549Y726460D01*
X859895Y725355D01*
X858790Y723701D01*
X858402Y721750D01*
X858790Y719799D01*
X859895Y718145D01*
X861549Y717040D01*
X863500Y716652D01*
X865451Y717040D01*
X867105Y718145D01*
X868210Y719799D01*
X868598Y721750D01*
X868210Y723701D01*
X867105Y725355D01*
X865451Y726460D01*
X863500Y726848D01*
D02*
G37*
G36*
X892500Y743104D02*
X889367Y742691D01*
X886448Y741482D01*
X883941Y739558D01*
X882018Y737052D01*
X880809Y734133D01*
X880396Y731000D01*
X880809Y727867D01*
X882018Y724948D01*
X883941Y722441D01*
X886448Y720518D01*
X889367Y719309D01*
X892500Y718896D01*
X895633Y719309D01*
X898552Y720518D01*
X901059Y722441D01*
X902982Y724948D01*
X904191Y727867D01*
X904604Y731000D01*
X904191Y734133D01*
X902982Y737052D01*
X901059Y739558D01*
X898552Y741482D01*
X895633Y742691D01*
X892500Y743104D01*
D02*
G37*
G36*
X748750Y743604D02*
X745617Y743191D01*
X742698Y741982D01*
X740191Y740059D01*
X738268Y737552D01*
X737059Y734633D01*
X736646Y731500D01*
X737059Y728367D01*
X738268Y725448D01*
X740191Y722942D01*
X742698Y721018D01*
X745617Y719809D01*
X748750Y719397D01*
X751883Y719809D01*
X754802Y721018D01*
X757309Y722942D01*
X759232Y725448D01*
X760441Y728367D01*
X760854Y731500D01*
X760441Y734633D01*
X759232Y737552D01*
X757309Y740059D01*
X754802Y741982D01*
X751883Y743191D01*
X748750Y743604D01*
D02*
G37*
G36*
X1044000Y722098D02*
X1042049Y721710D01*
X1040395Y720605D01*
X1039290Y718951D01*
X1038902Y717000D01*
X1039290Y715049D01*
X1040395Y713395D01*
X1042049Y712290D01*
X1044000Y711902D01*
X1045951Y712290D01*
X1047605Y713395D01*
X1048710Y715049D01*
X1049098Y717000D01*
X1048710Y718951D01*
X1047605Y720605D01*
X1045951Y721710D01*
X1044000Y722098D01*
D02*
G37*
G36*
X1663350Y721477D02*
X1660213Y721169D01*
X1657197Y720254D01*
X1654418Y718768D01*
X1651982Y716768D01*
X1649982Y714332D01*
X1648496Y711553D01*
X1647581Y708537D01*
X1647273Y705400D01*
X1647581Y702263D01*
X1648496Y699247D01*
X1649982Y696468D01*
X1651982Y694032D01*
X1654418Y692032D01*
X1657197Y690546D01*
X1660213Y689632D01*
X1663350Y689323D01*
X1666487Y689632D01*
X1669503Y690546D01*
X1672282Y692032D01*
X1674718Y694032D01*
X1676718Y696468D01*
X1678204Y699247D01*
X1679118Y702263D01*
X1679427Y705400D01*
X1679118Y708537D01*
X1678204Y711553D01*
X1676718Y714332D01*
X1674718Y716768D01*
X1672282Y718768D01*
X1669503Y720254D01*
X1666487Y721169D01*
X1663350Y721477D01*
D02*
G37*
G36*
X946250Y705310D02*
X944423Y705070D01*
X942720Y704364D01*
X941258Y703242D01*
X940135Y701780D01*
X939430Y700077D01*
X939190Y698250D01*
X939430Y696423D01*
X940135Y694720D01*
X941258Y693258D01*
X941468Y693096D01*
Y691596D01*
X941008Y691243D01*
X939885Y689780D01*
X939180Y688077D01*
X938940Y686250D01*
X939180Y684423D01*
X939885Y682720D01*
X941008Y681258D01*
X942470Y680135D01*
X944173Y679430D01*
X946000Y679190D01*
X947827Y679430D01*
X949530Y680135D01*
X950992Y681258D01*
X952114Y682720D01*
X952820Y684423D01*
X953060Y686250D01*
X952820Y688077D01*
X952114Y689780D01*
X950992Y691243D01*
X950782Y691404D01*
Y692904D01*
X951200Y693225D01*
X951581Y693468D01*
X952904D01*
X953258Y693008D01*
X954720Y691886D01*
X956423Y691180D01*
X958250Y690940D01*
X960077Y691180D01*
X961780Y691886D01*
X963242Y693008D01*
X964364Y694470D01*
X965070Y696173D01*
X965310Y698000D01*
X965070Y699827D01*
X964364Y701530D01*
X963242Y702992D01*
X961780Y704115D01*
X960077Y704820D01*
X958250Y705060D01*
X956423Y704820D01*
X954720Y704115D01*
X953258Y702992D01*
X953096Y702782D01*
X951596D01*
X951242Y703242D01*
X949780Y704364D01*
X948077Y705070D01*
X946250Y705310D01*
D02*
G37*
G36*
X773500Y714598D02*
X771549Y714210D01*
X769895Y713105D01*
X768790Y711451D01*
X768402Y709500D01*
X768790Y707549D01*
X769895Y705895D01*
X771549Y704790D01*
X773500Y704402D01*
X775451Y704790D01*
X777105Y705895D01*
X778210Y707549D01*
X778598Y709500D01*
X778210Y711451D01*
X777105Y713105D01*
X775451Y714210D01*
X773500Y714598D01*
D02*
G37*
G36*
X1186750Y781848D02*
X1184799Y781460D01*
X1183145Y780355D01*
X1182040Y778701D01*
X1181652Y776750D01*
X1182040Y774799D01*
X1183145Y773145D01*
X1183649Y772809D01*
X1183332Y771216D01*
X1183299Y771210D01*
X1181645Y770105D01*
X1180540Y768451D01*
X1180152Y766500D01*
X1180540Y764549D01*
X1181645Y762895D01*
X1181878Y762739D01*
X1181821Y760974D01*
X1180895Y760355D01*
X1179790Y758701D01*
X1179402Y756750D01*
X1179790Y754799D01*
X1180895Y753145D01*
X1182549Y752040D01*
X1184500Y751652D01*
X1186451Y752040D01*
X1188105Y753145D01*
X1189210Y754799D01*
X1189598Y756750D01*
X1189210Y758701D01*
X1188105Y760355D01*
X1187872Y760510D01*
X1187929Y762277D01*
X1188855Y762895D01*
X1189960Y764549D01*
X1190348Y766500D01*
X1189960Y768451D01*
X1188855Y770105D01*
X1188351Y770441D01*
X1188668Y772034D01*
X1188701Y772040D01*
X1190355Y773145D01*
X1191460Y774799D01*
X1191848Y776750D01*
X1191460Y778701D01*
X1190355Y780355D01*
X1188701Y781460D01*
X1186750Y781848D01*
D02*
G37*
G36*
X630250Y762598D02*
X628299Y762210D01*
X626645Y761105D01*
X625540Y759451D01*
X625152Y757500D01*
X625540Y755549D01*
X626645Y753895D01*
X628299Y752790D01*
X630250Y752402D01*
X632201Y752790D01*
X633855Y753895D01*
X634960Y755549D01*
X635348Y757500D01*
X634960Y759451D01*
X633855Y761105D01*
X632201Y762210D01*
X630250Y762598D01*
D02*
G37*
G36*
X1081000Y772060D02*
X1079173Y771820D01*
X1077470Y771115D01*
X1076008Y769992D01*
X1074885Y768530D01*
X1074180Y766827D01*
X1073940Y765000D01*
X1074180Y763173D01*
X1074885Y761470D01*
X1076008Y760007D01*
X1077470Y758885D01*
X1079173Y758180D01*
X1081000Y757940D01*
X1082827Y758180D01*
X1084530Y758885D01*
X1085992Y760007D01*
X1087114Y761470D01*
X1087820Y763173D01*
X1088060Y765000D01*
X1087820Y766827D01*
X1087114Y768530D01*
X1085992Y769992D01*
X1084530Y771115D01*
X1082827Y771820D01*
X1081000Y772060D01*
D02*
G37*
G36*
X1095000Y754060D02*
X1093173Y753820D01*
X1091470Y753114D01*
X1090007Y751992D01*
X1088885Y750530D01*
X1088812Y750352D01*
X1087188D01*
X1087114Y750530D01*
X1085992Y751992D01*
X1084530Y753114D01*
X1082827Y753820D01*
X1081000Y754060D01*
X1079173Y753820D01*
X1077470Y753114D01*
X1076008Y751992D01*
X1074885Y750530D01*
X1074180Y748827D01*
X1073940Y747000D01*
X1074180Y745173D01*
X1074885Y743470D01*
X1076008Y742008D01*
X1077470Y740885D01*
X1079173Y740180D01*
X1081000Y739940D01*
X1082827Y740180D01*
X1084530Y740885D01*
X1085992Y742008D01*
X1087114Y743470D01*
X1087188Y743648D01*
X1088812D01*
X1088885Y743470D01*
X1090007Y742008D01*
X1091470Y740885D01*
X1093173Y740180D01*
X1095000Y739940D01*
X1096827Y740180D01*
X1098530Y740885D01*
X1099992Y742008D01*
X1101115Y743470D01*
X1101820Y745173D01*
X1102060Y747000D01*
X1101820Y748827D01*
X1101115Y750530D01*
X1099992Y751992D01*
X1098530Y753114D01*
X1096827Y753820D01*
X1095000Y754060D01*
D02*
G37*
G36*
X946250Y741310D02*
X944423Y741070D01*
X942720Y740365D01*
X941258Y739242D01*
X940135Y737780D01*
X939430Y736077D01*
X939190Y734250D01*
X939430Y732423D01*
X940135Y730720D01*
X941258Y729258D01*
X942720Y728136D01*
X944423Y727430D01*
X946250Y727190D01*
X948077Y727430D01*
X949780Y728136D01*
X951242Y729258D01*
X951404Y729468D01*
X952904D01*
X953258Y729008D01*
X954720Y727886D01*
X956423Y727180D01*
X958250Y726940D01*
X960077Y727180D01*
X961780Y727886D01*
X963242Y729008D01*
X964364Y730470D01*
X965070Y732173D01*
X965310Y734000D01*
X965070Y735827D01*
X964364Y737530D01*
X963242Y738992D01*
X961780Y740115D01*
X960077Y740820D01*
X958250Y741060D01*
X956423Y740820D01*
X954720Y740115D01*
X953258Y738992D01*
X953096Y738782D01*
X951596D01*
X951242Y739242D01*
X949780Y740365D01*
X948077Y741070D01*
X946250Y741310D01*
D02*
G37*
G36*
X1185250Y748598D02*
X1183299Y748210D01*
X1181645Y747105D01*
X1180540Y745451D01*
X1180152Y743500D01*
X1180540Y741549D01*
X1181645Y739895D01*
X1183299Y738790D01*
X1185250Y738402D01*
X1187201Y738790D01*
X1188855Y739895D01*
X1189960Y741549D01*
X1190348Y743500D01*
X1189960Y745451D01*
X1188855Y747105D01*
X1187201Y748210D01*
X1185250Y748598D01*
D02*
G37*
G36*
X832000Y758617D02*
X829659Y758152D01*
X827674Y756826D01*
X826348Y754841D01*
X825882Y752500D01*
X826348Y750159D01*
X827674Y748174D01*
X829659Y746848D01*
X832000Y746383D01*
X834341Y746848D01*
X836326Y748174D01*
X837652Y750159D01*
X838118Y752500D01*
X837652Y754841D01*
X836326Y756826D01*
X834341Y758152D01*
X832000Y758617D01*
D02*
G37*
G36*
X1478000Y849368D02*
X1475659Y848902D01*
X1473674Y847576D01*
X1472348Y845591D01*
X1471882Y843250D01*
X1472348Y840909D01*
X1473674Y838924D01*
X1475659Y837598D01*
X1478000Y837132D01*
X1480341Y837598D01*
X1482326Y838924D01*
X1483652Y840909D01*
X1484117Y843250D01*
X1483652Y845591D01*
X1482326Y847576D01*
X1480341Y848902D01*
X1478000Y849368D01*
D02*
G37*
G36*
X1050500Y896098D02*
X1048549Y895710D01*
X1046895Y894605D01*
X1046625Y894200D01*
X1045125D01*
X1044855Y894605D01*
X1043201Y895710D01*
X1041250Y896098D01*
X1039299Y895710D01*
X1038000Y894842D01*
X1037000Y894698D01*
X1036000Y894842D01*
X1034701Y895710D01*
X1032750Y896098D01*
X1030799Y895710D01*
X1029145Y894605D01*
X1028040Y892951D01*
X1027652Y891000D01*
X1028040Y889049D01*
X1029145Y887395D01*
X1030799Y886290D01*
X1032750Y885902D01*
X1034701Y886290D01*
X1036000Y887158D01*
X1037000Y887302D01*
X1038000Y887158D01*
X1039299Y886290D01*
X1041250Y885902D01*
X1043201Y886290D01*
X1044855Y887395D01*
X1045125Y887800D01*
X1046625D01*
X1046895Y887395D01*
X1048549Y886290D01*
X1050500Y885902D01*
X1050866Y885975D01*
X1052152Y884750D01*
X1052540Y882799D01*
X1053645Y881145D01*
X1055299Y880040D01*
X1057250Y879652D01*
X1059201Y880040D01*
X1060855Y881145D01*
X1061960Y882799D01*
X1062348Y884750D01*
X1061960Y886701D01*
X1060855Y888355D01*
X1059201Y889460D01*
X1057250Y889848D01*
X1056884Y889775D01*
X1055598Y891000D01*
X1055210Y892951D01*
X1054105Y894605D01*
X1052451Y895710D01*
X1050500Y896098D01*
D02*
G37*
G36*
X1018500Y913848D02*
X1016549Y913460D01*
X1014895Y912355D01*
X1013790Y910701D01*
X1013402Y908750D01*
X1013790Y906799D01*
X1014895Y905145D01*
X1016549Y904040D01*
X1018500Y903652D01*
X1019241Y903799D01*
X1019724Y903336D01*
X1020287Y902478D01*
X1019952Y900794D01*
X1020340Y898843D01*
X1021445Y897189D01*
X1023099Y896084D01*
X1025050Y895696D01*
X1027001Y896084D01*
X1028655Y897189D01*
X1029760Y898843D01*
X1030148Y900794D01*
X1029760Y902745D01*
X1028655Y904399D01*
X1027001Y905504D01*
X1025050Y905892D01*
X1024309Y905745D01*
X1023826Y906208D01*
X1023263Y907066D01*
X1023598Y908750D01*
X1023210Y910701D01*
X1022105Y912355D01*
X1020451Y913460D01*
X1018500Y913848D01*
D02*
G37*
G36*
X735250Y914598D02*
X733299Y914210D01*
X731645Y913105D01*
X730540Y911451D01*
X730152Y909500D01*
X730540Y907549D01*
X731645Y905895D01*
X733299Y904790D01*
X735250Y904402D01*
X737201Y904790D01*
X738855Y905895D01*
X739960Y907549D01*
X740348Y909500D01*
X739960Y911451D01*
X738855Y913105D01*
X737201Y914210D01*
X735250Y914598D01*
D02*
G37*
G36*
X1002500Y902598D02*
X1000549Y902210D01*
X998895Y901105D01*
X997790Y899451D01*
X997402Y897500D01*
X997790Y895549D01*
X998895Y893895D01*
X1000549Y892790D01*
X1002500Y892402D01*
X1004451Y892790D01*
X1006105Y893895D01*
X1007210Y895549D01*
X1007598Y897500D01*
X1007210Y899451D01*
X1006105Y901105D01*
X1004451Y902210D01*
X1002500Y902598D01*
D02*
G37*
G36*
X990750Y901348D02*
X988799Y900960D01*
X987145Y899855D01*
X986040Y898201D01*
X985652Y896250D01*
X986040Y894299D01*
X987145Y892645D01*
X988799Y891540D01*
X990750Y891152D01*
X992701Y891540D01*
X994355Y892645D01*
X995460Y894299D01*
X995848Y896250D01*
X995460Y898201D01*
X994355Y899855D01*
X992701Y900960D01*
X990750Y901348D01*
D02*
G37*
G36*
X1213250Y902348D02*
X1211299Y901960D01*
X1209645Y900855D01*
X1208540Y899201D01*
X1208152Y897250D01*
X1208540Y895299D01*
X1209645Y893645D01*
X1211299Y892540D01*
X1213250Y892152D01*
X1215201Y892540D01*
X1216855Y893645D01*
X1217960Y895299D01*
X1218348Y897250D01*
X1217960Y899201D01*
X1216855Y900855D01*
X1215201Y901960D01*
X1213250Y902348D01*
D02*
G37*
G36*
X745750Y902598D02*
X743799Y902210D01*
X742145Y901105D01*
X741040Y899451D01*
X740652Y897500D01*
X741040Y895549D01*
X742145Y893895D01*
X743799Y892790D01*
X745750Y892402D01*
X747701Y892790D01*
X749355Y893895D01*
X750460Y895549D01*
X750848Y897500D01*
X750460Y899451D01*
X749355Y901105D01*
X747701Y902210D01*
X745750Y902598D01*
D02*
G37*
G36*
X1213500Y944368D02*
X1211159Y943902D01*
X1209174Y942576D01*
X1207848Y940591D01*
X1207383Y938250D01*
X1207848Y935909D01*
X1209174Y933924D01*
X1211159Y932598D01*
X1213500Y932132D01*
X1215841Y932598D01*
X1217826Y933924D01*
X1219152Y935909D01*
X1219618Y938250D01*
X1219152Y940591D01*
X1217826Y942576D01*
X1215841Y943902D01*
X1213500Y944368D01*
D02*
G37*
G36*
X967500Y950348D02*
X965549Y949960D01*
X963895Y948855D01*
X962790Y947201D01*
X962402Y945250D01*
X962790Y943299D01*
X963895Y941645D01*
X965549Y940540D01*
X967500Y940152D01*
X969451Y940540D01*
X971105Y941645D01*
X972210Y943299D01*
X972598Y945250D01*
X972210Y947201D01*
X971105Y948855D01*
X969451Y949960D01*
X967500Y950348D01*
D02*
G37*
G36*
X1175750Y959848D02*
X1173799Y959460D01*
X1172145Y958355D01*
X1171040Y956701D01*
X1170652Y954750D01*
X1171040Y952799D01*
X1172145Y951145D01*
X1173799Y950040D01*
X1175750Y949652D01*
X1177701Y950040D01*
X1179355Y951145D01*
X1180460Y952799D01*
X1180848Y954750D01*
X1180460Y956701D01*
X1179355Y958355D01*
X1177701Y959460D01*
X1175750Y959848D01*
D02*
G37*
G36*
X719250Y929848D02*
X717299Y929460D01*
X715645Y928355D01*
X714855D01*
X713201Y929460D01*
X711250Y929848D01*
X709299Y929460D01*
X707645Y928355D01*
X706540Y926701D01*
X706152Y924750D01*
X706540Y922799D01*
X707645Y921145D01*
X709299Y920040D01*
X711250Y919652D01*
X713201Y920040D01*
X714855Y921145D01*
X715645D01*
X717299Y920040D01*
X719250Y919652D01*
X721201Y920040D01*
X722855Y921145D01*
X723960Y922799D01*
X724348Y924750D01*
X723960Y926701D01*
X722855Y928355D01*
X721201Y929460D01*
X719250Y929848D01*
D02*
G37*
G36*
X1067000Y910098D02*
X1065049Y909710D01*
X1063395Y908605D01*
X1062290Y906951D01*
X1062187Y906432D01*
X1060520Y905742D01*
X1060503Y905754D01*
X1058552Y906142D01*
X1056601Y905754D01*
X1054947Y904649D01*
X1053842Y902995D01*
X1053454Y901044D01*
X1053842Y899093D01*
X1054947Y897439D01*
X1056601Y896334D01*
X1058552Y895946D01*
X1060503Y896334D01*
X1062156Y897439D01*
X1063262Y899093D01*
X1063365Y899612D01*
X1065031Y900302D01*
X1065049Y900290D01*
X1067000Y899902D01*
X1068951Y900290D01*
X1070605Y901395D01*
X1071710Y903049D01*
X1072098Y905000D01*
X1071710Y906951D01*
X1070605Y908605D01*
X1068951Y909710D01*
X1067000Y910098D01*
D02*
G37*
G36*
X516250Y944854D02*
X513117Y944441D01*
X510198Y943232D01*
X507691Y941309D01*
X505768Y938802D01*
X504559Y935883D01*
X504146Y932750D01*
X504559Y929617D01*
X505768Y926698D01*
X507691Y924192D01*
X510198Y922268D01*
X513117Y921059D01*
X516250Y920646D01*
X519383Y921059D01*
X522302Y922268D01*
X524809Y924192D01*
X526732Y926698D01*
X527941Y929617D01*
X528354Y932750D01*
X527941Y935883D01*
X526732Y938802D01*
X524809Y941309D01*
X522302Y943232D01*
X519383Y944441D01*
X516250Y944854D01*
D02*
G37*
G36*
X638250Y929598D02*
X636299Y929210D01*
X635519Y928689D01*
X634375Y928216D01*
X633231Y928689D01*
X632451Y929210D01*
X630500Y929598D01*
X628549Y929210D01*
X626895Y928105D01*
X625790Y926451D01*
X625402Y924500D01*
X625790Y922549D01*
X626895Y920895D01*
X628549Y919790D01*
X630500Y919402D01*
X632451Y919790D01*
X633231Y920312D01*
X634375Y920784D01*
X635519Y920312D01*
X636299Y919790D01*
X638250Y919402D01*
X640201Y919790D01*
X641855Y920895D01*
X642960Y922549D01*
X643348Y924500D01*
X642960Y926451D01*
X641855Y928105D01*
X640201Y929210D01*
X638250Y929598D01*
D02*
G37*
G36*
X630500Y869098D02*
X628549Y868710D01*
X626895Y867605D01*
X625790Y865951D01*
X625402Y864000D01*
X625790Y862049D01*
X626895Y860395D01*
X628549Y859290D01*
X630500Y858902D01*
X632451Y859290D01*
X634105Y860395D01*
X635210Y862049D01*
X635598Y864000D01*
X635210Y865951D01*
X634105Y867605D01*
X632451Y868710D01*
X630500Y869098D01*
D02*
G37*
G36*
X1296000Y869348D02*
X1294049Y868960D01*
X1292395Y867855D01*
X1291290Y866201D01*
X1290902Y864250D01*
X1291290Y862299D01*
X1292395Y860645D01*
X1294049Y859540D01*
X1296000Y859152D01*
X1297951Y859540D01*
X1299605Y860645D01*
X1300710Y862299D01*
X1301098Y864250D01*
X1300710Y866201D01*
X1299605Y867855D01*
X1297951Y868960D01*
X1296000Y869348D01*
D02*
G37*
G36*
X1477750Y873617D02*
X1475409Y873152D01*
X1473424Y871826D01*
X1472098Y869841D01*
X1471633Y867500D01*
X1472098Y865159D01*
X1473424Y863174D01*
X1475409Y861848D01*
X1477750Y861383D01*
X1480091Y861848D01*
X1482076Y863174D01*
X1483402Y865159D01*
X1483867Y867500D01*
X1483402Y869841D01*
X1482076Y871826D01*
X1480091Y873152D01*
X1477750Y873617D01*
D02*
G37*
G36*
X1030000Y855867D02*
X1027659Y855402D01*
X1025674Y854076D01*
X1025152Y853294D01*
X1023348D01*
X1022826Y854076D01*
X1020841Y855402D01*
X1018500Y855867D01*
X1016159Y855402D01*
X1014174Y854076D01*
X1012848Y852091D01*
X1012383Y849750D01*
X1012848Y847409D01*
X1014174Y845424D01*
X1016159Y844098D01*
X1018500Y843633D01*
X1020841Y844098D01*
X1022826Y845424D01*
X1023348Y846206D01*
X1025152D01*
X1025674Y845424D01*
X1027659Y844098D01*
X1030000Y843633D01*
X1032341Y844098D01*
X1034326Y845424D01*
X1035652Y847409D01*
X1036117Y849750D01*
X1035652Y852091D01*
X1034326Y854076D01*
X1032341Y855402D01*
X1030000Y855867D01*
D02*
G37*
G36*
X1298250Y851618D02*
X1295909Y851152D01*
X1293924Y849826D01*
X1292598Y847841D01*
X1292132Y845500D01*
X1292598Y843159D01*
X1293924Y841174D01*
X1295909Y839848D01*
X1298250Y839382D01*
X1300591Y839848D01*
X1302576Y841174D01*
X1303902Y843159D01*
X1304368Y845500D01*
X1303902Y847841D01*
X1302576Y849826D01*
X1300591Y851152D01*
X1298250Y851618D01*
D02*
G37*
G36*
X1003750Y856367D02*
X1001409Y855902D01*
X999424Y854576D01*
X998098Y852591D01*
X997633Y850250D01*
X998098Y847909D01*
X999424Y845924D01*
X1001409Y844598D01*
X1003750Y844132D01*
X1006091Y844598D01*
X1008076Y845924D01*
X1009402Y847909D01*
X1009868Y850250D01*
X1009402Y852591D01*
X1008076Y854576D01*
X1006091Y855902D01*
X1003750Y856367D01*
D02*
G37*
G36*
X759000Y871367D02*
X756659Y870902D01*
X754674Y869576D01*
X753348Y867591D01*
X752883Y865250D01*
X753348Y862909D01*
X754674Y860924D01*
X756659Y859598D01*
X759000Y859133D01*
X759661Y859264D01*
X760064Y858950D01*
X760771Y857955D01*
X760383Y856000D01*
X760848Y853659D01*
X762174Y851674D01*
X764159Y850348D01*
X766500Y849883D01*
X768841Y850348D01*
X770826Y851674D01*
X772152Y853659D01*
X772617Y856000D01*
X772152Y858341D01*
X770826Y860326D01*
X768841Y861652D01*
X766500Y862117D01*
X765839Y861986D01*
X765436Y862300D01*
X764729Y863295D01*
X765117Y865250D01*
X764652Y867591D01*
X763326Y869576D01*
X761341Y870902D01*
X759000Y871367D01*
D02*
G37*
G36*
X972000Y892268D02*
X970049Y891880D01*
X968395Y890774D01*
X967290Y889120D01*
X966902Y887170D01*
X967290Y885219D01*
X968395Y883565D01*
X970049Y882460D01*
X972000Y882072D01*
X973951Y882460D01*
X975605Y883565D01*
X976068Y884259D01*
X976499Y884344D01*
X977803Y884155D01*
X978645Y882895D01*
X980299Y881790D01*
X982250Y881402D01*
X984201Y881790D01*
X985855Y882895D01*
X986960Y884549D01*
X987348Y886500D01*
X986960Y888451D01*
X985855Y890105D01*
X984201Y891210D01*
X982250Y891598D01*
X980299Y891210D01*
X978645Y890105D01*
X978182Y889411D01*
X977751Y889326D01*
X976447Y889514D01*
X975605Y890774D01*
X973951Y891880D01*
X972000Y892268D01*
D02*
G37*
G36*
X1128000Y891348D02*
X1126049Y890960D01*
X1124395Y889855D01*
X1123290Y888201D01*
X1122902Y886250D01*
X1123290Y884299D01*
X1123464Y884038D01*
X1122383Y882957D01*
X1122091Y883152D01*
X1119750Y883617D01*
X1117409Y883152D01*
X1115424Y881826D01*
X1114098Y879841D01*
X1113633Y877500D01*
X1114098Y875159D01*
X1115424Y873174D01*
X1117409Y871848D01*
X1119750Y871383D01*
X1122091Y871848D01*
X1124076Y873174D01*
X1125402Y875159D01*
X1125867Y877500D01*
X1125402Y879841D01*
X1125007Y880433D01*
X1125989Y881476D01*
X1126074Y881535D01*
X1128000Y881152D01*
X1129951Y881540D01*
X1131605Y882645D01*
X1132710Y884299D01*
X1133098Y886250D01*
X1132710Y888201D01*
X1131605Y889855D01*
X1129951Y890960D01*
X1128000Y891348D01*
D02*
G37*
G36*
X423500Y913354D02*
X420367Y912941D01*
X417448Y911732D01*
X414941Y909809D01*
X413018Y907302D01*
X411809Y904383D01*
X411396Y901250D01*
X411809Y898117D01*
X413018Y895198D01*
X414941Y892691D01*
X417448Y890768D01*
X420367Y889559D01*
X423500Y889146D01*
X426633Y889559D01*
X429552Y890768D01*
X432058Y892691D01*
X433982Y895198D01*
X435191Y898117D01*
X435604Y901250D01*
X435191Y904383D01*
X433982Y907302D01*
X432058Y909809D01*
X429552Y911732D01*
X426633Y912941D01*
X423500Y913354D01*
D02*
G37*
G36*
X1183000Y891348D02*
X1181049Y890960D01*
X1179395Y889855D01*
X1178290Y888201D01*
X1177902Y886250D01*
X1178290Y884299D01*
X1179395Y882645D01*
X1181049Y881540D01*
X1183000Y881152D01*
X1184951Y881540D01*
X1186605Y882645D01*
X1187710Y884299D01*
X1188098Y886250D01*
X1187710Y888201D01*
X1186605Y889855D01*
X1184951Y890960D01*
X1183000Y891348D01*
D02*
G37*
G36*
X818000Y889060D02*
X816173Y888820D01*
X814470Y888114D01*
X813008Y886992D01*
X811886Y885530D01*
X811180Y883827D01*
X810940Y882000D01*
X811180Y880173D01*
X811886Y878470D01*
X813008Y877008D01*
Y875992D01*
X811886Y874530D01*
X811180Y872827D01*
X810940Y871000D01*
X811180Y869173D01*
X811886Y867470D01*
X813008Y866008D01*
X814470Y864885D01*
X816173Y864180D01*
X818000Y863940D01*
X819827Y864180D01*
X821530Y864885D01*
X822992Y866008D01*
X824115Y867470D01*
X824820Y869173D01*
X825060Y871000D01*
X824820Y872827D01*
X824115Y874530D01*
X822992Y875992D01*
Y877008D01*
X824115Y878470D01*
X824820Y880173D01*
X825060Y882000D01*
X824820Y883827D01*
X824115Y885530D01*
X822992Y886992D01*
X821530Y888114D01*
X819827Y888820D01*
X818000Y889060D01*
D02*
G37*
G36*
X834000D02*
X832173Y888820D01*
X830470Y888114D01*
X829008Y886992D01*
X827886Y885530D01*
X827180Y883827D01*
X826940Y882000D01*
X827180Y880173D01*
X827886Y878470D01*
X829008Y877008D01*
X830470Y875885D01*
X832173Y875180D01*
X834000Y874940D01*
X835827Y875180D01*
X837530Y875885D01*
X838992Y877008D01*
X840115Y878470D01*
X840820Y880173D01*
X841060Y882000D01*
X840820Y883827D01*
X840115Y885530D01*
X838992Y886992D01*
X837530Y888114D01*
X835827Y888820D01*
X834000Y889060D01*
D02*
G37*
G36*
X1213750Y888598D02*
X1211799Y888210D01*
X1210145Y887105D01*
X1209040Y885451D01*
X1208652Y883500D01*
X1209040Y881549D01*
X1210145Y879895D01*
X1211799Y878790D01*
X1213750Y878402D01*
X1215701Y878790D01*
X1217355Y879895D01*
X1218460Y881549D01*
X1218848Y883500D01*
X1218460Y885451D01*
X1217355Y887105D01*
X1215701Y888210D01*
X1213750Y888598D01*
D02*
G37*
G36*
X823300Y382582D02*
X820820Y382256D01*
X818509Y381298D01*
X816525Y379776D01*
X815002Y377791D01*
X814044Y375480D01*
X813718Y373000D01*
Y363000D01*
X814044Y360520D01*
X815002Y358209D01*
X816525Y356225D01*
X818509Y354702D01*
X820820Y353745D01*
X823300Y353418D01*
X825780Y353745D01*
X828091Y354702D01*
X830076Y356225D01*
X831598Y358209D01*
X832555Y360520D01*
X832882Y363000D01*
Y373000D01*
X832555Y375480D01*
X831598Y377791D01*
X830076Y379776D01*
X828091Y381298D01*
X825780Y382256D01*
X823300Y382582D01*
D02*
G37*
G36*
X848700D02*
X846220Y382256D01*
X843909Y381298D01*
X841925Y379776D01*
X840402Y377791D01*
X839445Y375480D01*
X839118Y373000D01*
Y363000D01*
X839445Y360520D01*
X840402Y358209D01*
X841925Y356225D01*
X843909Y354702D01*
X846220Y353745D01*
X848700Y353418D01*
X851180Y353745D01*
X853491Y354702D01*
X855475Y356225D01*
X856998Y358209D01*
X857955Y360520D01*
X858282Y363000D01*
Y373000D01*
X857955Y375480D01*
X856998Y377791D01*
X855475Y379776D01*
X853491Y381298D01*
X851180Y382256D01*
X848700Y382582D01*
D02*
G37*
G36*
X914000Y385368D02*
X911659Y384902D01*
X909674Y383576D01*
X908348Y381591D01*
X907883Y379250D01*
X908348Y376909D01*
X909117Y375758D01*
X909558Y374625D01*
X909117Y373492D01*
X908348Y372341D01*
X907883Y370000D01*
X908348Y367659D01*
X909002Y366680D01*
X909588Y365500D01*
X909002Y364319D01*
X908348Y363341D01*
X907883Y361000D01*
X908348Y358659D01*
X909674Y356674D01*
X911659Y355348D01*
X914000Y354882D01*
X916341Y355348D01*
X918326Y356674D01*
X919652Y358659D01*
X920117Y361000D01*
X919652Y363341D01*
X918998Y364319D01*
X918412Y365500D01*
X918998Y366680D01*
X919652Y367659D01*
X920117Y370000D01*
X919652Y372341D01*
X918883Y373492D01*
X918442Y374625D01*
X918883Y375758D01*
X919652Y376909D01*
X920117Y379250D01*
X919652Y381591D01*
X918326Y383576D01*
X916341Y384902D01*
X914000Y385368D01*
D02*
G37*
G36*
X420700Y375582D02*
X418220Y375256D01*
X415909Y374298D01*
X413924Y372775D01*
X412402Y370791D01*
X411445Y368480D01*
X411118Y366000D01*
Y356000D01*
X411445Y353520D01*
X412402Y351209D01*
X413924Y349225D01*
X415909Y347702D01*
X418220Y346744D01*
X420700Y346418D01*
X423180Y346744D01*
X425491Y347702D01*
X427475Y349225D01*
X428998Y351209D01*
X429955Y353520D01*
X430282Y356000D01*
Y366000D01*
X429955Y368480D01*
X428998Y370791D01*
X427475Y372775D01*
X425491Y374298D01*
X423180Y375256D01*
X420700Y375582D01*
D02*
G37*
G36*
X313800Y375582D02*
X311320Y375256D01*
X309009Y374298D01*
X307025Y372775D01*
X305502Y370791D01*
X304545Y368480D01*
X304218Y366000D01*
Y356000D01*
X304545Y353520D01*
X305502Y351209D01*
X307025Y349225D01*
X309009Y347702D01*
X311320Y346744D01*
X313800Y346418D01*
X316280Y346744D01*
X318591Y347702D01*
X320575Y349225D01*
X322098Y351209D01*
X323055Y353520D01*
X323382Y356000D01*
Y366000D01*
X323055Y368480D01*
X322098Y370791D01*
X320575Y372775D01*
X318591Y374298D01*
X316280Y375256D01*
X313800Y375582D01*
D02*
G37*
G36*
X339200D02*
X336720Y375256D01*
X334409Y374298D01*
X332425Y372775D01*
X330902Y370791D01*
X329945Y368480D01*
X329618Y366000D01*
Y356000D01*
X329945Y353520D01*
X330902Y351209D01*
X332425Y349225D01*
X334409Y347702D01*
X336720Y346744D01*
X339200Y346418D01*
X341680Y346744D01*
X343991Y347702D01*
X345975Y349225D01*
X347498Y351209D01*
X348456Y353520D01*
X348782Y356000D01*
Y366000D01*
X348456Y368480D01*
X347498Y370791D01*
X345975Y372775D01*
X343991Y374298D01*
X341680Y375256D01*
X339200Y375582D01*
D02*
G37*
G36*
X395300Y375582D02*
X392820Y375256D01*
X390509Y374298D01*
X388525Y372775D01*
X387002Y370791D01*
X386045Y368480D01*
X385718Y366000D01*
Y356000D01*
X386045Y353520D01*
X387002Y351209D01*
X388525Y349225D01*
X390509Y347702D01*
X392820Y346744D01*
X395300Y346418D01*
X397780Y346744D01*
X400091Y347702D01*
X402075Y349225D01*
X403598Y351209D01*
X404555Y353520D01*
X404882Y356000D01*
Y366000D01*
X404555Y368480D01*
X403598Y370791D01*
X402075Y372775D01*
X400091Y374298D01*
X397780Y375256D01*
X395300Y375582D01*
D02*
G37*
G36*
X624500Y403618D02*
X622159Y403152D01*
X620174Y401826D01*
X618848Y399841D01*
X618382Y397500D01*
X618848Y395159D01*
X620174Y393174D01*
X622159Y391848D01*
X624500Y391382D01*
X626841Y391848D01*
X628826Y393174D01*
X630152Y395159D01*
X630617Y397500D01*
X630152Y399841D01*
X628826Y401826D01*
X626841Y403152D01*
X624500Y403618D01*
D02*
G37*
G36*
X602000Y403867D02*
X599659Y403402D01*
X597674Y402076D01*
X596348Y400091D01*
X595882Y397750D01*
X596348Y395409D01*
X597674Y393424D01*
X599659Y392098D01*
X602000Y391632D01*
X604341Y392098D01*
X606326Y393424D01*
X607652Y395409D01*
X608117Y397750D01*
X607652Y400091D01*
X606326Y402076D01*
X604341Y403402D01*
X602000Y403867D01*
D02*
G37*
G36*
X768500Y405368D02*
X766159Y404902D01*
X764174Y403576D01*
X762848Y401591D01*
X762383Y399250D01*
X762848Y396909D01*
X764174Y394924D01*
X766159Y393598D01*
X768500Y393133D01*
X770841Y393598D01*
X772826Y394924D01*
X774152Y396909D01*
X774618Y399250D01*
X774152Y401591D01*
X772826Y403576D01*
X770841Y404902D01*
X768500Y405368D01*
D02*
G37*
G36*
X1156500Y401618D02*
X1154159Y401152D01*
X1152174Y399826D01*
X1150848Y397841D01*
X1150383Y395500D01*
X1150848Y393159D01*
X1152174Y391174D01*
X1154159Y389848D01*
X1156500Y389383D01*
X1158841Y389848D01*
X1160826Y391174D01*
X1162152Y393159D01*
X1162617Y395500D01*
X1162152Y397841D01*
X1160826Y399826D01*
X1158841Y401152D01*
X1156500Y401618D01*
D02*
G37*
G36*
X709250Y374868D02*
X706909Y374402D01*
X704924Y373076D01*
X703598Y371091D01*
X703132Y368750D01*
X703598Y366409D01*
X704924Y364424D01*
X706909Y363098D01*
X709250Y362632D01*
X711591Y363098D01*
X713576Y364424D01*
X714902Y366409D01*
X715368Y368750D01*
X714902Y371091D01*
X713576Y373076D01*
X711591Y374402D01*
X709250Y374868D01*
D02*
G37*
G36*
X1489500Y384598D02*
X1487549Y384210D01*
X1485895Y383105D01*
X1484790Y381451D01*
X1484402Y379500D01*
X1484790Y377549D01*
X1485895Y375895D01*
X1487549Y374790D01*
X1489500Y374402D01*
X1491451Y374790D01*
X1493105Y375895D01*
X1494210Y377549D01*
X1494598Y379500D01*
X1494210Y381451D01*
X1493105Y383105D01*
X1491451Y384210D01*
X1489500Y384598D01*
D02*
G37*
G36*
X1464250Y385598D02*
X1462299Y385210D01*
X1460645Y384105D01*
X1459540Y382451D01*
X1459152Y380500D01*
X1459540Y378549D01*
X1460645Y376895D01*
X1462299Y375790D01*
X1464250Y375402D01*
X1466201Y375790D01*
X1467855Y376895D01*
X1468960Y378549D01*
X1469348Y380500D01*
X1468960Y382451D01*
X1467855Y384105D01*
X1466201Y385210D01*
X1464250Y385598D01*
D02*
G37*
G36*
X412000Y308104D02*
X404000D01*
X400867Y307691D01*
X397948Y306482D01*
X395442Y304559D01*
X393518Y302052D01*
X392309Y299133D01*
X391896Y296000D01*
X392309Y292867D01*
X393518Y289948D01*
X395442Y287442D01*
X397948Y285518D01*
X400867Y284309D01*
X404000Y283897D01*
X412000D01*
X415133Y284309D01*
X418052Y285518D01*
X420559Y287442D01*
X422482Y289948D01*
X423691Y292867D01*
X424104Y296000D01*
X423691Y299133D01*
X422482Y302052D01*
X420559Y304559D01*
X418052Y306482D01*
X415133Y307691D01*
X412000Y308104D01*
D02*
G37*
G36*
X840000Y315104D02*
X832000D01*
X828867Y314691D01*
X825948Y313482D01*
X823441Y311558D01*
X821518Y309052D01*
X820309Y306133D01*
X819896Y303000D01*
X820309Y299867D01*
X821518Y296948D01*
X823441Y294442D01*
X825948Y292518D01*
X828867Y291309D01*
X832000Y290896D01*
X840000D01*
X843133Y291309D01*
X846052Y292518D01*
X848559Y294442D01*
X850482Y296948D01*
X851691Y299867D01*
X852104Y303000D01*
X851691Y306133D01*
X850482Y309052D01*
X848559Y311558D01*
X846052Y313482D01*
X843133Y314691D01*
X840000Y315104D01*
D02*
G37*
G36*
X926000Y326604D02*
X922867Y326191D01*
X919948Y324982D01*
X917441Y323059D01*
X915518Y320552D01*
X914309Y317633D01*
X913896Y314500D01*
X914309Y311367D01*
X915518Y308448D01*
X917441Y305942D01*
X919948Y304018D01*
X922867Y302809D01*
X926000Y302396D01*
X929133Y302809D01*
X932052Y304018D01*
X934558Y305942D01*
X936482Y308448D01*
X937691Y311367D01*
X938104Y314500D01*
X937691Y317633D01*
X936482Y320552D01*
X934558Y323059D01*
X932052Y324982D01*
X929133Y326191D01*
X926000Y326604D01*
D02*
G37*
G36*
X330500Y308104D02*
X322500D01*
X319367Y307691D01*
X316448Y306482D01*
X313941Y304559D01*
X312018Y302052D01*
X310809Y299133D01*
X310396Y296000D01*
X310809Y292867D01*
X312018Y289948D01*
X313941Y287442D01*
X316448Y285518D01*
X319367Y284309D01*
X322500Y283896D01*
X330500D01*
X333633Y284309D01*
X336552Y285518D01*
X339058Y287442D01*
X340982Y289948D01*
X342191Y292867D01*
X342604Y296000D01*
X342191Y299133D01*
X340982Y302052D01*
X339058Y304559D01*
X336552Y306482D01*
X333633Y307691D01*
X330500Y308104D01*
D02*
G37*
G36*
X593000Y305604D02*
X585000D01*
X581867Y305191D01*
X578948Y303982D01*
X576441Y302059D01*
X574518Y299552D01*
X573309Y296633D01*
X572896Y293500D01*
X573309Y290367D01*
X574518Y287448D01*
X576441Y284942D01*
X578948Y283018D01*
X581867Y281809D01*
X585000Y281396D01*
X593000D01*
X596133Y281809D01*
X599052Y283018D01*
X601558Y284942D01*
X603482Y287448D01*
X604691Y290367D01*
X605103Y293500D01*
X604691Y296633D01*
X603482Y299552D01*
X601558Y302059D01*
X599052Y303982D01*
X596133Y305191D01*
X593000Y305604D01*
D02*
G37*
G36*
X677000Y306104D02*
X669000D01*
X665867Y305691D01*
X662948Y304482D01*
X660442Y302558D01*
X658518Y300052D01*
X657309Y297133D01*
X656897Y294000D01*
X657309Y290867D01*
X658518Y287948D01*
X660442Y285441D01*
X662948Y283518D01*
X665867Y282309D01*
X669000Y281896D01*
X677000D01*
X680133Y282309D01*
X683052Y283518D01*
X685558Y285441D01*
X687482Y287948D01*
X688691Y290867D01*
X689103Y294000D01*
X688691Y297133D01*
X687482Y300052D01*
X685558Y302558D01*
X683052Y304482D01*
X680133Y305691D01*
X677000Y306104D01*
D02*
G37*
G36*
X493000Y307354D02*
X485000D01*
X481867Y306941D01*
X478948Y305732D01*
X476441Y303808D01*
X474518Y301302D01*
X473309Y298383D01*
X472896Y295250D01*
X473309Y292117D01*
X474518Y289198D01*
X476441Y286691D01*
X478948Y284768D01*
X481867Y283559D01*
X485000Y283146D01*
X493000D01*
X496133Y283559D01*
X499052Y284768D01*
X501558Y286691D01*
X503482Y289198D01*
X504691Y292117D01*
X505104Y295250D01*
X504691Y298383D01*
X503482Y301302D01*
X501558Y303808D01*
X499052Y305732D01*
X496133Y306941D01*
X493000Y307354D01*
D02*
G37*
G36*
X685700Y373582D02*
X683220Y373256D01*
X680909Y372298D01*
X678925Y370775D01*
X677402Y368791D01*
X676444Y366480D01*
X676118Y364000D01*
Y354000D01*
X676444Y351520D01*
X677402Y349209D01*
X678925Y347225D01*
X680909Y345702D01*
X683220Y344744D01*
X685700Y344418D01*
X688180Y344744D01*
X690491Y345702D01*
X692476Y347225D01*
X693998Y349209D01*
X694956Y351520D01*
X695282Y354000D01*
Y364000D01*
X694956Y366480D01*
X693998Y368791D01*
X692476Y370775D01*
X690491Y372298D01*
X688180Y373256D01*
X685700Y373582D01*
D02*
G37*
G36*
X476300Y374832D02*
X473820Y374506D01*
X471509Y373548D01*
X469525Y372025D01*
X468002Y370041D01*
X467045Y367730D01*
X466718Y365250D01*
Y355250D01*
X467045Y352770D01*
X468002Y350459D01*
X469525Y348475D01*
X471509Y346952D01*
X473820Y345994D01*
X476300Y345668D01*
X478780Y345994D01*
X481091Y346952D01*
X483075Y348475D01*
X484598Y350459D01*
X485555Y352770D01*
X485882Y355250D01*
Y365250D01*
X485555Y367730D01*
X484598Y370041D01*
X483075Y372025D01*
X481091Y373548D01*
X478780Y374506D01*
X476300Y374832D01*
D02*
G37*
G36*
X501700D02*
X499220Y374506D01*
X496909Y373548D01*
X494925Y372025D01*
X493402Y370041D01*
X492445Y367730D01*
X492118Y365250D01*
Y355250D01*
X492445Y352770D01*
X493402Y350459D01*
X494925Y348475D01*
X496909Y346952D01*
X499220Y345994D01*
X501700Y345668D01*
X504180Y345994D01*
X506491Y346952D01*
X508475Y348475D01*
X509998Y350459D01*
X510956Y352770D01*
X511282Y355250D01*
Y365250D01*
X510956Y367730D01*
X509998Y370041D01*
X508475Y372025D01*
X506491Y373548D01*
X504180Y374506D01*
X501700Y374832D01*
D02*
G37*
G36*
X660300Y373582D02*
X657820Y373256D01*
X655509Y372298D01*
X653525Y370775D01*
X652002Y368791D01*
X651044Y366480D01*
X650718Y364000D01*
Y354000D01*
X651044Y351520D01*
X652002Y349209D01*
X653525Y347225D01*
X655509Y345702D01*
X657820Y344744D01*
X660300Y344418D01*
X662780Y344744D01*
X665091Y345702D01*
X667076Y347225D01*
X668598Y349209D01*
X669556Y351520D01*
X669882Y354000D01*
Y364000D01*
X669556Y366480D01*
X668598Y368791D01*
X667076Y370775D01*
X665091Y372298D01*
X662780Y373256D01*
X660300Y373582D01*
D02*
G37*
G36*
X874750Y319348D02*
X872799Y318960D01*
X871145Y317855D01*
X870040Y316201D01*
X869652Y314250D01*
X870040Y312299D01*
X871145Y310645D01*
X872799Y309540D01*
X874750Y309152D01*
X876701Y309540D01*
X878355Y310645D01*
X879460Y312299D01*
X879848Y314250D01*
X879460Y316201D01*
X878355Y317855D01*
X876701Y318960D01*
X874750Y319348D01*
D02*
G37*
G36*
X576300Y373082D02*
X573820Y372756D01*
X571509Y371798D01*
X569524Y370275D01*
X568002Y368291D01*
X567044Y365980D01*
X566718Y363500D01*
Y353500D01*
X567044Y351020D01*
X568002Y348709D01*
X569524Y346725D01*
X571509Y345202D01*
X573820Y344244D01*
X576300Y343918D01*
X578780Y344244D01*
X581091Y345202D01*
X583075Y346725D01*
X584598Y348709D01*
X585555Y351020D01*
X585882Y353500D01*
Y363500D01*
X585555Y365980D01*
X584598Y368291D01*
X583075Y370275D01*
X581091Y371798D01*
X578780Y372756D01*
X576300Y373082D01*
D02*
G37*
G36*
X601700D02*
X599220Y372756D01*
X596909Y371798D01*
X594925Y370275D01*
X593402Y368291D01*
X592444Y365980D01*
X592118Y363500D01*
Y353500D01*
X592444Y351020D01*
X593402Y348709D01*
X594925Y346725D01*
X596909Y345202D01*
X599220Y344244D01*
X601700Y343918D01*
X604180Y344244D01*
X606491Y345202D01*
X608475Y346725D01*
X609998Y348709D01*
X610955Y351020D01*
X611282Y353500D01*
Y363500D01*
X610955Y365980D01*
X609998Y368291D01*
X608475Y370275D01*
X606491Y371798D01*
X604180Y372756D01*
X601700Y373082D01*
D02*
G37*
G36*
X821750Y412368D02*
X819409Y411902D01*
X817424Y410576D01*
X816098Y408591D01*
X815632Y406250D01*
X816098Y403909D01*
X817424Y401924D01*
X819409Y400598D01*
X821750Y400132D01*
X824091Y400598D01*
X826076Y401924D01*
X827402Y403909D01*
X827868Y406250D01*
X827402Y408591D01*
X826076Y410576D01*
X824091Y411902D01*
X821750Y412368D01*
D02*
G37*
G36*
X1042250Y627854D02*
X1039117Y627441D01*
X1036198Y626232D01*
X1033691Y624309D01*
X1031768Y621802D01*
X1030559Y618883D01*
X1030146Y615750D01*
X1030559Y612617D01*
X1031768Y609698D01*
X1033691Y607192D01*
X1036198Y605268D01*
X1039117Y604059D01*
X1042250Y603646D01*
X1045383Y604059D01*
X1048302Y605268D01*
X1050808Y607192D01*
X1052732Y609698D01*
X1053941Y612617D01*
X1054354Y615750D01*
X1053941Y618883D01*
X1052732Y621802D01*
X1050808Y624309D01*
X1048302Y626232D01*
X1045383Y627441D01*
X1042250Y627854D01*
D02*
G37*
G36*
X1083250Y628104D02*
X1080117Y627691D01*
X1077198Y626482D01*
X1074691Y624558D01*
X1072768Y622052D01*
X1071559Y619133D01*
X1071146Y616000D01*
X1071559Y612867D01*
X1072768Y609948D01*
X1074691Y607441D01*
X1077198Y605518D01*
X1080117Y604309D01*
X1083250Y603896D01*
X1086383Y604309D01*
X1089302Y605518D01*
X1091808Y607441D01*
X1093732Y609948D01*
X1094941Y612867D01*
X1095354Y616000D01*
X1094941Y619133D01*
X1093732Y622052D01*
X1091808Y624558D01*
X1089302Y626482D01*
X1086383Y627691D01*
X1083250Y628104D01*
D02*
G37*
G36*
X1125750Y628354D02*
X1122617Y627941D01*
X1119698Y626732D01*
X1117191Y624809D01*
X1115268Y622302D01*
X1114059Y619383D01*
X1113646Y616250D01*
X1114059Y613117D01*
X1115268Y610198D01*
X1117191Y607691D01*
X1119698Y605768D01*
X1122617Y604559D01*
X1125750Y604146D01*
X1128883Y604559D01*
X1131802Y605768D01*
X1134308Y607691D01*
X1136232Y610198D01*
X1137441Y613117D01*
X1137854Y616250D01*
X1137441Y619383D01*
X1136232Y622302D01*
X1134308Y624809D01*
X1131802Y626732D01*
X1128883Y627941D01*
X1125750Y628354D01*
D02*
G37*
G36*
X768500Y633294D02*
X764677Y632918D01*
X761002Y631803D01*
X757614Y629992D01*
X754645Y627555D01*
X752208Y624586D01*
X750397Y621198D01*
X749282Y617523D01*
X748906Y613700D01*
X749282Y609877D01*
X750397Y606202D01*
X752208Y602814D01*
X754645Y599845D01*
X757614Y597408D01*
X761002Y595597D01*
X764677Y594482D01*
X768500Y594106D01*
X772323Y594482D01*
X775998Y595597D01*
X779386Y597408D01*
X782355Y599845D01*
X784792Y602814D01*
X786603Y606202D01*
X787718Y609877D01*
X788094Y613700D01*
X787718Y617523D01*
X786603Y621198D01*
X784792Y624586D01*
X782355Y627555D01*
X779386Y629992D01*
X775998Y631803D01*
X772323Y632918D01*
X768500Y633294D01*
D02*
G37*
G36*
X1165000Y577368D02*
X1162659Y576902D01*
X1160674Y575576D01*
X1159348Y573591D01*
X1158882Y571250D01*
X1159348Y568909D01*
X1160674Y566924D01*
X1162659Y565598D01*
X1165000Y565132D01*
X1167341Y565598D01*
X1169326Y566924D01*
X1170652Y568909D01*
X1171117Y571250D01*
X1170652Y573591D01*
X1169326Y575576D01*
X1167341Y576902D01*
X1165000Y577368D01*
D02*
G37*
G36*
X795500Y593591D02*
X792759Y593230D01*
X790205Y592172D01*
X788011Y590489D01*
X786328Y588295D01*
X785270Y585741D01*
X784909Y583000D01*
X785270Y580259D01*
X786328Y577705D01*
X788011Y575511D01*
X790205Y573828D01*
X792759Y572770D01*
X795500Y572409D01*
X798241Y572770D01*
X800795Y573828D01*
X802989Y575511D01*
X804672Y577705D01*
X805730Y580259D01*
X806091Y583000D01*
X805730Y585741D01*
X804672Y588295D01*
X802989Y590489D01*
X800795Y592172D01*
X798241Y593230D01*
X795500Y593591D01*
D02*
G37*
G36*
X1636500Y585848D02*
X1634549Y585460D01*
X1632895Y584355D01*
X1631790Y582701D01*
X1631402Y580750D01*
X1631790Y578799D01*
X1632895Y577145D01*
X1634549Y576040D01*
X1636500Y575652D01*
X1638451Y576040D01*
X1640105Y577145D01*
X1641210Y578799D01*
X1641598Y580750D01*
X1641210Y582701D01*
X1640105Y584355D01*
X1638451Y585460D01*
X1636500Y585848D01*
D02*
G37*
G36*
X427500Y679582D02*
X425020Y679256D01*
X422709Y678298D01*
X420724Y676776D01*
X419202Y674791D01*
X418245Y672480D01*
X416755D01*
X415798Y674791D01*
X414275Y676776D01*
X412291Y678298D01*
X409980Y679256D01*
X407500Y679582D01*
X405020Y679256D01*
X402709Y678298D01*
X400724Y676776D01*
X399202Y674791D01*
X398245Y672480D01*
X397918Y670000D01*
Y660000D01*
X398245Y657520D01*
X399202Y655209D01*
X400724Y653224D01*
X402709Y651702D01*
X405020Y650744D01*
X407500Y650418D01*
X409980Y650744D01*
X412291Y651702D01*
X414275Y653224D01*
X415798Y655209D01*
X416755Y657520D01*
X418245D01*
X419202Y655209D01*
X420724Y653224D01*
X422709Y651702D01*
X425020Y650744D01*
X427500Y650418D01*
X429980Y650744D01*
X432291Y651702D01*
X434275Y653224D01*
X435798Y655209D01*
X436755Y657520D01*
X437082Y660000D01*
Y670000D01*
X436755Y672480D01*
X435798Y674791D01*
X434275Y676776D01*
X432291Y678298D01*
X429980Y679256D01*
X427500Y679582D01*
D02*
G37*
G36*
X567500D02*
X565020Y679256D01*
X562709Y678298D01*
X560725Y676776D01*
X559202Y674791D01*
X558245Y672480D01*
X556755D01*
X555798Y674791D01*
X554275Y676776D01*
X552291Y678298D01*
X549980Y679256D01*
X547500Y679582D01*
X545020Y679256D01*
X542709Y678298D01*
X540724Y676776D01*
X539202Y674791D01*
X538245Y672480D01*
X536755D01*
X535798Y674791D01*
X534275Y676776D01*
X532291Y678298D01*
X529980Y679256D01*
X527500Y679582D01*
X525020Y679256D01*
X522709Y678298D01*
X520724Y676776D01*
X519202Y674791D01*
X518245Y672480D01*
X516755D01*
X515798Y674791D01*
X514275Y676776D01*
X512291Y678298D01*
X509980Y679256D01*
X507500Y679582D01*
X505020Y679256D01*
X502709Y678298D01*
X500724Y676776D01*
X499202Y674791D01*
X498245Y672480D01*
X496755D01*
X495798Y674791D01*
X494275Y676776D01*
X492291Y678298D01*
X489980Y679256D01*
X487500Y679582D01*
X485020Y679256D01*
X482709Y678298D01*
X480724Y676776D01*
X479202Y674791D01*
X478245Y672480D01*
X476755D01*
X475798Y674791D01*
X474275Y676776D01*
X472291Y678298D01*
X469980Y679256D01*
X467500Y679582D01*
X465020Y679256D01*
X462709Y678298D01*
X460724Y676776D01*
X459202Y674791D01*
X458245Y672480D01*
X457918Y670000D01*
Y660000D01*
X458245Y657520D01*
X459202Y655209D01*
X460724Y653224D01*
X462709Y651702D01*
X465020Y650744D01*
X467500Y650418D01*
X469980Y650744D01*
X472291Y651702D01*
X474275Y653224D01*
X475798Y655209D01*
X476755Y657520D01*
X478245D01*
X479202Y655209D01*
X480724Y653224D01*
X482709Y651702D01*
X485020Y650744D01*
X487500Y650418D01*
X489980Y650744D01*
X492291Y651702D01*
X494275Y653224D01*
X495798Y655209D01*
X496755Y657520D01*
X498245D01*
X499202Y655209D01*
X500724Y653224D01*
X502709Y651702D01*
X505020Y650744D01*
X507500Y650418D01*
X509980Y650744D01*
X512291Y651702D01*
X514275Y653224D01*
X515798Y655209D01*
X516755Y657520D01*
X518245D01*
X519202Y655209D01*
X520724Y653224D01*
X522709Y651702D01*
X525020Y650744D01*
X527500Y650418D01*
X529980Y650744D01*
X532291Y651702D01*
X534275Y653224D01*
X535798Y655209D01*
X536755Y657520D01*
X538245D01*
X539202Y655209D01*
X540724Y653224D01*
X542709Y651702D01*
X545020Y650744D01*
X547500Y650418D01*
X549980Y650744D01*
X552291Y651702D01*
X554275Y653224D01*
X555798Y655209D01*
X556755Y657520D01*
X558245D01*
X559202Y655209D01*
X560725Y653224D01*
X562709Y651702D01*
X565020Y650744D01*
X567500Y650418D01*
X569980Y650744D01*
X572291Y651702D01*
X574276Y653224D01*
X575798Y655209D01*
X576755Y657520D01*
X577082Y660000D01*
Y670000D01*
X576755Y672480D01*
X575798Y674791D01*
X574276Y676776D01*
X572291Y678298D01*
X569980Y679256D01*
X567500Y679582D01*
D02*
G37*
G36*
X748750Y703854D02*
X745617Y703441D01*
X742698Y702232D01*
X740191Y700309D01*
X738268Y697802D01*
X737059Y694883D01*
X736646Y691750D01*
X737059Y688617D01*
X738268Y685698D01*
X740191Y683192D01*
X742698Y681268D01*
X745617Y680059D01*
X748750Y679646D01*
X751883Y680059D01*
X754802Y681268D01*
X757309Y683192D01*
X759232Y685698D01*
X760441Y688617D01*
X760854Y691750D01*
X760441Y694883D01*
X759232Y697802D01*
X757309Y700309D01*
X754802Y702232D01*
X751883Y703441D01*
X748750Y703854D01*
D02*
G37*
G36*
X643250Y675310D02*
X641423Y675070D01*
X639720Y674364D01*
X638258Y673242D01*
X637136Y671780D01*
X636430Y670077D01*
X636190Y668250D01*
X636430Y666423D01*
X637136Y664720D01*
X638258Y663258D01*
X639720Y662135D01*
X641423Y661430D01*
X643250Y661190D01*
X645077Y661430D01*
X646780Y662135D01*
X648242Y663258D01*
X649364Y664720D01*
X650070Y666423D01*
X650310Y668250D01*
X650070Y670077D01*
X649364Y671780D01*
X648242Y673242D01*
X646780Y674364D01*
X645077Y675070D01*
X643250Y675310D01*
D02*
G37*
G36*
X1160000Y634367D02*
X1157659Y633902D01*
X1155674Y632576D01*
X1154348Y630591D01*
X1153883Y628250D01*
X1154348Y625909D01*
X1155674Y623924D01*
X1157659Y622598D01*
X1160000Y622132D01*
X1162341Y622598D01*
X1164326Y623924D01*
X1165652Y625909D01*
X1166117Y628250D01*
X1165652Y630591D01*
X1164326Y632576D01*
X1162341Y633902D01*
X1160000Y634367D01*
D02*
G37*
G36*
X1627536Y636022D02*
X1625585Y635634D01*
X1623931Y634529D01*
X1622826Y632875D01*
X1622438Y630924D01*
X1622826Y628973D01*
X1623931Y627319D01*
X1625585Y626214D01*
X1627536Y625826D01*
X1629487Y626214D01*
X1631140Y627319D01*
X1632246Y628973D01*
X1632634Y630924D01*
X1632246Y632875D01*
X1631140Y634529D01*
X1629487Y635634D01*
X1627536Y636022D01*
D02*
G37*
G36*
X653250Y663310D02*
X651423Y663070D01*
X649720Y662365D01*
X648258Y661242D01*
X647135Y659780D01*
X646430Y658077D01*
X646190Y656250D01*
X646430Y654423D01*
X647135Y652720D01*
X648258Y651257D01*
X649720Y650135D01*
X651423Y649430D01*
X653250Y649190D01*
X655077Y649430D01*
X656780Y650135D01*
X658242Y651257D01*
X659364Y652720D01*
X660070Y654423D01*
X660310Y656250D01*
X660070Y658077D01*
X659364Y659780D01*
X658242Y661242D01*
X656780Y662365D01*
X655077Y663070D01*
X653250Y663310D01*
D02*
G37*
G36*
X393500Y471367D02*
X391159Y470902D01*
X389174Y469576D01*
X387848Y467591D01*
X387383Y465250D01*
X387848Y462909D01*
X389174Y460924D01*
X391159Y459598D01*
X393500Y459132D01*
X395841Y459598D01*
X397826Y460924D01*
X399152Y462909D01*
X399618Y465250D01*
X399152Y467591D01*
X397826Y469576D01*
X395841Y470902D01*
X393500Y471367D01*
D02*
G37*
G36*
X768500Y501894D02*
X764677Y501518D01*
X761002Y500403D01*
X757614Y498592D01*
X754645Y496155D01*
X752208Y493186D01*
X750397Y489798D01*
X749282Y486123D01*
X748906Y482300D01*
X749282Y478477D01*
X750397Y474802D01*
X752208Y471414D01*
X754645Y468445D01*
X757614Y466008D01*
X761002Y464197D01*
X764677Y463082D01*
X768500Y462706D01*
X772323Y463082D01*
X775998Y464197D01*
X779386Y466008D01*
X782355Y468445D01*
X784792Y471414D01*
X786603Y474802D01*
X787718Y478477D01*
X788094Y482300D01*
X787718Y486123D01*
X786603Y489798D01*
X784792Y493186D01*
X782355Y496155D01*
X779386Y498592D01*
X775998Y500403D01*
X772323Y501518D01*
X768500Y501894D01*
D02*
G37*
G36*
X1102500Y503368D02*
X1100159Y502902D01*
X1098174Y501576D01*
X1096848Y499591D01*
X1096382Y497250D01*
X1096848Y494909D01*
X1097684Y493658D01*
X1098051Y492553D01*
X1097684Y491448D01*
X1096848Y490196D01*
X1096382Y487855D01*
X1096848Y485514D01*
X1098174Y483529D01*
Y482576D01*
X1096848Y480591D01*
X1096382Y478250D01*
X1096848Y475909D01*
X1098174Y473924D01*
X1100159Y472598D01*
X1102500Y472132D01*
X1104841Y472598D01*
X1106826Y473924D01*
X1108152Y475909D01*
X1108617Y478250D01*
X1108152Y480591D01*
X1106826Y482576D01*
Y483529D01*
X1108152Y485514D01*
X1108617Y487855D01*
X1108152Y490196D01*
X1107316Y491448D01*
X1106949Y492553D01*
X1107316Y493658D01*
X1108152Y494909D01*
X1108617Y497250D01*
X1108152Y499591D01*
X1106826Y501576D01*
X1104841Y502902D01*
X1102500Y503368D01*
D02*
G37*
G36*
X547500Y459582D02*
X545020Y459255D01*
X542709Y458298D01*
X540724Y456776D01*
X539202Y454791D01*
X538245Y452480D01*
X536755D01*
X535798Y454791D01*
X534275Y456776D01*
X532291Y458298D01*
X529980Y459255D01*
X527500Y459582D01*
X525020Y459255D01*
X522709Y458298D01*
X520724Y456776D01*
X519202Y454791D01*
X518245Y452480D01*
X516755D01*
X515798Y454791D01*
X514275Y456776D01*
X512291Y458298D01*
X509980Y459255D01*
X507500Y459582D01*
X505020Y459255D01*
X502709Y458298D01*
X500724Y456776D01*
X499202Y454791D01*
X498245Y452480D01*
X496755D01*
X495798Y454791D01*
X494275Y456776D01*
X492291Y458298D01*
X489980Y459255D01*
X487500Y459582D01*
X485020Y459255D01*
X482709Y458298D01*
X480724Y456776D01*
X479202Y454791D01*
X478245Y452480D01*
X476755D01*
X475798Y454791D01*
X474275Y456776D01*
X472291Y458298D01*
X469980Y459255D01*
X467500Y459582D01*
X465020Y459255D01*
X462709Y458298D01*
X460724Y456776D01*
X459202Y454791D01*
X458245Y452480D01*
X456755D01*
X455798Y454791D01*
X454275Y456776D01*
X452291Y458298D01*
X449980Y459255D01*
X447500Y459582D01*
X445020Y459255D01*
X442709Y458298D01*
X440724Y456776D01*
X439202Y454791D01*
X438245Y452480D01*
X436755D01*
X435798Y454791D01*
X434275Y456776D01*
X432291Y458298D01*
X429980Y459255D01*
X427500Y459582D01*
X425020Y459255D01*
X422709Y458298D01*
X420724Y456776D01*
X419202Y454791D01*
X418245Y452480D01*
X416755D01*
X415798Y454791D01*
X414275Y456776D01*
X412291Y458298D01*
X409980Y459255D01*
X407500Y459582D01*
X405020Y459255D01*
X402709Y458298D01*
X400724Y456776D01*
X399202Y454791D01*
X398245Y452480D01*
X397918Y450000D01*
Y440000D01*
X398245Y437520D01*
X399202Y435209D01*
X400724Y433224D01*
X402709Y431702D01*
X405020Y430745D01*
X407500Y430418D01*
X409980Y430745D01*
X412291Y431702D01*
X414275Y433224D01*
X415798Y435209D01*
X416755Y437520D01*
X418245D01*
X419202Y435209D01*
X420724Y433224D01*
X422709Y431702D01*
X425020Y430745D01*
X427500Y430418D01*
X429980Y430745D01*
X432291Y431702D01*
X434275Y433224D01*
X435798Y435209D01*
X436755Y437520D01*
X438245D01*
X439202Y435209D01*
X440724Y433224D01*
X442709Y431702D01*
X445020Y430745D01*
X447500Y430418D01*
X449980Y430745D01*
X452291Y431702D01*
X454275Y433224D01*
X455798Y435209D01*
X456755Y437520D01*
X458245D01*
X459202Y435209D01*
X460724Y433224D01*
X462709Y431702D01*
X465020Y430745D01*
X467500Y430418D01*
X469980Y430745D01*
X472291Y431702D01*
X474275Y433224D01*
X475798Y435209D01*
X476755Y437520D01*
X478245D01*
X479202Y435209D01*
X480724Y433224D01*
X482709Y431702D01*
X485020Y430745D01*
X487500Y430418D01*
X489980Y430745D01*
X492291Y431702D01*
X494275Y433224D01*
X495798Y435209D01*
X496755Y437520D01*
X498245D01*
X499202Y435209D01*
X500724Y433224D01*
X502709Y431702D01*
X505020Y430745D01*
X507500Y430418D01*
X509980Y430745D01*
X512291Y431702D01*
X514275Y433224D01*
X515798Y435209D01*
X516755Y437520D01*
X518245D01*
X519202Y435209D01*
X520724Y433224D01*
X522709Y431702D01*
X525020Y430745D01*
X527500Y430418D01*
X529980Y430745D01*
X532291Y431702D01*
X534275Y433224D01*
X535798Y435209D01*
X536755Y437520D01*
X538245D01*
X539202Y435209D01*
X540724Y433224D01*
X542709Y431702D01*
X545020Y430745D01*
X547500Y430418D01*
X549980Y430745D01*
X552291Y431702D01*
X554275Y433224D01*
X555798Y435209D01*
X556500Y436903D01*
X558000Y436605D01*
Y430500D01*
X577000D01*
Y459500D01*
X558000D01*
Y453395D01*
X556500Y453097D01*
X555798Y454791D01*
X554275Y456776D01*
X552291Y458298D01*
X549980Y459255D01*
X547500Y459582D01*
D02*
G37*
G36*
X1663350Y450477D02*
X1660213Y450168D01*
X1657197Y449254D01*
X1654418Y447768D01*
X1651982Y445769D01*
X1649982Y443332D01*
X1648496Y440553D01*
X1647581Y437537D01*
X1647273Y434400D01*
X1647581Y431264D01*
X1648496Y428247D01*
X1649982Y425468D01*
X1651982Y423032D01*
X1654418Y421032D01*
X1657197Y419546D01*
X1660213Y418632D01*
X1663350Y418323D01*
X1666487Y418632D01*
X1669503Y419546D01*
X1672282Y421032D01*
X1674718Y423032D01*
X1676718Y425468D01*
X1678204Y428247D01*
X1679118Y431264D01*
X1679427Y434400D01*
X1679118Y437537D01*
X1678204Y440553D01*
X1676718Y443332D01*
X1674718Y445769D01*
X1672282Y447768D01*
X1669503Y449254D01*
X1666487Y450168D01*
X1663350Y450477D01*
D02*
G37*
G36*
X809250Y424118D02*
X806909Y423652D01*
X805930Y422998D01*
X804750Y422412D01*
X803569Y422998D01*
X802591Y423652D01*
X800250Y424118D01*
X797909Y423652D01*
X795924Y422326D01*
X794598Y420341D01*
X794133Y418000D01*
X794598Y415659D01*
X795924Y413674D01*
X797909Y412348D01*
X800250Y411883D01*
X802591Y412348D01*
X803569Y413002D01*
X804750Y413588D01*
X805930Y413002D01*
X806909Y412348D01*
X809250Y411883D01*
X811591Y412348D01*
X813576Y413674D01*
X814902Y415659D01*
X815368Y418000D01*
X814902Y420341D01*
X813576Y422326D01*
X811591Y423652D01*
X809250Y424118D01*
D02*
G37*
G36*
X867750Y463868D02*
X865409Y463402D01*
X863424Y462076D01*
X862098Y460091D01*
X861633Y457750D01*
X862098Y455409D01*
X863424Y453424D01*
X865409Y452098D01*
X867750Y451632D01*
X870091Y452098D01*
X872076Y453424D01*
X873402Y455409D01*
X873867Y457750D01*
X873402Y460091D01*
X872076Y462076D01*
X870091Y463402D01*
X867750Y463868D01*
D02*
G37*
G36*
X1637250Y559098D02*
X1635299Y558710D01*
X1633645Y557605D01*
X1632540Y555951D01*
X1632152Y554000D01*
X1632540Y552049D01*
X1633645Y550395D01*
X1635299Y549290D01*
X1637250Y548902D01*
X1639201Y549290D01*
X1640855Y550395D01*
X1641960Y552049D01*
X1642348Y554000D01*
X1641960Y555951D01*
X1640855Y557605D01*
X1639201Y558710D01*
X1637250Y559098D01*
D02*
G37*
G36*
X1167998Y563365D02*
X1165657Y562900D01*
X1163672Y561573D01*
X1162346Y559589D01*
X1161880Y557248D01*
X1162346Y554907D01*
X1163672Y552922D01*
X1165657Y551596D01*
X1167998Y551130D01*
X1170339Y551596D01*
X1172323Y552922D01*
X1173650Y554907D01*
X1174115Y557248D01*
X1173650Y559589D01*
X1172323Y561573D01*
X1170339Y562900D01*
X1167998Y563365D01*
D02*
G37*
G36*
X1547407Y585817D02*
X1544270Y585508D01*
X1541254Y584593D01*
X1538475Y583107D01*
X1536039Y581108D01*
X1534039Y578671D01*
X1532554Y575892D01*
X1531638Y572876D01*
X1531330Y569739D01*
X1531638Y566603D01*
X1532554Y563587D01*
X1534039Y560807D01*
X1536039Y558371D01*
X1538475Y556371D01*
X1541254Y554886D01*
X1544270Y553971D01*
X1547407Y553662D01*
X1550544Y553971D01*
X1553560Y554886D01*
X1556339Y556371D01*
X1558775Y558371D01*
X1560775Y560807D01*
X1562261Y563587D01*
X1563176Y566603D01*
X1563484Y569739D01*
X1563176Y572876D01*
X1562261Y575892D01*
X1560775Y578671D01*
X1558775Y581108D01*
X1556339Y583107D01*
X1553560Y584593D01*
X1550544Y585508D01*
X1547407Y585817D01*
D02*
G37*
G36*
X796500Y567582D02*
X794500D01*
X792020Y567256D01*
X789709Y566298D01*
X787725Y564776D01*
X786202Y562791D01*
X785245Y560480D01*
X784918Y558000D01*
X785245Y555520D01*
X786202Y553209D01*
X787725Y551225D01*
X789709Y549702D01*
X792020Y548745D01*
Y547255D01*
X789709Y546298D01*
X787725Y544775D01*
X786202Y542791D01*
X785245Y540480D01*
X784918Y538000D01*
X785245Y535520D01*
X786202Y533209D01*
X787725Y531225D01*
X789709Y529702D01*
X792020Y528745D01*
X794500Y528418D01*
X796500D01*
X798980Y528745D01*
X801291Y529702D01*
X803276Y531225D01*
X804798Y533209D01*
X805755Y535520D01*
X806082Y538000D01*
X805755Y540480D01*
X804798Y542791D01*
X803276Y544775D01*
X801291Y546298D01*
X798980Y547255D01*
Y548745D01*
X801291Y549702D01*
X803276Y551225D01*
X804798Y553209D01*
X805755Y555520D01*
X806082Y558000D01*
X805755Y560480D01*
X804798Y562791D01*
X803276Y564776D01*
X801291Y566298D01*
X798980Y567256D01*
X796500Y567582D01*
D02*
G37*
G36*
X847000Y519104D02*
X843867Y518691D01*
X840948Y517482D01*
X838441Y515559D01*
X836518Y513052D01*
X835309Y510133D01*
X834896Y507000D01*
X835309Y503867D01*
X836518Y500948D01*
X838441Y498442D01*
X840948Y496518D01*
X843867Y495309D01*
X847000Y494896D01*
X850133Y495309D01*
X853052Y496518D01*
X855558Y498442D01*
X857482Y500948D01*
X858691Y503867D01*
X859104Y507000D01*
X858691Y510133D01*
X857482Y513052D01*
X855558Y515559D01*
X853052Y517482D01*
X850133Y518691D01*
X847000Y519104D01*
D02*
G37*
G36*
X1606500Y508348D02*
X1604549Y507960D01*
X1602895Y506855D01*
X1601790Y505201D01*
X1601402Y503250D01*
X1601736Y501572D01*
X1601020Y500803D01*
X1600538Y500492D01*
X1598750Y500848D01*
X1597014Y500503D01*
X1597006Y500506D01*
X1596280Y501071D01*
X1595822Y501611D01*
X1596098Y503000D01*
X1595710Y504951D01*
X1594605Y506605D01*
X1592951Y507710D01*
X1591000Y508098D01*
X1589049Y507710D01*
X1587395Y506605D01*
X1586290Y504951D01*
X1585902Y503000D01*
X1586290Y501049D01*
X1587395Y499395D01*
X1589049Y498290D01*
X1591000Y497902D01*
X1592736Y498247D01*
X1592744Y498244D01*
X1593470Y497679D01*
X1593928Y497139D01*
X1593652Y495750D01*
X1594040Y493799D01*
X1595145Y492145D01*
X1596799Y491040D01*
X1598750Y490652D01*
X1600701Y491040D01*
X1602355Y492145D01*
X1603460Y493799D01*
X1603848Y495750D01*
X1603514Y497427D01*
X1604230Y498197D01*
X1604712Y498508D01*
X1606500Y498152D01*
X1608451Y498540D01*
X1610105Y499645D01*
X1611210Y501299D01*
X1611598Y503250D01*
X1611210Y505201D01*
X1610105Y506855D01*
X1608451Y507960D01*
X1606500Y508348D01*
D02*
G37*
G36*
X1629224Y519427D02*
X1627273Y519039D01*
X1625619Y517934D01*
X1624514Y516280D01*
X1624126Y514329D01*
X1624514Y512378D01*
X1625619Y510724D01*
X1627273Y509619D01*
X1629224Y509231D01*
X1631175Y509619D01*
X1632829Y510724D01*
X1633934Y512378D01*
X1634322Y514329D01*
X1633934Y516280D01*
X1632829Y517934D01*
X1631175Y519039D01*
X1629224Y519427D01*
D02*
G37*
G36*
X515000Y1207082D02*
X512520Y1206756D01*
X510209Y1205798D01*
X508225Y1204276D01*
X506702Y1202291D01*
X505745Y1199980D01*
X505418Y1197500D01*
Y1187500D01*
X505745Y1185020D01*
X506702Y1182709D01*
X508225Y1180724D01*
X510209Y1179202D01*
X512520Y1178244D01*
X515000Y1177918D01*
X517480Y1178244D01*
X519791Y1179202D01*
X521776Y1180724D01*
X523298Y1182709D01*
X524255Y1185020D01*
X524582Y1187500D01*
Y1197500D01*
X524255Y1199980D01*
X523298Y1202291D01*
X521776Y1204276D01*
X519791Y1205798D01*
X517480Y1206756D01*
X515000Y1207082D01*
D02*
G37*
G36*
X540400D02*
X537920Y1206756D01*
X535609Y1205798D01*
X533625Y1204276D01*
X532102Y1202291D01*
X531145Y1199980D01*
X530818Y1197500D01*
Y1187500D01*
X531145Y1185020D01*
X532102Y1182709D01*
X533625Y1180724D01*
X535609Y1179202D01*
X537920Y1178244D01*
X540400Y1177918D01*
X542880Y1178244D01*
X545191Y1179202D01*
X547175Y1180724D01*
X548698Y1182709D01*
X549655Y1185020D01*
X549982Y1187500D01*
Y1197500D01*
X549655Y1199980D01*
X548698Y1202291D01*
X547175Y1204276D01*
X545191Y1205798D01*
X542880Y1206756D01*
X540400Y1207082D01*
D02*
G37*
G36*
X565800D02*
X563320Y1206756D01*
X561009Y1205798D01*
X559025Y1204276D01*
X557502Y1202291D01*
X556545Y1199980D01*
X556218Y1197500D01*
Y1187500D01*
X556545Y1185020D01*
X557502Y1182709D01*
X559025Y1180724D01*
X561009Y1179202D01*
X563320Y1178244D01*
X565800Y1177918D01*
X568280Y1178244D01*
X570591Y1179202D01*
X572575Y1180724D01*
X574098Y1182709D01*
X575056Y1185020D01*
X575382Y1187500D01*
Y1197500D01*
X575056Y1199980D01*
X574098Y1202291D01*
X572575Y1204276D01*
X570591Y1205798D01*
X568280Y1206756D01*
X565800Y1207082D01*
D02*
G37*
G36*
X1516750Y1189867D02*
X1514409Y1189402D01*
X1512424Y1188076D01*
X1511098Y1186091D01*
X1510632Y1183750D01*
X1511098Y1181409D01*
X1512424Y1179424D01*
X1514409Y1178098D01*
X1516750Y1177633D01*
X1519091Y1178098D01*
X1521076Y1179424D01*
X1522402Y1181409D01*
X1522867Y1183750D01*
X1522402Y1186091D01*
X1521076Y1188076D01*
X1519091Y1189402D01*
X1516750Y1189867D01*
D02*
G37*
G36*
X894500Y1197604D02*
X891367Y1197191D01*
X888448Y1195982D01*
X885941Y1194059D01*
X884018Y1191552D01*
X882809Y1188633D01*
X882396Y1185500D01*
X882809Y1182367D01*
X884018Y1179448D01*
X885941Y1176942D01*
X888448Y1175018D01*
X891367Y1173809D01*
X894500Y1173396D01*
X897633Y1173809D01*
X900552Y1175018D01*
X903058Y1176942D01*
X904982Y1179448D01*
X906191Y1182367D01*
X906603Y1185500D01*
X906191Y1188633D01*
X904982Y1191552D01*
X903058Y1194059D01*
X900552Y1195982D01*
X897633Y1197191D01*
X894500Y1197604D01*
D02*
G37*
G36*
X941500D02*
X938367Y1197191D01*
X935448Y1195982D01*
X932942Y1194059D01*
X931018Y1191552D01*
X929809Y1188633D01*
X929396Y1185500D01*
X929809Y1182367D01*
X931018Y1179448D01*
X932942Y1176942D01*
X935448Y1175018D01*
X938367Y1173809D01*
X941500Y1173396D01*
X944633Y1173809D01*
X947552Y1175018D01*
X950059Y1176942D01*
X951982Y1179448D01*
X953191Y1182367D01*
X953604Y1185500D01*
X953191Y1188633D01*
X951982Y1191552D01*
X950059Y1194059D01*
X947552Y1195982D01*
X944633Y1197191D01*
X941500Y1197604D01*
D02*
G37*
G36*
X844000Y1188867D02*
X841659Y1188402D01*
X839674Y1187076D01*
X838348Y1185091D01*
X837882Y1182750D01*
X838348Y1180409D01*
X839674Y1178424D01*
X841659Y1177098D01*
X844000Y1176633D01*
X846341Y1177098D01*
X848326Y1178424D01*
X849652Y1180409D01*
X850117Y1182750D01*
X849652Y1185091D01*
X848326Y1187076D01*
X846341Y1188402D01*
X844000Y1188867D01*
D02*
G37*
G36*
X257000Y1195098D02*
X255049Y1194710D01*
X253395Y1193605D01*
X252290Y1191951D01*
X251902Y1190000D01*
X252290Y1188049D01*
X253395Y1186395D01*
X255049Y1185290D01*
X257000Y1184902D01*
X258951Y1185290D01*
X260605Y1186395D01*
X261710Y1188049D01*
X262098Y1190000D01*
X261710Y1191951D01*
X260605Y1193605D01*
X258951Y1194710D01*
X257000Y1195098D01*
D02*
G37*
G36*
X1054200Y1222082D02*
X1051720Y1221756D01*
X1049409Y1220798D01*
X1047424Y1219276D01*
X1045902Y1217291D01*
X1044945Y1214980D01*
X1044618Y1212500D01*
Y1202500D01*
X1044945Y1200020D01*
X1045902Y1197709D01*
X1047424Y1195724D01*
X1049409Y1194202D01*
X1051720Y1193244D01*
X1054200Y1192918D01*
X1056680Y1193244D01*
X1058991Y1194202D01*
X1060975Y1195724D01*
X1062498Y1197709D01*
X1063456Y1200020D01*
X1063782Y1202500D01*
Y1212500D01*
X1063456Y1214980D01*
X1062498Y1217291D01*
X1060975Y1219276D01*
X1058991Y1220798D01*
X1056680Y1221756D01*
X1054200Y1222082D01*
D02*
G37*
G36*
X1079600D02*
X1077120Y1221756D01*
X1074809Y1220798D01*
X1072824Y1219276D01*
X1071302Y1217291D01*
X1070344Y1214980D01*
X1070018Y1212500D01*
Y1202500D01*
X1070344Y1200020D01*
X1071302Y1197709D01*
X1072824Y1195724D01*
X1074809Y1194202D01*
X1077120Y1193244D01*
X1079600Y1192918D01*
X1082080Y1193244D01*
X1084391Y1194202D01*
X1086375Y1195724D01*
X1087898Y1197709D01*
X1088856Y1200020D01*
X1089182Y1202500D01*
Y1212500D01*
X1088856Y1214980D01*
X1087898Y1217291D01*
X1086375Y1219276D01*
X1084391Y1220798D01*
X1082080Y1221756D01*
X1079600Y1222082D01*
D02*
G37*
G36*
X1562750Y1195867D02*
X1560409Y1195402D01*
X1558424Y1194076D01*
X1557098Y1192091D01*
X1556633Y1189750D01*
X1557098Y1187409D01*
X1558424Y1185424D01*
X1560409Y1184098D01*
X1562750Y1183633D01*
X1565091Y1184098D01*
X1567076Y1185424D01*
X1568402Y1187409D01*
X1568868Y1189750D01*
X1568402Y1192091D01*
X1567076Y1194076D01*
X1565091Y1195402D01*
X1562750Y1195867D01*
D02*
G37*
G36*
X648550Y1207332D02*
X646070Y1207005D01*
X643759Y1206048D01*
X641775Y1204526D01*
X640252Y1202541D01*
X639295Y1200230D01*
X638968Y1197750D01*
Y1187750D01*
X639295Y1185270D01*
X640252Y1182959D01*
X641775Y1180975D01*
X643759Y1179452D01*
X646070Y1178494D01*
X648550Y1178168D01*
X651030Y1178494D01*
X653341Y1179452D01*
X655325Y1180975D01*
X656848Y1182959D01*
X657805Y1185270D01*
X658132Y1187750D01*
Y1197750D01*
X657805Y1200230D01*
X656848Y1202541D01*
X655325Y1204526D01*
X653341Y1206048D01*
X651030Y1207005D01*
X648550Y1207332D01*
D02*
G37*
G36*
X673950D02*
X671470Y1207005D01*
X669159Y1206048D01*
X667175Y1204526D01*
X665652Y1202541D01*
X664695Y1200230D01*
X664368Y1197750D01*
Y1187750D01*
X664695Y1185270D01*
X665652Y1182959D01*
X667175Y1180975D01*
X669159Y1179452D01*
X671470Y1178494D01*
X673950Y1178168D01*
X676430Y1178494D01*
X678741Y1179452D01*
X680725Y1180975D01*
X682248Y1182959D01*
X683205Y1185270D01*
X683532Y1187750D01*
Y1197750D01*
X683205Y1200230D01*
X682248Y1202541D01*
X680725Y1204526D01*
X678741Y1206048D01*
X676430Y1207005D01*
X673950Y1207332D01*
D02*
G37*
G36*
X699350D02*
X696870Y1207005D01*
X694559Y1206048D01*
X692575Y1204526D01*
X691052Y1202541D01*
X690095Y1200230D01*
X689768Y1197750D01*
Y1187750D01*
X690095Y1185270D01*
X691052Y1182959D01*
X692575Y1180975D01*
X694559Y1179452D01*
X696870Y1178494D01*
X699350Y1178168D01*
X701830Y1178494D01*
X704141Y1179452D01*
X706125Y1180975D01*
X707648Y1182959D01*
X708605Y1185270D01*
X708932Y1187750D01*
Y1197750D01*
X708605Y1200230D01*
X707648Y1202541D01*
X706125Y1204526D01*
X704141Y1206048D01*
X701830Y1207005D01*
X699350Y1207332D01*
D02*
G37*
G36*
X1267500Y1159867D02*
X1265159Y1159402D01*
X1263174Y1158076D01*
X1261848Y1156091D01*
X1261383Y1153750D01*
X1261848Y1151409D01*
X1263174Y1149424D01*
X1265159Y1148098D01*
X1267500Y1147633D01*
X1269841Y1148098D01*
X1271826Y1149424D01*
X1273152Y1151409D01*
X1273617Y1153750D01*
X1273152Y1156091D01*
X1271826Y1158076D01*
X1269841Y1159402D01*
X1267500Y1159867D01*
D02*
G37*
G36*
X1040000Y1159098D02*
X1038049Y1158710D01*
X1036395Y1157605D01*
X1035290Y1155951D01*
X1034902Y1154000D01*
X1035290Y1152049D01*
X1036395Y1150395D01*
X1038049Y1149290D01*
X1040000Y1148902D01*
X1041951Y1149290D01*
X1043605Y1150395D01*
X1044710Y1152049D01*
X1045098Y1154000D01*
X1044710Y1155951D01*
X1043605Y1157605D01*
X1041951Y1158710D01*
X1040000Y1159098D01*
D02*
G37*
G36*
X1073000Y1156060D02*
X1071173Y1155820D01*
X1069470Y1155115D01*
X1068008Y1153992D01*
X1067402Y1153203D01*
X1067341Y1153171D01*
X1065659D01*
X1065598Y1153203D01*
X1064992Y1153992D01*
X1063530Y1155115D01*
X1061827Y1155820D01*
X1060000Y1156060D01*
X1058173Y1155820D01*
X1056470Y1155115D01*
X1055007Y1153992D01*
X1053885Y1152530D01*
X1053180Y1150827D01*
X1052940Y1149000D01*
X1053180Y1147173D01*
X1053885Y1145470D01*
X1055007Y1144007D01*
X1056470Y1142886D01*
X1057931Y1142280D01*
X1058060Y1141500D01*
X1057931Y1140720D01*
X1056470Y1140115D01*
X1055007Y1138992D01*
X1053885Y1137530D01*
X1053180Y1135827D01*
X1052940Y1134000D01*
X1053180Y1132173D01*
X1053885Y1130470D01*
X1055007Y1129007D01*
X1056470Y1127886D01*
X1058173Y1127180D01*
X1060000Y1126940D01*
X1061827Y1127180D01*
X1063530Y1127886D01*
X1064992Y1129007D01*
X1066115Y1130470D01*
X1066820Y1132173D01*
X1067060Y1134000D01*
X1066820Y1135827D01*
X1066115Y1137530D01*
X1064992Y1138992D01*
X1063530Y1140115D01*
X1062069Y1140720D01*
X1061940Y1141500D01*
X1062069Y1142280D01*
X1063530Y1142886D01*
X1064992Y1144007D01*
X1065598Y1144797D01*
X1065659Y1144829D01*
X1067341D01*
X1067402Y1144797D01*
X1068008Y1144007D01*
X1069470Y1142886D01*
X1071173Y1142180D01*
X1073000Y1141940D01*
X1074827Y1142180D01*
X1076530Y1142886D01*
X1077992Y1144007D01*
X1079115Y1145470D01*
X1079820Y1147173D01*
X1080060Y1149000D01*
X1079820Y1150827D01*
X1079115Y1152530D01*
X1077992Y1153992D01*
X1076530Y1155115D01*
X1074827Y1155820D01*
X1073000Y1156060D01*
D02*
G37*
G36*
X560000Y1154098D02*
X558049Y1153710D01*
X556395Y1152605D01*
X555290Y1150951D01*
X554902Y1149000D01*
X555290Y1147049D01*
X556395Y1145395D01*
X558049Y1144290D01*
X560000Y1143902D01*
X561951Y1144290D01*
X563605Y1145395D01*
X564710Y1147049D01*
X565098Y1149000D01*
X564710Y1150951D01*
X563605Y1152605D01*
X561951Y1153710D01*
X560000Y1154098D01*
D02*
G37*
G36*
X1403500Y1138098D02*
X1401549Y1137710D01*
X1399895Y1136605D01*
X1399750Y1136387D01*
X1398250D01*
X1398105Y1136605D01*
X1396451Y1137710D01*
X1394500Y1138098D01*
X1392549Y1137710D01*
X1390895Y1136605D01*
X1389790Y1134951D01*
X1389402Y1133000D01*
X1389790Y1131049D01*
X1390895Y1129395D01*
X1392549Y1128290D01*
X1394500Y1127902D01*
X1396451Y1128290D01*
X1398105Y1129395D01*
X1398250Y1129613D01*
X1399750D01*
X1399895Y1129395D01*
X1401549Y1128290D01*
X1403500Y1127902D01*
X1405451Y1128290D01*
X1407105Y1129395D01*
X1408210Y1131049D01*
X1408598Y1133000D01*
X1408210Y1134951D01*
X1407105Y1136605D01*
X1405451Y1137710D01*
X1403500Y1138098D01*
D02*
G37*
G36*
X1590500Y1146598D02*
X1588549Y1146210D01*
X1586895Y1145105D01*
X1585790Y1143451D01*
X1585402Y1141500D01*
X1585790Y1139549D01*
X1586895Y1137895D01*
X1588549Y1136790D01*
X1590500Y1136402D01*
X1592451Y1136790D01*
X1594105Y1137895D01*
X1595210Y1139549D01*
X1595598Y1141500D01*
X1595210Y1143451D01*
X1594105Y1145105D01*
X1592451Y1146210D01*
X1590500Y1146598D01*
D02*
G37*
G36*
X1048000Y1147098D02*
X1046049Y1146710D01*
X1044395Y1145605D01*
X1043290Y1143951D01*
X1042902Y1142000D01*
X1043290Y1140049D01*
X1044395Y1138395D01*
X1046049Y1137290D01*
X1048000Y1136902D01*
X1049951Y1137290D01*
X1051605Y1138395D01*
X1052710Y1140049D01*
X1053098Y1142000D01*
X1052710Y1143951D01*
X1051605Y1145605D01*
X1049951Y1146710D01*
X1048000Y1147098D01*
D02*
G37*
G36*
X1180000Y1174848D02*
X1178049Y1174460D01*
X1176395Y1173355D01*
X1175290Y1171701D01*
X1174902Y1169750D01*
X1175290Y1167799D01*
X1176395Y1166145D01*
X1178049Y1165040D01*
X1180000Y1164652D01*
X1181951Y1165040D01*
X1183605Y1166145D01*
X1184710Y1167799D01*
X1185098Y1169750D01*
X1184710Y1171701D01*
X1183605Y1173355D01*
X1181951Y1174460D01*
X1180000Y1174848D01*
D02*
G37*
G36*
X1297750Y1184118D02*
X1295409Y1183652D01*
X1293424Y1182326D01*
X1292098Y1180341D01*
X1291633Y1178000D01*
X1292098Y1175659D01*
X1293424Y1173674D01*
X1295409Y1172348D01*
X1297750Y1171882D01*
X1300091Y1172348D01*
X1302076Y1173674D01*
X1303402Y1175659D01*
X1303867Y1178000D01*
X1303402Y1180341D01*
X1302076Y1182326D01*
X1300091Y1183652D01*
X1297750Y1184118D01*
D02*
G37*
G36*
X1267250Y1184617D02*
X1264909Y1184152D01*
X1262924Y1182826D01*
X1261598Y1180841D01*
X1261133Y1178500D01*
X1261598Y1176159D01*
X1262924Y1174174D01*
X1264909Y1172848D01*
X1267250Y1172383D01*
X1269591Y1172848D01*
X1271576Y1174174D01*
X1272902Y1176159D01*
X1273367Y1178500D01*
X1272902Y1180841D01*
X1271576Y1182826D01*
X1269591Y1184152D01*
X1267250Y1184617D01*
D02*
G37*
G36*
X998250Y1174098D02*
X996299Y1173710D01*
X994645Y1172605D01*
X993540Y1170951D01*
X993152Y1169000D01*
X993540Y1167049D01*
X994645Y1165395D01*
X996299Y1164290D01*
X998250Y1163902D01*
X1000201Y1164290D01*
X1001855Y1165395D01*
X1002960Y1167049D01*
X1003348Y1169000D01*
X1002960Y1170951D01*
X1001855Y1172605D01*
X1000201Y1173710D01*
X998250Y1174098D01*
D02*
G37*
G36*
X961000Y1159310D02*
X959173Y1159070D01*
X957470Y1158364D01*
X956008Y1157242D01*
X955654Y1156782D01*
X954154D01*
X953992Y1156992D01*
X952530Y1158114D01*
X950827Y1158820D01*
X949000Y1159060D01*
X947173Y1158820D01*
X945470Y1158114D01*
X944008Y1156992D01*
X942886Y1155530D01*
X942180Y1153827D01*
X941940Y1152000D01*
X942180Y1150173D01*
X942886Y1148470D01*
X944008Y1147008D01*
X944893Y1146328D01*
X945004Y1144725D01*
X944911Y1144494D01*
X944258Y1143992D01*
X943136Y1142530D01*
X942430Y1140827D01*
X942190Y1139000D01*
X942430Y1137173D01*
X943136Y1135470D01*
X944258Y1134008D01*
X945720Y1132886D01*
X947423Y1132180D01*
X949250Y1131940D01*
X951077Y1132180D01*
X952780Y1132886D01*
X954242Y1134008D01*
X955365Y1135470D01*
X956070Y1137173D01*
X956310Y1139000D01*
X956070Y1140827D01*
X955365Y1142530D01*
X954242Y1143992D01*
X953356Y1144672D01*
X953246Y1146275D01*
X953339Y1146506D01*
X953992Y1147008D01*
X954346Y1147468D01*
X955846D01*
X956008Y1147258D01*
X957470Y1146135D01*
X959173Y1145430D01*
X961000Y1145190D01*
X962827Y1145430D01*
X964530Y1146135D01*
X965993Y1147258D01*
X967114Y1148720D01*
X967820Y1150423D01*
X968060Y1152250D01*
X967820Y1154077D01*
X967114Y1155780D01*
X965993Y1157242D01*
X964530Y1158364D01*
X962827Y1159070D01*
X961000Y1159310D01*
D02*
G37*
G36*
X628500Y1184304D02*
X625367Y1183891D01*
X622448Y1182682D01*
X619941Y1180759D01*
X618018Y1178252D01*
X616809Y1175333D01*
X616396Y1172200D01*
X616809Y1169067D01*
X618018Y1166148D01*
X619941Y1163642D01*
X622448Y1161718D01*
X625367Y1160509D01*
X628500Y1160096D01*
X631633Y1160509D01*
X634552Y1161718D01*
X637058Y1163642D01*
X638982Y1166148D01*
X640191Y1169067D01*
X640603Y1172200D01*
X640191Y1175333D01*
X638982Y1178252D01*
X637058Y1180759D01*
X634552Y1182682D01*
X631633Y1183891D01*
X628500Y1184304D01*
D02*
G37*
G36*
X482750Y1174368D02*
X480409Y1173902D01*
X478424Y1172576D01*
X477098Y1170591D01*
X476632Y1168250D01*
X477098Y1165909D01*
X478424Y1163924D01*
X480409Y1162598D01*
X482750Y1162132D01*
X485091Y1162598D01*
X487076Y1163924D01*
X488402Y1165909D01*
X488868Y1168250D01*
X488402Y1170591D01*
X487076Y1172576D01*
X485091Y1173902D01*
X482750Y1174368D01*
D02*
G37*
G36*
X1105000Y1222082D02*
X1102520Y1221756D01*
X1100209Y1220798D01*
X1098224Y1219276D01*
X1096702Y1217291D01*
X1095744Y1214980D01*
X1095418Y1212500D01*
Y1202500D01*
X1095744Y1200020D01*
X1096702Y1197709D01*
X1098224Y1195724D01*
X1100209Y1194202D01*
X1102520Y1193244D01*
X1105000Y1192918D01*
X1107480Y1193244D01*
X1109791Y1194202D01*
X1111775Y1195724D01*
X1113298Y1197709D01*
X1114256Y1200020D01*
X1114582Y1202500D01*
Y1212500D01*
X1114256Y1214980D01*
X1113298Y1217291D01*
X1111775Y1219276D01*
X1109791Y1220798D01*
X1107480Y1221756D01*
X1105000Y1222082D01*
D02*
G37*
G36*
X773500Y1266868D02*
X771159Y1266402D01*
X769174Y1265076D01*
X767848Y1263091D01*
X767383Y1260750D01*
X767848Y1258409D01*
X769174Y1256424D01*
X771159Y1255098D01*
X773500Y1254632D01*
X775841Y1255098D01*
X777826Y1256424D01*
X779152Y1258409D01*
X779617Y1260750D01*
X779152Y1263091D01*
X777826Y1265076D01*
X775841Y1266402D01*
X773500Y1266868D01*
D02*
G37*
G36*
X322750Y1274368D02*
X320409Y1273902D01*
X318424Y1272576D01*
X317098Y1270591D01*
X316632Y1268250D01*
X317098Y1265909D01*
X318424Y1263924D01*
X320409Y1262598D01*
X322750Y1262132D01*
X325091Y1262598D01*
X327076Y1263924D01*
X328402Y1265909D01*
X328867Y1268250D01*
X328402Y1270591D01*
X327076Y1272576D01*
X325091Y1273902D01*
X322750Y1274368D01*
D02*
G37*
G36*
X556250D02*
X553909Y1273902D01*
X551924Y1272576D01*
X550598Y1270591D01*
X550132Y1268250D01*
X550598Y1265909D01*
X551924Y1263924D01*
X553909Y1262598D01*
X556250Y1262132D01*
X558591Y1262598D01*
X560576Y1263924D01*
X561902Y1265909D01*
X562368Y1268250D01*
X561902Y1270591D01*
X560576Y1272576D01*
X558591Y1273902D01*
X556250Y1274368D01*
D02*
G37*
G36*
X1304000Y1266367D02*
X1301659Y1265902D01*
X1299674Y1264576D01*
X1298348Y1262591D01*
X1297883Y1260250D01*
X1298348Y1257909D01*
X1299674Y1255924D01*
X1301659Y1254598D01*
X1304000Y1254133D01*
X1306341Y1254598D01*
X1308326Y1255924D01*
X1309652Y1257909D01*
X1310117Y1260250D01*
X1309652Y1262591D01*
X1308326Y1264576D01*
X1306341Y1265902D01*
X1304000Y1266367D01*
D02*
G37*
G36*
X1411500Y1248367D02*
X1409159Y1247902D01*
X1407174Y1246576D01*
X1405848Y1244591D01*
X1405383Y1242250D01*
X1405848Y1239909D01*
X1407174Y1237924D01*
X1409159Y1236598D01*
X1411500Y1236133D01*
X1413841Y1236598D01*
X1415826Y1237924D01*
X1417152Y1239909D01*
X1417617Y1242250D01*
X1417152Y1244591D01*
X1415826Y1246576D01*
X1413841Y1247902D01*
X1411500Y1248367D01*
D02*
G37*
G36*
X1330250Y1247868D02*
X1327909Y1247402D01*
X1325924Y1246076D01*
X1324598Y1244091D01*
X1324133Y1241750D01*
X1324598Y1239409D01*
X1325054Y1238727D01*
X1324132Y1237407D01*
X1323000Y1237556D01*
X1321303Y1237333D01*
X1319722Y1236678D01*
X1318364Y1235636D01*
X1317322Y1234278D01*
X1316667Y1232697D01*
X1316444Y1231000D01*
X1316667Y1229303D01*
X1317322Y1227722D01*
X1318364Y1226364D01*
X1319722Y1225322D01*
X1321303Y1224667D01*
X1323000Y1224444D01*
X1324697Y1224667D01*
X1326278Y1225322D01*
X1327636Y1226364D01*
X1328678Y1227722D01*
X1329333Y1229303D01*
X1329556Y1231000D01*
X1329333Y1232697D01*
X1328678Y1234278D01*
X1328553Y1234441D01*
X1329399Y1235802D01*
X1330250Y1235632D01*
X1332591Y1236098D01*
X1334576Y1237424D01*
X1335902Y1239409D01*
X1336367Y1241750D01*
X1335902Y1244091D01*
X1334576Y1246076D01*
X1332591Y1247402D01*
X1330250Y1247868D01*
D02*
G37*
G36*
X908500Y1252060D02*
X906673Y1251820D01*
X904970Y1251115D01*
X903508Y1249992D01*
X903279Y1249695D01*
X902271D01*
X901543Y1249896D01*
X900280Y1250864D01*
X898577Y1251570D01*
X896750Y1251810D01*
X894923Y1251570D01*
X893220Y1250864D01*
X891758Y1249743D01*
X890636Y1248280D01*
X889930Y1246577D01*
X889690Y1244750D01*
X889930Y1242923D01*
X890636Y1241220D01*
X891758Y1239758D01*
X893220Y1238635D01*
X894923Y1237930D01*
X896750Y1237690D01*
X898577Y1237930D01*
X900280Y1238635D01*
X901742Y1239758D01*
X901971Y1240055D01*
X902979D01*
X903707Y1239854D01*
X904297Y1239402D01*
X904329Y1239341D01*
Y1237659D01*
X904297Y1237598D01*
X903508Y1236992D01*
X902385Y1235530D01*
X901680Y1233827D01*
X901440Y1232000D01*
X901680Y1230173D01*
X902385Y1228470D01*
X903508Y1227008D01*
X904970Y1225885D01*
X905500Y1225666D01*
X905745Y1223941D01*
X905180Y1222577D01*
X904940Y1220750D01*
X905180Y1218923D01*
X905885Y1217220D01*
X907008Y1215758D01*
X908470Y1214635D01*
X910173Y1213930D01*
X912000Y1213690D01*
X913827Y1213930D01*
X915530Y1214635D01*
X916992Y1215758D01*
X918114Y1217220D01*
X918820Y1218923D01*
X919060Y1220750D01*
X918820Y1222577D01*
X918114Y1224280D01*
X916992Y1225742D01*
X915530Y1226864D01*
X915000Y1227084D01*
X914755Y1228809D01*
X915320Y1230173D01*
X915560Y1232000D01*
X915320Y1233827D01*
X914614Y1235530D01*
X913493Y1236992D01*
X912703Y1237598D01*
X912671Y1237659D01*
Y1239341D01*
X912703Y1239402D01*
X913493Y1240008D01*
X914614Y1241470D01*
X915320Y1243173D01*
X915560Y1245000D01*
X915320Y1246827D01*
X914614Y1248530D01*
X913493Y1249992D01*
X912030Y1251115D01*
X910327Y1251820D01*
X908500Y1252060D01*
D02*
G37*
G36*
X443500Y1312103D02*
X435500D01*
X432367Y1311691D01*
X429448Y1310482D01*
X426941Y1308559D01*
X425018Y1306052D01*
X423809Y1303133D01*
X423396Y1300000D01*
X423809Y1296867D01*
X425018Y1293948D01*
X426941Y1291441D01*
X429448Y1289518D01*
X432367Y1288309D01*
X435500Y1287896D01*
X443500D01*
X446633Y1288309D01*
X449552Y1289518D01*
X452058Y1291441D01*
X453982Y1293948D01*
X455191Y1296867D01*
X455604Y1300000D01*
X455191Y1303133D01*
X453982Y1306052D01*
X452058Y1308559D01*
X449552Y1310482D01*
X446633Y1311691D01*
X443500Y1312103D01*
D02*
G37*
G36*
X531700D02*
X523700D01*
X520567Y1311691D01*
X517648Y1310482D01*
X515141Y1308559D01*
X513218Y1306052D01*
X512009Y1303133D01*
X511596Y1300000D01*
X512009Y1296867D01*
X513218Y1293948D01*
X515141Y1291441D01*
X517648Y1289518D01*
X520567Y1288309D01*
X523700Y1287896D01*
X531700D01*
X534833Y1288309D01*
X537752Y1289518D01*
X540258Y1291441D01*
X542182Y1293948D01*
X543391Y1296867D01*
X543804Y1300000D01*
X543391Y1303133D01*
X542182Y1306052D01*
X540258Y1308559D01*
X537752Y1310482D01*
X534833Y1311691D01*
X531700Y1312103D01*
D02*
G37*
G36*
X621500D02*
X613500D01*
X610367Y1311691D01*
X607448Y1310482D01*
X604941Y1308559D01*
X603018Y1306052D01*
X601809Y1303133D01*
X601396Y1300000D01*
X601809Y1296867D01*
X603018Y1293948D01*
X604941Y1291441D01*
X607448Y1289518D01*
X610367Y1288309D01*
X613500Y1287896D01*
X621500D01*
X624633Y1288309D01*
X627552Y1289518D01*
X630059Y1291441D01*
X631982Y1293948D01*
X633191Y1296867D01*
X633604Y1300000D01*
X633191Y1303133D01*
X631982Y1306052D01*
X630059Y1308559D01*
X627552Y1310482D01*
X624633Y1311691D01*
X621500Y1312103D01*
D02*
G37*
G36*
X352300D02*
X344300D01*
X341167Y1311691D01*
X338248Y1310482D01*
X335742Y1308559D01*
X333818Y1306052D01*
X332609Y1303133D01*
X332196Y1300000D01*
X332609Y1296867D01*
X333818Y1293948D01*
X335742Y1291441D01*
X338248Y1289518D01*
X341167Y1288309D01*
X344300Y1287896D01*
X352300D01*
X355433Y1288309D01*
X358352Y1289518D01*
X360858Y1291441D01*
X362782Y1293948D01*
X363991Y1296867D01*
X364403Y1300000D01*
X363991Y1303133D01*
X362782Y1306052D01*
X360858Y1308559D01*
X358352Y1310482D01*
X355433Y1311691D01*
X352300Y1312103D01*
D02*
G37*
G36*
X501500Y1274867D02*
X499159Y1274402D01*
X497174Y1273076D01*
X495848Y1271091D01*
X495382Y1268750D01*
X495848Y1266409D01*
X497174Y1264424D01*
X499159Y1263098D01*
X501500Y1262633D01*
X503841Y1263098D01*
X505826Y1264424D01*
X507152Y1266409D01*
X507617Y1268750D01*
X507152Y1271091D01*
X505826Y1273076D01*
X503841Y1274402D01*
X501500Y1274867D01*
D02*
G37*
G36*
X416250Y1275117D02*
X413909Y1274652D01*
X411924Y1273326D01*
X410598Y1271341D01*
X410132Y1269000D01*
X410598Y1266659D01*
X411924Y1264674D01*
X413909Y1263348D01*
X416250Y1262883D01*
X418591Y1263348D01*
X420576Y1264674D01*
X421902Y1266659D01*
X422368Y1269000D01*
X421902Y1271341D01*
X420576Y1273326D01*
X418591Y1274652D01*
X416250Y1275117D01*
D02*
G37*
G36*
X592250D02*
X589909Y1274652D01*
X587924Y1273326D01*
X586598Y1271341D01*
X586133Y1269000D01*
X586598Y1266659D01*
X587924Y1264674D01*
X589909Y1263348D01*
X592250Y1262883D01*
X594591Y1263348D01*
X596576Y1264674D01*
X597902Y1266659D01*
X598368Y1269000D01*
X597902Y1271341D01*
X596576Y1273326D01*
X594591Y1274652D01*
X592250Y1275117D01*
D02*
G37*
G36*
X335600Y1249582D02*
X333120Y1249256D01*
X330809Y1248298D01*
X328825Y1246776D01*
X327302Y1244791D01*
X326344Y1242480D01*
X326018Y1240000D01*
Y1230000D01*
X326344Y1227520D01*
X327302Y1225209D01*
X328825Y1223224D01*
X330809Y1221702D01*
X333120Y1220744D01*
X335600Y1220418D01*
X338080Y1220744D01*
X340391Y1221702D01*
X342375Y1223224D01*
X343898Y1225209D01*
X344855Y1227520D01*
X345182Y1230000D01*
Y1240000D01*
X344855Y1242480D01*
X343898Y1244791D01*
X342375Y1246776D01*
X340391Y1248298D01*
X338080Y1249256D01*
X335600Y1249582D01*
D02*
G37*
G36*
X361000D02*
X358520Y1249256D01*
X356209Y1248298D01*
X354225Y1246776D01*
X352702Y1244791D01*
X351744Y1242480D01*
X351418Y1240000D01*
Y1230000D01*
X351744Y1227520D01*
X352702Y1225209D01*
X354225Y1223224D01*
X356209Y1221702D01*
X358520Y1220744D01*
X361000Y1220418D01*
X363480Y1220744D01*
X365791Y1221702D01*
X367775Y1223224D01*
X369298Y1225209D01*
X370255Y1227520D01*
X370582Y1230000D01*
Y1240000D01*
X370255Y1242480D01*
X369298Y1244791D01*
X367775Y1246776D01*
X365791Y1248298D01*
X363480Y1249256D01*
X361000Y1249582D01*
D02*
G37*
G36*
X426800D02*
X424320Y1249256D01*
X422009Y1248298D01*
X420025Y1246776D01*
X418502Y1244791D01*
X417545Y1242480D01*
X417218Y1240000D01*
Y1230000D01*
X417545Y1227520D01*
X418502Y1225209D01*
X420025Y1223224D01*
X422009Y1221702D01*
X424320Y1220744D01*
X426800Y1220418D01*
X429280Y1220744D01*
X431591Y1221702D01*
X433576Y1223224D01*
X435098Y1225209D01*
X436055Y1227520D01*
X436382Y1230000D01*
Y1240000D01*
X436055Y1242480D01*
X435098Y1244791D01*
X433576Y1246776D01*
X431591Y1248298D01*
X429280Y1249256D01*
X426800Y1249582D01*
D02*
G37*
G36*
X1433500Y1228556D02*
X1431803Y1228333D01*
X1430222Y1227678D01*
X1428864Y1226636D01*
X1427822Y1225278D01*
X1427167Y1223697D01*
X1426944Y1222000D01*
X1427167Y1220303D01*
X1427822Y1218722D01*
X1428864Y1217364D01*
X1430222Y1216322D01*
X1431803Y1215667D01*
X1433500Y1215444D01*
X1435197Y1215667D01*
X1436778Y1216322D01*
X1438136Y1217364D01*
X1439178Y1218722D01*
X1439833Y1220303D01*
X1440056Y1222000D01*
X1439833Y1223697D01*
X1439178Y1225278D01*
X1438136Y1226636D01*
X1436778Y1227678D01*
X1435197Y1228333D01*
X1433500Y1228556D01*
D02*
G37*
G36*
X1130400Y1222082D02*
X1127920Y1221756D01*
X1125609Y1220798D01*
X1123624Y1219276D01*
X1122102Y1217291D01*
X1121144Y1214980D01*
X1120818Y1212500D01*
Y1202500D01*
X1121144Y1200020D01*
X1122102Y1197709D01*
X1123624Y1195724D01*
X1125609Y1194202D01*
X1127920Y1193244D01*
X1130400Y1192918D01*
X1132880Y1193244D01*
X1135191Y1194202D01*
X1137175Y1195724D01*
X1138698Y1197709D01*
X1139656Y1200020D01*
X1139982Y1202500D01*
Y1212500D01*
X1139656Y1214980D01*
X1138698Y1217291D01*
X1137175Y1219276D01*
X1135191Y1220798D01*
X1132880Y1221756D01*
X1130400Y1222082D01*
D02*
G37*
G36*
X1155800D02*
X1153320Y1221756D01*
X1151009Y1220798D01*
X1149025Y1219276D01*
X1147502Y1217291D01*
X1146544Y1214980D01*
X1146218Y1212500D01*
Y1202500D01*
X1146544Y1200020D01*
X1147502Y1197709D01*
X1149025Y1195724D01*
X1151009Y1194202D01*
X1153320Y1193244D01*
X1155800Y1192918D01*
X1158280Y1193244D01*
X1160591Y1194202D01*
X1162575Y1195724D01*
X1164098Y1197709D01*
X1165055Y1200020D01*
X1165382Y1202500D01*
Y1212500D01*
X1165055Y1214980D01*
X1164098Y1217291D01*
X1162575Y1219276D01*
X1160591Y1220798D01*
X1158280Y1221756D01*
X1155800Y1222082D01*
D02*
G37*
G36*
X1403500Y1228556D02*
X1401803Y1228333D01*
X1400222Y1227678D01*
X1398864Y1226636D01*
X1397822Y1225278D01*
X1397167Y1223697D01*
X1396944Y1222000D01*
X1397167Y1220303D01*
X1397822Y1218722D01*
X1398864Y1217364D01*
X1400222Y1216322D01*
X1401803Y1215667D01*
X1403500Y1215444D01*
X1405197Y1215667D01*
X1406778Y1216322D01*
X1408136Y1217364D01*
X1409178Y1218722D01*
X1409833Y1220303D01*
X1410056Y1222000D01*
X1409833Y1223697D01*
X1409178Y1225278D01*
X1408136Y1226636D01*
X1406778Y1227678D01*
X1405197Y1228333D01*
X1403500Y1228556D01*
D02*
G37*
G36*
X630200Y1249582D02*
X627720Y1249256D01*
X625409Y1248298D01*
X623425Y1246776D01*
X621902Y1244791D01*
X620945Y1242480D01*
X620618Y1240000D01*
Y1230000D01*
X620945Y1227520D01*
X621902Y1225209D01*
X623425Y1223224D01*
X625409Y1221702D01*
X627720Y1220744D01*
X630200Y1220418D01*
X632680Y1220744D01*
X634991Y1221702D01*
X636976Y1223224D01*
X638498Y1225209D01*
X639455Y1227520D01*
X639782Y1230000D01*
Y1240000D01*
X639455Y1242480D01*
X638498Y1244791D01*
X636976Y1246776D01*
X634991Y1248298D01*
X632680Y1249256D01*
X630200Y1249582D01*
D02*
G37*
G36*
X1353000Y1237556D02*
X1351303Y1237333D01*
X1349722Y1236678D01*
X1348364Y1235636D01*
X1347322Y1234278D01*
X1346667Y1232697D01*
X1346444Y1231000D01*
X1346667Y1229303D01*
X1347322Y1227722D01*
X1348364Y1226364D01*
X1349722Y1225322D01*
X1351303Y1224667D01*
X1353000Y1224444D01*
X1354697Y1224667D01*
X1356278Y1225322D01*
X1357636Y1226364D01*
X1358678Y1227722D01*
X1359333Y1229303D01*
X1359556Y1231000D01*
X1359333Y1232697D01*
X1358678Y1234278D01*
X1357636Y1235636D01*
X1356278Y1236678D01*
X1354697Y1237333D01*
X1353000Y1237556D01*
D02*
G37*
G36*
X880000Y1242617D02*
X877659Y1242152D01*
X875674Y1240826D01*
X874348Y1238841D01*
X873883Y1236500D01*
X874348Y1234159D01*
X875674Y1232174D01*
X877659Y1230848D01*
X880000Y1230383D01*
X882341Y1230848D01*
X884326Y1232174D01*
X885652Y1234159D01*
X886117Y1236500D01*
X885652Y1238841D01*
X884326Y1240826D01*
X882341Y1242152D01*
X880000Y1242617D01*
D02*
G37*
G36*
X604800Y1249582D02*
X602320Y1249256D01*
X600009Y1248298D01*
X598025Y1246776D01*
X596502Y1244791D01*
X595545Y1242480D01*
X595218Y1240000D01*
Y1230000D01*
X595545Y1227520D01*
X596502Y1225209D01*
X598025Y1223224D01*
X600009Y1221702D01*
X602320Y1220744D01*
X604800Y1220418D01*
X607280Y1220744D01*
X609591Y1221702D01*
X611576Y1223224D01*
X613098Y1225209D01*
X614055Y1227520D01*
X614382Y1230000D01*
Y1240000D01*
X614055Y1242480D01*
X613098Y1244791D01*
X611576Y1246776D01*
X609591Y1248298D01*
X607280Y1249256D01*
X604800Y1249582D01*
D02*
G37*
G36*
X452200D02*
X449720Y1249256D01*
X447409Y1248298D01*
X445425Y1246776D01*
X443902Y1244791D01*
X442945Y1242480D01*
X442618Y1240000D01*
Y1230000D01*
X442945Y1227520D01*
X443902Y1225209D01*
X445425Y1223224D01*
X447409Y1221702D01*
X449720Y1220744D01*
X452200Y1220418D01*
X454680Y1220744D01*
X456991Y1221702D01*
X458975Y1223224D01*
X460498Y1225209D01*
X461455Y1227520D01*
X461782Y1230000D01*
Y1240000D01*
X461455Y1242480D01*
X460498Y1244791D01*
X458975Y1246776D01*
X456991Y1248298D01*
X454680Y1249256D01*
X452200Y1249582D01*
D02*
G37*
G36*
X515000D02*
X512520Y1249256D01*
X510209Y1248298D01*
X508225Y1246776D01*
X506702Y1244791D01*
X505745Y1242480D01*
X505418Y1240000D01*
Y1230000D01*
X505745Y1227520D01*
X506702Y1225209D01*
X508225Y1223224D01*
X510209Y1221702D01*
X512520Y1220744D01*
X515000Y1220418D01*
X517480Y1220744D01*
X519791Y1221702D01*
X521776Y1223224D01*
X523298Y1225209D01*
X524255Y1227520D01*
X524582Y1230000D01*
Y1240000D01*
X524255Y1242480D01*
X523298Y1244791D01*
X521776Y1246776D01*
X519791Y1248298D01*
X517480Y1249256D01*
X515000Y1249582D01*
D02*
G37*
G36*
X540400D02*
X537920Y1249256D01*
X535609Y1248298D01*
X533625Y1246776D01*
X532102Y1244791D01*
X531145Y1242480D01*
X530818Y1240000D01*
Y1230000D01*
X531145Y1227520D01*
X532102Y1225209D01*
X533625Y1223224D01*
X535609Y1221702D01*
X537920Y1220744D01*
X540400Y1220418D01*
X542880Y1220744D01*
X545191Y1221702D01*
X547175Y1223224D01*
X548698Y1225209D01*
X549655Y1227520D01*
X549982Y1230000D01*
Y1240000D01*
X549655Y1242480D01*
X548698Y1244791D01*
X547175Y1246776D01*
X545191Y1248298D01*
X542880Y1249256D01*
X540400Y1249582D01*
D02*
G37*
G36*
X1616250Y1146098D02*
X1614299Y1145710D01*
X1612645Y1144605D01*
X1611540Y1142951D01*
X1611152Y1141000D01*
X1611540Y1139049D01*
X1612645Y1137395D01*
X1614299Y1136290D01*
X1616250Y1135902D01*
X1618201Y1136290D01*
X1619855Y1137395D01*
X1620960Y1139049D01*
X1621348Y1141000D01*
X1620960Y1142951D01*
X1619855Y1144605D01*
X1618201Y1145710D01*
X1616250Y1146098D01*
D02*
G37*
G36*
X828000Y1021060D02*
X826173Y1020820D01*
X824470Y1020115D01*
X823008Y1018992D01*
X821886Y1017530D01*
X821180Y1015827D01*
X820940Y1014000D01*
X821180Y1012173D01*
X821886Y1010470D01*
X823008Y1009008D01*
X823343Y1008750D01*
Y1007250D01*
X823008Y1006992D01*
X821886Y1005530D01*
X821180Y1003827D01*
X820940Y1002000D01*
X821180Y1000173D01*
X821886Y998470D01*
X823008Y997008D01*
X824470Y995885D01*
X826173Y995180D01*
X828000Y994940D01*
X829827Y995180D01*
X831530Y995885D01*
X832992Y997008D01*
X834115Y998470D01*
X834720Y999931D01*
X835500Y1000060D01*
X836280Y999931D01*
X836886Y998470D01*
X838008Y997008D01*
X839470Y995885D01*
X841173Y995180D01*
X843000Y994940D01*
X844827Y995180D01*
X846530Y995885D01*
X847992Y997008D01*
X849115Y998470D01*
X849820Y1000173D01*
X850060Y1002000D01*
X849820Y1003827D01*
X849115Y1005530D01*
X847992Y1006992D01*
X846530Y1008114D01*
X844827Y1008820D01*
X843000Y1009060D01*
X841173Y1008820D01*
X839470Y1008114D01*
X838008Y1006992D01*
X836886Y1005530D01*
X836280Y1004069D01*
X835500Y1003940D01*
X834720Y1004069D01*
X834115Y1005530D01*
X832992Y1006992D01*
X832657Y1007250D01*
Y1008750D01*
X832992Y1009008D01*
X834115Y1010470D01*
X834820Y1012173D01*
X835060Y1014000D01*
X834820Y1015827D01*
X834115Y1017530D01*
X832992Y1018992D01*
X831530Y1020115D01*
X829827Y1020820D01*
X828000Y1021060D01*
D02*
G37*
G36*
X1566250Y1020354D02*
X1563117Y1019941D01*
X1560198Y1018732D01*
X1557691Y1016808D01*
X1555768Y1014302D01*
X1554559Y1011383D01*
X1554146Y1008250D01*
X1554559Y1005117D01*
X1555768Y1002198D01*
X1557691Y999691D01*
X1560198Y997768D01*
X1563117Y996559D01*
X1566250Y996146D01*
X1569383Y996559D01*
X1572302Y997768D01*
X1574809Y999691D01*
X1576732Y1002198D01*
X1577941Y1005117D01*
X1578354Y1008250D01*
X1577941Y1011383D01*
X1576732Y1014302D01*
X1574809Y1016808D01*
X1572302Y1018732D01*
X1569383Y1019941D01*
X1566250Y1020354D01*
D02*
G37*
G36*
X1466886Y1016618D02*
X1464406Y1016292D01*
X1462095Y1015335D01*
X1460111Y1013812D01*
X1458588Y1011827D01*
X1457631Y1009516D01*
X1457304Y1007036D01*
X1457631Y1004556D01*
X1458588Y1002245D01*
X1460111Y1000261D01*
X1462095Y998738D01*
X1464406Y997781D01*
X1466886Y997454D01*
X1469366Y997781D01*
X1471677Y998738D01*
X1473661Y1000261D01*
X1475184Y1002245D01*
X1476142Y1004556D01*
X1476468Y1007036D01*
X1476142Y1009516D01*
X1475184Y1011827D01*
X1473661Y1013812D01*
X1471677Y1015335D01*
X1469366Y1016292D01*
X1466886Y1016618D01*
D02*
G37*
G36*
X1302500Y1020560D02*
X1300673Y1020320D01*
X1298970Y1019614D01*
X1297508Y1018493D01*
X1296385Y1017030D01*
X1295680Y1015327D01*
X1295440Y1013500D01*
X1295680Y1011673D01*
X1296385Y1009970D01*
X1297508Y1008508D01*
X1297876Y1008224D01*
Y1006334D01*
X1297758Y1006242D01*
X1296635Y1004780D01*
X1295930Y1003077D01*
X1295690Y1001250D01*
X1295930Y999423D01*
X1296635Y997720D01*
X1297758Y996257D01*
X1299220Y995135D01*
X1300923Y994430D01*
X1302750Y994190D01*
X1304577Y994430D01*
X1306280Y995135D01*
X1307742Y996257D01*
X1308864Y997720D01*
X1309570Y999423D01*
X1309810Y1001250D01*
X1309570Y1003077D01*
X1308864Y1004780D01*
X1307742Y1006242D01*
X1307374Y1006525D01*
Y1008416D01*
X1307493Y1008508D01*
X1308615Y1009970D01*
X1309320Y1011673D01*
X1309560Y1013500D01*
X1309320Y1015327D01*
X1308615Y1017030D01*
X1307493Y1018493D01*
X1306030Y1019614D01*
X1304327Y1020320D01*
X1302500Y1020560D01*
D02*
G37*
G36*
X786500Y999118D02*
X784159Y998652D01*
X782174Y997326D01*
X780848Y995341D01*
X780382Y993000D01*
X780848Y990659D01*
X782174Y988674D01*
X784159Y987348D01*
X786500Y986882D01*
X788841Y987348D01*
X790826Y988674D01*
X792152Y990659D01*
X792617Y993000D01*
X792152Y995341D01*
X790826Y997326D01*
X788841Y998652D01*
X786500Y999118D01*
D02*
G37*
G36*
X1068000Y998848D02*
X1066049Y998460D01*
X1064395Y997355D01*
X1063290Y995701D01*
X1062902Y993750D01*
X1063290Y991799D01*
X1064395Y990145D01*
X1066049Y989040D01*
X1068000Y988652D01*
X1069951Y989040D01*
X1071605Y990145D01*
X1072710Y991799D01*
X1073098Y993750D01*
X1072710Y995701D01*
X1071605Y997355D01*
X1069951Y998460D01*
X1068000Y998848D01*
D02*
G37*
G36*
X1251500Y1020310D02*
X1249673Y1020070D01*
X1247970Y1019364D01*
X1246508Y1018242D01*
X1245386Y1016780D01*
X1244680Y1015077D01*
X1244440Y1013250D01*
X1244680Y1011423D01*
X1245386Y1009720D01*
X1246508Y1008258D01*
X1247970Y1007135D01*
X1249673Y1006430D01*
X1251500Y1006190D01*
X1253327Y1006430D01*
X1255030Y1007135D01*
X1256492Y1008258D01*
X1257615Y1009720D01*
X1257636Y1009773D01*
X1259260D01*
X1259386Y1009470D01*
X1260508Y1008008D01*
X1260555Y1007971D01*
Y1006471D01*
X1260258Y1006242D01*
X1259136Y1004780D01*
X1258430Y1003077D01*
X1258190Y1001250D01*
X1258430Y999423D01*
X1259136Y997720D01*
X1260258Y996257D01*
X1261720Y995135D01*
X1263423Y994430D01*
X1265250Y994190D01*
X1267077Y994430D01*
X1268780Y995135D01*
X1270242Y996257D01*
X1271365Y997720D01*
X1272070Y999423D01*
X1272310Y1001250D01*
X1272070Y1003077D01*
X1271365Y1004780D01*
X1270242Y1006242D01*
X1270195Y1006279D01*
Y1007779D01*
X1270492Y1008008D01*
X1271615Y1009470D01*
X1272320Y1011173D01*
X1272560Y1013000D01*
X1272320Y1014827D01*
X1271615Y1016530D01*
X1270492Y1017992D01*
X1269030Y1019115D01*
X1267327Y1019820D01*
X1265500Y1020060D01*
X1263673Y1019820D01*
X1261970Y1019115D01*
X1260508Y1017992D01*
X1259386Y1016530D01*
X1259364Y1016477D01*
X1257740D01*
X1257615Y1016780D01*
X1256492Y1018242D01*
X1255030Y1019364D01*
X1253327Y1020070D01*
X1251500Y1020310D01*
D02*
G37*
G36*
X1404000Y1007098D02*
X1402049Y1006710D01*
X1400395Y1005605D01*
X1399290Y1003951D01*
X1399163Y1003314D01*
X1399102Y1003259D01*
X1397521Y1002745D01*
X1396451Y1003460D01*
X1394500Y1003848D01*
X1392549Y1003460D01*
X1390895Y1002355D01*
X1389790Y1000701D01*
X1389402Y998750D01*
X1389790Y996799D01*
X1390895Y995145D01*
X1392549Y994040D01*
X1394500Y993652D01*
X1396451Y994040D01*
X1398105Y995145D01*
X1399210Y996799D01*
X1399337Y997436D01*
X1399398Y997491D01*
X1400979Y998005D01*
X1402049Y997290D01*
X1404000Y996902D01*
X1405951Y997290D01*
X1407605Y998395D01*
X1408710Y1000049D01*
X1409098Y1002000D01*
X1408710Y1003951D01*
X1407605Y1005605D01*
X1405951Y1006710D01*
X1404000Y1007098D01*
D02*
G37*
G36*
X1164750Y1022810D02*
X1162923Y1022570D01*
X1161220Y1021864D01*
X1159758Y1020742D01*
X1158635Y1019280D01*
X1157930Y1017577D01*
X1157690Y1015750D01*
X1157930Y1013923D01*
X1158635Y1012220D01*
X1159758Y1010758D01*
X1161220Y1009635D01*
X1162923Y1008930D01*
X1164750Y1008690D01*
X1166577Y1008930D01*
X1168280Y1009635D01*
X1169742Y1010758D01*
X1170864Y1012220D01*
X1171570Y1013923D01*
X1171810Y1015750D01*
X1171570Y1017577D01*
X1170864Y1019280D01*
X1169742Y1020742D01*
X1168280Y1021864D01*
X1166577Y1022570D01*
X1164750Y1022810D01*
D02*
G37*
G36*
X1182500Y1035310D02*
X1180673Y1035070D01*
X1178970Y1034364D01*
X1177508Y1033242D01*
X1176385Y1031780D01*
X1175680Y1030077D01*
X1175440Y1028250D01*
X1175680Y1026423D01*
X1176385Y1024720D01*
X1177508Y1023258D01*
X1178039Y1022849D01*
Y1020959D01*
X1177758Y1020742D01*
X1176636Y1019280D01*
X1175930Y1017577D01*
X1175690Y1015750D01*
X1175930Y1013923D01*
X1176636Y1012220D01*
X1177758Y1010758D01*
X1179220Y1009635D01*
X1180923Y1008930D01*
X1182750Y1008690D01*
X1184577Y1008930D01*
X1186280Y1009635D01*
X1187742Y1010758D01*
X1188865Y1012220D01*
X1189570Y1013923D01*
X1189810Y1015750D01*
X1189570Y1017577D01*
X1188865Y1019280D01*
X1187742Y1020742D01*
X1187211Y1021151D01*
Y1023041D01*
X1187492Y1023258D01*
X1188615Y1024720D01*
X1189320Y1026423D01*
X1189560Y1028250D01*
X1189320Y1030077D01*
X1188615Y1031780D01*
X1187492Y1033242D01*
X1186030Y1034364D01*
X1184327Y1035070D01*
X1182500Y1035310D01*
D02*
G37*
G36*
X1007500Y1008867D02*
X1005159Y1008402D01*
X1003174Y1007076D01*
X1001848Y1005091D01*
X1001470Y1003192D01*
X999999Y1002741D01*
X999968Y1002741D01*
X999076Y1004076D01*
X997091Y1005402D01*
X994750Y1005867D01*
X992409Y1005402D01*
X990424Y1004076D01*
X989098Y1002091D01*
X988633Y999750D01*
X989098Y997409D01*
X990424Y995424D01*
X992409Y994098D01*
X994750Y993633D01*
X997091Y994098D01*
X999076Y995424D01*
X1000402Y997409D01*
X1000780Y999308D01*
X1002251Y999759D01*
X1002282Y999759D01*
X1003174Y998424D01*
X1005159Y997098D01*
X1007500Y996632D01*
X1009841Y997098D01*
X1011826Y998424D01*
X1013152Y1000409D01*
X1013617Y1002750D01*
X1013152Y1005091D01*
X1011826Y1007076D01*
X1009841Y1008402D01*
X1007500Y1008867D01*
D02*
G37*
G36*
X656250Y1027560D02*
X654423Y1027320D01*
X652720Y1026615D01*
X651257Y1025492D01*
X650135Y1024030D01*
X649430Y1022327D01*
X649190Y1020500D01*
X649430Y1018673D01*
X650135Y1016970D01*
X651257Y1015508D01*
X651911Y1015006D01*
X652004Y1014775D01*
X651893Y1013172D01*
X651008Y1012492D01*
X649885Y1011030D01*
X649180Y1009327D01*
X648940Y1007500D01*
X649180Y1005673D01*
X649885Y1003970D01*
X651008Y1002507D01*
X652470Y1001385D01*
X654173Y1000680D01*
X656000Y1000440D01*
X657827Y1000680D01*
X659530Y1001385D01*
X660993Y1002507D01*
X662114Y1003970D01*
X662820Y1005673D01*
X663060Y1007500D01*
X662820Y1009327D01*
X662114Y1011030D01*
X660993Y1012492D01*
X660339Y1012994D01*
X660246Y1013225D01*
X660357Y1014828D01*
X661242Y1015508D01*
X662365Y1016970D01*
X663070Y1018673D01*
X663310Y1020500D01*
X663070Y1022327D01*
X662365Y1024030D01*
X661242Y1025492D01*
X659780Y1026615D01*
X658077Y1027320D01*
X656250Y1027560D01*
D02*
G37*
G36*
X690500Y1027810D02*
X688673Y1027570D01*
X686970Y1026864D01*
X685508Y1025742D01*
X684386Y1024280D01*
X683680Y1022577D01*
X683440Y1020750D01*
X683680Y1018923D01*
X684386Y1017220D01*
X685508Y1015758D01*
X686087Y1015313D01*
Y1013437D01*
X685508Y1012992D01*
X684386Y1011530D01*
X683680Y1009827D01*
X683440Y1008000D01*
X683680Y1006173D01*
X684386Y1004470D01*
X685508Y1003008D01*
X686970Y1001886D01*
X688673Y1001180D01*
X690500Y1000940D01*
X692327Y1001180D01*
X694030Y1001886D01*
X695492Y1003008D01*
X696615Y1004470D01*
X697320Y1006173D01*
X697560Y1008000D01*
X697320Y1009827D01*
X696615Y1011530D01*
X695492Y1012992D01*
X694913Y1013437D01*
Y1015313D01*
X695492Y1015758D01*
X696615Y1017220D01*
X697320Y1018923D01*
X697560Y1020750D01*
X697320Y1022577D01*
X696615Y1024280D01*
X695492Y1025742D01*
X694030Y1026864D01*
X692327Y1027570D01*
X690500Y1027810D01*
D02*
G37*
G36*
X442500Y1007060D02*
X440673Y1006820D01*
X438970Y1006115D01*
X437508Y1004993D01*
X436385Y1003530D01*
X435780Y1002069D01*
X435000Y1001940D01*
X434220Y1002069D01*
X433615Y1003530D01*
X432492Y1004993D01*
X431030Y1006115D01*
X429327Y1006820D01*
X427500Y1007060D01*
X425673Y1006820D01*
X423970Y1006115D01*
X422508Y1004993D01*
X421385Y1003530D01*
X420680Y1001827D01*
X420440Y1000000D01*
X420680Y998173D01*
X421385Y996470D01*
X422508Y995008D01*
X423970Y993885D01*
X425431Y993280D01*
X425560Y992500D01*
X425431Y991720D01*
X423970Y991115D01*
X422508Y989992D01*
X421385Y988530D01*
X420680Y986827D01*
X420440Y985000D01*
X420680Y983173D01*
X421385Y981470D01*
X422508Y980007D01*
X423970Y978885D01*
X425431Y978280D01*
X425560Y977500D01*
X425431Y976720D01*
X423970Y976115D01*
X422508Y974992D01*
X421385Y973530D01*
X420680Y971827D01*
X420440Y970000D01*
X420680Y968173D01*
X421385Y966470D01*
X422508Y965007D01*
X423970Y963885D01*
X425431Y963280D01*
X425560Y962500D01*
X425431Y961720D01*
X423970Y961115D01*
X422508Y959992D01*
X421385Y958530D01*
X420680Y956827D01*
X420440Y955000D01*
X420680Y953173D01*
X421385Y951470D01*
X422508Y950007D01*
X423970Y948885D01*
X425673Y948180D01*
X427500Y947940D01*
X429327Y948180D01*
X431030Y948885D01*
X432492Y950007D01*
X433615Y951470D01*
X434220Y952931D01*
X435000Y953060D01*
X435780Y952931D01*
X436385Y951470D01*
X437508Y950007D01*
X438970Y948885D01*
X440673Y948180D01*
X442500Y947940D01*
X444327Y948180D01*
X446030Y948885D01*
X447492Y950007D01*
X448615Y951470D01*
X449320Y953173D01*
X449560Y955000D01*
X449320Y956827D01*
X448615Y958530D01*
X447492Y959992D01*
X446030Y961115D01*
X444569Y961720D01*
X444440Y962500D01*
X444569Y963280D01*
X446030Y963885D01*
X447492Y965007D01*
X448615Y966470D01*
X449320Y968173D01*
X449560Y970000D01*
X449320Y971827D01*
X448615Y973530D01*
X447492Y974992D01*
X446030Y976115D01*
X444569Y976720D01*
X444440Y977500D01*
X444569Y978280D01*
X446030Y978885D01*
X447492Y980007D01*
X448615Y981470D01*
X449320Y983173D01*
X449560Y985000D01*
X449320Y986827D01*
X448615Y988530D01*
X447492Y989992D01*
X446030Y991115D01*
X444569Y991720D01*
X444440Y992500D01*
X444569Y993280D01*
X446030Y993885D01*
X447492Y995008D01*
X448615Y996470D01*
X449320Y998173D01*
X449560Y1000000D01*
X449320Y1001827D01*
X448615Y1003530D01*
X447492Y1004993D01*
X446030Y1006115D01*
X444327Y1006820D01*
X442500Y1007060D01*
D02*
G37*
G36*
X1054000Y973348D02*
X1052049Y972960D01*
X1050395Y971855D01*
X1049290Y970201D01*
X1048902Y968250D01*
X1049290Y966299D01*
X1050395Y964645D01*
X1052049Y963540D01*
X1054000Y963152D01*
X1055951Y963540D01*
X1057264Y962614D01*
X1057152Y962050D01*
X1057344Y961083D01*
X1055994Y960181D01*
X1055951Y960210D01*
X1054000Y960598D01*
X1052049Y960210D01*
X1050395Y959105D01*
X1049290Y957451D01*
X1048902Y955500D01*
X1049290Y953549D01*
X1050395Y951895D01*
X1052049Y950790D01*
X1054000Y950402D01*
X1055951Y950790D01*
X1055983Y950811D01*
X1057333Y949910D01*
X1057152Y949000D01*
X1057540Y947049D01*
X1058645Y945395D01*
X1060299Y944290D01*
X1062250Y943902D01*
X1064201Y944290D01*
X1065855Y945395D01*
X1066268Y946014D01*
X1067505Y945611D01*
X1067717Y945482D01*
X1068092Y943595D01*
X1069198Y941941D01*
Y941807D01*
X1068895Y941605D01*
X1067790Y939951D01*
X1067402Y938000D01*
X1067790Y936049D01*
X1067082Y934408D01*
X1065947Y933650D01*
X1064842Y931996D01*
X1064454Y930045D01*
X1064842Y928094D01*
X1065947Y926441D01*
X1067449Y925437D01*
X1066790Y924451D01*
X1066402Y922500D01*
X1066790Y920549D01*
X1067895Y918895D01*
X1069549Y917790D01*
X1071500Y917402D01*
X1073451Y917790D01*
X1075105Y918895D01*
X1076210Y920549D01*
X1076598Y922500D01*
X1076210Y924451D01*
X1075105Y926105D01*
X1073603Y927108D01*
X1074262Y928094D01*
X1074650Y930045D01*
X1074262Y931996D01*
X1074970Y933637D01*
X1076105Y934395D01*
X1077210Y936049D01*
X1077598Y938000D01*
X1077210Y939951D01*
X1076105Y941605D01*
Y941739D01*
X1076407Y941941D01*
X1077512Y943595D01*
X1077900Y945546D01*
X1077512Y947497D01*
X1076407Y949151D01*
X1074753Y950256D01*
X1072802Y950644D01*
X1070852Y950256D01*
X1069198Y949151D01*
X1068784Y948532D01*
X1067547Y948935D01*
X1067335Y949064D01*
X1066960Y950951D01*
X1065855Y952605D01*
X1064201Y953710D01*
X1062250Y954098D01*
X1060299Y953710D01*
X1060267Y953689D01*
X1058917Y954591D01*
X1059098Y955500D01*
X1058906Y956467D01*
X1060256Y957369D01*
X1060299Y957340D01*
X1062250Y956952D01*
X1064201Y957340D01*
X1065855Y958445D01*
X1066960Y960099D01*
X1067348Y962050D01*
X1066960Y964001D01*
X1065855Y965655D01*
X1064201Y966760D01*
X1062250Y967148D01*
X1060299Y966760D01*
X1058986Y967686D01*
X1059098Y968250D01*
X1058710Y970201D01*
X1057605Y971855D01*
X1055951Y972960D01*
X1054000Y973348D01*
D02*
G37*
G36*
X1404750Y976348D02*
X1402799Y975960D01*
X1401145Y974855D01*
X1400040Y973201D01*
X1399652Y971250D01*
X1400040Y969299D01*
X1401145Y967645D01*
X1402799Y966540D01*
X1404750Y966152D01*
X1406701Y966540D01*
X1408355Y967645D01*
X1409460Y969299D01*
X1409848Y971250D01*
X1409460Y973201D01*
X1408355Y974855D01*
X1406701Y975960D01*
X1404750Y976348D01*
D02*
G37*
G36*
X809250Y979118D02*
X806909Y978652D01*
X804924Y977326D01*
X803598Y975341D01*
X803132Y973000D01*
X803598Y970659D01*
X804924Y968674D01*
X806909Y967348D01*
X809250Y966882D01*
X811591Y967348D01*
X813576Y968674D01*
X814902Y970659D01*
X815368Y973000D01*
X814902Y975341D01*
X813576Y977326D01*
X811591Y978652D01*
X809250Y979118D01*
D02*
G37*
G36*
X1393750Y970348D02*
X1391799Y969960D01*
X1390145Y968855D01*
X1389040Y967201D01*
X1388652Y965250D01*
X1389040Y963299D01*
X1390145Y961645D01*
X1391799Y960540D01*
X1393750Y960152D01*
X1395701Y960540D01*
X1397355Y961645D01*
X1398460Y963299D01*
X1398848Y965250D01*
X1398460Y967201D01*
X1397355Y968855D01*
X1395701Y969960D01*
X1393750Y970348D01*
D02*
G37*
G36*
X1617000Y959848D02*
X1615049Y959460D01*
X1613395Y958355D01*
X1612290Y956701D01*
X1611902Y954750D01*
X1612290Y952799D01*
X1613395Y951145D01*
X1615049Y950040D01*
X1617000Y949652D01*
X1618951Y950040D01*
X1620605Y951145D01*
X1621710Y952799D01*
X1622098Y954750D01*
X1621710Y956701D01*
X1620605Y958355D01*
X1618951Y959460D01*
X1617000Y959848D01*
D02*
G37*
G36*
X1591750Y960348D02*
X1589799Y959960D01*
X1588145Y958855D01*
X1587040Y957201D01*
X1586652Y955250D01*
X1587040Y953299D01*
X1588145Y951645D01*
X1589799Y950540D01*
X1591750Y950152D01*
X1593701Y950540D01*
X1595355Y951645D01*
X1596460Y953299D01*
X1596848Y955250D01*
X1596460Y957201D01*
X1595355Y958855D01*
X1593701Y959960D01*
X1591750Y960348D01*
D02*
G37*
G36*
X893500Y965348D02*
X891549Y964960D01*
X889895Y963855D01*
X888790Y962201D01*
X888402Y960250D01*
X888790Y958299D01*
X889895Y956645D01*
X891549Y955540D01*
X893500Y955152D01*
X895451Y955540D01*
X897105Y956645D01*
X898210Y958299D01*
X898598Y960250D01*
X898210Y962201D01*
X897105Y963855D01*
X895451Y964960D01*
X893500Y965348D01*
D02*
G37*
G36*
X1072000Y983848D02*
X1070049Y983460D01*
X1068395Y982355D01*
X1067290Y980701D01*
X1066902Y978750D01*
X1067290Y976799D01*
X1068395Y975145D01*
X1070049Y974040D01*
X1072000Y973652D01*
X1073951Y974040D01*
X1075605Y975145D01*
X1076710Y976799D01*
X1077098Y978750D01*
X1076710Y980701D01*
X1075605Y982355D01*
X1073951Y983460D01*
X1072000Y983848D01*
D02*
G37*
G36*
X1007500Y988348D02*
X1005549Y987960D01*
X1003895Y986855D01*
X1002790Y985201D01*
X1002402Y983250D01*
X1002790Y981299D01*
X1003895Y979645D01*
X1005549Y978540D01*
X1007500Y978152D01*
X1009451Y978540D01*
X1010197Y979039D01*
X1011835Y978329D01*
X1012040Y977299D01*
X1013145Y975645D01*
X1014799Y974540D01*
X1016750Y974152D01*
X1018701Y974540D01*
X1020355Y975645D01*
X1020766Y976260D01*
X1022124Y976886D01*
X1022637Y976566D01*
X1023799Y975790D01*
X1025750Y975402D01*
X1027701Y975790D01*
X1029355Y976895D01*
X1030460Y978549D01*
X1030848Y980500D01*
X1030460Y982451D01*
X1029355Y984105D01*
X1027701Y985210D01*
X1025750Y985598D01*
X1023799Y985210D01*
X1022145Y984105D01*
X1021734Y983490D01*
X1020376Y982864D01*
X1019863Y983184D01*
X1018701Y983960D01*
X1016750Y984348D01*
X1014799Y983960D01*
X1014053Y983461D01*
X1012415Y984171D01*
X1012210Y985201D01*
X1011105Y986855D01*
X1009451Y987960D01*
X1007500Y988348D01*
D02*
G37*
G36*
X798500Y989118D02*
X796159Y988652D01*
X794174Y987326D01*
X792848Y985341D01*
X792383Y983000D01*
X792848Y980659D01*
X794174Y978674D01*
X796159Y977348D01*
X798500Y976882D01*
X800841Y977348D01*
X802826Y978674D01*
X804152Y980659D01*
X804617Y983000D01*
X804152Y985341D01*
X802826Y987326D01*
X800841Y988652D01*
X798500Y989118D01*
D02*
G37*
G36*
X1466886Y991218D02*
X1464406Y990892D01*
X1462095Y989935D01*
X1460111Y988412D01*
X1458588Y986427D01*
X1457631Y984116D01*
X1457304Y981636D01*
X1457631Y979156D01*
X1458588Y976845D01*
X1460111Y974861D01*
X1462095Y973338D01*
X1464406Y972381D01*
X1466886Y972054D01*
X1469366Y972381D01*
X1471677Y973338D01*
X1473661Y974861D01*
X1475184Y976845D01*
X1476142Y979156D01*
X1476468Y981636D01*
X1476142Y984116D01*
X1475184Y986427D01*
X1473661Y988412D01*
X1471677Y989935D01*
X1469366Y990892D01*
X1466886Y991218D01*
D02*
G37*
G36*
X881750Y978098D02*
X879799Y977710D01*
X878145Y976605D01*
X877040Y974951D01*
X876652Y973000D01*
X877040Y971049D01*
X878145Y969395D01*
X879799Y968290D01*
X881750Y967902D01*
X883701Y968290D01*
X885355Y969395D01*
X886460Y971049D01*
X886848Y973000D01*
X886460Y974951D01*
X885355Y976605D01*
X883701Y977710D01*
X881750Y978098D01*
D02*
G37*
G36*
X1108500Y980348D02*
X1106549Y979960D01*
X1104895Y978855D01*
X1103790Y977201D01*
X1103402Y975250D01*
X1103790Y973299D01*
X1104895Y971645D01*
X1106549Y970540D01*
X1108500Y970152D01*
X1110451Y970540D01*
X1112105Y971645D01*
X1113210Y973299D01*
X1113598Y975250D01*
X1113210Y977201D01*
X1112105Y978855D01*
X1110451Y979960D01*
X1108500Y980348D01*
D02*
G37*
G36*
X1122750Y980598D02*
X1120799Y980210D01*
X1119145Y979105D01*
X1118040Y977451D01*
X1117652Y975500D01*
X1118040Y973549D01*
X1119145Y971895D01*
X1120799Y970790D01*
X1122750Y970402D01*
X1124701Y970790D01*
X1126355Y971895D01*
X1127460Y973549D01*
X1127848Y975500D01*
X1127460Y977451D01*
X1126355Y979105D01*
X1124701Y980210D01*
X1122750Y980598D01*
D02*
G37*
G36*
X442500Y1037104D02*
X439367Y1036691D01*
X436448Y1035482D01*
X433941Y1033559D01*
X432018Y1031052D01*
X430809Y1028133D01*
X430396Y1025000D01*
X430809Y1021867D01*
X432018Y1018948D01*
X433941Y1016441D01*
X436448Y1014518D01*
X439367Y1013309D01*
X442500Y1012896D01*
X445633Y1013309D01*
X448552Y1014518D01*
X451059Y1016441D01*
X452982Y1018948D01*
X454191Y1021867D01*
X454604Y1025000D01*
X454191Y1028133D01*
X452982Y1031052D01*
X451059Y1033559D01*
X448552Y1035482D01*
X445633Y1036691D01*
X442500Y1037104D01*
D02*
G37*
G36*
X885500Y1095603D02*
X882367Y1095191D01*
X879448Y1093982D01*
X876942Y1092058D01*
X875018Y1089552D01*
X873809Y1086633D01*
X873396Y1083500D01*
X873809Y1080367D01*
X875018Y1077448D01*
X876942Y1074941D01*
X879448Y1073018D01*
X882367Y1071809D01*
X885500Y1071396D01*
X888633Y1071809D01*
X891552Y1073018D01*
X894059Y1074941D01*
X895982Y1077448D01*
X897191Y1080367D01*
X897604Y1083500D01*
X897191Y1086633D01*
X895982Y1089552D01*
X894059Y1092058D01*
X891552Y1093982D01*
X888633Y1095191D01*
X885500Y1095603D01*
D02*
G37*
G36*
X1466886Y1092818D02*
X1464406Y1092492D01*
X1462095Y1091535D01*
X1460111Y1090012D01*
X1458588Y1088027D01*
X1457631Y1085716D01*
X1457304Y1083236D01*
X1457631Y1080756D01*
X1458588Y1078445D01*
X1460111Y1076461D01*
X1462095Y1074938D01*
X1464406Y1073981D01*
X1466886Y1073654D01*
X1469366Y1073981D01*
X1471677Y1074938D01*
X1473661Y1076461D01*
X1475184Y1078445D01*
X1476142Y1080756D01*
X1476468Y1083236D01*
X1476142Y1085716D01*
X1475184Y1088027D01*
X1473661Y1090012D01*
X1471677Y1091535D01*
X1469366Y1092492D01*
X1466886Y1092818D01*
D02*
G37*
G36*
X1394750Y1105598D02*
X1392799Y1105210D01*
X1391145Y1104105D01*
X1390040Y1102451D01*
X1389652Y1100500D01*
X1390040Y1098549D01*
X1391145Y1096895D01*
X1392799Y1095790D01*
X1394750Y1095402D01*
X1396701Y1095790D01*
X1397538Y1096349D01*
X1399499Y1096114D01*
X1399645Y1095895D01*
X1401299Y1094790D01*
X1403250Y1094402D01*
X1405201Y1094790D01*
X1406855Y1095895D01*
X1407960Y1097549D01*
X1408348Y1099500D01*
X1407960Y1101451D01*
X1406855Y1103105D01*
X1405201Y1104210D01*
X1403250Y1104598D01*
X1401299Y1104210D01*
X1400462Y1103651D01*
X1398501Y1103886D01*
X1398355Y1104105D01*
X1396701Y1105210D01*
X1394750Y1105598D01*
D02*
G37*
G36*
X1403250Y1072598D02*
X1401299Y1072210D01*
X1399645Y1071105D01*
X1399541Y1070949D01*
X1397922Y1070727D01*
X1396451Y1071710D01*
X1394500Y1072098D01*
X1392549Y1071710D01*
X1390895Y1070605D01*
X1389790Y1068951D01*
X1389402Y1067000D01*
X1389790Y1065049D01*
X1390895Y1063395D01*
X1392549Y1062290D01*
X1394500Y1061902D01*
X1396451Y1062290D01*
X1398105Y1063395D01*
X1398209Y1063551D01*
X1399828Y1063773D01*
X1401299Y1062790D01*
X1403250Y1062402D01*
X1405201Y1062790D01*
X1406855Y1063895D01*
X1407960Y1065549D01*
X1408348Y1067500D01*
X1407960Y1069451D01*
X1406855Y1071105D01*
X1405201Y1072210D01*
X1403250Y1072598D01*
D02*
G37*
G36*
X442500Y1072060D02*
X440673Y1071820D01*
X438970Y1071115D01*
X437508Y1069992D01*
X436385Y1068530D01*
X435780Y1067069D01*
X435000Y1066940D01*
X434220Y1067069D01*
X433615Y1068530D01*
X432492Y1069992D01*
X431030Y1071115D01*
X429327Y1071820D01*
X427500Y1072060D01*
X425673Y1071820D01*
X423970Y1071115D01*
X422508Y1069992D01*
X421385Y1068530D01*
X420680Y1066827D01*
X420440Y1065000D01*
X420680Y1063173D01*
X421385Y1061470D01*
X422508Y1060008D01*
X423970Y1058885D01*
X425431Y1058280D01*
X425560Y1057500D01*
X425431Y1056720D01*
X423970Y1056115D01*
X422508Y1054993D01*
X421385Y1053530D01*
X420680Y1051827D01*
X420440Y1050000D01*
X420680Y1048173D01*
X421385Y1046470D01*
X422508Y1045008D01*
X423970Y1043885D01*
X425673Y1043180D01*
X427500Y1042940D01*
X429327Y1043180D01*
X431030Y1043885D01*
X432492Y1045008D01*
X433615Y1046470D01*
X434220Y1047931D01*
X435000Y1048060D01*
X435780Y1047931D01*
X436385Y1046470D01*
X437508Y1045008D01*
X438970Y1043885D01*
X440673Y1043180D01*
X442500Y1042940D01*
X444327Y1043180D01*
X446030Y1043885D01*
X447492Y1045008D01*
X448615Y1046470D01*
X449320Y1048173D01*
X449560Y1050000D01*
X449320Y1051827D01*
X448615Y1053530D01*
X447492Y1054993D01*
X446030Y1056115D01*
X444569Y1056720D01*
X444440Y1057500D01*
X444569Y1058280D01*
X446030Y1058885D01*
X447492Y1060008D01*
X448615Y1061470D01*
X449320Y1063173D01*
X449560Y1065000D01*
X449320Y1066827D01*
X448615Y1068530D01*
X447492Y1069992D01*
X446030Y1071115D01*
X444327Y1071820D01*
X442500Y1072060D01*
D02*
G37*
G36*
X1123000Y1077348D02*
X1121049Y1076960D01*
X1119395Y1075855D01*
X1118290Y1074201D01*
X1117902Y1072250D01*
X1118290Y1070299D01*
X1119395Y1068645D01*
X1121049Y1067540D01*
X1123000Y1067152D01*
X1124951Y1067540D01*
X1126605Y1068645D01*
X1127710Y1070299D01*
X1128098Y1072250D01*
X1127710Y1074201D01*
X1126605Y1075855D01*
X1124951Y1076960D01*
X1123000Y1077348D01*
D02*
G37*
G36*
X1493000Y1078848D02*
X1491049Y1078460D01*
X1489395Y1077355D01*
X1488290Y1075701D01*
X1487902Y1073750D01*
X1488290Y1071799D01*
X1489395Y1070145D01*
X1491049Y1069040D01*
X1493000Y1068652D01*
X1494951Y1069040D01*
X1496605Y1070145D01*
X1497710Y1071799D01*
X1498098Y1073750D01*
X1497710Y1075701D01*
X1496605Y1077355D01*
X1494951Y1078460D01*
X1493000Y1078848D01*
D02*
G37*
G36*
X771000Y1152104D02*
X767867Y1151691D01*
X764948Y1150482D01*
X762441Y1148559D01*
X760518Y1146052D01*
X759309Y1143133D01*
X758896Y1140000D01*
X759309Y1136867D01*
X760518Y1133948D01*
X762441Y1131441D01*
X764948Y1129518D01*
X767867Y1128309D01*
X771000Y1127896D01*
X774133Y1128309D01*
X777052Y1129518D01*
X779558Y1131441D01*
X781482Y1133948D01*
X782691Y1136867D01*
X783104Y1140000D01*
X782691Y1143133D01*
X781482Y1146052D01*
X779558Y1148559D01*
X777052Y1150482D01*
X774133Y1151691D01*
X771000Y1152104D01*
D02*
G37*
G36*
X811000D02*
X807867Y1151691D01*
X804948Y1150482D01*
X802441Y1148559D01*
X800518Y1146052D01*
X799309Y1143133D01*
X798896Y1140000D01*
X799309Y1136867D01*
X800518Y1133948D01*
X802441Y1131441D01*
X804948Y1129518D01*
X807867Y1128309D01*
X811000Y1127896D01*
X814133Y1128309D01*
X817052Y1129518D01*
X819558Y1131441D01*
X821482Y1133948D01*
X822691Y1136867D01*
X823104Y1140000D01*
X822691Y1143133D01*
X821482Y1146052D01*
X819558Y1148559D01*
X817052Y1150482D01*
X814133Y1151691D01*
X811000Y1152104D01*
D02*
G37*
G36*
X646500Y1144867D02*
X644159Y1144402D01*
X642174Y1143076D01*
X640848Y1141091D01*
X640383Y1138750D01*
X640848Y1136409D01*
X642174Y1134424D01*
X644159Y1133098D01*
X646500Y1132633D01*
X648841Y1133098D01*
X650826Y1134424D01*
X652152Y1136409D01*
X652617Y1138750D01*
X652152Y1141091D01*
X650826Y1143076D01*
X648841Y1144402D01*
X646500Y1144867D01*
D02*
G37*
G36*
X505250Y1140117D02*
X502909Y1139652D01*
X500924Y1138326D01*
X499598Y1136341D01*
X499132Y1134000D01*
X499598Y1131659D01*
X500924Y1129674D01*
X502909Y1128348D01*
X505250Y1127883D01*
X507591Y1128348D01*
X509576Y1129674D01*
X510902Y1131659D01*
X511367Y1134000D01*
X510902Y1136341D01*
X509576Y1138326D01*
X507591Y1139652D01*
X505250Y1140117D01*
D02*
G37*
G36*
X1466886Y1118218D02*
X1464406Y1117892D01*
X1462095Y1116935D01*
X1460111Y1115412D01*
X1458588Y1113427D01*
X1457631Y1111116D01*
X1457304Y1108636D01*
X1457631Y1106156D01*
X1458588Y1103845D01*
X1460111Y1101861D01*
X1462095Y1100338D01*
X1464406Y1099381D01*
X1466886Y1099054D01*
X1469366Y1099381D01*
X1471677Y1100338D01*
X1473661Y1101861D01*
X1475184Y1103845D01*
X1476142Y1106156D01*
X1476468Y1108636D01*
X1476142Y1111116D01*
X1475184Y1113427D01*
X1473661Y1115412D01*
X1471677Y1116935D01*
X1469366Y1117892D01*
X1466886Y1118218D01*
D02*
G37*
G36*
X558000Y1120098D02*
X556049Y1119710D01*
X554395Y1118605D01*
X553290Y1116951D01*
X552902Y1115000D01*
X553290Y1113049D01*
X554395Y1111395D01*
X556049Y1110290D01*
X558000Y1109902D01*
X559951Y1110290D01*
X561605Y1111395D01*
X562710Y1113049D01*
X563098Y1115000D01*
X562710Y1116951D01*
X561605Y1118605D01*
X559951Y1119710D01*
X558000Y1120098D01*
D02*
G37*
G36*
X1476386Y1143536D02*
X1457386D01*
Y1124536D01*
X1476386D01*
Y1143536D01*
D02*
G37*
G36*
X1047000Y1044098D02*
X1045049Y1043710D01*
X1043395Y1042605D01*
X1042290Y1040951D01*
X1041902Y1039000D01*
X1042290Y1037049D01*
X1043395Y1035395D01*
X1045049Y1034290D01*
X1047000Y1033902D01*
X1048951Y1034290D01*
X1050605Y1035395D01*
X1051710Y1037049D01*
X1052098Y1039000D01*
X1051710Y1040951D01*
X1050605Y1042605D01*
X1048951Y1043710D01*
X1047000Y1044098D01*
D02*
G37*
G36*
X986500Y1064867D02*
X984159Y1064402D01*
X982174Y1063076D01*
X980848Y1061091D01*
X980383Y1058750D01*
X980848Y1056409D01*
X982174Y1054424D01*
X984159Y1053098D01*
X986500Y1052633D01*
X986550Y1052642D01*
X987699Y1051342D01*
X987383Y1049750D01*
X987848Y1047409D01*
X989174Y1045424D01*
X991159Y1044098D01*
X993500Y1043633D01*
X994474Y1043826D01*
X995535Y1042766D01*
X995383Y1042000D01*
X995848Y1039659D01*
X997174Y1037674D01*
X999159Y1036348D01*
X1001500Y1035882D01*
X1003841Y1036348D01*
X1005826Y1037674D01*
X1007152Y1039659D01*
X1007617Y1042000D01*
X1007152Y1044341D01*
X1005826Y1046326D01*
X1003841Y1047652D01*
X1001500Y1048118D01*
X1000526Y1047924D01*
X999465Y1048984D01*
X999617Y1049750D01*
X999152Y1052091D01*
X997826Y1054076D01*
X995841Y1055402D01*
X993500Y1055867D01*
X993450Y1055858D01*
X992301Y1057158D01*
X992617Y1058750D01*
X992152Y1061091D01*
X990826Y1063076D01*
X988841Y1064402D01*
X986500Y1064867D01*
D02*
G37*
G36*
X1403750Y1039598D02*
X1401799Y1039210D01*
X1400145Y1038105D01*
X1399401Y1036991D01*
X1398097Y1036665D01*
X1397593Y1036780D01*
X1396201Y1037710D01*
X1394250Y1038098D01*
X1392299Y1037710D01*
X1390645Y1036605D01*
X1389540Y1034951D01*
X1389152Y1033000D01*
X1389540Y1031049D01*
X1390645Y1029395D01*
X1392299Y1028290D01*
X1394250Y1027902D01*
X1396201Y1028290D01*
X1397855Y1029395D01*
X1398599Y1030509D01*
X1399903Y1030835D01*
X1400407Y1030720D01*
X1401799Y1029790D01*
X1403750Y1029402D01*
X1405701Y1029790D01*
X1407355Y1030895D01*
X1408460Y1032549D01*
X1408848Y1034500D01*
X1408460Y1036451D01*
X1407355Y1038105D01*
X1405701Y1039210D01*
X1403750Y1039598D01*
D02*
G37*
G36*
X926750Y1042367D02*
X924409Y1041902D01*
X922424Y1040576D01*
X921098Y1038591D01*
X920632Y1036250D01*
X921098Y1033909D01*
X922424Y1031924D01*
X924409Y1030598D01*
X926750Y1030133D01*
X929091Y1030598D01*
X931076Y1031924D01*
X932402Y1033909D01*
X932868Y1036250D01*
X932402Y1038591D01*
X931076Y1040576D01*
X929091Y1041902D01*
X926750Y1042367D01*
D02*
G37*
G36*
X706250Y1028310D02*
X704423Y1028070D01*
X702720Y1027365D01*
X701258Y1026242D01*
X700135Y1024780D01*
X699430Y1023077D01*
X699190Y1021250D01*
X699430Y1019423D01*
X700135Y1017720D01*
X701258Y1016258D01*
X702720Y1015135D01*
X704423Y1014430D01*
X706250Y1014190D01*
X708077Y1014430D01*
X709780Y1015135D01*
X711242Y1016258D01*
X712365Y1017720D01*
X713070Y1019423D01*
X713154Y1020059D01*
X713211Y1020492D01*
X714724D01*
X714787Y1020008D01*
X714930Y1018923D01*
X715636Y1017220D01*
X716758Y1015758D01*
X717264Y1015369D01*
X717272Y1015355D01*
X717202Y1013526D01*
X716508Y1012992D01*
X715386Y1011530D01*
X714680Y1009827D01*
X714440Y1008000D01*
X714680Y1006173D01*
X715386Y1004470D01*
X716508Y1003008D01*
X717970Y1001886D01*
X719673Y1001180D01*
X721500Y1000940D01*
X723327Y1001180D01*
X725030Y1001886D01*
X726492Y1003008D01*
X727615Y1004470D01*
X728320Y1006173D01*
X728560Y1008000D01*
X728320Y1009827D01*
X727615Y1011530D01*
X726492Y1012992D01*
X725986Y1013381D01*
X725978Y1013395D01*
X726048Y1015224D01*
X726742Y1015758D01*
X727865Y1017220D01*
X727990Y1017523D01*
X729614D01*
X729635Y1017470D01*
X730758Y1016008D01*
X732220Y1014885D01*
X733923Y1014180D01*
X735750Y1013940D01*
X737577Y1014180D01*
X739280Y1014885D01*
X740742Y1016008D01*
X741864Y1017470D01*
X742570Y1019173D01*
X742810Y1021000D01*
X742570Y1022827D01*
X741864Y1024530D01*
X740742Y1025992D01*
X739280Y1027114D01*
X737577Y1027820D01*
X735750Y1028060D01*
X733923Y1027820D01*
X732220Y1027114D01*
X730758Y1025992D01*
X729635Y1024530D01*
X729510Y1024227D01*
X727886D01*
X727865Y1024280D01*
X726742Y1025742D01*
X725280Y1026864D01*
X723577Y1027570D01*
X721750Y1027810D01*
X719923Y1027570D01*
X718220Y1026864D01*
X716758Y1025742D01*
X715636Y1024280D01*
X714930Y1022577D01*
X714846Y1021941D01*
X714789Y1021508D01*
X713277D01*
X713213Y1021992D01*
X713070Y1023077D01*
X712365Y1024780D01*
X711242Y1026242D01*
X709780Y1027365D01*
X708077Y1028070D01*
X706250Y1028310D01*
D02*
G37*
G36*
X928500Y1028118D02*
X926159Y1027652D01*
X924174Y1026326D01*
X922848Y1024341D01*
X922383Y1022000D01*
X922848Y1019659D01*
X924174Y1017674D01*
X926159Y1016348D01*
X928500Y1015882D01*
X930841Y1016348D01*
X932826Y1017674D01*
X934152Y1019659D01*
X934617Y1022000D01*
X934152Y1024341D01*
X932826Y1026326D01*
X930841Y1027652D01*
X928500Y1028118D01*
D02*
G37*
G36*
X1466886Y1042018D02*
X1464406Y1041692D01*
X1462095Y1040735D01*
X1460111Y1039212D01*
X1458588Y1037227D01*
X1457631Y1034916D01*
X1457304Y1032436D01*
X1457631Y1029956D01*
X1458588Y1027645D01*
X1460111Y1025661D01*
X1462095Y1024138D01*
X1464406Y1023181D01*
X1466886Y1022854D01*
X1469366Y1023181D01*
X1471677Y1024138D01*
X1473661Y1025661D01*
X1475184Y1027645D01*
X1476142Y1029956D01*
X1476468Y1032436D01*
X1476142Y1034916D01*
X1475184Y1037227D01*
X1473661Y1039212D01*
X1471677Y1040735D01*
X1469366Y1041692D01*
X1466886Y1042018D01*
D02*
G37*
G36*
X1524250Y1061965D02*
X1521909Y1061500D01*
X1519924Y1060174D01*
X1518598Y1058189D01*
X1518132Y1055848D01*
X1518598Y1053507D01*
X1519924Y1051522D01*
X1521909Y1050196D01*
X1524250Y1049731D01*
X1526591Y1050196D01*
X1528576Y1051522D01*
X1529902Y1053507D01*
X1530368Y1055848D01*
X1529902Y1058189D01*
X1528576Y1060174D01*
X1526591Y1061500D01*
X1524250Y1061965D01*
D02*
G37*
G36*
X487000Y1074118D02*
X484659Y1073652D01*
X482674Y1072326D01*
X481348Y1070341D01*
X480882Y1068000D01*
X481348Y1065659D01*
X482674Y1063674D01*
X484659Y1062348D01*
X487000Y1061882D01*
X489341Y1062348D01*
X491326Y1063674D01*
X492652Y1065659D01*
X493117Y1068000D01*
X492652Y1070341D01*
X491326Y1072326D01*
X489341Y1073652D01*
X487000Y1074118D01*
D02*
G37*
G36*
X809000Y1088104D02*
X805867Y1087691D01*
X802948Y1086482D01*
X800442Y1084558D01*
X798518Y1082052D01*
X797309Y1079133D01*
X796897Y1076000D01*
X797309Y1072867D01*
X798518Y1069948D01*
X800442Y1067441D01*
X802948Y1065518D01*
X805867Y1064309D01*
X809000Y1063896D01*
X812133Y1064309D01*
X815052Y1065518D01*
X817559Y1067441D01*
X819482Y1069948D01*
X820691Y1072867D01*
X821104Y1076000D01*
X820691Y1079133D01*
X819482Y1082052D01*
X817559Y1084558D01*
X815052Y1086482D01*
X812133Y1087691D01*
X809000Y1088104D01*
D02*
G37*
G36*
X1466886Y1067418D02*
X1464406Y1067092D01*
X1462095Y1066135D01*
X1460111Y1064612D01*
X1458588Y1062627D01*
X1457631Y1060316D01*
X1457304Y1057836D01*
X1457631Y1055356D01*
X1458588Y1053045D01*
X1460111Y1051061D01*
X1462095Y1049538D01*
X1464406Y1048581D01*
X1466886Y1048254D01*
X1469366Y1048581D01*
X1471677Y1049538D01*
X1473661Y1051061D01*
X1475184Y1053045D01*
X1476142Y1055356D01*
X1476468Y1057836D01*
X1476142Y1060316D01*
X1475184Y1062627D01*
X1473661Y1064612D01*
X1471677Y1066135D01*
X1469366Y1067092D01*
X1466886Y1067418D01*
D02*
G37*
G36*
X1538000Y1049867D02*
X1535659Y1049402D01*
X1533674Y1048076D01*
X1532348Y1046091D01*
X1531882Y1043750D01*
X1532348Y1041409D01*
X1533674Y1039424D01*
X1535659Y1038098D01*
X1538000Y1037633D01*
X1540341Y1038098D01*
X1542326Y1039424D01*
X1543652Y1041409D01*
X1544117Y1043750D01*
X1543652Y1046091D01*
X1542326Y1048076D01*
X1540341Y1049402D01*
X1538000Y1049867D01*
D02*
G37*
G36*
X771000Y1063104D02*
X767867Y1062691D01*
X764948Y1061482D01*
X762441Y1059558D01*
X760518Y1057052D01*
X759309Y1054133D01*
X758896Y1051000D01*
X759309Y1047867D01*
X760518Y1044948D01*
X762441Y1042441D01*
X764948Y1040518D01*
X767867Y1039309D01*
X771000Y1038896D01*
X774133Y1039309D01*
X777052Y1040518D01*
X779558Y1042441D01*
X781482Y1044948D01*
X782691Y1047867D01*
X783104Y1051000D01*
X782691Y1054133D01*
X781482Y1057052D01*
X779558Y1059558D01*
X777052Y1061482D01*
X774133Y1062691D01*
X771000Y1063104D01*
D02*
G37*
G36*
X922795Y1057419D02*
X920454Y1056953D01*
X918469Y1055627D01*
X917143Y1053642D01*
X916677Y1051301D01*
X917143Y1048960D01*
X918469Y1046976D01*
X920454Y1045649D01*
X922795Y1045184D01*
X925136Y1045649D01*
X927121Y1046976D01*
X928447Y1048960D01*
X928913Y1051301D01*
X928447Y1053642D01*
X927121Y1055627D01*
X925136Y1056953D01*
X922795Y1057419D01*
D02*
G37*
%LPD*%
D48*
X800000Y260000D02*
X1790000Y360000D01*
Y1240000D01*
X210000Y260000D02*
X800000D01*
Y1340000D02*
X1790000Y1240000D01*
X210000Y1340000D02*
X800000D01*
X210000Y260000D02*
Y1340000D01*
D56*
X1750000Y400000D02*
D03*
X250000Y1300000D02*
D03*
X750000D02*
D03*
X1250000Y1250000D02*
D03*
X1750000Y1200000D02*
D03*
Y800000D02*
D03*
X1250000Y350000D02*
D03*
X750000Y300000D02*
D03*
X250000D02*
D03*
Y800000D02*
D03*
X1000000D02*
D03*
D57*
X306750Y605000D02*
D03*
Y491000D02*
D03*
X396250Y712500D02*
D03*
X556500Y396750D02*
D03*
D59*
X1466886Y956236D02*
D03*
D60*
X342250Y864250D02*
D03*
D61*
X291000Y1095500D02*
D03*
X301000D02*
D03*
X281000D02*
D03*
Y1110500D02*
D03*
X291000D02*
D03*
X301000D02*
D03*
X281000Y1103000D02*
D03*
X291000D02*
D03*
X301000D02*
D03*
X872250Y361250D02*
D03*
Y371250D02*
D03*
Y385750D02*
D03*
Y396750D02*
D03*
X885000D02*
D03*
X885250Y371250D02*
D03*
X1663000Y1016000D02*
D03*
X1677000Y1004000D02*
D03*
X265750Y1234500D02*
D03*
X1349500Y1259750D02*
D03*
X1345250Y1202000D02*
D03*
X1426500Y1201250D02*
D03*
X1429250Y1259250D02*
D03*
X1226000Y1191500D02*
D03*
Y1164500D02*
D03*
X1662250Y1209500D02*
D03*
X1675000Y1197750D02*
D03*
X1052000Y1294250D02*
D03*
X1143500Y1285250D02*
D03*
X1191500Y1278750D02*
D03*
X1573500Y1142750D02*
D03*
X1570750Y1204250D02*
D03*
X842500Y1266500D02*
D03*
X844000Y1223750D02*
D03*
X602250Y442250D02*
D03*
X862250Y765500D02*
D03*
X774000Y696750D02*
D03*
X813000D02*
D03*
X768250Y445250D02*
D03*
X624250Y442250D02*
D03*
X422250Y637250D02*
D03*
X475250Y637750D02*
D03*
X646250Y1116250D02*
D03*
X670250D02*
D03*
X747000Y1116500D02*
D03*
X723500Y1116000D02*
D03*
X610000Y1109750D02*
D03*
X585750D02*
D03*
X528000Y1108000D02*
D03*
X504025Y1107804D02*
D03*
X528276Y1151056D02*
D03*
X506000Y1151250D02*
D03*
X647000Y1156500D02*
D03*
X670000Y1155750D02*
D03*
X484250Y1083500D02*
D03*
X386500Y1235000D02*
D03*
X920500Y1004000D02*
D03*
X1072500Y854000D02*
D03*
X1035051Y1038301D02*
D03*
X1092000Y1274500D02*
D03*
X1101554Y1000549D02*
D03*
X864792Y740286D02*
D03*
D62*
X1169000Y452423D02*
D03*
Y422423D02*
D03*
D63*
X1688750Y730800D02*
D03*
X1637950D02*
D03*
Y680000D02*
D03*
X1688750D02*
D03*
Y459800D02*
D03*
X1637950D02*
D03*
Y409000D02*
D03*
X1688750D02*
D03*
X1572807Y595139D02*
D03*
X1522007D02*
D03*
Y544339D02*
D03*
X1572807D02*
D03*
D64*
X724750Y1192750D02*
D03*
X591200Y1192500D02*
D03*
X1028800Y1207500D02*
D03*
D66*
X795500Y513000D02*
D03*
D70*
X387500Y445000D02*
D03*
X447500Y665000D02*
D03*
X387500D02*
D03*
D71*
X677500Y720000D02*
D03*
Y418000D02*
D03*
X323500D02*
D03*
D72*
X1653500Y570250D02*
D03*
X1680500Y570000D02*
D03*
X1635666Y622793D02*
D03*
X1391500Y540750D02*
D03*
X1622250Y522000D02*
D03*
X1610000D02*
D03*
X1576750Y947750D02*
D03*
X1617250Y924500D02*
D03*
X1270250Y1091750D02*
D03*
X977250Y1068500D02*
D03*
X552500Y1103500D02*
D03*
X672000Y339750D02*
D03*
X589250Y338750D02*
D03*
X423500Y509250D02*
D03*
X1083000Y801250D02*
D03*
X1065500Y819250D02*
D03*
X1081750Y818750D02*
D03*
X1065500Y780500D02*
D03*
X1065250Y756750D02*
D03*
X1069250Y731750D02*
D03*
X1070750Y709250D02*
D03*
X1025750Y643917D02*
D03*
X1040625Y658625D02*
D03*
X1055500Y673333D02*
D03*
X1070375Y688042D02*
D03*
X935550Y630750D02*
D03*
X954600D02*
D03*
X973650D02*
D03*
X992700D02*
D03*
X1011750D02*
D03*
X798000Y602250D02*
D03*
X778586Y548635D02*
D03*
X810500Y524500D02*
D03*
X827250Y541000D02*
D03*
X842125Y555708D02*
D03*
X857000Y570417D02*
D03*
X871875Y585125D02*
D03*
X886750Y599833D02*
D03*
X901625Y614542D02*
D03*
X916500Y630000D02*
D03*
X1060750Y843000D02*
D03*
X1033500Y770750D02*
D03*
X1033250Y749750D02*
D03*
X1020000Y724250D02*
D03*
Y705000D02*
D03*
X1019500Y685500D02*
D03*
X1009500Y673750D02*
D03*
X998000Y662500D02*
D03*
X978950D02*
D03*
X959900D02*
D03*
X940850D02*
D03*
X921800D02*
D03*
X902750D02*
D03*
X887875Y647042D02*
D03*
X873000Y632333D02*
D03*
X858125Y617625D02*
D03*
X843250Y602917D02*
D03*
X828375Y588208D02*
D03*
X813500Y573500D02*
D03*
X803250Y936000D02*
D03*
X811500Y1000250D02*
D03*
X1192000Y551750D02*
D03*
X1199000Y382250D02*
D03*
X1763250Y904250D02*
D03*
X1766750Y1092000D02*
D03*
X1765500Y1008250D02*
D03*
X1772250Y642250D02*
D03*
X1770500Y513000D02*
D03*
X1122750Y315750D02*
D03*
X1429250Y341500D02*
D03*
X1543750Y352750D02*
D03*
X1634000Y358000D02*
D03*
X1643350Y782750D02*
D03*
X1664650D02*
D03*
X1685950D02*
D03*
X1622050D02*
D03*
X1600750Y782750D02*
D03*
X1152500Y423000D02*
D03*
X1139000Y453750D02*
D03*
X1152250Y453500D02*
D03*
X1191000Y523000D02*
D03*
X1284750Y384250D02*
D03*
X1138000Y422750D02*
D03*
X1164750Y467250D02*
D03*
X1275000Y630250D02*
D03*
X1252875D02*
D03*
X1230750D02*
D03*
X1213000Y616250D02*
D03*
X1173250Y407250D02*
D03*
X1583500Y693000D02*
D03*
X1543000Y643750D02*
D03*
X1441750Y612000D02*
D03*
X1379000Y612500D02*
D03*
X1320250D02*
D03*
X1580500Y434000D02*
D03*
X1530000D02*
D03*
X1585750Y525250D02*
D03*
X1617250Y669250D02*
D03*
X1614500Y642250D02*
D03*
X1586250Y490000D02*
D03*
X1616500Y473750D02*
D03*
X1616250Y486250D02*
D03*
X1616750Y505250D02*
D03*
X1575000Y504000D02*
D03*
X1551000Y503250D02*
D03*
X1525000Y499250D02*
D03*
X1503250Y504000D02*
D03*
X1481750Y486000D02*
D03*
X1470000Y486500D02*
D03*
X1491000Y503750D02*
D03*
X1461250Y502250D02*
D03*
X1445750Y499500D02*
D03*
X1413000Y486750D02*
D03*
X1412500Y467000D02*
D03*
X1430750Y500750D02*
D03*
X1477250Y589750D02*
D03*
X1443750Y529750D02*
D03*
X1424750Y529000D02*
D03*
X1217500Y542450D02*
D03*
X1213000Y560900D02*
D03*
Y579350D02*
D03*
Y597800D02*
D03*
X1295750Y643000D02*
D03*
X1323292D02*
D03*
X1350833D02*
D03*
X1378375D02*
D03*
X1405917D02*
D03*
X1433458D02*
D03*
X1461000D02*
D03*
X1480964Y662964D02*
D03*
X1500928Y682929D02*
D03*
X1520893Y702893D02*
D03*
X1540857Y722857D02*
D03*
X1560821Y742821D02*
D03*
X1580786Y762786D02*
D03*
X1198000Y504250D02*
D03*
X1187250Y415750D02*
D03*
X1203500Y404500D02*
D03*
X1219500Y404750D02*
D03*
X1743000Y613523D02*
D03*
Y640568D02*
D03*
Y667614D02*
D03*
Y694659D02*
D03*
Y721704D02*
D03*
Y586477D02*
D03*
Y559432D02*
D03*
Y532386D02*
D03*
Y505341D02*
D03*
Y478295D02*
D03*
Y451250D02*
D03*
X1645500Y510500D02*
D03*
X1639500Y482500D02*
D03*
X1652750Y660250D02*
D03*
X1639500Y705500D02*
D03*
X1662250Y729500D02*
D03*
X1687500Y705250D02*
D03*
X1339625Y577000D02*
D03*
X1323219D02*
D03*
X1306812D02*
D03*
X1290406D02*
D03*
X1508750Y374250D02*
D03*
X1541062D02*
D03*
X1573375D02*
D03*
X1605687D02*
D03*
X1638000D02*
D03*
X1670312D02*
D03*
X1702625D02*
D03*
X1444125D02*
D03*
X1411812D02*
D03*
X1379500D02*
D03*
X1347188D02*
D03*
X1314875D02*
D03*
X1423250Y430250D02*
D03*
X1423500Y404500D02*
D03*
X1476750Y388250D02*
D03*
X1474500Y430500D02*
D03*
X1450750Y388000D02*
D03*
X1451000Y432750D02*
D03*
X1434500Y449000D02*
D03*
X1432250Y466500D02*
D03*
X1465250Y534000D02*
D03*
X1456250Y524500D02*
D03*
X1410750Y531250D02*
D03*
X1458250Y590250D02*
D03*
X1637250Y520750D02*
D03*
X1611000Y549250D02*
D03*
X1593000Y549000D02*
D03*
X1593500Y591000D02*
D03*
X1611500Y591250D02*
D03*
X1423000Y590250D02*
D03*
X1407250Y590000D02*
D03*
X1372437Y577000D02*
D03*
X1388844D02*
D03*
X1405250D02*
D03*
X1440500Y590000D02*
D03*
X1689500Y433000D02*
D03*
X1636750Y433250D02*
D03*
X1663250Y404500D02*
D03*
X1646000Y523000D02*
D03*
X1645500Y631011D02*
D03*
X1688250Y659500D02*
D03*
Y614500D02*
D03*
X1548250Y597500D02*
D03*
X1532750Y527250D02*
D03*
X1340500Y543000D02*
D03*
X1322750D02*
D03*
X1305000D02*
D03*
X1287250D02*
D03*
X1338000Y465500D02*
D03*
X1322000D02*
D03*
X1306000D02*
D03*
X1290000D02*
D03*
X1458750Y552500D02*
D03*
X1442250D02*
D03*
X1433929Y538301D02*
D03*
X1419263Y538117D02*
D03*
X1547250Y543000D02*
D03*
X692000Y908250D02*
D03*
X718250Y908000D02*
D03*
Y885750D02*
D03*
X1216500Y487500D02*
D03*
X604500Y757500D02*
D03*
Y810500D02*
D03*
X602000Y863750D02*
D03*
X691750Y886250D02*
D03*
X718250Y865750D02*
D03*
X692250Y872000D02*
D03*
X690000Y806750D02*
D03*
X690250Y813250D02*
D03*
X718750Y813750D02*
D03*
Y807000D02*
D03*
X1044000Y707500D02*
D03*
X1266500Y585000D02*
D03*
X1249000D02*
D03*
X1688000Y479750D02*
D03*
X1629000Y591000D02*
D03*
X1505500Y526750D02*
D03*
X1490500D02*
D03*
X1356031Y577000D02*
D03*
X1354000Y565000D02*
D03*
Y550000D02*
D03*
Y535000D02*
D03*
Y520000D02*
D03*
X1274000Y577000D02*
D03*
Y565000D02*
D03*
Y550000D02*
D03*
Y535000D02*
D03*
Y520000D02*
D03*
X1354000Y420000D02*
D03*
Y435000D02*
D03*
Y450000D02*
D03*
X1354000Y465500D02*
D03*
X1354000Y480000D02*
D03*
Y495000D02*
D03*
X1274000D02*
D03*
Y480000D02*
D03*
Y465500D02*
D03*
Y450000D02*
D03*
Y435000D02*
D03*
Y420000D02*
D03*
X1234000Y585000D02*
D03*
Y570000D02*
D03*
Y555000D02*
D03*
Y540000D02*
D03*
Y525000D02*
D03*
Y510000D02*
D03*
X1218000Y524000D02*
D03*
X1201500Y487500D02*
D03*
X1188250Y487500D02*
D03*
X1234000Y450000D02*
D03*
Y420000D02*
D03*
Y405000D02*
D03*
X1249000Y507500D02*
D03*
X1264000D02*
D03*
X1279000D02*
D03*
X1294000D02*
D03*
X1309000D02*
D03*
X1324000D02*
D03*
X1339000D02*
D03*
X1354000D02*
D03*
X1369000D02*
D03*
X1384000D02*
D03*
X1395500Y494750D02*
D03*
Y479750D02*
D03*
Y464750D02*
D03*
X1395000Y449750D02*
D03*
X1395500Y434750D02*
D03*
Y419750D02*
D03*
Y404750D02*
D03*
X1384000Y405000D02*
D03*
X1369000D02*
D03*
X1354000D02*
D03*
X1339000D02*
D03*
X1324000D02*
D03*
X1309000D02*
D03*
X1294000D02*
D03*
X1279000D02*
D03*
X1264000D02*
D03*
X1249000D02*
D03*
X1490250Y539750D02*
D03*
X1495500Y551500D02*
D03*
X1502000Y590500D02*
D03*
X1487250Y590750D02*
D03*
X1617332Y658716D02*
D03*
X1618750Y623000D02*
D03*
X1638298Y658929D02*
D03*
X1552250Y525500D02*
D03*
X1572250D02*
D03*
X1645500Y603250D02*
D03*
X1645750Y590000D02*
D03*
Y536000D02*
D03*
X1688250Y494500D02*
D03*
Y509500D02*
D03*
Y524500D02*
D03*
Y539500D02*
D03*
Y554500D02*
D03*
Y644500D02*
D03*
Y629500D02*
D03*
X1645500Y617250D02*
D03*
X1688250Y599500D02*
D03*
Y584500D02*
D03*
X1358500Y544750D02*
D03*
X1404000Y539250D02*
D03*
X1021000Y1154000D02*
D03*
X1011000Y1142000D02*
D03*
X1007000Y1118000D02*
D03*
X445500Y395750D02*
D03*
X763500Y372250D02*
D03*
X892500Y284750D02*
D03*
X1404750Y952750D02*
D03*
Y985250D02*
D03*
X1404250Y1018500D02*
D03*
Y1050500D02*
D03*
X1403250Y1083500D02*
D03*
Y1116250D02*
D03*
X1346500Y975000D02*
D03*
X1346000Y1009000D02*
D03*
Y1043000D02*
D03*
Y1076750D02*
D03*
X1346500Y1110000D02*
D03*
X1346250Y1142750D02*
D03*
X1707750Y769500D02*
D03*
X1728000Y749000D02*
D03*
X1173250Y507250D02*
D03*
X1713250Y435750D02*
D03*
X1702500Y391750D02*
D03*
X633000Y935250D02*
D03*
X705000Y843000D02*
D03*
X753000Y888250D02*
D03*
X800500Y870750D02*
D03*
X672000Y773000D02*
D03*
X758000Y812000D02*
D03*
X634500Y735250D02*
D03*
X604250Y704250D02*
D03*
X517750Y699750D02*
D03*
X549250Y722250D02*
D03*
X430750Y699000D02*
D03*
X606250Y673000D02*
D03*
X451750Y468000D02*
D03*
X508250Y469500D02*
D03*
X538750Y532750D02*
D03*
X595500Y588500D02*
D03*
X637750Y628500D02*
D03*
X564750Y470000D02*
D03*
X523750Y421000D02*
D03*
X470750Y424500D02*
D03*
X640000Y366000D02*
D03*
X541500Y283500D02*
D03*
X781500Y662000D02*
D03*
X932250Y698750D02*
D03*
X720500Y776250D02*
D03*
X779000Y750250D02*
D03*
X941500Y875500D02*
D03*
X754750Y549500D02*
D03*
X625000Y558500D02*
D03*
X798500Y344750D02*
D03*
X834250Y350250D02*
D03*
X847750Y444000D02*
D03*
X917750Y400250D02*
D03*
X925750Y603000D02*
D03*
X1106000Y577250D02*
D03*
X1115500Y521250D02*
D03*
X1093750Y357500D02*
D03*
X948500Y363500D02*
D03*
X1048750D02*
D03*
X989500Y454250D02*
D03*
X859750Y484750D02*
D03*
X954500Y533500D02*
D03*
X1056000D02*
D03*
X1016250Y605500D02*
D03*
X976250D02*
D03*
X1212500Y641000D02*
D03*
X1300500Y665250D02*
D03*
X1375500Y664750D02*
D03*
X1448250D02*
D03*
X1130000Y873750D02*
D03*
X1105000Y895250D02*
D03*
X1129250Y903500D02*
D03*
X1168750Y1001750D02*
D03*
X1154750Y983000D02*
D03*
X1089250Y1025750D02*
D03*
X1205500Y951750D02*
D03*
X1205000Y980000D02*
D03*
X1323500Y686750D02*
D03*
X1247500Y763750D02*
D03*
X1455500Y686750D02*
D03*
X1522250Y735000D02*
D03*
X1586000Y800250D02*
D03*
X960250Y888500D02*
D03*
X1055750Y1050250D02*
D03*
X1109250Y1184500D02*
D03*
X1189750Y1100250D02*
D03*
X651500Y1238250D02*
D03*
X717750Y1237000D02*
D03*
X809500Y1231750D02*
D03*
X821000Y1178250D02*
D03*
X581750Y1238750D02*
D03*
X449750Y1214250D02*
D03*
X385500Y1319500D02*
D03*
X484750Y1320750D02*
D03*
X609000Y1321250D02*
D03*
X231750Y1202000D02*
D03*
X233500Y945750D02*
D03*
X231250Y1073750D02*
D03*
X233000Y663500D02*
D03*
X234500Y434500D02*
D03*
X378500Y285500D02*
D03*
X232000Y555250D02*
D03*
X1666500Y945750D02*
D03*
X1665750Y1140000D02*
D03*
X543000Y938000D02*
D03*
X635500Y1040500D02*
D03*
X486000Y956250D02*
D03*
X564250Y1031750D02*
D03*
X594250Y1061250D02*
D03*
X463250Y1068000D02*
D03*
X450250Y1181750D02*
D03*
X1544500Y1165250D02*
D03*
X1190500Y1141250D02*
D03*
X1298250Y1129250D02*
D03*
X1497750Y908250D02*
D03*
X1519250Y1038750D02*
D03*
X1450750Y793750D02*
D03*
X1256500Y833250D02*
D03*
X1308750Y832500D02*
D03*
X1332250Y893000D02*
D03*
X1500750Y856500D02*
D03*
X1565000Y904750D02*
D03*
X1604200Y955000D02*
D03*
X1218750Y1071500D02*
D03*
X951500Y1302750D02*
D03*
X854750Y1312250D02*
D03*
X1356750Y931000D02*
D03*
X1263000Y898000D02*
D03*
X1201000Y830500D02*
D03*
X1428000Y1169750D02*
D03*
X1513500Y966500D02*
D03*
X1007500Y1265250D02*
D03*
X1274750Y1055250D02*
D03*
X1203000Y1165000D02*
D03*
X1138250Y1147500D02*
D03*
X867250Y1115750D02*
D03*
X1604000Y1078750D02*
D03*
X1635500Y1235500D02*
D03*
X1501250Y1247250D02*
D03*
X1534750Y1242500D02*
D03*
X1221250Y785000D02*
D03*
X1229500Y747750D02*
D03*
X1208750Y704750D02*
D03*
X1195000Y572750D02*
D03*
X1194500Y623750D02*
D03*
X1352500Y352500D02*
D03*
X1429000Y355500D02*
D03*
X722750Y601750D02*
D03*
X648000Y1078000D02*
D03*
X589750Y1136750D02*
D03*
X837250Y1075000D02*
D03*
X1325500Y792500D02*
D03*
X1256000Y810750D02*
D03*
X733500Y932500D02*
D03*
X513250Y558750D02*
D03*
X725500Y500000D02*
D03*
X804000Y382250D02*
D03*
X982500Y1208250D02*
D03*
X1109000Y914750D02*
D03*
X1476072Y374268D02*
D03*
X1627079Y549027D02*
D03*
X1646580Y547027D02*
D03*
D73*
X1110000Y778250D02*
D03*
X1109500Y799500D02*
D03*
Y821250D02*
D03*
X1124500Y804500D02*
D03*
X1124250Y789000D02*
D03*
X1130400Y773250D02*
D03*
Y756750D02*
D03*
X1109250Y732750D02*
D03*
X987250Y686000D02*
D03*
Y698000D02*
D03*
Y733750D02*
D03*
X975000D02*
D03*
Y697750D02*
D03*
X1251250Y972500D02*
D03*
X1265750Y972750D02*
D03*
X1303000Y972500D02*
D03*
Y984500D02*
D03*
X1265500D02*
D03*
X1225750Y691000D02*
D03*
X1240750D02*
D03*
X1277000Y690500D02*
D03*
X1277250Y677750D02*
D03*
X1240500Y678000D02*
D03*
X721000Y974000D02*
D03*
X736750Y974250D02*
D03*
X690000Y986750D02*
D03*
X721000D02*
D03*
X705750Y974000D02*
D03*
X690250D02*
D03*
X673250D02*
D03*
X656250D02*
D03*
X656500Y987000D02*
D03*
X919750Y851250D02*
D03*
Y839500D02*
D03*
X901500Y839250D02*
D03*
X883750Y839000D02*
D03*
X867000D02*
D03*
X849500Y838750D02*
D03*
X834250D02*
D03*
X817500Y838500D02*
D03*
X817750Y850750D02*
D03*
X1131750Y1057000D02*
D03*
X1146500D02*
D03*
X1164750Y1057500D02*
D03*
X1178000Y1057750D02*
D03*
X1188750D02*
D03*
X1189000Y1045750D02*
D03*
X1178250D02*
D03*
X1103304Y1089553D02*
D03*
X1103250Y1106250D02*
D03*
X1103000Y1129250D02*
D03*
X1102750Y1144000D02*
D03*
X1102500Y1156250D02*
D03*
X1089500D02*
D03*
Y1143750D02*
D03*
X990500Y1090250D02*
D03*
Y1104750D02*
D03*
Y1123000D02*
D03*
Y1136250D02*
D03*
X990650Y1147000D02*
D03*
X978500D02*
D03*
X888500Y1044250D02*
D03*
X868500D02*
D03*
X847500D02*
D03*
X827500Y1044000D02*
D03*
X827750Y1030750D02*
D03*
X933750Y1257750D02*
D03*
X921750Y1244250D02*
D03*
Y1231750D02*
D03*
X946500D02*
D03*
X946250Y1244750D02*
D03*
X934250D02*
D03*
X1412000Y881750D02*
D03*
X1399250Y867250D02*
D03*
X437500Y732500D02*
D03*
Y747500D02*
D03*
Y762500D02*
D03*
Y777500D02*
D03*
Y792500D02*
D03*
Y807500D02*
D03*
Y822500D02*
D03*
Y837500D02*
D03*
Y852500D02*
D03*
Y867500D02*
D03*
X450000Y875000D02*
D03*
Y860000D02*
D03*
Y845000D02*
D03*
Y830000D02*
D03*
Y815000D02*
D03*
Y800000D02*
D03*
Y785000D02*
D03*
Y770000D02*
D03*
Y755000D02*
D03*
Y740000D02*
D03*
Y725000D02*
D03*
X252500Y1095000D02*
D03*
Y1110000D02*
D03*
X352500Y1030000D02*
D03*
Y1015000D02*
D03*
Y1000000D02*
D03*
Y985000D02*
D03*
Y970000D02*
D03*
X367500Y985000D02*
D03*
Y970000D02*
D03*
X337500Y955000D02*
D03*
X352500D02*
D03*
X367500D02*
D03*
X734500Y664250D02*
D03*
X734250Y653500D02*
D03*
X734000Y643000D02*
D03*
X1052750Y312250D02*
D03*
X1064500Y312000D02*
D03*
X1040750D02*
D03*
X1046500Y300500D02*
D03*
X1058500Y300833D02*
D03*
X1123805Y820540D02*
D03*
D74*
X279250Y1197000D02*
D03*
M02*
